<svg width="561" height="387" fill="none" xmlns="http://www.w3.org/2000/svg"><g filter="url(#filter0_d_784_1617)"><rect x="16" y="54" width="521" height="289" rx="22" fill="#fff"/></g><path d="M510.816 243.127c-.307-11.265.568-30.477-9.308-38.387-8.677-6.946-15.424 2.48-17.859 10.084-5.899 18.445-3.13 38.784-3.112 57.825v.902c-.46 14.016-2.147 29.178-.613 43.168 0 0-1.507-14.017-12.511-8.01s5.502 37.531 5.502 37.531-13.006-9.507-19.013-1.497c-6.007 8.009 7.504 17.011 7.504 17.011s-12.51-3.5-12.51 0 4.005 6.503 15.514 8.009h62.037s10.012-5.511 8.01-11.509c-2.003-5.998-12.52-2.543-12.52-2.543s16.019-19.519 15.018-28.024c-1.001-8.506-21.521 1.506-21.521 1.506s16.01-40.534 13.006-58.547c-2.363-14.188-13.376-4.51-19.374.974a163.635 163.635 0 001.75-28.493z" fill="#FF8562" stroke="#fff" stroke-linecap="round" stroke-linejoin="round"/><path opacity=".5" d="M510.816 243.127c-.307-11.265.568-30.477-9.308-38.387-8.677-6.946-15.424 2.48-17.859 10.084-5.899 18.445-3.13 38.784-3.112 57.825v.902c-.46 14.016-2.147 29.178-.613 43.168 0 0-1.507-14.017-12.511-8.01s5.502 37.531 5.502 37.531-13.006-9.507-19.013-1.497c-6.007 8.009 7.504 17.011 7.504 17.011s-12.51-3.5-12.51 0 4.005 6.503 15.514 8.009h62.037s10.012-5.511 8.01-11.509c-2.003-5.998-12.52-2.543-12.52-2.543s16.019-19.519 15.018-28.024c-1.001-8.506-21.521 1.506-21.521 1.506s16.01-40.534 13.006-58.547c-2.363-14.188-13.376-4.51-19.374.974a163.635 163.635 0 001.75-28.493z" fill="#fff"/><path d="M490.91 369.222l4.51-137.613m-2.003 80.068l23.514-22.017m-12.51 12.005l5.006-14.008m-35.529 41.031l18.013 19.518m30.026-8.505l-30.026 15.514m14.016-6.512l11.004-.497" stroke="#fff" stroke-linecap="round" stroke-linejoin="round"/><path d="M490.91 369.222l4.51-137.613m-2.003 80.068l23.514-22.017m-12.51 12.005l5.006-14.008m-35.529 41.031l18.013 19.518m30.026-8.505l-30.026 15.514m14.016-6.512l11.004-.497" stroke="#FF8562" stroke-linecap="round" stroke-linejoin="round"/><path opacity=".8" d="M490.91 369.222l4.51-137.613m-2.003 80.068l23.514-22.017m-12.51 12.005l5.006-14.008m-35.529 41.031l18.013 19.518m30.027-8.505l-30.027 15.513m14.017-6.512l11.004-.496" stroke="#fff" stroke-linecap="round" stroke-linejoin="round"/><path d="M404.952 341.414c0 13.99 11.085 25.337 11.085 25.337s11.085-11.347 11.085-25.337c0-13.989-11.085-25.336-11.085-25.336s-11.085 11.338-11.085 25.336z" fill="#FF8562"/><path d="M397.267 362.999c5.412 6.07 14.558 6.728 14.558 6.728s.442-9.191-4.934-15.261c-5.375-6.07-14.557-6.729-14.557-6.729s-.451 9.191 4.933 15.262zm28.25-8.74c-5.656 5.817-5.62 15.017-5.62 15.017s9.192-.243 14.838-6.07c5.646-5.827 5.628-15.018 5.628-15.018s-9.2.244-14.846 6.071z" fill="#FF8562"/><g opacity=".5"><path opacity=".5" d="M404.952 341.414c0 13.99 11.085 25.337 11.085 25.337s11.085-11.347 11.085-25.337c0-13.989-11.085-25.336-11.085-25.336s-11.085 11.338-11.085 25.336z" fill="#fff"/><path opacity=".5" d="M416.037 366.751v-50.673m.001 18.013l-6.206-5.421m6.304 13.791l7.685-11.13m-7.784 15.955l-9.164-8.171m9.263 14.675l9.065-8.073m-9.064 13.692l-7.099-5.62" stroke="#fff" stroke-linecap="round" stroke-linejoin="round"/><path opacity=".5" d="M397.267 362.999c5.412 6.07 14.558 6.728 14.558 6.728s.442-9.191-4.934-15.261c-5.375-6.07-14.557-6.729-14.557-6.729s-.451 9.191 4.933 15.262z" fill="#fff"/><path opacity=".5" d="M411.825 369.727l-19.492-21.99m6.927 7.82l-4.78.036m8.046 3.554l-.947-7.784m2.76 9.922l-7.117-.027m9.66 2.805l.821-6.99m1.344 9.425l-5.24.298" stroke="#fff" stroke-linecap="round" stroke-linejoin="round"/><path opacity=".5" d="M425.517 354.259c-5.655 5.817-5.619 15.017-5.619 15.017s9.191-.243 14.837-6.07c5.647-5.827 5.629-15.018 5.629-15.018s-9.201.244-14.847 6.071z" fill="#fff"/><path opacity=".5" d="M419.898 369.276l20.466-21.088m-7.28 7.496l-.388-4.763m-2.949 8.289l7.694-1.533m-9.687 3.5l-.505-7.099m-2.084 9.841l7.035.306m-9.299 2.03l-.685-5.196" stroke="#fff" stroke-linecap="round" stroke-linejoin="round"/></g><path d="M416.037 366.751v-50.673m.001 18.013l-6.206-5.421m6.305 13.791l7.684-11.13m-7.784 15.955l-9.164-8.171m9.264 14.675l9.064-8.073m-9.064 13.692l-7.099-5.62" stroke="#FF8562" stroke-linecap="round" stroke-linejoin="round"/><path opacity=".7" d="M416.037 366.751v-50.673m0 18.013l-6.205-5.421m6.304 13.791l7.685-11.13m-7.784 15.955l-9.164-8.171m9.263 14.675l9.065-8.073m-9.065 13.692l-7.098-5.62" stroke="#fff" stroke-linecap="round" stroke-linejoin="round"/><path d="M411.825 369.727l-19.492-21.99m6.928 7.82l-4.781.036m8.046 3.554l-.947-7.784m2.76 9.922l-7.117-.027m9.66 2.805l.821-6.99m1.344 9.425l-5.24.298" stroke="#FF8562" stroke-linecap="round" stroke-linejoin="round"/><path opacity=".7" d="M411.825 369.727l-19.492-21.99m6.927 7.82l-4.78.037m8.046 3.553l-.947-7.784m2.76 9.922l-7.117-.027m9.66 2.805l.821-6.99m1.344 9.425l-5.24.298" stroke="#fff" stroke-linecap="round" stroke-linejoin="round"/><path d="M419.897 369.276l20.466-21.088m-7.278 7.496l-.388-4.763m-2.95 8.289l7.694-1.533m-9.687 3.5l-.505-7.099m-2.084 9.841l7.035.306m-9.299 2.03l-.685-5.196" stroke="#FF8562" stroke-linecap="round" stroke-linejoin="round"/><path opacity=".7" d="M419.897 369.276l20.466-21.088m-7.279 7.496l-.388-4.763m-2.949 8.289l7.693-1.533m-9.687 3.5l-.505-7.099m-2.083 9.841l7.035.306m-9.299 2.03l-.686-5.196" stroke="#fff" stroke-linecap="round" stroke-linejoin="round"/><path d="M52.184 243.127c.298-11.265-.568-30.477 9.308-38.387 8.677-6.946 15.424 2.48 17.85 10.084 5.908 18.445 3.13 38.784 3.121 57.825v.902c.47 14.016 2.147 29.178.622 43.168 0 0 1.498-14.017 12.51-8.01 11.014 6.007-5.51 37.531-5.51 37.531s13.015-9.507 19.022-1.497c6.007 8.009-7.486 16.975-7.486 16.975s12.51-3.5 12.51 0c0 3.499-4.005 6.503-15.514 8.009H36.553s-10.012-5.511-8.01-11.509c2.003-5.998 12.51-2.507 12.51-2.507s-16.01-19.519-15.008-28.024c1.001-8.506 21.521 1.506 21.521 1.506s-16.019-40.534-13.015-58.52c2.363-14.188 13.385-4.509 19.374.974a163.673 163.673 0 01-1.74-28.52v0z" fill="#FF8562" stroke="#fff" stroke-linecap="round" stroke-linejoin="round"/><path opacity=".5" d="M52.184 243.127c.298-11.265-.568-30.477 9.308-38.387 8.677-6.946 15.424 2.48 17.85 10.084 5.908 18.445 3.13 38.784 3.121 57.825v.902c.47 14.016 2.147 29.178.622 43.168 0 0 1.498-14.017 12.51-8.01 11.014 6.007-5.51 37.531-5.51 37.531s13.015-9.507 19.022-1.497c6.007 8.009-7.486 16.975-7.486 16.975s12.51-3.5 12.51 0c0 3.499-4.005 6.503-15.514 8.009H36.553s-10.012-5.511-8.01-11.509c2.003-5.998 12.51-2.507 12.51-2.507s-16.01-19.519-15.008-28.024c1.001-8.506 21.521 1.506 21.521 1.506s-16.019-40.534-13.015-58.52c2.363-14.188 13.385-4.509 19.374.974a163.673 163.673 0 01-1.74-28.52z" fill="#fff"/><path d="M72.081 369.222l-4.5-137.613m2.002 80.068L46.06 289.66m12.51 12.005l-5.006-14.008m35.528 41.031L71.08 348.206m-30.026-8.505l30.026 15.514m-14.007-6.512l-11.013-.497" stroke="#fff" stroke-linecap="round" stroke-linejoin="round"/><path d="M72.081 369.222l-4.5-137.613m2.002 80.068L46.06 289.66m12.51 12.005l-5.006-14.008m35.528 41.031L71.08 348.206m-30.026-8.505l30.026 15.514m-14.007-6.512l-11.013-.497" stroke="#FF8562" stroke-linecap="round" stroke-linejoin="round"/><path opacity=".8" d="M72.081 369.222l-4.5-137.613m2.002 80.068L46.06 289.66m12.51 12.005l-5.006-14.008m35.528 41.031L71.08 348.206m-30.026-8.505l30.026 15.513m-14.007-6.512l-11.013-.496" stroke="#fff" stroke-linecap="round" stroke-linejoin="round"/><path d="M159.852 341.414c0 13.99-11.085 25.337-11.085 25.337S137.7 355.404 137.7 341.414c0-13.989 11.085-25.336 11.085-25.336s11.067 11.338 11.067 25.336z" fill="#FF8562"/><path d="M167.527 362.999c-5.411 6.07-14.557 6.728-14.557 6.728s-.442-9.191 4.943-15.261c5.384-6.07 14.557-6.729 14.557-6.729s.406 9.191-4.943 15.262zm-28.24-8.74c5.647 5.817 5.62 15.017 5.62 15.017s-9.191-.243-14.847-6.07c-5.655-5.827-5.619-15.018-5.619-15.018s9.191.244 14.846 6.071z" fill="#FF8562"/><g opacity=".5"><path opacity=".5" d="M159.852 341.414c0 13.99-11.085 25.337-11.085 25.337S137.7 355.404 137.7 341.414c0-13.989 11.085-25.336 11.085-25.336s11.067 11.338 11.067 25.336z" fill="#fff"/><path opacity=".5" d="M148.767 366.751v-50.673m0 18.013l6.206-5.421m-6.305 13.791l-7.685-11.13m7.784 15.955l9.164-8.171m-9.263 14.675l-9.065-8.073m9.064 13.692l7.09-5.62" stroke="#fff" stroke-linecap="round" stroke-linejoin="round"/><path opacity=".5" d="M167.528 362.999c-5.412 6.07-14.558 6.728-14.558 6.728s-.442-9.191 4.943-15.261c5.385-6.07 14.558-6.729 14.558-6.729s.406 9.191-4.943 15.262z" fill="#fff"/><path opacity=".5" d="M152.97 369.727l19.501-21.99m-6.928 7.82l4.772.036m-8.037 3.554l.947-7.784m-2.768 9.922l7.125-.027m-9.669 2.805l-.821-6.99m-1.335 9.425l5.241.298" stroke="#fff" stroke-linecap="round" stroke-linejoin="round"/><path opacity=".5" d="M139.287 354.259c5.647 5.817 5.62 15.017 5.62 15.017s-9.191-.243-14.847-6.07c-5.655-5.827-5.619-15.018-5.619-15.018s9.191.244 14.846 6.071z" fill="#fff"/><path opacity=".5" d="M144.907 369.276l-20.466-21.088m7.27 7.496l.397-4.763m2.949 8.289l-7.694-1.533m9.679 3.5l.514-7.099m2.074 9.841l-7.035.306m9.308 2.03l.676-5.196" stroke="#fff" stroke-linecap="round" stroke-linejoin="round"/></g><path d="M148.767 366.751v-50.673m0 18.013l6.205-5.421m-6.305 13.791l-7.685-11.13m7.785 15.955l9.164-8.171m-9.264 14.675l-9.064-8.073m9.064 13.692l7.09-5.62" stroke="#FF8562" stroke-linecap="round" stroke-linejoin="round"/><path opacity=".7" d="M148.767 366.751v-50.673m0 18.013l6.205-5.421m-6.305 13.791l-7.685-11.13m7.785 15.955l9.164-8.171m-9.264 14.675l-9.064-8.073m9.064 13.692l7.089-5.62" stroke="#fff" stroke-linecap="round" stroke-linejoin="round"/><path d="M152.97 369.727l19.5-21.99m-6.927 7.82l4.771.036m-8.036 3.554l.947-7.784m-2.769 9.922l7.126-.027m-9.669 2.805l-.821-6.99m-1.335 9.425l5.24.298" stroke="#FF8562" stroke-linecap="round" stroke-linejoin="round"/><path opacity=".7" d="M152.97 369.727l19.5-21.99m-6.927 7.82l4.772.037m-8.037 3.553l.947-7.784m-2.769 9.922l7.126-.027m-9.669 2.805l-.821-6.99m-1.335 9.425l5.24.298" stroke="#fff" stroke-linecap="round" stroke-linejoin="round"/><path d="M144.907 369.276l-20.466-21.088m7.269 7.496l.397-4.763m2.95 8.289l-7.694-1.533m9.678 3.5l.514-7.099m2.075 9.841l-7.036.306m9.309 2.03l.676-5.196" stroke="#FF8562" stroke-linecap="round" stroke-linejoin="round"/><path opacity=".7" d="M144.907 369.276l-20.466-21.088m7.27 7.496l.397-4.763m2.949 8.289l-7.694-1.533m9.679 3.5l.514-7.099m2.074 9.841l-7.035.306m9.308 2.03l.676-5.196" stroke="#fff" stroke-linecap="round" stroke-linejoin="round"/><path d="M409.388 136.109H165.559a.537.537 0 01-.395-.158.545.545 0 01-.164-.392.559.559 0 01.559-.559h243.829a.559.559 0 01.392.164.552.552 0 01.158.395.55.55 0 01-.55.55z" fill="#FF8562"/><path opacity=".3" d="M409.534 132.663H165.706a.56.56 0 01-.395-.158.542.542 0 01-.165-.392.56.56 0 01.56-.56h243.828a.555.555 0 01.511.346.56.56 0 01-.122.603.55.55 0 01-.389.161z" fill="#fff"/><path d="M409.047 198.372H165.218a.555.555 0 01-.394-.158.55.55 0 01-.001-.788.559.559 0 01.395-.164h243.829a.559.559 0 01.392.165.548.548 0 01.158.395.543.543 0 01-.161.389.562.562 0 01-.389.161z" fill="#FF8562"/><path opacity=".3" d="M409.047 198.372H165.218a.555.555 0 01-.394-.158.55.55 0 01-.001-.788.559.559 0 01.395-.164h243.829a.559.559 0 01.392.165.548.548 0 01.158.395.543.543 0 01-.161.389.562.562 0 01-.389.161z" fill="#fff"/><path d="M450.429 386.251c34.382 0 62.254-3.743 62.254-8.361s-27.872-8.361-62.254-8.361c-34.381 0-62.253 3.743-62.253 8.361s27.872 8.361 62.253 8.361z" fill="#FF8562"/><path opacity=".7" d="M450.429 386.251c34.382 0 62.254-3.743 62.254-8.361s-27.872-8.361-62.254-8.361c-34.381 0-62.253 3.743-62.253 8.361s27.872 8.361 62.253 8.361z" fill="#fff"/><path d="M109.36 386.251c31.726 0 57.446-3.743 57.446-8.361s-25.72-8.361-57.446-8.361c-31.727 0-57.446 3.743-57.446 8.361s25.72 8.361 57.446 8.361z" fill="#FF8562"/><path opacity=".7" d="M109.36 386.251c31.726 0 57.446-3.743 57.446-8.361s-25.72-8.361-57.446-8.361c-31.727 0-57.446 3.743-57.446 8.361s25.72 8.361 57.446 8.361z" fill="#fff"/><path d="M123.549 112.536s-21.063-2.041-22.268 1.47c-1.205 3.51-.803 11.527-.803 11.527a18.735 18.735 0 00-3.093 1.101c-.281.273-3.398 2.313-.49 5.663.76.85 1.68 1.54 2.707 2.033a20.087 20.087 0 013.639 2.088l4.226 4.796-.804 6.178s-1.887 1.365-4.193 6.129c0 0-5.446 3.213-8.644 5.037a56.342 56.342 0 01-8.177 3.502s-1.462.474-1.358 1.526c.105 1.053 7.278 24.903 7.278 24.903l3.776 12.05c.071 1.481.265 2.953.578 4.402.538 2.595 2.563 4.298 4.659 3.768l-.209 8.836s9.849 4.924 26.092 4.089c0 0 7.648-.739 13.303-4.924l.104-20.646 26.06-5.044s3.301-.699 1.606-3.672c-1.695-2.972-7.39-10.346-7.39-10.346l-18.308-22.397s-1.261-1.486-1.727-1.96c-.466-.474-1.606-.803-6.129-1.181-4.523-.377-9.592-1.253-9.592-1.253s-2.747-2.362-3.14-2.362c-.394 0-.474-3.534-.474-3.534a11.862 11.862 0 004.876-8.644c.393-5.736-2.121-19.175-2.121-19.175l.016-3.96z" fill="#fff"/><path d="M139.447 216.629s2.217 32.936 2.217 48.697c0 15.761-.988 28.526-1.478 39.595-.49 11.07 1.478 18.694-.241 26.807-1.719 8.114-5.663 31.731-5.663 31.731l-4.636 2.796s-.803-18.79-2.49-25.425c-1.687-6.636-2.217-34.679-3.213-43.291-.996-8.612-4.185-39.105-4.185-39.105s-12.299 31.972-15.263 44.519c-2.965 12.548-13.038 40.825-15.263 47.709-2.225 6.885-5.656 17.087-5.656 17.087a7.754 7.754 0 01-3.213.241 2.744 2.744 0 01-2.217-1.478s3.27-20.597 4.707-30.607c1.776-12.379 4.668-30.984 6.427-37.868 1.76-6.884 4.426-17.713 4.426-22.878 0-5.166 6.636-57.036 6.636-57.036s23.119 10.066 39.105-1.494z" fill="#263238"/><path d="M119.773 258.434l9.865-11.504m2.523.844l-8.122 7.559m-9.238-6.716a24.104 24.104 0 00-10.917-12.323m-.554-15.391s1.116 4.193-.282 6.715c-1.397 2.523-2.803 2.523-2.803 2.523s-2.514 13.712-2.514 21.553c0 7.84 1.678 8.676 0 17.351-1.68 8.676-2.804 11.48-2.804 16.517 0 5.036-2.233 8.402-4.193 11.479-1.96 3.077-2.523 12.05-2.523 15.673 0 3.622-1.116 7.559-2.241 11.198 0 0-.265 8.161-1.679 10.073-1.414 1.912-1.679 8.403-1.679 8.403m39.186-85.095s-.555 6.426 1.405 17.633c1.961 11.206 3.358 14.275 3.639 27.152.282 12.877-.843 15.118-.281 21.834.563 6.715 3.92 17.327 3.92 22.147 0 4.82-.514 20.228-.514 20.228m-2.008-143.705l-.562 2.241-3.639.835.562-2.795m-.578 2.795s-6.716-.281-10.074-1.397l.803-2.242m-3.028-.562l-.803 2.804s-5.374-.306-6.177-1.109m22.934 1.671a12.213 12.213 0 005.318-1.406l2.522-1.398-.803-1.96" stroke="#fff" stroke-width=".467" stroke-miterlimit="10" stroke-linecap="round"/><path d="M134.281 363.459s12.05 7.864 13.777 11.552c1.727 3.687-5.166 2.217-10.082.249s-8.033-9.005-8.033-9.005l4.338-2.796zm-51.091 4.394a29.164 29.164 0 01-3.534 9.56c-2.651 4.121-7.656 7.655-7.656 1.172 0-6.482 6.178-12.049 6.178-12.049s3.068 1.663 5.012 1.317z" fill="#fff" stroke="#263238" stroke-width=".934" stroke-miterlimit="10" stroke-linecap="round"/><path d="M123.622 116.986s2.61 16.194 1.727 20.211c-2.017 8.989-9.094 8.604-13.52 6.884-4.137-1.606-8.266-7.286-8.796-8.033a.312.312 0 00-.153-.112c-.659-.185-4.748-1.486-6.547-4.643-1.968-3.447 1.719-4.917 1.719-4.917" fill="#fff"/><path d="M106.872 140.218l-3.904-4.29s-4.62-1.422-6.636-4.675c-1.18-1.904-.53-3.567.185-4.017.98-.53 1.991-.999 3.029-1.405l1.309 2.883 1.117.193s-.466-2.972.883-4.731c1.35-1.759 1.655-6.853 1.655-6.853s1.888 10.154 2.121 14.404c.06 2.365.799 4.663 2.129 6.619 0 0-.241 2.595-.707 5.19-.056.305-.113.763-.169 1.333l-.642-1.028-.354.98c.402-1.687.586-3.478-.016-4.603z" fill="#FF8562" opacity=".5"/><path d="M123.622 116.986s2.61 16.194 1.727 20.211c-2.017 8.989-9.094 8.604-13.52 6.884-4.137-1.606-8.266-7.286-8.796-8.033a.312.312 0 00-.153-.112c-.659-.185-4.748-1.486-6.547-4.643-1.968-3.447 1.719-4.917 1.719-4.917" stroke="#263238" stroke-width=".934" stroke-miterlimit="10" stroke-linecap="round"/><path d="M113.627 125.22c.153.642 0 1.221-.297 1.293-.297.072-.699-.377-.851-1.012-.153-.635 0-1.213.297-1.293.297-.081.699.377.851 1.012zm6.901-1.679c.153.643 0 1.221-.297 1.293-.297.073-.699-.377-.851-1.012-.153-.634 0-1.221.297-1.293.297-.072.707.369.851 1.012z" fill="#263238"/><path d="M109.347 122.408a4.606 4.606 0 013.735-2.321m5.286.12a3.4 3.4 0 013.791.739m-4.258 2.185a18.21 18.21 0 00.241 3.214c.266 1.341 1.31 1.606 1.045 2.643-.265 1.036-1.607 1.14-1.607 1.14m-1.397 4.185a4.125 4.125 0 01-3.431-.425" stroke="#263238" stroke-width=".934" stroke-miterlimit="10" stroke-linecap="round"/><path d="M103.458 105.675S108.865 101 114.03 101c5.165 0 9.351 2.956 12.548 3.213 3.197.257 5.406-2.707 7.374 1.229 1.968 3.937-5.414 10.58-10.33 11.56-4.917.98-11.801-.49-13.769-.739a41.497 41.497 0 00-5.664 0s1.479 4.675 0 6.153c-1.478 1.478-1.719 2.459-1.719 3.439a22.084 22.084 0 01-.49 3.213l-1.478.498-.739-2.707a15.71 15.71 0 01-3.936-7.624c-.731-4.426 2.956-8.836 2.956-8.836l4.675-4.724z" fill="#263238"/><path d="M124.167 114.985s-8.41 1.607-14.997-1.132c-6.588-2.74-.908-8.178-.908-8.178" stroke="#fff" stroke-width=".467" stroke-miterlimit="10" stroke-linecap="round"/><path d="M106.873 105.218c-.683 0-6.363 4.313-5.222 7.494 1.141 3.182 3.406 3.415 3.406 3.415" stroke="#fff" stroke-width=".467" stroke-miterlimit="10" stroke-linecap="round"/><path d="M107.804 202.796l7.101-3.743a37.062 37.062 0 005.431-.707c1.654-.474 18.636-2.097 18.636-2.097l.257 4.017s-19.367 2.602-23.376 3.076c-4.009.474-7.559 2.362-8.266 3.543-.707 1.181-2.129 2.362-1.422 5.623.707 3.262 5.43 8.033 5.43 8.033.225-.337-11.358-1.173-11.246-2.41.249-2.458 1.558-9.639 1.558-9.639l5.897-5.696z" fill="#FF8562"/><path opacity=".5" d="M107.804 202.796l7.101-3.743a37.062 37.062 0 005.431-.707c1.654-.474 18.636-2.097 18.636-2.097l.257 4.017s-19.367 2.602-23.376 3.076c-4.009.474-7.559 2.362-8.266 3.543-.707 1.181-2.129 2.362-1.422 5.623.707 3.262 5.43 8.033 5.43 8.033.185-.361-11.382-1.181-11.246-2.41.378-3.133 1.558-9.639 1.558-9.639l5.897-5.696z" fill="#fff"/><path d="M84.379 163.498c.627-2.94 5.302-2.547 8.121-4.177 2.82-1.631 9.64-5.407 9.64-5.407l3.302-4.964a25.86 25.86 0 001.438-4.145l.353-.98.643 1.028c-.41 4.402-.803 15.673-.803 15.673l-1.414 7.085s-5.439 23.376-6.852 28.574c-1.414 5.197-1.414 8.732-.474 10.387.94 1.654.626 2.41.626 2.41s-3.687-2.852-3.462-5.68c.297-3.326-11.56-37.812-11.118-39.804z" fill="#FF8562"/><path opacity=".5" d="M84.379 163.498c.321-2.988 5.302-2.547 8.121-4.177 2.82-1.631 9.64-5.407 9.64-5.407l3.302-4.964a25.86 25.86 0 001.438-4.145l.353-.98.643 1.028c-.41 4.402-.803 15.673-.803 15.673l-1.414 7.085s-5.439 23.376-6.852 28.574c-1.414 5.197-1.414 8.732-.474 10.387.94 1.654.626 2.41.626 2.41s-3.791-2.86-3.462-5.68c.377-3.028-11.407-37.322-11.118-39.804z" fill="#fff"/><path d="M105.017 160.55s1.478-13.279 2.217-16.725c.739-3.446.241-5.407 3.438-5.407s7.133-.498 6.426 1.23c-.707 1.727-5.623.241-6.426.98-.803.739-.241 2.458-.241 2.458s6.426.498 6.426 2.217-.249 6.426-1.478 6.884c-1.229.458-1.719-2.209-1.719-2.209s-.249 5.623-1.478 7.624a21.497 21.497 0 01-2.707 3.438l-4.458-.49z" fill="#fff" stroke="#263238" stroke-width=".934" stroke-miterlimit="10" stroke-linecap="round"/><path d="M109.443 164.237s.739 30.526-.49 35.418c-1.229 4.892-7.873 11.56-11.31 8.362-3.44-3.197-1.728-10.081-1.728-13.278 0-3.198 7.872-26.807 7.872-28.534.117-1.434.451-2.843.989-4.177m4.177 5.904l-4.916-.498" stroke="#263238" stroke-width=".934" stroke-miterlimit="10" stroke-linecap="round"/><path d="M140.395 183.195l-.948-27.16s1.181-.707 1.655 1.888c.474 2.594.707 7.8.707 7.8s5.671-3.543 4.249-1.422c-1.422 2.121-3.776 6.852-3.776 6.852l8.773 8.732-4.017 1.655-6.643 1.655z" fill="#FF8562"/><path opacity=".5" d="M140.395 183.195l-.948-27.16s1.181-.707 1.655 1.888c.474 2.594.707 7.8.707 7.8s5.671-3.543 4.249-1.422c-1.422 2.121-3.776 6.852-3.776 6.852l8.773 8.732-4.017 1.655-6.643 1.655z" fill="#fff"/><path d="M128.634 162.1s.45 1.607-1.438 1.607-5.206-1.342-5.206-1.342l.241-2.667s4.539 2.209 6.403 2.402z" fill="#FF8562"/><path opacity=".5" d="M128.634 162.1s.45 1.607-1.438 1.607-5.206-1.342-5.206-1.342l.241-2.667s4.539 2.209 6.403 2.402z" fill="#fff"/><path d="M120.528 144.138s2.459 14.46.98 17.673c-1.478 3.213-3.687 2.458-5.406.988-1.719-1.47-3.936-5.165-3.936-5.165m27.779 38.824l-.498 20.171s-5.623 5.406-16.476 5.406c-10.853 0-22.63-3.936-22.63-3.936v-7.133m6.394-63.944s-4.426 4.426-4.426 8.611c0 4.186.739 5.166.739 5.166" stroke="#263238" stroke-width=".934" stroke-miterlimit="10" stroke-linecap="round"/><path d="M102.808 153.175s-6.644 3.928-10.331 6.146c-3.687 2.217-8.121 2.209-8.121 4.177 0 1.968 10.33 35.418 10.33 35.418m3.936-34.679l2.458 9.84" stroke="#263238" stroke-width=".934" stroke-miterlimit="10" stroke-linecap="round"/><path d="M139.881 170.013l3.976-8.339m-3.977 10.724l5.961-3.574m-25.408 22.228l1.189 5.96m-33.347-33.747s5.953 1.189 11.512 7.937m-7.544-8.299s1.607-.401 7.142 4.362m21.047-2.41l2.378 18.653-1.985.402-1.59-5.952m-.394 35.723c7.15 5.961 17.071 5.559 17.071 5.559m13.142-37.957s4.86-4.45 11.744 1.213" stroke="#263238" stroke-width=".467" stroke-miterlimit="10" stroke-linecap="round"/><path d="M121.003 147.761s1.968.49 4.185 3.936c2.217 3.446 4.916 9.343 2.948 9.833-1.968.49-5.623-1.719-5.623-1.719m-9.134.988l-2.458 2.209" stroke="#263238" stroke-width=".934" stroke-miterlimit="10" stroke-linecap="round"/><path d="M124.449 150.219s9.101 1.229 12.788 1.478c3.688.249 2.973 1.607 4.178 2.458 1.944 1.358 24.244 29.626 25.706 32.334 1.462 2.707 1.229 3.936-1.229 4.675-2.458.739-26.944 5.045-26.944 5.045l-21.633 2.217-1.719-5.414s-5.029.666-5.912.666m8.37-2.659a70.66 70.66 0 0013.769-5.623" stroke="#263238" stroke-width=".934" stroke-miterlimit="10" stroke-linecap="round"/><path d="M133.791 184.898s7.23-2.683 11.142-3.173c3.912-.49 9.905-.651 9.905-.651m-14.403.627l-.739-19.432m-22.381 36.157a28.314 28.314 0 01-5.277 2.024" stroke="#263238" stroke-width=".934" stroke-miterlimit="10" stroke-linecap="round"/><path d="M211.049 98.927c.299-.921 1.603-.921 1.902 0l2.417 7.438a1 1 0 00.951.691h7.82c.969 0 1.372 1.239.588 1.809l-6.327 4.596c-.35.255-.497.707-.363 1.119l2.417 7.437c.299.922-.756 1.688-1.539 1.118l-6.327-4.596a1 1 0 00-1.176 0l-6.327 4.596c-.783.57-1.838-.196-1.539-1.118l2.417-7.437a1.002 1.002 0 00-.363-1.119l-6.327-4.596c-.784-.57-.381-1.809.588-1.809h7.82a1 1 0 00.951-.691l2.417-7.438z" fill="#C4C4C4"/><path d="M249.049 98.927c.299-.921 1.603-.921 1.902 0l2.417 7.438a1 1 0 00.951.691h7.82c.969 0 1.372 1.239.588 1.809l-6.327 4.596c-.35.255-.497.707-.363 1.119l2.417 7.437c.299.922-.756 1.688-1.539 1.118l-6.327-4.596a1 1 0 00-1.176 0l-6.327 4.596c-.783.57-1.838-.196-1.539-1.118l2.417-7.437a1.002 1.002 0 00-.363-1.119l-6.327-4.596c-.784-.57-.381-1.809.588-1.809h7.82a1 1 0 00.951-.691l2.417-7.438zm38 0c.299-.921 1.603-.921 1.902 0l2.417 7.438a1 1 0 00.951.691h7.82c.969 0 1.372 1.239.588 1.809l-6.327 4.596c-.35.255-.497.707-.363 1.119l2.417 7.437c.299.922-.756 1.688-1.539 1.118l-6.327-4.596a1 1 0 00-1.176 0l-6.327 4.596c-.783.57-1.838-.196-1.539-1.118l2.417-7.437a1.002 1.002 0 00-.363-1.119l-6.327-4.596c-.784-.57-.381-1.809.588-1.809h7.82a1 1 0 00.951-.691l2.417-7.438zm38 0c.299-.921 1.603-.921 1.902 0l2.417 7.438a1 1 0 00.951.691h7.82c.969 0 1.372 1.239.588 1.809l-6.327 4.596c-.35.255-.497.707-.363 1.119l2.417 7.437c.299.922-.756 1.688-1.539 1.118l-6.327-4.596a1 1 0 00-1.176 0l-6.327 4.596c-.783.57-1.838-.196-1.539-1.118l2.417-7.437a1.002 1.002 0 00-.363-1.119l-6.327-4.596c-.784-.57-.381-1.809.588-1.809h7.82a1 1 0 00.951-.691l2.417-7.438zm38 0c.299-.921 1.603-.921 1.902 0l2.417 7.438a1 1 0 00.951.691h7.82c.969 0 1.372 1.239.588 1.809l-6.327 4.596c-.35.255-.497.707-.363 1.119l2.417 7.437c.299.922-.756 1.688-1.539 1.118l-6.327-4.596a1 1 0 00-1.176 0l-6.327 4.596c-.783.57-1.838-.196-1.539-1.118l2.417-7.437a1.002 1.002 0 00-.363-1.119l-6.327-4.596c-.784-.57-.381-1.809.588-1.809h7.82a1 1 0 00.951-.691l2.417-7.438z" fill="#FF8562"/><path d="M483.907 185.293l-2.854-15.601-18.068-7.117s-.878-4.847-1.764-5.06c-.885-.214-1.755-2.206-1.755-2.206l.435-3.994s-1.653-6.326-9.964-1.399c0 0 2.515 1.676 2.08 2.372-.435.696.482 2.91-.617 2.91s-3.321 1.399-4.444 2.53c-.785.845-1.48 1.77-2.071 2.76l-9.355.538c-.959.008-1.912.138-2.838.387-.159-4.57.403-8.058 1.51-10.77 4.025-9.789 11.363-13.284 12.414-18.187 1.052-4.902.522-5.416.522-5.416a9.217 9.217 0 01-2.443-8.39c1.044-5.242 5.069-8.919 19.578-9.615 14.51-.696 12.407 9.259 12.407 9.259l-.174.696s9.267 3.163 7.512 14.858-6.816 16.779-6.642 20.448c.174 3.669 5.598 5.069 13.292 13.443 7.694 8.374 9.26 20.97 6.112 29.186-1.581 4.04-4.673 7.409-8.555 9.924l-4.318-21.556z" fill="#263238"/><path d="M471.793 186.835v3.527l6.698 20.693a27.181 27.181 0 01-12.802.269 24.944 24.944 0 01-6.769-2.886l12.873-21.603z" fill="#263238"/><path d="M452.539 152.162l-.791 3.558s-2.372-2.372-7.005 4.831c0 0-9.632-.229-12.257 1.084 0 0-.545.158-2.325 2.048-1.779 1.889-8.468 7.907-8.468 7.907s-8.588 7.97-9.442 8.587c-.854.617-4.056 3.677-6.452 4.745l-6.421-14.621-2.862-7.235-1.582-5.954h-.506l-.111-4.8.388-5.725a1.83 1.83 0 00-.388-.791 10.559 10.559 0 01-1.51-3.02c0-.538.546-3.717.546-3.717s.269-.791-.316-.886c-.586-.094-2.744.657-3.013 2.167l-.791-.269a24.47 24.47 0 00-2.435-4.452c-1.281-1.66-2.594-2.704-3.408-2.166a1.14 1.14 0 00-.38 1.431l2.546 4.681s1.123 1.51-.269 2.048c0 0-3.012 1.937-3.21 3.638-.198 1.7.893 3.162 1.858 4.412.965 1.249 2.665 3.954 2.665 3.954l1.977 1.747.791 3.013-.934 1.162 1.392 6.033 1.004 4.523.506 2.744 3.163 10.833 3.163 9.442s1.629 5.408 5.575 5.258c3.946-.15 8.271-2.285 9.671-2.981 1.399-.696 12.936-6.721 12.936-6.721l2.372-1.123a10.237 10.237 0 00-.403 3.329c.039 2.087 2.285 6.689 2.941 7.733l.388 8.161a16.874 16.874 0 01-.079 4.254c-.348 2.127-2.127 14.162-2.515 15.664 0 0 3.843 3.479 15.293 5.132 11.45 1.653 16.811-1.028 16.811-1.028l5.1-2.997-6.286-12.422s-1.581-3.693-1.423-4.666c.158-.972 2.862-5.163 2.862-5.163l9.924-17.665.466.158 1.542 5.156 5.575 17.483 7.338 21.824s2.008 5.535 2.839 7.172l2.317 7.061a13.059 13.059 0 01-.926 3.669l5.828-3.772-1.036-5.535-1.289-8.255-1.581-8.975-1.392-7.425-2.222-9.9-.791-2.736-1.581-7.733-2.783-14.028-2.373-12.011-16.605-6.602-1.036-.791a10.6 10.6 0 00-1.645-4.278 11.37 11.37 0 00-2.095-2.269s.079-1.036.134-2.017c.056-.98.309-2.783.309-2.783s-5.132 2.206-7.283.87z" fill="#fff"/><path d="M474.782 120.382s-3.076-6.809-9.228-6.809c-6.152 0-18.89 12.083-18.89 12.083" stroke="#fff" stroke-width=".474" stroke-miterlimit="10" stroke-linecap="round"/><path d="M472.15 121.457s-3.732-3.953-8.35-2.419c-4.618 1.534-5.274 7.029-5.274 7.029m16.699-3.93s5.488 3.076 5.93 8.793c.443 5.717-7.685 12.517-8.785 20.211-1.099 7.694 4.61 9.442 13.838 15.815 9.228 6.373 7.686 20.646 5.709 23.722m-1.098 1.763s-1.313 2.855-3.29 3.733" stroke="#fff" stroke-width=".474" stroke-miterlimit="10" stroke-linecap="round"/><path d="M474.561 137.074a3.7 3.7 0 01-.213 3.519c-1.099 1.977-9.489 11.861-8.793 16.479.696 4.618 5.053 7.465 5.053 7.465m-.214-42.4s5.053 2.198 4.831 7.251c-.221 5.053-1.32 6.374-1.32 6.374m-27.241 3.092a34.79 34.79 0 01-6.374 9.662c-3.953 3.954-4.388 9.671-4.388 9.671m6.152-6.832s-1.977 4.618-1.977 7.472" stroke="#fff" stroke-width=".474" stroke-miterlimit="10" stroke-linecap="round"/><path d="M452.991 152.581l6.207 5.59s.664 1.692 1.913 4.404c1.25 2.713 1.044 7.908 1.044 7.908l-3.827 7.615s7.362-8.445 7.781-9.489c.419-1.044 8.121.838 9.576 1.463 1.455.624 3.336 1.874 2.917 3.748-.419 1.874-2.293 4.365-1.455 4.784.839.419 3.124-.625 3.124.624 0 1.25-2.712 6.042-1.463 7.702 1.249 1.661 9.165 28.53 9.165 28.53s-4.998-4.167-3.748-2.499c1.249 1.668 7.282 15.198 7.282 15.198l2.293 7.907-5.416-28.102-4.579-23.722-2.751-14.55c-2.657-.886-18.069-7.117-18.069-7.117s-1.217-5.123-3.518-7.266l.435-3.994s-4.199 1.471-6.911 1.266z" fill="#FF8562"/><path opacity=".5" d="M452.991 152.581l6.207 5.59s.664 1.692 1.913 4.404c1.25 2.713 1.044 7.908 1.044 7.908l-3.827 7.615s7.362-8.445 7.781-9.489c.419-1.044 8.121.838 9.576 1.463 1.455.624 3.336 1.874 2.917 3.748-.419 1.874-2.293 4.365-1.455 4.784.839.419 3.124-.625 3.124.624 0 1.25-2.712 6.042-1.463 7.702 1.249 1.661 9.165 28.53 9.165 28.53s-4.998-4.167-3.748-2.499c1.249 1.668 7.282 15.198 7.282 15.198l2.293 7.907-5.416-28.102-4.579-23.722-2.751-14.55c-2.657-.886-18.069-7.117-18.069-7.117s-.332-4.744-3.526-6.404l.443-4.856s-4.199 1.471-6.911 1.266z" fill="#fff"/><path d="M429.884 180.683s-3.748-6.239-4.167-4.784c-.419 1.455 1.044 6.445 1.044 6.445s-3.954-1.455-3.543-.206c.412 1.25 1.25 1.874 1.044 2.499-.205.625-13.743 7.702-15.411 8.532-1.669.83-5.622-3.954-7.496-2.499-1.874 1.455 0 6.445 3.748 6.453 3.748.008 14.573-4.745 14.573-4.745l8.524-4.958" fill="#FF8562"/><path opacity=".5" d="M429.884 180.683s-3.748-6.239-4.167-4.784c-.419 1.455 1.044 6.445 1.044 6.445s-3.954-1.455-3.543-.206c.412 1.25 1.25 1.874 1.044 2.499-.205.625-13.743 7.702-15.411 8.532-1.669.83-5.622-3.954-7.496-2.499-1.874 1.455 0 6.445 3.748 6.453 3.748.008 14.573-4.745 14.573-4.745l8.492-4.942" fill="#fff"/><path d="M452.365 205.876s-24.339-12.905-20.385-8.121c3.954 4.784 17.056 10.209 20.385 8.121z" fill="#FF8562"/><path opacity=".5" d="M452.365 205.876s-24.339-12.905-20.385-8.121c3.954 4.784 17.056 10.209 20.385 8.121z" fill="#fff"/><path d="M459.901 151.355s-.174 3.321-.704 6.816c-.53 3.495-.348 3.495-3.669 7.686s-6.816 7.694-7.338 6.998m-.173-1.226s-.348-6.12.869-10.137c1.218-4.017 2.974-5.424 2.974-6.326a23.11 23.11 0 01.348-2.799" stroke="#263238" stroke-width=".949" stroke-miterlimit="10" stroke-linecap="round"/><path d="M459.901 156.424a9.17 9.17 0 012.799 4.744 253.361 253.361 0 011.044 6.112l-5.416 10.841a23.56 23.56 0 00-2.096-5.424 8.874 8.874 0 00-1.747-2.27m-7.694-1.771a2.976 2.976 0 00-2.27.348c-1.399.704-4.198 4.373-4.198 4.373s1.921-9.094 5.242-13.806c3.321-4.713 5.599-4.373 5.599-4.373" stroke="#263238" stroke-width=".949" stroke-miterlimit="10" stroke-linecap="round"/><path d="M464.274 163.24l16.779 6.452s6.112 33.385 8.39 42.296c2.277 8.912 6.112 34.089 6.112 34.089l-4.539.87-1.581-4.539" stroke="#263238" stroke-width=".894" stroke-linecap="round" stroke-linejoin="round"/><path d="M488.565 239.798s-1.044-1.581-3.843-10.279-10.28-30.048-11.537-34.263c-1.257-4.214-2.269-6.99-2.269-6.99" stroke="#263238" stroke-width=".949" stroke-miterlimit="10" stroke-linecap="round"/><path d="M473.889 183.134s-14.154 25.304-15.38 26.395c-1.226 1.091.522 4.017.878 5.591m1.565 3.178l4.539 9.442s-2.973 4.546-15.554 4.546a46.073 46.073 0 01-21.5-5.25s2.974-15.728 2.8-18.527c-.174-2.799-.53-10.137-.53-10.137s-3.163-4.744-2.791-8.39c.371-3.645 1.921-7.868 1.921-8.563 0-.696.348-8.216.348-8.216" stroke="#263238" stroke-width=".949" stroke-miterlimit="10" stroke-linecap="round"/><path d="M449.961 202.76l-12.525-7.686m5.931 5.275l-6.809-3.954m-30.672-11.307l2.554 6.254m-1.534-3.518l2.412 2.419m68.984 19.777s4.175 4.831 7.03 6.808m-4.619-5.496s7.251 5.709 9.007 7.03m-10.296-47.674a86.738 86.738 0 00-5.931 9.671m-.687 1.534l-1.534 2.633m-41.435-3.107l-1.921-9.79m1.217 10.485l-2.965-4.19m44.747 10.311l8.39-4.547m-30.941-9.963s-3.163 6.325-4.199 10.841m-47.712-21.856a6.207 6.207 0 00-4.618 1.581m100.684 77.445l-2.167.806" stroke="#263238" stroke-width=".474" stroke-miterlimit="10" stroke-linecap="round"/><path d="M495.61 246.393a73.123 73.123 0 00.475 8.999c.522 3.677.348 12.066-.348 14.684-.696 2.617-1.052 3.163-1.748 1.581-.696-1.581-2.799-10.833-2.799-10.833s-.348 6.112-1.921 5.591c-1.574-.522-.704-3.495-.704-6.121 0-2.625-.174-3.495 0-5.59.174-2.096 2.506-7.275 2.506-7.275" fill="#fff"/><path d="M495.61 246.393a73.123 73.123 0 00.475 8.999c.522 3.677.348 12.066-.348 14.684-.696 2.617-1.052 3.163-1.748 1.581-.696-1.581-2.799-10.833-2.799-10.833s-.348 6.112-1.921 5.591c-1.574-.522-.704-3.495-.704-6.121 0-2.625-.174-3.495 0-5.59.174-2.096 2.506-7.275 2.506-7.275" stroke="#263238" stroke-width=".894" stroke-miterlimit="10" stroke-linecap="round"/><path d="M394.413 156.977a45.49 45.49 0 000-4.642c-.143-1.455.435-3.629.292-5.535-.142-1.905-2.032-2.609-1.739-5.076.292-2.467.869-2.76.435-3.337-.435-.577-3.163.284-3.337 1.882a26.32 26.32 0 000 4.942c.142.435-.87 3.163-.293 4.349.331.642.575 1.326.728 2.032m-1.02-11.449s-3.337-6.674-5.227-6.824c-1.89-.151-1.305 1.581-.72 2.467.585.885 2.467 4.064 2.61 5.377.142 1.312 1.889 5.653 1.889 5.653" stroke="#263238" stroke-width=".788" stroke-miterlimit="10" stroke-linecap="round"/><path d="M386.118 141.163s-5.085 3.044-3.954 5.535c1.131 2.491 1.747 3.487 2.617 3.163a6.85 6.85 0 002.032-1.582" stroke="#263238" stroke-width=".788" stroke-miterlimit="10" stroke-linecap="round"/><path d="M384.252 149.868s1.312 2.175 2.324 3.488a9.779 9.779 0 002.048 1.984l.617 2.143" stroke="#263238" stroke-width=".788" stroke-miterlimit="10" stroke-linecap="round"/><path d="M445.217 160.441s-12.059-.174-13.632 1.747c-1.574 1.922-20.631 19.405-22.932 20.978-2.301 1.574-2.799 1.922-2.799 1.922s-9.433-21.35-9.433-22.378c0-1.028-1.582-5.764-1.582-5.764s-2.973.347-3.677.347c-.703 0-2.617 2.278-2.617 2.278s2.617 10.659 2.617 11.861 4.895 17.831 7.172 22.931c2.278 5.1 5.417 4.365 10.485 2.791 5.069-1.573 18.875-9.433 18.875-9.433" stroke="#263238" stroke-width=".949" stroke-miterlimit="10" stroke-linecap="round"/><path d="M465.492 227.74s6.997 17.507 8.887 29.423c1.89 11.916 1.084 39.782 1.629 42.763.546 2.981 8.121 17.048 8.121 23.817 0 6.768 4.057 41.679 4.057 41.679l-2.705 1.621s-9.489-29.257-12.992-36.808c-3.502-7.552-8.389-25.438-9.741-28.957-1.352-3.519-10.833-31.669-11.371-35.188-.538-3.519-3.788-12.177-3.788-12.177s-7.037 43.032-8.389 51.967c-1.353 8.935-10.826 57.376-10.826 57.376a9.636 9.636 0 01-1.897.268c-.791 0-1.084-1.352-1.084-1.352s-3.787-34.373-2.704-43.577c1.083-9.204 4.325-20.559 4.325-23.817 0-3.258-4.87-31.392-4.87-41.118 0-9.726 6.325-26.608 6.325-26.608s22.449 11.323 37.023.688z" fill="#263238"/><path d="M427.117 296.565s2.412 10.327 5.709 15.815m-5.053-5.266s1.977 7.464 5.931 10.983m40.857-14.281s-1.534 9.007-3.289 12.739m3.732-7.465s-1.32 6.374-3.732 10.106m-24.386-65.243l-8.785-7.251m4.609 4.175l-10.327-4.618m32.958-7.686s-6.816 4.388-10.769 8.129" stroke="#fff" stroke-width=".474" stroke-miterlimit="10" stroke-linecap="round"/><path d="M487.901 365.399s10.28 8.698 10.28 13.015-4.057 4.056-8.39 0S485.236 366 485.236 366l2.665-.601zm-59.526-2.143s-3.519 8.658-7.315 12.454c-3.795 3.795-5.954 5.139-5.954 1.075s2.435-8.659 10.28-14.613c.007 0-2.159 1.621 2.989 1.084z" fill="#fff" stroke="#263238" stroke-width=".949" stroke-miterlimit="10" stroke-linecap="round"/><path d="M464.685 123.592c.704-.261 1.368-.577 2.056-.87.688-.292 1.945-.45 2.419 1.708.704 3.163-4.19 5.773-2.617 8.39a8.596 8.596 0 004.191 3.503c.283.097.579.156.878.174 1.399.174 3.669 0 2.973 2.443-.696 2.444-2.973 4.547-4.373 4.547h-1.399s-1.582 4.744-7.512 7.338c-5.931 2.594-9.964 2.451-11.363-.87-1.4-3.321-2.452-6.12-2.452-10.493s1.582-11.711 1.582-11.711 1.399 1.93 6.816-.522a153.73 153.73 0 018.801-3.637z" fill="#fff"/><path d="M455.876 127.23s8.358-.467 9.608-.261c1.249.205-.206 3.953.205 7.702.411 3.748.214 9.789-1.455 11.663a67.03 67.03 0 01-6.247 5.416s6.413-1.035 8.746-3.748c2.333-2.712 2.704-4.167 2.704-4.167s5.417-3.163 5.836-5.622c.419-2.459-3.163-1.154-4.879-2.372-.965-.664-4.958-1.914-3.954-5.243 1.005-3.329 2.626-3.953 2.689-6.183.047-1.582-1.344-2.04-2.198-2.183a1.87 1.87 0 00-1.131.166l-9.924 4.832z" fill="#FF8562" opacity=".5"/><path d="M464.685 123.592c.704-.261 1.368-.577 2.056-.87.688-.292 1.945-.45 2.419 1.708.704 3.163-4.19 5.773-2.617 8.39a8.596 8.596 0 004.191 3.503c.283.097.579.156.878.174 1.399.174 3.669 0 2.973 2.443-.696 2.444-2.973 4.547-4.373 4.547h-1.399s-1.582 4.744-7.512 7.338c-5.931 2.594-9.964 2.451-11.363-.87-1.4-3.321-2.452-6.12-2.452-10.493s1.582-11.711 1.582-11.711 1.399 1.93 6.816-.522a153.73 153.73 0 018.801-3.637z" stroke="#263238" stroke-width=".949" stroke-miterlimit="10" stroke-linecap="round"/><path d="M458.51 133.951c-.111.664.071 1.249.411 1.304.34.056.688-.442.791-1.107.102-.664-.08-1.257-.412-1.312-.332-.056-.68.482-.79 1.115zm-7.236-1.21c-.103.664.079 1.249.411 1.305.332.055.688-.443.791-1.107.103-.665-.071-1.25-.403-1.305-.332-.056-.688.443-.799 1.107z" fill="#263238"/><path d="M462.7 130.725a4.736 4.736 0 00-4.025-2.096m-5.416.522a3.507 3.507 0 00-3.843 1.052m4.539 1.921a19.184 19.184 0 010 3.321c-.174 1.4-1.218 1.748-.87 2.8.348 1.051 1.748 1.043 1.748 1.043m1.747 4.199a4.271 4.271 0 003.495-.704" stroke="#263238" stroke-width=".949" stroke-miterlimit="10" stroke-linecap="round"/><path d="M214.713 185v-34.886h8.657c2.096 0 3.762.387 4.996 1.163 1.264.746 2.183 1.837 2.757 3.273.574 1.436.861 3.173.861 5.211 0 1.838-.33 3.432-.99 4.781a7.023 7.023 0 01-2.843 3.144c-1.263.718-2.843 1.077-4.738 1.077h-3.833V185h-4.867zm4.867-19.726h2.24c1.407 0 2.512-.158 3.316-.474.804-.315 1.378-.861 1.723-1.636.344-.804.517-1.924.517-3.36 0-1.665-.129-2.943-.388-3.833-.23-.89-.732-1.507-1.507-1.852-.776-.344-1.981-.517-3.618-.517h-2.283v11.672zM235.407 185v-34.886h13.524v3.618h-8.657v11.542h7.02v3.446h-7.02v12.791h8.743V185h-13.61zm17.539 0v-34.886h4.307v24.162l10.207-24.162h3.489V185h-4.264v-24.55L256.564 185h-3.618zm9.432-37.6c-2.067 0-3.532-.559-4.393-1.679-.833-1.12-1.249-2.513-1.249-4.178h2.67c.029 1.034.259 1.838.689 2.412.46.545 1.221.818 2.283.818 1.091 0 1.852-.287 2.283-.861.459-.574.689-1.364.689-2.369h2.713c0 1.665-.431 3.058-1.292 4.178-.833 1.12-2.297 1.679-4.393 1.679zm17.87 37.6v-31.268h-5.9v-3.618h16.495v3.618h-5.728V185h-4.867zm13.959 0v-34.886h4.306v24.162l10.208-24.162h3.488V185h-4.263v-24.55L297.824 185h-3.617zm23.469 0v-34.886h4.867v15.074h8.958v-15.074h4.867V185h-4.867v-16.323h-8.958V185h-4.867zm24.142 0v-34.886h13.266v3.618h-8.399V185h-4.867z" fill="#000"/><defs><filter id="filter0_d_784_1617" x="0" y="38" width="561" height="329" filterUnits="userSpaceOnUse" color-interpolation-filters="sRGB"><feFlood flood-opacity="0" result="BackgroundImageFix"/><feColorMatrix in="SourceAlpha" values="0 0 0 0 0 0 0 0 0 0 0 0 0 0 0 0 0 0 127 0" result="hardAlpha"/><feOffset dx="4" dy="4"/><feGaussianBlur stdDeviation="10"/><feComposite in2="hardAlpha" operator="out"/><feColorMatrix values="0 0 0 0 0.784314 0 0 0 0 0.784314 0 0 0 0 0.784314 0 0 0 0.25 0"/><feBlend in2="BackgroundImageFix" result="effect1_dropShadow_784_1617"/><feBlend in="SourceGraphic" in2="effect1_dropShadow_784_1617" result="shape"/></filter></defs></svg>