<svg width="22" height="127" fill="none" xmlns="http://www.w3.org/2000/svg"><path d="M8.039 93.007c-.244-6.704-.792-13.5-1.646-20.387a1676.696 1676.696 0 00-2.651-20.388 969.998 969.998 0 01-2.469-19.747C.543 26.085.176 20.02.176 14.29c0-2.194.305-4.175.915-5.942.61-1.768 1.401-3.261 2.377-4.48 1.036-1.22 2.194-2.164 3.474-2.834A8.555 8.555 0 0110.964.029c1.524 0 2.926.335 4.206 1.006 1.28.67 2.407 1.615 3.383 2.834.975 1.219 1.737 2.712 2.285 4.48.549 1.767.823 3.748.823 5.942 0 5.73-.366 11.794-1.097 18.194a678.858 678.858 0 01-2.56 19.747c-.914 6.705-1.798 13.5-2.651 20.388a235.334 235.334 0 00-1.646 20.387H8.04zm2.925 14.537c1.341 0 2.621.274 3.84.822 1.22.488 2.255 1.159 3.109 2.012a8.508 8.508 0 012.102 3.108 8.44 8.44 0 01.823 3.657c0 1.402-.274 2.682-.823 3.84A8.694 8.694 0 0117.913 124a8.52 8.52 0 01-3.109 2.103 10.255 10.255 0 01-3.84.731c-1.401 0-2.712-.244-3.93-.731a9.436 9.436 0 01-3.2-2.103 9.852 9.852 0 01-2.195-3.017c-.487-1.158-.731-2.438-.731-3.84 0-1.28.244-2.499.731-3.657.549-1.219 1.28-2.255 2.194-3.108a10.193 10.193 0 013.2-2.012 9.476 9.476 0 013.931-.822z" fill="#FF8562"/></svg>