<svg width="436" height="490" fill="none" xmlns="http://www.w3.org/2000/svg"><path d="M436 371.043C436 305.897 342.428 173 227 173S18 305.897 18 371.043C18 436.189 111.572 489 227 489s209-52.811 209-117.957z" fill="#F3F5F9"/><path d="M256.523 417.077a24.207 24.207 0 01-2.79 11.331h-5.259a2.494 2.494 0 00-.464.049 2.074 2.074 0 00-1.608 2.024v6.373a24.396 24.396 0 1110.121-19.777v0z" stroke="#263238" stroke-linecap="round" stroke-linejoin="round"/><path d="M238.082 426.064a44.431 44.431 0 019.927 2.393 2.075 2.075 0 00-1.608 2.024v6.373a24.377 24.377 0 01-33.956-5.395c.136-.239.281-.481.436-.726.911-1.482 6.402-3.874 14.189-4.688a7.376 7.376 0 00.445-3.874c0-.223-.058-.426-.087-.63a4.707 4.707 0 01-1.075-1.346 21.699 21.699 0 01-.968-3.07c.019.23-.035.461-.155.659-.572.532-1.095-.388-1.172-1.192-.078-.804-1.075-2.208-1.308-3.002a2.044 2.044 0 01.688-1.986.586.586 0 01.591.059 12.963 12.963 0 01-.33-4.281 6.15 6.15 0 012.441-4.504s.969-2.799 6.402-2.78c5.898 0 6.489 3.216 6.489 3.216s3.051 2.034 1.85 8.339a.521.521 0 01.552-.049 2.017 2.017 0 01.688 1.986c-.223.794-1.23 2.189-1.308 3.002-.077.814-.6 1.724-1.172 1.192a.633.633 0 01-.116-.301 19.882 19.882 0 01-.969 3.032 4.3 4.3 0 01-1.21 1.453 7.378 7.378 0 00.097 2.566 4.23 4.23 0 00.639 1.53v0z" stroke="#263238" stroke-linecap="round" stroke-linejoin="round"/><path d="M256.232 428.408h-7.758a2.073 2.073 0 00-2.072 2.073v7.758c0 1.144.928 2.072 2.072 2.072h7.758a2.073 2.073 0 002.073-2.072v-7.758a2.073 2.073 0 00-2.073-2.073z" stroke="#263238" stroke-linecap="round" stroke-linejoin="round"/><path d="M255.312 433.677h-2.286v-2.286h-1.356v2.286h-2.285v1.356h2.285v2.286h1.356v-2.286h2.286v-1.356z" fill="#263238"/><path d="M104.446 220.749a33.775 33.775 0 01-3.874 15.748h-8.135a2.071 2.071 0 00-2.073 2.073v9.685a33.902 33.902 0 01-41.907-1.792 33.899 33.899 0 1155.989-25.714v0z" stroke="#263238" stroke-linecap="round" stroke-linejoin="round"/><path d="M87.795 200.679l-40.833 7.945a2.682 2.682 0 00-2.12 3.145l5.243 26.952a2.682 2.682 0 003.146 2.121l40.832-7.944a2.683 2.683 0 002.121-3.146L90.94 202.8a2.683 2.683 0 00-3.145-2.121z" stroke="#263238" stroke-linecap="round" stroke-linejoin="round"/><path d="M45.047 212.788l22.121 12.029a6.46 6.46 0 008.058-1.569l15.961-19.429m-37.713 34.383l13.656-13.385m25.52 5.762l-17.463-7.331m29.657 13.249H92.437a2.073 2.073 0 00-2.073 2.073v12.406c0 1.145.928 2.073 2.073 2.073h12.407a2.073 2.073 0 002.072-2.073V238.57a2.073 2.073 0 00-2.072-2.073z" stroke="#263238" stroke-linecap="round" stroke-linejoin="round"/><path d="M102.761 243.838h-3.176v-3.176h-1.88v3.176H94.53v1.879h3.177v3.177h1.879v-3.177h3.176v-1.879z" fill="#263238"/><path d="M370.934 356.545h-30.799l.6-.969a26.394 26.394 0 003.816-14.285v-.059a10.982 10.982 0 0111.065-10.9 10.982 10.982 0 0110.901 11.065 24.885 24.885 0 003.593 13.889l.824 1.259zm-17.889-26.509a3.523 3.523 0 01.536-5.423 3.525 3.525 0 014.452 5.423m13.694 26.518H339.35c-.722 0-1.308.586-1.308 1.308v.542c0 .722.586 1.308 1.308 1.308h32.377c.723 0 1.308-.586 1.308-1.308v-.542c0-.722-.585-1.308-1.308-1.308zm-16.193 11.158a2.693 2.693 0 10-.001-5.385 2.693 2.693 0 00.001 5.385z" stroke="#263238" stroke-linecap="round" stroke-linejoin="round"/><path d="M384.977 348.196a29.405 29.405 0 01-3.351 13.675h-6.78a2.074 2.074 0 00-2.072 2.073v8.136a29.454 29.454 0 01-43.463-37.29 29.452 29.452 0 0133.118-15.225 29.457 29.457 0 0122.558 28.631h-.01z" stroke="#263238" stroke-linecap="round" stroke-linejoin="round"/><path d="M385.054 361.871h-10.218a2.073 2.073 0 00-2.072 2.073v10.218c0 1.144.928 2.072 2.072 2.072h10.218a2.073 2.073 0 002.073-2.072v-10.218a2.073 2.073 0 00-2.073-2.073z" stroke="#263238" stroke-linecap="round" stroke-linejoin="round"/><path d="M383.514 368.244h-2.75v-2.76h-1.627v2.76h-2.761v1.627h2.761v2.751h1.627v-2.751h2.75v-1.627z" fill="#263238"/><path d="M374.129 100.721h-217.17a6.73 6.73 0 00-6.731 6.731v211.427a6.732 6.732 0 006.731 6.731h217.17a6.73 6.73 0 006.731-6.731V107.452a6.73 6.73 0 00-6.731-6.731z" fill="#fff"/><path d="M321.197 304h-20.394c-1.274 0-2.496-1.317-3.396-3.661-.901-2.344-1.407-5.524-1.407-8.839v0c0-3.315.506-6.495 1.407-8.839.9-2.344 2.122-3.661 3.396-3.661h20.394c1.274 0 2.496 1.317 3.396 3.661.901 2.344 1.407 5.524 1.407 8.839v0c0 3.315-.506 6.495-1.407 8.839-.9 2.344-2.122 3.661-3.396 3.661v0z" fill="#FF8562" stroke="#263238" stroke-linecap="round" stroke-linejoin="round"/><path d="M251.357 304h-19.714c-1.231 0-2.412-1.317-3.283-3.661-.871-2.344-1.36-5.524-1.36-8.839 0-3.315.489-6.495 1.36-8.839.871-2.344 2.052-3.661 3.283-3.661h19.714c1.231 0 2.412 1.317 3.283 3.661.871 2.344 1.36 5.524 1.36 8.839 0 3.315-.489 6.495-1.36 8.839-.871 2.344-2.052 3.661-3.283 3.661z" fill="#FF8562"/><path opacity=".6" d="M251.357 304h-19.714c-1.231 0-2.412-1.317-3.283-3.661-.871-2.344-1.36-5.524-1.36-8.839 0-3.315.489-6.495 1.36-8.839.871-2.344 2.052-3.661 3.283-3.661h19.714c1.231 0 2.412 1.317 3.283 3.661.871 2.344 1.36 5.524 1.36 8.839 0 3.315-.489 6.495-1.36 8.839-.871 2.344-2.052 3.661-3.283 3.661z" fill="#fff"/><path d="M251.357 304h-19.714c-1.231 0-2.412-1.317-3.283-3.661-.871-2.344-1.36-5.524-1.36-8.839v0c0-3.315.489-6.495 1.36-8.839.871-2.344 2.052-3.661 3.283-3.661h19.714c1.231 0 2.412 1.317 3.283 3.661.871 2.344 1.36 5.524 1.36 8.839v0c0 3.315-.489 6.495-1.36 8.839-.871 2.344-2.052 3.661-3.283 3.661v0z" stroke="#263238" stroke-linecap="round" stroke-linejoin="round"/><path d="M318.014 202.26a52.504 52.504 0 11-81.673-43.655 52.504 52.504 0 0129.17-8.848 52.294 52.294 0 0148.561 32.379 52.296 52.296 0 013.942 20.124v0z" fill="#FF8562" stroke="#263238" stroke-linecap="round" stroke-linejoin="round"/><path d="M309.152 231.461a52.495 52.495 0 01-42.582 23.274 52.497 52.497 0 01-43.47-21.57c.31-.523.619-1.046.968-1.559 1.937-3.206 13.792-8.281 30.557-10.102 3.783-.416 7.584-.642 11.39-.678 4.121-.039 8.24.201 12.329.717 14.566 1.821 26.682 6.644 30.808 9.918z" fill="#757575" stroke="#263238" stroke-linecap="round" stroke-linejoin="round"/><path d="M279.564 222.783a14.783 14.783 0 01-13.114 7.506c-7.748 0-13.356-6.702-13.356-6.702 2.712-2.431 2.906-6.945 2.48-10.499a30.867 30.867 0 00-.969-5.152h23.109c-1.404 4.619-1.356 7.932-.814 10.237.765 3.399 2.664 4.61 2.664 4.61z" fill="#fff" stroke="#263238" stroke-linecap="round" stroke-linejoin="round"/><path d="M276.852 218.173c-16.697 4.377-20.01-5.162-20.01-5.162l-1.269.077a30.865 30.865 0 00-.968-5.152h23.109c-1.453 4.619-1.405 7.932-.862 10.237z" fill="#263238"/><path d="M282.692 191.713s1.86-2.025 2.78-1.356a4.324 4.324 0 011.492 4.261c-.494 1.724-2.654 4.717-2.828 6.46-.175 1.744-1.279 3.719-2.509 2.567-1.23-1.153 1.065-11.932 1.065-11.932zm-33.162 0s-1.859-2.025-2.78-1.356a4.33 4.33 0 00-1.491 4.261c.494 1.724 2.654 4.717 2.828 6.46.174 1.744 1.278 3.719 2.508 2.567 1.23-1.153-1.065-11.932-1.065-11.932z" fill="#fff" stroke="#263238" stroke-linecap="round" stroke-linejoin="round"/><path d="M265.714 168.362c23.409 0 17.84 31.167 13.559 41.171-1.511 3.516-9.356 8.126-13.143 8.126-3.525 0-11.622-5.511-13.017-8.813-4.377-10.073-9.675-40.484 12.601-40.484z" fill="#fff" stroke="#263238" stroke-linecap="round" stroke-linejoin="round"/><path d="M269.685 187.587s6.092-1.889 7.981 1.879" stroke="#263238" stroke-linecap="round" stroke-linejoin="round"/><path d="M274.198 192.71c0 .717-.368 1.298-.813 1.298-.446 0-.823-.581-.823-1.298 0-.716.368-1.297.823-1.297.455 0 .813.581.813 1.297z" fill="#263238"/><path d="M262.537 187.587s-6.092-1.889-7.98 1.879" stroke="#263238" stroke-linecap="round" stroke-linejoin="round"/><path d="M258.024 192.71c0 .717.368 1.298.814 1.298.445 0 .823-.581.823-1.298 0-.716-.368-1.297-.823-1.297-.455 0-.814.581-.814 1.297z" fill="#263238"/><path d="M275.399 176.313a29.624 29.624 0 01-18.033 0s-3.168-.184-4.407 1.405c-1.24 1.588 0 6.489.329 8.484s-2.741 3.38-2.324 8.416l-1.192 1.744s-3.302-8.117-2.469-15.09c.833-6.973 5.239-9.685 5.239-9.685s2.005-6.034 13.782-5.985c12.698.048 13.976 6.915 13.976 6.915s8.6 5.743 2.237 24.435l-1.375-2.324a10.47 10.47 0 00-1.608-7.09c-1.114-1.617.659-6.479.242-8.978-.416-2.498-4.397-2.247-4.397-2.247z" fill="#263238"/><path d="M267.506 191.413s.068 5.694 1.559 7.544c.765.969-.726 3.003-3.031 3.371" stroke="#263238" stroke-linecap="round" stroke-linejoin="round"/><path d="M260.988 205.63a4.62 4.62 0 002.179 2.799c1.598.688 6.46.397 7.38-.174.92-.571 1.375-2.441 1.375-2.441" fill="#fff"/><path d="M260.988 205.63a4.62 4.62 0 002.179 2.799c1.598.688 6.46.397 7.38-.174.92-.571 1.375-2.441 1.375-2.441m-11.447-.3c3.983.854 8.103.854 12.087 0" stroke="#263238" stroke-linecap="round" stroke-linejoin="round"/><path d="M277.665 176.556s-2.615 3.874-11.215 4.716a6.291 6.291 0 001.521-2.179 12.11 12.11 0 01-9.133 2.179 9.447 9.447 0 00-8.717 3.555l-1.453 6.586s-5.143-5.811-1.482-15.148l-1.317 1.095s1.463-12.485 16.465-12.94l-1.821-1.094s14.944-3.187 20.794 6.654c0 0 5.201.968 6.479 9.966l-1.462-.969s2.315 7.467-2.489 13.714c-.039.02-6.17-9.869-6.17-16.135z" fill="#263238"/><path opacity=".5" d="M322.624 133.999H208.475a2.906 2.906 0 01-2.906-2.906 2.905 2.905 0 012.906-2.905h114.149a2.906 2.906 0 110 5.811z" fill="#263238"/><path opacity=".4" d="M314.479 262.947H216.61a1.14 1.14 0 01-1.058-.712 1.146 1.146 0 011.058-1.583h97.869a1.126 1.126 0 01.814.331 1.145 1.145 0 01.338.812 1.151 1.151 0 01-1.152 1.152zm-9.686 6.14h-78.498a1.14 1.14 0 01-1.058-.712 1.144 1.144 0 011.058-1.583h78.498a1.149 1.149 0 01.815.331 1.145 1.145 0 01.338.812 1.155 1.155 0 01-1.153 1.152z" fill="#000"/><path d="M317.23 226.589h-16.32a4.65 4.65 0 00-4.649 4.649v16.319a4.65 4.65 0 004.649 4.649h16.32a4.648 4.648 0 004.648-4.649v-16.319a4.648 4.648 0 00-4.648-4.649z" fill="#263238" stroke="#fff" stroke-linecap="round" stroke-linejoin="round"/><path d="M315.447 237.95h-4.92v-4.92h-2.905v4.92h-4.92v2.905h4.92v4.911h2.905v-4.911h4.92v-2.905z" fill="#fff"/><path opacity=".3" d="M374.391 111.471a4.728 4.728 0 01-5.648 4.636 4.73 4.73 0 01-3.714-3.713 4.726 4.726 0 119.362-.923zm-13.559 0a4.729 4.729 0 01-8.069 3.343 4.726 4.726 0 118.069-3.343z" fill="#000"/><path opacity=".3" d="M284.561 302.017s6.063 1.307 6.276 5.724c.465 9.491.446 9.782-6.218 8.939 0 0-4.029 5.53-13.791 3.942l-3.342 5.017h-17.268c4.794-5.724 8.649-10.46 10.334-12.707 6.189-8.242 35.109-20.387 35.109-20.387s-.117 3.147-11.1 9.472z" fill="#000" fill-opacity=".7"/><path d="M374.129 100.721h-217.17a6.73 6.73 0 00-6.731 6.731v211.427a6.732 6.732 0 006.731 6.731h217.17a6.73 6.73 0 006.731-6.731V107.452a6.73 6.73 0 00-6.731-6.731z" stroke="#263238" stroke-linecap="round" stroke-linejoin="round"/><path d="M66.403 461.958s1.705-12.407 2.973-17.521c1.27-5.113 8.717-24.9 10.334-35.98l-19.118-15.235s-7.206 37.162-7.206 42.993l-3.942 12.697" fill="#fff"/><path d="M66.403 461.958s1.705-12.407 2.973-17.521c1.27-5.113 8.717-24.9 10.334-35.98l-19.118-15.235s-7.206 37.162-7.206 42.993l-3.942 12.697" stroke="#263238" stroke-linecap="round" stroke-linejoin="round"/><path d="M85.357 422.471a225.642 225.642 0 01-11.835-9.685c-5.627-4.843-11.11-10.111-16.378-15.642a188.791 188.791 0 014.746-18.314 23.98 23.98 0 0110.77-13.453l.193-.116.901-.504a25.57 25.57 0 011.627-.804 24.53 24.53 0 015.385-1.762l4.116 54.111.475 6.169z" fill="#FF8562"/><path opacity=".3" d="M85.357 422.471a225.642 225.642 0 01-11.835-9.685c-5.627-4.843-11.11-10.111-16.378-15.642a188.791 188.791 0 014.746-18.314 23.98 23.98 0 0110.77-13.453l.193-.116.901-.504a25.57 25.57 0 011.627-.804 24.53 24.53 0 015.385-1.762l4.116 54.111.475 6.169z" fill="#000" fill-opacity=".7"/><path d="M85.357 422.471a225.642 225.642 0 01-11.835-9.685c-5.627-4.843-11.11-10.111-16.378-15.642a188.791 188.791 0 014.746-18.314 23.98 23.98 0 0110.77-13.453l.193-.116.901-.504a25.57 25.57 0 011.627-.804 24.53 24.53 0 015.385-1.762l4.116 54.111.475 6.169zm-19.922-30.072s2.227 15.138 12.455 20.91" stroke="#263238" stroke-linecap="round" stroke-linejoin="round"/><path d="M167.971 404.68c0 7.748-6.305 39.089-6.305 39.089l-.213 27.535s-13.046 4.329-34.101 4.329c-25.802 0-37.23-6.905-38.237-7.554l-.078-.049 3.874-19.089s-20.338-48-20.736-49.646a98.184 98.184 0 01-1.607-7.371 59.538 59.538 0 01-.882-17.268 24.214 24.214 0 012.819-9.298c.11-.194.226-.387.348-.581a14.09 14.09 0 011.83-2.354l.185-.193a19.038 19.038 0 012.043-1.773c.243-.184.494-.358.746-.532l.63-.426.406-.262.533-.329.823-.475c15.293-8.474 43.758-7.167 43.758-7.167.314-.102.639-.164.968-.184h.068a6.187 6.187 0 011.695.136c7.09 1.375 20.068 12.949 29.627 26.15a85.166 85.166 0 017.574 12.358c2.615 5.269 4.232 10.46 4.232 14.954z" fill="#FF8562"/><path opacity=".3" d="M167.797 402.026a50.54 50.54 0 01-14.363-7.119c-6.867 1.288-13.492-5.549-15.216-9.21l22.528-1.453a69.77 69.77 0 012.964 5.404 40.104 40.104 0 014.087 12.378zm-70.304 51.816s5.065 21.675-8.378 14.208l-.078-.049 3.874-19.089s-20.338-48-20.736-49.646a98.184 98.184 0 01-1.607-7.371 59.539 59.539 0 01-.882-17.239 24.213 24.213 0 012.819-9.298c.11-.194.226-.387.349-.581a14.086 14.086 0 011.83-2.354l.184-.193a19.038 19.038 0 012.044-1.773c.242-.184.493-.358.745-.532l.63-.427.407-.261.532-.329.823-.475c14.073 1.085 29.715 7.748 32.736 21.424 0 0-1.278 20.949-5.879 28.61-2.857 4.774-3.825 27.07 10.305 20.619-4.416 22.257-19.718 24.756-19.718 24.756z" fill="#000" fill-opacity=".7"/><path d="M89.037 468.001l3.874-19.089s-20.338-48-20.736-49.646a98.184 98.184 0 01-1.607-7.371 59.539 59.539 0 01-.882-17.239 24.213 24.213 0 012.819-9.298c.11-.194.226-.387.349-.581a14.086 14.086 0 011.83-2.354l.184-.193a19.038 19.038 0 012.044-1.773v0c14.101-10.653 46.895-9.191 46.895-9.191.314-.102.639-.164.969-.184h.067a6.187 6.187 0 011.695.136c7.09 1.375 20.068 12.949 29.627 26.15a85.166 85.166 0 017.574 12.358c2.644 5.356 4.261 10.537 4.261 15.002 0 7.748-6.305 39.089-6.305 39.089l-.213 27.535" stroke="#263238" stroke-linecap="round" stroke-linejoin="round"/><path d="M138.005 307.402c-1.152-1.433-6.295-4.843-6.295-4.843-.969-6.692-1.569-15.622-8.504-22.547-9.481-9.462-31.36-6.469-38.527 7.642-14.305 28.193 12.736 54.75 45.83 49.133 2.818-.475 4.717-3.235 5.104-16.339l.881-1.831s-.91-3.128-1.191-4.697c1.666-1.608 3.535-5.472 2.702-6.518z" fill="#fff" stroke="#263238" stroke-linecap="round" stroke-linejoin="round"/><path d="M129.87 292.09a17.405 17.405 0 00-1.937 4.436m2.441 8.174s2.305 1.395 3.351 5.811m2.469 8.765s-.9 1.453-4.649 1.027" stroke="#263238" stroke-linecap="round" stroke-linejoin="round"/><path d="M126.364 276.351s8.717-3.593 6.198 13.453c-2.518 17.046-15.118 37.317-25.743 33.52l.184-1.52s9.298 3.67 17.124-12.494c7.825-16.165 7.176-30.992 2.702-28.387l-.465-4.572z" fill="#263238"/><path d="M125.579 302.773s-3.331 8.784-5.995 11.622c0 0-1.075-3.361-3.641-3.39-2.567-.029-4.843-6.857-4.843-6.857l14.479-1.375z" fill="#263238"/><path d="M121.996 303.18s-6.121 14.924-1.637 26.45c4.484 11.525 17.123 20.184 17.123 20.184l-4.077-1.85s-10.731-7.061-14.479-19.283a44.453 44.453 0 01-.155-23.739l3.225-1.762zm-50.44-19.865s-10.199 4.175-9.647 19.293c.552 15.119 10.916 28.261 12.998 47.535 1.81 16.765-16.465 31.525 2.043 51.118 0 0-8.106-12.591-5.636-26.673 2.47-14.082 10.944-12.058 4.658-34.983-6.285-22.924-19.622-36.484-5.81-51.098l1.394-5.192z" fill="#263238"/><path d="M131.022 345.939c-18.653-10.402-13.559-32.61-13.559-32.61 14.034-10.343 15.903-29.714 13.327-34.702-2.576-4.987-8.194-3.283-8.194-3.283-22.363-10.654-49.888-.707-55.118 14.954-6.692 20.058 4.746 35.467 10.334 52.3 5.017 15.128-6.605 17.869-6.566 32.929-2.199 28.087 26.605 39.816 26.605 39.816a5.147 5.147 0 01-2.49-4.397c0-3.07 7.855-3.07 13.027-11.719 4.291-7.177 4.63-24.678 6.063-33.143 1.937-7.661 4.358-13.782 9.366-14.895 13.191-2.954 24.571 9.849 24.571 9.849s1.298-4.697-17.366-15.099z" fill="#263238"/><g opacity=".3" stroke="#fff" stroke-linecap="round" stroke-linejoin="round"><path opacity=".3" d="M125.579 278.415c2.034 3.573-13.23 22.479-18.76 38.818-5.53 16.339.097 25.917.097 25.917m-15.535-59.835s-16.61 14.305-7.157 40.465c9.453 26.159 5.269 44.193 2.121 58.295-3.148 14.101-.59 18.944 3.245 22.779m22.692-78.362s8.91 10.033 2.799 24.532c-6.112 14.499-9.434 24.862-11.739 36.145-2.305 11.283-7.409 14.092-7.409 14.092m16.862-125.229s-9.191-.426-13.56 11.322c-4.367 11.748-.251 32.048-1.781 39.138"/><path opacity=".3" d="M89.037 276.032s-13.482.562-17.782 19.206c-4.3 18.644 8.65 34.314 10.024 48.842 1.376 14.528-6.78 27.98-6.285 37.995.494 10.014 6.285 15.302 6.285 15.302"/></g><path d="M173.337 352.728s29.501 2.199 33.714 2.199c4.213 0 43.292-38.741 50.188-46.363 6.896-7.622 36.804-17.201 36.804-17.201s-.378 3.167-11.874 8.456c0 0 5.917 1.84 5.743 6.256-.378 9.501-.426 9.792-6.993 8.349 0 0-4.503 5.162-14.082 2.712 0 0-22.983 28.59-33.142 41.646-10.16 13.055-14.363 17.433-18.199 18.857-3.835 1.423-50.576 4.465-50.576 4.465l8.417-29.376z" fill="#fff" stroke="#263238" stroke-linecap="round" stroke-linejoin="round"/><path d="M136.194 387.488c15.303 9.579 40.968-2.295 40.968-2.295s4.601-20.842 0-34.179c0 0-32.183-6.266-49.81-.223a7.054 7.054 0 00-4.059 4" fill="#FF8562"/><path d="M136.194 387.488c15.303 9.579 40.968-2.295 40.968-2.295s4.601-20.842 0-34.179c0 0-32.183-6.266-49.81-.223a7.054 7.054 0 00-4.059 4m49.802-4.474a76.431 76.431 0 01.62 32.697m-5.744-19.293s-10.653 17.375-24.271 19.932m14.363 7.051s-7.08 8.397-15.767 8.397" stroke="#263238" stroke-linecap="round" stroke-linejoin="round"/><path d="M151.245 391.227a6.84 6.84 0 010 5.124s1.201 5.045-1.065 12.319c-1.666 5.366-1.589 20.581-2.364 31.283 0 0 2.46 12.91 2.364 32.319m-15.313-123.253s13.182-.872 20.969 8.32M285.5 308.681s-1.937 3.351-4.213 4.116c0 0-.174 3.496-6.024 4.668m8.62-6.586c.554.324.973.836 1.181 1.443M92.873 448.912s13.617 17.752 26.595 11.37m7.884-48.135s-9.191 28.213-29.879 26.934" stroke="#263238" stroke-linecap="round" stroke-linejoin="round"/><path d="M169.717 66.248c13.167 12.575-3.315-5.889 0 0-26.59 3.716-130.234 15.438-126.919 21.326 3.315 5.888 28.998 17.953 55.588 14.237 19-2.655 74.646-29.675 71.331-35.563zm-13.006-12.221c2.825 15.492.068-6.294 0 0-14.044-5.687-67.992-30.281-68.06-23.987-.069 6.294 13.349 27.313 27.393 33 9.927-5.837 40.598-2.72 40.667-9.013z" fill="#F3F5F9"/><path d="M239.838 298c-.424 0-.825-.189-1.082-.514l-3.481-4.384a1.269 1.269 0 01-.231-.454 1.242 1.242 0 01.142-.98c.09-.147.21-.275.352-.378a1.396 1.396 0 011.006-.251c.177.024.347.08.501.166.154.086.288.2.396.336l2.29 2.883 5.757-8.815c.191-.291.496-.498.846-.576.351-.077.72-.019 1.026.163.636.377.832 1.175.434 1.783l-6.803 10.41a1.327 1.327 0 01-.466.433 1.39 1.39 0 01-.625.176c-.021.002-.041.002-.062.002zm72.188-6.501l4.654-4.644a1.084 1.084 0 000-1.537 1.09 1.09 0 00-1.537 0l-4.643 4.655-4.643-4.655a1.09 1.09 0 00-1.537 0 1.088 1.088 0 000 1.537l4.654 4.644-4.654 4.644a1.082 1.082 0 000 1.537 1.092 1.092 0 00.769.32 1.084 1.084 0 00.768-.32l4.643-4.655 4.643 4.655a1.092 1.092 0 00.768.32 1.085 1.085 0 001.006-.672 1.085 1.085 0 00-.237-1.185l-4.654-4.644z" fill="#000"/></svg>