<svg width="552" height="424" fill="none" xmlns="http://www.w3.org/2000/svg"><path d="M124.421 6.143s2.575-3.373 17.711-2.575c15.137.798 58.602 5.921 78.424 4.634C240.377 6.915 272.04.608 277.472 3.98c5.432 3.373-2.111 9.37-2.111 9.37l-145.032-.424-5.908-6.783z" fill="#fff" stroke="#263238" stroke-linecap="round" stroke-linejoin="round"/><path d="M130.329 12.887s.837-7.17-5.908-6.744c-6.744.424-9.28 8.43-5.483 17.285 3.797 8.856 7.169 8.431 13.077 29.514s2.098 98.657 2.098 118.054c0 19.397.425 24.455.425 24.455l14.763-2.111s-2.96-131.967-7.169-153.05-11.803-27.403-11.803-27.403z" fill="#263238" stroke="#263238" stroke-linecap="round" stroke-linejoin="round"/><path d="M168.312 190.11c0 1.686-6.307 187.081-6.307 187.081l7.156-1.287 6.706-182.963-7.555-2.831z" fill="#fff" stroke="#263238" stroke-linecap="round" stroke-linejoin="round"/><path d="M162.005 377.192l6.268-185.538-5.483-.836-6.925 183.349 6.14 3.025zm100.691-199.529c.129 1.673 17.621 185.344 17.621 185.344l-5.586-3.011-19.307-178.999 7.272-3.334z" fill="#263238" stroke="#263238" stroke-linecap="round" stroke-linejoin="round"/><path d="M280.291 363.021l-17.466-183.826 5.406-1.236 18.495 183.774-6.435 1.288zm-79.969-181.059c0 1.197-4.479 132.998-4.479 132.998l5.084-.927 4.763-130.076-5.368-1.995z" fill="#fff" stroke="#263238" stroke-width=".711" stroke-linecap="round" stroke-linejoin="round"/><path d="M195.843 314.96l4.454-131.904-3.9-.592-4.917 130.346 4.363 2.15z" fill="#263238" stroke="#263238" stroke-width=".711" stroke-linecap="round" stroke-linejoin="round"/><path d="M130.329 12.887c.412 2.11 11.378 186.786 11.378 186.786l150.103-7.169L275.361 13.35l-145.032-.463z" fill="#fff" stroke="#263238" stroke-linecap="round" stroke-linejoin="round"/><path d="M374.983 138.02a4.922 4.922 0 012.045-5.41 4.925 4.925 0 011.907-.742c4.119-.554 9.177 4.968 10.773 8.315.142.283 1.776 5.058 1.699 5.058-.077 0-7.298.167-10.297-1.133-2.51-1.107-5.444-3.23-6.127-6.088zm105.775-12.691c-.617 2.871-3.475 5.059-5.985 6.243-2.51 1.184-8.443 1.377-9.91 1.403-.786.939-1.622 1.956-2.575 3.089-1.557 2.021-3.32 4.312-5.058 6.925-.463.695-.927 1.467-1.403 2.201 1.055-1.082 2.51-2.575 2.677-2.652 2.896-2.317 9.86-5.084 13.322-2.78a4.908 4.908 0 011.861 5.474 4.899 4.899 0 01-.999 1.785c-1.866 2.278-5.419 2.896-8.186 2.793-2.767-.103-8.315-2.754-9.486-3.333a81.224 81.224 0 00-2.973 5.148 64.478 64.478 0 00-4.363 10.413l.218.116c.85-1.107 2.678-3.398 2.858-3.578 2.574-2.575 9.241-6.127 12.935-4.222a4.917 4.917 0 011.648 7.13c-1.596 2.459-5.059 3.476-7.826 3.669-3.179.218-9.769-2.266-10.026-2.356a88.346 88.346 0 00-2.395 10.966c-.424 2.742-.746 5.535-1.042 8.341.579-.798 2.986-3.861 3.179-4.003 2.574-2.574 9.254-6.127 12.936-4.222a4.923 4.923 0 012.415 3.196 4.934 4.934 0 01-.755 3.935c-1.609 2.458-5.071 3.475-7.839 3.668-3.101.219-9.421-2.136-9.962-2.342-.128 1.287-.27 2.574-.399 3.861-.399 4.17-.785 8.366-1.287 12.485-.18 1.416-.412 2.819-.631 4.222.901-1.159 2.575-3.257 2.742-3.411 2.574-2.574 9.254-6.127 12.871-4.222a4.894 4.894 0 012.421 3.188 4.9 4.9 0 01-.761 3.93c-1.608 2.458-5.071 3.475-7.838 3.668-2.767.193-8.135-1.673-9.628-2.214-.386 2.33-.823 4.634-1.364 6.886-.245.966-.438 1.957-.734 2.871-.296.913-.553 1.84-.823 2.754-.631 1.853-1.197 3.578-1.828 5.303-.309.862-.631 1.673-.94 2.51.734-1.287 1.931-3.385 2.06-3.553 2.201-2.986 8.211-7.465 12.15-6.139a4.919 4.919 0 012.868 2.794 4.936 4.936 0 01-.152 4.002c-1.21 2.664-4.492 4.196-7.195 4.814-2.973.669-9.37-.631-10.155-.798a216.718 216.718 0 01-2.304 5.895 258.23 258.23 0 01-6.217 13.965l-.258.54h11.649l-4.016 78.424a11.221 11.221 0 01-11.198 10.645 11.23 11.23 0 01-7.722-3.089 11.23 11.23 0 01-3.476-7.556l-4.016-78.424h12.498c0-.54-.116-1.119-.193-1.763a263.503 263.503 0 00-2.175-14.969 219.073 219.073 0 00-1.055-5.599c-.811.116-7.273.927-10.181 0-2.652-.811-5.805-2.574-6.809-5.342a4.907 4.907 0 013.205-6.564c4.028-1.03 9.692 3.861 11.661 7.015.129.206 1.351 2.754 1.956 4.054-.244-1.158-.476-2.316-.746-3.526a97.82 97.82 0 00-1.287-5.342l-.773-2.767c-.244-.94-.592-1.815-.888-2.742a192.053 192.053 0 00-1.531-4.067c-1.751.489-6.912 1.828-9.577 1.442-2.664-.387-6.113-1.674-7.529-4.248a4.91 4.91 0 01-.472-3.974 4.917 4.917 0 012.647-3.002c3.861-1.622 10.168 2.368 12.588 5.148.077.09.528.734 1.055 1.506a217.4 217.4 0 00-1.737-3.938c-1.751-3.72-3.643-7.453-5.522-11.211-.399-.785-.772-1.57-1.171-2.355-1.467.424-7.053 1.917-9.834 1.518-2.78-.399-6.113-1.673-7.529-4.247a4.894 4.894 0 01-.472-3.974 4.906 4.906 0 012.647-3.002c3.861-1.635 10.168 2.368 12.588 5.148.09.09.631.875 1.223 1.738a133.426 133.426 0 01-2.858-6.178 87.77 87.77 0 01-3.951-10.928c-.515.154-7.015 2.047-10.117 1.596-2.741-.399-6.114-1.673-7.529-4.247a4.894 4.894 0 01-.472-3.975 4.9 4.9 0 012.647-3.002c3.861-1.621 10.168 2.369 12.588 5.149.18.193 2.098 2.999 2.754 4.029a.464.464 0 010-.129 63.085 63.085 0 01-1.892-11.237 89.143 89.143 0 01-.244-10.181c.077-3.166.334-6.036.592-8.585.141-1.377.309-2.638.463-3.861h-.064c-.065 0-1.455-4.814-1.519-5.149-.605-3.655.36-11.082 4.054-12.999a4.924 4.924 0 016.77 2.78c1.069 2.728-.103 6.152-1.544 8.508-1.442 2.355-6.127 6.088-7.414 6.976-.141 1.287-.283 2.574-.399 3.977-.206 2.574-.399 5.419-.399 8.559v2.574c.283-1.48.695-3.501.76-3.694 1.145-3.526 5.431-9.666 9.576-9.666a4.916 4.916 0 014.723 5.586c-.296 2.922-2.921 5.406-5.29 6.848-2.368 1.441-8.443 2.291-9.756 2.445.064 1.931.167 3.862.399 5.985a64.57 64.57 0 002.111 11.095h.244c.091-1.39.361-4.324.412-4.556.747-3.643 4.325-10.22 8.457-10.657a4.908 4.908 0 013.781 1.329 4.918 4.918 0 011.534 3.703c0 2.922-2.316 5.689-4.517 7.375-2.575 1.944-9.396 3.501-9.654 3.553a85.935 85.935 0 004.055 10.477c1.158 2.574 2.432 5.032 3.732 7.529 0-.978.386-4.813.438-5.084.746-3.642 4.338-10.219 8.469-10.67a4.918 4.918 0 012.031.262 4.917 4.917 0 012.904 2.757 4.91 4.91 0 01.368 2.014c0 2.934-2.304 5.702-4.505 7.388-2.471 1.892-9.01 3.424-9.602 3.539l1.777 3.411c1.969 3.707 3.951 7.414 5.792 11.134.643 1.287 1.222 2.574 1.814 3.861.103-1.467.348-4.144.399-4.363.747-3.643 4.338-10.22 8.47-10.657a4.892 4.892 0 013.776 1.33 4.899 4.899 0 011.526 3.702c0 2.922-2.303 5.689-4.504 7.375-2.201 1.686-7.723 3.089-9.268 3.463a119.51 119.51 0 012.678 6.435c.321.953.707 1.892.965 2.806.257.914.553 1.841.837 2.755.501 1.892.965 3.655 1.39 5.431.218.888.399 1.738.605 2.574-.116-1.506-.258-3.861-.245-4.106.193-3.706 2.742-10.747 6.744-11.815a4.922 4.922 0 013.936.745 4.903 4.903 0 012.075 3.425c.064.357.09.719.077 1.081a19.202 19.202 0 012.575 9.293c0 .232-.386 3.038-.618 4.454.45-1.094.888-2.189 1.287-3.347.644-1.66 1.287-3.437 1.905-5.148.283-.901.579-1.815.875-2.729.296-.914.515-1.841.785-2.767.348-1.378.657-2.819.953-4.248-1.725-.553-6.77-2.291-8.765-4.08-1.995-1.789-4.184-4.775-3.952-7.723a4.925 4.925 0 011.811-3.572 4.931 4.931 0 013.865-1.048c4.08.759 7.169 7.581 7.646 11.262v1.84c.244-1.403.502-2.806.721-4.247.592-4.067 1.068-8.225 1.57-12.395.103-.862.219-1.738.322-2.574-1.455-.464-6.938-2.291-9.01-4.17-2.072-1.88-4.183-4.776-3.939-7.723a4.915 4.915 0 013.622-4.507 4.937 4.937 0 012.042-.114c4.093.76 7.169 7.581 7.645 11.262v2.124c.309-2.265.644-4.505 1.03-6.731a86.956 86.956 0 012.741-11.288c-.515-.155-6.989-2.176-9.319-4.248-2.059-1.853-4.183-4.775-3.938-7.723a4.9 4.9 0 011.799-3.576 4.903 4.903 0 013.864-1.044c4.08.746 7.169 7.581 7.646 11.262 0 .257.09 3.655.064 4.878v-.129a63.675 63.675 0 014.634-10.425 88.028 88.028 0 015.406-8.624c1.801-2.574 3.616-4.852 5.225-6.835.888-1.068 1.712-2.02 2.497-2.908h-.09c-.077 0 1.442-4.814 1.57-5.149 1.506-3.385 6.436-9.01 10.542-8.598a4.928 4.928 0 014.337 6.178zm-47.623 99.662c-.708-.348-6.152-3.038-8.289-5.342a52.828 52.828 0 01-5.676 2.677c.489 2.137.94 4.222 1.287 6.178 1.287 6.204 2.021 11.417 2.574 15.085.103.773.193 1.468.284 2.111h.27l.914-1.776a246.252 246.252 0 006.435-13.695 270.817 270.817 0 002.188-5.226l.013-.012zm21.752-79.299c.065 0 1.288-4.84 1.378-5.149.515-3.668-.657-11.069-4.402-12.871a4.921 4.921 0 00-5.667 1.188 4.913 4.913 0 00-1.026 1.772c-.991 2.755.27 6.127 1.776 8.457 1.763 2.728 7.929 6.615 7.929 6.615l.012-.012z" fill="#FF8562"/><path opacity=".3" d="M374.983 138.02a4.922 4.922 0 012.045-5.41 4.925 4.925 0 011.907-.742c4.119-.554 9.177 4.968 10.773 8.315.142.283 1.776 5.058 1.699 5.058-.077 0-7.298.167-10.297-1.133-2.51-1.107-5.444-3.23-6.127-6.088zm105.775-12.691c-.617 2.871-3.475 5.059-5.985 6.243-2.51 1.184-8.443 1.377-9.91 1.403-.786.939-1.622 1.956-2.575 3.089-1.557 2.021-3.32 4.312-5.058 6.925-.463.695-.927 1.467-1.403 2.201 1.055-1.082 2.51-2.575 2.677-2.652 2.896-2.317 9.86-5.084 13.322-2.78a4.908 4.908 0 011.861 5.474 4.899 4.899 0 01-.999 1.785c-1.866 2.278-5.419 2.896-8.186 2.793-2.767-.103-8.315-2.754-9.486-3.333a81.224 81.224 0 00-2.973 5.148 64.478 64.478 0 00-4.363 10.413l.218.116c.85-1.107 2.678-3.398 2.858-3.578 2.574-2.575 9.241-6.127 12.935-4.222a4.917 4.917 0 011.648 7.13c-1.596 2.459-5.059 3.476-7.826 3.669-3.179.218-9.769-2.266-10.026-2.356a88.346 88.346 0 00-2.395 10.966c-.424 2.742-.746 5.535-1.042 8.341.579-.798 2.986-3.861 3.179-4.003 2.574-2.574 9.254-6.127 12.936-4.222a4.923 4.923 0 012.415 3.196 4.934 4.934 0 01-.755 3.935c-1.609 2.458-5.071 3.475-7.839 3.668-3.101.219-9.421-2.136-9.962-2.342-.128 1.287-.27 2.574-.399 3.861-.399 4.17-.785 8.366-1.287 12.485-.18 1.416-.412 2.819-.631 4.222.901-1.159 2.575-3.257 2.742-3.411 2.574-2.574 9.254-6.127 12.871-4.222a4.894 4.894 0 012.421 3.188 4.9 4.9 0 01-.761 3.93c-1.608 2.458-5.071 3.475-7.838 3.668-2.767.193-8.135-1.673-9.628-2.214-.386 2.33-.823 4.634-1.364 6.886-.245.966-.438 1.957-.734 2.871-.296.913-.553 1.84-.823 2.754-.631 1.853-1.197 3.578-1.828 5.303-.309.862-.631 1.673-.94 2.51.734-1.287 1.931-3.385 2.06-3.553 2.201-2.986 8.211-7.465 12.15-6.139a4.919 4.919 0 012.868 2.794 4.936 4.936 0 01-.152 4.002c-1.21 2.664-4.492 4.196-7.195 4.814-2.973.669-9.37-.631-10.155-.798a216.718 216.718 0 01-2.304 5.895 258.23 258.23 0 01-6.217 13.965l-.258.54h11.649l-4.016 78.424a11.221 11.221 0 01-11.198 10.645 11.23 11.23 0 01-7.722-3.089 11.23 11.23 0 01-3.476-7.556l-4.016-78.424h12.498c0-.54-.116-1.119-.193-1.763a263.503 263.503 0 00-2.175-14.969 219.073 219.073 0 00-1.055-5.599c-.811.116-7.273.927-10.181 0-2.652-.811-5.805-2.574-6.809-5.342a4.907 4.907 0 013.205-6.564c4.028-1.03 9.692 3.861 11.661 7.015.129.206 1.351 2.754 1.956 4.054-.244-1.158-.476-2.316-.746-3.526a97.82 97.82 0 00-1.287-5.342l-.773-2.767c-.244-.94-.592-1.815-.888-2.742a192.053 192.053 0 00-1.531-4.067c-1.751.489-6.912 1.828-9.577 1.442-2.664-.387-6.113-1.674-7.529-4.248a4.91 4.91 0 01-.472-3.974 4.917 4.917 0 012.647-3.002c3.861-1.622 10.168 2.368 12.588 5.148.077.09.528.734 1.055 1.506a217.4 217.4 0 00-1.737-3.938c-1.751-3.72-3.643-7.453-5.522-11.211-.399-.785-.772-1.57-1.171-2.355-1.467.424-7.053 1.917-9.834 1.518-2.78-.399-6.113-1.673-7.529-4.247a4.894 4.894 0 01-.472-3.974 4.906 4.906 0 012.647-3.002c3.861-1.635 10.168 2.368 12.588 5.148.09.09.631.875 1.223 1.738a133.426 133.426 0 01-2.858-6.178 87.77 87.77 0 01-3.951-10.928c-.515.154-7.015 2.047-10.117 1.596-2.741-.399-6.114-1.673-7.529-4.247a4.894 4.894 0 01-.472-3.975 4.9 4.9 0 012.647-3.002c3.861-1.621 10.168 2.369 12.588 5.149.18.193 2.098 2.999 2.754 4.029a.464.464 0 010-.129 63.085 63.085 0 01-1.892-11.237 89.143 89.143 0 01-.244-10.181c.077-3.166.334-6.036.592-8.585.141-1.377.309-2.638.463-3.861h-.064c-.065 0-1.455-4.814-1.519-5.149-.605-3.655.36-11.082 4.054-12.999a4.924 4.924 0 016.77 2.78c1.069 2.728-.103 6.152-1.544 8.508-1.442 2.355-6.127 6.088-7.414 6.976-.141 1.287-.283 2.574-.399 3.977-.206 2.574-.399 5.419-.399 8.559v2.574c.283-1.48.695-3.501.76-3.694 1.145-3.526 5.431-9.666 9.576-9.666a4.916 4.916 0 014.723 5.586c-.296 2.922-2.921 5.406-5.29 6.848-2.368 1.441-8.443 2.291-9.756 2.445.064 1.931.167 3.862.399 5.985a64.57 64.57 0 002.111 11.095h.244c.091-1.39.361-4.324.412-4.556.747-3.643 4.325-10.22 8.457-10.657a4.908 4.908 0 013.781 1.329 4.918 4.918 0 011.534 3.703c0 2.922-2.316 5.689-4.517 7.375-2.575 1.944-9.396 3.501-9.654 3.553a85.935 85.935 0 004.055 10.477c1.158 2.574 2.432 5.032 3.732 7.529 0-.978.386-4.813.438-5.084.746-3.642 4.338-10.219 8.469-10.67a4.918 4.918 0 012.031.262 4.917 4.917 0 012.904 2.757 4.91 4.91 0 01.368 2.014c0 2.934-2.304 5.702-4.505 7.388-2.471 1.892-9.01 3.424-9.602 3.539l1.777 3.411c1.969 3.707 3.951 7.414 5.792 11.134.643 1.287 1.222 2.574 1.814 3.861.103-1.467.348-4.144.399-4.363.747-3.643 4.338-10.22 8.47-10.657a4.892 4.892 0 013.776 1.33 4.899 4.899 0 011.526 3.702c0 2.922-2.303 5.689-4.504 7.375-2.201 1.686-7.723 3.089-9.268 3.463a119.51 119.51 0 012.678 6.435c.321.953.707 1.892.965 2.806.257.914.553 1.841.837 2.755.501 1.892.965 3.655 1.39 5.431.218.888.399 1.738.605 2.574-.116-1.506-.258-3.861-.245-4.106.193-3.706 2.742-10.747 6.744-11.815a4.922 4.922 0 013.936.745 4.903 4.903 0 012.075 3.425c.064.357.09.719.077 1.081a19.202 19.202 0 012.575 9.293c0 .232-.386 3.038-.618 4.454.45-1.094.888-2.189 1.287-3.347.644-1.66 1.287-3.437 1.905-5.148.283-.901.579-1.815.875-2.729.296-.914.515-1.841.785-2.767.348-1.378.657-2.819.953-4.248-1.725-.553-6.77-2.291-8.765-4.08-1.995-1.789-4.184-4.775-3.952-7.723a4.925 4.925 0 011.811-3.572 4.931 4.931 0 013.865-1.048c4.08.759 7.169 7.581 7.646 11.262v1.84c.244-1.403.502-2.806.721-4.247.592-4.067 1.068-8.225 1.57-12.395.103-.862.219-1.738.322-2.574-1.455-.464-6.938-2.291-9.01-4.17-2.072-1.88-4.183-4.776-3.939-7.723a4.915 4.915 0 013.622-4.507 4.937 4.937 0 012.042-.114c4.093.76 7.169 7.581 7.645 11.262v2.124c.309-2.265.644-4.505 1.03-6.731a86.956 86.956 0 012.741-11.288c-.515-.155-6.989-2.176-9.319-4.248-2.059-1.853-4.183-4.775-3.938-7.723a4.9 4.9 0 011.799-3.576 4.903 4.903 0 013.864-1.044c4.08.746 7.169 7.581 7.646 11.262 0 .257.09 3.655.064 4.878v-.129a63.675 63.675 0 014.634-10.425 88.028 88.028 0 015.406-8.624c1.801-2.574 3.616-4.852 5.225-6.835.888-1.068 1.712-2.02 2.497-2.908h-.09c-.077 0 1.442-4.814 1.57-5.149 1.506-3.385 6.436-9.01 10.542-8.598a4.928 4.928 0 014.337 6.178zm-47.623 99.662c-.708-.348-6.152-3.038-8.289-5.342a52.828 52.828 0 01-5.676 2.677c.489 2.137.94 4.222 1.287 6.178 1.287 6.204 2.021 11.417 2.574 15.085.103.773.193 1.468.284 2.111h.27l.914-1.776a246.252 246.252 0 006.435-13.695 270.817 270.817 0 002.188-5.226l.013-.012zm21.752-79.299c.065 0 1.288-4.84 1.378-5.149.515-3.668-.657-11.069-4.402-12.871a4.921 4.921 0 00-5.667 1.188 4.913 4.913 0 00-1.026 1.772c-.991 2.755.27 6.127 1.776 8.457 1.763 2.728 7.929 6.615 7.929 6.615l.012-.012z" fill="#fff"/><path d="M368.883 192.71s13.077-9.486 13.914-10.117c.836-.631 12.446 4.428 13.077 7.594.63 3.166.206 4.003-.631 4.428-.837.424-24.031 6.744-24.674 6.95-.644.206-1.686-8.855-1.686-8.855z" fill="#FF8562" stroke="#263238" stroke-linecap="round" stroke-linejoin="round"/><path d="M277.112 114.389a8.933 8.933 0 01.18-5.934c1.287-2.883 3.243-3.784 2.342-5.947-.901-2.162-6.306-7.027-6.847-9.73-.541-2.703-2.162-2.574-3.063-.901a3.95 3.95 0 001.081 5.045 4.294 4.294 0 012.162 2.883c0 .541-1.287 1.288-1.287 1.288s-5.393-4.866-6.654-5.226c-1.262-.36-1.622 0-1.622 2.162 0 2.163-.348 11.366 1.094 14.609 1.442 3.244 7.723 6.436 7.723 6.436l4.891-4.685z" fill="#fff" stroke="#263238" stroke-linecap="round" stroke-linejoin="round"/><path d="M272.015 111.853a1.828 1.828 0 00.991-2.355l-27.866-71.1-1.287.424 25.742 71.963a1.839 1.839 0 002.445 1.068h-.025z" fill="#263238"/><path d="M322.662 111.48a.203.203 0 00-.193-.135.205.205 0 00-.193.135 135.35 135.35 0 00-7.156 18.624 86.236 86.236 0 01-10.439 21.431s-14.776-18.548-19.1-24.674a517.314 517.314 0 01-8.469-12.434l-6.127 3.965a241.969 241.969 0 009.55 23.065c4.505 8.816 14.841 23.554 21.148 29.5 6.306 5.947 10.786 6.539 14.698 4.003 1.712-1.107 7.723-11.713 7.723-11.713s2.574-18.186 1.622-31.521a103.142 103.142 0 00-3.064-20.246z" fill="#FF8562" stroke="#263238" stroke-linecap="round" stroke-linejoin="round"/><path d="M372.229 228.414c0-14.943-.36-35.666-.36-35.666a251.947 251.947 0 01-25.948 2.343c-10.979.18-22.872-8.65-22.872-8.65s-1.622 5.046-1.622 18.921 1.622 62.837 1.622 62.837 2.394 18.148 3.076 28.316c.682 10.168 10.207 67.329 10.207 67.329s-6.809 6.796-11.584 10.876c-4.775 4.08-10.876 6.796-6.796 8.843 4.08 2.046 13.244-.335 15.291-1.004 1.068-.361 3.951-3.102 6.77-4.518a7.706 7.706 0 012.87-.875 5.986 5.986 0 002.858-1.017l2.136-1.429s.682 8.16.682 11.584c0 3.424 2.034 11.584 4.763 12.241 2.728.656 5.354.36 8.07-5.072 2.716-5.431-.875-28.741-.875-28.741s2.02-11.262 3.05-19.152c1.197-9.473 8.662-106.277 8.662-117.166z" fill="#263238" stroke="#263238" stroke-linecap="round" stroke-linejoin="round"/><path d="M357.762 202.698s1.558 5.74 4.17 8.611c2.613 2.87 8.341 2.574 8.341 2.574m-33.118-8.315l.785 14.338 2.871 3.398 1.042-14.608m-4.08 155.174a23.564 23.564 0 009.873 4.724m12.871-3.862s-5.149 7.723-11.121 1.751" stroke="#fff" stroke-width=".75" stroke-linecap="round" stroke-linejoin="round"/><path d="M335.444 216.148l6.731 9.421 5.895 138.301s9.448-19.732 12.872-34.752c3.423-15.021 4.723-35.602 4.723-35.602" stroke="#fff" stroke-width=".75" stroke-linecap="round" stroke-linejoin="round"/><path d="M342.677 107.194s-18.019 3.063-20.169 3.784c-2.149.721-.541 32.603-.541 32.603s-.901 46.464.721 51.33c1.622 4.865 11.584 6.435 15.626 7.233a53.835 53.835 0 0022.074-.437c4.209-.927 10.001-1.403 11.12-6.436 1.12-5.033 2.343-33.864 4.866-43.414 2.522-9.551 11.88-24.854 8.096-31.161-3.784-6.307-20.53-10.979-27.738-11.88-7.207-.901-14.055-1.622-14.055-1.622z" fill="#FF8562" stroke="#263238" stroke-linecap="round" stroke-linejoin="round"/><path d="M338.906 115.47l2.33 12.253-12.601 58.912 7.028 11.88 8.817-10.452-1.082-59.619 6.307-10.812-3.604-7.014-7.195 4.852z" fill="#263238"/><path d="M345.071 104.311a25.172 25.172 0 00-7.014 5.586c-3.064 3.591-8.289 13.141-7.723 12.781.566-.361 14.943-9.19 14.943-9.19l-.206-9.177zm12.022-1.802l-11.352 12.433 3.243 11.34 13.335-16.926-5.226-6.847z" fill="#FF8562" stroke="#263238" stroke-linecap="round" stroke-linejoin="round"/><path d="M336.203 59.094s-7.388 1.442-8.289-5.045c-.901-6.487 9.19-15.664 23.593-15.664 14.402 0 25.742 12.06 25.227 23.773a40.863 40.863 0 01-7.388 21.07c-.721 1.08-6.667 4.324-9.19 4.685-2.523.36-4.325-3.244-3.063-7.929 1.261-4.685-2.703-5.934-1.082-10.297 1.622-4.363 3.785-4.325 4.505-5.766.721-1.442-7.208-4.505-14.415-4.145-7.208.36-9.898-.682-9.898-.682z" fill="#263238" stroke="#263238" stroke-linecap="round" stroke-linejoin="round"/><path d="M350.734 52.877c8.611-.206 20.671 1.287 22.152 11.314m-30.891-10.49s1.789-.322 4.505-.566m12.987-4.685s15.252.592 17.247 13.708" stroke="#fff" stroke-linecap="round" stroke-linejoin="round"/><path d="M344.119 97.283s0 .258-.116.695c-.386 2.214-1.558 9.152-1.866 13.36-.361 5.033 3.243 4.853 4.685 3.411 1.441-1.441 9.009-9.009 10.296-12.24 1.288-3.23 4.145-12.974 4.145-12.974l-17.144 7.748z" fill="#fff" stroke="#263238" stroke-linecap="round" stroke-linejoin="round"/><path d="M336.203 59.094s-2.574 14.056-3.424 21.43c-.849 7.376-1.801 11.713 1.288 16.399 3.089 4.685 11.699 1.621 16.024-.18 4.325-1.803 13.154-7.569 13.154-7.569s6.127.36 8.65-2.703a4.64 4.64 0 00.869-3.901 4.64 4.64 0 00-2.491-3.126c-1.442-.36-4.685.9-5.766 2.162-1.081 1.261-.901 2.703-2.163 2.703-1.261 0-3.063.36-2.702-.901.36-1.261 3.063-5.406 2.342-8.096-.721-2.69-6.127-4.505-1.622-7.028 4.505-2.522 9.19-2.342 7.028-6.126-2.162-3.784-13.335-7.723-20.362-6.307a51.723 51.723 0 00-10.825 3.243z" fill="#fff" stroke="#263238" stroke-linecap="round" stroke-linejoin="round"/><path d="M338.546 63.239s4.209-.901 3.951 3.423c-.09 1.7-7.555 9.55-6.435 11.34a9.468 9.468 0 002.883 2.883m8.597-13.141a4.974 4.974 0 014.173-1.001 4.962 4.962 0 013.396 2.623M337.104 86.11s1.081 2.704 5.393 2.343c4.312-.36 5.586-1.287 5.586-1.287" stroke="#263238" stroke-linecap="round" stroke-linejoin="round"/><path d="M350.039 73.651c-.257 1.197-.965 2.047-1.596 1.918-.63-.129-.939-1.21-.682-2.394.258-1.184.966-2.046 1.596-1.918.631.13.927 1.21.682 2.394zm-10.49-3.977c-.218 1.146-.901 1.983-1.506 1.867-.605-.116-.926-1.159-.695-2.304.232-1.146.901-1.982 1.519-1.866.618.115.914 1.145.682 2.303z" fill="#263238"/><path d="M371.148 147.905a42.356 42.356 0 012.87-10.426c2.574-6.088 8.83-18.405 10.452-16.732 1.621 1.673 4.504 7.027 6.306 16.398 1.802 9.37 7.388 38.188 9.731 43.234 2.343 5.045 2.883 7.014 1.442 9.009 0 0-5.046 7.208-11.713 4.325-6.667-2.883-17.827-30.26-17.827-30.26" fill="#FF8562"/><path d="M371.148 147.905a42.356 42.356 0 012.87-10.426c2.574-6.088 8.83-18.405 10.452-16.732 1.621 1.673 4.504 7.027 6.306 16.398 1.802 9.37 7.388 38.188 9.731 43.234 2.343 5.045 2.883 7.014 1.442 9.009 0 0-5.046 7.208-11.713 4.325-6.667-2.883-17.827-30.26-17.827-30.26" stroke="#263238" stroke-linecap="round" stroke-linejoin="round"/><path d="M259.556 92.65c-1.069 2.42 2.342 4.388 4.299 4.8 1.621.348 3.307-2.368 2.098-3.59a8.343 8.343 0 00-3.978-2.047 2.471 2.471 0 00-2.291.63 1.1 1.1 0 00-.128.207zm6.267 7.516s-4.504-1.017-5.817-.502c-1.313.515-1.287 3.784-.58 4.647.708.862 7.195.437 8.071-.284.875-.72.514-3.153-1.674-3.861z" fill="#fff" stroke="#263238" stroke-linecap="round" stroke-linejoin="round"/><path d="M260.225 104.825s-.065 3.347.875 4.286c.939.94 7.632-.218 8.147-1.377.515-1.158-.579-4.003-1.171-3.861-.592.141-5.226 1.532-7.851.952z" fill="#fff" stroke="#263238" stroke-linecap="round" stroke-linejoin="round"/><path d="M261.538 109.407a6.074 6.074 0 00.94 3.347c.952 1.017 6.551-.798 7.568-2.111a1.524 1.524 0 00.319-1.439 1.515 1.515 0 00-1.053-1.032 32.861 32.861 0 01-5.226 1.158c-1.673.077-2.548.077-2.548.077z" fill="#fff" stroke="#263238" stroke-linecap="round" stroke-linejoin="round"/><path d="M470.203 265.071a19529.94 19529.94 0 0151.125 22.126 6.436 6.436 0 013.475 8.289c-2.574 6.603-7.388 17.453-14.352 25.922-10.747 13.077-14.544 24.661-15.805 37.738-1.262 13.078 0 37.108 0 37.108l-65.36-56.929s7.594-33.092 19.616-43.221a69.077 69.077 0 0021.301-31.033z" fill="#263238"/><path d="M459.032 255.585s-24.043.837-26.141.837c-2.098 0-8.65 31.843-10.761 46.799-2.111 14.956-4.427 26.141-4.427 26.141s21.507 13.078 32.049 17.93a3078.57 3078.57 0 0121.713 10.117s12.228-34.997 19.603-49.76c7.375-14.763 13.914-15.381 9.486-23.606-4.428-8.224-18.122-18.766-23.4-22.28-5.277-3.513-18.122-6.178-18.122-6.178z" fill="#FF8562" stroke="#263238" stroke-linecap="round" stroke-linejoin="round"/><path d="M453.188 253.681s-.631.218-3.797 5.058c-3.167 4.839-4.209 20.671-3.578 20.027.63-.643 8.224-10.297 10.116-9.692 1.892.605 7.17 13.077 7.375 14.159.206 1.081 8.65-7.376 11.173-14.545 2.522-7.169 1.48-14.158-1.468-16.23-2.947-2.073-15.033-2.986-19.821 1.223z" fill="#FF8562" stroke="#263238" stroke-linecap="round" stroke-linejoin="round"/><path d="M61.906 280.452l-38.614 30.325a4.03 4.03 0 00.322 6.577c8.418 5.29 25.086 16.964 30.067 29.089 6.744 16.449 9.267 38.999 14.544 47.018a31.484 31.484 0 0013.657 11.172l41.097-51.871s-7.581 1.699-13.064-23.168-20.452-40.479-27.03-45.332c-6.577-4.852-20.98-3.81-20.98-3.81z" fill="#263238"/><path d="M115.179 278.56s34.16 16.656 34.752 21.289c.592 4.634-2.741 15.819-4.852 17.286-2.111 1.467-21.289-6.526-24.455-8.43-3.166-1.905-7.543-24.456-5.445-30.145z" fill="#FF8562" stroke="#263238" stroke-linecap="round" stroke-linejoin="round"/><path d="M91.998 268.649a42.548 42.548 0 0111.378-4.427c3.012-.785 9.28 2.574 11.584 9.486a153.744 153.744 0 006.951 16.372c2.136 4.582 6.229 10.747 6.152 15.883-.103 5.985-3.861 12.614-6.77 17.71l6.757 15.6-42.59 54.394s-11.173-2.948-12.653-19.822c-1.48-16.874.425-40.891.425-40.891s-11.803-8.856-14.158-18.548c-2.356-9.692 5.895-23.618 14.158-29.732 8.263-6.114 18.766-16.025 18.766-16.025z" fill="#FF8562" stroke="#263238" stroke-linecap="round" stroke-linejoin="round"/><path d="M96.838 216.161s1.905 9.28 6.113 10.117c4.209.836 6.333-.425 5.908 4.003a14.774 14.774 0 01-2.316 6.963s1.892 10.953 1.287 15.806c-.605 4.852-4.209 3.797-8.43 4.427a50.652 50.652 0 01-6.745.631s.836 8.855 2.574 13.283c1.737 4.428 3.59 6.333 1.48 7.375-2.11 1.043-13.064-4.633-18.341-11.803-5.277-7.169 1.892-14.338 5.058-20.027 3.166-5.689-6.745-12.009-1.055-20.028a31.155 31.155 0 0114.467-10.747z" fill="#fff" stroke="#263238" stroke-linecap="round" stroke-linejoin="round"/><path d="M99.979 228.8c.373 1.287.309 2.575-.142 2.652-.45.077-1.12-.863-1.493-2.214s-.309-2.574.142-2.651c.45-.078 1.12.862 1.493 2.213z" fill="#263238"/><path d="M93.465 226.072s.22-4.222 3.862-4.222l-3.862 4.222z" fill="#fff"/><path d="M93.465 226.072s.22-4.222 3.862-4.222" stroke="#263238" stroke-linecap="round" stroke-linejoin="round"/><path d="M499.666 419.86c-2.536-75.528-97.061-136.216-213.301-136.216-117.822 0-213.339 62.387-213.339 139.356" fill="#fff"/><path d="M499.666 419.86c-2.536-75.528-97.061-136.216-213.301-136.216-117.822 0-213.339 62.387-213.339 139.356" stroke="#263238" stroke-linecap="round" stroke-linejoin="round"/><path d="M178.852 320.507l-29.088 42.166 34.983 6.963 26.991-44.907-32.886-4.222z" fill="#fff" stroke="#263238" stroke-linecap="round" stroke-linejoin="round"/><path d="M183.061 324.549l-22.588 35.872m27.441-34.997l-22.756 35.923m27.621-35.035L170.1 362.287m27.532-35.087l-22.717 35.756m27.569-34.88l-22.344 35.82m-4.286-37.056l29.436 4.955m-31.702-1.879L203.411 335m-31.83-2.008l29.964 5.213m-31.702-2.137l29.99 5.252m-32.41-1.905l30.208 4.994m-32.614-2.047l30.401 5.136m-32.14-2.201l29.939 5.29m-31.946-2.072l29.732 5.161m-31.998-1.956l29.797 5.045m-32.203-2.098l30.002 5.187m-32.281-1.982l30.067 5.072" stroke="#263238" stroke-width=".5" stroke-linecap="round" stroke-linejoin="round"/><path d="M184.748 369.636l21.301-5.483 30.775-52.913-25.086 13.489-26.99 44.907z" fill="#263238" stroke="#263238" stroke-linecap="round" stroke-linejoin="round"/><path d="M325.03 351.707l-47.288 1.956-11.275-47.713 47.288-1.956 11.275 47.713z" fill="#fff" stroke="#263238" stroke-linecap="round" stroke-linejoin="round"/><path d="M349.241 360.678l-47.276 1.957-11.275-47.714 47.276-1.956 11.275 47.713z" fill="#FF8562" stroke="#263238" stroke-linecap="round" stroke-linejoin="round"/><path d="M426.597 409.125l-65.013.45-6.538-35.472 65.012-.438 6.539 35.46z" fill="#fff" stroke="#263238" stroke-linecap="round" stroke-linejoin="round"/><path d="M194.028 412.639l-67.329-1.699 8.868-34.07 67.329 1.699-8.868 34.07z" fill="#FF8562" stroke="#263238" stroke-linecap="round" stroke-linejoin="round"/><path d="M479.69 297.803l-20.066 47.159a308.786 308.786 0 01-31.2 5.702c-14.544 1.687-28.882 2.098-28.882 2.098l.205 8.856s22.769 2.574 41.111 2.741c18.341.168 25.51 5.277 30.363.631 4.852-4.647 30.981-55.861 34.147-65.347 3.166-9.486-4.852-17.492-9.911-21.083" fill="#FF8562"/><path d="M479.69 297.803l-20.066 47.159a308.786 308.786 0 01-31.2 5.702c-14.544 1.687-28.882 2.098-28.882 2.098l.205 8.856s22.769 2.574 41.111 2.741c18.341.168 25.51 5.277 30.363.631 4.852-4.647 30.981-55.861 34.147-65.347 3.166-9.486-4.852-17.492-9.911-21.083" stroke="#263238" stroke-linecap="round" stroke-linejoin="round"/><path d="M399.58 352.763s-14.339-6.526-18.136-8.431c-3.797-1.905-17.492 4.647-19.178 5.277-1.686.631-5.483 2.948-4.852 4.428.63 1.48 5.908 2.111 5.908 2.111s-4.853.63-3.797 2.098c1.055 1.467 17.285-1.056 18.753-1.056 1.467 0 4.852 3.797 8.855 4.647 4.003.849 12.652-.219 12.652-.219l-.205-8.855zm-238.863-9.268c.747-.502 2.575-.849 6.333 0 3.758.85 9.898 2.574 9.267 3.372-.631.799-2.317.837-4.427.837-2.111 0-5.059.219-5.059.219s-10.117-1.686-6.114-4.428z" fill="#fff" stroke="#263238" stroke-linecap="round" stroke-linejoin="round"/><path d="M61.43 308.293s2.74 17.492 7.8 40.261c5.058 22.769 11.377 32.886 14.75 34.366 3.372 1.48 43.015-12.447 51.651-16.45 8.637-4.003 14.97-2.947 17.711-2.947 2.742 0 6.539-6.333 9.28-7.375 2.742-1.043 15.124 1.892 16.025-.425.901-2.317-6.114-6.963-8.225-8.431-2.111-1.467-6.538-4.852-9.705-3.797-3.166 1.056-11.584 12.434-13.913 13.695-2.33 1.262-24.661 2.575-35.834 2.33-11.172-.245-12.227-.425-12.227-.425s-8.43-36.039-8.43-43.015c0-6.436-1.816-16.385-8.573-19.101-4.595-1.828-12.176-2.162-16.102 1.403a13.112 13.112 0 00-4.209 9.911z" fill="#fff" stroke="#263238" stroke-linecap="round" stroke-linejoin="round"/><path d="M88.201 377.012c7.594-3.861 10.542-17.917 10.542-17.917s-8.43-36.039-8.43-43.015c0-6.436-1.816-16.385-8.573-19.101-4.595-1.828-12.176-2.162-16.102 1.403a13.112 13.112 0 00-4.209 9.911s2.742 17.492 7.8 40.261c3.604 16.243 7.852 26.025 11.224 30.89a24.28 24.28 0 007.748-2.432z" fill="#FF8562" stroke="#263238" stroke-linecap="round" stroke-linejoin="round"/><path d="M178.647 355.723s-12.653-4.647-14.558-4.647c-1.219.02-2.428.238-3.578.644" fill="#fff"/><path d="M178.647 355.723s-12.653-4.647-14.558-4.647c-1.219.02-2.428.238-3.578.644" stroke="#263238" stroke-linecap="round" stroke-linejoin="round"/><path d="M160.936 347.704a9.147 9.147 0 015.895.219c2.574 1.287 10.297 4.633 10.297 4.633" fill="#fff"/><path d="M160.936 347.704a9.147 9.147 0 015.895.219c2.574 1.287 10.297 4.633 10.297 4.633" stroke="#263238" stroke-linecap="round" stroke-linejoin="round"/><path d="M150.176 299.013s-3.784-1.288-7.169 4.852c-3.385 6.14-3.372 11.378 1.48 14.75 4.852 3.373 17.917 6.539 21.083 8.856 3.166 2.316 5.908 5.483 7.594 5.908 1.686.424 8.006 1.686 6.32-6.964-1.687-8.649-14.159-17.71-20.453-22.769-6.294-5.058-8.855-4.633-8.855-4.633z" fill="#fff" stroke="#263238" stroke-linecap="round" stroke-linejoin="round"/><path d="M170.486 323.545a17.53 17.53 0 01-2.741 4.737c-1.635 1.814-3.089 2.728-1.635 5.29a79.083 79.083 0 013.862 8.018c.913 2.188 2.445-.476 2.805-3.398.361-2.921-2.11-6.95-.244-7.362.553-.116 2.175-3.282 5.65-1.635 3.476 1.648 9.293 7.466 9.834 3.09.54-4.377-2.909-8.019-6.925-10.027-4.016-2.008-8.598-2.574-10.606 1.287zm18.959 3.308s1.815 0 3.643 3.462c1.828 3.463 2.729 5.277 1.454 5.831-1.274.553-1.634 0-2.728-2.008a71.337 71.337 0 01-2.008-4.016v-2.368l-.361-.901z" fill="#fff" stroke="#263238" stroke-linecap="round" stroke-linejoin="round"/><path d="M185.069 323.931a6.428 6.428 0 014.737 3.861c1.287 3.282 2.008 7.298.914 8.933-1.094 1.634-3.282.733-3.643-2.188-.36-2.922-2.008-10.606-2.008-10.606z" fill="#fff" stroke="#263238" stroke-linecap="round" stroke-linejoin="round"/><path d="M180.513 321.563s1.995-.361 4.557 2.368c2.561 2.729 3.102 12.215 2.188 12.936-.914.72-2.575 1.094-3.463-1.288-.888-2.381-3.282-14.016-3.282-14.016z" fill="#fff" stroke="#263238" stroke-linecap="round" stroke-linejoin="round"/><path d="M173.949 321.923s3.462-4.917 5.65-2.368c2.188 2.548 4.376 16.037 3.643 16.951-.734.914-2.909 1.455-4.377-1.815a61.508 61.508 0 01-2.728-9.486" fill="#fff"/><path d="M173.949 321.923s3.462-4.917 5.65-2.368c2.188 2.548 4.376 16.037 3.643 16.951-.734.914-2.909 1.455-4.377-1.815a61.508 61.508 0 01-2.728-9.486" stroke="#263238" stroke-linecap="round" stroke-linejoin="round"/><path d="M95.01 220.576c-3.385 2.754-6.912 5.264-7.864 9.924-1.48 7.169 5.689 12.008 1.055 18.547-4.633 6.538-10.541 8.225-4.221 14.763 6.32 6.539 25.935 16.861 22.563 34.572-3.373 17.711-16.23 16.025-19.191 14.158-2.96-1.866-15.806-10.117-21.495-7.169-5.689 2.947-1.48 13.914-3.166 17.505-1.686 3.591-18.972 0-25.086-7.8-6.114-7.8-11.391-29.102-4.852-40.699 6.538-11.597 16.655-15.188 13.489-27.222-3.167-12.035-6.526-26.566 2.33-39.901 8.854-13.334 26.115-20.851 39.63-17.71 6.358 1.48 13.295 5.586 15.174 12.253 1.661 5.946-1.119 11.481-5.148 15.767a33.798 33.798 0 01-3.218 3.012z" fill="#263238" stroke="#263238" stroke-linecap="round" stroke-linejoin="round"/><path d="M98.24 209.417a16.948 16.948 0 01-6.19 7.13c-8.16 5.252-13.4 11.082-11.07 19.242 2.33 8.161 2.91 13.399-7.58 18.651-10.49 5.251-5.252 22.769 5.83 27.402 11.082 4.634 26.231 15.729 16.9 25.64m4.08-106.084a19.078 19.078 0 01-.58 4.08M48.494 308.1c.527 2.78 1.815 4.968 2.754 5.277" stroke="#fff" stroke-linecap="round" stroke-linejoin="round"/><path d="M84.469 222.378s-14.57 5.83-13.978 12.24c.592 6.41 2.908 11.082-1.172 15.741-4.08 4.66-18.65 9.332-18.65 18.651 0 9.318 11.584 14.57 11.07 21.572-.516 7.002-9.32 4.659-12.241 9.911a9.15 9.15 0 00-.798 1.917" stroke="#fff" stroke-linecap="round" stroke-linejoin="round"/><path d="M447.64 205.195s-4.209 6.539-4.209 10.542 1.287 5.689.412 6.319c-.875.631-12.639.644-10.747 3.797a12.87 12.87 0 005.483 4.647s-.631 16.436 0 20.027c.631 3.591 1.686 3.373 4.633 2.574a50.315 50.315 0 016.539-1.287s2.742 14.339 6.539 16.437c3.797 2.098 13.488-8.431 14.338-12.434.849-4.003-1.055-11.803.206-14.158 1.261-2.355 6.744-6.333 5.908-12.022-.837-5.689-5.908-7.375-8.225-9.91-2.317-2.536.412-8.006-1.686-11.172-2.098-3.167-17.08-4.415-19.191-3.36z" fill="#fff" stroke="#263238" stroke-linecap="round" stroke-linejoin="round"/><path d="M467.887 240.616s-2.96 4.634-5.908 4.209c-2.947-.425-4.852-4.428-4.852-4.428" fill="#fff"/><path d="M467.887 240.616s-2.96 4.634-5.908 4.209c-2.947-.425-4.852-4.428-4.852-4.428" stroke="#263238" stroke-linecap="round" stroke-linejoin="round"/><path d="M460.087 243.989s-6.114 4.633-10.966 5.907l10.966-5.907z" fill="#fff"/><path d="M460.087 243.989s-6.114 4.633-10.966 5.907" stroke="#263238" stroke-linecap="round" stroke-linejoin="round"/><path d="M438.579 230.5s8.637 9.898 5.689 12.009c-2.947 2.11-8.224-3.154-8.224-7.17s-.206-5.47 2.535-4.839z" fill="#263238" stroke="#263238" stroke-linecap="round" stroke-linejoin="round"/><path d="M447.448 223.15c-.078 1.403-.567 2.51-1.12 2.484-.554-.025-.927-1.184-.85-2.574.078-1.39.567-2.574 1.107-2.484.541.09.927 1.171.863 2.574z" fill="#263238"/><path d="M445.195 217.191s3.655-.85 4.505 5.354" stroke="#263238" stroke-linecap="round" stroke-linejoin="round"/><path d="M461.979 209.417s-21.881-1.056-24.661-8.431c-2.78-7.375 17.917-19.397 40.467-14.969 22.55 4.428 24.313 36.464 15.818 43.208-8.495 6.745-20.246 13.708-23.399 14.158-3.154.451-3.167-1.287-2.317-2.741.849-1.455 6.526-12.022 2.741-12.446-3.784-.425-11.185 3.861-12.021 3.861-.837 0-1.892-1.287-1.056-3.154.837-1.866 4.003-3.166.631-6.332s-5.895-4.209-4.209-6.539c1.686-2.329 8.006-6.615 8.006-6.615z" fill="#263238" stroke="#263238" stroke-linecap="round" stroke-linejoin="round"/><path d="M442.968 200.806s1.751.592 12.241 2.922c10.49 2.329 39.051 2.909 40.222 18.019m-8.148 6.049a7.242 7.242 0 01-.605 3.862m-29.139-16.861a53.443 53.443 0 0019.229 6.435 16.652 16.652 0 017.826 2.472m-19.475-.155s20.98 5.238 16.321 11.648" stroke="#fff" stroke-linecap="round" stroke-linejoin="round"/><path d="M432.89 256.422s-6.744 2.741-9.074 8.649c-2.33 5.908-26.553 33.311-30.144 40.055-3.591 6.745-4.428 10.748 0 13.283 4.428 2.536 7.8 1.056 13.708-2.96 5.907-4.016 15.754-20.375 15.754-20.375l9.756-38.652z" fill="#FF8562" stroke="#263238" stroke-linecap="round" stroke-linejoin="round"/><path d="M398.1 301.329s-6.539 4.853-8.856 12.228c-2.316 7.375-11.172 28.008-11.172 28.008l8.019 6.113s17.917-28.033 19.178-32.255c1.261-4.221.206-6.319.206-6.319" fill="#FF8562"/><path d="M398.1 301.329s-6.539 4.853-8.856 12.228c-2.316 7.375-11.172 28.008-11.172 28.008l8.019 6.113s17.917-28.033 19.178-32.255c1.261-4.221.206-6.319.206-6.319" stroke="#263238" stroke-linecap="round" stroke-linejoin="round"/><path d="M380.607 340.277a5.683 5.683 0 014.634.631c2.111 1.48 7.169 8.431 5.483 9.074-1.686.644-4.003-.219-5.689-2.111-1.686-1.892-3.591-3.166-4.428-3.166h-2.072l2.072-4.428zm-16.024 5.741a17.395 17.395 0 00-5.059 4.016c-1.48 2.098-3.166 9.267-2.317 9.898.85.63 1.893-1.468 3.373-5.265 1.48-3.797 4.003-8.649 4.003-8.649z" fill="#fff" stroke="#263238" stroke-linecap="round" stroke-linejoin="round"/><path d="M380.608 340.277c.772.541-4.016 9.28-5.908 12.871-1.892 3.592-10.297 7.594-12.434 7.8-2.136.206-2.741-11.378 3.372-16.436 6.114-5.058 12.897-5.663 14.97-4.235z" fill="#fff" stroke="#263238" stroke-linecap="round" stroke-linejoin="round"/><path d="M365.419 359.726s-2.098-2.574-.205-8.006a83.637 83.637 0 013.861-9.28m.142 14.969s-.631-2.575.849-7.594a43.549 43.549 0 014.209-9.486" stroke="#263238" stroke-linecap="round" stroke-linejoin="round"/><path d="M245.939 29.22l14.683-.187m-116.526 1.469l90.478-1.138m-7.685 11.051l36.477-.462m-92.377 1.167l45.943-.577m-70.105.875l15.63-.196m32.58 10.554l71.069-.892M149.567 52.35l29.84-.378m70.532 17.248l14.683-.187m-116.526 1.469l90.478-1.138m-7.685 11.051l36.477-.462m-92.377 1.167l45.943-.577m-70.105.875l15.63-.196m32.58 10.554l71.069-.892M153.567 92.35l29.84-.378m68.532 18.248l14.683-.187m-116.526 1.469l90.478-1.138m-7.685 11.051l36.477-.462m-92.377 1.167l45.943-.577m-70.105.875l15.63-.196m32.58 10.554l71.069-.892m-116.539 1.465l29.84-.377m69.532 16.248l14.683-.187m-116.526 1.469l90.478-1.138m-7.685 11.051l36.477-.462m-92.377 1.167l45.943-.577m-70.105.875l15.63-.196m32.58 10.554l71.069-.892m-116.539 1.465l29.84-.377" stroke="#263238" stroke-miterlimit="10"/></svg>