<svg width="1920" height="412" fill="none" xmlns="http://www.w3.org/2000/svg"><path opacity=".2" fill-rule="evenodd" clip-rule="evenodd" d="M2063.34 378.572c-92.78 22.129-333.69 55.089-555.18 9.902-34.62-7.062-58.6-15.483-74.81-24.849-16.22-9.368-24.7-19.693-28.26-30.559-3.55-10.859-2.18-22.202 1.17-33.571 2.41-8.207 5.87-16.459 9.27-24.569l.01-.004v-.003c1.3-3.114 2.6-6.206 3.82-9.267 4.43-11.059 7.93-21.71 7.67-31.561-.26-9.821-4.27-18.87-14.92-26.748-10.68-7.892-28.04-14.61-55.02-19.702-26.96-5.09-63.5-8.55-112.52-9.949-147.62-4.213-248.859 14.408-334.509 30.162-28.096 5.168-54.515 10.027-80.344 13.671-52.284 7.376-102.143 9.767-158.572-.367-56.427-10.134-119.405-32.788-197.936-75.48-78.462-42.655-144.085-55.95-202.761-52.92-58.682 3.03-110.444 22.389-161.191 45.092-12.283 5.495-24.506 11.186-36.754 16.889-88.936 41.408-179.139 83.406-302.503 55.14l.139-.644c123.13 28.213 213.126-13.685 302.068-55.092l.002-.001c12.25-5.702 24.478-11.396 36.772-16.895 50.766-22.712 102.618-42.113 161.425-45.15 58.814-3.036 124.557 10.296 203.112 53.001 78.487 42.669 141.397 65.292 197.736 75.41 56.336 10.117 106.12 7.733 158.362.363 25.797-3.639 52.196-8.495 80.279-13.66 85.659-15.757 186.985-34.395 334.685-30.179 49.03 1.399 85.61 4.86 112.63 9.96 27.01 5.099 44.48 11.84 55.28 19.822 10.82 7.997 14.93 17.238 15.2 27.268.27 10-3.28 20.762-7.71 31.822-1.24 3.081-2.54 6.185-3.84 9.304l-.01.009c-3.39 8.099-6.83 16.301-9.24 24.472-3.33 11.312-4.67 22.504-1.17 33.179 3.49 10.667 11.83 20.876 27.95 30.187 16.13 9.314 40.03 17.717 74.61 24.772 221.37 45.161 462.18 12.218 554.9-9.898l.16.643zm-525.97-16.642c221.5 45.187 462.41 12.227 555.19-9.903l-.17-.642c-92.72 22.116-333.52 55.059-554.89 9.898-34.59-7.055-58.49-15.459-74.62-24.773-16.12-9.311-24.45-19.52-27.95-30.187-3.49-10.675-2.16-21.866 1.17-33.178 2.41-8.171 5.85-16.373 9.24-24.473l.01-.008c1.31-3.119 2.61-6.223 3.84-9.304 4.43-11.061 7.98-21.823 7.71-31.822-.27-10.031-4.37-19.271-15.19-27.268-10.8-7.982-28.28-14.724-55.29-19.822-27.01-5.1-63.59-8.561-112.62-9.961-147.71-4.215-249.03 14.423-334.692 30.179-28.083 5.166-54.482 10.022-80.279 13.661-52.242 7.37-102.026 9.754-158.362-.363-56.339-10.118-119.249-32.742-197.736-75.41-78.555-42.706-144.299-56.038-203.112-53-58.807 3.036-110.659 22.437-161.426 45.148-12.293 5.5-24.523 11.194-36.774 16.897-88.941 41.407-178.937 83.304-302.067 55.092l-.139.644c123.364 28.266 213.567-13.733 302.503-55.141 12.248-5.702 24.471-11.393 36.754-16.888 50.747-22.703 102.509-42.063 161.191-45.093 58.676-3.03 124.298 10.265 202.761 52.92 78.531 42.693 141.509 65.347 197.936 75.481 56.429 10.134 106.288 7.743 158.572.367 25.829-3.644 52.248-8.503 80.344-13.671 85.646-15.755 186.886-34.376 334.516-30.162 49.01 1.398 85.55 4.858 112.52 9.949s44.33 11.809 55.01 19.702c10.65 7.877 14.66 16.927 14.92 26.748.27 9.851-3.24 20.501-7.66 31.561a623.98 623.98 0 01-3.83 9.264v.012c-3.4 8.109-6.86 16.36-9.28 24.567-3.35 11.368-4.72 22.711-1.16 33.57 3.55 10.867 12.03 21.192 28.25 30.56 16.22 9.365 40.2 17.787 74.81 24.849zm584.4-36.447c-92.78 22.129-333.69 55.089-555.18 9.902-34.62-7.062-58.6-15.484-74.82-24.849-16.22-9.368-24.69-19.693-28.25-30.56-3.56-10.859-2.19-22.202 1.16-33.57 2.42-8.208 5.88-16.462 9.28-24.573 1.31-3.114 2.6-6.208 3.83-9.27 4.43-11.059 7.93-21.71 7.66-31.561-.26-9.821-4.26-18.871-14.92-26.748-10.68-7.893-28.04-14.61-55.01-19.702-26.97-5.091-63.51-8.551-112.52-9.949-147.63-4.213-248.86 14.407-334.513 30.162-28.096 5.168-54.515 10.027-80.344 13.671-52.284 7.376-102.143 9.767-158.572-.367-56.427-10.134-119.405-32.788-197.936-75.48-78.47-42.66-144.04-59.228-202.631-61.1-58.595-1.873-110.234 10.95-160.853 27.11-13.918 4.443-27.758 9.138-41.645 13.85-87.115 29.554-176.04 59.723-297.076 31.99l.14-.643c120.841 27.688 209.586-2.417 296.699-31.968h.001c13.891-4.713 27.741-9.411 41.673-13.859 50.644-16.167 102.367-29.017 161.073-27.14 58.71 1.876 124.38 18.478 202.928 61.18 78.487 42.668 141.397 65.292 197.736 75.41 56.336 10.117 106.12 7.733 158.362.363 25.797-3.639 52.196-8.495 80.279-13.661 85.659-15.756 186.989-34.394 334.689-30.179 49.03 1.4 85.61 4.861 112.62 9.961 27.01 5.098 44.49 11.84 55.29 19.822 10.82 7.997 14.93 17.237 15.19 27.268.27 9.999-3.28 20.761-7.71 31.822-1.23 3.081-2.53 6.186-3.84 9.305v.009c-3.4 8.099-6.84 16.3-9.24 24.471-3.34 11.312-4.67 22.503-1.17 33.178 3.49 10.667 11.82 20.876 27.95 30.187 16.13 9.314 40.03 17.718 74.61 24.773 221.37 45.161 462.18 12.218 554.9-9.898l.16.643zm29.21-26.545c-92.78 22.13-333.69 55.089-555.18 9.903-34.62-7.062-58.6-15.484-74.81-24.849-16.23-9.368-24.7-19.693-28.26-30.56-3.56-10.859-2.18-22.202 1.16-33.571 2.42-8.208 5.88-16.461 9.28-24.572 1.31-3.115 2.61-6.209 3.83-9.271 4.43-11.059 7.93-21.709 7.67-31.561-.27-9.82-4.27-18.87-14.93-26.747-10.67-7.893-28.04-14.611-55.01-19.703-26.96-5.09-63.51-8.55-112.52-9.949-150.57-4.297-252.95 16.614-339.778 34.347-26.227 5.356-51.034 10.423-75.321 14.417-52.346 8.609-102.268 12.234-158.746 3.026-56.476-9.209-119.487-31.247-198.02-73.94-78.478-42.664-144.009-63.036-202.539-70.606-58.531-7.57-110.077-2.341-160.595 6.217-16.77 2.841-33.427 6.05-50.19 9.279C62.801 37.02-24.057 53.75-141.07 26.94l.14-.644c116.867 26.777 203.58 10.076 287.793-6.143 16.77-3.23 33.44-6.44 50.23-9.285 50.548-8.564 102.166-13.803 160.789-6.22 58.623 7.581 124.233 27.983 202.773 70.68 78.485 42.668 141.425 64.674 197.808 73.868 56.382 9.193 106.227 5.577 158.533-3.025 24.257-3.99 49.046-9.053 75.259-14.407h.003c86.832-17.735 189.312-38.665 339.962-34.366 49.03 1.4 85.61 4.861 112.63 9.961 27 5.098 44.48 11.84 55.28 19.821 10.82 7.998 14.93 17.238 15.2 27.268.26 10-3.29 20.762-7.71 31.823a673.96 673.96 0 01-3.85 9.305v.009c-3.4 8.098-6.84 16.3-9.24 24.471-3.33 11.312-4.67 22.503-1.17 33.178 3.49 10.667 11.83 20.876 27.95 30.187 16.13 9.314 40.03 17.717 74.61 24.773 221.37 45.161 462.18 12.217 554.9-9.898l.16.642z" fill="url(#paint0_linear_200_439)"/><defs><linearGradient id="paint0_linear_200_439" x1="43.809" y1="96.88" x2="2130.61" y2="96.88" gradientUnits="userSpaceOnUse"><stop offset=".31" stop-color="#8B8B8B"/><stop offset=".594" stop-color="#8B8B8B" stop-opacity=".9"/><stop offset=".852" stop-color="#8B8B8B" stop-opacity=".8"/></linearGradient></defs></svg>