<svg width="604" height="612" fill="none" xmlns="http://www.w3.org/2000/svg"><path d="M279.883 612c154.576 0 279.884-12.843 279.884-28.686s-125.308-28.686-279.884-28.686C125.308 554.628 0 567.471 0 583.314S125.308 612 279.883 612z" fill="#263238"/><path d="M503.945 318.735c-.093 0 1.008-5.458 1.117-5.784 1.271-3.892 6-10.684 10.575-10.668a5.417 5.417 0 014 1.929 5.408 5.408 0 011.21 4.273c-.326 3.226-3.226 5.97-5.831 7.552-3.054 1.814-11.071 2.698-11.071 2.698z" fill="#FF8562"/><path d="M495.091 282.032c4.311 1.551 6.451 9.521 6.311 13.614 0 .357-.822 5.861-.899 5.815a206 206 0 011.07 4.094c.635 2.744 1.349 5.861 1.891 9.303a98.003 98.003 0 011.21 11.18 70.386 70.386 0 01-.419 12.56.67.67 0 010 .155c.574-1.225 2.264-4.574 2.419-4.822 2.249-3.412 8.591-8.715 13.01-7.49a5.432 5.432 0 013.831 5.104 5.435 5.435 0 01-.435 2.215c-1.163 3.008-4.652 4.9-7.614 5.737-3.318.946-10.699-.17-11.288-.263a97.434 97.434 0 01-2.729 12.513 160.307 160.307 0 01-2.218 7.179 50.684 50.684 0 011.07-2.078c2.249-3.426 8.591-8.714 13.01-7.505a5.425 5.425 0 013.337 2.899 5.432 5.432 0 01.074 4.42c-1.178 3.024-4.652 4.9-7.629 5.738-2.977.837-9.303 0-10.963-.218-.325.915-.62 1.83-.93 2.745-1.551 4.373-3.101 8.745-4.419 13.056-.481 1.551-.9 3.101-1.334 4.559.466-.915.869-1.69.946-1.799 2.249-3.411 8.591-8.714 13.01-7.489a5.408 5.408 0 013.837 5.103c.01.761-.14 1.516-.441 2.216-1.163 3.008-4.652 4.9-7.614 5.737-2.962.837-8.683.093-10.684-.186-.387 1.55-.775 3.101-1.085 4.652-.186 1.054-.434 2.046-.558 3.101-.124 1.054-.295 2.109-.434 3.101a219.94 219.94 0 00-.59 6.032c-.124 1.364-.201 2.667-.294 3.969.465-1.55 1.426-4.481 1.55-4.651a21.034 21.034 0 017.025-7.986 5.82 5.82 0 01.589-1.054 5.432 5.432 0 013.709-2.395 5.422 5.422 0 014.261 1.154c3.473 2.993 2.605 11.211 1.008 14.979-.093.232-1.38 2.527-2.218 3.954.621-.76 1.21-1.551 1.861-2.295a226.793 226.793 0 014.001-4.729l2.14-2.326c.697-.791 1.55-1.551 2.31-2.311a116.174 116.174 0 015.784-5.163c-1.365-1.117-6.203-5.148-7.521-7.893-1.318-2.744-2.357-6.59-.93-9.489a5.42 5.42 0 013.324-2.972 5.423 5.423 0 014.429.522c3.876 2.434 4.264 10.699 3.256 14.668 0 .233-1.101 3.009-1.705 4.513 1.209-.993 2.403-2.001 3.659-2.978 3.628-2.791 7.381-5.52 11.118-8.249a274.104 274.104 0 003.396-2.527c-.481-.388-6.203-5.071-7.753-8.141-1.365-2.729-2.342-6.59-.915-9.49a5.404 5.404 0 013.326-2.97 5.422 5.422 0 014.427.536c3.876 2.434 4.279 10.684 3.271 14.653-.077.295-1.55 4.264-2.015 5.257 2.496-1.846 4.962-3.722 7.319-5.675a92.897 92.897 0 009.071-8.436c-.233-.186-6.296-5.039-7.862-8.187-1.38-2.729-2.357-6.59-.93-9.49a5.411 5.411 0 017.753-2.45c3.892 2.435 4.279 10.7 3.271 14.669 0 .248-1.209 3.287-1.783 4.652l.217.139a70.861 70.861 0 007.443-9.985c1.225-1.939 2.28-3.861 3.272-5.753-1.225-.791-6.761-4.45-8.497-7.133-1.737-2.682-3.102-6.295-1.954-9.303a5.423 5.423 0 015.172-3.747 5.412 5.412 0 012.209.475c4.124 2 5.411 10.156 4.853 14.219 0 .217-.589 2.419-1.023 4.016.434-.853.899-1.737 1.287-2.559 1.55-3.101 2.698-6.078 3.737-8.699.573-1.55 1.054-2.853 1.55-4.14-.791-1.395-3.923-7.07-4.233-10.187-.31-3.117.186-7.009 2.574-9.195a5.424 5.424 0 016.308-.939c.674.351 1.267.84 1.74 1.435 2.744 3.675.124 11.521-2.233 14.855-.202.294-3.923 4.435-3.97 4.357-.403 1.24-.852 2.558-1.364 4.001-.977 2.651-2.109 5.628-3.551 8.791a96.072 96.072 0 01-5.148 9.986 70.233 70.233 0 01-7.288 10.25.37.37 0 01-.108.108 198.682 198.682 0 014.651-2.682c3.753-1.551 11.971-2.512 14.979.93a5.429 5.429 0 01-1.194 7.986c-2.651 1.86-6.621 1.55-9.52.573-3.288-1.038-8.839-6.047-9.304-6.45a96.566 96.566 0 01-9.18 8.947c-1.891 1.551-3.845 3.194-5.814 4.76 1.008-.573 1.907-1.085 2.046-1.147 3.753-1.551 11.971-2.528 14.979.93a5.412 5.412 0 01-1.194 7.97c-2.636 1.876-6.605 1.551-9.52.589-2.916-.961-7.753-5.116-9.04-6.202l-2.28 1.768c-3.675 2.822-7.365 5.613-10.854 8.466a98.6 98.6 0 00-3.628 3.101l1.783-.992c3.752-1.551 11.97-2.528 14.979.93a5.457 5.457 0 011.175 4.258 5.432 5.432 0 01-2.369 3.728c-2.636 1.861-6.606 1.55-9.521.574-2.915-.977-7.303-4.652-8.807-6.032-1.194 1.085-2.388 2.186-3.489 3.302-.729.776-1.551 1.474-2.187 2.28l-2.093 2.372c-1.287 1.551-2.605 3.101-3.814 4.652-.853 1.07-1.644 2.109-2.435 3.101 1.225-1.008 3.66-2.946 3.892-3.101 3.458-2.171 11.444-4.311 14.948-1.349a5.42 5.42 0 011.802 4.032 5.42 5.42 0 01-1.802 4.031c-2.326 2.249-6.296 2.481-9.304 2.016-3.318-.527-9.303-4.435-10.094-4.931a229.872 229.872 0 00-3.737 5.039c-4.047 5.598-7.21 10.405-9.304 13.801-.077.124-.155.232-.217.356l-2.806-1.364.434-.667a281.23 281.23 0 019.769-13.738 274.268 274.268 0 014.295-5.52 58.12 58.12 0 01-4.357-5.381c-3.21 1.256-9.909 1.318-10.777 1.318-.14 2.156-.264 4.264-.341 6.203a283.35 283.35 0 00-.202 16.684v.465l-3.101-1.55c0-4.001.155-9.413.558-15.801.14-2.202.326-4.559.543-6.962-.853-.217-7.831-2-10.467-4.109-2.388-1.908-4.899-4.993-4.806-8.234a5.426 5.426 0 015.969-5.443c4.544.59 8.358 7.924 9.102 11.94 0 .248.233 2.869.326 4.528.093-.977.171-1.938.279-2.946.202-2.001.465-4.001.729-6.203l.512-3.101c.155-1.039.434-2.124.651-3.21.558-2.481 1.24-4.977 1.969-7.474-1.752-.186-7.97-.914-10.622-2.45-2.651-1.535-5.597-4.202-6-7.411a5.416 5.416 0 011.136-4.27 5.426 5.426 0 013.934-2.01c4.574-.109 9.459 6.559 10.854 10.435.078.233.729 3.101 1.07 4.652.45-1.551.9-2.993 1.411-4.497 1.473-4.326 3.101-8.668 4.652-13.009.496-1.334.961-2.652 1.442-3.985-.62 0-8.032-.76-11.009-2.481-2.652-1.551-5.598-4.202-6.001-7.412a5.41 5.41 0 015.071-6.28c4.574-.109 9.458 6.559 10.854 10.42.093.295 1.039 4.45 1.225 5.505 1.054-2.916 2.078-5.846 2.977-8.777a96.856 96.856 0 002.915-12.032c-.295 0-8.032-.745-11.087-2.497-2.651-1.551-5.597-4.202-6.001-7.412a5.436 5.436 0 011.136-4.27 5.423 5.423 0 013.935-2.01c4.574-.108 9.459 6.559 10.854 10.436.093.248.806 3.411 1.116 4.915h.264c.595-4.106.823-8.258.682-12.405 0-2.294-.217-4.481-.434-6.605-1.457 0-8.094 0-11.025-1.256-2.93-1.256-6.031-3.566-6.776-6.714a5.407 5.407 0 01.654-4.366 5.417 5.417 0 013.688-2.426c4.543-.605 10.125 5.489 11.893 9.18.093.201.853 2.341 1.365 3.923-.109-.962-.202-1.954-.326-2.869-.465-3.427-1.101-6.543-1.69-9.304-.341-1.55-.698-2.977-1.024-4.279-1.442-.729-7.179-3.737-9.148-6.203-1.969-2.465-3.722-5.938-2.931-9.086a5.41 5.41 0 016.466-3.83z" fill="#FF8562"/><path d="M577.924 352.662c-3.597-.155-10.746-3.83-10.746-3.83s3.846-3.97 4.125-4.202c3.194-2.543 10.854-5.598 14.7-3.101a5.42 5.42 0 012.259 3.797 5.423 5.423 0 01-1.313 4.219c-2.047 2.543-5.97 3.241-9.025 3.117z" fill="#FF8562"/><g opacity=".5" fill="#fff"><path opacity=".5" d="M503.945 318.735c-.093 0 1.008-5.458 1.117-5.784 1.271-3.892 6-10.684 10.575-10.668a5.417 5.417 0 014 1.929 5.404 5.404 0 011.21 4.273c-.326 3.226-3.226 5.97-5.831 7.552-3.054 1.814-11.071 2.698-11.071 2.698z"/><path opacity=".5" d="M495.091 282.032c4.311 1.551 6.451 9.521 6.311 13.614 0 .357-.822 5.861-.899 5.815a206 206 0 011.07 4.094c.635 2.744 1.349 5.861 1.891 9.303a98.003 98.003 0 011.21 11.18 70.386 70.386 0 01-.419 12.56.67.67 0 010 .155c.574-1.225 2.264-4.574 2.419-4.822 2.249-3.412 8.591-8.715 13.01-7.49a5.432 5.432 0 013.831 5.104 5.435 5.435 0 01-.435 2.215c-1.163 3.008-4.652 4.9-7.614 5.737-3.318.946-10.699-.17-11.288-.263a97.434 97.434 0 01-2.729 12.513 160.307 160.307 0 01-2.218 7.179 50.684 50.684 0 011.07-2.078c2.249-3.426 8.591-8.714 13.01-7.505a5.425 5.425 0 013.337 2.899 5.432 5.432 0 01.074 4.42c-1.178 3.024-4.652 4.9-7.629 5.738-2.977.837-9.303 0-10.963-.218-.325.915-.62 1.83-.93 2.745-1.551 4.373-3.101 8.745-4.419 13.056-.481 1.551-.9 3.101-1.334 4.559.466-.915.869-1.69.946-1.799 2.249-3.411 8.591-8.714 13.01-7.489a5.408 5.408 0 013.837 5.103c.01.761-.14 1.516-.441 2.216-1.163 3.008-4.652 4.9-7.614 5.737-2.962.837-8.683.093-10.684-.186-.387 1.55-.775 3.101-1.085 4.652-.186 1.054-.434 2.046-.558 3.101-.124 1.054-.295 2.109-.434 3.101a219.94 219.94 0 00-.59 6.032c-.124 1.364-.201 2.667-.294 3.969.465-1.55 1.426-4.481 1.55-4.651a21.034 21.034 0 017.025-7.986 5.82 5.82 0 01.589-1.054 5.432 5.432 0 013.709-2.395 5.422 5.422 0 014.261 1.154c3.473 2.993 2.605 11.211 1.008 14.979-.093.232-1.38 2.527-2.218 3.954.621-.76 1.21-1.551 1.861-2.295a226.793 226.793 0 014.001-4.729l2.14-2.326c.697-.791 1.55-1.551 2.31-2.311a116.174 116.174 0 015.784-5.163c-1.365-1.117-6.203-5.148-7.521-7.893-1.318-2.744-2.357-6.59-.93-9.489a5.42 5.42 0 013.324-2.972 5.423 5.423 0 014.429.522c3.876 2.434 4.264 10.699 3.256 14.668 0 .233-1.101 3.009-1.705 4.513 1.209-.993 2.403-2.001 3.659-2.978 3.628-2.791 7.381-5.52 11.118-8.249a274.104 274.104 0 003.396-2.527c-.481-.388-6.203-5.071-7.753-8.141-1.365-2.729-2.342-6.59-.915-9.49a5.404 5.404 0 013.326-2.97 5.422 5.422 0 014.427.536c3.876 2.434 4.279 10.684 3.271 14.653-.077.295-1.55 4.264-2.015 5.257 2.496-1.846 4.962-3.722 7.319-5.675a92.897 92.897 0 009.071-8.436c-.233-.186-6.296-5.039-7.862-8.187-1.38-2.729-2.357-6.59-.93-9.49a5.411 5.411 0 017.753-2.45c3.892 2.435 4.279 10.7 3.271 14.669 0 .248-1.209 3.287-1.783 4.652l.217.139a70.861 70.861 0 007.443-9.985c1.225-1.939 2.28-3.861 3.272-5.753-1.225-.791-6.761-4.45-8.497-7.133-1.737-2.682-3.102-6.295-1.954-9.303a5.423 5.423 0 015.172-3.747 5.412 5.412 0 012.209.475c4.124 2 5.411 10.156 4.853 14.219 0 .217-.589 2.419-1.023 4.016.434-.853.899-1.737 1.287-2.559 1.55-3.101 2.698-6.078 3.737-8.699.573-1.55 1.054-2.853 1.55-4.14-.791-1.395-3.923-7.07-4.233-10.187-.31-3.117.186-7.009 2.574-9.195a5.424 5.424 0 016.308-.939c.674.351 1.267.84 1.74 1.435 2.744 3.675.124 11.521-2.233 14.855-.202.294-3.923 4.435-3.97 4.357-.403 1.24-.852 2.558-1.364 4.001-.977 2.651-2.109 5.628-3.551 8.791a96.072 96.072 0 01-5.148 9.986 70.233 70.233 0 01-7.288 10.25.37.37 0 01-.108.108 198.682 198.682 0 014.651-2.682c3.753-1.551 11.971-2.512 14.979.93a5.429 5.429 0 01-1.194 7.986c-2.651 1.86-6.621 1.55-9.52.573-3.288-1.038-8.839-6.047-9.304-6.45a96.566 96.566 0 01-9.18 8.947c-1.891 1.551-3.845 3.194-5.814 4.76 1.008-.573 1.907-1.085 2.046-1.147 3.753-1.551 11.971-2.528 14.979.93a5.412 5.412 0 01-1.194 7.97c-2.636 1.876-6.605 1.551-9.52.589-2.916-.961-7.753-5.116-9.04-6.202l-2.28 1.768c-3.675 2.822-7.365 5.613-10.854 8.466a98.6 98.6 0 00-3.628 3.101l1.783-.992c3.752-1.551 11.97-2.528 14.979.93a5.457 5.457 0 011.175 4.258 5.432 5.432 0 01-2.369 3.728c-2.636 1.861-6.606 1.55-9.521.574-2.915-.977-7.303-4.652-8.807-6.032-1.194 1.085-2.388 2.186-3.489 3.302-.729.776-1.551 1.474-2.187 2.28l-2.093 2.372c-1.287 1.551-2.605 3.101-3.814 4.652-.853 1.07-1.644 2.109-2.435 3.101 1.225-1.008 3.66-2.946 3.892-3.101 3.458-2.171 11.444-4.311 14.948-1.349a5.42 5.42 0 011.802 4.032 5.42 5.42 0 01-1.802 4.031c-2.326 2.249-6.296 2.481-9.304 2.016-3.318-.527-9.303-4.435-10.094-4.931a229.872 229.872 0 00-3.737 5.039c-4.047 5.598-7.21 10.405-9.304 13.801-.077.124-.155.232-.217.356l-2.806-1.364.434-.667a281.23 281.23 0 019.769-13.738 274.268 274.268 0 014.295-5.52 58.12 58.12 0 01-4.357-5.381c-3.21 1.256-9.909 1.318-10.777 1.318-.14 2.156-.264 4.264-.341 6.203a283.35 283.35 0 00-.202 16.684v.465l-3.101-1.55c0-4.001.155-9.413.558-15.801.14-2.202.326-4.559.543-6.962-.853-.217-7.831-2-10.467-4.109-2.388-1.908-4.899-4.993-4.806-8.234a5.426 5.426 0 015.969-5.443c4.544.59 8.358 7.924 9.102 11.94 0 .248.233 2.869.326 4.528.093-.977.171-1.938.279-2.946.202-2.001.465-4.001.729-6.203l.512-3.101c.155-1.039.434-2.124.651-3.21.558-2.481 1.24-4.977 1.969-7.474-1.752-.186-7.97-.914-10.622-2.45-2.651-1.535-5.597-4.202-6-7.411a5.416 5.416 0 011.136-4.27 5.426 5.426 0 013.934-2.01c4.574-.109 9.459 6.559 10.854 10.435.078.233.729 3.101 1.07 4.652.45-1.551.9-2.993 1.411-4.497 1.473-4.326 3.101-8.668 4.652-13.009.496-1.334.961-2.652 1.442-3.985-.62 0-8.032-.76-11.009-2.481-2.652-1.551-5.598-4.202-6.001-7.412a5.41 5.41 0 015.071-6.28c4.574-.109 9.458 6.559 10.854 10.42.093.295 1.039 4.45 1.225 5.505 1.054-2.916 2.078-5.846 2.977-8.777a96.856 96.856 0 002.915-12.032c-.295 0-8.032-.745-11.087-2.497-2.651-1.551-5.597-4.202-6.001-7.412a5.436 5.436 0 011.136-4.27 5.423 5.423 0 013.935-2.01c4.574-.108 9.459 6.559 10.854 10.436.093.248.806 3.411 1.116 4.915h.264c.595-4.106.823-8.258.682-12.405 0-2.294-.217-4.481-.434-6.605-1.457 0-8.094 0-11.025-1.256-2.93-1.256-6.031-3.566-6.776-6.714a5.407 5.407 0 01.654-4.366 5.417 5.417 0 013.688-2.426c4.543-.605 10.125 5.489 11.893 9.18.093.201.853 2.341 1.365 3.923-.109-.962-.202-1.954-.326-2.869-.465-3.427-1.101-6.543-1.69-9.304-.341-1.55-.698-2.977-1.024-4.279-1.442-.729-7.179-3.737-9.148-6.203-1.969-2.465-3.722-5.938-2.931-9.086a5.41 5.41 0 016.466-3.83z"/><path opacity=".5" d="M577.924 352.661c-3.597-.155-10.745-3.829-10.745-3.829s3.845-3.97 4.124-4.203c3.195-2.543 10.855-5.597 14.7-3.101a5.443 5.443 0 012.26 3.798 5.435 5.435 0 01-1.314 4.219c-2.047 2.543-5.97 3.241-9.025 3.116z"/></g><path d="M536.105 442.318s-21.709-52.38-33.881-50.1c-12.172 2.279 20.856 83.5 20.856 83.5s-38.238-72.119-64.304-72.119c-26.065 0 9.505 79.701 42.58 106.278 0 0-52.132-56.178-82.554-44.021-30.423 12.156 60.83 69.064 60.83 69.064s-53-16.7-46.921-3.784c6.078 12.917 22.592 15.18 22.592 15.18l-59.962 3.102h208.54l-46.921-4.559s48.658-24.298 35.664-34.113c-12.994-9.816-41.711 11.381-41.711 11.381s49.526-54.643 39.974-75.142c-9.551-20.499-52.146 37.214-52.146 37.214s34.764-73.622 27.817-86.523c-6.946-12.901-30.453 44.642-30.453 44.642z" fill="#FF8562"/><path opacity=".4" d="M536.105 442.318s-21.709-52.38-33.881-50.1c-12.172 2.279 20.856 83.5 20.856 83.5s-38.238-72.119-64.304-72.119c-26.065 0 9.505 79.701 42.58 106.278 0 0-52.132-56.178-82.554-44.021-30.423 12.156 60.83 69.064 60.83 69.064s-53-16.7-46.921-3.784c6.078 12.917 22.592 15.18 22.592 15.18l-59.962 3.102h208.54l-46.921-4.559s48.658-24.298 35.664-34.113c-12.994-9.816-41.711 11.381-41.711 11.381s49.526-54.643 39.974-75.142c-9.551-20.499-52.146 37.214-52.146 37.214s34.764-73.622 27.817-86.523c-6.946-12.901-30.453 44.642-30.453 44.642z" fill="#fff"/><path d="M543.067 445.078c-19.119 56.472-19.119 96.447-19.119 96.447s22.592.868 46.053-16.514m-36.502-49.464a338.41 338.41 0 00-15.599-49.619" stroke="#263238" stroke-linecap="round" stroke-linejoin="round"/><path d="M477.027 442.473l48.627 72.118s33.012-27.802 44.316-43.417m-45.154 60.799s-51.263-24.329-72.041-38.237" stroke="#263238" stroke-linecap="round" stroke-linejoin="round"/><path d="M505.682 281.459l-11.304 31.012-7.629 1.132 5.365 20.917s8.203-10.187 10.746-13.862c2.543-3.675 27.445-43.448 27.445-43.448l-24.623 4.249zm-88.741 272.735s-18.933 16.963-20.639 22.902c-1.705 5.939 13.847 2.248 21.492-2.838a99.78 99.78 0 0011.304-8.481l.837 2.263s4.528-.558 5.381-3.38c.852-2.822-1.706-9.614-1.706-9.614l-16.669-.852zm51.433-4.808s19.274 20.639 20.964 26.578c1.691 5.939-13.846 2.248-21.475-2.838a101.072 101.072 0 01-11.304-8.466l-.853 2.248s-4.528-.558-5.365-3.38c-.837-2.822 1.69-9.614 1.69-9.614l16.343-4.528z" fill="#fff" stroke="#263238" stroke-linecap="round" stroke-linejoin="round"/><path d="M406.474 297.569s-5.365 35.664-6.202 53.697c-.837 18.034 4.528 90.447 4.528 111.07 0 20.623 15.506 85.283 15.506 85.283l-4.249 3.396-.279 4.512 12.405 3.954c6.202 1.985 7.35 1.706 7.35 1.706s-1.411-13.289-1.411-42.968c0-29.678 4.806-83.933 5.086-107.968.279-24.034 9.04-46.905 9.04-46.905l3.674-3.102s14.809 76.941 14.809 82.88c0 5.939-13.847 99.238-14.7 101.456-.853 2.217-1.985 3.396-1.985 6.512v8.761l20.918-8.203a27.006 27.006 0 00-.838-7.07 14.46 14.46 0 01-.852-5.365c0-.853 30.236-80.259 30.236-89.315a137.461 137.461 0 00-1.767-19.212l-3.396-80.833s3.954-8.481 2.264-15.831c-1.69-7.35-11.025-29.105-12.715-30.516-1.69-1.411-60.179 9.319-77.422-5.939z" fill="#FF8562"/><path opacity=".2" d="M475.662 440.503c0-8.528 5.381-96.726 5.381-96.726l-29.058 16.529c2.031 10.668 14.699 77.36 14.699 82.818 0 5.939-13.847 99.238-14.699 101.456-.853 2.217-1.985 3.395-1.985 6.512v8.761l20.917-8.203a27.005 27.005 0 00-.837-7.07 14.46 14.46 0 01-.853-5.365c0-.683 19.569-52.194 27.213-77.034-23.817 5.194-20.778-13.335-20.778-21.678zm-36.33 28.33l-2.388-12.033c.108-1.814.232-3.613.341-5.396l-1.039 1.892-25.849-130.25 41.588-6.854c-16.297.388-45.511-18.607-45.511-18.607l-6.419 45.122 2.062 87.873 2.714 33.896c.093 1.954.263 4.202.542 6.652l.884 11.133a9.606 9.606 0 001.148 3.225c4.419 26.795 12.932 62.211 12.932 62.211l-4.249 3.395-.279 4.513 12.405 3.954c6.202 1.984 7.35 1.705 7.35 1.705s-1.411-13.288-1.411-42.967c0-11.133.666-25.755 1.55-40.92a63.053 63.053 0 003.629-8.544z" fill="#000"/><path d="M406.474 297.569s-5.365 35.664-6.202 53.697c-.837 18.034 4.528 90.447 4.528 111.07 0 20.623 15.506 85.283 15.506 85.283l-4.249 3.396-.279 4.512 12.405 3.954c6.202 1.985 7.35 1.706 7.35 1.706s-1.411-13.289-1.411-42.968c0-29.678 4.806-83.933 5.086-107.968.279-24.034 9.04-46.905 9.04-46.905l3.674-3.102s14.809 76.941 14.809 82.88c0 5.939-13.847 99.238-14.7 101.456-.853 2.217-1.985 3.396-1.985 6.512v8.761l20.918-8.203a27.006 27.006 0 00-.838-7.07 14.46 14.46 0 01-.852-5.365c0-.853 30.236-80.259 30.236-89.315a137.461 137.461 0 00-1.767-19.212l-3.396-80.833s3.954-8.481 2.264-15.831c-1.69-7.35-11.025-29.105-12.715-30.516-1.69-1.411-60.179 9.319-77.422-5.939zm45.51 62.738l27.694-16.669m-19.491 14.699l14.405-5.659m-26.561-37.308l.279 29.679" stroke="#263238" stroke-linecap="round" stroke-linejoin="round"/><path d="M451.984 316.223l1.412 24.593-3.102 3.38m20.918-30.237l2.248 21.476m1.132-23.74l5.381 11.304m-55.124-9.04l-9.893 33.633m10.746-31.648v24.872" stroke="#263238" stroke-linecap="round" stroke-linejoin="round"/><path d="M322.261 137.594s-11.877-14.7-11.877-17.522c0-2.822 89.314-39.85 90.725-39.85 1.411 0 25.446 16.669 25.725 18.095.279 1.427 1.69 9.04 1.69 10.172 0 1.132-4.233 3.38-4.233 3.38s-5.381 5.102-6.792 5.102h-1.411a22.952 22.952 0 01-5.644 1.69 4.824 4.824 0 01-3.101-1.69s-7.908 1.969-7.35.558c.558-1.411 9.614-7.071 9.614-7.071s-10.451-6.497-12.405-10.73a58.132 58.132 0 01-3.101-8.482l-55.171 40.068-16.669 6.28z" fill="#fff"/><path opacity=".2" d="M392.782 83.431c-22.421 9.04-82.398 34.33-82.398 36.641 0 2.822 11.877 17.522 11.877 17.522l16.669-6.203 55.031-40.067-1.179-7.893z" fill="#000"/><path d="M322.261 137.594s-11.877-14.7-11.877-17.522c0-2.822 89.314-39.85 90.725-39.85 1.411 0 25.446 16.669 25.725 18.095.279 1.427 1.69 9.04 1.69 10.172 0 1.132-4.233 3.38-4.233 3.38s-5.381 5.102-6.792 5.102h-1.411a22.952 22.952 0 01-5.644 1.69 4.824 4.824 0 01-3.101-1.69s-7.908 1.969-7.35.558c.558-1.411 9.614-7.071 9.614-7.071s-10.451-6.497-12.405-10.73a58.132 58.132 0 01-3.101-8.482l-55.171 40.068-16.669 6.28z" stroke="#263238" stroke-linecap="round" stroke-linejoin="round"/><path d="M407.327 116.971s5.97-1.256 6.544-2.528c.573-1.271 1.736-4.993.821-7.318m1.396 9.846s3.101-1.721 3.473-4.388a46.946 46.946 0 00-.806-9.164m5.536 8.45a9.054 9.054 0 00.372-5.675c-.806-3.101-1.396-6.373-1.396-6.373" stroke="#263238" stroke-linecap="round" stroke-linejoin="round"/><path d="M431.92 167.831s-8.761-4.234-19.46-10.157c-10.7-5.923-16.111-4.807-20.344-4.807-4.233 0-41.556-19.212-41.556-19.212l-16.716 16.948s66.412 48.612 67.544 52.287c1.132 3.675 3.675 80.832 2.543 86.833-1.132 6.001-3.101 8.482-1.969 10.746 1.132 2.264 15.506 14.979 40.703 14.7 25.198-.28 42.952-7.35 44.642-10.746 1.69-3.396 1.706-4.807.574-7.35-1.132-2.543-2.264-5.644-2.264-5.644l9.024-61.125 9.056 46.348s4.512 2.543 14.126.852c9.614-1.69 13.847-4.248 13.847-4.248s-15.258-70.087-18.375-78.848c-3.117-8.761-5.086-7.924-14.979-11.583-9.892-3.66-35.896-11.878-35.896-11.878l-30.5-3.116z" fill="#fff"/><path opacity=".2" d="M470.142 310.548c-10.265 0-28.872-1.287-35.927-6.42-7.056-5.132-16.685-42.347-16.685-42.347l18.607 25.663-31.787-133.352a32.462 32.462 0 00-12.281-1.256c-4.248 0-41.556-19.212-41.556-19.212l-16.669 16.979s66.412 48.612 67.544 52.287c1.132 3.674 3.675 80.832 2.543 86.833-1.132 6.001-3.101 8.482-1.969 10.746 1.132 2.264 15.506 14.979 40.703 14.7a119.671 119.671 0 0032.439-4.652c-1.582.015-3.241.031-4.962.031zm24.887-77.546l4.962-15.413 1.101 7.707 10.451-6.606-7.831 57.962-8.683-43.65z" fill="#000"/><path d="M431.92 167.831s-8.761-4.234-19.46-10.157c-10.7-5.923-16.111-4.807-20.344-4.807-4.233 0-41.556-19.212-41.556-19.212l-16.716 16.948s66.412 48.612 67.544 52.287c1.132 3.675 3.675 80.832 2.543 86.833-1.132 6.001-3.101 8.482-1.969 10.746 1.132 2.264 15.506 14.979 40.703 14.7 25.198-.28 42.952-7.35 44.642-10.746 1.69-3.396 1.706-4.807.574-7.35-1.132-2.543-2.264-5.644-2.264-5.644l9.024-61.125 9.056 46.348s4.512 2.543 14.126.852c9.614-1.69 13.847-4.248 13.847-4.248s-15.258-70.087-18.375-78.848c-3.117-8.761-5.086-7.924-14.979-11.583-9.892-3.66-35.896-11.878-35.896-11.878l-30.5-3.116z" stroke="#263238" stroke-linecap="round" stroke-linejoin="round"/><path d="M503.666 212.55l-9.009 17.754 17.336-17.336M401.388 202.89l-8.761-34.486m8.761 33.354l-18.08-45.51m19.166 44.719s15.32 67.436 26.36 81.577m-21.414-49.046s8.249 53.062 15.801 63.668" stroke="#263238" stroke-linecap="round" stroke-linejoin="round"/><path d="M429.098 184.515l10.73 26.562-5.924 80.553 11.583 27.989 12.157-31.694-12.73-77.717 19.506-24.809-1.985-1.427s-5.923 4.528-11.582 9.893c-5.66 5.365-10.731 5.939-13.568 1.985-2.838-3.954-5.365-14.979-5.365-14.979l-2.822 3.644z" fill="#263238" stroke="#263238" stroke-linecap="round" stroke-linejoin="round"/><path d="M442.665 154.837s-9.613 1.132-12.404 6.202c-2.792 5.071-7.645 6.497-8.482 16.111-.838 9.614-1.985 14.699-.853 14.699 1.132 0 13.289-8.481 13.289-8.481s4.233 12.156 5.938 12.994c1.706.837 4.513-.838 7.056-2.822 2.543-1.985 8.481-9.04 11.303-7.629 2.823 1.411 8.761 16.11 11.025 12.404 2.264-3.705 9.304-21.475 3.675-34.485-5.629-13.009-30.547-8.993-30.547-8.993z" fill="#fff" stroke="#263238" stroke-linecap="round" stroke-linejoin="round"/><path d="M437.006 152.852s1.69 27.709 1.984 35.896c.295 8.187 2.543 10.172 4.513 8.482 1.969-1.69 19.227-17.522 20.917-26.841 1.69-9.319 2.543-14.7 2.543-14.7l-29.957-2.837zm-3.675-25.988s-2.822-9.056-6.203-7.645c-3.38 1.411-4.527 11.599-2.264 16.111 2.264 4.512 8.482 4.807 9.304 2.838.822-1.97-.837-11.304-.837-11.304z" fill="#fff" stroke="#263238" stroke-linecap="round" stroke-linejoin="round"/><path d="M481.384 122.336l14.405-11.877 5.381-1.132-2.838 5.101-15.816 11.862s-1.985-.279-1.132-3.954z" fill="#FF8562" stroke="#263238" stroke-linecap="round" stroke-linejoin="round"/><path d="M495.789 110.459l-.589.496 2.868 3.659.264-.186 2.837-5.101-5.38 1.132zm-14.405 14.42s5.644-5.66 7.629-1.132c1.985 4.528.279 10.172-3.954 14.126-4.233 3.954-6.792 3.101-6.792.294 0-2.806 3.117-13.288 3.117-13.288z" fill="#fff" stroke="#263238" stroke-linecap="round" stroke-linejoin="round"/><path d="M442.371 87.013s-10.73 1.97-11.583 7.63c-.853 5.659 1.985 48.611 3.396 55.387 1.411 6.776 13.567 20.359 23.166 19.785 9.598-.573 16.684-11.862 19.227-18.374 2.543-6.513 10.172-44.657 10.172-53.418 0-8.761-15.832-18.933-27.911-18.933s-16.467 7.923-16.467 7.923z" fill="#fff" stroke="#263238" stroke-linecap="round" stroke-linejoin="round"/><path d="M457.613 127.841s4.528 10.745 2.822 13.009c-1.705 2.264-11.025 3.38-11.025-1.706m-3.101 6.513s5.939 7.056 17.801.28m-9.598-19.507a9.89 9.89 0 00-6.107-9.14 9.89 9.89 0 00-10.781 2.144 9.896 9.896 0 00-2.145 10.782 9.896 9.896 0 0016.135 3.209 9.89 9.89 0 002.898-6.995z" stroke="#263238" stroke-linecap="round" stroke-linejoin="round"/><path d="M479.942 128.213a9.895 9.895 0 00-16.883-7.016 9.896 9.896 0 00-2.151 10.783 9.892 9.892 0 0019.034-3.767v0z" fill="#fff" stroke="#263238" stroke-linecap="round" stroke-linejoin="round"/><path d="M454.512 126.43s3.38-1.132 5.644.573" stroke="#263238" stroke-linecap="round" stroke-linejoin="round"/><path d="M458.776 79.09c-12.157 0-16.405 7.923-16.405 7.923s-10.73 1.97-11.583 7.63c-.434 2.899.093 15.66.915 28.298.31.217 1.907 1.178 1.907-.605s-1.132-4.807.294-6.497c1.427-1.69 5.645-2.543 8.467-7.071 2.822-4.527 1.984-7.35 2.837-8.202.853-.853 9.893-6.776 7.908-2.543-1.984 4.233-14.699 11.598-7.349 15.506 7.349 3.907 22.886 3.675 28.267-.279 5.38-3.954 9.304-12.731 8.482-8.761-.822 3.969-3.396 10.451-2.543 12.404a43.495 43.495 0 011.411 7.909s-2.543 9.04-1.706 9.613c.362.124.755.124 1.117 0 2.899-13.614 5.954-31.012 5.954-36.485 0-8.668-15.832-18.84-27.973-18.84z" fill="#263238" stroke="#263238" stroke-linecap="round" stroke-linejoin="round"/><path d="M498.906 272.124l.558 9.614s1.984 2.822 15.273 2.264c13.289-.559 20.623-5.086 20.623-5.086l-2.822-12.715s-18.375 6.776-33.632 5.923zM348.544 125.732l-33.354 12.715s14.421 16.948 15.258 16.669c.838-.28 24.81-18.933 24.593-20.918-.217-1.985-6.497-8.466-6.497-8.466z" fill="#fff" stroke="#263238" stroke-linecap="round" stroke-linejoin="round"/><path d="M343.194 64.638H73.576a30.004 30.004 0 00-22.173 9.769 30.02 30.02 0 00-9.49 23.259l5.675 124.048v332.65a27.324 27.324 0 0027.322 27.322h263.803a30.222 30.222 0 0028.888-28.888V220.225l5.691-124.048a30.13 30.13 0 00-30.098-31.54z" fill="#fff"/><path opacity=".2" d="M358.065 68.561a30.073 30.073 0 015.923 19.336l-5.691 124.048v332.588a30.221 30.221 0 01-28.887 28.888H65.606a27.319 27.319 0 01-12.979-3.287A27.246 27.246 0 0074.91 581.67h263.804a30.22 30.22 0 0028.888-28.887V220.225l5.69-124.047a30.156 30.156 0 00-15.226-27.616z" fill="#000"/><path d="M343.194 64.638H73.576a30.004 30.004 0 00-22.173 9.769 30.02 30.02 0 00-9.49 23.259l5.675 124.048v332.65a27.324 27.324 0 0027.322 27.322h263.803a30.222 30.222 0 0028.888-28.888V220.225l5.691-124.048a30.13 30.13 0 00-30.098-31.54z" stroke="#263238" stroke-miterlimit="10"/><path d="M352.963 216.442l5.226-115.768a18.477 18.477 0 00-5.099-13.598 18.46 18.46 0 00-13.353-5.707H77.049a18.466 18.466 0 00-18.452 19.305l5.21 115.768h289.156z" fill="#263238" stroke="#263238" stroke-miterlimit="10"/><path d="M341.442 111.42H74.103v90.416h267.339V111.42z" fill="#7D7D7D"/><path d="M328.247 124.615H87.299v64.025h240.948v-64.025z" fill="#BFBFBF"/><path d="M201.78 253.16H82.306a7.706 7.706 0 00-7.706 7.706v24.174a7.707 7.707 0 007.706 7.707H201.78a7.707 7.707 0 007.706-7.707v-24.174a7.706 7.706 0 00-7.706-7.706z" fill="#7D7D7D" stroke="#263238" stroke-miterlimit="10"/><path d="M102.944 253.656v39.091m27.214-39.091v39.091m27.197-39.091v39.091m27.198-39.091v39.091" stroke="#263238" stroke-miterlimit="10"/><path d="M284.613 274.915h-33.664a7.163 7.163 0 00-7.163 7.164v16.746a7.164 7.164 0 007.163 7.164h33.664a7.165 7.165 0 007.164-7.164v-16.746a7.164 7.164 0 00-7.164-7.164zm-168.38 42.89H82.57a7.163 7.163 0 00-7.164 7.163v22.252a7.163 7.163 0 007.164 7.163h33.663a7.163 7.163 0 007.164-7.163v-22.252a7.163 7.163 0 00-7.164-7.163zm56.256 0h-33.664a7.163 7.163 0 00-7.163 7.163v22.252a7.163 7.163 0 007.163 7.163h33.664a7.164 7.164 0 007.164-7.163v-22.252a7.164 7.164 0 00-7.164-7.163zm22.592 0h33.648c1.904 0 3.73.756 5.077 2.102a7.182 7.182 0 012.102 5.077v22.236a7.18 7.18 0 01-7.163 7.179h-33.648c-1.9 0-3.722-.755-5.066-2.098a7.167 7.167 0 01-2.098-5.066v-22.266a7.161 7.161 0 017.148-7.164zm89.919 0h-33.663a7.164 7.164 0 00-7.164 7.163v22.252a7.164 7.164 0 007.164 7.163H285a7.163 7.163 0 007.164-7.163v-22.252a7.163 7.163 0 00-7.164-7.163zm56.256 0h-33.663a7.163 7.163 0 00-7.164 7.163v22.252a7.163 7.163 0 007.164 7.163h33.663a7.163 7.163 0 007.164-7.163v-22.252a7.163 7.163 0 00-7.164-7.163zm-225.023 49.169H82.57a7.164 7.164 0 00-7.164 7.164v22.251a7.164 7.164 0 007.164 7.164h33.663a7.163 7.163 0 007.164-7.164v-22.251a7.164 7.164 0 00-7.164-7.164z" fill="#D9D9D9" stroke="#263238" stroke-miterlimit="10"/><path d="M172.489 366.974h-33.664a7.164 7.164 0 00-7.163 7.164v22.251a7.163 7.163 0 007.163 7.164h33.664a7.164 7.164 0 007.164-7.164v-22.251a7.165 7.165 0 00-7.164-7.164zm22.592.031h33.648a7.178 7.178 0 017.179 7.179v22.236a7.18 7.18 0 01-7.163 7.179h-33.648a7.163 7.163 0 01-7.164-7.163v-22.298a7.162 7.162 0 017.148-7.133v0zm89.919-.031h-33.663a7.165 7.165 0 00-7.164 7.164v22.251a7.164 7.164 0 007.164 7.164H285a7.163 7.163 0 007.164-7.164v-22.251a7.164 7.164 0 00-7.164-7.164z" fill="#999" stroke="#263238" stroke-miterlimit="10"/><path d="M341.256 366.974h-33.663a7.164 7.164 0 00-7.164 7.164v22.251a7.163 7.163 0 007.164 7.164h33.663a7.163 7.163 0 007.164-7.164v-22.251a7.164 7.164 0 00-7.164-7.164zm-225.023 49.17H82.57a7.163 7.163 0 00-7.164 7.163v22.251a7.164 7.164 0 007.164 7.164h33.663a7.163 7.163 0 007.164-7.164v-22.251a7.163 7.163 0 00-7.164-7.163z" fill="#D9D9D9" stroke="#263238" stroke-miterlimit="10"/><path d="M172.489 416.144h-33.664a7.163 7.163 0 00-7.163 7.163v22.251a7.163 7.163 0 007.163 7.164h33.664a7.164 7.164 0 007.164-7.164v-22.251a7.164 7.164 0 00-7.164-7.163zm22.592 0h33.648c1.904 0 3.73.756 5.077 2.102a7.182 7.182 0 012.102 5.077v22.235a7.176 7.176 0 01-7.163 7.18h-33.648a7.164 7.164 0 01-7.164-7.164v-22.251a7.168 7.168 0 012.087-5.07 7.157 7.157 0 015.061-2.109v0zm89.919 0h-33.663a7.164 7.164 0 00-7.164 7.163v22.251a7.164 7.164 0 007.164 7.164H285a7.163 7.163 0 007.164-7.164v-22.251a7.163 7.163 0 00-7.164-7.163z" fill="#999" stroke="#263238" stroke-miterlimit="10"/><path d="M341.256 416.144h-33.663a7.163 7.163 0 00-7.164 7.163v22.251a7.163 7.163 0 007.164 7.164h33.663a7.163 7.163 0 007.164-7.164v-22.251a7.163 7.163 0 00-7.164-7.163z" fill="#D9D9D9" stroke="#263238" stroke-miterlimit="10"/><path d="M116.233 465.313H82.57a7.164 7.164 0 00-7.164 7.164v22.251a7.164 7.164 0 007.164 7.164h33.663a7.163 7.163 0 007.164-7.164v-22.251a7.164 7.164 0 00-7.164-7.164z" fill="#FF8562" stroke="#263238" stroke-miterlimit="10"/><path d="M172.489 465.313h-33.664a7.164 7.164 0 00-7.163 7.164v22.251a7.163 7.163 0 007.163 7.164h33.664a7.164 7.164 0 007.164-7.164v-22.251a7.165 7.165 0 00-7.164-7.164zm22.592 0h33.648a7.179 7.179 0 017.179 7.18v22.235a7.18 7.18 0 01-7.163 7.179h-33.648a7.163 7.163 0 01-7.164-7.163v-22.298a7.162 7.162 0 017.148-7.133v0zm89.919 0h-33.663a7.165 7.165 0 00-7.164 7.164v22.251a7.164 7.164 0 007.164 7.164H285a7.163 7.163 0 007.164-7.164v-22.251a7.164 7.164 0 00-7.164-7.164z" fill="#999" stroke="#263238" stroke-miterlimit="10"/><path d="M116.233 514.498H82.57a7.164 7.164 0 00-7.164 7.164v22.251a7.164 7.164 0 007.164 7.164h33.663a7.164 7.164 0 007.164-7.164v-22.251a7.163 7.163 0 00-7.164-7.164z" fill="#FF8562" stroke="#263238" stroke-miterlimit="10"/><path d="M172.489 514.498h-33.664a7.163 7.163 0 00-7.163 7.164v22.251a7.164 7.164 0 007.163 7.164h33.664a7.165 7.165 0 007.164-7.164v-22.251a7.164 7.164 0 00-7.164-7.164zm22.592 0h33.648a7.18 7.18 0 017.179 7.179v22.236a7.18 7.18 0 01-7.163 7.179h-33.648a7.166 7.166 0 01-7.164-7.164v-22.266a7.16 7.16 0 017.148-7.164v0z" fill="#999" stroke="#263238" stroke-miterlimit="10"/><path d="M285 514.498h-33.663a7.164 7.164 0 00-7.164 7.164v22.251a7.165 7.165 0 007.164 7.164H285a7.164 7.164 0 007.164-7.164v-22.251a7.163 7.163 0 00-7.164-7.164zm56.132-49.185h-33.431a7.288 7.288 0 00-7.272 7.288v71.173a7.272 7.272 0 007.272 7.272h33.431a7.272 7.272 0 007.288-7.272v-71.173a7.287 7.287 0 00-7.288-7.288v0z" fill="#D9D9D9" stroke="#263238" stroke-miterlimit="10"/><path d="M341.256 274.915h-33.663a7.163 7.163 0 00-7.164 7.164v16.746a7.164 7.164 0 007.164 7.164h33.663a7.164 7.164 0 007.164-7.164v-16.746a7.163 7.163 0 00-7.164-7.164z" fill="#FF8562" stroke="#263238" stroke-miterlimit="10"/><path d="M309.686 298.143a10.854 10.854 0 010-13.072 8.732 8.732 0 0112.064 0 10.857 10.857 0 010 13.072 8.734 8.734 0 01-12.064 0zm10.172-1.427a9.53 9.53 0 000-10.234 4.954 4.954 0 00-4.14-1.86 5.006 5.006 0 00-4.156 1.86 9.63 9.63 0 000 10.234 4.976 4.976 0 004.156 1.877 4.943 4.943 0 004.14-1.877zm8.048 3.288a.991.991 0 01-.342-.791v-14.746a1.566 1.566 0 01.404-1.148 1.293 1.293 0 01.992-.418c.311.006.615.091.884.248.311.173.577.417.775.713l8.87 12.901v-12.777a.984.984 0 01.325-.791c.22-.2.509-.306.806-.294.287-.007.566.099.776.294a.951.951 0 01.341.791v14.793a1.558 1.558 0 01-.419 1.147c-.287.277-.67.433-1.07.434a1.754 1.754 0 01-.822-.217 1.804 1.804 0 01-.682-.589l-8.9-12.901v12.622a.948.948 0 01-.341.791c-.226.19-.512.294-.807.294a1.176 1.176 0 01-.79-.356zM90.338 346.072a1.922 1.922 0 01-.636-.791l-5.66-12.73v13.242a.731.731 0 01-.34.651 1.457 1.457 0 01-1.551 0 .728.728 0 01-.341-.651v-14.451a1.547 1.547 0 01.558-1.179 1.904 1.904 0 011.287-.465c.41-.004.811.121 1.147.357.391.267.693.645.869 1.085l5.535 12.265 5.52-12.265a2.28 2.28 0 01.853-1.085 2.05 2.05 0 012.45.108c.173.144.313.324.409.528.097.203.148.425.15.651v14.405a.724.724 0 01-.342.651c-.232.16-.509.241-.79.232a1.364 1.364 0 01-.791-.232.776.776 0 01-.341-.651v-13.243l-5.691 12.793a1.923 1.923 0 01-.636.791 1.416 1.416 0 01-.822.279 1.459 1.459 0 01-.837-.295zm17.646-.186a7.507 7.507 0 01-2.776-3.194 10.58 10.58 0 01-.93-4.512 10.941 10.941 0 01.574-3.52 8.81 8.81 0 011.55-2.853 7.453 7.453 0 012.605-1.939 8.485 8.485 0 013.474-.697 8.868 8.868 0 014.403 1.131.889.889 0 01.528.838.941.941 0 01-.264.682.864.864 0 01-.651.295 1.052 1.052 0 01-.388-.109l-.31-.155-.403-.186-.481-.186-.636-.186-.759-.109a9.328 9.328 0 00-.946 0 6.213 6.213 0 00-2.14.357 4.837 4.837 0 00-1.551 1.008c-.453.453-.83.977-1.116 1.55a7.975 7.975 0 00-.651 1.923 11.019 11.019 0 000 4.357c.133.662.352 1.303.651 1.908.28.577.658 1.101 1.116 1.55a4.815 4.815 0 001.644.993c.7.256 1.441.382 2.186.372a5.843 5.843 0 001.892-.295 10.958 10.958 0 001.768-.822.872.872 0 01.465-.124.85.85 0 01.636.279.901.901 0 01.279.652 1.12 1.12 0 01-.621.945 8.544 8.544 0 01-4.791 1.334 7.894 7.894 0 01-4.357-1.287zM95.58 537.571h-8.374l-1.442 3.706a1.132 1.132 0 01-1.132.806 1.299 1.299 0 01-.838-.31.961.961 0 01-.372-.76c.004-.154.036-.306.093-.449l5.784-14.359c.163-.528.47-1 .884-1.364a2.383 2.383 0 012.403 0c.421.362.732.835.9 1.364l5.752 14.467c.07.14.107.294.11.45a.972.972 0 01-.389.76c-.238.201-.54.311-.852.31a1.131 1.131 0 01-1.117-.807l-1.41-3.814zm-4.188-10.746l-3.504 8.994h6.993l-3.489-8.994zm13.878 14.297a7.448 7.448 0 01-2.775-3.179 10.577 10.577 0 01-.931-4.512 10.86 10.86 0 01.574-3.52 8.904 8.904 0 011.551-2.868 7.097 7.097 0 012.605-1.923 8.178 8.178 0 013.473-.713 8.875 8.875 0 014.404 1.131.913.913 0 01.527.838.993.993 0 01-.264.682.841.841 0 01-.651.295 1.145 1.145 0 01-.403-.093l-.295-.155-.403-.202-.48-.171-.636-.186a6.723 6.723 0 00-.76-.124 9.328 9.328 0 00-.946 0 5.876 5.876 0 00-2.14.372 4.466 4.466 0 00-1.55 1.008 5.873 5.873 0 00-1.101 1.551 7.759 7.759 0 00-.651 1.907 11.073 11.073 0 000 4.373c.13.657.349 1.294.651 1.892.275.58.653 1.105 1.116 1.55a4.835 4.835 0 001.644 1.008 6.453 6.453 0 002.186.357 5.864 5.864 0 001.892-.279c.61-.228 1.201-.502 1.768-.822a.901.901 0 01.465-.14.85.85 0 01.636.279.885.885 0 01.263.652 1.146 1.146 0 01-.605.961 8.544 8.544 0 01-4.791 1.318 7.756 7.756 0 01-4.373-1.287zm-9.629-49.619a7.415 7.415 0 01-2.76-3.179 10.577 10.577 0 01-.93-4.512 10.85 10.85 0 01.558-3.52 8.946 8.946 0 011.55-2.869 7.048 7.048 0 012.59-1.923 8.313 8.313 0 013.489-.713 8.814 8.814 0 014.388 1.132.946.946 0 01.264 1.551.81.81 0 01-.636.294.986.986 0 01-.403-.093l-.295-.155-.418-.201-.481-.171-.636-.186a5.9 5.9 0 00-.76-.124 9.328 9.328 0 00-.946 0 5.962 5.962 0 00-2.14.372 4.393 4.393 0 00-1.55 1.008 6.3 6.3 0 00-1.116 1.551 7.745 7.745 0 00-.652 1.907c-.139.72-.206 1.453-.201 2.186-.007.734.06 1.466.201 2.187.13.657.35 1.293.652 1.891a5.932 5.932 0 001.116 1.551c.477.44 1.035.782 1.644 1.008a6.454 6.454 0 002.186.356 5.757 5.757 0 001.892-.279 10.987 10.987 0 001.767-.822.996.996 0 01.466-.139.901.901 0 01.651.279.945.945 0 01.263.651 1.147 1.147 0 01-.604.962 8.61 8.61 0 01-4.792 1.318 7.76 7.76 0 01-4.357-1.318zm-6.156-105.565a5.721 5.721 0 010-6.791 3.694 3.694 0 013.101-1.365c.643-.01 1.28.128 1.861.403.523.253.976.631 1.318 1.101.323.476.569.999.729 1.551.17.557.254 1.138.248 1.721a5.134 5.134 0 01-1.132 3.396 4.082 4.082 0 01-4.677.991 4.082 4.082 0 01-1.37-.991l-.078-.016zm4.388-.527a2.73 2.73 0 00.76-1.225 5.884 5.884 0 00-.047-3.225 2.568 2.568 0 00-.76-1.225 1.967 1.967 0 00-1.364-.496 1.917 1.917 0 00-1.349.496 2.7 2.7 0 00-.76 1.225 5.886 5.886 0 00-.201 1.643c-.01.56.058 1.118.202 1.66.144.466.406.888.76 1.225.368.333.852.511 1.348.496a1.976 1.976 0 001.411-.574zm-1.194 10.187a.653.653 0 01-.217-.496.925.925 0 01.14-.418l9.505-16.824a.787.787 0 01.698-.466.71.71 0 01.269.05.697.697 0 01.227.152.75.75 0 01.202.512 1.18 1.18 0 01-.155.511l-9.475 16.716a.777.777 0 01-.666.465.778.778 0 01-.527-.202zm8.513-1.55a5.292 5.292 0 01-1.101-3.427 5.058 5.058 0 011.132-3.365 3.68 3.68 0 013.008-1.364 4.065 4.065 0 011.861.418c.521.243.97.617 1.303 1.086.323.475.569.998.728 1.55.168.558.252 1.139.249 1.722a5.65 5.65 0 01-.481 2.387 4.114 4.114 0 01-1.442 1.722 4.125 4.125 0 01-5.257-.683v-.046zm4.388-.543c.357-.328.619-.746.76-1.209.143-.547.211-1.11.202-1.675a5.409 5.409 0 00-.124-1.256 3.858 3.858 0 00-.372-1.054 1.956 1.956 0 00-1.815-1.055 1.971 1.971 0 00-1.364.496c-.359.33-.617.755-.744 1.225a6.379 6.379 0 000 3.303c.127.471.385.895.744 1.225.375.333.863.511 1.364.496.504.003.988-.192 1.349-.542v.046zm47.806 1.116a1.024 1.024 0 01-.373-.806c.003-.182.046-.362.124-.527l5.955-13.676h-8.017a.961.961 0 01-.729-.295 1.009 1.009 0 010-1.365.91.91 0 01.729-.294h9.304c.362-.018.718.092 1.008.31a1.057 1.057 0 01.356.837 2.708 2.708 0 01-.217 1.039l-6.202 14.421a1.044 1.044 0 01-1.039.682 1.302 1.302 0 01-.899-.326zm55.945.047a4.73 4.73 0 01-2.14-1.69 4.47 4.47 0 01-.806-2.683 4.653 4.653 0 01.899-2.822 4.172 4.172 0 012.559-1.55 3.93 3.93 0 01-2.373-1.427 4.125 4.125 0 01-.806-2.558 4.182 4.182 0 01.791-2.559 4.526 4.526 0 012.047-1.551 7.742 7.742 0 012.884-.511 8.66 8.66 0 012.248.294 6.182 6.182 0 011.814.869c.525.385.95.89 1.241 1.473.303.628.457 1.318.45 2.016a4.074 4.074 0 01-.822 2.574 3.978 3.978 0 01-2.342 1.411 4.648 4.648 0 012.574 1.55c.595.801.901 1.779.869 2.776a4.652 4.652 0 01-.807 2.682 4.842 4.842 0 01-2.155 1.69 8.908 8.908 0 01-6.125 0v.016zm5.629-2.062a2.7 2.7 0 00.992-2.295 3.093 3.093 0 00-1.008-2.45 3.766 3.766 0 00-2.543-.853 3.798 3.798 0 00-2.558.853 3.101 3.101 0 00-1.024 2.45 2.95 2.95 0 00.497 1.736c.319.457.767.807 1.287 1.008a4.64 4.64 0 001.798.31 4.074 4.074 0 002.512-.759h.047zm0-8.529a2.657 2.657 0 00.915-2.171 2.454 2.454 0 00-.977-2.139 4.078 4.078 0 00-2.435-.698 5.499 5.499 0 00-1.271.155 3.801 3.801 0 00-1.086.481 2.205 2.205 0 00-.775.899 2.884 2.884 0 00-.279 1.302 2.649 2.649 0 00.915 2.171 4.557 4.557 0 004.993 0zm47.433 10.235a.775.775 0 01-.465-.76c.002-.275.094-.542.263-.76a.816.816 0 01.636-.357.769.769 0 01.294.078 7.159 7.159 0 003.102.729 5.406 5.406 0 001.55-.186 3.821 3.821 0 001.132-.512c.318-.227.591-.511.807-.837a5.21 5.21 0 00.558-1.086c.157-.437.272-.889.341-1.349.089-.513.146-1.03.17-1.55v-1.691a3.274 3.274 0 01-1.457 1.753 5.08 5.08 0 01-2.76.759 5.375 5.375 0 01-4.001-1.55 5.45 5.45 0 01-1.55-3.985 5.628 5.628 0 011.55-4.14 5.714 5.714 0 014.264-1.551 7.224 7.224 0 012.543.434c.686.254 1.31.65 1.83 1.163a5.98 5.98 0 011.179 1.768 8.61 8.61 0 01.651 2.14c.128.794.19 1.598.186 2.403v1.985c0 .62-.14 1.271-.264 1.969a11.19 11.19 0 01-.527 1.876 7.01 7.01 0 01-.868 1.644 5.605 5.605 0 01-1.272 1.349 5.877 5.877 0 01-1.767.868 8.469 8.469 0 01-2.342.311 8.35 8.35 0 01-3.783-.915zm7.148-8.513a3.876 3.876 0 00.992-2.807 3.95 3.95 0 00-.93-2.682 3.238 3.238 0 00-2.621-1.086 3.417 3.417 0 00-2.682 1.039 3.941 3.941 0 00-.93 2.76 4.234 4.234 0 00.852 2.745 2.95 2.95 0 002.512 1.07 3.67 3.67 0 002.807-1.039zm-111.194 56.922a1.018 1.018 0 01-.356-.806v-2.683h-6.947a1.134 1.134 0 01-.899-.388 1.237 1.237 0 01-.341-.883c.005-.268.08-.53.217-.76l6.652-10.436a2.227 2.227 0 011.985-1.147c.44-.014.871.135 1.209.418a1.56 1.56 0 01.496 1.272v10.141h1.752a.864.864 0 01.667.263.922.922 0 01.233.621.915.915 0 01-.233.635.854.854 0 01-.667.264h-1.767v2.683a1.014 1.014 0 01-.357.806c-.224.193-.51.298-.806.295a1.294 1.294 0 01-.838-.295zm-.356-5.272v-9.304l-5.815 9.304h5.815zm51.759 5.334a8.059 8.059 0 01-2.342-1.458.674.674 0 01-.232-.527c.007-.286.124-.558.325-.76a.96.96 0 01.698-.356.673.673 0 01.434.155 5.676 5.676 0 003.861 1.457 3.592 3.592 0 002.729-.977 3.89 3.89 0 00.931-2.76 3.738 3.738 0 00-.915-2.605 3.104 3.104 0 00-2.419-.992 4.659 4.659 0 00-1.938.449 4.213 4.213 0 00-1.551 1.117.666.666 0 01-.481.155 2.154 2.154 0 01-.992-.264c-.341-.186-.496-.387-.496-.635v-7.939c0-.729.388-1.101 1.178-1.101h7.97a.807.807 0 01.667.279 1 1 0 01.016 1.302.898.898 0 01-.683.264h-7.179v5.877l.155-.155c.135-.126.28-.24.434-.342.239-.156.487-.296.745-.418.344-.15.702-.265 1.07-.341a6.877 6.877 0 011.395-.14 5.032 5.032 0 013.892 1.551 5.578 5.578 0 011.473 4 5.379 5.379 0 01-1.659 4.109 5.983 5.983 0 01-4.249 1.551 7.678 7.678 0 01-2.837-.496zm55.155.046a4.735 4.735 0 01-1.83-1.163 5.877 5.877 0 01-1.178-1.752 8.878 8.878 0 01-.652-2.155 14.66 14.66 0 01-.186-2.403v-1.97a16.34 16.34 0 01.279-1.969c.109-.646.281-1.279.512-1.892a8.043 8.043 0 01.868-1.643 5.399 5.399 0 013.102-2.202 7.755 7.755 0 012.325-.326 8.628 8.628 0 013.768.899.81.81 0 01.45.776 1.284 1.284 0 01-.264.76.759.759 0 01-.635.341.597.597 0 01-.295-.078 7.403 7.403 0 00-3.101-.729 5.426 5.426 0 00-1.473.186 4.13 4.13 0 00-1.117.528 3.1 3.1 0 00-.821.837c-.232.337-.42.701-.559 1.085a6.75 6.75 0 00-.341 1.334 13.018 13.018 0 00-.17 1.551v1.69a3.1 3.1 0 011.457-1.752 4.912 4.912 0 012.76-.76 5.234 5.234 0 013.989 1.538 5.238 5.238 0 011.516 3.997 5.607 5.607 0 01-1.551 4.125 5.715 5.715 0 01-4.264 1.551 6.773 6.773 0 01-2.589-.404zm-.14-8.047a4.341 4.341 0 000 5.489 3.295 3.295 0 002.621 1.07 3.446 3.446 0 002.682-1.024 3.984 3.984 0 00.931-2.775 4.33 4.33 0 00-.838-2.745 3.1 3.1 0 00-2.527-1.07 3.679 3.679 0 00-2.869 1.055zm-108.666 58.303a1.068 1.068 0 01-.357-.853v-13.583l-2.62 1.55a.92.92 0 01-.481.14.873.873 0 01-.763-.616.874.874 0 01.004-.514.875.875 0 01.294-.421l4.171-2.605c.202-.118.433-.177.667-.17a1.134 1.134 0 01.822.31 1.15 1.15 0 01.325.884v15.025a1.068 1.068 0 01-.356.853 1.324 1.324 0 01-1.706 0zm61.094-9.645a10.205 10.205 0 01-2.218 2.698l-5.551 5.411h7.319a.966.966 0 01.713.264.93.93 0 01.248.651.875.875 0 01-.248.651.93.93 0 01-.713.28h-8.373a1.814 1.814 0 01-1.148-.357 1.114 1.114 0 01-.434-.899 1.684 1.684 0 01.574-1.194l6.326-6.404a9.462 9.462 0 001.442-1.861 3.472 3.472 0 00.466-1.69 3.106 3.106 0 00-.931-2.326 3.179 3.179 0 00-2.279-.884 6.576 6.576 0 00-1.551.155c-.327.06-.649.149-.961.264-.295.129-.58.28-.853.449l-.682.404a.866.866 0 01-1.024-.233.933.933 0 01-.294-.698.84.84 0 01.465-.744 11.581 11.581 0 012.31-1.117 8.11 8.11 0 012.714-.387 5.35 5.35 0 013.799 1.426 4.661 4.661 0 011.55 3.474 5.58 5.58 0 01-.666 2.667zm45.525 9.303a.988.988 0 01-.356-1.612.856.856 0 01.651-.31 1.34 1.34 0 01.31 0 7.894 7.894 0 003.349.806 4.203 4.203 0 002.621-.76 2.5 2.5 0 001.008-2.124 3.096 3.096 0 00-1.163-2.543 4.48 4.48 0 00-2.946-.946h-.884a.746.746 0 01-.636-.264.853.853 0 01-.233-.62.92.92 0 01.233-.636.742.742 0 01.636-.263h.791a4.447 4.447 0 002.729-.776 2.649 2.649 0 001.023-2.248 2.481 2.481 0 00-.93-2.062 3.66 3.66 0 00-2.295-.729 7.834 7.834 0 00-3.567.837.727.727 0 01-.279 0 .817.817 0 01-.651-.356 1.178 1.178 0 01-.279-.76.763.763 0 01.403-.698 7.233 7.233 0 011.861-.698 9.841 9.841 0 012.543-.356 7.849 7.849 0 012.853.496 4.655 4.655 0 012.031 1.55c.528.771.799 1.688.776 2.621a3.737 3.737 0 01-.807 2.434 4.642 4.642 0 01-2.14 1.427 4.106 4.106 0 012.45 1.551c.618.832.94 1.847.915 2.884a4.829 4.829 0 01-.496 2.202 4.045 4.045 0 01-1.349 1.55 6.22 6.22 0 01-1.876.853c-.729.19-1.48.284-2.233.279a8.4 8.4 0 01-4.063-.729zm-109.1 47.728a5.003 5.003 0 01-1.768-1.318 6.896 6.896 0 01-1.1-2.001 10.954 10.954 0 01-.605-2.418c-.116-.9-.172-1.807-.171-2.714 0-5.985 2.042-8.978 6.125-8.978 4.063 0 6.109 2.993 6.109 8.978.002.902-.055 1.803-.17 2.698-.11.827-.313 1.638-.605 2.419a6.499 6.499 0 01-1.101 2 4.877 4.877 0 01-1.752 1.318 5.755 5.755 0 01-2.481.496 5.907 5.907 0 01-2.481-.48zm3.691-1.721c.341-.148.651-.359.914-.621.256-.289.47-.613.636-.961.181-.368.326-.752.434-1.147.114-.433.197-.874.248-1.319 0-.496.109-.945.124-1.364.016-.419 0-.853 0-1.318v-1.396c0-.418 0-.883-.124-1.38a8.99 8.99 0 00-.263-1.318 6.534 6.534 0 00-.434-1.147 3.158 3.158 0 00-.636-.93 2.687 2.687 0 00-.915-.605 3.22 3.22 0 00-2.403 0c-.335.137-.64.337-.9.589a3.542 3.542 0 00-.651.93 6.436 6.436 0 00-.434 1.148 17.22 17.22 0 00-.248 1.333 11.2 11.2 0 00-.124 1.38c-.016.435 0 .884 0 1.396v1.333c0 .419 0 .869.124 1.349.05.445.133.886.248 1.319.108.4.253.789.434 1.162.157.35.372.669.636.946a2.8 2.8 0 00.915.621 3 3 0 001.209.232c.415.004.826-.075 1.21-.232zm52.797-3.893a2.745 2.745 0 01-.775-1.938 2.664 2.664 0 01.853-1.969 2.95 2.95 0 012.233-.853 3.105 3.105 0 012.217.837 2.686 2.686 0 01.853 1.985 2.805 2.805 0 01-.837 2.016 3.115 3.115 0 01-2.233.837 3.093 3.093 0 01-2.311-.915zM322.68 330.612a2.683 2.683 0 01-.821-1.938 2.7 2.7 0 01.821-1.938 3.29 3.29 0 014.326 0 2.633 2.633 0 01.838 1.938 2.7 2.7 0 01-.822 1.954 3.272 3.272 0 01-4.342 0v-.016zm0 16.235a2.73 2.73 0 01-.608-3.008c.141-.328.348-.623.608-.868a2.918 2.918 0 012.171-.822 2.935 2.935 0 012.155.806 2.584 2.584 0 01.838 1.923 2.738 2.738 0 01-.822 1.969 3.272 3.272 0 01-4.342 0zm-63.73 184.521a1.402 1.402 0 01-.434-1.007 1.33 1.33 0 01.45-1.055c.317-.276.727-.42 1.147-.403h17.259a1.544 1.544 0 011.116.403 1.265 1.265 0 01.481 1.055 1.29 1.29 0 01-.481 1.023c-.31.266-.708.41-1.116.403h-17.367a1.55 1.55 0 01-1.055-.419zm0 7.955a1.314 1.314 0 01-.434-.992 1.385 1.385 0 01.45-1.055 1.723 1.723 0 011.147-.403h17.321c.4-.011.789.134 1.085.403a1.335 1.335 0 01.45 1.055 1.282 1.282 0 01-.465 1.008 1.68 1.68 0 01-1.117.403h-17.444c-.362 0-.714-.126-.993-.357v-.062zm64.536-151.416l-4.853 6.513a1.211 1.211 0 01-.977.558 1.035 1.035 0 01-.744-.31.992.992 0 01-.326-.729c.001-.242.083-.477.233-.667l5.411-7.071-5.086-6.931a.78.78 0 01-.186-.527 1.119 1.119 0 01.388-.822c.232-.228.543-.356.868-.357.187.004.37.053.533.145.162.093.299.224.398.383l4.651 6.311 4.652-6.296a1.248 1.248 0 011.008-.558 1.01 1.01 0 01.713.279.888.888 0 01.295.667 1.033 1.033 0 01-.217.62l-5.226 7.024 5.195 7.102c.136.179.212.396.217.62a.99.99 0 01-.388.76 1.348 1.348 0 01-.868.326 1.056 1.056 0 01-.915-.481l-4.776-6.559zm-.403 135.228a1.739 1.739 0 01-.48-1.271v-8.048h-8.374a1.846 1.846 0 01-1.287-.481 1.555 1.555 0 01-.561-1.194 1.546 1.546 0 01.561-1.194c.36-.312.827-.473 1.303-.449h8.373v-8.125a1.739 1.739 0 01.481-1.256 1.553 1.553 0 011.24-.528 1.661 1.661 0 011.241.512 1.754 1.754 0 01.48 1.272v8.125h8.389c.474-.013.937.146 1.303.449a1.552 1.552 0 01.542 1.194 1.54 1.54 0 01-.542 1.194 1.858 1.858 0 01-1.303.481h-8.389v8.048a1.733 1.733 0 01-.48 1.24 1.556 1.556 0 01-1.241.527 1.634 1.634 0 01-1.256-.496zm-232.45-82.151a1.248 1.248 0 01-.357-.915v-5.861h-6.078a1.364 1.364 0 01-.946-.341 1.15 1.15 0 010-1.737 1.43 1.43 0 01.961-.341h6.079v-5.861a1.331 1.331 0 01.356-.93 1.151 1.151 0 01.9-.373 1.207 1.207 0 01.899.373c.236.251.364.585.356.93v5.892h6.11c.34-.001.67.12.93.341a1.091 1.091 0 01.403.869c.001.164-.034.326-.101.475-.066.15-.164.284-.286.393-.26.23-.599.352-.946.341h-6.11v5.861c.003.335-.125.658-.356.9a1.145 1.145 0 01-.9.387 1.16 1.16 0 01-.914-.403zm224.294-4.962a.766.766 0 01-.367-.659.776.776 0 01.367-.659 1.732 1.732 0 011.054-.279h16.7c.368-.023.733.075 1.039.279a.846.846 0 01.372.667.794.794 0 01-.372.651 1.684 1.684 0 01-1.039.279h-16.7a1.732 1.732 0 01-1.054-.279zm-212.029 8.265a.905.905 0 01-.264-.651.947.947 0 01.582-.883.898.898 0 01.38-.063h11.288a.842.842 0 01.698.295.945.945 0 01.263.651.888.888 0 01-.263.651.881.881 0 01-.698.279h-11.288a.898.898 0 01-.698-.279zm-6.498 3.349a.802.802 0 01-.853.155c-.216-.124-.309-.403-.293-.806a3.506 3.506 0 01.542-1.551l12.405-21.537a3.107 3.107 0 011.023-1.21.81.81 0 01.853-.155c.217.124.31.403.279.806a3.502 3.502 0 01-.542 1.551l-12.405 21.538a3.575 3.575 0 01-1.008 1.209zm218.527-110.092a.782.782 0 01-.367-.659.776.776 0 01.367-.659 1.732 1.732 0 011.054-.279h16.7c.368-.023.733.075 1.039.279a.849.849 0 01.372.666.795.795 0 01-.372.652 1.697 1.697 0 01-1.039.279h-16.7a1.738 1.738 0 01-1.054-.279zm-167.728 8.528a1.92 1.92 0 01-.636-.791l-5.675-12.73v13.242a.766.766 0 01-.326.651c-.239.158-.52.239-.806.233a1.39 1.39 0 01-.791-.233.778.778 0 01-.341-.651v-14.452a1.554 1.554 0 01.558-1.178 2.05 2.05 0 012.45-.108c.391.267.693.645.868 1.085l5.52 12.265 5.49-12.219a2.28 2.28 0 01.852-1.085 2.045 2.045 0 012.45.109 1.547 1.547 0 01.559 1.178v14.405a.73.73 0 01-.342.651 1.387 1.387 0 01-.79.233 1.32 1.32 0 01-.791-.233.724.724 0 01-.341-.651v-13.242l-5.629 12.746a1.896 1.896 0 01-.62.791 1.46 1.46 0 01-.838.279 1.408 1.408 0 01-.821-.295zm14.963.419a1.05 1.05 0 01-.372-.869v-15.009a1.082 1.082 0 01.372-.838 1.188 1.188 0 01.868-.356h5.272c.612-.007 1.223.03 1.83.108.57.07 1.132.2 1.675.388.51.17.988.427 1.411.76.404.345.723.781.93 1.271a4.32 4.32 0 01.357 1.845 3.706 3.706 0 01-.915 2.559 4.651 4.651 0 01-2.745 1.411 3.984 3.984 0 013.225 3.907l.435 3.815a.539.539 0 010 .17 1 1 0 01-.341.791 1.164 1.164 0 01-.807.31 1.413 1.413 0 01-.884-.294 1.042 1.042 0 01-.449-.807l-.372-3.395a11.804 11.804 0 00-.295-1.722 2.327 2.327 0 00-.558-1.038 1.852 1.852 0 00-.946-.559 6.843 6.843 0 00-1.551-.139h-4.062v6.776a1.06 1.06 0 01-.372.868 1.352 1.352 0 01-.869.31 1.256 1.256 0 01-.837-.263zm5.629-9.521h1.287a6.699 6.699 0 001.147-.248 2.82 2.82 0 00.961-.496c.268-.235.48-.526.621-.853.173-.406.258-.845.248-1.287a3.214 3.214 0 00-.171-1.07 1.66 1.66 0 00-.481-.744 3.077 3.077 0 00-.651-.465 2.916 2.916 0 00-.853-.249l-.883-.217h-4.776v5.598l3.551.031zm36.268 9.102a1.8 1.8 0 01-.636-.791l-5.675-12.73v13.242a.727.727 0 01-.341.651 1.32 1.32 0 01-.791.233 1.393 1.393 0 01-.791-.233.729.729 0 01-.341-.651v-14.451a1.54 1.54 0 01.15-.651c.096-.204.236-.384.409-.528a1.936 1.936 0 011.287-.465c.414-.002.82.123 1.162.357.391.267.693.645.869 1.085l5.52 12.265 5.52-12.265c.171-.438.467-.816.853-1.085a2.038 2.038 0 011.178-.264 1.97 1.97 0 011.303.465 1.541 1.541 0 01.558 1.179v14.405a.772.772 0 01-.341.651c-.234.155-.51.236-.791.233a1.415 1.415 0 01-.806-.233.757.757 0 01-.326-.651v-13.242l-5.69 12.699a1.805 1.805 0 01-.636.791 1.35 1.35 0 01-1.644 0v-.016zm13.18-5.086a.721.721 0 01-.263-.589.802.802 0 01.263-.621 1.01 1.01 0 01.714-.248h5.411a.958.958 0 01.698.248.762.762 0 01.279.621.695.695 0 01-.279.589 1.052 1.052 0 01-.698.232h-5.411a1.066 1.066 0 01-.714-.232zm43.665 5.086a1.928 1.928 0 01-.636-.791l-5.659-12.73v13.242a.73.73 0 01-.341.651 1.46 1.46 0 01-1.551 0 .724.724 0 01-.341-.651v-14.451a1.555 1.555 0 01.558-1.179 1.904 1.904 0 011.287-.465c.41-.004.812.121 1.148.357.394.263.698.642.868 1.085l5.535 12.265 5.521-12.265c.17-.438.467-.816.852-1.085a2.048 2.048 0 012.45.108c.173.144.313.324.409.528.097.203.148.425.15.651v14.405a.724.724 0 01-.342.651 1.298 1.298 0 01-.775.232 1.382 1.382 0 01-.806-.232.783.783 0 01-.341-.651v-13.243l-5.691 12.793a1.92 1.92 0 01-.636.791 1.415 1.415 0 01-.822.279 1.46 1.46 0 01-.837-.295zm19.91.419a.878.878 0 01-.248-.651v-4.218h-4.388a1.011 1.011 0 01-.683-.248.804.804 0 01-.279-.62.798.798 0 01.279-.636 1.01 1.01 0 01.683-.233h4.388v-4.248a.927.927 0 01.248-.667.84.84 0 01.651-.264.84.84 0 01.347.062c.11.046.208.115.289.202a.944.944 0 01.263.667v4.248h4.389c.247-.003.488.079.682.233a.786.786 0 01.279.636.804.804 0 01-.279.62.979.979 0 01-.682.248h-4.389v4.218a.947.947 0 01-.263.651.884.884 0 01-.636.263.797.797 0 01-.651-.263z" fill="#fff"/><path d="M259.726 289.475l6.977 9.304 7.753-13.956h7.753" stroke="#fff" stroke-miterlimit="10"/></svg>