<svg width="1920" height="982" fill="none" xmlns="http://www.w3.org/2000/svg"><path opacity=".2" fill-rule="evenodd" clip-rule="evenodd" d="M2125.22 961.317c-104.65 24.952-369.74 46.383-593.04-67.525-34.9-17.805-58.13-36.387-72.83-55.444-14.71-19.062-20.89-38.585-21.73-58.245-.84-19.651 3.67-39.427 10.29-59.001 4.79-14.133 10.69-28.18 16.5-42.004v-.005l.01-.03c2.23-5.306 4.45-10.579 6.58-15.812 15.41-37.807 26.52-73.489 8.08-104.71-9.23-15.615-25.86-30.154-53.14-43.287-27.29-13.133-65.19-24.85-116.92-34.832-155.8-30.064-268.45-12.623-363.774 2.137-31.275 4.842-60.685 9.395-89.143 11.888-57.598 5.045-111.278 1.639-168.555-24.949-57.269-26.584-118.101-76.329-190.036-163.904-71.879-87.507-138.031-121.06-201.19-124.683-63.181-3.625-123.44 22.694-183.549 55.101-14.54 7.839-29.072 16.034-43.633 24.247h-.001c-45.609 25.723-91.507 51.609-138.847 67.204-62.483 20.585-127.52 23.263-197.813-15.959l.314-.578c70.094 39.111 134.933 36.45 197.286 15.908 47.274-15.574 93.093-41.415 138.69-67.129v-.001c14.572-8.218 29.12-16.423 43.687-24.276 60.117-32.411 120.517-58.814 183.895-55.178 63.401 3.638 129.711 37.326 201.667 124.927 71.901 87.533 132.658 137.195 189.801 163.721 57.135 26.522 110.689 29.929 168.218 24.89 28.405-2.488 57.781-7.037 89.034-11.876 95.339-14.762 208.149-32.228 364.069-2.14 51.76 9.987 89.72 21.718 117.08 34.886 27.35 13.168 44.11 27.784 53.42 43.551 18.63 31.542 7.37 67.532-8.03 105.3-2.14 5.256-4.36 10.547-6.6 15.867v.006c-5.81 13.817-11.69 27.831-16.47 41.94-6.62 19.539-11.09 39.226-10.26 58.761.83 19.528 6.96 38.916 21.59 57.864 14.62 18.953 37.75 37.479 72.6 55.255 223.11 113.808 488.03 92.403 592.59 67.471l.16.644zm-554.79-110.024c223.29 113.907 488.39 92.477 593.03 67.525l-.16-.644c-104.56 24.932-369.48 46.339-592.58-67.471-34.85-17.776-57.98-36.302-72.61-55.255-14.62-18.948-20.75-38.336-21.58-57.864-.84-19.535 3.64-39.222 10.26-58.761 4.77-14.109 10.66-28.121 16.46-41.938v-.002l.01-.006c2.23-5.32 4.46-10.611 6.6-15.867 15.39-37.768 26.66-73.758 8.03-105.3-9.31-15.767-26.07-30.383-53.43-43.551-27.35-13.168-65.32-24.899-117.08-34.886-155.92-30.088-268.72-12.622-364.062 2.14-31.253 4.839-60.629 9.388-89.034 11.876-57.529 5.039-111.083 1.632-168.218-24.89-57.144-26.526-117.9-76.188-189.801-163.721-71.956-87.601-138.266-121.289-201.667-124.927-63.378-3.635-123.778 22.767-183.895 55.178-14.566 7.853-29.115 16.058-43.686 24.276h-.001l-.001.001C61.419 242.92 15.6 268.761-31.674 284.335c-62.353 20.542-127.192 23.203-197.286-15.908l-.315.578c70.294 39.222 135.331 36.544 197.814 15.959 47.34-15.595 93.238-41.481 138.847-67.204h.001v-.001c14.562-8.212 29.093-16.408 43.633-24.246 60.109-32.407 120.368-58.726 183.549-55.101 63.159 3.623 129.311 37.176 201.19 124.683 71.935 87.575 132.767 137.32 190.036 163.904 57.277 26.588 110.957 29.994 168.555 24.949 28.458-2.493 57.868-7.046 89.143-11.888 95.327-14.76 207.977-32.201 363.777-2.137 51.73 9.982 89.63 21.699 116.91 34.832 27.28 13.134 43.92 27.672 53.14 43.287 18.44 31.221 7.34 66.903-8.07 104.71-2.14 5.234-4.35 10.507-6.58 15.813l-.01.029v.006c-5.81 13.824-11.71 27.87-16.5 42.003-6.63 19.574-11.13 39.35-10.29 59.002.84 19.659 7.01 39.182 21.72 58.244 14.71 19.057 37.93 37.639 72.84 55.444zm631.28 25.019c-104.65 24.952-369.74 46.382-593.04-67.525-34.9-17.805-58.12-36.387-72.83-55.443-14.71-19.062-20.89-38.585-21.73-58.245-.83-19.652 3.67-39.428 10.3-59.002 4.78-14.133 10.68-28.18 16.49-42.005v-.004c2.24-5.316 4.46-10.599 6.59-15.841 15.41-37.808 26.52-73.49 8.08-104.711-9.22-15.614-25.86-30.153-53.14-43.286-27.28-13.134-65.19-24.851-116.92-34.833-155.79-30.064-268.44-12.623-363.77 2.137-31.276 4.842-60.687 9.396-89.145 11.888-57.597 5.045-111.278 1.639-168.554-24.949-57.269-26.584-118.102-76.329-190.036-163.904-71.886-87.515-137.102-126.858-198.855-139.14-61.76-12.282-120.113 2.491-178.308 23.334-15.995 5.729-31.979 11.918-48.017 18.127-100.62 38.957-203.385 78.745-324.613 11.102l.315-.577c120.937 67.48 223.39 27.821 324.016-11.131 16.047-6.212 32.048-12.406 48.07-18.144 58.222-20.853 116.716-35.679 178.658-23.36 61.949 12.32 127.29 51.78 199.24 139.372 71.9 87.533 132.657 137.196 189.8 163.721 57.135 26.523 110.689 29.929 168.219 24.89 28.402-2.488 57.776-7.036 89.03-11.874v-.001c95.35-14.763 208.15-32.229 364.07-2.141 51.76 9.988 89.72 21.719 117.08 34.886 27.35 13.169 44.11 27.784 53.42 43.551 18.64 31.542 7.37 67.533-8.03 105.3-2.14 5.257-4.36 10.548-6.6 15.869v.006c-5.8 13.817-11.69 27.829-16.47 41.938-6.62 19.539-11.09 39.226-10.26 58.762.83 19.527 6.97 38.916 21.59 57.863 14.63 18.954 37.76 37.48 72.6 55.256 223.11 113.81 488.03 92.402 592.59 67.47l.16.644zm38.24-42.494c-104.64 24.951-369.74 46.381-593.03-67.526-34.91-17.805-58.13-36.387-72.83-55.443-14.72-19.062-20.89-38.585-21.73-58.245-.84-19.652 3.66-39.428 10.29-59.002 4.79-14.133 10.69-28.18 16.5-42.005v-.004c2.23-5.316 4.45-10.599 6.59-15.841 15.41-37.808 26.52-73.489 8.07-104.711-9.22-15.614-25.85-30.153-53.14-43.286-27.28-13.134-65.18-24.851-116.91-34.833-158.9-30.663-273.39-9.346-370.51 8.735-29.34 5.462-57.088 10.629-83.999 13.978-57.996 7.218-112.079 5.988-169.66-18.97-57.574-24.955-118.609-73.617-190.545-161.193C537.154 107.949 473.003 61.873 412.845 39.52c-60.156-22.352-116.354-20.997-172.376-13.59-18.594 2.458-37.169 5.584-55.863 8.73C90.669 50.468-6.253 66.778-123.441 1.39l.314-.578c116.97 65.267 213.645 49.002 307.57 33.2 18.707-3.147 37.305-6.276 55.932-8.739 56.068-7.412 112.391-8.78 172.692 13.627 60.3 22.406 124.543 68.571 196.486 156.155 71.899 87.532 132.854 136.106 190.293 161.003 57.431 24.893 111.384 26.13 169.316 18.92 26.864-3.343 54.588-8.505 83.898-13.963 97.13-18.085 211.78-39.432 370.82-8.743 51.75 9.988 89.72 21.719 117.07 34.887 27.36 13.168 44.12 27.783 53.43 43.55 18.63 31.542 7.36 67.533-8.03 105.3-2.14 5.257-4.37 10.549-6.6 15.87-5.81 13.818-11.7 27.833-16.47 41.943-6.62 19.539-11.09 39.227-10.26 58.762.83 19.527 6.96 38.916 21.58 57.863 14.63 18.954 37.76 37.48 72.61 55.256 223.11 113.81 488.02 92.402 592.58 67.471l.16.644z" fill="url(#paint0_linear_378_4799)"/><defs><linearGradient id="paint0_linear_378_4799" x1="54.14" y1="153.869" x2="2269.97" y2="492.857" gradientUnits="userSpaceOnUse"><stop offset=".31" stop-color="#252525"/><stop offset=".594" stop-color="#141414" stop-opacity=".9"/><stop offset=".852" stop-opacity=".8"/></linearGradient></defs></svg>