<svg width="689" height="537" fill="none" xmlns="http://www.w3.org/2000/svg"><rect y="42" width="689" height="486" rx="20" fill="#F3F5F9"/><path d="M655.297 527.018H67v1.233h588.297v-1.233zm-69.726-58.788c2.392.604 7.979-.382 7.979-.382s-1.567-3.342-1.69-3.54c-1.492-2.269-5.796-5.746-8.904-4.846a3.859 3.859 0 00-2.565 5.019c.691 2.022 3.157 3.231 5.18 3.749z" fill="#263238"/><path d="M620.36 526.463l.098.358 2.183.468c-.148-.468-.296-.949-.456-1.443-.444-1.405-.95-2.885-1.48-4.402.358-.21 2.38-1.357 4.156-2.652 1.813 1.443 6.166 2.775 6.758 2.948-.432 1.43-.863 2.824-1.295 4.131-.296.9-.579 1.764-.863 2.602l2.109-.333c.197-.592.382-1.233.567-1.825.444-1.455.9-3.021 1.332-4.625.617 0 5.623.222 7.856-.628 2.034-.777 4.427-2.294 5.154-4.403a3.447 3.447 0 00-.179-2.971 3.451 3.451 0 00-2.423-1.728c-3.12-.505-7.399 3.515-8.854 5.981-.087.148-.851 1.813-1.32 2.874.185-.654.358-1.233.531-1.973.357-1.344.665-2.689 1.011-4.132.135-.703.283-1.405.419-2.121.136-.715.234-1.467.345-2.207.247-1.727.407-3.478.518-5.241 1.234.222 5.451.962 7.572.481 2.121-.481 4.699-1.641 5.735-3.638a3.492 3.492 0 00.294-2.964 3.467 3.467 0 00-2.107-2.105c-2.972-.962-7.794 2.466-9.607 4.662-.123.148-1.233 1.886-1.85 2.848.062-1.06.136-2.121.161-3.194.086-3.095.061-6.166.061-9.36v-2.873c.42.086 5.451 1.073 7.831.542 2.109-.481 4.687-1.64 5.735-3.699a3.492 3.492 0 00.294-2.964 3.467 3.467 0 00-2.107-2.105c-2.972-.962-7.794 2.467-9.619 4.662-.136.172-1.751 2.676-2.134 3.329 0-2.108 0-4.205.173-6.277a61.517 61.517 0 011.011-8.373c.198 0 5.439 1.085 7.868.542 2.109-.481 4.686-1.64 5.735-3.638a3.484 3.484 0 00.251-2.907 3.488 3.488 0 00-2.052-2.075c-2.972-.962-7.794 2.467-9.607 4.662-.148.172-1.887 2.873-2.17 3.379 0-.161 0-.321.074-.481a47.952 47.952 0 012.553-8.177 63.84 63.84 0 011.886-4.205c.95.296 5.316 1.591 7.535 1.332 2.22-.259 4.822-1.134 6.08-3.034a3.481 3.481 0 00.626-2.918 3.487 3.487 0 00-1.859-2.335c-2.836-1.233-7.979 1.591-10.026 3.638-.111.111-1.122 1.356-1.85 2.281.308-.604.617-1.233.913-1.788 1.134-2.146 2.306-4.045 3.366-5.71.605-.949 1.234-1.8 1.702-2.589 1.122-.185 5.624-1.024 7.498-2.22 1.875-1.197 3.873-3.133 4.119-5.315a3.47 3.47 0 00-.859-2.852 3.476 3.476 0 00-2.754-1.132c-3.207.173-6.536 4.933-7.4 7.609-.074.235-.863 3.971-.813 3.959h.074c-.531.752-1.098 1.554-1.69 2.466-1.098 1.665-2.318 3.54-3.502 5.673a72.626 72.626 0 00-3.503 7.005 48.946 48.946 0 00-2.762 8.238v.098c-.074-.9-.37-3.403-.419-3.588-.642-2.652-3.527-7.326-6.721-7.4a4.032 4.032 0 00-2.862 1.208 4.027 4.027 0 00-1.146 2.887c0 2.183 1.886 4.082 3.625 5.204 1.936 1.233 7.067 1.973 7.474 2.022a63.798 63.798 0 00-1.234 8.633 116.261 116.261 0 00-.283 5.093c-.087-.777-.173-1.467-.198-1.566-.653-2.651-3.539-7.325-6.733-7.399a4.003 4.003 0 00-3.717 2.536 4.03 4.03 0 00-.279 1.558c0 2.183 1.887 4.082 3.614 5.204 1.726 1.122 6.092 1.825 7.251 1.998v1.961c-.074 3.132-.123 6.265-.271 9.335 0 1.073-.148 2.146-.235 3.219l-.172-1.357c-.654-2.663-3.54-7.325-6.734-7.399a4.012 4.012 0 00-3.716 2.537 3.987 3.987 0 00-.279 1.557c0 2.183 1.887 4.082 3.613 5.205 1.727 1.122 5.673 1.751 7.042 1.96-.124 1.098-.247 2.183-.42 3.244-.135.715-.209 1.418-.382 2.133-.172.716-.32 1.419-.468 2.121a176.12 176.12 0 01-1.073 4.033c-.259.9-.518 1.764-.777 2.627.074-1.073.148-3.182.135-3.367a13.206 13.206 0 00-2.663-6.536 5.648 5.648 0 00-.198-.851 3.6 3.6 0 00-4.933-2.355c-3.009 1.233-4.427 6.77-4.291 9.52 0 .16.296 1.912.505 2.997-.222-.617-.431-1.233-.665-1.85-.457-1.233-.962-2.466-1.48-3.848l-.851-1.923c-.272-.654-.642-1.295-.962-1.961-.765-1.505-1.628-2.985-2.541-4.465 1.172-.456 5.279-2.145 6.845-3.699 1.566-1.554 3.144-3.823 2.91-5.981a3.523 3.523 0 00-1.509-2.589 3.527 3.527 0 00-2.955-.494c-3.132.826-5.389 6.166-5.685 8.879v3.268c-.555-.888-1.098-1.776-1.69-2.652a422.721 422.721 0 00-5.29-7.51l-1.616-2.306c.407-.16 5.34-2.072 7.091-3.761 1.566-1.505 3.145-3.823 2.911-5.981a3.544 3.544 0 00-2.933-3.161 3.555 3.555 0 00-1.532.077c-3.132.827-5.389 6.105-5.685 8.88v3.81a86.154 86.154 0 01-3.428-5.118 59.957 59.957 0 01-3.91-7.239c.198-.074 5.353-2.047 7.153-3.786 1.554-1.504 3.133-3.823 2.898-5.981a3.544 3.544 0 00-2.933-3.16 3.535 3.535 0 00-1.531.077c-3.132.827-5.389 6.166-5.685 8.879v3.873c0-.148-.148-.296-.21-.444a43.422 43.422 0 01-2.466-7.905 49.107 49.107 0 01-.753-4.366c.987-.271 5.513-1.566 7.301-2.972 1.788-1.406 3.527-3.49 3.54-5.673a3.503 3.503 0 00-1.181-2.737 3.487 3.487 0 00-2.864-.827c-3.195.494-6.019 5.538-6.623 8.275 0 .161-.21 1.69-.308 2.812-.074-.641-.173-1.295-.234-1.911-.235-2.319-.296-4.465-.333-6.364v-2.984c.85-.753 4.291-3.836 5.241-5.796.949-1.961 1.566-4.576.542-6.463a3.698 3.698 0 00-5.413-1.233c-2.689 1.85-2.874 7.4-2.122 10.076.062.222 1.505 3.638 1.542 3.601h.062c0 .888-.074 1.837-.074 2.873 0 1.899 0 4.057.197 6.401.163 2.512.484 5.013.962 7.485a44.622 44.622 0 002.294 8.065v.087a77.695 77.695 0 00-2.467-2.652c-2.084-1.775-7.251-3.971-10.063-2.306a3.688 3.688 0 00-1.783 2.444 3.7 3.7 0 00.636 2.958c1.233 1.726 3.971 2.269 6.166 2.232 2.405 0 7.252-2.208 7.646-2.38a58.555 58.555 0 003.86 7.584 100.909 100.909 0 002.652 4.23c-.518-.567-.987-1.085-1.061-1.147-2.084-1.776-7.251-3.971-10.063-2.318a3.678 3.678 0 00-1.154 1.035 3.698 3.698 0 00.019 4.379c1.234 1.726 3.971 2.269 6.105 2.232 2.133-.037 6.339-1.801 7.399-2.282.358.53.703 1.061 1.073 1.591 1.727 2.553 3.465 5.081 5.093 7.609.568.9 1.098 1.801 1.628 2.701-.456-.506-.851-.925-.925-.987-2.072-1.776-7.239-3.971-10.051-2.318a3.69 3.69 0 00-1.79 2.449 3.703 3.703 0 00.644 2.965c1.233 1.726 3.971 2.269 6.166 2.232 2.195-.037 5.932-1.628 7.239-2.195.518.937 1.036 1.874 1.492 2.811.296.654.629 1.234.876 1.912l.801 1.948c.469 1.234.95 2.553 1.369 3.799.296.863.567 1.689.839 2.466-.568-.9-1.702-2.627-1.813-2.762-1.751-2.072-6.462-5.02-9.484-3.786a3.783 3.783 0 00-2.366 3.723c.029.525.167 1.037.405 1.506.975 1.911 3.527 2.848 5.624 3.132 2.306.308 7.202-1.073 7.819-1.233.555 1.381.974 2.787 1.344 4.02z" fill="#263238"/><path d="M642.323 460.621s.654-3.699.654-3.983c.123-2.762-1.344-8.09-4.353-8.978a4.048 4.048 0 00-4.266 1.537 4.038 4.038 0 00-.667 1.447c-.568 2.159.666 4.502 1.998 6.031 1.59 1.813 6.622 3.934 6.634 3.946zM73.4 494.054c1.52.143 3.053.068 4.551-.222 0 0-.888-1.899-.962-2.01-.85-1.308-3.305-3.293-5.08-2.775a2.207 2.207 0 00-1.468 2.886 4.151 4.151 0 002.96 2.121z" fill="#263238"/><path d="M93.268 527.302v.197l1.233.271-.259-.826a53.142 53.142 0 00-.85-2.466 26.61 26.61 0 002.38-1.517 14.793 14.793 0 003.86 1.689 91.633 91.633 0 01-.74 2.356c-.173.518-.333 1.011-.506 1.492l1.233-.197c.099-.333.21-.679.32-1.036.247-.839.506-1.727.753-2.639a15.825 15.825 0 004.489-.358 4.927 4.927 0 002.947-2.528 1.98 1.98 0 00-.087-1.674 1.968 1.968 0 00-1.343-1.002c-1.776-.284-4.218 2.01-5.056 3.416 0 .086-.481 1.036-.753 1.64.099-.37.21-.74.309-1.122.197-.765.382-1.529.567-2.356.086-.407.16-.814.247-1.233.086-.419.135-.839.197-1.233.131-.987.23-1.986.296-2.997 1.42.311 2.88.403 4.328.271a4.845 4.845 0 003.269-2.071 1.982 1.982 0 00-.298-2.425 1.976 1.976 0 00-.738-.461c-1.702-.555-4.452 1.369-5.488 2.651 0 .087-.703 1.073-1.048 1.628 0-.604.074-1.233.086-1.825v-6.98c1.469.319 2.977.423 4.476.308a4.94 4.94 0 003.269-2.084 1.972 1.972 0 00-.285-2.424 1.962 1.962 0 00-.739-.462c-1.702-.555-4.452 1.382-5.5 2.652a87.273 87.273 0 00-1.233 1.911c0-1.233 0-2.405.098-3.588.092-1.606.285-3.204.58-4.785 1.477.321 2.994.425 4.501.308a4.926 4.926 0 003.317-2.171 1.984 1.984 0 00-1.035-2.898c-1.702-.542-4.452 1.382-5.488 2.664-.087.099-1.073 1.64-1.234 1.936v-.283a28.382 28.382 0 011.468-4.674c.333-.839.691-1.628 1.073-2.393a14.27 14.27 0 004.304.765 4.92 4.92 0 003.502-1.702 1.99 1.99 0 00-.69-2.997c-1.616-.74-4.551.901-5.723 2.072 0 0-.641.777-1.06 1.307.185-.345.358-.703.53-1.023.641-1.233 1.32-2.306 1.912-3.268.345-.543.678-1.024.986-1.468a15.812 15.812 0 004.28-1.233 4.807 4.807 0 002.355-3.046 1.995 1.995 0 00-.504-1.617 1.988 1.988 0 00-1.568-.64c-1.825.099-3.699 2.812-4.254 4.353 0 .124-.494 2.257-.457 2.257-.308.432-.629.888-.974 1.406-.617.937-1.32 2.01-1.985 3.231a36.769 36.769 0 00-2.011 4.008 27.994 27.994 0 00-1.578 4.699.106.106 0 010 .061c0-.518-.21-1.948-.234-2.059-.37-1.517-2.023-4.181-3.848-4.218a2.283 2.283 0 00-2.257 2.294 4.03 4.03 0 002.06 2.972c1.359.601 2.802.991 4.279 1.159a35.687 35.687 0 00-.715 4.933 75.237 75.237 0 00-.161 2.911c0-.444-.098-.839-.111-.901-.37-1.516-2.022-4.18-3.847-4.217a2.278 2.278 0 00-2.123 1.442 2.285 2.285 0 00-.159.889 4.032 4.032 0 002.06 2.972 13.92 13.92 0 004.143 1.147v1.109c0 1.801-.074 3.577-.16 5.34 0 .617-.074 1.234-.136 1.838 0-.395-.086-.728-.098-.777-.37-1.517-2.01-4.181-3.836-4.218a2.305 2.305 0 00-1.635.685 2.291 2.291 0 00-.659 1.646 4.064 4.064 0 002.072 2.972 13.57 13.57 0 004.021 1.122c-.074.629-.136 1.234-.235 1.85-.074.407-.123.814-.222 1.233-.098.42-.185.814-.271 1.234-.197.764-.395 1.553-.617 2.306-.135.518-.283.999-.431 1.504 0-.616.074-1.825.074-1.924a7.482 7.482 0 00-1.53-3.699 2.731 2.731 0 00-.073-.457 2.057 2.057 0 00-1.096-1.321 2.045 2.045 0 00-1.716-.023c-1.714.716-2.467 3.86-2.467 5.439 0 .086.173 1.085.284 1.714a36.344 36.344 0 00-.382-1.061c-.26-.727-.543-1.43-.839-2.195l-.48-1.11c-.161-.37-.37-.74-.556-1.11a43.409 43.409 0 00-1.443-2.552 15.745 15.745 0 003.91-2.097 4.613 4.613 0 001.677-3.49 2.008 2.008 0 00-2.54-1.751c-1.801.469-3.084 3.478-3.256 5.069v1.862a38.24 38.24 0 00-.962-1.505c-.974-1.443-1.998-2.873-3.022-4.304l-.925-1.307a16.782 16.782 0 004.058-2.158 4.616 4.616 0 001.652-3.416 2.013 2.013 0 00-1.669-1.797 2.003 2.003 0 00-.871.046c-1.8.468-3.083 3.477-3.256 5.068v2.171a63.464 63.464 0 01-1.96-2.923 34.562 34.562 0 01-2.233-4.131 16.608 16.608 0 004.082-2.158 4.66 4.66 0 001.665-3.417 2.029 2.029 0 00-.864-1.478 2.02 2.02 0 00-1.689-.285c-1.788.469-3.07 3.49-3.243 5.068v2.208l-.123-.247a25.196 25.196 0 01-1.394-4.513 23.419 23.419 0 01-.432-2.467 16.08 16.08 0 004.169-1.702 4.716 4.716 0 002.023-3.243 1.986 1.986 0 00-2.32-2.022c-1.812.271-3.428 3.157-3.785 4.723 0 .086-.111.962-.173 1.603 0-.37-.086-.74-.123-1.098-.136-1.319-.173-2.552-.198-3.699v-1.702a15.785 15.785 0 002.985-3.305 4.292 4.292 0 00.308-3.7 2.113 2.113 0 00-1.381-1.048 2.119 2.119 0 00-1.702.333c-1.541 1.061-1.64 4.255-1.233 5.759 0 .123.85 2.072.875 2.047v1.64c0 1.086 0 2.319.124 3.7.094 1.436.275 2.865.542 4.279a25.091 25.091 0 001.32 4.613c-.32-.395-1.295-1.443-1.369-1.517-1.233-1.011-4.144-2.269-5.747-1.32a2.111 2.111 0 00-.653 3.083 4.325 4.325 0 003.49 1.234 16.508 16.508 0 004.365-1.357 34.827 34.827 0 002.195 4.329c.494.814 1 1.615 1.53 2.466a12.43 12.43 0 00-.617-.641c-1.233-1.024-4.131-2.269-5.747-1.332a2.124 2.124 0 00-1.007 2.289c.064.292.189.566.366.806a4.294 4.294 0 003.478 1.233 14.979 14.979 0 004.316-1.319l.604.913c.999 1.455 1.986 2.898 2.91 4.353.334.505.63 1.023.938 1.541-.26-.296-.493-.53-.53-.567-1.234-1.011-4.132-2.269-5.747-1.32a2.11 2.11 0 00-.654 3.084 4.375 4.375 0 003.49 1.233 15.142 15.142 0 004.131-1.233c.296.53.592 1.072.851 1.603.26.53.358.715.506 1.097.148.383.308.74.456 1.11.272.715.543 1.455.79 2.171.16.493.32.962.468 1.443a46.597 46.597 0 00-1.023-1.579c-1.012-1.233-3.7-2.873-5.427-2.17a2.167 2.167 0 00-1.122 2.984 4.24 4.24 0 003.219 1.788 15.941 15.941 0 004.464-.703c.247.863.493 1.628.703 2.356z" fill="#263238"/><path d="M105.81 489.701s.37-2.133.382-2.269c0-1.579-.777-4.612-2.466-5.118a2.302 2.302 0 00-1.758.263 2.295 2.295 0 00-1.042 1.439 4.1 4.1 0 001.135 3.441 14.311 14.311 0 003.749 2.244zM626.711 77.027h-86.832v-7.005h86.832v7.005zm-85.635-1.233h84.401v-4.539h-84.364l-.037 4.539zm42.472 12.764h-43.669v-7.005h43.669v7.005zm-42.386-1.233h41.153v-4.539h-41.202l.049 4.539zm57.863 12.751H539.83v-6.992h59.195v6.992zm-57.962-1.233h56.729v-4.526h-56.729v4.526zm35.776 12.763h-36.997v-6.992h36.997v6.992zm-35.764-1.233h34.531v-4.526h-34.531v4.526zm65.633 12.826h-66.829v-6.992h66.829v6.992zm-65.595-1.233h64.362v-4.526h-64.362v4.526zm45.53 12.702h-46.764v-7.004h46.764v7.004zm-45.53-1.233h44.297v-4.538h-44.297v4.538zm51.067 12.764h-52.301v-6.968h52.301v6.968zm-51.08-1.234h49.847v-4.501h-49.834l-.013 4.501zm43.237-85.894h-43.089v1.233h43.089v-1.233zm0-7.251h-43.089v1.233h43.089V51.82zm-472.053 81.467a20.636 20.636 0 01-19.071-12.731 20.631 20.631 0 1139.69-7.889 20.653 20.653 0 01-20.619 20.62zm0-40.018A19.4 19.4 0 0098.55 126.38a19.394 19.394 0 0021.142 4.21 19.39 19.39 0 0011.978-17.923 19.424 19.424 0 00-19.386-19.398z" fill="#263238"/><path d="M112.284 118.094a7.704 7.704 0 01-7.121-4.758 7.712 7.712 0 015.617-10.509 7.704 7.704 0 016.95 13.006 7.724 7.724 0 01-5.446 2.261zm0-14.182a6.47 6.47 0 00-5.982 3.996 6.475 6.475 0 105.982-3.996z" fill="#263238"/><path d="M112.284 133.287a20.386 20.386 0 01-12.406-4.181l-.296-.222v-.37a12.812 12.812 0 0125.281 0v.37l-.296.222a20.419 20.419 0 01-12.283 4.181zm-11.358-4.933a19.286 19.286 0 0022.716 0 11.58 11.58 0 00-22.716 0zm11.358 55.162a20.628 20.628 0 01-19.071-12.731 20.63 20.63 0 0115.037-28.137 20.631 20.631 0 0124.653 20.249 20.653 20.653 0 01-20.619 20.619zm0-40.018a19.4 19.4 0 1019.386 19.399 19.425 19.425 0 00-19.386-19.399z" fill="#263238"/><path d="M112.284 168.323a7.712 7.712 0 01-7.121-4.759 7.713 7.713 0 01-.439-4.453 7.712 7.712 0 016.056-6.056 7.713 7.713 0 017.912 3.278 7.704 7.704 0 011.299 4.282 7.72 7.72 0 01-7.707 7.708zm0-14.183a6.47 6.47 0 00-3.597 1.092 6.47 6.47 0 00-2.753 6.646 6.47 6.47 0 005.087 5.087 6.47 6.47 0 006.646-2.753 6.472 6.472 0 00-.805-8.175 6.476 6.476 0 00-4.578-1.897z" fill="#263238"/><path d="M112.284 183.516a20.465 20.465 0 01-12.406-4.168l-.296-.235v-.37a12.812 12.812 0 0125.281 0v.37l-.296.235a20.515 20.515 0 01-12.283 4.168zm-11.358-4.933a19.286 19.286 0 0022.716 0 11.58 11.58 0 00-22.716 0zm11.358 55.162a20.63 20.63 0 1120.619-20.619 20.653 20.653 0 01-20.619 20.619zm0-40.018a19.398 19.398 0 1019.386 19.399 19.423 19.423 0 00-19.386-19.399z" fill="#263238"/><path d="M112.284 218.552a7.704 7.704 0 01-7.121-4.758 7.708 7.708 0 117.121 4.758zm0-14.182a6.47 6.47 0 00-5.982 3.996 6.475 6.475 0 1012.456 2.478 6.482 6.482 0 00-1.9-4.574 6.482 6.482 0 00-4.574-1.9z" fill="#263238"/><path d="M112.284 233.745a20.465 20.465 0 01-12.406-4.168l-.296-.222v-.37a12.81 12.81 0 0112.64-10.717 12.811 12.811 0 0112.641 10.717v.37l-.296.222a20.484 20.484 0 01-12.283 4.168zm-11.358-4.933a19.286 19.286 0 0022.716 0 11.58 11.58 0 00-22.716 0zm11.358 55.162a20.62 20.62 0 1120.619-20.619 20.653 20.653 0 01-20.619 20.619zm0-40.005a19.388 19.388 0 00-3.782 38.4 19.382 19.382 0 0019.901-8.244 19.387 19.387 0 003.267-10.77 19.408 19.408 0 00-19.386-19.386z" fill="#263238"/><path d="M112.284 268.781a7.704 7.704 0 01-7.121-4.758 7.713 7.713 0 011.671-8.4 7.703 7.703 0 018.399-1.671 7.707 7.707 0 01-2.949 14.829zm0-14.182a6.477 6.477 0 00-5.982 3.997 6.471 6.471 0 001.404 7.055 6.47 6.47 0 009.961-.981 6.467 6.467 0 00-.809-8.171 6.482 6.482 0 00-4.574-1.9z" fill="#263238"/><path d="M112.284 283.974a20.46 20.46 0 01-12.406-4.156l-.296-.222v-.37a12.812 12.812 0 0125.281 0v.37l-.296.222a20.48 20.48 0 01-12.283 4.156zm-11.358-4.933a19.286 19.286 0 0022.716 0 11.58 11.58 0 00-22.716 0zm451.397-70.256s-12.333 2.293-14.799 8.83c-2.467 6.536 1.233 8.299 1.233 8.299s-10.063 5.476-8.115 11.839c1.949 6.363 9.003 9.533 9.003 9.533s2.824 1.948 2.294 3.182c-.53 1.233-2.294.888-2.294.888a20.963 20.963 0 008.83 4.587c5.303 1.233 13.775 2.824 21.199 1.233a45.508 45.508 0 0013.072-5.118s-4.933.358-2.836-3.009c2.096-3.366 10.778-4.76 9.718-14.65-1.061-9.891-4.058-8.633-6.352-12.9-2.293-4.267.703-7.239-6.363-12.184-7.066-4.945-19.423-8.633-23.32-7.239-3.897 1.393-1.27 6.709-1.27 6.709z" fill="#263238"/><path d="M562.817 258.459a64.431 64.431 0 01-14.515-1.912 21.615 21.615 0 01-9.126-4.748l-1.541-1.467 2.096.419s1.233.235 1.603-.53c.185-.432-.961-1.653-2.071-2.466-.21-.074-7.252-3.306-9.25-9.866-1.751-5.698 5.143-10.557 7.597-12.073-1.085-1.024-2.59-3.466-.703-8.46 2.232-5.895 11.765-8.436 14.552-9.052a7.049 7.049 0 01-.333-4.773 3.574 3.574 0 012.22-2.072c4.218-1.529 16.71 2.294 23.888 7.313 4.858 3.404 5.179 6.018 5.5 8.559a9.961 9.961 0 001.036 3.835 10.945 10.945 0 002.244 2.8c1.69 1.665 3.453 3.391 4.193 10.322.777 7.313-3.589 10.309-6.783 12.48a10.97 10.97 0 00-3.021 2.577c-.234.37-.592 1.036-.358 1.419.235.382 1.727.703 2.615.641l2.466-.173-2.096 1.307a45.348 45.348 0 01-13.27 5.205c-2.282.483-4.61.723-6.943.715zm-21.606-6.598a20.47 20.47 0 007.399 3.478c8.633 2.01 15.453 2.466 20.965 1.233a45.75 45.75 0 0011.099-4.07 2.626 2.626 0 01-1.665-1.072 2.47 2.47 0 01.37-2.701 11.404 11.404 0 013.379-2.935c3.256-2.232 6.956-4.748 6.241-11.334-.716-6.585-2.22-7.991-3.823-9.582a11.788 11.788 0 01-2.467-3.083 10.864 10.864 0 01-1.233-4.279c-.296-2.368-.58-4.612-4.995-7.695-7.202-5.044-19.3-8.423-22.753-7.165a2.384 2.384 0 00-1.492 1.356c-.715 1.801.592 4.477.604 4.501l.358.728-.802.148c-.111 0-12.048 2.318-14.367 8.448-2.244 5.931.888 7.51.925 7.522l1.086.518-1.061.58c-.099 0-9.594 5.315-7.831 11.099 1.838 6.006 8.633 9.126 8.633 9.163.641.419 3.305 2.355 2.614 3.983a2.069 2.069 0 01-.469.705 2.06 2.06 0 01-.715.454z" fill="#263238"/><path d="M529.545 321.119a80.156 80.156 0 00-14.552 39.661c-1.801 23.431 14.799 73.364 15.193 75.362.395 1.998 2.195 19.596 8.633 34.185 6.437 14.589 10.593 36.787 10.593 36.787s-.999 4.587-.999 5.192c0 .604-8.201 8.398-11 10.001-2.8 1.603-8.793 2.195-8.633 4.995.161 2.799 13.566 3.194 17.993 2.996 4.427-.197 14.392-1.603 15.798-1.603 1.406 0 7.794.407 7.596-3.588-.197-3.996-5.636-20.965-5.636-20.965s-3.761-25.997-3.761-34.185c0-8.189-.407-27.587-.407-27.587s14.799 31.582 17.993 40.178c3.194 8.596 6.4 20.965 6.795 22.383.395 1.418 1.406 16.797 5.796 21.988 4.39 5.192 7.214 4.736 9.866 4.822 2.947.099 6.894-2.614 4.501-9.865-2.392-7.252-8.398-12.197-9.594-19.387-1.197-7.189-1.801-25.194-1.801-43.582 0-18.387-7.202-36.775-7.202-36.775s5.402-31.188 2.8-55.174a126.498 126.498 0 00-12.148-41.806l-.641-2.578-45.629-4.39-1.554 2.935z" fill="#FF8562"/><path d="M601.023 532.333h-.913c-2.553 0-5.451-.086-9.632-5.019-3.699-4.316-4.932-14.934-5.611-20.04-.123-1.048-.234-1.948-.308-2.183-.074-.234-.16-.604-.321-1.233-.912-3.404-3.699-13.775-6.462-21.162-2.602-7.017-13.109-29.708-16.735-37.49.111 5.747.346 18.498.346 24.665 0 8.052 3.699 33.827 3.761 34.086.197.604 5.426 17.018 5.636 21.051a3.304 3.304 0 01-.913 2.553c-1.726 1.776-5.389 1.726-6.955 1.702h-.333c-.555 0-2.688.259-5.167.542-3.577.419-8.016.937-10.606 1.061-.173 0-18.338.567-18.634-3.577-.16-2.355 2.762-3.329 5.587-4.267a19.498 19.498 0 003.329-1.307c2.627-1.504 9.989-8.497 10.692-9.594.074-.864.728-3.922.975-5.069-.346-1.8-4.477-22.716-10.532-36.528-5.537-12.616-7.683-27.686-8.386-32.631a43.83 43.83 0 00-.247-1.677c-.049-.271-.419-1.431-.925-3.096-10.519-34.53-15.316-58.898-14.28-72.439a81.556 81.556 0 0114.65-39.956l1.813-3.219 46.419 4.476.727 2.923a128.688 128.688 0 0112.184 41.93c2.467 22.901-2.355 52.671-2.774 55.186.703 1.863 7.177 19.448 7.177 36.837 0 20.188.678 36.849 1.788 43.483.642 3.848 2.701 7.054 4.933 10.433a39.856 39.856 0 014.686 8.855c1.48 4.439.555 7.029-.468 8.41a5.543 5.543 0 01-4.501 2.294zm-41.326-92.886l1.233 2.639c.148.308 14.799 31.706 18.006 40.215 2.774 7.4 5.574 17.857 6.499 21.274.148.579.259.974.308 1.171.168.777.287 1.564.358 2.356.567 4.599 1.911 15.365 5.327 19.398 3.811 4.514 6.302 4.551 8.707 4.588h.74a4.386 4.386 0 003.588-1.727c.863-1.147 1.603-3.342.296-7.276a38.57 38.57 0 00-4.55-8.632c-2.159-3.342-4.378-6.795-5.069-10.902-1.11-6.684-1.8-23.431-1.8-43.681 0-18.067-7.091-36.368-7.165-36.553l-.062-.16v-.173c0-.308 5.352-31.373 2.787-55.001a126.728 126.728 0 00-12.036-41.535l-.062-.136-.53-2.158-44.754-4.316-1.492 2.639a80.226 80.226 0 00-14.416 39.327c-1.036 13.381 3.699 37.601 14.231 71.971.617 2.035.888 2.935.949 3.231.062.296.136.876.259 1.739.703 4.933 2.825 19.843 8.3 32.311 6.351 14.49 10.593 36.688 10.63 36.91v.247c-.481 2.219-.986 4.723-.986 5.068 0 1.233-9.163 9.311-11.309 10.532a20.557 20.557 0 01-3.539 1.406c-2.38.789-4.847 1.603-4.748 3.009.123 1.739 10.741 2.725 17.351 2.466 2.467-.111 6.956-.629 10.507-1.048 2.615-.308 4.687-.555 5.316-.555h.37c1.233 0 4.686.074 6.042-1.332a2.137 2.137 0 00.568-1.628c-.198-3.872-5.55-20.669-5.611-20.829-.173-1.171-3.786-26.231-3.786-34.37 0-8.139-.395-27.377-.407-27.575l-.05-2.91z" fill="#263238"/><path d="M556.774 426.004c-1.8-7.695-3.995-18.066-4.316-23.751-.505-9.188-.222-34.605-.222-34.864h1.233c0 .259-.283 25.639.222 34.777.309 5.599 2.467 15.897 4.28 23.542l-1.197.296zm1.875 7.77s-.419-1.665-1.048-4.267l1.233-.284c.629 2.59 1.048 4.242 1.048 4.242l-1.233.309zm-9.927-67.038c-3.7-1.554-7.77-6.635-10.508-10.631l1.024-.702c2.627 3.86 6.499 8.755 9.952 10.198l-.468 1.135zm-12.234-13.294a37.827 37.827 0 01-1.455-2.467l1.073-.604s.53.95 1.418 2.368l-1.036.703zm29.995-4.094L555.85 363.34l.982.746 10.632-13.992-.981-.746z" fill="#263238"/><path d="M568.367 517.633a28.832 28.832 0 01-5.525.21c-6.931-.271-14.466-5.537-14.466-5.537 0 .604-8.201 8.398-11 10.001-2.8 1.603-8.793 2.195-8.633 4.995.161 2.799 13.566 3.194 17.993 2.996 4.427-.197 14.392-1.603 15.798-1.603 1.405 0 7.794.407 7.596-3.588a21.499 21.499 0 00-1.763-7.474z" fill="#fff"/><path d="M544.479 530.939c-4.933 0-16.032-.357-16.315-3.601-.161-2.355 2.762-3.329 5.586-4.266a19.512 19.512 0 003.33-1.308c2.627-1.504 9.927-8.435 10.68-9.582v-1.06l.961.678c.074 0 7.486 5.167 14.145 5.426 1.808.111 3.621.041 5.414-.21h.407l.21.346a21.928 21.928 0 011.887 7.757 3.292 3.292 0 01-.913 2.552c-1.726 1.776-5.389 1.727-6.955 1.702h-.333c-.555 0-2.689.259-5.167.543-3.577.419-8.016.937-10.606 1.06-.049-.061-.95-.037-2.331-.037zm4.045-17.795a71.326 71.326 0 01-10.84 9.693 20.589 20.589 0 01-3.539 1.406c-2.38.789-4.847 1.603-4.748 3.009.123 1.739 10.741 2.726 17.351 2.467 2.467-.111 6.956-.629 10.507-1.049 2.615-.308 4.687-.555 5.315-.555h.37c1.234 0 4.687.074 6.043-1.331a2.132 2.132 0 00.568-1.628 22.22 22.22 0 00-1.53-6.832 30.568 30.568 0 01-5.204.16c-6.08-.259-12.48-4.156-14.293-5.34z" fill="#263238"/><path d="M597.113 506.805c-1.233 2.109-2.935 4.773-5.377 4.933-2.996.21-5.13-2.182-6.092-3.539.654 5.167 2.047 14.799 5.34 18.696 4.403 5.204 7.214 4.735 9.866 4.822 2.947.098 6.894-2.615 4.501-9.866-1.899-5.624-6.03-9.94-8.238-15.046z" fill="#fff"/><path d="M601.022 532.333h-.912c-2.553 0-5.451-.086-9.632-5.019-3.231-3.823-4.674-12.69-5.475-19.029l-.321-2.466 1.431 2.01c.925 1.307 2.873 3.478 5.549 3.28 2.047-.135 3.601-2.466 4.933-4.637l.617-1.023.481 1.097a46.342 46.342 0 003.601 6.29 39.89 39.89 0 014.686 8.854c1.48 4.44.555 7.03-.469 8.411a5.537 5.537 0 01-4.489 2.232zm-14.527-22.198c.826 5.907 2.232 13.134 4.933 16.316 3.811 4.513 6.302 4.55 8.707 4.587h.739a4.367 4.367 0 003.589-1.726c.863-1.147 1.603-3.342.296-7.276a38.555 38.555 0 00-4.55-8.633 54.988 54.988 0 01-3.195-5.401c-1.159 1.837-2.861 4.081-5.278 4.242a6.876 6.876 0 01-5.241-2.06v-.049z" fill="#263238"/><path d="M549.018 245.35s.703 10.236.172 12.012c-.53 1.775-6.709 1.936-7.769 1.59-1.061-.345-8.3-1.775-11.827 0-3.527 1.776-8.127 9.533-9.015 11.099a20.436 20.436 0 01-3.527 3.885s-6.363-24.553-6.363-26.49a25.56 25.56 0 00-2.824-15.365c-4.057-7.597-7.239-12.542-10.248-14.799-3.009-2.257-6.006-2.467-6.166-.703-.161 1.763 1.233 2.824 2.294 4.07a57.799 57.799 0 013.699 6.708s-6.536 10.779-6.709 13.245c-.172 2.467-.53 2.997 1.234 4.933 1.763 1.936 7.769 4.933 7.769 4.933a87.703 87.703 0 00.888 15.723c1.233 7.4-1.949 18.018 2.651 27.193s11.099 11.309 12.185 10.421c1.085-.888 12.541-8.83 12.541-8.83s1.406 17.66 1.591 18.375c.185.715-.888 5.821 0 7.769.888 1.949 3.885 5.833 20.127 6.709 16.241.876 26.847-1.233 27.735-2.652.888-1.418.53-3.884.53-5.117 0-1.234 2.651-20.139 2.651-20.139s5.821 13.96 6.537 15.896c.715 1.937 2.121 7.252 2.121 7.252s-.531 13.565 1.763 19.731c2.294 6.166 4.933 12.185 4.933 12.185l3.145 20.212s-1.764 3.527-1.406 6.006c.358 2.479.999 8.312.999 9.187 0 .876 0 3.54 1.418 3.885 1.418.345 2.651-3.354 2.651-3.354.368 2.638.603 5.292.703 7.954-.172 1.06 1.653 4.378 3.182.875.567-1.294 1.061-3.527 1.406-4.229a35.465 35.465 0 002.651-7.067c.531-2.651.765-5.5-1.233-11.666-.468-1.505-1.936-4.6-1.936-5.13 0-.531.913-24.27-.148-33.458a83.854 83.854 0 00-4.07-17.265s-4.23-27.735-4.23-28.796c0-1.06.703-13.947-3.897-20.138-4.599-6.191-12.714-7.399-17.659-8.633a70.602 70.602 0 01-11.099-3.699c-.888-.531-1.061-12.185-1.061-12.185l-16.389-2.133z" fill="#fff"/><path d="M605.129 401.981a1.437 1.437 0 01-.432-.061 3.248 3.248 0 01-1.837-3.096 46.618 46.618 0 00-.444-5.561c-.592 1.023-1.443 1.923-2.466 1.664-1.887-.468-1.887-3.391-1.887-4.489 0-.776-.617-6.486-.999-9.101-.333-2.331 1.023-5.414 1.393-6.166l-3.12-19.941c-.308-.715-2.787-6.388-4.933-12.147-2.244-6.031-1.849-18.61-1.812-19.929-.185-.703-1.431-5.34-2.072-7.104-.531-1.442-4.008-9.865-5.661-13.787-1.036 7.399-2.331 17.031-2.331 17.82v.839a8.26 8.26 0 01-.653 4.612c-1.122 1.813-12.431 3.798-28.278 2.935-12.049-.654-18.807-2.972-20.669-7.066-.666-1.468-.37-4.243-.16-6.277.073-.536.115-1.075.123-1.616-.16-.641-1.159-12.949-1.517-17.388-4.131 2.861-10.852 7.547-11.617 8.188a2.344 2.344 0 01-1.96.222c-2.381-.493-7.4-3.342-11.173-10.84-3.022-6.043-2.763-12.69-2.529-18.498.23-2.942.168-5.9-.184-8.83a89.543 89.543 0 01-.901-15.452c-1.332-.691-6.006-3.157-7.596-4.933a4.57 4.57 0 01-1.468-4.514c0-.271 0-.567.074-.9.173-2.393 5.439-11.259 6.622-13.233a51.327 51.327 0 00-3.477-6.277 9.977 9.977 0 00-.604-.653 4.938 4.938 0 01-1.838-3.873 1.82 1.82 0 011.122-1.529c1.406-.604 3.836.124 6.055 1.813 2.849 2.171 5.858 6.536 10.409 15.033a25.063 25.063 0 012.96 14.577c0 .444-.062.801-.062 1.085 0 1.319 3.552 15.514 6.08 25.343a15.772 15.772 0 002.651-3.034c.222-.382 5.241-9.36 9.274-11.383 3.7-1.837 11.013-.468 12.332 0 2.171.283 4.379.042 6.438-.703.234-.092.429-.262.554-.481.358-1.233.074-7.72-.209-11.789v-.752l17.697 2.293v.531c.074 5.117.407 10.803.838 11.715a73.903 73.903 0 0010.877 3.589l1.801.432c5.068 1.171 12.011 2.799 16.217 8.459 2.873 3.86 4.254 10.816 4.008 20.114v.309c0 .863 2.528 17.573 4.217 28.635a85.644 85.644 0 014.07 17.388c.629 5.439.69 16.76.185 32.73v.802c.246.767.535 1.521.863 2.257.407.974.826 1.973 1.048 2.688 2.035 6.425 1.727 9.323 1.234 11.975a35.945 35.945 0 01-2.701 7.214 15.741 15.741 0 00-.543 1.64c-.23.872-.514 1.729-.851 2.565-.764 1.579-1.541 1.936-2.158 1.936zm-2.096-13.762l.333 2.676c.402 2.692.637 5.406.703 8.127-.062.37.443 1.554.974 1.714.271.099.678-.37 1.036-1.233.317-.806.584-1.629.801-2.467.163-.631.373-1.25.629-1.85a34.89 34.89 0 002.59-6.906c.493-2.466.777-5.204-1.159-11.358-.21-.653-.617-1.64-1.012-2.589a10.35 10.35 0 01-.961-2.726v-.838c.505-15.687.444-27.242-.173-32.545a83.294 83.294 0 00-4.033-17.167v-.123c-.431-2.836-4.242-27.809-4.242-28.882v-.419c.234-8.88-1.098-15.761-3.774-19.35-3.934-5.29-10.618-6.856-15.501-7.991-.642-.148-1.233-.284-1.813-.432a69.763 69.763 0 01-11.296-3.773c-.284-.173-1.147-.691-1.345-12.172l-15.156-1.961c.16 2.467.58 9.866.099 11.481a2.129 2.129 0 01-1.159 1.234 14.726 14.726 0 01-7.4.777c-1.159-.383-8.077-1.678-11.358 0-3.071 1.541-7.399 8.373-8.743 10.877a20.786 20.786 0 01-3.7 4.057l-.74.653-.259-.974c-.654-2.466-6.376-24.664-6.376-26.637 0-.309 0-.703.062-1.234a23.555 23.555 0 00-2.812-13.91c-4.402-8.226-7.399-12.604-10.075-14.639-2.047-1.566-3.971-2.01-4.81-1.652a.57.57 0 00-.382.518c-.123 1.159.641 1.961 1.517 2.898.209.234.431.468.629.703a57.813 57.813 0 013.798 6.844l.148.308-.173.284c-2.602 4.279-6.511 11.259-6.622 12.974 0 .333-.062.641-.086.912a3.408 3.408 0 00.047 1.955 3.408 3.408 0 001.112 1.609c1.665 1.838 7.535 4.785 7.584 4.81l.358.185v.394a89.27 89.27 0 00.875 15.601c.369 3.011.435 6.052.198 9.076-.222 5.71-.481 12.184 2.392 17.944 3.108 6.166 7.289 9.323 9.928 10.087.416.179.877.222 1.319.124 1.073-.876 12.11-8.522 12.579-8.855l.888-.604.086 1.06c.555 6.993 1.431 17.623 1.566 18.277a7.388 7.388 0 01-.098 2.035c-.173 1.664-.469 4.464.061 5.623 2.035 4.489 11.79 5.932 19.609 6.351 16.18.876 26.378-1.233 27.131-2.355a7.549 7.549 0 00.456-3.897v-.901c0-1.233 2.38-18.276 2.651-20.224l.309-2.22.875 2.072c.235.567 5.846 13.984 6.549 15.921.703 1.936 2.071 7.078 2.133 7.3v.173c0 .135-.505 13.565 1.727 19.546 2.232 5.982 4.933 12.098 4.933 12.16v.148l3.181 20.41-.086.172s-1.677 3.392-1.357 5.649c.321 2.256 1.012 8.287 1.012 9.273 0 2.664.592 3.207.949 3.293.358.086 1.381-1.356 1.912-2.96l.962-2.441z" fill="#263238"/><path d="M519.531 300.845l8.423-5.87s1.406 17.659 1.591 18.375c.185.715-.888 5.821 0 7.769.888 1.949 3.885 5.833 20.126 6.709 16.242.875 26.847-1.233 27.735-2.652.888-1.418.531-3.884.531-5.118 0-1.233 2.651-20.138 2.651-20.138s4.711 11.284 6.166 14.971a38.98 38.98 0 0014.959-4.933c-1.233-7.88-2.577-17.265-2.577-17.844 0-1.061.703-13.948-3.897-20.139-4.6-6.191-12.715-7.399-17.66-8.632a70.71 70.71 0 01-11.099-3.7c-.888-.53-1.061-12.184-1.061-12.184l-16.402-2.109s.703 10.236.173 12.011c-.53 1.776-6.709 1.937-7.769 1.591-1.061-.345-8.3-1.776-11.827 0-3.527 1.776-8.127 9.533-9.015 11.099a20.436 20.436 0 01-3.527 3.885s5.291 7.066 5.118 14.663a31.2 31.2 0 01-2.639 12.246z" fill="#fff"/><path d="M557.12 328.654c-2.356 0-4.859-.061-7.474-.209-12.048-.654-18.806-2.972-20.668-7.067-.666-1.467-.37-4.242-.161-6.277.074-.535.115-1.075.124-1.615-.161-.642-1.16-12.949-1.517-17.389-1.542 1.073-4.834 3.355-7.535 5.254l-1.949 1.369 1.036-2.146a29.837 29.837 0 002.528-11.975c.173-7.276-4.933-14.207-4.994-14.268l-.346-.457.432-.382a20.426 20.426 0 003.391-3.7c.222-.382 5.242-9.36 9.274-11.382 3.7-1.838 11.013-.469 12.333 0a13.71 13.71 0 006.437-.703 1.11 1.11 0 00.555-.481c.358-1.233.074-7.72-.21-11.79v-.752l17.697 2.294v.53c.074 5.118.407 10.803.839 11.716a73.86 73.86 0 0010.877 3.588l1.8.432c5.069 1.172 12.012 2.8 16.217 8.46 2.873 3.86 4.255 10.815 4.008 20.114v.333c0 .296.345 2.997 2.565 17.746v.419l-.358.21a39.467 39.467 0 01-15.193 4.933l-.468.061-.173-.444c-1.061-2.676-3.872-9.434-5.303-12.874-1.036 7.399-2.331 17.03-2.331 17.82v.838a8.27 8.27 0 01-.653 4.613c-.913 1.541-8.941 3.181-20.78 3.181zm-28.636-34.789l.087 1.061c.555 6.992 1.43 17.622 1.566 18.276.061.68.028 1.364-.099 2.035-.172 1.665-.468 4.464.062 5.623 2.035 4.489 11.789 5.932 19.608 6.351 16.18.876 26.379-1.233 27.131-2.355a7.549 7.549 0 00.456-3.897v-.9c0-1.234 2.38-18.277 2.652-20.225l.308-2.22.876 2.072c0 .111 4.378 10.495 5.993 14.527a38.066 38.066 0 0013.886-4.538c-2.466-16.76-2.466-17.265-2.466-17.524v-.419c.234-8.88-1.098-15.761-3.774-19.35-3.934-5.29-10.618-6.856-15.502-7.991-.641-.148-1.233-.284-1.812-.432a69.774 69.774 0 01-11.297-3.773c-.283-.173-1.147-.691-1.344-12.172l-15.156-1.961c.16 2.466.579 9.866.098 11.481a2.12 2.12 0 01-1.159 1.233 14.699 14.699 0 01-7.399.777c-1.159-.394-8.078-1.677-11.358 0-3.071 1.542-7.399 8.374-8.744 10.877a18.219 18.219 0 01-3.255 3.7c1.233 1.727 5.081 7.893 4.933 14.589a33.974 33.974 0 01-1.838 10.495l6.696-4.662.851-.678z" fill="#263238"/><path d="M575.852 262.911a64.606 64.606 0 01-9.397-3.256c-.888-.53-1.06-12.184-1.06-12.184l-16.377-2.121s.702 10.236.172 12.011c-.53 1.776-5.549 1.887-7.313 1.665.062 3.922 1.369 12.875 11.913 14.935 9.015 1.763 17.426-5.809 22.062-11.05z" fill="#fff"/><path d="M556.417 274.886a14.66 14.66 0 01-2.812-.272c-11.025-2.146-12.332-11.567-12.406-15.526v-.703l.691.086c2.133.259 6.363-.283 6.659-1.233.358-1.233.074-7.72-.21-11.789v-.753l17.697 2.294v.53c.074 5.118.407 10.803.839 11.716a69.316 69.316 0 009.175 3.132l.949.272-.653.74c-3.984 4.439-11.519 11.506-19.929 11.506zm-13.96-15.144c.197 3.946 1.825 11.802 11.382 13.664 8.46 1.652 16.489-5.315 20.891-10.125a59.916 59.916 0 01-8.632-3.046c-.284-.173-1.147-.691-1.345-12.172l-15.156-1.961c.16 2.467.58 9.866.099 11.481-.543 1.887-5.13 2.183-7.227 2.109l-.012.05z" fill="#263238"/><path d="M556.738 252.059l-6.993.481-.777-7.19 7.77 6.709z" fill="#263238"/><path d="M549.19 253.193l-.999-9.336 10.088 8.719-9.089.617zm.555-6.364l.555 5.057 4.933-.346-5.488-4.711zm.197 45.753c-.53-3.946 3.046-18.165 3.194-18.769l1.234.296c0 .148-3.7 14.589-3.17 18.313l-1.258.16zm-20.496-15.551l-1.134-.493a28.81 28.81 0 011.948-3.798l1.036.666a28.68 28.68 0 00-1.85 3.625zm-2.059 18.215c0-.148-1.64-3.576-1.234-10.014a23.576 23.576 0 011.345-6.45l1.159.395a23.186 23.186 0 00-1.233 6.166c-.333 6.166 1.171 9.385 1.233 9.422l-1.27.481zM582 287.989l-2.059 11.796 1.215.212 2.059-11.796-1.215-.212z" fill="#263238"/><path d="M555.504 210.548l-11.308 7.77s-.346 4.6-.346 9.545-1.418 9.187 1.061 13.775c2.479 4.587 7.769 10.421 11.826 10.421 4.058 0 9.188-2.294 12.333-4.773 3.144-2.479 4.76-7.239 4.76-7.239s4.427-1.763 4.07-4.588c-.358-2.824-.888-4.772-1.591-4.932-.703-.161-2.294-.531-2.294-.531l-2.294-9.545s-13.035-5.488-16.217-9.903z" fill="#fff"/><path d="M556.738 252.688c-4.539 0-9.977-6.29-12.333-10.742-1.886-3.502-1.627-6.758-1.344-10.211.099-1.233.21-2.54.21-3.86 0-4.933.345-9.545.357-9.582v-.296l12.049-8.287.358.493c3.033 4.23 15.847 9.632 16.032 9.681l.283.123 2.282 9.472 1.936.443c.703.173 1.492.962 2.059 5.464.346 2.861-3.169 4.674-4.193 5.13a17.51 17.51 0 01-4.933 7.276c-3.046 2.343-8.336 4.896-12.763 4.896zM544.8 218.675a134.51 134.51 0 00-.333 9.2c0 1.369-.111 2.689-.21 3.959-.271 3.268-.518 6.351 1.234 9.52 2.626 4.933 7.781 10.101 11.284 10.101 4.143 0 9.113-2.467 11.987-4.637 2.873-2.171 4.55-6.906 4.562-6.956l.087-.271.271-.099c1.098-.444 3.922-2.022 3.7-3.946-.494-3.996-1.122-4.415-1.147-4.44l-2.257-.505-.382-.087-2.306-9.619c-1.924-.814-12.333-5.414-15.847-9.496l-10.643 7.276z" fill="#263238"/><path d="M556.01 230.773a3.4 3.4 0 01-2.121-.838 1.54 1.54 0 01-.617-1.234c0-1.48 1.912-3.292 2.676-3.958v-2.356h1.233v2.935l-.221.185c-1.024.839-2.467 2.38-2.467 3.182a.304.304 0 00.136.271 1.909 1.909 0 002.207.395l.444-.148.308 1.233a1.783 1.783 0 00-.333.111c-.399.145-.82.22-1.245.222zm.777 7.412a7.65 7.65 0 01-5.266-2.134l.9-.838c.161.172 3.946 4.106 9.767-.42l.765.975a10.067 10.067 0 01-6.166 2.417zm-8.62-16.957l-.876-.863c.111-.111 2.602-2.467 7.301-1.406l-.296 1.233c-4.045-.999-6.043.962-6.129 1.036zm18.387 0a6.16 6.16 0 00-6.561-1.233l-.493-1.123a7.326 7.326 0 017.917 1.542l-.863.814zm-14.059 3.009c0 .826-.468 1.504-1.048 1.504-.58 0-1.061-.678-1.061-1.504s.469-1.505 1.061-1.505 1.048.679 1.048 1.505zm12.012 0c0 .826-.469 1.504-1.061 1.504s-1.048-.678-1.048-1.504.469-1.505 1.048-1.505c.58 0 1.061.679 1.061 1.505z" fill="#263238"/><path d="M543.665 230.157s-3.527-1.949-3.699 1.591c-.173 3.539 2.996 6.166 2.996 6.166l.703-7.757z" fill="#fff"/><path d="M543.468 239.122l-.9-.752c-.136-.123-3.416-2.898-3.219-6.697a2.709 2.709 0 011.233-2.466 4.026 4.026 0 013.416.321l.346.197-.876 9.397zm-1.714-8.916a1.302 1.302 0 00-.592.123c-.358.198-.543.679-.58 1.406a7.068 7.068 0 001.887 4.773l.543-6.018a3.69 3.69 0 00-1.258-.247v-.037z" fill="#263238"/><path d="M497.395 227.332s-3.466-1.036-4.933 1.961c-1.468 2.997.999 6.166 2.824 7.325 1.825 1.16 3.33.839 3.502-1.331.173-2.171-1.997-4.933-1.997-4.933l.604-3.022z" fill="#fff"/><path d="M497.136 237.889a4.13 4.13 0 01-2.195-.764c-2.245-1.419-4.674-4.933-3.059-8.115a4.764 4.764 0 015.685-2.282l.543.161-.678 3.255c.53.753 2.096 3.17 1.948 5.18a2.582 2.582 0 01-1.233 2.343 2.108 2.108 0 01-1.011.222zm-1.147-10.112a3.208 3.208 0 00-3.046 1.8c-1.381 2.763 1.233 5.636 2.602 6.524.814.518 1.517.691 1.948.481.432-.21.568-.851.605-1.344.123-1.579-1.307-3.836-1.875-4.563l-.172-.235.567-2.626a4.73 4.73 0 00-.629-.037z" fill="#263238"/><path d="M491.771 231.291s-3.169 2.466-2.836 4.501c.333 2.035 4.168 4.662 6.166 4.489 1.998-.172 1.332-2.824 1.332-2.824s-3.835-3.663-4.662-6.166z" fill="#fff"/><path d="M494.928 240.91c-2.281 0-6.166-2.676-6.597-5.019-.432-2.343 2.7-4.797 3.058-5.081l.691-.543.271.827c.777 2.33 4.464 5.882 4.514 5.919l.123.123v.173c.253.929.133 1.92-.333 2.762a2.008 2.008 0 01-1.542.827l-.185.012zm-3.391-8.633c-.9.864-2.158 2.319-1.985 3.38.258 1.59 3.699 4.094 5.5 3.97a.75.75 0 00.358-.075.752.752 0 00.283-.233 2.47 2.47 0 00.173-1.591 25.386 25.386 0 01-4.329-5.414v-.037z" fill="#263238"/><path d="M489.934 237.95s-2.467 1.838-1.159 4.169c1.307 2.331 4.822 2.996 5.993 1.665 1.172-1.332.333-3.503.333-3.503s-4.994-1.159-5.167-2.331z" fill="#fff"/><path d="M492.931 245.078h-.494a5.61 5.61 0 01-4.205-2.626 3.862 3.862 0 011.344-4.933l.826-.604.148.986c.235.456 2.467 1.32 4.687 1.85l.32.074.124.296c0 .111.949 2.528-.444 4.131a3.024 3.024 0 01-2.306.826zm-3.084-6.166a2.473 2.473 0 00-.542 2.948 4.363 4.363 0 003.256 2.01 2.071 2.071 0 001.738-.444 2.965 2.965 0 00.321-2.577 12.985 12.985 0 01-4.797-1.986l.024.049z" fill="#263238"/><path d="M504.622 245.782a11.092 11.092 0 01-1.332-5.661c.172-3.169 2.996-7.165 2.996-7.165a16.969 16.969 0 01-.826-2.664c-.333-1.492-2.331-6.992-.505-9.323 1.825-2.331 3.329 1.505 4.501 4.995 1.171 3.49 1.998 5.327 1.998 5.327.75 2.31.977 4.757.666 7.165-.666 3.157-2.467 8.818-2.467 8.818" fill="#fff"/><path d="M510.171 247.471l-1.172-.383c0-.061 1.826-5.672 2.467-8.768.29-2.297.071-4.629-.641-6.832a55.94 55.94 0 01-1.998-5.327c-.432-1.234-1.702-5.106-2.738-5.279-.259 0-.543.272-.691.469-1.356 1.714-.209 5.833.346 7.806.123.42.209.765.271.999.189.878.457 1.736.802 2.565l.123.309-.197.283s-2.726 3.897-2.886 6.832c-.065 1.85.36 3.684 1.233 5.316l-1.048.641a11.36 11.36 0 01-1.418-6.018c.148-2.849 2.256-6.166 2.91-7.202a19.117 19.117 0 01-.74-2.467c0-.222-.136-.555-.247-.937-.653-2.343-1.874-6.684-.135-8.904a1.98 1.98 0 011.874-.925c1.468.259 2.467 2.528 3.7 6.105 1.233 3.576 1.973 5.253 1.973 5.278a16.607 16.607 0 01.715 7.535c-.653 3.169-2.429 8.669-2.503 8.904zm-56.519 159.986H355.71v1.233h97.942v-1.233z" fill="#263238"/><path d="M350.333 403.893h-6.561v6.561h6.561v-6.561z" fill="#FF8562"/><path d="M453.652 421.787H355.71v1.233h97.942v-1.233z" fill="#263238"/><path d="M350.333 418.211h-6.561v6.561h6.561v-6.561z" fill="#FF8562"/><path d="M453.652 436.105H355.71v1.233h97.942v-1.233z" fill="#263238"/><path d="M350.333 432.528h-6.561v6.561h6.561v-6.561z" fill="#FF8562"/><path d="M453.652 450.423H355.71v1.233h97.942v-1.233z" fill="#263238"/><path d="M350.333 446.858h-6.561v6.561h6.561v-6.561z" fill="#FF8562"/><path d="M509.234 478.17H267.522V327.778h241.712V478.17zm-240.479-1.233h239.246V329.012H268.755v147.925z" fill="#263238"/><path d="M509.234 340.998H267.522v-13.22h241.712v13.22zm-240.479-1.233h239.246v-10.753H268.755v10.753zm63.006 1.456h-1.234v135.062h1.234V341.221zm31.57 52.116a21.372 21.372 0 1121.372-21.372 21.382 21.382 0 01-21.372 21.372zm0-41.511a20.134 20.134 0 00-18.606 12.432 20.142 20.142 0 004.366 21.947 20.14 20.14 0 0034.379-14.24 20.155 20.155 0 00-5.902-14.237 20.155 20.155 0 00-14.237-5.902z" fill="#263238"/><path d="M363.331 377.576a7.977 7.977 0 01-5.642-13.621 7.981 7.981 0 0112.276 1.209 7.977 7.977 0 011.345 4.433 7.99 7.99 0 01-7.979 7.979zm0-14.725a6.75 6.75 0 00-6.232 4.164 6.746 6.746 0 1012.978 2.582 6.758 6.758 0 00-6.746-6.746z" fill="#263238"/><path d="M363.331 393.337a21.097 21.097 0 01-12.862-4.329l-.309-.222.062-.37a13.28 13.28 0 0113.097-11.073 13.283 13.283 0 0113.097 11.073l.061.37-.308.222a21.102 21.102 0 01-12.838 4.329zm-11.802-5.081a20.038 20.038 0 0023.616 0 12.033 12.033 0 00-11.808-9.704 12.037 12.037 0 00-11.808 9.704zm-51.388-7.215a10.606 10.606 0 11-.026-21.212 10.606 10.606 0 01.026 21.212zm0-19.965a9.37 9.37 0 00-6.644 15.995 9.374 9.374 0 0010.215 2.037 9.369 9.369 0 003.044-15.279 9.38 9.38 0 00-6.615-2.753z" fill="#263238"/><path d="M300.141 373.469a4.152 4.152 0 01-3.84-2.565 4.155 4.155 0 117.996-1.591 4.167 4.167 0 01-4.156 4.156zm0-7.078a2.925 2.925 0 00-2.7 1.804 2.916 2.916 0 00.633 3.185 2.925 2.925 0 004.497-.443 2.921 2.921 0 00-2.43-4.546z" fill="#263238"/><path d="M300.141 381.041a10.518 10.518 0 01-6.376-2.133l-.308-.235v-.37a6.706 6.706 0 0110.95-4.011 6.706 6.706 0 012.282 4.011v.37l-.296.235a10.578 10.578 0 01-6.252 2.133zm-5.328-2.898a9.474 9.474 0 0010.643 0 5.475 5.475 0 00-10.643 0zm5.328 44.729a10.602 10.602 0 01-10.416-12.667 10.61 10.61 0 018.33-8.34 10.602 10.602 0 0110.891 4.508 10.603 10.603 0 011.788 5.893 10.617 10.617 0 01-10.593 10.606zm0-19.978a9.37 9.37 0 00-6.644 15.995 9.374 9.374 0 0010.215 2.038 9.375 9.375 0 003.049-15.288 9.385 9.385 0 00-6.62-2.757v.012z" fill="#263238"/><path d="M300.141 415.276a4.153 4.153 0 01-3.84-2.566 4.154 4.154 0 01.901-4.529 4.155 4.155 0 017.095 2.939 4.154 4.154 0 01-2.566 3.839 4.15 4.15 0 01-1.59.317zm0-7.079a2.925 2.925 0 00-2.7 1.804 2.916 2.916 0 00.633 3.185 2.925 2.925 0 004.497-.443 2.92 2.92 0 00-2.43-4.546z" fill="#263238"/><path d="M300.141 422.872a10.533 10.533 0 01-6.376-2.146l-.308-.234v-.358a6.705 6.705 0 016.616-5.598 6.71 6.71 0 016.616 5.598v.358l-.296.234a10.59 10.59 0 01-6.252 2.146zm-5.328-2.91a9.451 9.451 0 0010.643 0 5.475 5.475 0 00-10.643 0zm5.328 44.704a10.61 10.61 0 01-9.808-6.539 10.606 10.606 0 1120.401-4.067 10.617 10.617 0 01-10.593 10.606zm0-19.978a9.37 9.37 0 00-6.644 15.995 9.374 9.374 0 0010.215 2.038 9.375 9.375 0 005.789-8.661 9.382 9.382 0 00-9.36-9.372z" fill="#263238"/><path d="M300.141 457.082a4.16 4.16 0 01-3.84-2.566 4.154 4.154 0 013.029-5.666 4.155 4.155 0 11.811 8.232zm0-7.079a2.926 2.926 0 00-2.867 3.493 2.925 2.925 0 002.297 2.297 2.929 2.929 0 003-1.243 2.926 2.926 0 00-.364-3.691 2.922 2.922 0 00-2.066-.856z" fill="#263238"/><path d="M300.141 464.666a10.453 10.453 0 01-6.376-2.145l-.308-.235v-.357a6.707 6.707 0 0113.232 0v.357l-.296.235a10.507 10.507 0 01-6.252 2.145zm-5.328-2.91a9.451 9.451 0 0010.643 0 5.475 5.475 0 00-10.643 0zm152.994-102.234h-52.548v1.233h52.548v-1.233zm0 12.085h-52.548v1.233h52.548v-1.233zm0 12.086h-52.548v1.233h52.548v-1.233zm65.447-96.648H346.769V42.189h166.485v244.856zm-165.252-1.233h164.019V43.422H348.002v242.39z" fill="#263238"/><path d="M425.794 172.232c29.232 0 52.93-23.698 52.93-52.93 0-29.233-23.698-52.93-52.93-52.93s-52.93 23.697-52.93 52.93c0 29.232 23.698 52.93 52.93 52.93z" fill="#fff"/><path d="M425.794 172.849a53.547 53.547 0 1153.547-53.547 53.607 53.607 0 01-53.547 53.547zm0-105.848a52.313 52.313 0 1052.313 52.301 52.359 52.359 0 00-52.313-52.3zm56.704 121.682H370.977v1.233h111.521v-1.233zm0 11.346H370.977v1.233h111.521v-1.233zm0 19.09h-97.943v1.233h97.943v-1.233z" fill="#263238"/><path d="M379.191 215.543h-6.561v6.56h6.561v-6.56z" fill="#FF8562"/><path d="M482.498 233.437h-97.943v1.233h97.943v-1.233z" fill="#263238"/><path d="M379.191 229.873h-6.561v6.56h6.561v-6.56z" fill="#FF8562"/><path d="M482.498 247.754h-97.943v1.234h97.943v-1.234z" fill="#263238"/><path d="M379.191 244.19h-6.561v6.561h6.561v-6.561z" fill="#FF8562"/><path d="M482.498 262.072h-97.943v1.233h97.943v-1.233z" fill="#263238"/><path d="M379.191 258.508h-6.561v6.561h6.561v-6.561z" fill="#FF8562"/><path d="M414.091 84.192a25.39 25.39 0 0122.198-11.37c15.316.493 19.028 17.265 18.498 22.198a23.6 23.6 0 01-2.232 8.164l-6.672-5.685a45.829 45.829 0 0110.433 16.106c3.7 9.866 1.924 22.679-2.774 25.651-4.699 2.972-7.905 1.726-7.905 1.726l.493-6.671s-4.44 7.904-11.851 9.384c-7.412 1.48-28.66 2.467-31.879-1.233a18.3 18.3 0 01-3.946-7.905l-.494 6.425s-6.671-4.933-6.918-10.63c-.247-5.698 3.206-13.566 4.933-17.783 1.726-4.218 2.96-6.425 3.453-12.85.493-6.425-.247-9.866 4.205-14.084 4.452-4.217 10.458-1.443 10.458-1.443z" fill="#263238"/><path d="M417.272 145.668c-6.918 0-13.454-.69-15.255-2.762a18.773 18.773 0 01-3.12-5.081l-.246 3.243a.634.634 0 01-.358.506.6.6 0 01-.629-.062c-.283-.209-6.906-5.179-7.165-11.099-.234-5.451 2.812-12.801 4.637-17.191l.345-.851.605-1.43a30.153 30.153 0 002.811-11.235c.087-1.122.136-2.146.185-3.108.21-4.489.358-7.744 4.206-11.37 3.847-3.626 8.978-2.38 10.556-1.8a26.333 26.333 0 0122.506-11.223 17.597 17.597 0 0113.147 6.166c4.686 5.353 6.338 13.171 5.968 16.772a23.91 23.91 0 01-2.293 8.386.583.583 0 01-.42.321.634.634 0 01-.518-.136l-.9-.777a46.585 46.585 0 015.636 10.507c3.7 9.866 2.146 23.123-3.022 26.391-4.932 3.096-8.311 1.838-8.459 1.776a.603.603 0 01-.383-.617l.321-4.328c-1.875 2.466-5.661 6.634-10.951 7.695a104.114 104.114 0 01-17.204 1.307zm-18.708-11.691a.603.603 0 01.605.506 18.02 18.02 0 003.81 7.609c2.837 3.28 22.975 2.701 31.287 1.036 7.042-1.406 11.395-9.003 11.445-9.089a.613.613 0 01.715-.277.618.618 0 01.431.635l-.456 6.166c.974.197 3.503.382 6.931-1.788 4.23-2.664 6.265-14.935 2.466-24.912a45.631 45.631 0 00-10.272-15.871.614.614 0 010-.851.6.6 0 01.665-.134.604.604 0 01.198.134l6.055 5.155a24.672 24.672 0 001.825-7.227 24.35 24.35 0 00-5.673-15.835 16.411 16.411 0 00-12.258-5.722 25.099 25.099 0 00-21.692 11.1.619.619 0 01-.79.246c-.222-.099-5.611-2.466-9.693 1.369-3.49 3.293-3.613 6.03-3.823 10.544 0 .974-.098 2.01-.185 3.145a31.048 31.048 0 01-2.91 11.617c-.185.444-.395.912-.592 1.418l-.358.863c-1.788 4.292-4.76 11.481-4.538 16.661.173 4.094 3.996 7.88 5.772 9.422l.406-5.241a.62.62 0 01.58-.568l.049-.111z" fill="#263238"/><path d="M403.769 151.563c-4.095 1.764-10.717 3.33-15.218 5.34a52.901 52.901 0 0074.314.173 27.857 27.857 0 00-5.414-1.998c-7.917-2.195-19.164-8.633-20.484-10.828-1.319-2.195-2.614-9.866-2.614-9.866l-18.289-2.466s.912 9.57.912 11.333c0 1.764-7.041 5.673-13.207 8.312z" fill="#fff"/><path d="M425.794 172.849a53.185 53.185 0 01-37.675-15.502.635.635 0 01-.057-.822.582.582 0 01.23-.177 78.08 78.08 0 018.349-2.96c2.577-.813 4.994-1.578 6.894-2.392 7.941-3.404 12.825-6.832 12.825-7.794 0-1.714-.9-11.173-.9-11.272a.596.596 0 01.185-.505.634.634 0 01.505-.161l18.289 2.467a.614.614 0 01.518.518c0 .074 1.295 7.609 2.54 9.693 1.123 1.874 11.876 8.263 20.114 10.544a29.88 29.88 0 015.537 2.035.627.627 0 01.148.986 53.239 53.239 0 01-37.502 15.342zm-36.158-15.736a52.302 52.302 0 0072.168.123 31.934 31.934 0 00-4.513-1.554c-7.733-2.146-19.374-8.632-20.842-11.099-1.233-1.985-2.318-7.966-2.627-9.681l-17.067-2.306c.209 2.331.838 9.126.838 10.618 0 3.071-13.023 8.695-13.565 8.929-1.949.839-4.403 1.603-6.993 2.466-2.589.864-5.191 1.579-7.399 2.504z" fill="#263238"/><path d="M411.378 110.632s1.48-11.099 4.933-17.055c3.453-5.957 10.877-4.193 13.836-2.22 2.96 1.973 7.659 12.603 10.347 19.51 2.689 6.906 3.946 10.864 3.946 10.864s-4.266 9.003-10.112 12.567c-6.166 3.847-12.973 3.699-18.289-2.467a28.119 28.119 0 01-4.439-7.152s-6.166-1.986-7.659-7.165c-1.492-5.18-.246-7.918 2.22-8.633 2.467-.715 5.217 1.751 5.217 1.751z" fill="#fff"/><path d="M426.139 137.541a13.759 13.759 0 01-10.544-5.265 29.134 29.134 0 01-4.439-7.079c-1.234-.456-6.401-2.615-7.782-7.486-2.047-7.152 1.159-8.965 2.639-9.409a6.075 6.075 0 014.933 1.233c.456-2.935 1.973-11.272 4.859-16.23a8.392 8.392 0 015.537-4.13 12.713 12.713 0 019.175 1.701c3.552 2.38 9.015 15.761 10.606 19.806 2.701 6.869 3.959 10.877 3.971 10.914a.595.595 0 010 .456c-.173.37-4.452 9.2-10.359 12.85a16.125 16.125 0 01-8.596 2.639zm-18.942-28.166a2.98 2.98 0 00-.802.111c-2.404.727-3.046 3.527-1.8 7.892 1.369 4.81 7.19 6.721 7.251 6.746a.57.57 0 01.383.358 28.11 28.11 0 004.341 6.992c4.772 5.537 10.988 6.376 17.499 2.343 5.106-3.157 9.089-10.741 9.779-12.122-.296-.95-1.553-4.711-3.86-10.594-3.206-8.164-7.559-17.512-10.137-19.226a11.48 11.48 0 00-8.225-1.529 7.166 7.166 0 00-4.736 3.54c-3.367 5.758-4.859 16.71-4.871 16.821a.592.592 0 01-.395.493.619.619 0 01-.629-.111 6.839 6.839 0 00-3.798-1.714z" fill="#263238"/><path d="M430.209 119.019a4.828 4.828 0 01-1.233-.136.623.623 0 01-.398-.272.637.637 0 01-.089-.474.638.638 0 01.272-.398.612.612 0 01.474-.089 2.715 2.715 0 002.972-.876 2.762 2.762 0 00-.395-3.108 11.646 11.646 0 01-1.85-6.819.616.616 0 01.415-.547.608.608 0 01.472.028.623.623 0 01.347.593 10.572 10.572 0 001.615 6.03 3.934 3.934 0 01.432 4.501 3.574 3.574 0 01-3.034 1.567zm-2.54 5.302a8.717 8.717 0 01-8.201-5.266.616.616 0 01.271-.826.64.64 0 01.839.271c3.625 7.264 11.21 3.823 11.53 3.7a.623.623 0 01.475-.025.63.63 0 01.352.321.617.617 0 01-.296.814 13.033 13.033 0 01-4.97 1.011zm-6.167-13.454c0 1.085.444 1.973.987 1.973.543 0 .987-.888.987-1.973s-.444-1.986-.987-1.986c-.543 0-.987.901-.987 1.986zm12.111 0c0 1.085.444 1.973.986 1.973.543 0 .987-.888.987-1.973s-.444-1.986-.987-1.986c-.542 0-.986.901-.986 1.986zm-14.824-7.276a.616.616 0 01-.419-1.073 5.094 5.094 0 016.462-.789.616.616 0 01-.268 1.109.612.612 0 01-.459-.11 3.858 3.858 0 00-4.933.69.584.584 0 01-.383.173zm12.838-.259a.672.672 0 01-.407-.148.63.63 0 010-.876 4.733 4.733 0 015.414-1.134.62.62 0 01.359.585.62.62 0 01-.877.537 3.517 3.517 0 00-3.971.838.63.63 0 01-.518.198z" fill="#263238"/><path d="M445.748 150.207l-19.165 18.165-18.572-18.77a86.676 86.676 0 01-4.242 1.961c-4.095 1.764-10.717 3.33-15.218 5.34a52.901 52.901 0 0074.314.173 27.857 27.857 0 00-5.414-1.998 62.655 62.655 0 01-11.703-4.871z" fill="#FF8562"/><path d="M425.794 172.849a53.185 53.185 0 01-37.675-15.502l-.641-.641.814-.358a78.08 78.08 0 018.349-2.96c2.577-.814 4.994-1.578 6.894-2.392a73.565 73.565 0 004.192-1.949l.407-.197 18.499 18.659 19.041-18.055.394.21a61.676 61.676 0 0011.58 4.822 29.916 29.916 0 015.538 2.035l.752.394-.605.592a53.237 53.237 0 01-37.539 15.342zm-36.158-15.736a52.302 52.302 0 0072.168.123 31.934 31.934 0 00-4.513-1.554 64.785 64.785 0 01-11.445-4.723l-19.275 18.276-18.683-18.905a81.693 81.693 0 01-3.873 1.776c-1.948.838-4.402 1.603-6.992 2.466-2.59.864-5.179 1.616-7.387 2.541zm-66.754 129.932H156.397V42.189h166.485v244.856zm-165.252-1.233h164.018V43.422H157.63v242.39z" fill="#263238"/><path d="M292.15 188.683H180.63v1.233h111.52v-1.233zm0 11.346H180.63v1.233h111.52v-1.233zm.012 19.09H194.22v1.233h97.942v-1.233z" fill="#263238"/><path d="M188.843 215.543h-6.561v6.561h6.561v-6.561z" fill="#FF8562"/><path d="M292.162 233.437H194.22v1.233h97.942v-1.233z" fill="#263238"/><path d="M188.843 229.873h-6.561v6.56h6.561v-6.56z" fill="#FF8562"/><path d="M292.162 247.754H194.22v1.234h97.942v-1.234z" fill="#263238"/><path d="M188.843 244.191h-6.561v6.56h6.561v-6.56z" fill="#FF8562"/><path d="M292.162 262.072H194.22v1.233h97.942v-1.233z" fill="#263238"/><path d="M188.843 258.508h-6.561v6.561h6.561v-6.561z" fill="#FF8562"/><path d="M235.458 172.232c29.233 0 52.93-23.698 52.93-52.93 0-29.233-23.697-52.93-52.93-52.93-29.232 0-52.929 23.697-52.929 52.93 0 29.232 23.697 52.93 52.929 52.93z" fill="#fff"/><path d="M235.459 172.849a53.55 53.55 0 01-52.532-63.986 53.55 53.55 0 0142.068-42.078 53.547 53.547 0 0163.998 52.517 53.611 53.611 0 01-53.534 53.547zm0-105.848a52.316 52.316 0 00-48.342 32.288 52.313 52.313 0 10100.643 20.013 52.365 52.365 0 00-52.301-52.3z" fill="#263238"/><path d="M207.908 142.536l-13.195 10.556a52.891 52.891 0 0040.22 19.137 52.907 52.907 0 0040.581-18.36l-20.003-13.084-47.603 1.751z" fill="#263238"/><path d="M235.459 172.848a53.39 53.39 0 01-41.215-19.361.646.646 0 01-.148-.456.617.617 0 01.235-.42l13.183-10.556a.595.595 0 01.37-.136l47.553-1.751a.602.602 0 01.357.099l20.065 13.084a.62.62 0 01.271.432.6.6 0 01-.148.493 53.498 53.498 0 01-40.523 18.572zm-39.87-19.669a52.28 52.28 0 0039.314 18.435 52.298 52.298 0 0021.759-4.496 52.302 52.302 0 0017.927-13.126l-19.3-12.578-47.159 1.726-12.541 10.039z" fill="#263238"/><path d="M224.471 127.589s-11.63 1.505-14.873 6.24c-3.244 4.736-5.599 9.274-3.231 12.074a85.476 85.476 0 0012.936 11.419c3.873 2.59 9.928 11.432 9.928 11.432.482-3.719.766-7.461.851-11.21 0-4.748-4.095-9.866-4.933-14.231-.839-4.366 6.252-11.198 11.197-9.052 4.946 2.146 8.843 8.633 8.633 11.642-.21 3.009.851 6.684 1.936 11.851a624.65 624.65 0 011.936 9.607s7.326-7.4 9.706-15.428 1.233-16.155-7.548-21.544c-8.78-5.389-26.538-2.8-26.538-2.8z" fill="#FF8562"/><path d="M229.231 169.371a.636.636 0 01-.506-.259c-.062-.086-6.03-8.781-9.767-11.272a87.06 87.06 0 01-13.06-11.543c-2.701-3.181 0-8.04 3.194-12.813 3.194-4.773 14.799-6.437 15.292-6.511.802-.111 18.018-2.541 26.921 2.885 10.101 6.166 9.866 15.502 7.819 22.198-2.392 8.029-9.557 15.366-9.866 15.675a.607.607 0 01-.286.167.61.61 0 01-.612-.18.615.615 0 01-.15-.296s-.863-4.427-1.936-9.594c-.247-1.172-.493-2.269-.715-3.293a32.309 32.309 0 01-1.234-8.731c.198-2.787-3.502-8.966-8.25-11.037-1.911-.827-4.439-.185-6.795 1.714-2.355 1.899-3.946 4.772-3.564 6.659a25.966 25.966 0 002.208 5.648c1.356 2.849 2.762 5.809 2.762 8.633a110.861 110.861 0 01-.851 11.296.623.623 0 01-.469.518l-.135.136zm4.846-41.782c-3.179-.002-6.355.2-9.508.605-.111 0-11.407 1.529-14.441 5.993-2.836 4.156-5.451 8.756-3.28 11.321a85.671 85.671 0 0012.813 11.309c3.046 2.034 7.301 7.683 9.163 10.272.246-2.207.653-6.314.653-9.545 0-2.614-1.344-5.438-2.639-8.164a26.334 26.334 0 01-2.306-5.944c-.555-2.75 1.603-5.919 3.996-7.855 2.713-2.183 5.734-2.899 8.053-1.875 5.29 2.294 9.224 9.052 8.99 12.246.035 2.834.449 5.65 1.233 8.374.234 1.035.481 2.133.728 3.305.74 3.564 1.381 6.758 1.702 8.422 1.96-2.182 6.906-8.114 8.743-14.293 1.838-6.178 2.146-15.094-7.276-20.853-4.415-2.664-11.111-3.318-16.624-3.318z" fill="#263238"/><path d="M254.796 133.336a20.775 20.775 0 00-3.811-2.947c-8.842-5.389-26.514-2.8-26.514-2.8s-11.63 1.505-14.873 6.24c-.37.555-.74 1.11-1.085 1.653a11.669 11.669 0 001.948 8.263c4.834 7.695 14.799 11.382 19.596 13.565-.148-4.662-4.094-9.718-4.933-13.948-.838-4.23 6.253-11.197 11.198-9.052 4.945 2.146 8.842 8.633 8.632 11.642-.209 3.009.851 6.684 1.937 11.851l.185.938c.37-.358.739-.728 1.109-1.147a28.082 28.082 0 007.326-19.239 18.291 18.291 0 00-.715-5.019z" fill="#fff"/><path d="M247.076 159.308a.48.48 0 01-.185 0 .573.573 0 01-.42-.468l-.185-.913c-.246-1.172-.493-2.269-.715-3.293a32.308 32.308 0 01-1.233-8.731c.197-2.787-3.503-8.966-8.251-11.037-1.911-.827-4.439-.185-6.795 1.714-2.355 1.899-3.946 4.772-3.564 6.659a26.017 26.017 0 002.208 5.648c1.295 2.75 2.651 5.599 2.738 8.386a.59.59 0 01-.272.543.622.622 0 01-.592 0l-1.677-.74c-5.155-2.232-13.775-5.981-18.19-13.011a12.336 12.336 0 01-2.035-8.694.76.76 0 01.087-.234c.357-.555.715-1.11 1.097-1.665 3.355-4.933 14.799-6.45 15.305-6.511.715-.111 17.98-2.553 26.908 2.885a21.48 21.48 0 013.922 3.047.68.68 0 01.16.258c.489 1.688.738 3.436.74 5.192a28.523 28.523 0 01-7.485 19.596c-.383.432-.765.814-1.135 1.233a.634.634 0 01-.431.136zm-12.764-26.058a5.518 5.518 0 012.256.456c5.291 2.294 9.225 9.052 8.991 12.246.034 2.834.449 5.65 1.233 8.374.222.974.456 2.01.678 3.108l.284-.309a27.363 27.363 0 007.165-18.769 17.433 17.433 0 00-.654-4.687 20.595 20.595 0 00-3.576-2.762c-8.546-5.204-25.898-2.738-26.095-2.713-.197.025-11.42 1.529-14.454 5.993a37.68 37.68 0 00-1.011 1.517 11.162 11.162 0 001.887 7.72c4.205 6.709 12.616 10.359 17.635 12.53l.728.32a26.225 26.225 0 00-2.541-6.893 26.908 26.908 0 01-2.293-5.944c-.555-2.751 1.603-5.92 3.995-7.856a9.51 9.51 0 015.772-2.331z" fill="#263238"/><path d="M222.534 119.179s1.295 15.514 1.727 19.83c.431 4.316 2.799 15.304 10.125 17.45 7.325 2.146 11.641-6.24 10.568-12.493-1.073-6.252-3.009-12.073-3.009-14.231.052-.939-.023-1.88-.222-2.799l-19.189-7.757z" fill="#fff"/><path d="M236.692 157.433a8.492 8.492 0 01-2.467-.382c-7.128-2.096-10.001-12.332-10.568-17.98-.432-4.267-1.715-19.732-1.727-19.843a.608.608 0 01.247-.542.587.587 0 01.604-.074l19.164 7.757a.59.59 0 01.358.37c.216.983.299 1.991.247 2.996a33.513 33.513 0 001.146 5.673c.592 2.405 1.332 5.402 1.863 8.448a13.132 13.132 0 01-3.7 11.555 7.608 7.608 0 01-5.167 2.022zm-13.455-37.305c.284 3.503 1.234 15.194 1.641 18.819.53 5.39 3.181 15.009 9.68 16.933a6.517 6.517 0 006.45-1.394 11.985 11.985 0 003.33-10.421c-.518-2.996-1.233-5.845-1.838-8.361a32.401 32.401 0 01-1.233-5.969 16.105 16.105 0 00-.136-2.343l-17.894-7.264z" fill="#263238"/><path d="M241.711 126.899l-19.177-7.757s.987 11.802 1.517 17.685l17.894-7.461a9.882 9.882 0 00-.234-2.467z" fill="#263238"/><path d="M224.051 137.48a.558.558 0 01-.308-.086.606.606 0 01-.296-.481c-.543-5.871-1.529-17.685-1.529-17.685a.619.619 0 01.538-.663.59.59 0 01.313.047l19.176 7.757a.585.585 0 01.358.382c.188.841.267 1.703.234 2.565a.603.603 0 01-.37.58l-17.869 7.535a.554.554 0 01-.247.049zm-.814-17.352c.234 2.8.913 10.877 1.357 15.835l16.71-7.042a14.2 14.2 0 00-.123-1.541l-17.944-7.252z" fill="#263238"/><path d="M246.262 90.124s3.44 18.942 3.44 22.395c0 3.453-3.157 13.492-4.587 15.786-1.431 2.293-8.633 3.699-11.482 2.577-2.848-1.122-10.914-8.632-12.64-11.765a24.076 24.076 0 01-2.294-6.03s-4.02 1.726-7.177-2.874-1.431-8.891 1.726-9.175l2.874.851s-5.168-8.891-3.453-12.912c1.714-4.02 22.395-5.45 26.699-5.45 4.304 0 6.894 6.597 6.894 6.597z" fill="#fff"/><path d="M236.297 131.893a8.175 8.175 0 01-2.898-.431c-3.046-1.234-11.099-8.769-12.937-12.049a25.076 25.076 0 01-2.207-5.549c-1.394.308-4.637.493-7.239-3.293-1.801-2.627-2.269-5.488-1.233-7.658a4.175 4.175 0 013.428-2.467.487.487 0 01.234 0l1.443.432c-1.393-2.701-4.18-8.818-2.762-12.147 2.158-5.02 27.02-5.821 27.266-5.821 4.674 0 7.4 6.708 7.461 6.992v.111c.136.777 3.453 19.041 3.453 22.506 0 3.466-3.255 13.812-4.686 16.106-1.208 1.973-5.821 3.268-9.323 3.268zm-17.598-19.423a.652.652 0 01.296.074.634.634 0 01.308.419 23.686 23.686 0 002.232 5.858c1.628 2.985 9.57 10.396 12.333 11.494 2.762 1.097 9.52-.407 10.729-2.343 1.344-2.134 4.501-12.086 4.501-15.453 0-3.366-3.206-20.964-3.428-22.198-.247-.604-2.652-6.166-6.29-6.166-6.166 0-24.664 1.74-26.132 5.081-1.307 3.058 2.023 9.965 3.416 12.332a.619.619 0 010 .691.61.61 0 01-.666.21l-2.75-.827a2.989 2.989 0 00-2.306 1.776c-.839 1.776-.407 4.181 1.159 6.438 2.812 4.094 6.277 2.713 6.425 2.651a.785.785 0 01.173-.037z" fill="#263238"/><path d="M230.563 94.835l-4.576 2.035a1.236 1.236 0 00-.592 1.738l.173.309a1.237 1.237 0 001.215.648 1.23 1.23 0 00.462-.143l4.403-2.343a1.233 1.233 0 00.505-1.714 1.23 1.23 0 00-1.59-.53z" fill="#263238"/><path d="M226.666 100.126a1.879 1.879 0 01-1.641-.962l-.16-.308a1.82 1.82 0 01-.136-1.492 1.83 1.83 0 011.012-1.11l4.575-2.023a1.849 1.849 0 012.38.79 1.868 1.868 0 01.161 1.434 1.858 1.858 0 01-.913 1.118l-4.415 2.343a1.794 1.794 0 01-.863.21zm4.402-4.822a.642.642 0 00-.259 0l-4.575 2.035a.596.596 0 00-.345.37.646.646 0 000 .505l.172.308a.643.643 0 00.851.247l4.403-2.33a.607.607 0 00.308-.383.586.586 0 000-.48.638.638 0 00-.555-.272zm8.004-1.517v.086a1.013 1.013 0 00.388 1.068c.109.079.233.135.364.165l3.54.802a1.01 1.01 0 001.018-1.61 1.02 1.02 0 00-.55-.363l-3.515-.876a1.007 1.007 0 00-1.073.368c-.081.107-.139.23-.172.36z" fill="#263238"/><path d="M243.561 96.561a1.674 1.674 0 01-.358 0l-3.539-.801a1.601 1.601 0 01-1.036-.752 1.547 1.547 0 01-.173-1.234v-.086a1.616 1.616 0 011.961-1.147l3.515.876a1.626 1.626 0 011.218 1.777 1.63 1.63 0 01-1.613 1.43l.025-.063zm-3.897-2.614v.086a.39.39 0 000 .309.37.37 0 00.247.185l3.539.789a.396.396 0 00.333-.074.433.433 0 00.148-.308.38.38 0 00-.308-.382l-3.503-.876a.395.395 0 00-.481.271h.025z" fill="#263238"/><path d="M248.494 118.833s-.555-6.548-1.862-7.485c-1.308-.937-11.099-.185-11.099-.185s-9.866-2.8-10.101-.555c-.148 1.64.296 10.408.716 14.503 2.762 2.651 5.857 5.154 7.399 5.771 2.861 1.147 10.038-.284 11.481-2.577a48.633 48.633 0 003.392-9.435l.074-.037zm-2.245 1.123c-1.122 3.699-3.551 5.981-4.674 5.426-1.122-.555-2.059-4.119-2.996-4.489-.938-.37-1.678 1.492-2.8 3.182-1.122 1.689-4.119 2.244-5.426 1.122-1.307-1.122-2.812-11.42-2.812-12.727 0-1.307 13.664.752 13.664.752a26.803 26.803 0 014.304-.185c.925.185 1.862 3.182.74 6.919z" fill="gray"/><path d="M236.297 131.893a8.175 8.175 0 01-2.898-.431c-1.85-.74-5.266-3.7-7.621-5.908a.564.564 0 01-.185-.382c-.395-3.897-.863-12.838-.715-14.614a1.32 1.32 0 01.579-.986c1.825-1.233 8.633.518 10.199.974 2.466-.185 9.964-.666 11.333.308 1.369.975 1.973 6.278 2.121 7.905a.542.542 0 010 .247 48.343 48.343 0 01-3.465 9.619c-1.233 1.973-5.845 3.268-9.348 3.268zm-9.508-7.066a32.967 32.967 0 007.066 5.488c2.701 1.085 9.521-.407 10.729-2.343a47.478 47.478 0 003.293-9.139c-.259-3.009-.949-6.511-1.603-6.98-.654-.468-6.067-.431-10.63-.074a.637.637 0 01-.222 0c-3.231-.912-8.238-1.874-9.262-1.233-.185 1.653.234 10.113.629 14.281zm5.426 1.566a3.55 3.55 0 01-2.269-.728c-1.591-1.368-3.021-12.073-3.021-13.195a.817.817 0 01.296-.617c1.171-.999 9.224 0 13.997.753 1.458-.2 2.933-.258 4.402-.173a1.598 1.598 0 011.036.839 9.245 9.245 0 01.185 6.856c-.949 3.194-2.713 5.192-4.045 5.759a1.69 1.69 0 01-1.492 0 5.9 5.9 0 01-1.899-2.688 6.6 6.6 0 00-1.061-1.788c-.271 0-.9 1.073-1.233 1.714a19.72 19.72 0 01-.777 1.233 5.152 5.152 0 01-4.069 1.986l-.05.049zm-4.045-13.652c.124 2.319 1.628 11.173 2.59 11.987a2.637 2.637 0 001.998.395 3.6 3.6 0 002.466-1.394c.272-.394.506-.801.74-1.233.826-1.381 1.616-2.688 2.812-2.22.641.259 1.061 1.086 1.702 2.393a6.68 6.68 0 001.332 2.121.595.595 0 00.456 0c1.061-.456 2.553-2.319 3.354-4.933 1.036-3.428.185-5.944-.283-6.166a23.208 23.208 0 00-4.107.197h-.16c-5.451-.888-11.58-1.492-12.9-1.147z" fill="#545454"/><path d="M238.443 116.737a17.496 17.496 0 01-9.003-2.824.611.611 0 01-.278-.399.628.628 0 01.097-.477.611.611 0 01.413-.257.61.61 0 01.471.122s5.279 3.576 10.729 2.343a.618.618 0 01.74.456.618.618 0 01-.456.74c-.891.199-1.801.299-2.713.296z" fill="#263238"/><path d="M238.024 97.696s2.614 11.407 2.799 12.332c.185.925-1.862 3.934-4.107 2.244a6.598 6.598 0 01-2.626-3.366" fill="#fff"/><path d="M238.098 113.407a2.873 2.873 0 01-1.751-.629 7.086 7.086 0 01-2.849-3.7.617.617 0 01.084-.475.63.63 0 011.149.204 6.166 6.166 0 002.392 3.009 1.544 1.544 0 001.838.148 2.747 2.747 0 001.233-1.776c-.185-.912-2.775-12.22-2.799-12.332a.62.62 0 01.084-.476.637.637 0 01.643-.281.621.621 0 01.407.26.625.625 0 01.099.226c.099.468 2.614 11.432 2.799 12.332a3.565 3.565 0 01-1.775 3.021 2.988 2.988 0 01-1.554.469zm-5.907-10.161c.296.986.185 1.899-.259 2.035-.444.135-1.049-.555-1.357-1.542-.308-.986-.185-1.899.259-2.035.444-.135 1.048.531 1.357 1.542zm11.062-1.53c.123 1.024-.161 1.9-.617 1.949-.456.049-.937-.728-1.061-1.751-.123-1.024.161-1.912.629-1.961.469-.05.975.74 1.049 1.763z" fill="#263238"/><path d="M211.522 77.78s-7.4 7.399-4.588 13.787c2.812 6.388 10.051 18.067 10.051 18.067h1.43l-.283-4.933s4.587-1.714 3.699-5.735a17.899 17.899 0 00-2.861-6.61s4.933 3.7 10.618 2.874c5.685-.827 8.325-7.745 10.335-5.451 2.01 2.294 5.167 3.7 11.185.567 6.018-3.132 9.866-13.849 3.28-18.153-6.585-4.304-12.751-.493-16.192.358-3.44.85-6.03-4.933-13.775-2.578a32.277 32.277 0 00-12.899 7.807z" fill="#263238"/><path d="M218.415 110.262h-1.43a.61.61 0 01-.53-.296c-.074-.123-7.227-11.875-10.088-18.152-2.997-6.586 4.328-14.072 4.723-14.466 3.7-3.65 8.22-6.362 13.183-7.905a11.816 11.816 0 0110.211 1.48c1.381.764 2.467 1.368 3.589 1.097.629-.16 1.369-.42 2.207-.727 3.54-1.234 8.88-3.194 14.466.444a8.397 8.397 0 013.7 7.757 14.372 14.372 0 01-7.042 11.469c-5.229 2.737-9.138 2.466-11.95-.716-.222-.246-.358-.259-.407-.259-.518 0-1.418.826-2.355 1.727-1.64 1.578-3.885 3.7-7.017 4.193a15.048 15.048 0 01-8.88-1.665 19.876 19.876 0 011.641 4.65c.715 3.317-1.9 5.45-3.7 6.276l.259 4.44a.578.578 0 01-.173.456.59.59 0 01-.407.197zm-1.085-1.233h.432l-.247-4.23a.615.615 0 01.395-.616c.172 0 4.082-1.591 3.342-5.032a17.096 17.096 0 00-2.75-6.351.616.616 0 010-.814.603.603 0 01.814 0s4.748 3.564 10.149 2.75c2.75-.42 4.748-2.318 6.351-3.86 1.233-1.233 2.22-2.096 3.256-2.072a1.772 1.772 0 011.233.679c1.529 1.739 4.267 3.7 10.445.431a13.238 13.238 0 006.389-10.433 7.143 7.143 0 00-3.17-6.66c-5.068-3.304-9.866-1.578-13.368-.32a24.1 24.1 0 01-2.331.765c-1.591.394-2.997-.395-4.476-1.233-2.257-1.234-4.822-2.689-9.274-1.37a31.846 31.846 0 00-12.641 7.585c-.074 0-7.128 7.239-4.476 13.084 2.663 5.624 8.793 15.835 9.878 17.697h.049zm49.995-23.801l-1.073-.617L315.137 0h12.221v1.233h-11.506l-48.527 83.995zM368.585.63h-29.98v1.232h29.98V.63zm0 7.497h-29.98V9.36h29.98V8.127zm0 7.486h-29.98v1.233h29.98v-1.233zm-84.55 234.189a19.245 19.245 0 01-17.774-11.876 19.238 19.238 0 1137.012-7.363 19.249 19.249 0 01-19.238 19.239zm0-36.01a16.77 16.77 0 1016.772 16.771 16.783 16.783 0 00-16.772-16.771z" fill="#263238"/><path d="M295.603 245.3l-2.96 2.22 19.446 25.927 2.959-2.22-19.445-25.927z" fill="#263238"/><path d="M262.626 217.06a22.54 22.54 0 011.012 7.263c-.21 3.638.197 8.88 1.233 9.694 1.036.814 3.835 2.824 3.021 4.439a5.91 5.91 0 01-2.614 2.467 38.608 38.608 0 01-3.034 9.076c-2.022 3.836-3.428 6.462-5.845 6.66a8.64 8.64 0 01-3.836-.395l-2.651 2.59-19.978-4.23.604-8.879s-6.055-10.298-6.055-20.793c0-10.494 10.692-16.537 16.957-16.944 6.264-.407 17.955 2.195 21.186 9.052z" fill="#fff"/><path d="M250.109 259.507l-20.829-4.353.629-9.225c-.802-1.43-6.043-11-6.043-20.964 0-10.939 11.235-17.155 17.537-17.561 5.857-.37 18.276 1.997 21.778 9.434v.074a22.932 22.932 0 011.049 7.485c-.247 4.255.345 8.633.974 9.175l.271.21c1.357 1.061 3.885 3.046 2.923 4.933a6.462 6.462 0 01-2.627 2.565 38.113 38.113 0 01-3.034 8.953c-2.059 3.922-3.551 6.746-6.338 6.98a10.019 10.019 0 01-3.7-.308l-2.59 2.602zm-19.522-5.401l19.128 4.057 2.676-2.688.382.172a8.621 8.621 0 003.539.358c2.023-.173 3.293-2.405 5.365-6.339a37.979 37.979 0 002.96-8.904v-.32l.296-.136a5.286 5.286 0 002.318-2.134c.518-1.023-1.727-2.787-2.577-3.453l-.272-.222c-1.443-1.146-1.603-7.485-1.443-10.198a21.84 21.84 0 00-.974-7.005c-2.984-6.265-14.046-9.114-20.57-8.694-5.883.382-16.377 6.166-16.377 16.328 0 10.161 5.907 20.372 5.969 20.471l.098.173-.518 8.534z" fill="#263238"/><path d="M267.843 211.991a8.63 8.63 0 01-1.616 5.648c-2.01 3.034-7.461 4.045-7.461 4.045s-.197 4.44-1.418 6.253a12.448 12.448 0 01-4.032 3.231s-4.033.394-2.825 4.834c1.209 4.439 2.22 5.044.198 8.632-2.023 3.589-13.923 8.473-17.956 5.649-4.033-2.825-7.066-4.23-9.483-12.715-2.418-8.485-4.847-20.373 2.022-28.45 6.869-8.078 22.395-6.056 22.395-6.056s-4.032-3.835 1.616-3.625a15.044 15.044 0 019.483 4.23s.605-4.033 3.626-3.022c3.021 1.012 5.069 9.151 5.451 11.346z" fill="#263238"/><path d="M236.161 251.824a6.55 6.55 0 01-3.761-.961l-1.036-.716c-3.576-2.466-6.413-4.39-8.632-12.332-2.64-9.237-4.785-20.878 2.145-29.018 5.796-6.819 17.265-6.696 21.434-6.412a2.473 2.473 0 01-.457-2.245c.383-.913 1.53-1.319 3.527-1.233a15.467 15.467 0 019.126 3.699 4.203 4.203 0 011.628-2.256 2.839 2.839 0 012.467-.198c3.86 1.234 5.845 11.667 5.857 11.765a9.304 9.304 0 01-1.714 6.08c-1.8 2.701-5.981 3.872-7.399 4.205-.086 1.234-.419 4.502-1.48 6.093a12.638 12.638 0 01-4.279 3.428l-.21.062a3.28 3.28 0 00-2.072 1.233 3.408 3.408 0 00-.222 2.886c.247.9.481 1.64.691 2.269.814 2.577 1.233 3.699-.543 6.869-1.307 2.355-6.388 5.204-11.333 6.338a17.226 17.226 0 01-3.737.444zm7.313-48.28c-5.007 0-13.294.863-17.709 6.055-6.548 7.695-4.452 18.942-1.899 27.883 2.146 7.51 4.686 9.249 8.201 11.654l1.048.715c1.233.876 3.564.975 6.536.296 4.489-1.036 9.41-3.699 10.532-5.734 1.468-2.664 1.233-3.416.444-5.895-.21-.654-.456-1.406-.703-2.319a4.542 4.542 0 01.395-3.921 4.368 4.368 0 012.836-1.69 11.472 11.472 0 003.7-2.972c.912-1.369 1.233-4.748 1.307-5.944v-.481l.481-.098s5.216-.999 7.066-3.7a8.25 8.25 0 001.517-5.217c-.555-3.058-2.59-10.001-5.031-10.815a1.745 1.745 0 00-1.505.086 3.958 3.958 0 00-1.332 2.467l-.185 1.233-.863-.9a14.563 14.563 0 00-9.064-4.045c-2.01-.074-2.306.394-2.343.493-.185.432.579 1.505 1.171 2.072l1.369 1.233-1.862-.234a35.218 35.218 0 00-4.107-.222z" fill="#263238"/><path d="M254.956 234.189s-3.429-6.449-6.055-4.032c-2.627 2.417 0 15.329 4.439 12.912" fill="#fff"/><path d="M252.243 244.055a3.453 3.453 0 01-1.574-.513 3.45 3.45 0 01-1.152-1.189c-2.257-3.145-3.219-10.569-1.036-12.591.278-.271.617-.473.987-.589a2.476 2.476 0 011.147-.077c2.466.419 4.649 4.415 4.933 4.871l-1.086.58c-.579-1.086-2.466-3.971-4.008-4.243a1.236 1.236 0 00-1.085.37c-1.578 1.443-.851 8.103 1.233 10.951 1.234 1.69 2.196 1.147 2.529.962l.591 1.086a2.862 2.862 0 01-1.479.382z" fill="#263238"/><path d="M269.68 230.576h-16.34v1.233h16.34v-1.233z" fill="#263238"/><path d="M268.386 236.52l-.74-.986a4.53 4.53 0 001.702-4.711 4.442 4.442 0 00-3.207-3.305 4.587 4.587 0 00-2.96.209l-.481-1.147a5.897 5.897 0 013.7-.259 5.776 5.776 0 013.866 7.666 5.77 5.77 0 01-1.93 2.533h.05z" fill="#263238"/><path d="M254.475 264.724s0-4.501-5.92-7.88c-5.919-3.379-17.758-7.893-23.123-7.4-5.364.493-8.447 8.176-8.447 8.176s21.137 1.974 26.206 3.096a70.417 70.417 0 0111.284 4.008z" fill="#fff"/><path d="M255.091 265.686l-.875-.395a69.39 69.39 0 00-11.099-3.909c-4.933-1.098-25.898-3.071-26.132-3.083l-.826-.074.32-.777c.123-.321 3.293-7.955 8.953-8.547 5.661-.592 17.389 3.922 23.432 7.4 6.042 3.477 6.24 8.225 6.24 8.423l-.013.962zm-37.181-8.534c4.082.382 20.89 2.022 25.416 3.033a65.527 65.527 0 0110.372 3.527c-.37-1.43-1.554-4.106-5.451-6.338-5.809-3.318-17.573-7.807-22.741-7.252-3.958.42-6.671 5.143-7.596 7.03z" fill="#263238"/><path d="M165.966 294.038s-6.758 7.892-15.785 19.176c-9.027 11.284-16.34 22.827-16.34 22.827s-8.46 7.326-9.582 10.421c-1.122 3.095-3.947 12.122-5.081 14.663-1.135 2.54 3.946-.851 4.797-2.824a29.42 29.42 0 011.69-3.379l7.325-3.379s-2.257 5.636 0 6.474c2.257.839 2.54-3.095 5.069-6.166 2.528-3.071 4.797-5.364 5.08-9.027a58.9 58.9 0 000-7.609l36.072-23.431-13.245-17.746z" fill="#fff"/><path d="M119.351 362.642a.924.924 0 01-.777-.358 1.474 1.474 0 010-1.405c.703-1.567 2.071-5.698 3.268-9.324.715-2.158 1.369-4.143 1.8-5.303 1.122-3.095 8.818-9.865 9.681-10.618.666-1.035 7.782-12.122 16.34-22.814 8.929-11.099 15.736-19.103 15.798-19.177l.505-.592 14.096 18.906-36.281 23.554a59.49 59.49 0 010 7.338c-.272 3.428-2.146 5.685-4.329 8.299l-.888 1.061a17.83 17.83 0 00-2.084 3.49c-.9 1.862-1.764 3.626-3.7 2.898a2.006 2.006 0 01-1.122-1.085c-.58-1.307-.123-3.404.296-4.81l-5.845 2.701a33.136 33.136 0 00-1.554 3.145 9.436 9.436 0 01-5.032 4.094h-.172zm46.578-67.605c-1.677 2.047-7.732 9.15-15.242 18.56-8.892 11.099-16.229 22.654-16.303 22.777l-.124.136c-2.318 1.998-8.521 7.745-9.397 10.162-.419 1.159-1.073 3.12-1.788 5.266-1.233 3.601-2.541 7.67-3.268 9.347a9.162 9.162 0 003.626-3.218 30.9 30.9 0 011.726-3.466l.099-.16 8.904-4.107-.58 1.431c-.407 1.036-1.344 3.971-.777 5.241a.776.776 0 00.432.444c.764.284 1.134-.234 2.145-2.294a18.316 18.316 0 012.233-3.699l.887-1.073c2.134-2.553 3.811-4.575 4.045-7.597a60.524 60.524 0 000-7.523v-.369l.309-.198 35.517-23.036-12.444-16.624z" fill="#263238"/><path d="M126.17 355.267l-1.023-.691 3.465-5.216h.234a17.768 17.768 0 004.329-1.949 11.359 11.359 0 003.095-2.799l1.012.715a13.363 13.363 0 01-3.441 3.12 18.482 18.482 0 01-4.452 2.035l-3.219 4.785z" fill="#263238"/><path d="M288.462 282.988l9.138-19.201a76.765 76.765 0 012.196-8.51c.629-1.097 4.415-7.078 5.833-7.239 1.418-.16 2.836.469 2.996 1.727a3.568 3.568 0 01-.481 2.207 10.947 10.947 0 013.626 2.997 9.99 9.99 0 011.887 4.933c.321 1.233 1.418 1.418.16 4.094s-3.305 3.466-4.415 4.242a34.184 34.184 0 01-3.773 2.048s-.161 18.116-2.368 25.207c-2.208 7.091-3.774 9.446-3.774 9.446s-3.786-12.912-5.981-15.44c-2.195-2.528-5.044-6.511-5.044-6.511z" fill="#fff"/><path d="M299.265 306.32l-.37-1.233c-1.048-3.552-4.119-13.22-5.857-15.206-2.196-2.466-5.044-6.462-5.081-6.499l-.21-.296 9.262-19.472a69.106 69.106 0 012.256-8.633c0-.061 4.304-7.325 6.29-7.547 1.985-.222 3.49.765 3.7 2.269a4.09 4.09 0 01-.272 2.023 11.535 11.535 0 013.305 2.873 9.211 9.211 0 011.838 4.341c0 .271.098.53.16.777.067.248.171.485.308.703.481.888.777 1.726-.197 3.798a8.891 8.891 0 01-3.897 4.033c-.259.16-.506.308-.715.456a31.185 31.185 0 01-3.515 1.936c0 2.726-.333 18.388-2.392 24.998-2.208 7.078-3.786 9.508-3.86 9.606l-.753 1.073zm-10.087-23.431c.703.962 2.972 4.045 4.785 6.166 1.812 2.121 4.624 10.766 5.685 14.232a59.442 59.442 0 003.033-8.029c2.146-6.918 2.331-24.837 2.331-25.022v-.382l.358-.173a34.697 34.697 0 003.7-1.985c.234-.161.493-.333.789-.506a7.831 7.831 0 003.428-3.514c.777-1.665.543-2.085.222-2.677a3.767 3.767 0 01-.419-.999c-.074-.271-.124-.542-.185-.838a7.83 7.83 0 00-1.603-3.823 10.482 10.482 0 00-3.392-2.812l-.653-.296.407-.604c.307-.538.437-1.16.37-1.776-.111-.9-1.234-1.319-2.319-1.233-1.085.086-4.045 4.649-5.352 6.931a65.927 65.927 0 00-2.134 8.324v.135l-9.051 18.881zm-110.805 52.585s-12.024 31.003-14.084 38.23c-2.059 7.226-6.931 21.889-9.002 40.511a118.274 118.274 0 00.111 22.765 189.203 189.203 0 00-8.633 19.929c-4.464 12.024-19.633 71.663-19.633 71.663s2.75 4.131 8.941 3.095l6.166-1.036a11.18 11.18 0 004.464-.345c2.467-.678 7.905-.333 8.251-2.738.345-2.405-1.382-3.095-3.441-5.5-2.06-2.405-5.155-9.977-5.155-9.977s17.241-30.127 23.431-41.103c6.191-10.976 14.799-31.583 15.157-34.678.357-3.096 17.536-48.552 17.536-48.552h3.786l27.131 45.407s-1.036 18.215 2.059 28.87c3.096 10.655 10.285 50.882 10.285 50.882l-.69 7.227a23.253 23.253 0 011.381 4.464v3.774s1.024 2.466 7.905 2.466c3.083 0 13.405-1.035 15.119-1.381 1.715-.345 14.799-.69 15.12-2.405.32-1.714.69-3.095-1.369-3.786-2.06-.69-16.846-7.559-16.846-7.559v-6.166a11.325 11.325 0 01-3.441-4.132c-.678-2.059.691-57.394 0-67.013-.69-9.619.346-9.619-2.404-18.215-2.751-8.595-13.64-68.912-13.64-68.912l-5.562-9.582-58.418-12.024-4.525 5.821z" fill="#263238"/><path d="M134.149 532.432a9.023 9.023 0 01-7.485-3.503l-.161-.234.074-.259c.148-.604 15.218-59.811 19.646-71.724a199.104 199.104 0 018.533-19.843 120.636 120.636 0 01-.086-22.716 208.599 208.599 0 018.09-37.403c.345-1.234.666-2.257.937-3.207 2.047-7.165 13.973-37.958 14.096-38.23l.086-.148 4.736-6.166.382.074 58.689 12.086 5.784 10.014c.111.604 10.926 60.292 13.64 68.752a33.528 33.528 0 012.133 11.974c0 1.604.099 3.601.296 6.376.358 4.933.173 21.619 0 37.7-.148 13.8-.308 28.068 0 29.178a10.858 10.858 0 003.219 3.823l.246.185v6.092c2.27 1.06 14.589 6.77 16.415 7.399 2.466.839 2.145 2.701 1.825 4.341v.148c-.272 1.332-3.046 1.924-12.332 2.602-1.505.111-2.812.198-3.219.284-1.825.37-12.184 1.393-15.243 1.393-7.079 0-8.349-2.466-8.472-2.787v-4.02a21.276 21.276 0 00-1.332-4.242l-.062-.136.691-7.288c-.37-2.047-7.288-40.438-10.273-50.71-2.984-10.273-2.207-26.811-2.096-28.882l-27.02-45.013h-2.997c-4.933 12.912-17.055 45.543-17.265 47.985-.345 3.144-9.015 23.85-15.23 34.912-5.809 10.322-21.52 37.86-23.222 40.857.567 1.369 3.182 7.473 4.933 9.52a24.801 24.801 0 001.517 1.591c1.319 1.307 2.355 2.331 2.059 4.403-.296 2.072-3.366 2.466-6.079 2.836-.878.07-1.748.21-2.603.419a12.13 12.13 0 01-4.636.37l-6.093 1.012c-.7.122-1.41.184-2.121.185zm-6.301-4.008a8.33 8.33 0 008.163 2.626l6.278-1.048h.111c1.406.166 2.83.053 4.193-.333a18.54 18.54 0 012.811-.444c2.146-.259 4.822-.567 4.995-1.8.209-1.443-.469-2.121-1.702-3.33-.481-.481-1.024-1.011-1.591-1.677-2.096-2.467-5.13-9.866-5.253-10.137l-.124-.271.161-.259c.172-.309 17.265-30.251 23.357-41.116 6.092-10.865 14.798-31.373 15.082-34.444.284-3.071 16.846-46.862 17.549-48.688l.16-.394h4.551l27.402 45.876v.185c0 .172-.999 18.227 2.035 28.66 3.034 10.433 10.248 50.562 10.322 50.932v.135l-.678 7.153a20.25 20.25 0 011.369 4.563v3.613c.271.37 1.763 1.961 7.288 1.961 3.108 0 13.442-1.06 14.996-1.369.493-.098 1.702-.185 3.379-.308 2.898-.21 10.581-.777 11.284-1.689v-.074c.358-1.801.407-2.467-.999-2.923-2.072-.691-16.303-7.301-16.908-7.585l-.357-.172v-6.277a11.107 11.107 0 01-3.404-4.23c-.345-1.048-.246-11.913 0-29.598.173-15.316.37-32.668 0-37.601-.197-2.811-.246-4.809-.296-6.425a32.312 32.312 0 00-2.072-11.641c-2.7-8.436-12.998-65.114-13.664-68.789l-5.377-9.25-57.788-11.876-4.206 5.451c-.703 1.789-12.048 31.152-14.034 38.082l-.937 3.219a206.513 206.513 0 00-8.041 37.108c-.683 7.529-.65 15.106.099 22.629v.185l-.086.173a193.524 193.524 0 00-8.559 19.855c-4.23 11.419-18.363 66.914-19.509 71.342z" fill="#263238"/><path d="M285.194 283.617s1.123-3.7 5.92-1.973c4.797 1.726 12.11 15.501 10.421 22.827-1.69 7.325-6.167 9.865-10.138 9.582-3.97-.284-8.743-5.069-7.621-5.636 1.122-.567 1.418-24.8 1.418-24.8z" fill="#fff"/><path d="M291.965 314.694h-.617c-3.626-.259-8.003-4.082-8.324-5.71a.965.965 0 01.345-1.011c.617-1.406 1.085-13.504 1.233-24.344v-.173a4.342 4.342 0 012.085-2.38 5.767 5.767 0 014.624 0c5.315 1.875 12.567 16.032 10.828 23.543-1.739 7.51-6.265 10.075-10.174 10.075zm-7.708-5.882c.333 1.023 4.02 4.402 7.177 4.624 3.515.271 7.868-2.01 9.509-9.101 1.64-7.091-5.76-20.607-10.039-22.112a4.693 4.693 0 00-1.81-.408 4.7 4.7 0 00-1.828.322 3.084 3.084 0 00-1.455 1.591c-.259 21.174-1.085 24.455-1.554 25.084z" fill="#263238"/><path d="M180.901 280.226s-1.973 0-4.785-.272c-2.812-.271-6.771 4.501-9.027 7.326-2.257 2.824-5.069 4.513-3.096 10.42 1.973 5.907 7.326 13.566 15.218 14.096 4.461.439 8.915-.89 12.406-3.7l-10.716-27.87z" fill="#fff"/><path d="M180.666 312.462h-1.492c-7.732-.555-13.491-7.683-15.76-14.515-1.789-5.34.222-7.597 2.158-9.779.345-.395.703-.802 1.036-1.234 3.12-3.897 6.708-7.868 9.569-7.559 2.861.308 4.711.271 4.724.271h.431l11.013 28.697-.308.284a17.362 17.362 0 01-11.371 3.835zm-4.797-31.903c-2.602 0-6.721 5.142-8.287 7.103-.358.444-.728.863-1.098 1.233-1.936 2.183-3.465 3.91-1.911 8.633 1.554 4.723 6.499 13.121 14.687 13.652 4.137.37 8.266-.779 11.617-3.231l-10.396-27.131c-.727 0-2.343-.074-4.427-.284l-.185.025z" fill="#263238"/><path d="M216.985 257.682s-4.514-.567-14.096 4.797c-9.582 5.365-30.152 21.976-31.57 24.8-1.419 2.824 2.54 15.502 7.609 17.759a13.573 13.573 0 009.582.555l-10.137 29.881s11.271-.568 30.152 2.824c18.881 3.391 38.353 12.961 38.353 12.961s1.418-.284 1.702-3.947a18.74 18.74 0 012.244-7.609c.851-1.689 11.556-38.057 11.556-38.057s21.149 9.311 26.785 9.311c5.636 0 7.609-10.149 5.353-17.758-2.257-7.609-7.042-9.866-7.042-9.866a37.79 37.79 0 01-11.839-6.487c-5.365-4.501-21.138-12.122-21.138-12.122s-22.58-9.57-37.514-7.042z" fill="#FF8562"/><path d="M246.779 351.9l-.197-.086c-.185-.099-19.583-9.582-38.168-12.912-18.585-3.329-29.906-2.812-30.017-2.812h-.9l10.063-29.597c-2.982.64-6.09.32-8.879-.912-3.7-1.628-6.166-7.733-6.77-9.57-1.086-3.034-2.035-7.215-1.135-9.015 1.504-3.022 22.334-19.732 31.817-25.072 8.99-5.031 13.566-4.932 14.367-4.871 14.934-2.466 36.824 6.709 37.749 7.091.678.333 15.946 7.708 21.298 12.222a37.534 37.534 0 0011.617 6.363c.296.123 5.155 2.466 7.461 10.285 1.702 5.735 1.023 12.678-1.566 16.155a5.422 5.422 0 01-4.378 2.393c-5.217 0-22.729-7.486-26.391-9.077-1.505 5.118-10.594 35.875-11.395 37.478a18.351 18.351 0 00-2.195 7.399c-.296 3.934-1.863 4.44-2.183 4.501l-.198.037zm-66.495-17.067a165.754 165.754 0 0128.364 2.848c17.537 3.145 35.764 11.716 38.23 12.888.271-.222.9-.975 1.085-3.306a19.05 19.05 0 012.319-7.83c.666-1.357 8.534-27.859 11.518-37.959l.197-.666.642.284c.209.086 21.075 9.249 26.526 9.249a4.166 4.166 0 003.392-1.899c2.38-3.194 2.972-9.669 1.369-15.07-2.146-7.264-6.672-9.459-6.721-9.484a37.841 37.841 0 01-11.963-6.536c-5.229-4.415-20.841-11.962-20.965-12.049-.123-.086-22.518-9.471-37.12-6.992h-.172c-.087 0-4.538-.407-13.726 4.711-9.742 5.451-30.029 21.976-31.312 24.541-.48.962-.221 4.107 1.234 8.065 1.628 4.502 3.958 7.905 6.166 8.855a13.075 13.075 0 009.113.555l1.234-.456-10.286 30.263.876-.012z" fill="#263238"/><path d="M265.229 302.966l-13.726-3.256.296-1.196 7.695 1.825-5.673-4.106.728-.999 10.68 7.732zM198.916 271l-1.465 4.581 1.174.376 1.466-4.581-1.175-.376zm-2.875 8.996l-8.12 25.383 1.175.376 8.12-25.383-1.175-.376z" fill="#263238"/></svg>