<svg width="129" height="125" fill="none" xmlns="http://www.w3.org/2000/svg"><path d="M72.108 43.973c24.579 10.54 35.653 40.021 24.544 65.93-2.82 6.578-5.497 9.248-7.975 9.988-2.465.736-5.354-.247-9.162-2.743-2.44-1.599-5.023-3.652-7.893-5.933-1.59-1.263-3.267-2.597-5.057-3.962-4.946-3.771-10.595-7.65-17.112-10.445-24.579-10.54-35.653-40.022-24.544-65.93 2.82-6.578 5.497-9.248 7.975-9.988 2.465-.737 5.354.247 9.162 2.743 2.44 1.6 5.023 3.652 7.893 5.933a314.965 314.965 0 005.057 3.962c4.946 3.771 10.595 7.65 17.112 10.445z" stroke="#fff" stroke-width="3"/><path d="M93.341 30.696c14.741 6.32 21.52 23.605 15.076 38.632-1.654 3.858-3.162 5.194-4.384 5.54-1.233.347-2.808-.123-5.13-1.628-1.476-.956-3.027-2.17-4.772-3.535-.978-.766-2.018-1.58-3.14-2.422-3.047-2.29-6.55-4.668-10.593-6.401-14.74-6.32-21.519-23.605-15.075-38.632 1.654-3.858 3.161-5.194 4.384-5.54 1.233-.348 2.808.122 5.13 1.628 1.476.956 3.026 2.17 4.771 3.534.979.766 2.018 1.58 3.14 2.422 3.048 2.29 6.551 4.668 10.593 6.402z" stroke="#fff" stroke-width="3"/></svg>