<svg width="135" height="127" fill="none" xmlns="http://www.w3.org/2000/svg"><path opacity=".1" d="M66.757 127c35.213 0 63.758-28.43 63.758-63.5S101.97 0 66.758 0C31.544 0 3 28.43 3 63.5S31.545 127 66.757 127z" fill="#62AAFF"/><g filter="url(#filter0_d_751_1736)"><path d="M57.93 95.45H46.414a26.468 26.468 0 01-18.678-7.705A26.254 26.254 0 0120 69.143V50.307a26.254 26.254 0 017.736-18.602A26.468 26.468 0 0146.414 24H87.4a26.467 26.467 0 0118.677 7.705 26.252 26.252 0 017.737 18.602v18.836a26.252 26.252 0 01-7.737 18.602A26.467 26.467 0 0187.4 95.45H57.93z" fill="url(#paint0_linear_751_1736)"/><path d="M57.93 95.45H46.414a26.468 26.468 0 01-18.678-7.705A26.254 26.254 0 0120 69.143V50.307a26.254 26.254 0 017.736-18.602A26.468 26.468 0 0146.414 24H87.4a26.467 26.467 0 0118.677 7.705 26.252 26.252 0 017.737 18.602v18.836a26.252 26.252 0 01-7.737 18.602A26.467 26.467 0 0187.4 95.45H57.93z" stroke="#fff"/></g><path d="M29.625 36.008H3m26.625 14.514H16.312" stroke="#FF8562" stroke-width="5" stroke-linecap="round"/><path opacity=".2" d="M79.355 37.789c-18.084-.944-33.193 6.808-33.745 17.314-.553 10.507 13.659 19.79 31.743 20.733 18.085.944 33.193-6.808 33.746-17.314.553-10.507-13.66-19.79-31.744-20.733z" fill="url(#paint1_linear_751_1736)"/><path opacity=".1" d="M52.02 47.522C39.434 60.49 35.39 76.93 42.984 84.242c7.596 7.312 23.956 2.727 36.541-10.24 12.586-12.969 16.632-29.41 9.037-36.721-7.596-7.312-23.956-2.727-36.542 10.24z" fill="url(#paint2_linear_751_1736)"/><path d="M82.572 62.364c1.85-4.412 2.846-9.037 2.846-13.591V45.5c0-.285-.213-.57-.498-.712-6.974-2.277-13.449-5.195-19.355-8.681-.214-.143-.499-.143-.783 0-6.333 4.127-12.808 7.045-19.213 8.61-.284.071-.569.356-.569.712v3.273c0 20.849 19.569 34.014 19.782 34.156.142.07.285.142.427.142.142 0 .284-.071.427-.142.142-.072 2.918-1.922 6.475-5.409 1.78 3.274 5.337 5.55 9.393 5.55 5.764.001 10.532-4.624 10.532-10.317 0-5.337-4.128-9.749-9.464-10.318zm-17.363 19.07c-2.704-1.992-18.715-14.231-18.715-32.661v-2.775c6.262-1.637 12.596-4.483 18.786-8.468 5.693 3.344 11.954 6.19 18.715 8.397v2.775c0 4.625-.997 9.179-2.918 13.59a12.223 12.223 0 00-3.7.783c2.42-4.696 3.629-9.464 3.629-14.373v-.427c0-.285-.213-.57-.498-.712-6.191-2.064-11.101-4.198-14.873-6.689a.77.77 0 00-.782 0c-4.412 2.847-9.394 5.052-14.873 6.69-.284.07-.498.355-.498.71v.428c0 14.303 10.745 24.763 15.3 28.605.142.143.284.143.426.143.143 0 .356-.071.427-.143a51.973 51.973 0 005.195-4.98c0 1.209.142 2.347.57 3.628-2.776 2.918-5.267 4.768-6.192 5.48h.001zm6.12-11.67a44.72 44.72 0 01-6.049 6.12C60.584 71.9 50.907 62.08 50.907 48.844c5.265-1.566 10.104-3.772 14.373-6.476 3.772 2.348 8.468 4.483 14.374 6.404 0 5.337-1.566 10.603-4.554 15.655a10.16 10.16 0 00-3.771 5.337zm10.104 11.812c-5.052 0-9.179-3.984-9.179-8.894s4.127-8.895 9.18-8.895c5.052 0 9.178 3.985 9.178 8.895s-4.127 8.894-9.179 8.894z" fill="#010101"/><path d="M86.13 68.982l-6.618 5.764-2.064-3.203c-.213-.355-.64-.427-.996-.213-.356.213-.427.64-.213.996l2.49 3.914c.143.142.285.285.498.356h.072c.142 0 .355-.071.498-.143l7.258-6.404c.284-.285.356-.712.071-.997-.284-.355-.711-.355-.996-.07zM75.243 56.671c0-5.55-4.483-10.033-10.034-10.033A10.022 10.022 0 0055.175 56.67c0 5.55 4.555 10.034 10.034 10.034 5.55 0 10.034-4.483 10.034-10.034zm-10.034-8.539c4.768 0 8.61 3.843 8.61 8.54 0 1.992-.711 3.842-1.85 5.336-1.067-1.708-2.917-2.775-4.91-2.775h-1.067c2.135-.355 3.772-2.206 3.772-4.412 0-2.49-2.064-4.483-4.555-4.483-2.49 0-4.554 1.993-4.554 4.483 0 2.207 1.637 4.056 3.772 4.412h-1.068c-2.063 0-3.913 1.068-4.91 2.775-1.138-1.494-1.85-3.273-1.85-5.337.07-4.696 3.914-8.539 8.61-8.539zm0 9.749c-1.708 0-3.13-1.352-3.13-3.06s1.422-3.06 3.13-3.06 3.13 1.352 3.13 3.06c.001 1.708-1.422 3.06-3.13 3.06zm-5.693 5.194c.712-1.494 2.206-2.42 3.914-2.42h3.558c1.708 0 3.202.997 3.913 2.492a8.466 8.466 0 01-5.692 2.206c-2.134-.072-4.198-.926-5.693-2.278z" fill="#010101"/><defs><linearGradient id="paint0_linear_751_1736" x1="66.907" y1="24" x2="66.907" y2="104.436" gradientUnits="userSpaceOnUse"><stop stop-color="#fff"/><stop offset="1" stop-color="#fff"/></linearGradient><linearGradient id="paint1_linear_751_1736" x1="77.353" y1="75.837" x2="79.339" y2="37.788" gradientUnits="userSpaceOnUse"><stop stop-color="#fff"/><stop offset="1" stop-color="#fff" stop-opacity="0"/></linearGradient><linearGradient id="paint2_linear_751_1736" x1="79.525" y1="74.001" x2="52.128" y2="47.411" gradientUnits="userSpaceOnUse"><stop stop-color="#fff"/><stop offset="1" stop-color="#fff" stop-opacity="0"/></linearGradient><filter id="filter0_d_751_1736" x="11.5" y="15.5" width="118.815" height="96.45" filterUnits="userSpaceOnUse" color-interpolation-filters="sRGB"><feFlood flood-opacity="0" result="BackgroundImageFix"/><feColorMatrix in="SourceAlpha" values="0 0 0 0 0 0 0 0 0 0 0 0 0 0 0 0 0 0 127 0" result="hardAlpha"/><feOffset dx="4" dy="4"/><feGaussianBlur stdDeviation="6"/><feComposite in2="hardAlpha" operator="out"/><feColorMatrix values="0 0 0 0 0.784314 0 0 0 0 0.784314 0 0 0 0 0.784314 0 0 0 0.25 0"/><feBlend in2="BackgroundImageFix" result="effect1_dropShadow_751_1736"/><feBlend in="SourceGraphic" in2="effect1_dropShadow_751_1736" result="shape"/></filter></defs></svg>