<svg width="135" height="127" fill="none" xmlns="http://www.w3.org/2000/svg"><path opacity=".1" d="M66.757 127c35.213 0 63.758-28.43 63.758-63.5S101.97 0 66.758 0C31.544 0 3 28.43 3 63.5S31.545 127 66.757 127z" fill="#FF8562"/><g filter="url(#filter0_d_292_3748)"><path d="M57.93 95.45H46.414a26.468 26.468 0 01-18.678-7.705A26.254 26.254 0 0120 69.143V50.307a26.254 26.254 0 017.736-18.602A26.468 26.468 0 0146.414 24H87.4a26.467 26.467 0 0118.677 7.705 26.252 26.252 0 017.737 18.602v18.836a26.252 26.252 0 01-7.737 18.602A26.467 26.467 0 0187.4 95.45H57.93z" fill="url(#paint0_linear_292_3748)"/><path d="M57.93 95.45H46.414a26.468 26.468 0 01-18.678-7.705A26.254 26.254 0 0120 69.143V50.307a26.254 26.254 0 017.736-18.602A26.468 26.468 0 0146.414 24H87.4a26.467 26.467 0 0118.677 7.705 26.252 26.252 0 017.737 18.602v18.836a26.252 26.252 0 01-7.737 18.602A26.467 26.467 0 0187.4 95.45H57.93z" stroke="#fff"/></g><path d="M29.625 36.008H3m26.625 14.514H16.313" stroke="#FF8562" stroke-width="5" stroke-linecap="round"/><path opacity=".2" d="M79.355 37.789c-18.084-.944-33.193 6.808-33.745 17.314-.553 10.507 13.659 19.79 31.743 20.733 18.085.944 33.193-6.808 33.746-17.314.553-10.507-13.66-19.79-31.744-20.733z" fill="url(#paint1_linear_292_3748)"/><path opacity=".1" d="M52.02 47.522c-12.586 12.967-16.63 29.408-9.036 36.72C50.58 91.554 66.94 86.969 79.525 74c12.586-12.968 16.632-29.408 9.037-36.72-7.596-7.312-23.956-2.727-36.542 10.24z" fill="url(#paint2_linear_292_3748)"/><path d="M58.71 74.77v1.819c0 .436.29.727.724.727h12.948c.433 0 .723-.29.723-.727v-1.82c0-2.691-2.098-4.947-4.774-5.092 1.157-.8 1.88-2.038 1.88-3.493 0-2.328-1.88-4.22-4.268-4.22-2.314 0-4.267 1.892-4.267 4.22 0 1.455.723 2.765 1.88 3.493-2.675.145-4.846 2.328-4.846 5.093zm7.234-11.423c1.519 0 2.821 1.237 2.821 2.765s-1.23 2.764-2.82 2.764c-1.52 0-2.822-1.236-2.822-2.764 0-1.528 1.23-2.765 2.821-2.765zm-2.17 7.785h4.195c2.026 0 3.617 1.674 3.617 3.638v1.091H60.157v-1.09c0-2.038 1.591-3.639 3.617-3.639zm-6.655-13.388c0-2.328-1.88-4.22-4.268-4.22-2.315 0-4.268 1.892-4.268 4.22 0 1.455.723 2.765 1.88 3.493-2.675.218-4.845 2.4-4.845 5.166v1.819c0 .436.289.727.723.727h12.948c.434 0 .723-.29.723-.727v-1.82c0-2.691-2.098-4.947-4.774-5.093 1.085-.8 1.88-2.037 1.88-3.565zm1.447 8.659v1.09l-11.501.001v-1.091a3.638 3.638 0 013.616-3.638h4.196c2.025 0 3.689 1.6 3.689 3.638zm-5.715-5.82c-1.519 0-2.82-1.238-2.82-2.766 0-1.527 1.229-2.764 2.82-2.764 1.592 0 2.821 1.237 2.821 2.764 0 1.528-1.302 2.765-2.82 2.765zm18.88 5.82v1.819c0 .436.29.727.724.727h12.947c.434 0 .724-.29.724-.727v-1.82c0-2.691-2.098-4.947-4.775-5.093 1.158-.8 1.881-2.037 1.881-3.565 0-2.328-1.88-4.22-4.267-4.22-2.315 0-4.268 1.892-4.268 4.22 0 1.455.723 2.765 1.88 3.493-2.676.218-4.846 2.4-4.846 5.166zm7.234-11.423c1.519 0 2.82 1.237 2.82 2.765 0 1.527-1.23 2.764-2.82 2.764-1.52 0-2.821-1.237-2.821-2.764 0-1.528 1.302-2.765 2.82-2.765zm-2.098 7.785h4.195c2.026 0 3.617 1.673 3.617 3.638v1.091H73.178v-1.09c0-2.038 1.664-3.64 3.689-3.64zM57.77 52.869v2.692c0 .436.29.727.724.727H73.25c.434 0 .724-.29.724-.727v-2.692c0-2.838-2.315-5.093-5.064-5.093h-.868c1.591-.8 2.604-2.401 2.604-4.293 0-2.62-2.097-4.73-4.774-4.73-2.604 0-4.774 2.11-4.774 4.73a4.854 4.854 0 002.605 4.293h-.941c-2.75-.073-4.992 2.255-4.992 5.093zm4.847-9.386c0-1.819 1.447-3.274 3.328-3.274 1.808 0 3.327 1.455 3.327 3.274 0 1.82-1.447 3.275-3.328 3.275-1.808 0-3.327-1.456-3.327-3.275zm9.91 9.386v1.964h-13.31V52.87a3.638 3.638 0 013.617-3.638h6.076c2.025-.073 3.617 1.6 3.617 3.638z" fill="#262626"/><path d="M68.476 36.135c-5.57-.582-11.067.727-15.697 3.783l1.013-2.619c.145-.364-.073-.8-.434-.946-.362-.146-.796.073-.94.437l-1.81 4.874c-.072.291 0 .437.073.655.145.218.362.364.58.364l5.352.218a.727.727 0 00.723-.728c0-.436-.29-.727-.723-.727l-3.328-.146c4.485-2.982 9.693-4.292 15.046-3.71 12.297 1.382 21.193 12.515 19.82 24.884-.507 4.947-2.605 9.458-6.004 13.096a.707.707 0 000 1.018.697.697 0 001.013 0c3.617-3.856 5.859-8.658 6.438-13.896 1.446-13.242-8.03-25.102-21.122-26.557zM80.99 77.753c-.145-.219-.29-.291-.506-.364l-4.775-.364a.849.849 0 00-.795.655.79.79 0 00.65.8l2.822.218c-4.413 2.983-9.62 4.293-14.902 3.71C51.115 81.1 42.22 69.896 43.592 57.527c.507-4.802 2.532-9.313 5.787-12.805.29-.291.29-.728-.072-1.019-.29-.29-.723-.29-1.013.073-3.472 3.71-5.57 8.44-6.148 13.606-1.447 13.169 8.029 25.028 21.122 26.484 5.642.582 11.067-.727 15.697-3.783l-.796 2.328c-.145.364.072.8.434.946.362.146.796-.073.94-.436l1.52-4.511c.072-.219 0-.437-.073-.656z" fill="#262626"/><defs><linearGradient id="paint0_linear_292_3748" x1="66.907" y1="24" x2="66.907" y2="104.436" gradientUnits="userSpaceOnUse"><stop stop-color="#fff"/><stop offset="1" stop-color="#fff"/></linearGradient><linearGradient id="paint1_linear_292_3748" x1="77.353" y1="75.836" x2="79.339" y2="37.788" gradientUnits="userSpaceOnUse"><stop stop-color="#fff"/><stop offset="1" stop-color="#fff" stop-opacity="0"/></linearGradient><linearGradient id="paint2_linear_292_3748" x1="79.525" y1="74.001" x2="52.128" y2="47.411" gradientUnits="userSpaceOnUse"><stop stop-color="#fff"/><stop offset="1" stop-color="#fff" stop-opacity="0"/></linearGradient><filter id="filter0_d_292_3748" x="11.5" y="15.5" width="118.815" height="96.45" filterUnits="userSpaceOnUse" color-interpolation-filters="sRGB"><feFlood flood-opacity="0" result="BackgroundImageFix"/><feColorMatrix in="SourceAlpha" values="0 0 0 0 0 0 0 0 0 0 0 0 0 0 0 0 0 0 127 0" result="hardAlpha"/><feOffset dx="4" dy="4"/><feGaussianBlur stdDeviation="6"/><feComposite in2="hardAlpha" operator="out"/><feColorMatrix values="0 0 0 0 0.784314 0 0 0 0 0.784314 0 0 0 0 0.784314 0 0 0 0.25 0"/><feBlend in2="BackgroundImageFix" result="effect1_dropShadow_292_3748"/><feBlend in="SourceGraphic" in2="effect1_dropShadow_292_3748" result="shape"/></filter></defs></svg>