<svg width="135" height="127" fill="none" xmlns="http://www.w3.org/2000/svg"><path opacity=".1" d="M66.757 127c35.213 0 63.758-28.43 63.758-63.5S101.97 0 66.758 0C31.544 0 3 28.43 3 63.5S31.545 127 66.757 127z" fill="#65FF62"/><g filter="url(#filter0_d_751_1737)"><path d="M57.93 95.45H46.414a26.468 26.468 0 01-18.678-7.705A26.254 26.254 0 0120 69.143V50.307a26.254 26.254 0 017.736-18.602A26.468 26.468 0 0146.414 24H87.4a26.467 26.467 0 0118.677 7.705 26.252 26.252 0 017.737 18.602v18.836a26.252 26.252 0 01-7.737 18.602A26.467 26.467 0 0187.4 95.45H57.93z" fill="url(#paint0_linear_751_1737)"/><path d="M57.93 95.45H46.414a26.468 26.468 0 01-18.678-7.705A26.254 26.254 0 0120 69.143V50.307a26.254 26.254 0 017.736-18.602A26.468 26.468 0 0146.414 24H87.4a26.467 26.467 0 0118.677 7.705 26.252 26.252 0 017.737 18.602v18.836a26.252 26.252 0 01-7.737 18.602A26.467 26.467 0 0187.4 95.45H57.93z" stroke="#fff"/></g><path d="M29.625 36.008H3m26.625 14.514H16.312" stroke="#FF8562" stroke-width="5" stroke-linecap="round"/><path opacity=".2" d="M79.355 37.789c-18.084-.944-33.193 6.808-33.745 17.314-.553 10.507 13.659 19.79 31.743 20.733 18.085.944 33.193-6.808 33.746-17.314.553-10.507-13.66-19.79-31.744-20.733z" fill="url(#paint1_linear_751_1737)"/><path opacity=".1" d="M52.02 47.522C39.434 60.49 35.39 76.93 42.984 84.242c7.596 7.312 23.956 2.727 36.541-10.24 12.586-12.969 16.632-29.41 9.037-36.721-7.596-7.312-23.956-2.727-36.542 10.24z" fill="url(#paint2_linear_751_1737)"/><path d="M75.51 47.235a.697.697 0 00-.974.177L62.58 64.691l-8.495-5.879a.697.697 0 00-.974.177L49.6 64.063a.7.7 0 00.177.975l14.144 9.788a.701.701 0 00.974-.178l15.868-22.927a.7.7 0 00-.178-.975l-5.073-3.511zm-11.368 26.04l-12.993-8.99 2.714-3.923 8.495 5.878c.318.22.754.141.975-.177L75.29 48.784l3.921 2.714-15.07 21.778z" fill="#000"/><path d="M88.854 41.404a.7.7 0 00-.138-.943l-5.05-4.064a.697.697 0 00-.693-.106c-10.75 4.181-16.498-2.74-16.742-3.042-.265-.332-.827-.332-1.094 0-.058.074-5.952 7.24-16.742 3.041a.697.697 0 00-.693.107l-5.05 4.064a.702.702 0 00-.137.943c.048.07 4.802 7.08 2.451 12.508-1.874 4.326-6.262 14.458 1.356 24.286 4.063 5.243 8.854 6.441 12.704 7.403 2.773.694 4.962 1.241 6.059 3.06a.7.7 0 001.199 0c1.096-1.819 3.286-2.366 6.058-3.06 3.85-.962 8.64-2.16 12.704-7.403 7.618-9.828 3.23-19.959 1.356-24.286-2.347-5.416 2.404-12.438 2.452-12.508zM83.94 77.34c-3.767 4.86-8.108 5.945-11.937 6.902-2.58.646-4.853 1.214-6.319 2.876-1.466-1.662-3.74-2.23-6.32-2.876-3.828-.957-8.168-2.041-11.935-6.902-6.265-8.084-4.111-16.098-1.176-22.872 2.275-5.252-1.086-11.446-2.231-13.31l4.246-3.418c9.585 3.543 15.627-1.277 17.412-3.026.713.713 2.124 1.935 4.21 2.9 2.765 1.278 7.282 2.318 13.21.126l4.248 3.418c-1.146 1.866-4.506 8.059-2.232 13.31 2.935 6.773 5.09 14.788-1.176 22.872z" fill="#000"/><defs><linearGradient id="paint0_linear_751_1737" x1="66.907" y1="24" x2="66.907" y2="104.436" gradientUnits="userSpaceOnUse"><stop stop-color="#fff"/><stop offset="1" stop-color="#fff"/></linearGradient><linearGradient id="paint1_linear_751_1737" x1="77.353" y1="75.837" x2="79.339" y2="37.788" gradientUnits="userSpaceOnUse"><stop stop-color="#fff"/><stop offset="1" stop-color="#fff" stop-opacity="0"/></linearGradient><linearGradient id="paint2_linear_751_1737" x1="79.525" y1="74.001" x2="52.128" y2="47.411" gradientUnits="userSpaceOnUse"><stop stop-color="#fff"/><stop offset="1" stop-color="#fff" stop-opacity="0"/></linearGradient><filter id="filter0_d_751_1737" x="11.5" y="15.5" width="118.815" height="96.45" filterUnits="userSpaceOnUse" color-interpolation-filters="sRGB"><feFlood flood-opacity="0" result="BackgroundImageFix"/><feColorMatrix in="SourceAlpha" values="0 0 0 0 0 0 0 0 0 0 0 0 0 0 0 0 0 0 127 0" result="hardAlpha"/><feOffset dx="4" dy="4"/><feGaussianBlur stdDeviation="6"/><feComposite in2="hardAlpha" operator="out"/><feColorMatrix values="0 0 0 0 0.784314 0 0 0 0 0.784314 0 0 0 0 0.784314 0 0 0 0.25 0"/><feBlend in2="BackgroundImageFix" result="effect1_dropShadow_751_1737"/><feBlend in="SourceGraphic" in2="effect1_dropShadow_751_1737" result="shape"/></filter></defs></svg>