<svg width="1920" height="963" fill="none" xmlns="http://www.w3.org/2000/svg"><path opacity=".2" fill-rule="evenodd" clip-rule="evenodd" d="M2006.04 907.576c-91.03 33.263-327.42 83.471-544.75 18.211-67.95-20.402-94.15-49.119-101.11-81.023-3.47-15.93-2.14-32.617 1.15-49.395 2.36-12.113 5.75-24.294 9.09-36.28v-.006c1.28-4.608 2.56-9.186 3.76-13.721 8.69-32.722 13.78-63.132-7.16-86.271-10.47-11.579-27.5-21.373-53.94-28.708-26.45-7.335-62.29-12.204-110.37-13.95-144.82-5.261-244.117 22.868-328.145 46.672-27.568 7.809-53.493 15.153-78.842 20.699-51.306 11.226-100.242 15.08-155.626.484-55.379-14.594-117.176-47.627-194.222-110.122-76.977-62.439-141.336-81.617-198.862-76.77-57.545 4.85-108.312 33.742-158.104 67.578-12.043 8.183-24.03 16.657-36.04 25.148l-.005.003c-37.626 26.599-75.493 53.368-116.082 71.927-53.572 24.496-111.921 34.71-180.803 11.425l.204-.626c68.688 23.22 126.862 13.043 180.318-11.4 40.529-18.532 78.325-45.251 115.94-71.841 12.022-8.498 24.025-16.983 36.092-25.184 49.804-33.843 100.691-62.823 158.416-67.688 57.741-4.866 122.265 14.401 199.338 76.917 77.003 62.461 138.715 95.433 193.97 109.995 55.249 14.56 104.072 10.722 155.317-.491 25.301-5.536 51.196-12.872 78.745-20.676 84.041-23.808 183.471-51.975 328.401-46.71 48.11 1.747 84.01 6.619 110.53 13.973 26.51 7.354 43.67 17.197 54.26 28.906 21.21 23.438 15.99 54.207 7.31 86.887-1.21 4.548-2.49 9.133-3.77 13.743v.009c-3.33 11.979-6.71 24.125-9.08 36.213-3.27 16.738-4.59 33.324-1.14 49.127 6.88 31.563 32.8 60.155 100.64 80.523 217.15 65.205 453.38 15.036 544.34-18.198l.23.62zm-516.09-21.152c217.34 65.26 453.72 15.052 544.75-18.21l-.23-.621c-90.96 33.234-327.19 83.403-544.34 18.199-67.83-20.369-93.76-48.961-100.64-80.524-3.45-15.803-2.13-32.389 1.15-49.126 2.36-12.089 5.74-24.234 9.07-36.213v-.01l.01-.008c1.28-4.607 2.55-9.189 3.76-13.735 8.68-32.68 13.9-63.449-7.31-86.887-10.59-11.709-27.75-21.552-54.26-28.905-26.52-7.355-62.42-12.226-110.52-13.974-144.94-5.265-244.368 22.903-328.41 46.711-27.548 7.804-53.443 15.139-78.745 20.675-51.244 11.213-100.067 15.051-155.316.491-55.255-14.562-116.967-47.534-193.971-109.995-77.072-62.516-141.596-81.782-199.338-76.916-57.724 4.864-108.612 33.844-158.415 67.687-12.068 8.201-24.07 16.686-36.093 25.184-37.614 26.59-75.41 53.309-115.939 71.841-53.457 24.443-111.63 34.621-180.318 11.4l-.204.626c68.882 23.286 127.23 13.071 180.803-11.425C6.033 604.13 43.9 577.361 81.525 550.763v-.001l.005-.003.001-.001c12.011-8.49 23.998-16.964 36.04-25.147 49.792-33.835 100.559-62.728 158.103-67.577 57.527-4.848 121.885 14.33 198.863 76.769 77.046 62.496 138.843 95.528 194.221 110.122 55.385 14.596 104.321 10.742 155.627-.483 25.349-5.547 51.273-12.891 78.841-20.7 84.029-23.804 183.324-51.933 328.144-46.672 48.08 1.747 83.92 6.615 110.37 13.95 26.45 7.335 43.47 17.129 53.95 28.709 20.93 23.138 15.85 53.548 7.15 86.27-1.2 4.535-2.48 9.113-3.76 13.721v.008c-3.33 11.985-6.72 24.166-9.09 36.279-3.28 16.777-4.62 33.464-1.15 49.394 6.96 31.904 33.16 60.621 101.11 81.023zm573.41-57.578c-91.03 33.262-327.42 83.47-544.75 18.21-67.95-20.402-94.15-49.119-101.11-81.023-3.47-15.93-2.13-32.617 1.15-49.394 2.37-12.113 5.75-24.295 9.09-36.281v-.006c1.28-4.607 2.56-9.186 3.76-13.721 8.69-32.722 13.78-63.132-7.16-86.27-10.47-11.58-27.49-21.374-53.94-28.709-26.45-7.335-62.29-12.203-110.37-13.95-144.82-5.261-244.12 22.868-328.144 46.672-27.569 7.809-53.493 15.153-78.842 20.7-51.306 11.225-100.242 15.079-155.626.483-55.379-14.594-117.176-47.626-194.222-110.122-76.986-62.446-141.298-86.458-198.75-88.841-57.458-2.383-108.102 16.866-157.763 41.041-13.65 6.644-27.225 13.662-40.847 20.703l-.003.002c-85.465 44.18-172.752 89.301-291.547 49.142l.204-.625C-67 556.92 20.024 511.941 105.493 467.766l.001-.001h.001c13.63-7.045 27.22-14.069 40.893-20.725 49.687-24.188 100.451-43.496 158.077-41.106 57.632 2.39 122.079 26.481 199.143 88.991 77.003 62.46 138.715 95.432 193.97 109.994 55.249 14.56 104.072 10.722 155.317-.491 25.301-5.536 51.196-12.871 78.745-20.675 84.04-23.808 183.47-51.976 328.4-46.711 48.11 1.748 84.01 6.62 110.53 13.974 26.51 7.353 43.67 17.196 54.26 28.905 21.21 23.438 15.99 54.207 7.31 86.888a1114.34 1114.34 0 01-3.77 13.743v.018c-3.33 11.976-6.71 24.119-9.08 36.204-3.27 16.737-4.59 33.323-1.14 49.126 6.88 31.563 32.8 60.155 100.64 80.524 217.15 65.204 453.38 15.035 544.34-18.199l.23.621zm28.66-39.359c-91.03 33.262-327.41 83.47-544.75 18.21-67.95-20.402-94.15-49.119-101.11-81.023-3.47-15.93-2.13-32.617 1.15-49.394 2.37-12.113 5.76-24.295 9.09-36.281v-.006c1.28-4.607 2.56-9.186 3.76-13.721 8.69-32.722 13.78-63.132-7.15-86.27-10.48-11.579-27.5-21.374-53.95-28.709-26.45-7.335-62.29-12.203-110.37-13.95-147.7-5.366-248.13 26.149-333.31 52.881-25.733 8.075-50.076 15.714-73.911 21.768-51.365 13.046-100.364 18.723-155.798 5.493-55.429-13.229-117.259-45.353-194.306-107.849-76.994-62.453-141.276-92.083-198.677-102.872-57.4-10.788-107.953-2.742-157.509 10.214-16.448 4.3-32.788 9.142-49.231 14.015-82.629 24.486-167.882 49.751-282.719 10.93l.205-.625c114.622 38.748 199.66 13.551 282.279-10.929l.003-.001c16.454-4.875 32.812-9.722 49.288-14.03 49.598-12.967 100.26-21.037 157.798-10.223 57.538 10.814 121.919 40.507 198.975 103.01 77.002 62.459 138.742 94.52 194.039 107.718 55.292 13.196 104.175 7.54 155.483-5.491 23.793-6.043 48.108-13.674 73.824-21.745 85.197-26.735 185.757-58.294 333.587-52.924 48.1 1.748 84 6.62 110.52 13.974 26.51 7.353 43.67 17.196 54.26 28.905 21.21 23.438 15.99 54.207 7.31 86.888-1.21 4.544-2.48 9.126-3.76 13.733l-.01.01v.015c-3.33 11.977-6.71 24.121-9.07 36.207-3.28 16.737-4.6 33.323-1.15 49.127 6.88 31.563 32.8 60.154 100.64 80.523 217.15 65.204 453.38 15.035 544.34-18.199l.23.621z" fill="url(#paint0_linear_751_1747)"/><path d="M1677.15 237.9c-55.58 2.311 21.99 3.317 0 0 26.77-46.356 139.2-223.09 117.21-226.406-21.99-3.317-102.09 33.352-128.86 79.709 15.57 37.589-10.34 143.381 11.65 146.697zm36.86-5.205c-27.82-14.555 9.81 7.826 0 0 26.16-15.103 130.97-69.752 121.16-77.577-9.81-7.825-59.3-12.507-85.46 2.597-3 22.762-45.51 67.155-35.7 74.98z" fill="#F3F5F9"/><defs><linearGradient id="paint0_linear_751_1747" x1="24.622" y1="505.181" x2="2072.03" y2="505.181" gradientUnits="userSpaceOnUse"><stop offset=".31" stop-color="#252525"/><stop offset=".594" stop-color="#141414" stop-opacity=".9"/><stop offset=".852" stop-opacity=".8"/></linearGradient></defs></svg>