<svg width="135" height="127" fill="none" xmlns="http://www.w3.org/2000/svg"><path opacity=".1" d="M66.757 127c35.213 0 63.758-28.43 63.758-63.5S101.97 0 66.758 0C31.544 0 3 28.43 3 63.5S31.545 127 66.757 127z" fill="#65FF62"/><g filter="url(#filter0_d_751_1734)"><path d="M57.93 95.45H46.414a26.468 26.468 0 01-18.678-7.705A26.254 26.254 0 0120 69.143V50.307a26.254 26.254 0 017.736-18.602A26.468 26.468 0 0146.414 24H87.4a26.467 26.467 0 0118.677 7.705 26.252 26.252 0 017.737 18.602v18.836a26.252 26.252 0 01-7.737 18.602A26.467 26.467 0 0187.4 95.45H57.93z" fill="url(#paint0_linear_751_1734)"/><path d="M57.93 95.45H46.414a26.468 26.468 0 01-18.678-7.705A26.254 26.254 0 0120 69.143V50.307a26.254 26.254 0 017.736-18.602A26.468 26.468 0 0146.414 24H87.4a26.467 26.467 0 0118.677 7.705 26.252 26.252 0 017.737 18.602v18.836a26.252 26.252 0 01-7.737 18.602A26.467 26.467 0 0187.4 95.45H57.93z" stroke="#fff"/></g><path d="M29.625 36.008H3m26.625 14.514H16.312" stroke="#FF8562" stroke-width="5" stroke-linecap="round"/><path opacity=".2" d="M79.355 37.789c-18.084-.944-33.193 6.808-33.745 17.314-.553 10.507 13.659 19.79 31.743 20.733 18.085.944 33.193-6.808 33.746-17.314.553-10.507-13.66-19.79-31.744-20.733z" fill="url(#paint1_linear_751_1734)"/><path opacity=".1" d="M52.02 47.522c-12.586 12.967-16.63 29.408-9.036 36.72C50.58 91.554 66.94 86.969 79.525 74c12.586-12.968 16.632-29.408 9.037-36.72-7.596-7.312-23.956-2.727-36.542 10.24z" fill="url(#paint2_linear_751_1734)"/><path d="M70.895 60.578a4.4 4.4 0 00-4.395-4.394 4.4 4.4 0 00-4.394 4.394 4.4 4.4 0 004.394 4.394 4.4 4.4 0 004.395-4.394zm-7.614 0a3.223 3.223 0 013.22-3.219 3.223 3.223 0 013.219 3.22 3.223 3.223 0 01-3.22 3.218 3.223 3.223 0 01-3.219-3.219zM63.136 84h6.728a.588.588 0 00.588-.588v-3.24h2.579a.587.587 0 00.578-.688L71.834 69.23a2.588 2.588 0 00-2.552-2.212h-5.564c-1.275 0-2.372.951-2.549 2.195l-1.778 10.271a.587.587 0 00.578.688h2.579v3.24c0 .325.263.588.588.588zm-2.468-5.003l1.662-9.601a1.408 1.408 0 011.388-1.203h5.564c.694 0 1.29.517 1.391 1.22l1.66 9.584h-2.468a.588.588 0 00-.588.588v3.24h-5.554v-3.24a.587.587 0 00-.588-.588h-2.467zm-6.156-18.419a4.4 4.4 0 00-4.395-4.394 4.399 4.399 0 00-4.393 4.394 4.399 4.399 0 004.394 4.394 4.399 4.399 0 004.394-4.394zm-7.613 0a3.223 3.223 0 013.219-3.219 3.223 3.223 0 013.219 3.22 3.223 3.223 0 01-3.22 3.218 3.223 3.223 0 01-3.218-3.219zM46.754 84h6.728a.588.588 0 00.588-.588v-3.24h2.579a.586.586 0 00.579-.688L55.452 69.23a2.59 2.59 0 00-2.552-2.21h-5.564c-1.274 0-2.372.95-2.549 2.193L43.01 79.484a.586.586 0 00.579.688h2.578v3.24c0 .325.263.588.588.588zm-2.468-5.003l1.662-9.601a1.408 1.408 0 011.388-1.203H52.9c.694 0 1.29.517 1.391 1.22l1.66 9.584h-2.469a.588.588 0 00-.587.588v3.24H47.34v-3.24a.587.587 0 00-.588-.588h-2.467zm42.991-18.419a4.399 4.399 0 00-4.394-4.394 4.4 4.4 0 00-4.394 4.394 4.4 4.4 0 004.394 4.394 4.398 4.398 0 004.394-4.394zm-7.613 0a3.223 3.223 0 013.22-3.219 3.223 3.223 0 013.218 3.22 3.223 3.223 0 01-3.219 3.218 3.223 3.223 0 01-3.219-3.219zM79.519 84h6.728a.588.588 0 00.588-.588v-3.24h2.578a.586.586 0 00.579-.688L88.216 69.23a2.59 2.59 0 00-2.551-2.21H80.1c-1.275 0-2.372.95-2.549 2.193l-1.779 10.272a.586.586 0 00.58.687h2.578v3.241c0 .325.263.588.588.588zm-2.469-5.003l1.663-9.601a1.408 1.408 0 011.388-1.203h5.564c.693 0 1.29.517 1.391 1.22l1.66 9.584h-2.468a.588.588 0 00-.588.588v3.24h-5.554v-3.24a.587.587 0 00-.587-.588H77.05zm-2.145-26.502V41.788a.587.587 0 00-.588-.588h-3.573v-3.612a.587.587 0 00-.587-.588h-7.313a.588.588 0 00-.587.588V41.2h-3.573a.588.588 0 00-.588.587v10.708c0 .324.263.588.588.588h15.633a.588.588 0 00.588-.588zm-11.473-14.32h6.137v3.024h-6.137v-3.025zm10.298 4.199v3.232H59.272v-3.232H73.73zm-14.458 9.533V46.78H73.73v5.126H59.272z" fill="#262626"/><defs><linearGradient id="paint0_linear_751_1734" x1="66.907" y1="24" x2="66.907" y2="104.436" gradientUnits="userSpaceOnUse"><stop stop-color="#fff"/><stop offset="1" stop-color="#fff"/></linearGradient><linearGradient id="paint1_linear_751_1734" x1="77.353" y1="75.836" x2="79.339" y2="37.788" gradientUnits="userSpaceOnUse"><stop stop-color="#fff"/><stop offset="1" stop-color="#fff" stop-opacity="0"/></linearGradient><linearGradient id="paint2_linear_751_1734" x1="79.525" y1="74.001" x2="52.128" y2="47.411" gradientUnits="userSpaceOnUse"><stop stop-color="#fff"/><stop offset="1" stop-color="#fff" stop-opacity="0"/></linearGradient><filter id="filter0_d_751_1734" x="11.5" y="15.5" width="118.815" height="96.45" filterUnits="userSpaceOnUse" color-interpolation-filters="sRGB"><feFlood flood-opacity="0" result="BackgroundImageFix"/><feColorMatrix in="SourceAlpha" values="0 0 0 0 0 0 0 0 0 0 0 0 0 0 0 0 0 0 127 0" result="hardAlpha"/><feOffset dx="4" dy="4"/><feGaussianBlur stdDeviation="6"/><feComposite in2="hardAlpha" operator="out"/><feColorMatrix values="0 0 0 0 0.784314 0 0 0 0 0.784314 0 0 0 0 0.784314 0 0 0 0.25 0"/><feBlend in2="BackgroundImageFix" result="effect1_dropShadow_751_1734"/><feBlend in="SourceGraphic" in2="effect1_dropShadow_751_1734" result="shape"/></filter></defs></svg>