<svg width="135" height="127" fill="none" xmlns="http://www.w3.org/2000/svg"><path opacity=".1" d="M66.757 127c35.213 0 63.758-28.43 63.758-63.5S101.97 0 66.758 0C31.544 0 3 28.43 3 63.5S31.545 127 66.757 127z" fill="#62AAFF"/><g filter="url(#filter0_d_751_1733)"><path d="M57.93 95.45H46.414a26.468 26.468 0 01-18.678-7.705A26.254 26.254 0 0120 69.143V50.307a26.254 26.254 0 017.736-18.602A26.468 26.468 0 0146.414 24H87.4a26.467 26.467 0 0118.677 7.705 26.252 26.252 0 017.737 18.602v18.836a26.252 26.252 0 01-7.737 18.602A26.467 26.467 0 0187.4 95.45H57.93z" fill="url(#paint0_linear_751_1733)"/><path d="M57.93 95.45H46.414a26.468 26.468 0 01-18.678-7.705A26.254 26.254 0 0120 69.143V50.307a26.254 26.254 0 017.736-18.602A26.468 26.468 0 0146.414 24H87.4a26.467 26.467 0 0118.677 7.705 26.252 26.252 0 017.737 18.602v18.836a26.252 26.252 0 01-7.737 18.602A26.467 26.467 0 0187.4 95.45H57.93z" stroke="#fff"/></g><path d="M29.625 36.008H3m26.625 14.514H16.312" stroke="#FF8562" stroke-width="5" stroke-linecap="round"/><path opacity=".2" d="M79.355 37.789c-18.084-.944-33.193 6.808-33.745 17.314-.553 10.507 13.659 19.79 31.743 20.733 18.085.944 33.193-6.808 33.746-17.314.553-10.507-13.66-19.79-31.744-20.733z" fill="url(#paint1_linear_751_1733)"/><path opacity=".1" d="M52.02 47.522c-12.586 12.967-16.63 29.408-9.036 36.72C50.58 91.554 66.94 86.969 79.525 74c12.586-12.968 16.632-29.408 9.037-36.72-7.596-7.312-23.956-2.727-36.542 10.24z" fill="url(#paint2_linear_751_1733)"/><path d="M91.633 70.848c-.104-.156-2.4-3.598-8.397-2.242-3.546.834-6.415 1.72-7.98 2.294a2.963 2.963 0 00-2.816-2.607l-21.852-4.277v-1.252a.824.824 0 00-.835-.835h-8.918a.824.824 0 00-.835.835v17.107c0 .47.365.835.835.835h8.918c.47 0 .835-.366.835-.835v-1.825C53.926 79.4 63.47 83 68.425 83c5.997 0 22.27-10.535 22.948-11.005.417-.208.521-.73.26-1.147zm-49.912 8.188V63.651h7.198v15.333H41.72v.052zm26.703 2.295c-4.954 0-15.385-4.12-17.836-5.059V65.79l21.696 4.225c.73 0 1.304.573 1.304 1.303s-.574 1.304-1.304 1.304H60.132a.824.824 0 00-.835.835c0 .47.366.834.835.834h12.204c1.043 0 1.982-.573 2.556-1.408.938-.365 4.276-1.616 8.814-2.66 3.233-.73 5.111.209 5.945.887-3.494 2.243-16.428 10.222-21.226 10.222zm20.549-39.794a.62.62 0 00-.625-.521h-7.823v-3.39a.634.634 0 00-.626-.626h-9.284a.634.634 0 00-.625.626v3.442h-7.824a.602.602 0 00-.625.626v19.662c0 .365.26.626.625.626H88.4a.603.603 0 00.626-.626V41.694c0-.052 0-.104-.053-.157zm-17.732-.469v-2.816h7.98v2.816h-7.98zm2.347 14.708h3.338a.602.602 0 00.625-.626v-1.304c2.4-.208 6.885-.887 10.17-3.442V60.73H62.74V50.404c3.234 2.555 7.72 3.233 10.17 3.442v1.304c0 .312.314.626.679.626zM76.3 50.35v4.12h-2.086v-4.12H76.3zm8.605.313c-2.034 1.043-4.537 1.67-7.354 1.878v-2.816a.602.602 0 00-.626-.626h-3.442a.62.62 0 00-.522.626v2.816c-2.816-.209-5.267-.835-7.3-1.878-1.618-.834-2.504-1.669-2.87-1.982V42.32h24.983v6.363c-.365.313-1.252 1.147-2.869 1.981z" fill="#262626"/><defs><linearGradient id="paint0_linear_751_1733" x1="66.907" y1="24" x2="66.907" y2="104.436" gradientUnits="userSpaceOnUse"><stop stop-color="#fff"/><stop offset="1" stop-color="#fff"/></linearGradient><linearGradient id="paint1_linear_751_1733" x1="77.353" y1="75.836" x2="79.339" y2="37.788" gradientUnits="userSpaceOnUse"><stop stop-color="#fff"/><stop offset="1" stop-color="#fff" stop-opacity="0"/></linearGradient><linearGradient id="paint2_linear_751_1733" x1="79.525" y1="74.001" x2="52.128" y2="47.411" gradientUnits="userSpaceOnUse"><stop stop-color="#fff"/><stop offset="1" stop-color="#fff" stop-opacity="0"/></linearGradient><filter id="filter0_d_751_1733" x="11.5" y="15.5" width="118.815" height="96.45" filterUnits="userSpaceOnUse" color-interpolation-filters="sRGB"><feFlood flood-opacity="0" result="BackgroundImageFix"/><feColorMatrix in="SourceAlpha" values="0 0 0 0 0 0 0 0 0 0 0 0 0 0 0 0 0 0 127 0" result="hardAlpha"/><feOffset dx="4" dy="4"/><feGaussianBlur stdDeviation="6"/><feComposite in2="hardAlpha" operator="out"/><feColorMatrix values="0 0 0 0 0.784314 0 0 0 0 0.784314 0 0 0 0 0.784314 0 0 0 0.25 0"/><feBlend in2="BackgroundImageFix" result="effect1_dropShadow_751_1733"/><feBlend in="SourceGraphic" in2="effect1_dropShadow_751_1733" result="shape"/></filter></defs></svg>