<svg width="458" height="441" fill="none" xmlns="http://www.w3.org/2000/svg"><path d="M285.078 164.088s0-7.074-9.907-16.981c-9.908-9.908-16.278-15.554-16.278-15.554s-4.964 16.278 4.198 26.185c9.162 9.908 21.945 19.112 21.945 19.112l.042-12.762zm-14.389 44.226s0-7.084-9.907-16.991c-9.908-9.908-16.278-15.575-16.278-15.575s-4.954 16.289 4.25 26.238c9.205 9.949 21.935 19.101 21.935 19.101v-12.773z" fill="#FF8562"/><path d="M284.448 176.168s.756-7.042 11.65-15.848c10.894-8.805 17.842-13.759 17.842-13.759s3.211 16.708-6.99 25.587c-10.201 8.879-23.813 16.687-23.813 16.687l1.311-12.667zm-17.369 52.192s1.48-6.916 13.245-14.525c11.765-7.609 19.185-11.818 19.185-11.818s1.427 16.95-9.645 24.717c-11.073 7.766-25.451 14.084-25.451 14.084l2.666-12.458zm3.264 56.916s0-7.074 9.907-16.982c9.908-9.907 16.278-15.574 16.278-15.574s4.954 16.278-4.198 26.185c-9.151 9.907-21.945 19.112-21.945 19.112l-.042-12.741z" fill="#FF8562"/><path d="M270.175 299.171s1.049-7.01-7.347-18.219c-8.396-11.209-13.906-17.726-13.906-17.726s-7.21 15.406.483 26.521c7.693 11.114 19.007 22.04 19.007 22.04l1.763-12.616zm-9.76 41.172s0-7.084 9.907-16.992c9.907-9.907 16.278-15.564 16.278-15.564s4.954 16.278-4.251 26.185c-9.204 9.908-21.934 19.102-21.934 19.102v-12.731zm6.611 37.321s-1.794-6.843 5.248-18.944c7.042-12.101 11.807-19.185 11.807-19.185s8.921 14.494 2.529 26.406c-6.391 11.912-16.393 24.044-16.393 24.044l-3.191-12.321z" fill="#FF8562"/><path d="M285.97 162.293a201.943 201.943 0 01-2.708 21.977c-3.925 20.234-13.717 33.29-17.631 51.573-3.915 18.283 7.346 41.823 4.313 65.301-3.033 23.477-12.143 36.533-9.53 52.203 2.614 15.669 16.32 58.101 16.32 58.101m7.62-230.579l10.673-8.196m-10.18-1.239l-4.471-7.945m-14.147 71.515s8.942-6.707 18.125-13.413m-13.665-.545s-7.441-14.599-15.889-24.286m15.9 98.591a110.394 110.394 0 0119.122-25.587" stroke="#263238" stroke-width=".5" stroke-linecap="round" stroke-linejoin="round"/><path d="M268.958 305.279a125.378 125.378 0 00-9.687-18.398c-5.248-7.693-5.962-8.69-5.962-8.69m7.106 75.156a118.56 118.56 0 018.028-16.278 104.273 104.273 0 0110.422-13.643m-8.617 66.56s-1.049-8.469 2.687-15.669c3.737-7.2 7.945-16.645 9.677-20.371" stroke="#263238" stroke-width=".5" stroke-linecap="round" stroke-linejoin="round"/><path d="M220.166 258.66s-.767-4.44 4.376-11.723c5.143-7.284 8.512-11.545 8.512-11.545s4.88 9.666.178 16.876a110.095 110.095 0 01-11.681 14.368l-1.385-7.976zm13.843 26.122s-.766-4.44 4.366-11.723c5.132-7.284 8.522-11.545 8.522-11.545s4.87 9.666.178 16.887a110.373 110.373 0 01-11.681 14.357l-1.385-7.976z" fill="#FF8562"/><path d="M221.887 266.153s-1.228-4.335-9.026-8.669c-7.798-4.335-12.636-6.696-12.636-6.696s-.2 10.821 7.157 15.291a110.764 110.764 0 0016.793 7.872l-2.288-7.798zm16.561 30.846s-1.679-4.199-9.886-7.672c-8.207-3.474-13.308-5.332-13.308-5.332s.944 10.789 8.732 14.452a111.433 111.433 0 0017.495 6.077l-3.033-7.525zm4.135 36.061s-.766-4.429-8.06-9.571c-7.294-5.143-11.902-7.998-11.902-7.998s-1.333 10.747 5.51 15.963a110.424 110.424 0 0015.838 9.603l-1.386-7.997z" fill="#FF8562"/><path d="M244.189 341.739s-1.385-4.292 2.666-12.237 6.79-12.594 6.79-12.594 6.192 8.879 2.571 16.676a110.72 110.72 0 01-9.519 15.88l-2.508-7.725zm12.437 35.799s.514-4.481 7.504-10.023c6.99-5.541 11.419-8.658 11.419-8.658s1.952 10.652-4.587 16.246a110.86 110.86 0 01-15.26 10.496l.924-8.061zm-1.826-11.041s-.767-4.439-8.061-9.582c-7.294-5.142-11.88-7.997-11.88-7.997s-1.344 10.747 5.499 15.963a110.47 110.47 0 0015.837 9.603l-1.395-7.987zm-.105 24.118s.378-4.481-5.374-11.303c-5.751-6.822-9.445-10.747-9.445-10.747s-4.01 10.054 1.29 16.792a110.823 110.823 0 0012.878 13.298l.651-8.04z" fill="#FF8562"/><path d="M219.431 257.621a128.9 128.9 0 004.083 13.517c4.659 12.269 12.216 19.385 16.655 30.436 4.44 11.052-.052 27.025 4.387 41.414 4.44 14.389 11.545 21.599 11.639 31.706.095 10.107-3.925 38.202-3.925 38.202m-29.806-143.804l-7.588-3.978m6.245-1.889l1.941-5.468m16.646 43.313s-6.298-3.232-12.826-6.444m8.512-1.826s3.075-9.96 7.347-16.949m.713 63.506a70.302 70.302 0 00-14.766-13.969" stroke="#263238" stroke-width=".5" stroke-linecap="round" stroke-linejoin="round"/><path d="M245.627 345.434a79.268 79.268 0 014.072-12.595c2.435-5.394 2.792-6.097 2.792-6.097m3.358 55.571s5.027-6.16 8.155-8.469a43.024 43.024 0 005.3-4.608m-13.109 5.416a74.55 74.55 0 00-6.811-9.341 66.805 66.805 0 00-8.018-7.43m12.636 40.815a19.313 19.313 0 00-3.379-9.54c-3.149-4.114-6.791-9.571-8.281-11.723" stroke="#263238" stroke-width=".5" stroke-linecap="round" stroke-linejoin="round"/><path d="M410.128 319.541s3.316-3.463 3.149-12.94c-.168-9.477-.672-15.229-.672-15.229s-10.034 5.636-10.18 14.778c.041 6.576.634 13.138 1.773 19.615l5.93-6.224zm-27.676 14.862s3.317-3.464 3.149-12.941c-.168-9.477-.662-15.228-.662-15.228s-10.043 5.636-10.18 14.777c.045 6.577.642 13.138 1.784 19.615l5.909-6.223z" fill="#FF8562"/><path d="M404.219 325.136s3.663-3.086 13.109-2.288c9.445.798 15.155 1.627 15.155 1.627s-6.297 9.666-15.397 9.225a117.8 117.8 0 01-19.458-3.002l6.591-5.562zm-32.923 17.369s3.967-2.686 13.276-.902c9.309 1.784 14.903 3.211 14.903 3.211s-7.241 8.953-16.278 7.567a118.116 118.116 0 01-19.038-5.037l7.137-4.839zm-25.052 29.387s3.316-3.453 12.794-3.663c9.477-.21 15.239 0 15.239 0s-5.196 10.264-14.326 10.799c-6.571.239-13.15-.073-19.668-.934l5.961-6.202z" fill="#FF8562"/><path d="M339.664 378.546s3.767-2.949 4.911-12.363c1.144-9.415 1.533-15.166 1.533-15.166s-10.737 4.146-12.185 13.182a118.216 118.216 0 00-1.05 19.657l6.791-5.31zm-24.056 15.543s3.317-3.464 12.794-3.663c9.477-.199 15.25 0 15.25 0s-5.248 10.264-14.337 10.799c-6.57.239-13.149-.074-19.668-.934l5.961-6.202zm-14.241 21.336s2.329-4.198 11.45-6.779c9.12-2.582 14.745-3.852 14.745-3.852s-2.424 11.251-11.124 14.084a118.335 118.335 0 01-19.259 4.072l4.188-7.525z" fill="#FF8562"/><path d="M411.461 319.069a134.863 134.863 0 01-11.618 9.446c-11.388 8.05-22.282 9.844-32.756 16.95-10.474 7.105-16.005 23.855-28.463 33.92-12.457 10.065-23.036 12.164-29.103 20.99-6.066 8.827-19.227 36.03-19.227 36.03m111.679-109.012l9.057.997m-4.397-5.375l1.532-5.982M367.77 345.35s7.504.913 15.134 1.931m-6.361-6.654s3.149-10.621 3.6-19.311m-38.444 55.603a74.995 74.995 0 0121.316-3.537" stroke="#263238" stroke-width=".5" stroke-linecap="round" stroke-linejoin="round"/><path d="M336.2 380.959a83.62 83.62 0 003.873-13.507c1.049-6.203 1.165-7.042 1.165-7.042m-31.717 40.029a79.867 79.867 0 0111.545-4.198 70.69 70.69 0 0111.545-1.795m-35.432 28.505a20.5 20.5 0 018.648-6.402c5.185-1.774 11.671-4.408 14.263-5.416" stroke="#263238" stroke-width=".5" stroke-linecap="round" stroke-linejoin="round"/><path d="M334.206 335.358s1.7-2.529 7.619-3.684c5.92-1.154 9.562-1.648 9.562-1.648s-2.1 7.001-7.809 8.333a75.089 75.089 0 01-12.437 1.543l3.065-4.544zm-5.5 19.237s1.701-2.518 7.63-3.683c5.93-1.165 9.561-1.638 9.561-1.638s-2.151 7.001-7.818 8.334a75.22 75.22 0 01-12.437 1.542l3.064-4.555z" fill="#FF8562"/><path d="M331.53 339.808s1.427-2.697-.357-8.459-3.054-9.204-3.054-9.204-5.164 5.195-3.663 10.82a75.464 75.464 0 004.502 11.692l2.572-4.849zm-6.36 22.827s1.144-2.833-1.228-8.396c-2.372-5.562-4.01-8.837-4.01-8.837s-4.596 5.71-2.508 11.146a74.77 74.77 0 005.709 11.146l2.037-5.059zm-14.851 19.542s1.7-2.529.546-8.448c-1.155-5.919-2.099-9.446-2.099-9.446s-5.689 4.618-4.786 10.369a74.79 74.79 0 003.295 12.07l3.044-4.545z" fill="#FF8562"/><path d="M307.034 387.172s1.322-2.739 7.021-4.722c5.699-1.984 9.236-2.992 9.236-2.992s-1.133 7.242-6.559 9.362a74.396 74.396 0 01-12.08 3.296l2.382-4.944zm-10.684 23.321s2.351-1.952 8.396-1.385c6.045.566 9.635 1.112 9.635 1.112s-4.03 6.119-9.845 5.793a74.534 74.534 0 01-12.363-2.025l4.177-3.495zm4.272-6.255s1.7-2.529.545-8.459c-1.154-5.93-2.099-9.446-2.099-9.446s-5.688 4.629-4.785 10.38a74.685 74.685 0 003.243 12.101l3.096-4.576zm-11.346 11.733s2.288-2.015 2.677-8.039c.388-6.024.398-9.687.398-9.687s-6.675 3.033-7.262 8.826a75.564 75.564 0 00.073 12.532l4.114-3.632z" fill="#FF8562"/><path d="M334.321 334.488a85.689 85.689 0 00-4.313 8.501c-3.474 8.176-3.149 15.197-6.119 22.659-2.97 7.462-12.678 13.182-17.243 22.292-4.566 9.109-4.45 15.973-9.152 20.937-4.702 4.965-19.804 16.793-19.804 16.793m52.738-84.162l-1.837-5.489m3.936 2.005l3.505-1.763m-12.153 28.945s-1.575-4.544-3.243-9.151m5.006 3.096a61.281 61.281 0 0111.545-4.848m-29.418 31.39a47.535 47.535 0 00-.672-13.738" stroke="#263238" stroke-width=".5" stroke-linecap="round" stroke-linejoin="round"/><path d="M306.005 389.649a53.907 53.907 0 017.872-4.198c3.715-1.49 4.198-1.668 4.198-1.668m-24.338 28.683a44.883 44.883 0 017.944-.325c1.573.209 3.159.286 4.744.231m-8.931-3.496a51.293 51.293 0 001.049-7.745 44.694 44.694 0 00-.44-7.347m-12.941 25.819a13.073 13.073 0 002.813-6.245c.398-3.473 1.165-7.86 1.438-9.603" stroke="#263238" stroke-width=".5" stroke-linecap="round" stroke-linejoin="round"/><path d="M93.059 348.593s-2.488-2.593-2.34-9.719c.146-7.126.492-11.439.492-11.439s7.546 4.198 7.662 11.103a88.877 88.877 0 01-1.333 14.694l-4.481-4.639zm20.833 11.167s-2.498-2.593-2.341-9.719c.158-7.126.493-11.439.493-11.439s7.546 4.198 7.662 11.103a88.824 88.824 0 01-1.333 14.694l-4.481-4.639z" fill="#FF8562"/><path d="M97.53 352.801s-2.75-2.319-9.855-1.721c-7.105.598-11.388 1.228-11.388 1.228s4.702 7.263 11.545 6.937a89.057 89.057 0 0014.62-2.267l-4.922-4.177zm24.737 13.056s-2.981-2.026-9.971-.672c-6.99 1.354-11.198 2.404-11.198 2.404s5.436 6.727 12.237 5.688a88.578 88.578 0 0014.295-3.789l-5.363-3.631zm18.828 22.04s-2.487-2.592-9.614-2.749c-7.126-.158-11.45 0-11.45 0s3.904 7.724 10.768 8.123c4.937.177 9.88-.058 14.777-.703l-4.481-4.671z" fill="#FF8562"/><path d="M146.049 392.945s-2.834-2.225-3.705-9.298c-.871-7.074-1.133-11.398-1.133-11.398s8.07 3.149 9.162 9.907c.669 4.896.928 9.839.776 14.778l-5.1-3.989zm18.072 11.671s-2.497-2.593-9.624-2.75c-7.126-.158-11.45 0-11.45 0s3.904 7.724 10.768 8.123c4.94.178 9.887-.058 14.788-.703l-4.482-4.67zm10.695 16.036s-1.742-3.148-8.596-5.1c-6.853-1.952-11.124-2.887-11.124-2.887s1.826 8.46 8.396 10.58a88.372 88.372 0 0014.483 3.064l-3.159-5.657z" fill="#FF8562"/><path d="M92.125 348.247a102.93 102.93 0 008.721 7.115c8.564 6.045 16.792 7.399 24.622 12.731 7.829 5.331 12.027 17.936 21.389 25.493 9.362 7.556 17.317 9.141 21.872 15.805 4.555 6.665 14.441 27.078 14.441 27.078m-83.95-81.978l-6.802.756m3.296-4.041l-1.154-4.492m30.362 21.274s-5.646.693-11.377 1.459m4.818-5.007a72.684 72.684 0 01-2.719-14.504m28.862 41.781a56.58 56.58 0 00-16.016-2.666" stroke="#263238" stroke-width=".5" stroke-linecap="round" stroke-linejoin="round"/><path d="M148.641 394.75a63.991 63.991 0 01-2.907-10.148c-.798-4.66-.871-5.248-.871-5.248m23.876 30.037a60.786 60.786 0 00-8.69-3.148 53.068 53.068 0 00-8.637-1.344m26.563 21.41a15.472 15.472 0 00-6.507-4.807c-3.894-1.333-8.763-3.316-10.716-4.072" stroke="#263238" stroke-width=".5" stroke-linecap="round" stroke-linejoin="round"/><path d="M150.142 360.484s-1.281-1.9-5.731-2.771-7.178-1.238-7.178-1.238 1.605 5.247 5.866 6.297a56.5 56.5 0 009.352 1.165l-2.309-3.453zm4.135 14.462s-1.28-1.9-5.73-2.771-7.19-1.239-7.19-1.239 1.617 5.248 5.878 6.297c3.075.649 6.2 1.038 9.34 1.165l-2.298-3.452z" fill="#FF8562"/><path d="M152.157 363.831s-1.05-2.026.262-6.36c1.312-4.335 2.299-6.916 2.299-6.916s3.883 3.904 2.75 8.133a57.016 57.016 0 01-3.38 8.785l-1.931-3.642zm4.775 17.149s-.85-2.099.924-6.297c1.774-4.198 3.012-6.633 3.012-6.633s3.453 4.293 1.889 8.396a56.836 56.836 0 01-4.292 8.396l-1.533-3.862zm11.167 14.683s-1.28-1.899-.42-6.297c.861-4.397 1.564-7.115 1.564-7.115s4.272 3.473 3.589 7.797a56.868 56.868 0 01-2.434 9.089l-2.299-3.474z" fill="#FF8562"/><path d="M170.565 399.431s-1.049-2.099-5.247-3.558c-4.198-1.458-6.938-2.246-6.938-2.246s.851 5.437 4.923 7.032a55.602 55.602 0 009.089 2.477l-1.827-3.705zm8.029 17.517s-1.763-1.47-6.297-1.05c-4.534.42-7.242.829-7.242.829s3.023 4.597 7.399 4.356a56.254 56.254 0 009.289-1.512l-3.149-2.623zm-3.211-4.702s-1.281-1.9-.41-6.35c.871-4.45 1.554-7.126 1.554-7.126s4.271 3.474 3.589 7.798a55.595 55.595 0 01-2.435 9.099l-2.298-3.421zm8.522 8.816s-1.721-1.511-2.005-6.035c-.283-4.523-.304-7.283-.304-7.283s5.017 2.277 5.457 6.633a55.995 55.995 0 010 9.445l-3.148-2.76z" fill="#FF8562"/><path d="M150.058 359.832a65.617 65.617 0 013.243 6.392c2.613 6.14 2.34 11.408 4.597 17.023 2.256 5.615 9.519 9.908 12.961 16.792 3.443 6.885 3.338 12.007 6.875 15.743 3.536 3.736 14.882 12.647 14.882 12.647m-39.63-63.317l1.375-4.135m-2.949 1.511l-2.645-1.323m9.131 21.757s1.196-3.421 2.445-6.884m-3.768 2.33a45.702 45.702 0 00-8.658-3.653m22.092 23.594a35.93 35.93 0 01.514-10.328" stroke="#263238" stroke-width=".5" stroke-linecap="round" stroke-linejoin="round"/><path d="M171.342 401.278a40.786 40.786 0 00-5.93-3.149 398.021 398.021 0 00-3.148-1.259m18.293 21.558a33.868 33.868 0 00-5.972-.242 21.604 21.604 0 01-3.568.179m6.717-2.635a38.219 38.219 0 01-.788-5.825 34.49 34.49 0 01.336-5.552m9.719 19.437a9.84 9.84 0 01-2.099-4.691c-.294-2.603-.871-5.898-1.05-7.221" stroke="#263238" stroke-width=".5" stroke-linecap="round" stroke-linejoin="round"/><path d="M242.363 76.474H200.76a105.601 105.601 0 00-53.955 14.903l-6.171 3.663a108.665 108.665 0 00-35.264 33.836l-6.539 9.96a19.576 19.576 0 01-16.33 8.963H57.953a2.446 2.446 0 00-2.446 2.435 2.447 2.447 0 002.446 2.445H84.19a25.085 25.085 0 0019.195-9.057l10.422-12.385a107.587 107.587 0 0135.264-27.549 105.425 105.425 0 0146-10.6h45.413l1.878-16.614z" fill="#FF8562"/><path d="M228.803 76.474h41.603a105.605 105.605 0 0153.956 14.903l6.171 3.663a108.675 108.675 0 0135.264 33.836l6.538 9.96a19.579 19.579 0 0016.331 8.963h24.548a2.444 2.444 0 012.445 2.435 2.445 2.445 0 01-2.445 2.445h-26.238a25.084 25.084 0 01-19.196-9.057l-10.421-12.385a107.598 107.598 0 00-35.264-27.549 105.428 105.428 0 00-46-10.6h-45.434l-1.858-16.614z" fill="#FF8562"/><path d="M240.867 109.15c12.85-2.157 21.519-14.323 19.361-27.173-2.157-12.85-14.323-21.519-27.173-19.362-12.851 2.158-21.519 14.324-19.362 27.174 2.158 12.85 14.324 21.519 27.174 19.361zm22.34 275.042H210.72a5.562 5.562 0 00-5.562 5.562v2.771a5.563 5.563 0 005.562 5.563h52.487a5.563 5.563 0 005.562-5.563v-2.771a5.562 5.562 0 00-5.562-5.562z" fill="#A3A3A3"/><path d="M273.45 350.219l-2.236-4.659a103.89 103.89 0 01-9.529-32.724l-16.719-171.355-5.594-.378v-.314l-2.414.209-2.414-.157v.315l-5.594.378-16.718 171.302a103.919 103.919 0 01-9.53 32.724l-2.236 4.659a27.768 27.768 0 003.506 29.586l4.135 5.08h57.723l4.135-5.08a27.751 27.751 0 006.047-14.286 27.75 27.75 0 00-2.562-15.3zm-131.683 44.395h190.382a18.062 18.062 0 0118.062 18.062v7.64H123.705v-7.64a18.064 18.064 0 0118.062-18.062z" fill="#A3A3A3"/><path d="M111.226 416.034H362.69a20.687 20.687 0 0120.686 20.686v3.264H90.561v-3.264a20.686 20.686 0 0120.665-20.686zM231.259 83.117h11.398l11.492-33.731c2.477-7.263-.619-16.352-5.573-16.352H225.34c-4.954 0-8.05 9.089-5.573 16.352l11.492 33.731z" fill="#A3A3A3"/><path d="M242.657 82.373h-11.398l-11.492 33.721c-2.477 7.273.619 16.351 5.573 16.351h23.236c4.954 0 8.05-9.078 5.573-16.351l-11.492-33.721zm-5.699-48.761c9.692 0 17.548-6.494 17.548-14.505 0-8.01-7.856-14.504-17.548-14.504-9.691 0-17.548 6.494-17.548 14.504s7.857 14.505 17.548 14.505z" fill="#A3A3A3"/><path d="M242.521 91.45h-11.125a5.556 5.556 0 01-5.13-3.428 5.551 5.551 0 01-.422-2.124 5.547 5.547 0 015.552-5.563h11.125a5.554 5.554 0 015.129 7.688 5.545 5.545 0 01-3.005 3.004 5.547 5.547 0 01-2.124.423z" fill="#FF8562"/><path d="M246.572 131.059h-19.217a5.563 5.563 0 00-5.563 5.563v2.77a5.563 5.563 0 005.563 5.563h19.217a5.563 5.563 0 005.562-5.563v-2.77a5.562 5.562 0 00-5.562-5.563z" fill="#A3A3A3"/><path d="M73.559 151.105L28.692 263.33h89.734L73.559 151.105zm.001 0v113.757" stroke="#A3A3A3" stroke-linecap="round" stroke-linejoin="round"/><path d="M24.253 267.538v5.3a12.722 12.722 0 0012.72 12.72h73.162a12.69 12.69 0 008.997-3.722 12.715 12.715 0 003.723-8.998v-5.3H24.253z" fill="#FF8562"/><path d="M123.61 262.742H23.476a2.721 2.721 0 00-2.718 2.676 2.729 2.729 0 002.718 2.729H123.61a2.727 2.727 0 002.719-2.729 2.722 2.722 0 00-2.719-2.676z" fill="#FF8562"/><path d="M397.461 151.105L352.594 263.33h89.733l-44.866-112.225zm0 0v113.757" stroke="#A3A3A3" stroke-linecap="round" stroke-linejoin="round"/><path d="M348.207 267.538v5.3a12.715 12.715 0 007.859 11.755c1.545.639 3.2.967 4.871.965h73.162c3.374 0 6.609-1.34 8.995-3.725a12.723 12.723 0 003.725-8.995v-5.3h-98.612z" fill="#FF8562"/><path d="M447.533 262.742H347.388a2.721 2.721 0 00-2.718 2.718 2.73 2.73 0 002.718 2.729h100.145a2.727 2.727 0 001.929-4.654 2.72 2.72 0 00-1.929-.793z" fill="#FF8562"/><path d="M185.689 87.39a25.6 25.6 0 00-16.11 11.104c-6.591 9.761-1.753 30.803-1.753 35.935 0 5.133.242 35.138.242 35.138h46.85s-1.469-56.611-1.469-60.273c0-3.663-.966-15.376-9.026-20.015-8.06-4.639-18.734-1.889-18.734-1.889z" fill="#263238" stroke="#263238" stroke-linecap="round" stroke-linejoin="round"/><path d="M202.229 92.617s-12.594 13.056-22.417 19.374c-9.824 6.318-13.056 8.27-13.056 8.27m28.725-32s-13.927 20.203-26.741 28.075m14.777-26.333s-9.152 18.713-16.551 23.09m9.361 10.211l-7.619 3.705m4.135-1.092v27.424" stroke="#666" stroke-linecap="round" stroke-linejoin="round"/><path d="M178.584 422.123l-2.236 7.147s-9.151 6.024-9.372 6.917c-.22.892-.451 2.455-.451 2.455a2.234 2.234 0 002.235 1.344h23.216s.892-5.132.451-7.588c-.441-2.456-1.564-6.696-1.564-6.696l-.22-3.726-12.059.147zm54.47-.367s10.715 10.715 11.387 10.936l13.644 4.691s.672 1.784-.221 2.236c-.892.451-15.186.44-18.985.22-3.8-.22-8.932-3.568-10.495-4.198a7.542 7.542 0 00-2.687-.672v3.8h-10.726s-.441-7.347-.221-10.275a21.527 21.527 0 012.005-6.476l16.299-.262z" fill="#263238" stroke="#263238" stroke-linecap="round" stroke-linejoin="round"/><path d="M244.808 340.659c0-1.648-9.445-82.471-9.445-82.471l-30.94-20.234-39.22 17.348 1.238 14.032 5.783 75.975 1.354 59.035-1.05 13.056-1.049 6.003 1.049 7.053 20.109.357.262-9.834 4.933-80.215 6.591-60.693 12.689 61.617-2.792 85.609 25.356.567s.578-.399.913-6.004c.095-1.574-2.875-8.826-2.77-10.705 1.458-24.432 6.989-69.268 6.989-70.496z" fill="#696969" stroke="#263238" stroke-linecap="round" stroke-linejoin="round"/><path d="M184.073 379.45l.052 5.153m-.986-103.242l.892 93.145m48.97-92.493s9.887 54.679 9.887 55.551c0 .871-.294 7.85-.588 12.51" stroke="#263238" stroke-linecap="round" stroke-linejoin="round"/><path d="M187.631 143.802l-28.337 18.628 14.599 56.108-13.287 51.73 41.718 11.545 4.723-19.941 5.247 19.679 32.011-7.872-14.431-49.065 6.297-69.005-39.357-11.807s-6.035-2.099-9.183 0z" fill="#696969" stroke="#263238" stroke-linecap="round" stroke-linejoin="round"/><path d="M203.573 219.724l3.484 40.511m-6.979-32.483a1.742 1.742 0 100-3.484 1.742 1.742 0 000 3.484zm1.049 13.623a1.742 1.742 0 10.001-3.485 1.742 1.742 0 00-.001 3.485zm2.792 11.922a1.752 1.752 0 11-1.742-1.742 1.742 1.742 0 011.742 1.742v0z" stroke="#263238" stroke-linecap="round" stroke-linejoin="round"/><path d="M202.849 216.218l11.545-33.847-7.609-6.297 10.232-2.099s-4.45-17.842-8.658-26.71l-11.545-3.463s-6.035-2.099-9.183 0l-7.441 4.89a154.153 154.153 0 00-1.218 16.362c0 7.872.525 14.693.525 14.693l8.921-1.574-3.936 7.609 18.367 30.436zm33.322-60.61a78.599 78.599 0 0110.233 22.04c3.935 13.382 8.133 34.109 6.559 36.733-1.574 2.624-11.807 2.099-14.955.263-3.149-1.837-5.51-17.842-5.51-17.842l3.673-41.194z" fill="#696969" stroke="#263238" stroke-linecap="round" stroke-linejoin="round"/><path d="M238.532 201.168l-44.174 1.238-2.876 8.911a117.842 117.842 0 0022.208 5.772c12.07 1.837 36.912 2.802 40.06.703 3.149-2.099-2.361-19.94-2.361-19.94" fill="#696969"/><path d="M238.532 201.168l-44.174 1.238-2.876 8.911a117.842 117.842 0 0022.208 5.772c12.07 1.837 36.912 2.802 40.06.703 3.149-2.099-2.361-19.94-2.361-19.94" stroke="#263238" stroke-linecap="round" stroke-linejoin="round"/><path d="M182.299 134.241s3.222 19.667 4.114 28.242c.893 8.575 14.305 30.216 14.305 30.216l2.099-33.585 1.05-23.95a15.744 15.744 0 01-12.867.535 63.328 63.328 0 01-8.396-3.935l-.305 2.477z" fill="#fff" stroke="#263238" stroke-linecap="round" stroke-linejoin="round"/><path d="M191.063 135.668a63.334 63.334 0 01-8.396-3.936l-.357 2.508s.419 2.561 1.049 6.234c4.314 3.611 10.894 7.567 13.518 7.798 1.627.147 4.198-1.868 6.727-4.408l.389-8.732a15.735 15.735 0 01-12.93.536z" fill="#263238" stroke="#263238" stroke-linecap="round" stroke-linejoin="round"/><path d="M200.718 192.699l.892-13.969c-2.887.564-5.853.6-8.753.105 3.8 7.294 7.861 13.864 7.861 13.864z" fill="#FF8562" stroke="#263238" stroke-linecap="round" stroke-linejoin="round"/><path d="M203.52 102.167l-26.993 19.416s1.375 8.942 2.918 12.594c1.542 3.653 13.643 11.702 17.369 12.038 3.726.336 12.72-10.999 13.927-13.413 1.207-2.414-.861-21.662-.861-21.662l-6.36-8.973z" fill="#fff" stroke="#263238" stroke-linecap="round" stroke-linejoin="round"/><path d="M198.021 124.679a2.745 2.745 0 01-.861 2.582 4.03 4.03 0 01-2.581.693m-3.264 4.649s2.917 1.889 7.735-.346" stroke="#263238" stroke-linecap="round" stroke-linejoin="round"/><path d="M188.134 121.237c.615 0 1.113-.884 1.113-1.973 0-1.09-.498-1.973-1.113-1.973-.614 0-1.112.883-1.112 1.973 0 1.089.498 1.973 1.112 1.973zm14.442-2.655c0 1.05-.504 1.973-1.123 1.973s-1.112-.881-1.112-1.973c0-1.091.503-1.983 1.112-1.983.609 0 1.123.892 1.123 1.983z" fill="#263238"/><path d="M187.578 123.483c3.542 0 6.413-2.039 6.413-4.555 0-2.516-2.871-4.555-6.413-4.555-3.541 0-6.412 2.039-6.412 4.555 0 2.516 2.871 4.555 6.412 4.555zm22.995-4.524c0 2.509-2.876 4.555-6.423 4.555s-6.412-2.046-6.412-4.555c0-2.508 2.875-4.565 6.412-4.565s6.423 2.015 6.423 4.565zm-16.572 0s1.396-2.666 3.737 0m.797-5.457s3.957-3.611 7.903-1.375" stroke="#263238" stroke-linecap="round" stroke-linejoin="round"/><path d="M164.017 160.331s-11.02 3.149-13.119 8.134-.263 31.748 3.148 41.98c3.411 10.233 6.035 20.204 10.233 20.204s15.743-8.921 15.218-15.743c-.525-6.822-8.396-35.159-8.396-36.733" fill="#696969"/><path d="M164.017 160.331s-11.02 3.149-13.119 8.134-.263 31.748 3.148 41.98c3.411 10.233 6.035 20.204 10.233 20.204s15.743-8.921 15.218-15.743c-.525-6.822-8.396-35.159-8.396-36.733" stroke="#263238" stroke-linecap="round" stroke-linejoin="round"/><path d="M162.191 194.609c.682-1.543 1.931-3.947 2.025-4.199.095-.251 2.624-.881 3.883-.881 1.26 0 7.21 2.235 7.21 2.235a25.229 25.229 0 00-2.225-3.379c-.377-.189-5.111-1.343-5.782-1.543a1.88 1.88 0 01-1.249-1.732c0-.766 1.049-.377 1.049-.377l8.659.787 9.445 13.906 11.472 2.844-4.041 9.257-9.047-4.534a19.048 19.048 0 01-6.559-1.449c-2.897-1.343-4.629-4.817-5.395-5.488-.766-.672-8.197-1.449-8.49-1.449-.294 0-1.732 1.155-1.921.777a12.035 12.035 0 01.966-4.775z" fill="#fff" stroke="#263238" stroke-linecap="round" stroke-linejoin="round"/><path d="M163.282 193.003s3.642-.651 4.293-.651a39.265 39.265 0 015.856 2.477" fill="#fff"/><path d="M163.282 193.003s3.642-.651 4.293-.651a39.265 39.265 0 015.856 2.477" stroke="#263238" stroke-linecap="round" stroke-linejoin="round"/><path d="M161.582 196.256s4.303-1.049 4.953-1.049c.651 0 6.245 2.099 6.245 2.099" fill="#fff"/><path d="M161.582 196.256s4.303-1.049 4.953-1.049c.651 0 6.245 2.099 6.245 2.099" stroke="#263238" stroke-linecap="round" stroke-linejoin="round"/><path d="M171.888 207.035l55.1-13.644 9.445-13.906 8.659-.787s1.049-.399 1.049.377a1.875 1.875 0 01-1.259 1.732c-.672.2-5.395 1.354-5.783 1.543a25.153 25.153 0 00-2.214 3.379s5.95-2.235 7.21-2.235c1.259 0 3.778.588 3.872.881.095.294 1.354 2.698 2.026 4.199.63 1.495.958 3.1.966 4.722-.189.389-1.638-.766-1.931-.766-.294 0-7.714.766-8.481 1.449-.766.682-2.508 4.145-5.394 5.489a19.127 19.127 0 01-6.56 1.448s-50.229 25.188-50.513 25.262c-.283.073-8.585 4.911-12.248 4.723-3.662-.189-4.523-2.225-5.782-4.828" fill="#696969"/><path d="M171.888 207.035l55.1-13.644 9.445-13.906 8.659-.787s1.049-.399 1.049.377a1.875 1.875 0 01-1.259 1.732c-.672.2-5.395 1.354-5.783 1.543a25.153 25.153 0 00-2.214 3.379s5.95-2.235 7.21-2.235c1.259 0 3.778.588 3.872.881.095.294 1.354 2.698 2.026 4.199.63 1.495.958 3.1.966 4.722-.189.389-1.638-.766-1.931-.766-.294 0-7.714.766-8.481 1.449-.766.682-2.508 4.145-5.394 5.489a19.127 19.127 0 01-6.56 1.448s-50.229 25.188-50.513 25.262c-.283.073-8.585 4.911-12.248 4.723-3.662-.189-4.523-2.225-5.782-4.828" stroke="#263238" stroke-linecap="round" stroke-linejoin="round"/><path d="M250.014 188.616c-.672-1.543-1.931-3.946-2.026-4.198-.094-.252-2.623-.882-3.872-.882-1.249 0-7.211 2.236-7.211 2.236a25.332 25.332 0 012.215-3.38c.388-.189 5.111-1.343 5.783-1.542a1.881 1.881 0 001.259-1.732c0-.777-1.049-.378-1.049-.378l-8.659.787-9.445 13.906-11.472 2.834 4.051 9.267 9.047-4.534a19.104 19.104 0 006.56-1.448c2.886-1.343 4.618-4.817 5.394-5.489.777-.672 8.197-1.448 8.48-1.448.284 0 1.743 1.154 1.932.766a12.314 12.314 0 00-.987-4.765z" fill="#fff" stroke="#263238" stroke-linecap="round" stroke-linejoin="round"/><path d="M248.933 187.011s-3.642-.651-4.293-.651a40.059 40.059 0 00-5.866 2.466" fill="#fff"/><path d="M248.933 187.011s-3.642-.651-4.293-.651a40.059 40.059 0 00-5.866 2.466" stroke="#263238" stroke-linecap="round" stroke-linejoin="round"/><path d="M250.602 190.264s-4.293-1.05-4.944-1.05c-.65 0-6.297 2.099-6.297 2.099" fill="#fff"/><path d="M250.602 190.264s-4.293-1.05-4.944-1.05c-.65 0-6.297 2.099-6.297 2.099" stroke="#263238" stroke-linecap="round" stroke-linejoin="round"/><path d="M213.512 202.501a1.173 1.173 0 01-1.409 1.152 1.173 1.173 0 01-.921-.929 1.18 1.18 0 01.509-1.206 1.176 1.176 0 011.821.983zm-5.73 2.74a1.176 1.176 0 10-.002-2.352 1.176 1.176 0 00.002 2.352zm-4.555 1.563a1.175 1.175 0 100-2.35 1.175 1.175 0 000 2.35z" fill="#fff"/></svg>