<svg width="135" height="127" fill="none" xmlns="http://www.w3.org/2000/svg"><path opacity=".1" d="M66.757 127c35.213 0 63.758-28.43 63.758-63.5S101.97 0 66.758 0C31.544 0 3 28.43 3 63.5S31.545 127 66.757 127z" fill="#FF8562"/><g filter="url(#filter0_d_751_1735)"><path d="M57.93 95.45H46.414a26.468 26.468 0 01-18.678-7.705A26.254 26.254 0 0120 69.143V50.307a26.254 26.254 0 017.736-18.602A26.468 26.468 0 0146.414 24H87.4a26.467 26.467 0 0118.677 7.705 26.252 26.252 0 017.737 18.602v18.836a26.252 26.252 0 01-7.737 18.602A26.467 26.467 0 0187.4 95.45H57.93z" fill="url(#paint0_linear_751_1735)"/><path d="M57.93 95.45H46.414a26.468 26.468 0 01-18.678-7.705A26.254 26.254 0 0120 69.143V50.307a26.254 26.254 0 017.736-18.602A26.468 26.468 0 0146.414 24H87.4a26.467 26.467 0 0118.677 7.705 26.252 26.252 0 017.737 18.602v18.836a26.252 26.252 0 01-7.737 18.602A26.467 26.467 0 0187.4 95.45H57.93z" stroke="#fff"/></g><path d="M29.625 36.008H3m26.625 14.514H16.313" stroke="#FF8562" stroke-width="5" stroke-linecap="round"/><path opacity=".2" d="M79.355 37.789c-18.084-.944-33.193 6.808-33.745 17.314-.553 10.507 13.659 19.79 31.743 20.733 18.085.944 33.193-6.808 33.746-17.314.553-10.507-13.66-19.79-31.744-20.733z" fill="url(#paint1_linear_751_1735)"/><path opacity=".1" d="M52.02 47.522C39.434 60.49 35.39 76.93 42.984 84.242c7.596 7.312 23.956 2.727 36.541-10.24 12.586-12.969 16.632-29.41 9.037-36.721-7.596-7.312-23.956-2.727-36.542 10.24z" fill="url(#paint2_linear_751_1735)"/><path d="M59.986 84h12.998a.588.588 0 00.588-.588V37.588a.587.587 0 00-.588-.588H59.986a.588.588 0 00-.588.588v45.824c0 .325.263.588.588.588zm12.41-21.626H60.575V42.508h11.823v19.866zM60.575 82.825V63.549h11.823v19.276H60.574zm11.823-44.65v3.158H60.574v-3.158h11.823z" fill="#000"/><path d="M66.485 72.823a3.87 3.87 0 00-3.867 3.865 3.87 3.87 0 003.867 3.864 3.87 3.87 0 003.868-3.865 3.87 3.87 0 00-3.868-3.864zm0 6.554a2.694 2.694 0 01-2.692-2.69 2.694 2.694 0 012.692-2.689 2.694 2.694 0 012.693 2.69 2.694 2.694 0 01-2.693 2.689zM43.588 84h12.998a.588.588 0 00.588-.588V37.588a.587.587 0 00-.588-.588H43.588a.588.588 0 00-.588.588v45.824c0 .325.263.588.588.588zm12.41-21.626H44.175V42.508H56v19.866zM44.175 82.825V63.549H56v19.276H44.175zM56 38.175v3.158H44.175v-3.158H56z" fill="#000"/><path d="M50.087 72.823a3.87 3.87 0 00-3.868 3.865 3.87 3.87 0 003.868 3.864 3.87 3.87 0 003.867-3.865 3.87 3.87 0 00-3.867-3.864zm0 6.554a2.694 2.694 0 01-2.693-2.69 2.694 2.694 0 012.693-2.689 2.694 2.694 0 012.692 2.69 2.694 2.694 0 01-2.692 2.689zM76.414 84h12.998a.588.588 0 00.588-.588V37.588a.587.587 0 00-.588-.588H76.414a.588.588 0 00-.588.588v45.824c0 .325.263.588.588.588zm12.41-21.626H77.002V42.508h11.824v19.866zM77.002 82.825V63.549h11.824v19.276H77zm11.824-44.65v3.158H77v-3.158h11.824z" fill="#000"/><path d="M82.913 72.823a3.87 3.87 0 00-3.867 3.865 3.87 3.87 0 003.867 3.864 3.87 3.87 0 003.868-3.865 3.87 3.87 0 00-3.868-3.864zm0 6.554a2.694 2.694 0 01-2.692-2.69 2.694 2.694 0 012.692-2.689 2.694 2.694 0 012.693 2.69 2.694 2.694 0 01-2.693 2.689zm-2.922-29.216a2.875 2.875 0 002.876 2.868h.093c.938 0 1.7.759 1.7 1.692 0 .933-.762 1.693-1.7 1.693s-1.7-.76-1.7-1.693a.587.587 0 10-1.176 0 2.87 2.87 0 002.195 2.778v.494a.587.587 0 101.175 0v-.454a2.868 2.868 0 002.381-2.817 2.875 2.875 0 00-2.875-2.868h-.093c-.938 0-1.701-.76-1.701-1.692 0-.934.763-1.693 1.7-1.693a1.7 1.7 0 011.701 1.693.587.587 0 101.176 0c0-1.38-.983-2.536-2.288-2.807v-.465a.587.587 0 10-1.176 0v.465a2.873 2.873 0 00-2.288 2.806zm-16.427 0a2.875 2.875 0 002.875 2.868h.093c.938 0 1.7.759 1.7 1.692 0 .933-.762 1.693-1.7 1.693s-1.7-.76-1.7-1.693a.587.587 0 10-1.176 0 2.87 2.87 0 002.195 2.778v.494a.587.587 0 101.175 0v-.454a2.869 2.869 0 002.381-2.817 2.875 2.875 0 00-2.875-2.868h-.093c-.938 0-1.701-.76-1.701-1.692 0-.934.763-1.693 1.7-1.693a1.7 1.7 0 011.701 1.693.587.587 0 101.176 0c0-1.38-.983-2.536-2.288-2.807v-.465a.587.587 0 10-1.175 0v.465a2.873 2.873 0 00-2.289 2.806zm-16.399 0a2.875 2.875 0 002.876 2.868h.093c.937 0 1.7.759 1.7 1.692 0 .933-.763 1.693-1.7 1.693-.938 0-1.7-.76-1.7-1.693a.587.587 0 10-1.176 0 2.87 2.87 0 002.195 2.778v.494a.587.587 0 101.175 0v-.454a2.868 2.868 0 002.38-2.817 2.875 2.875 0 00-2.875-2.868h-.093c-.937 0-1.7-.76-1.7-1.692 0-.934.763-1.693 1.7-1.693a1.7 1.7 0 011.701 1.693.587.587 0 101.175 0c0-1.38-.983-2.536-2.288-2.807v-.465a.587.587 0 10-1.175 0v.465a2.873 2.873 0 00-2.288 2.806z" fill="#000"/><defs><linearGradient id="paint0_linear_751_1735" x1="66.907" y1="24" x2="66.907" y2="104.436" gradientUnits="userSpaceOnUse"><stop stop-color="#fff"/><stop offset="1" stop-color="#fff"/></linearGradient><linearGradient id="paint1_linear_751_1735" x1="77.353" y1="75.837" x2="79.339" y2="37.788" gradientUnits="userSpaceOnUse"><stop stop-color="#fff"/><stop offset="1" stop-color="#fff" stop-opacity="0"/></linearGradient><linearGradient id="paint2_linear_751_1735" x1="79.525" y1="74.001" x2="52.128" y2="47.411" gradientUnits="userSpaceOnUse"><stop stop-color="#fff"/><stop offset="1" stop-color="#fff" stop-opacity="0"/></linearGradient><filter id="filter0_d_751_1735" x="11.5" y="15.5" width="118.815" height="96.45" filterUnits="userSpaceOnUse" color-interpolation-filters="sRGB"><feFlood flood-opacity="0" result="BackgroundImageFix"/><feColorMatrix in="SourceAlpha" values="0 0 0 0 0 0 0 0 0 0 0 0 0 0 0 0 0 0 127 0" result="hardAlpha"/><feOffset dx="4" dy="4"/><feGaussianBlur stdDeviation="6"/><feComposite in2="hardAlpha" operator="out"/><feColorMatrix values="0 0 0 0 0.784314 0 0 0 0 0.784314 0 0 0 0 0.784314 0 0 0 0.25 0"/><feBlend in2="BackgroundImageFix" result="effect1_dropShadow_751_1735"/><feBlend in="SourceGraphic" in2="effect1_dropShadow_751_1735" result="shape"/></filter></defs></svg>