<svg width="458" height="445" fill="none" xmlns="http://www.w3.org/2000/svg"><path d="M94.574 23.54s5.617-4.432 7.055-7.278c1.227-2.422 2.116-5.85.847-8.462a4.824 4.824 0 00-2.931-2.598 4.813 4.813 0 00-3.892.44c-3.459 2.116-3.83 9.52-2.951 13.01.074.307 1.82 4.972 1.872 4.887zM42.67 60.487c.222.212 4.231 3.11 4.231 3.036 0-.074 2.274-6.79 1.893-9.953-.317-2.698-1.47-6.05-3.945-7.5a4.824 4.824 0 00-6.907 1.936c-1.693 3.702 2.041 10.017 4.728 12.481zm117.644-30.231s-20.552 21.219-20.446 47.314c.105 26.095 20.859 47.102 20.859 47.102s20.552-21.219 20.436-47.282c-.117-26.063-20.849-47.134-20.849-47.134z" fill="#FF8562"/><path d="M131.003 93.151c.274-.294.525-.609.751-.941 1.492-2.264 2.772-5.564 1.809-8.272a4.826 4.826 0 00-4.562-3.364 4.821 4.821 0 00-1.964.402c-2.793 1.322-4.168 5.797-4.464 9.457a40.785 40.785 0 00-2.972-.593c-.37-.835-.741-1.671-1.121-2.507-.381-.835-.688-1.745-1.058-2.623-.497-1.3-.942-2.665-1.386-4.03 1.629-.73 6.347-2.94 8.124-4.897 1.777-1.957 3.586-5.078 3.046-7.902a4.81 4.81 0 00-6.008-3.914c-3.903 1.153-6.198 8.135-6.272 11.763 0 .116-.001.888.137 1.808-.391-1.353-.793-2.686-1.142-4.061-1.005-3.904-1.904-7.912-2.825-11.921-.19-.836-.391-1.671-.592-2.507 1.375-.603 6.526-2.962 8.378-5.003 1.851-2.042 3.575-5.078 3.035-7.902a4.799 4.799 0 00-6.008-3.914c-3.892 1.153-6.188 8.135-6.272 11.763 0 .137.074 1.057.169 2.115-.529-2.179-1.058-4.337-1.703-6.463a84.813 84.813 0 00-3.84-10.704c.487-.212 6.58-2.846 8.632-5.12 1.819-2.02 3.585-5.088 3.046-7.912a4.834 4.834 0 00-2.133-3.294 4.817 4.817 0 00-3.875-.62c-3.903 1.164-6.199 8.135-6.273 11.773 0 .254.297 3.576.445 4.76v-.127a63.274 63.274 0 00-5.596-9.668 85.12 85.12 0 00-6.177-7.838c-2.02-2.337-4.02-4.347-5.807-6.113a93.37 93.37 0 00-2.73-2.581h.085c.074 0-1.904-4.538-2.052-4.813C79.998 4.215 74.625-.768 70.648.1a4.823 4.823 0 00-3.375 6.346c.889 2.73 3.914 4.58 6.484 5.458 2.57.878 8.378.476 9.795.35a93.626 93.626 0 012.793 2.74c1.734 1.808 3.68 3.85 5.648 6.219.53.634 1.058 1.332 1.598 1.999-1.132-.942-2.708-2.2-2.878-2.306-3.067-1.957-10.143-3.924-13.274-1.322a4.823 4.823 0 00-.075 7.171c2.042 2.01 5.575 2.253 8.261 1.862 2.687-.391 7.817-3.543 8.896-4.231 1.164 1.502 2.327 3.067 3.438 4.77a61.78 61.78 0 015.289 9.658c.084.2.148.412.222.603-.476-.56-3.332-3.449-3.565-3.628-2.835-2.275-9.647-5.004-13.042-2.761a4.812 4.812 0 00-.867 7.119c1.809 2.221 5.289 2.856 8.007 2.75 3.173-.106 9.287-3.173 9.52-3.332a83.888 83.888 0 013.48 10.44c.698 2.623 1.301 5.289 1.883 8.018-.635-.72-3.301-3.396-3.512-3.575-2.835-2.275-9.647-5.004-13.053-2.761a4.824 4.824 0 00-.867 7.119c1.82 2.22 5.289 2.855 8.018 2.75 3.046-.106 8.969-3.057 9.519-3.311.265 1.227.529 2.454.783 3.692.836 4.019 1.65 8.06 2.571 12.016.327 1.375.687 2.718 1.057 4.061-.994-1.057-2.845-2.908-3.014-3.046-2.835-2.285-9.658-5.014-13.053-2.771a4.812 4.812 0 00-.867 7.118c1.808 2.232 5.288 2.856 8.007 2.761 2.718-.095 7.753-2.475 9.16-3.173.624 2.232 1.28 4.432 2.042 6.569.349.91.634 1.861 1.057 2.718l.582 1.365-.793-.074s0 1.28.074 3.342c-2.994-2.115-7.309-3.966-10.112-2.676a4.819 4.819 0 00-2.507 3.022 4.823 4.823 0 00.571 3.885c.18.305.389.592.624.857a18.73 18.73 0 003.871 8.621c.148.169 2.179 2.052 3.248 2.983-1.058-.55-2.052-1.058-3.11-1.703-1.523-.847-3.11-1.788-4.654-2.698l-2.465-1.576c-.814-.497-1.534-1.058-2.316-1.608-1.132-.814-2.253-1.703-3.375-2.602.952-1.502 3.681-5.955 4.083-8.557.402-2.602.18-6.22-1.83-8.272a4.823 4.823 0 00-7.171 0c-2.613 3.174-.677 10.208 1.259 13.286.063.095.539.709 1.057 1.417-1.057-.899-2.115-1.798-3.173-2.75-2.983-2.708-5.945-5.553-8.927-8.388l-1.82-1.724c.815-1.259 3.808-6.061 4.231-8.78.423-2.718.18-6.22-1.82-8.282a4.824 4.824 0 00-7.17 0c-2.613 3.173-.678 10.197 1.258 13.275.063.117.635.836 1.28 1.64-1.64-1.513-3.29-3.015-4.982-4.443a84.964 84.964 0 00-9.108-6.812c.286-.444 3.914-6.008 4.38-9.033.402-2.687.18-6.22-1.83-8.272a4.812 4.812 0 00-7.161 0c-2.624 3.173-.688 10.207 1.248 13.286.137.211 2.232 2.824 3.004 3.723l-.117-.074a62.406 62.406 0 00-9.995-4.982 86.743 86.743 0 00-9.52-3.173c-2.983-.836-5.754-1.407-8.208-1.904-1.344-.254-2.56-.455-3.713-.646h.074c.053 0-4.094-2.74-4.38-2.877-3.247-1.618-10.492-2.824-13.338.085a4.825 4.825 0 00.677 7.14c2.253 1.787 5.786 1.66 8.462.983 2.677-.677 7.246-4.23 8.357-5.12 1.184.212 2.454.456 3.85.752 2.444.54 5.194 1.174 8.134 2.115.794.244 1.63.53 2.444.783-1.47-.148-3.48-.338-3.681-.338-3.629.074-10.578 2.327-11.794 6.23a4.802 4.802 0 003.882 6.019c2.824.55 5.902-1.196 7.922-3.005 2.02-1.808 4.56-7.266 5.088-8.462 1.798.603 3.628 1.27 5.49 2.116a62.327 62.327 0 019.763 5.13c.18.116.349.264.529.38-.709-.2-4.686-1.057-4.972-1.057-3.617-.338-10.81 1.142-12.407 4.887a4.801 4.801 0 003.173 6.41c2.75.857 5.998-.54 8.208-2.116 2.55-1.819 5.966-7.816 6.093-8.039a84.381 84.381 0 018.663 6.791c2.031 1.81 4.02 3.713 5.998 5.649-.931-.244-4.623-1.058-4.898-1.058-3.617-.338-10.81 1.142-12.407 4.887a4.825 4.825 0 003.173 6.42c2.75.857 5.997-.539 8.208-2.115 2.486-1.777 5.786-7.5 6.072-7.986l2.686 2.644c2.91 2.898 5.818 5.818 8.78 8.61 1.058.963 2.115 1.883 3.11 2.803-1.407-.317-3.978-.856-4.231-.877-3.629-.328-10.81 1.152-12.419 4.897a4.813 4.813 0 003.174 6.41c2.74.857 5.997-.539 8.208-2.116 2.21-1.576 5.098-6.346 5.892-7.69a116.496 116.496 0 005.289 4.348c.793.571 1.565 1.206 2.358 1.714l2.338 1.565c1.629 1.058 3.173 1.957 4.696 2.856.773.465 1.513.878 2.275 1.322-1.376-.539-3.565-1.354-3.777-1.407-3.522-.878-10.863-.507-13.01 2.951a4.818 4.818 0 00.577 5.643 4.813 4.813 0 001.623 1.18c2.581 1.269 6.008.381 8.462-.846 2.666-1.354 6.685-6.347 7.172-6.939 1.872 1.058 3.702 2.115 5.426 3.004a239.124 239.124 0 0011.762 5.902c10.155 8.78 24.445 9.753 24.445 9.753s.751-17.115-9.319-28.38a35.273 35.273 0 00-12.524-8.663zm-18.119 16.681c.317-.698 2.75-6.135 2.919-9.203a41.375 41.375 0 001.682-.349 39.536 39.536 0 006.347 15.073 231.245 231.245 0 01-5.966-2.93 140.634 140.634 0 01-4.982-2.591zm92.998-19.96s-17.125.529-27.607 11.413c-10.483 10.884-10.345 28.02-10.345 28.02s17.125-.529 27.597-11.413c10.472-10.884 10.355-28.02 10.355-28.02z" fill="#FF8562"/><g opacity=".5" fill="#fff"><path opacity=".5" d="M94.574 23.54s5.617-4.432 7.055-7.278c1.227-2.422 2.116-5.85.847-8.462a4.824 4.824 0 00-2.931-2.598 4.813 4.813 0 00-3.892.44c-3.459 2.116-3.83 9.52-2.951 13.01.074.307 1.82 4.972 1.872 4.887zM42.67 60.487c.222.212 4.231 3.11 4.231 3.036 0-.074 2.274-6.79 1.893-9.953-.317-2.698-1.47-6.05-3.945-7.5a4.824 4.824 0 00-6.907 1.936c-1.693 3.702 2.041 10.017 4.728 12.481zm117.644-30.231s-20.552 21.219-20.446 47.314c.105 26.095 20.859 47.102 20.859 47.102s20.552-21.219 20.436-47.282c-.117-26.063-20.849-47.134-20.849-47.134z"/><path opacity=".5" d="M131.003 93.151c.274-.294.525-.609.751-.941 1.492-2.264 2.772-5.564 1.809-8.272a4.826 4.826 0 00-4.562-3.364 4.821 4.821 0 00-1.964.402c-2.793 1.322-4.168 5.797-4.464 9.457a40.785 40.785 0 00-2.972-.593c-.37-.835-.741-1.671-1.121-2.507-.381-.835-.688-1.745-1.058-2.623-.497-1.3-.942-2.665-1.386-4.03 1.629-.73 6.347-2.94 8.124-4.897 1.777-1.957 3.586-5.078 3.046-7.902a4.81 4.81 0 00-6.008-3.914c-3.903 1.153-6.198 8.135-6.272 11.763 0 .116-.001.888.137 1.808-.391-1.353-.793-2.686-1.142-4.061-1.005-3.904-1.904-7.912-2.825-11.921-.19-.836-.391-1.671-.592-2.507 1.375-.603 6.526-2.962 8.378-5.003 1.851-2.042 3.575-5.078 3.035-7.902a4.799 4.799 0 00-6.008-3.914c-3.892 1.153-6.188 8.135-6.272 11.763 0 .137.074 1.057.169 2.115-.529-2.179-1.058-4.337-1.703-6.463a84.813 84.813 0 00-3.84-10.704c.487-.212 6.58-2.846 8.632-5.12 1.819-2.02 3.585-5.088 3.046-7.912a4.834 4.834 0 00-2.133-3.294 4.817 4.817 0 00-3.875-.62c-3.903 1.164-6.199 8.135-6.273 11.773 0 .254.297 3.576.445 4.76v-.127a63.274 63.274 0 00-5.596-9.668 85.12 85.12 0 00-6.177-7.838c-2.02-2.337-4.02-4.347-5.807-6.113a93.37 93.37 0 00-2.73-2.581h.085c.074 0-1.904-4.538-2.052-4.813C79.998 4.215 74.625-.768 70.648.1a4.823 4.823 0 00-3.375 6.346c.889 2.73 3.914 4.58 6.484 5.458 2.57.878 8.378.476 9.795.35a93.626 93.626 0 012.793 2.74c1.734 1.808 3.68 3.85 5.648 6.219.53.634 1.058 1.332 1.598 1.999-1.132-.942-2.708-2.2-2.878-2.306-3.067-1.957-10.143-3.924-13.274-1.322a4.823 4.823 0 00-.075 7.171c2.042 2.01 5.575 2.253 8.261 1.862 2.687-.391 7.817-3.543 8.896-4.231 1.164 1.502 2.327 3.067 3.438 4.77a61.78 61.78 0 015.289 9.658c.084.2.148.412.222.603-.476-.56-3.332-3.449-3.565-3.628-2.835-2.275-9.647-5.004-13.042-2.761a4.812 4.812 0 00-.867 7.119c1.809 2.221 5.289 2.856 8.007 2.75 3.173-.106 9.287-3.173 9.52-3.332a83.888 83.888 0 013.48 10.44c.698 2.623 1.301 5.289 1.883 8.018-.635-.72-3.301-3.396-3.512-3.575-2.835-2.275-9.647-5.004-13.053-2.761a4.824 4.824 0 00-.867 7.119c1.82 2.22 5.289 2.855 8.018 2.75 3.046-.106 8.969-3.057 9.519-3.311.265 1.227.529 2.454.783 3.692.836 4.019 1.65 8.06 2.571 12.016.327 1.375.687 2.718 1.057 4.061-.994-1.057-2.845-2.908-3.014-3.046-2.835-2.285-9.658-5.014-13.053-2.771a4.812 4.812 0 00-.867 7.118c1.808 2.232 5.288 2.856 8.007 2.761 2.718-.095 7.753-2.475 9.16-3.173.624 2.232 1.28 4.432 2.042 6.569.349.91.634 1.861 1.057 2.718l.582 1.365-.793-.074s0 1.28.074 3.342c-2.994-2.115-7.309-3.966-10.112-2.676a4.819 4.819 0 00-2.507 3.022 4.823 4.823 0 00.571 3.885c.18.305.389.592.624.857a18.73 18.73 0 003.871 8.621c.148.169 2.179 2.052 3.248 2.983-1.058-.55-2.052-1.058-3.11-1.703-1.523-.847-3.11-1.788-4.654-2.698l-2.465-1.576c-.814-.497-1.534-1.058-2.316-1.608-1.132-.814-2.253-1.703-3.375-2.602.952-1.502 3.681-5.955 4.083-8.557.402-2.602.18-6.22-1.83-8.272a4.823 4.823 0 00-7.171 0c-2.613 3.174-.677 10.208 1.259 13.286.063.095.539.709 1.057 1.417-1.057-.899-2.115-1.798-3.173-2.75-2.983-2.708-5.945-5.553-8.927-8.388l-1.82-1.724c.815-1.259 3.808-6.061 4.231-8.78.423-2.718.18-6.22-1.82-8.282a4.824 4.824 0 00-7.17 0c-2.613 3.173-.678 10.197 1.258 13.275.063.117.635.836 1.28 1.64-1.64-1.513-3.29-3.015-4.982-4.443a84.964 84.964 0 00-9.108-6.812c.286-.444 3.914-6.008 4.38-9.033.402-2.687.18-6.22-1.83-8.272a4.812 4.812 0 00-7.161 0c-2.624 3.173-.688 10.207 1.248 13.286.137.211 2.232 2.824 3.004 3.723l-.117-.074a62.406 62.406 0 00-9.995-4.982 86.743 86.743 0 00-9.52-3.173c-2.983-.836-5.754-1.407-8.208-1.904-1.344-.254-2.56-.455-3.713-.646h.074c.053 0-4.094-2.74-4.38-2.877-3.247-1.618-10.492-2.824-13.338.085a4.825 4.825 0 00.677 7.14c2.253 1.787 5.786 1.66 8.462.983 2.677-.677 7.246-4.23 8.357-5.12 1.184.212 2.454.456 3.85.752 2.444.54 5.194 1.174 8.134 2.115.794.244 1.63.53 2.444.783-1.47-.148-3.48-.338-3.681-.338-3.629.074-10.578 2.327-11.794 6.23a4.802 4.802 0 003.882 6.019c2.824.55 5.902-1.196 7.922-3.005 2.02-1.808 4.56-7.266 5.088-8.462 1.798.603 3.628 1.27 5.49 2.116a62.327 62.327 0 019.763 5.13c.18.116.349.264.529.38-.709-.2-4.686-1.057-4.972-1.057-3.617-.338-10.81 1.142-12.407 4.887a4.801 4.801 0 003.173 6.41c2.75.857 5.998-.54 8.208-2.116 2.55-1.819 5.966-7.816 6.093-8.039a84.381 84.381 0 018.663 6.791c2.031 1.81 4.02 3.713 5.998 5.649-.931-.244-4.623-1.058-4.898-1.058-3.617-.338-10.81 1.142-12.407 4.887a4.825 4.825 0 003.173 6.42c2.75.857 5.997-.539 8.208-2.115 2.486-1.777 5.786-7.5 6.072-7.986l2.686 2.644c2.91 2.898 5.818 5.818 8.78 8.61 1.058.963 2.115 1.883 3.11 2.803-1.407-.317-3.978-.856-4.231-.877-3.629-.328-10.81 1.152-12.419 4.897a4.813 4.813 0 003.174 6.41c2.74.857 5.997-.539 8.208-2.116 2.21-1.576 5.098-6.346 5.892-7.69a116.496 116.496 0 005.289 4.348c.793.571 1.565 1.206 2.358 1.714l2.338 1.565c1.629 1.058 3.173 1.957 4.696 2.856.773.465 1.513.878 2.275 1.322-1.376-.539-3.565-1.354-3.777-1.407-3.522-.878-10.863-.507-13.01 2.951a4.818 4.818 0 00.577 5.643 4.813 4.813 0 001.623 1.18c2.581 1.269 6.008.381 8.462-.846 2.666-1.354 6.685-6.347 7.172-6.939 1.872 1.058 3.702 2.115 5.426 3.004a239.124 239.124 0 0011.762 5.902c10.155 8.78 24.445 9.753 24.445 9.753s.751-17.115-9.319-28.38a35.273 35.273 0 00-12.524-8.663zm-18.119 16.681c.317-.698 2.75-6.135 2.919-9.203a41.375 41.375 0 001.682-.349 39.536 39.536 0 006.347 15.073 231.245 231.245 0 01-5.966-2.93 140.634 140.634 0 01-4.982-2.591zm92.998-19.96s-17.125.529-27.607 11.413c-10.483 10.884-10.345 28.02-10.345 28.02s17.125-.529 27.597-11.413c10.472-10.884 10.355-28.02 10.355-28.02z"/></g><path d="M161.16 100.904l16.819-15.115-.72-.804-16.109 14.48-.085-19.822.095.064 14.216-20.796-.888-.613-13.423 19.632-.212-47.674h-1.079l.138 32.368-10.705-9.266-.698.814 11.414 9.88.095 23.144-16.226-14.365-.709.815 16.945 14.988.085 21.071-12.196-9.573-.656.857 12.863 10.091.063 13.56h1.079l-.106-23.736zm-15.496 5.839l-1.068-.127-1.354 11.974-7.225-8.071h.022l-1.841-14.491-1.068.137 1.639 12.958-17.95-20.066-.804.72 12.186 13.613-7.712.095.011 1.079 8.653-.106 8.536 9.552-12.059.01v1.079l13.021-.01 7.764 8.673-8.504.519.074 1.068 9.35-.561 5.173 5.786.804-.719-9.108-10.186 1.46-12.926zm40.639 4.263l14.322-2.898-.222-1.058-12.799 2.591 18.659-19.388-.772-.751-12.661 13.158-.677-7.68-1.069.096.751 8.621-8.885 9.224-.91-12.027-1.078.084.983 12.99-8.07 8.388-1.143-8.441-1.079.137 1.27 9.298-5.384 5.585.772.74 9.477-9.837 13 .497.042-1.078-12.037-.455 7.51-7.807v.011z" fill="#fff"/><path d="M213.022 416.836L87.043 186.847 0 216.306l28.232 54.898-1.788-3.068-5.289 1.756a3.85 3.85 0 00-2.2 5.416l13.92 27.068a9.16 9.16 0 009.668 4.855l3.86-.645 67.803 131.85 98.816-21.6z" fill="#2E353A"/><path d="M294.406 87.545a5.827 5.827 0 01-7.901-2.306l-3.226-5.892-196.236 107.5 125.979 229.989 196.247-107.489-68.586-125.208a5.82 5.82 0 012.306-7.89 5.826 5.826 0 002.791-3.473 5.825 5.825 0 00-.485-4.429l-42.998-78.496a5.817 5.817 0 00-7.891-2.306z" fill="#FF8562" stroke="#2E353A" stroke-linecap="round" stroke-linejoin="round"/><path d="M304.168 96.03l-159.376 56.814 76.097 213.468 159.375-56.814L304.168 96.03z" fill="#fff" stroke="#2E353A" stroke-linecap="round" stroke-linejoin="round"/><path d="M304.177 96.038l-159.376 56.814 28.034 78.642 159.376-56.814-28.034-78.642z" fill="#fff" stroke="#2E353A" stroke-linecap="round" stroke-linejoin="round"/><path d="M291.841 176.832c11.901-7.556 15.424-23.328 7.868-35.229-7.555-11.9-23.327-15.423-35.228-7.868-11.901 7.556-15.423 23.328-7.868 35.229 7.555 11.9 23.328 15.423 35.228 7.868z" fill="#2E353A" stroke="#2E353A" stroke-linecap="round" stroke-linejoin="round"/><path d="M286.727 179.358a25.474 25.474 0 0015.412-15.306c-4.432-9.921-15.264-15.094-25.016-11.635-9.753 3.459-14.862 14.343-12.016 24.826a25.486 25.486 0 0021.62 2.115z" fill="#fff" stroke="#2E353A" stroke-linecap="round" stroke-linejoin="round"/><path d="M285.017 160.238c5.355-4.73 5.861-12.905 1.13-18.259-4.73-5.355-12.906-5.86-18.26-1.13-5.354 4.73-5.86 12.906-1.129 18.26 4.73 5.354 12.905 5.86 18.259 1.129zm-60.448-4.274l-55.776 19.883 2.284 6.406 55.776-19.882-2.284-6.407zm5.495 15.393l-55.776 19.883 2.284 6.407 55.775-19.883-2.283-6.407z" fill="#fff" stroke="#2E353A" stroke-linecap="round" stroke-linejoin="round"/><path d="M234.623 184.169l-55.776 19.883 1.144 3.208 55.775-19.883-1.143-3.208zm2.744 7.698l-55.776 19.882 1.144 3.209 55.776-19.883-1.144-3.208zm13.94 39.106l-55.775 19.883 1.143 3.208 55.776-19.882-1.144-3.209zm2.509 7.059l-55.776 19.883 1.144 3.208 55.775-19.882-1.143-3.209zm2.519 7.049l-55.776 19.883 1.144 3.208 55.775-19.883-1.143-3.208zm70.621-41.079l-55.775 19.883 1.143 3.208 55.776-19.882-1.144-3.209zm2.519 7.059L273.7 230.944l1.143 3.208 55.776-19.883-1.144-3.208zm2.509 7.052l-55.776 19.883 1.144 3.208 55.776-19.882-1.144-3.209z" fill="#2E353A"/><path d="M191.952 244.929l134.642-47.98" stroke="#2E353A" stroke-linecap="round" stroke-linejoin="round"/><path d="M264.335 267.516l-55.776 19.883 1.144 3.208 55.775-19.883-1.143-3.208zm2.508 7.063l-55.775 19.882 1.144 3.209 55.775-19.883-1.144-3.208zm2.519 7.048l-55.775 19.883 1.144 3.208 55.775-19.882-1.144-3.209zm70.622-41.079l-55.776 19.883 1.144 3.208 55.776-19.882-1.144-3.209zm2.519 7.06l-55.775 19.882 1.143 3.208 55.776-19.882-1.144-3.208zm2.509 7.052l-55.776 19.882 1.144 3.209 55.775-19.883-1.143-3.208z" fill="#2E353A"/><path d="M204.973 281.475l134.642-47.98" stroke="#2E353A" stroke-linecap="round" stroke-linejoin="round"/><path d="M350.038 268.752l-132.076 47.082 11.426 32.053 132.076-47.082-11.426-32.053z" fill="#2E353A" stroke="#2E353A" stroke-linecap="round" stroke-linejoin="round"/><path d="M283.307 109.242l-155.505 66.682 89.313 208.284 155.506-66.682-89.314-208.284z" fill="#fff" stroke="#2E353A" stroke-linecap="round" stroke-linejoin="round"/><path d="M283.315 109.246L127.81 175.928l32.903 76.732 155.505-66.682-32.903-76.732z" fill="#fff" stroke="#2E353A" stroke-linecap="round" stroke-linejoin="round"/><path d="M282.634 183.656c7.524-11.921 3.96-27.684-7.96-35.208-11.921-7.524-27.683-3.96-35.208 7.96-7.524 11.921-3.96 27.684 7.961 35.208 11.92 7.524 27.683 3.96 35.207-7.96z" fill="#2E353A" stroke="#2E353A" stroke-linecap="round" stroke-linejoin="round"/><path d="M271.115 193.501a25.467 25.467 0 0014.417-16.248c-5.035-9.615-16.173-14.11-25.682-10.027-9.51 4.083-13.931 15.242-10.441 25.524a25.51 25.51 0 0021.706.751z" fill="#fff" stroke="#2E353A" stroke-linecap="round" stroke-linejoin="round"/><path d="M267.874 174.819c5.224-4.874 5.509-13.06.635-18.284-4.874-5.224-13.059-5.509-18.284-.635-5.224 4.873-5.509 13.059-.635 18.283 4.873 5.225 13.059 5.509 18.284.636zm-60.262-.768l-54.421 23.336 2.68 6.251 54.421-23.336-2.68-6.251zm6.441 15.011l-54.421 23.336 2.681 6.251 54.421-23.336-2.681-6.251z" fill="#fff" stroke="#2E353A" stroke-linecap="round" stroke-linejoin="round"/><path d="M219.421 201.567L165 224.903l1.342 3.131 54.421-23.337-1.342-3.13zm3.217 7.507l-54.421 23.336 1.343 3.131 54.421-23.336-1.343-3.131zm16.368 38.158l-54.422 23.336 1.343 3.13 54.421-23.336-1.342-3.13zm2.95 6.879l-54.421 23.337 1.342 3.13 54.422-23.336-1.343-3.131zm2.942 6.894l-54.421 23.337 1.342 3.13 54.421-23.336-1.342-3.131zm67.913-45.41l-54.421 23.336 1.342 3.13 54.421-23.336-1.342-3.13zm2.946 6.869L261.336 245.8l1.342 3.13 54.421-23.336-1.342-3.13zm2.962 6.89l-54.421 23.336 1.342 3.13 54.421-23.336-1.342-3.13z" fill="#2E353A"/><path d="M180.634 264.878l131.374-56.326" stroke="#2E353A" stroke-linecap="round" stroke-linejoin="round"/><path d="M254.29 282.896l-54.421 23.336 1.342 3.13 54.421-23.336-1.342-3.13zm2.957 6.869l-54.421 23.336 1.342 3.13 54.421-23.336-1.342-3.13zm2.951 6.89l-54.421 23.336 1.342 3.13 54.421-23.336-1.342-3.13zm67.913-45.411l-54.422 23.337 1.343 3.13 54.421-23.336-1.342-3.131zm2.947 6.87l-54.421 23.336 1.342 3.13 54.421-23.336-1.342-3.13zm2.941 6.894l-54.421 23.336 1.342 3.13 54.421-23.336-1.342-3.13z" fill="#2E353A"/><path d="M195.918 300.535l131.374-56.325" stroke="#2E353A" stroke-linecap="round" stroke-linejoin="round"/><path d="M339.906 278.759l-128.868 55.26 13.41 31.274 128.869-55.26-13.411-31.274z" fill="#2E353A" stroke="#2E353A" stroke-linecap="round" stroke-linejoin="round"/><path d="M247.747 107.865l-141.919 92.128 123.396 190.085 141.918-92.128-123.395-190.085z" fill="#fff" stroke="#2E353A" stroke-linecap="round" stroke-linejoin="round"/><path d="M247.753 107.874l-141.919 92.127 45.46 70.028 141.918-92.128-45.459-70.027z" fill="#fff" stroke="#2E353A" stroke-linecap="round" stroke-linejoin="round"/><path d="M240.222 196.72c13.913-2.261 23.36-15.373 21.099-29.287-2.261-13.914-15.374-23.36-29.287-21.099-13.914 2.261-23.361 15.373-21.1 29.287 2.261 13.914 15.374 23.36 29.288 21.099z" fill="#2E353A" stroke="#2E353A" stroke-linecap="round" stroke-linejoin="round"/><path d="M250.044 192.866a25.484 25.484 0 0011.456-18.458c-6.601-8.631-18.342-11.149-27.016-5.522-8.673 5.628-11.148 17.39-5.955 26.931a25.454 25.454 0 0021.515-2.951z" fill="#FF8562" stroke="#2E353A" stroke-linecap="round" stroke-linejoin="round"/><path d="M241.76 177.085c5.438-4.633 6.091-12.798 1.458-18.236-4.634-5.439-12.799-6.091-18.237-1.458-5.438 4.633-6.091 12.798-1.458 18.237 4.634 5.438 12.799 6.091 18.237 1.457zm-57.606 7.502l-49.666 32.242 3.704 5.704 49.666-32.241-3.704-5.705zm8.892 13.701l-49.667 32.242 3.704 5.704 49.666-32.241-3.703-5.705z" fill="#fff" stroke="#2E353A" stroke-linecap="round" stroke-linejoin="round"/><path d="M199.568 211.111l-49.739 31.975 1.839 2.861 49.74-31.975-1.84-2.861zm5.343 5.438l-49.666 32.242 1.854 2.856 49.666-32.241-1.854-2.857zm22.613 34.823l-49.667 32.241 1.855 2.857 49.666-32.242-1.854-2.856zm4.076 6.289l-49.666 32.241 1.854 2.857 49.666-32.241-1.854-2.857zm4.075 6.289l-49.666 32.242 1.855 2.856 49.666-32.241-1.855-2.857zm59.215-56.313l-49.666 32.241 1.854 2.857 49.666-32.241-1.854-2.857zm4.085 6.284l-49.666 32.241 1.854 2.857 49.666-32.241-1.854-2.857zm4.076 6.289l-49.666 32.241 1.854 2.857 49.666-32.241-1.854-2.857z" fill="#2E353A"/><path d="M173.018 278.629l119.887-77.84" stroke="#2E353A" stroke-linecap="round" stroke-linejoin="round"/><path d="M248.652 283.924l-49.667 32.242 1.855 2.856 49.666-32.241-1.854-2.857zm4.07 6.281l-49.666 32.241 1.854 2.857 49.666-32.241-1.854-2.857zm4.085 6.273l-49.666 32.241 1.854 2.857 49.666-32.241-1.854-2.857zm59.211-56.288l-49.666 32.241 1.854 2.857 49.666-32.242-1.854-2.856zm4.079 6.275l-49.666 32.241 1.854 2.857 49.666-32.241-1.854-2.857zm4.065 6.289l-49.666 32.241 1.855 2.857 49.666-32.241-1.855-2.857z" fill="#2E353A"/><path d="M194.142 311.166l119.886-77.83" stroke="#2E353A" stroke-linecap="round" stroke-linejoin="round"/><path d="M332.334 265.311l-117.609 76.347 18.528 28.541 117.609-76.347-18.528-28.541z" fill="#2E353A" stroke="#2E353A" stroke-linecap="round" stroke-linejoin="round"/><path d="M87.043 186.847l-75.228-58.24 44.764 83.976c1.058 2.031-1.745 2.411-4.6.613-2.889-1.808-5.734-1.407-4.602.646l23.218 42.204a5.282 5.282 0 001.428 1.534l11.339 8.547a5.06 5.06 0 011.449 1.576l46.975 89.222 81.247 59.911-125.99-229.989z" fill="#FF8562" stroke="#2E353A" stroke-linecap="round" stroke-linejoin="round"/><path opacity=".25" d="M87.043 186.847l-75.228-58.24 44.764 83.976c1.058 2.031-1.745 2.411-4.6.613-2.889-1.808-5.734-1.407-4.602.646l23.218 42.204a5.282 5.282 0 001.428 1.534l11.339 8.547a5.06 5.06 0 011.449 1.576l46.975 89.222 81.247 59.911-125.99-229.989z" fill="#2E353A" stroke="#2E353A" stroke-linecap="round" stroke-linejoin="round"/><path d="M407.47 315.059a.156.156 0 00-.084-.085c-1.238-.539-11.636-.444-11.911.169 0 .074.053.169.212.275.222.14.456.26.698.36.296.127.656.264 1.058.402.402.137.783.275 1.195.402l1.767.55.93.275.614.169-10.768 10.419a81.544 81.544 0 01-7.055 5.754l-.487-.486a23.682 23.682 0 00-2.232-1.904v-.275a23.257 23.257 0 01-2.845 1.544c-3.681 1.851-14.005 6.484-17.686 13.91a116.003 116.003 0 01-6.135 10.979v.487h-.296c-3.565-.307-10.356 2.062-15.348 4.527a112.467 112.467 0 00-12.291 7.88l-3.872 1.365c-1.407.201-3.988.529-4.347.962-.36.434-2.867 0-3.977.275-1.111.275-.794 1.058-.794 1.058l2.116.201-13.952 4.855 11.223 8.907 15.221-5.649.814.201a6.503 6.503 0 004.887-.434 16.43 16.43 0 001.576-.687c2.814-.37 11.371-2.253 14.344-2.909 2.231 3.025 8.599 8.113 9.689 10.313.051.117.094.237.127.36v.084a.581.581 0 010 .275 15.801 15.801 0 01-1.957 3.459 28.515 28.515 0 00-4.475-1.428c-5.785-1.332-8.948 4.676-9.953 4.972-1.005.296-2.232 1.184-1.058 2.031 1.174.846-.603 1.629-1.322 2.771a9.69 9.69 0 00-.899 2.867c-3.819.327-7.087 1.904-7.933 4.231-1.058 2.972 8.578 5.151 8.578 5.151s13.338 5.215 23.514 1.946c10.176-3.268 9.784-8.716 10.578-11.635.793-2.92 9.096-10.102 18.415-15.105 9.319-5.003 13.37-9.52 4.506-16.3-5.817-4.453-10.937-6.59-15.157-6.759.105-.254.222-.508.338-.751l.212-.466c.127-.264.275-.518.412-.782l.212-.381c.222-.381.455-.751.708-1.121.442-.628.828-1.294 1.153-1.989a10.577 10.577 0 00.773-6.907 8.633 8.633 0 01-.297-2.052c.212-1.386 2.518-6.833 3.11-9.256a1.956 1.956 0 000-.507 5.38 5.38 0 00-.634-1.947c2.38-1.417 7.171-3.998 9.371-6.441 2.2-2.444 7.013-11.149 8.812-15.613.074-.18.137-.36.2-.529.064-.158.117-.328.17-.476.042-.148.084-.285.127-.412v-.053c0-.106.063-.222.084-.318a.092.092 0 010-.052v-.328a.965.965 0 000-.17v-.084s.032-.064.021-.095zM351.272 374.6c-3.269.91-10.8 3.29-14.809 4.622l-7.404-6.78c1.798-.931 5.786-2.665 10.313-4.612a62.681 62.681 0 0112.989-3.332 6.35 6.35 0 01.709 2.19 24.954 24.954 0 001.586 3.808 13.76 13.76 0 01-3.384 4.104z" fill="#2E353A"/><path d="M394.799 264.138c2.216 6.743 4.07 13.6 5.553 20.542 1.492 8.176 4.612 25.195 4.612 25.195s-7.849.445-7.986 1.725c-.138 1.279 10.355 6.346 11.921 5.849 1.565-.497 2.464-32.431 1.523-39.687-.941-7.256-5.955-16.924-6.347-19.103-.391-2.179-1.248-6.421-1.248-6.421l-8.028 11.9z" fill="#fff" stroke="#2E353A" stroke-linecap="round" stroke-linejoin="round"/><path d="M408.899 317.449c.391-.116.74-2.115 1.057-5.289-3.078 2.264-5.288 0-5.288 0l.285-2.263s-7.848.444-7.986 1.724c-.137 1.28 10.366 6.315 11.932 5.828z" fill="#FF8562" stroke="#2E353A" stroke-linecap="round" stroke-linejoin="round"/><path d="M390.134 168.463s-12.46-12.841-14.312-13.75c-1.851-.91-2.496 1.057-1.967 2.168.529 1.111 13.201 17.908 15.348 20.097 2.147 2.19.931-8.515.931-8.515z" fill="#fff" stroke="#2E353A" stroke-linecap="round" stroke-linejoin="round"/><path d="M357.808 132.087l-16.702 12.037 19.759 28.507 15.274-12.852-18.331-27.692z" fill="#2E353A" stroke="#2E353A" stroke-linecap="round" stroke-linejoin="round"/><path d="M357.925 135.187l-14.132 10.186 16.724 24.127 12.925-10.873-15.517-23.44z" fill="#FF8562" stroke="#2E353A" stroke-linecap="round" stroke-linejoin="round"/><path d="M377.314 156.987a23.099 23.099 0 00-1.989-3.829c-1.375-2.116-2.253-3.247-4.675-3.11-1.8.053-3.601-.078-5.374-.391-1.385-.148-1.406 1.851-.677 2.538.73.688 4.76.519 4.76.519-.412-.54-.106.338 2.56 4.009.751 1.057 3.385 1.237 3.977 1.301" fill="#fff"/><path d="M377.314 156.987a23.099 23.099 0 00-1.989-3.829c-1.375-2.116-2.253-3.247-4.675-3.11-1.8.053-3.601-.078-5.374-.391-1.385-.148-1.406 1.851-.677 2.538.73.688 4.76.519 4.76.519-.412-.54-.106.338 2.56 4.009.751 1.057 3.385 1.237 3.977 1.301" stroke="#2E353A" stroke-linecap="round" stroke-linejoin="round"/><path d="M395.19 111.154a48.379 48.379 0 00-1.238 7.955c0 2.538 1.375 4.908-.338 5.986-1.714 1.079-.994 3.385-.159 4.422.836 1.036.402 14.163 7.055 14.258 6.654.096 13.053-3.331 14.407-6.991 1.354-3.66 4.707-14.079.487-18.987-4.221-4.908-16.322-13.201-20.214-6.643z" fill="#fff" stroke="#2E353A" stroke-linecap="round" stroke-linejoin="round"/><path d="M395.444 123.308l1.047 1.925-1.269.043m.01-5.057s1.989 0 2.116 3.3" stroke="#2E353A" stroke-linecap="round" stroke-linejoin="round"/><path d="M405.799 141.808a52.1 52.1 0 010 8.885 3.103 3.103 0 01-.56 1.333 53.61 53.61 0 0110.577-5.638l1.058-.402a112.03 112.03 0 01-.804-13.528l-10.271 9.35zM377.42 268.422s-.571 14.333.634 19.23c1.206 4.898 5.659 45.41 5.469 49.07-.19 3.659-.339 5.162-.339 5.162s-11.011 1.607-12.132 1.925c-1.121.317-1.491 1.787 4.601 3.533 6.093 1.745 10.779 4.421 12.08 2.401 1.301-2.021 3.067-9.52 3.586-14.989 1.216-12.693 3.3-26.952 2.052-33.362-1.248-6.41-4.496-14.385-4.051-16.501.444-2.115 7.319-25.386 7.319-25.386l-19.219 8.917z" fill="#fff" stroke="#2E353A" stroke-linecap="round" stroke-linejoin="round"/><path d="M387.733 349.743a15.557 15.557 0 001.364-4.411c-3.226 1.703-7.192-.709-7.192-.709l1.279-2.739s-11.011 1.607-12.132 1.925c-1.121.317-1.491 1.787 4.601 3.533 6.093 1.745 10.779 4.421 12.08 2.401zm18.066-207.935a52.1 52.1 0 010 8.885c-.444 4.073-18.881 16.015-18.415 20.51.465 4.496 2.634 10.758 1.417 16.015-1.216 5.257-7.965 23.556-9.308 30.072-1.343 6.516-6.452 56.061-4.146 58.24 2.305 2.179 11.635 1.259 16.331-1.396 4.697-2.655 14.396-12.693 15.253-17.675.857-4.982 1.82-16.618 2.444-19.41.624-2.793 5.479-9.52 4.939-21.98-.539-12.461 3.956-27.502 5.014-37.202 1.058-9.699 0-22.847-1.682-28.105-1.681-5.257-1.597-17.304-1.597-17.304l-10.25 9.35z" fill="#FF8562" stroke="#2E353A" stroke-linecap="round" stroke-linejoin="round"/><path d="M406.91 256.458c.867-4.982 1.819-16.617 2.443-19.409.624-2.793 5.479-9.52 4.94-21.981-.307-6.833.92-14.449 2.263-21.546-3.522 3.342-12.693 11.127-22.477 12.037-7.076.666-9.382-1.396-10.049-3.321-1.957 5.902-3.903 11.878-4.559 15.052-1.354 6.515-6.452 56.061-4.146 58.24 2.306 2.179 11.635 1.259 16.332-1.396 4.696-2.655 14.396-12.693 15.253-17.676z" fill="#2E353A" stroke="#2E353A" stroke-linecap="round" stroke-linejoin="round"/><path d="M404.911 242.01l-14.28 24.878m7.753-8.97l-6.526 13.053" stroke="#fff" stroke-width=".5" stroke-linecap="round" stroke-linejoin="round"/><path d="M451.812 159.452c-2.761-11.964-10.578-16.1-17.474-20.235-3.173-1.894-4.231-5.131-4.379-8.092l-.349 3.173a19.609 19.609 0 010-4.517c.116-.698.264-1.449.433-2.263a18.542 18.542 0 00-.105 3.564l.708-6.621v.074c1.058-5.934 1.534-13.836-4.686-22.118-8.303-11.064-24.91-7.16-24.91-7.16s-11.075-.265-11.762 6.007c-.688 6.273 3.438 12.112 9.012 13.36 0 0 1.132 2.411 2.422 6.018a5.3 5.3 0 00-1.322 1.978s1.841.921 2.761 6.897c.92 5.976-8.283 17.019-7.405 24.328.878 7.31 8.738 7.405 8.272 11.498-.465 4.094-5.976 3.174-5.511 8.272.328 3.628 6.579 8.208 10.578 11.53a83.884 83.884 0 00-.074 10.577 24.432 24.432 0 00-3.628 13.328c.275 6.812 6.568 9.234 12.545 7.637a28.609 28.609 0 004.781-1.777c5.627 2.264 19.314.518 25.894-10.451 6.896-11.498.455-15.179 0-23.45-.455-8.272 6.96-9.605 4.199-21.557z" fill="#2E353A" stroke="#2E353A" stroke-linecap="round" stroke-linejoin="round"/><path d="M397.485 105.294a49.718 49.718 0 0012.027 11.413c8.737 5.522 2.761 22.076-4.136 29.427-6.896 7.352-5.521 14.259 2.296 17.929 7.816 3.671 21.61 7.817 13.75 21.156-7.859 13.338-8.737 23.905 2.761 27.131m-29.384-110.832s.634 1.058 1.798 2.591m37.413 106.665a5.815 5.815 0 004.474-.751m-12.915-49.715c7.129 2.56 14.808 4.718 15.665 12.016 1.386 11.953-14.713 17.474-14.713 27.121 0 4.538 1.724 7.754 3.977 9.605" stroke="#fff" stroke-width=".5" stroke-linecap="round" stroke-linejoin="round"/><path d="M409.512 116.707s11.033 4.136 13.751 11.033c2.719 6.896-14.248 17.019-8.737 25.756 1.703 2.687 4.749 4.369 8.208 5.765m2.158-52.264s9.519 9.721 5.172 20.563c-4.347 10.842-6.347 15.739-3.173 18.595 3.173 2.856 20.002 4.083 24.106 17.094" stroke="#fff" stroke-width=".5" stroke-linecap="round" stroke-linejoin="round"/><path d="M386.22 198.356s-9.626-7.108-14.174-14.978-8.377-14.555-8.282-15.412c.095-.856.56-5.14-.772-6.801-1.333-1.661-5.882-3.681-6.474-4.178-.592-.497-1.83.888-.455 2.115a49.327 49.327 0 012.74 2.687l-8.843-2.264a2.119 2.119 0 00.169 2.402c.973.973 3.755 1.269 3.85 2.369.096 1.1 2.909 3.173 4.105 4.125a4.144 4.144 0 001.829 1.058s5.067 17.019 8.632 24.127c3.564 7.109 8.991 14.809 12.767 15.867 3.776 1.058 8.409-5.585 8.409-5.585l-3.501-5.532z" fill="#fff" stroke="#2E353A" stroke-linecap="round" stroke-linejoin="round"/><path d="M402.943 164.233s-5.151 3.554-6.759 8.356c-1.608 4.802-9.816 16.469-11.001 19.378a17.02 17.02 0 01-2.179 4.072s1.058 6.347 5.437 9.69c4.379 3.342 5.733 3.014 5.733 3.014s15.867-25.788 18.427-31.786c2.559-5.997-2.835-15.665-9.658-12.724z" fill="#FF8562" stroke="#2E353A" stroke-linecap="round" stroke-linejoin="round"/></svg>