<svg width="1845" height="577" fill="none" xmlns="http://www.w3.org/2000/svg"><path d="M161 240c0-11.046 8.954-20 20-20h1559c11.05 0 20 8.954 20 20v202c0 11.046-8.95 20-20 20H181c-11.046 0-20-8.954-20-20V240z" fill="#F3F5F9"/><path d="M714.557 64.931c11.138 97.652 48.171 108.729 111.099 33.23 62.928-75.497 99.961-64.42 111.098 33.231 11.138 97.653 48.171 108.729 111.096 33.231 62.93-75.498 99.96-64.422 111.1 33.231 11.14 97.652 48.17 108.728 111.1 33.23 62.93-75.498 99.96-64.421 111.1 33.231 11.14 97.652 48.17 108.729 111.1 33.23 62.93-75.498 99.96-64.421 111.1 33.231 11.13 97.652 48.17 108.729 111.09 33.23 62.93-75.498 99.96-64.421 111.1 33.231M.8 232.884c5.125 95.854 36.146 105.132 93.061 27.836 56.916-77.297 87.936-68.019 93.061 27.835 5.125 95.853 36.145 105.132 93.06 27.835 56.916-77.297 87.936-68.018 93.061 27.835 5.125 95.854 36.145 105.132 93.061 27.836 56.915-77.297 87.935-68.019 93.06 27.835 5.125 95.853 36.145 105.132 93.061 27.835 56.916-77.297 87.936-68.018 93.061 27.835 5.124 95.854 36.145 105.132 93.06 27.836 56.916-77.297 87.936-68.019 93.061 27.835" stroke="#fff" stroke-width="3"/></svg>