<svg width="375" height="550" fill="none" xmlns="http://www.w3.org/2000/svg"><path d="M372.863 224.589c-66.873 38.61-128.568 71.524-174.248 93.528-22.849 11.006-41.646 19.26-55.065 24.135-6.723 2.442-12.009 4.004-15.743 4.656-1.879.328-3.241.403-4.144.302a3.104 3.104 0 01-.715-.149c.034-.098.094-.238.2-.43.391-.705 1.194-1.684 2.535-2.946 2.657-2.501 6.986-5.711 12.886-9.603 11.77-7.765 29.43-18.01 51.515-30.392 14.299-8.016 30.441-16.92 48.007-26.611 36.635-20.21 79.466-43.838 124.692-69.949 66.874-38.609 128.569-71.524 174.249-93.527 22.849-11.006 41.646-19.26 55.065-24.135 6.723-2.443 12.009-4.005 15.743-4.657 1.88-.328 3.241-.403 4.144-.302.363.041.585.101.715.15a2.831 2.831 0 01-.2.43c-.391.705-1.194 1.683-2.535 2.945-2.657 2.501-6.986 5.712-12.886 9.603-11.77 7.765-29.43 18.011-51.515 30.392-14.298 8.016-30.44 16.92-48.006 26.61-36.635 20.21-79.467 43.838-124.694 69.95zM122.908 347.247c-.001 0-.002-.009 0-.029a.076.076 0 010 .029zm489.951-262.51l-.002-.001h.002zm-.12-.236c-.002-.018-.001-.028 0-.028s.002.008 0 .028zM99.684 404.193c-40.856 23.589-78.52 43.731-106.38 57.229-13.94 6.753-25.38 11.821-33.523 14.827-4.086 1.509-7.257 2.466-9.463 2.873-.484.09-.899.148-1.249.182.193-.205.424-.435.699-.69 1.584-1.471 4.192-3.395 7.794-5.762 7.176-4.715 17.949-10.965 31.443-18.537 8.729-4.897 18.586-10.343 29.315-16.27 22.383-12.365 48.562-26.827 76.206-42.787 40.857-23.589 78.521-43.731 106.381-57.229 13.939-6.752 25.38-11.821 33.523-14.827 4.086-1.508 7.257-2.466 9.462-2.873.485-.09.899-.148 1.249-.182a14.02 14.02 0 01-.698.69c-1.584 1.471-4.192 3.395-7.795 5.762-7.176 4.716-17.948 10.965-31.442 18.537-8.729 4.897-18.586 10.342-29.314 16.269-22.384 12.366-48.563 26.828-76.207 42.788zm-151.93 75.088c.001-.001.011.002.028.009a.118.118 0 01-.027-.009zm.527 1.066a.06.06 0 01-.007.019l.007-.019zm298.175-160.176a.167.167 0 01-.027-.01c.019.006.028.009.027.01zm-.526-1.067l.006-.018-.006.018zm-96.266 114.567c-53.37 30.814-102.76 56.801-139.461 73.907-18.36 8.558-33.493 14.868-44.34 18.454-5.439 1.798-9.703 2.877-12.716 3.237-1.515.181-2.59.163-3.29.03-.319-.061-.496-.132-.589-.181a1.84 1.84 0 01.12-.32c.25-.54.813-1.322 1.832-2.357 2.02-2.05 5.39-4.658 10.063-7.809 9.313-6.28 23.386-14.452 41.038-24.298 11.42-6.369 24.325-13.433 38.372-21.12 29.302-16.038 63.57-34.793 99.677-55.64 53.371-30.813 102.761-56.8 139.462-73.906 18.36-8.558 33.493-14.869 44.34-18.454 5.439-1.798 9.702-2.877 12.715-3.237 1.516-.181 2.591-.163 3.291-.03.319.061.496.132.588.181a1.87 1.87 0 01-.12.32c-.25.54-.812 1.322-1.832 2.357-2.019 2.05-5.39 4.657-10.063 7.808-9.312 6.281-23.385 14.452-41.037 24.298-11.42 6.37-24.325 13.433-38.371 21.12-29.303 16.038-63.571 34.794-99.679 55.64zM-50.819 529.06l.006.006a.043.043 0 01-.006-.006zm.072.143c.003.017.003.026.001.027 0 0-.002-.008 0-.027zm391.6-207.018l-.006-.005.006.005zm-.072-.142c-.003-.017-.002-.026-.001-.027.001-.001.003.008.001.027zM345.524 38.5c0 10.452 7.455 18.5 16.158 18.5 2.311 0 2.878-.543 3.034-.764.24-.34.419-1.118.146-2.944-.169-1.132-.451-2.351-.776-3.759-.188-.81-.389-1.683-.592-2.638-.533-2.506-1.018-5.36-1.018-8.395 0-10.452-7.455-18.5-16.158-18.5-2.311 0-2.878.543-3.034.764-.24.34-.419 1.118-.146 2.944.169 1.132.451 2.35.776 3.758.188.811.39 1.684.593 2.638.532 2.507 1.017 5.36 1.017 8.396z" stroke="#fff" stroke-width="4"/><path d="M345.524 38.5c0 10.452 7.455 18.5 16.158 18.5 2.311 0 2.878-.543 3.034-.764.24-.34.419-1.118.146-2.944-.169-1.132-.451-2.351-.776-3.759-.188-.81-.389-1.683-.592-2.638-.533-2.506-1.018-5.36-1.018-8.395 0-10.452-7.455-18.5-16.158-18.5-2.311 0-2.878.543-3.034.764-.24.34-.419 1.118-.146 2.944.169 1.132.451 2.35.776 3.758.188.811.39 1.684.593 2.638.532 2.507 1.017 5.36 1.017 8.396zm-53.709-21c0 8.296 7.888 15.5 18.254 15.5 2.729 0 3.536-.514 3.735-.73.113-.124.348-.513.055-2.012-.183-.936-.483-1.926-.838-3.1-.21-.697-.44-1.457-.677-2.31-.6-2.159-1.159-4.664-1.159-7.348 0-8.296-7.888-15.5-18.254-15.5-2.729 0-3.536.514-3.735.73-.113.124-.348.513-.055 2.012.184.936.483 1.926.838 3.1.21.696.44 1.457.677 2.31.6 2.159 1.159 4.664 1.159 7.348z" stroke="#fff" stroke-width="4"/><path d="M291.815 17.5c0 8.296 7.888 15.5 18.254 15.5 2.729 0 3.536-.514 3.735-.73.113-.124.348-.513.055-2.012-.183-.936-.483-1.926-.838-3.1-.21-.697-.44-1.457-.677-2.31-.6-2.159-1.159-4.664-1.159-7.348 0-8.296-7.888-15.5-18.254-15.5-2.729 0-3.536.514-3.735.73-.113.124-.348.513-.055 2.012.184.936.483 1.926.838 3.1.21.696.44 1.457.677 2.31.6 2.159 1.159 4.664 1.159 7.348zm60.436 451.604c10.277-9.744 32.395-18.594 49.658-19.251 4.452-.169 5.622.333 5.761.817.115.397-.405 1.137-2.676 2.855-1.442 1.091-3.175 2.273-5.177 3.639-1.153.787-2.396 1.635-3.723 2.561-3.48 2.428-7.236 5.193-10.305 8.103-10.277 9.744-32.395 18.594-49.658 19.251-4.452.169-5.621-.333-5.761-.817-.114-.397.405-1.137 2.677-2.855 1.441-1.09 3.174-2.273 5.176-3.639 1.153-.787 2.396-1.635 3.724-2.561 3.479-2.428 7.235-5.193 10.304-8.103z" stroke="#fff" stroke-width="4"/><path d="M325.306 471.439c.936-1.654 2.983-3.759 6.519-6.331 3.52-2.56 8.19-5.339 13.753-8.143 11.106-5.597 25.264-11.041 39.782-14.931 3.631-.974 6.362-1.602 8.366-1.949 2.028-.352 3.194-.394 3.805-.277.394.075.464.194.474.24-.021.043-.147.272-.737.896-.674.71-1.633 1.602-2.888 2.731l-1.087.975c-.939.84-1.969 1.761-2.964 2.68-2.773 2.563-5.942 5.713-7.652 8.737-.935 1.653-2.983 3.759-6.519 6.331-3.52 2.56-8.19 5.339-13.753 8.143-11.105 5.597-25.264 11.041-39.782 14.931-3.631.974-6.362 1.602-8.366 1.949-2.028.352-3.194.394-3.805.277-.394-.075-.464-.194-.474-.24.021-.043.147-.272.737-.896.674-.71 1.634-1.602 2.888-2.731.342-.308.707-.635 1.087-.974.939-.841 1.97-1.762 2.964-2.681 2.773-2.564 5.943-5.714 7.652-8.737zm72.699-31.372c-.001 0-.001-.004.001-.015.001.009 0 .014-.001.015zm-88.027 47.372c.001 0 .001.004-.001.015-.001-.009 0-.014.001-.015z" stroke="#fff" stroke-width="4"/></svg>