<svg width="415" height="387" fill="none" xmlns="http://www.w3.org/2000/svg"><path d="M373.446 234.989c-3.624.613-10.416 5.281-10.424 5.281-.009 0 4.435 3.547 4.746 3.736 3.581 2.175 11.787 4.272 15.334 1.191a5.556 5.556 0 00-.078-8.266c-2.416-2.27-6.489-2.468-9.578-1.942z" fill="#FF8562"/><path d="M358 216.575c-3.202 1.484-8.189 7.292-8.586 7.766a98.835 98.835 0 00-10.485-7.887 185.065 185.065 0 00-6.523-4.081c1.096.457 2.079.863 2.226.863 4.03 1.147 12.495 1.009 15.11-2.891a5.554 5.554 0 00-.439-6.529 5.546 5.546 0 00-1.822-1.427c-2.926-1.553-6.904-.665-9.751.656-2.848 1.32-7.231 6.204-8.37 7.507-.863-.501-1.726-1.01-2.589-1.502-4.099-2.39-8.206-4.746-12.159-7.188a108.265 108.265 0 01-4.081-2.64c.975.397 1.803.733 1.933.768 4.03 1.156 12.495 1.009 15.101-2.891a5.556 5.556 0 00-2.261-7.956c-2.925-1.553-6.903-.664-9.742.656-2.839 1.32-6.809 5.73-8.164 7.274-1.354-.958-2.709-1.907-3.969-2.899-.863-.69-1.726-1.294-2.528-2.045l-2.442-2.132c-1.502-1.415-3.055-2.865-4.487-4.314-1.001-.975-1.933-1.924-2.883-2.882 1.381.863 4.108 2.519 4.358 2.632 3.806 1.725 12.193 2.89 15.369-.57a5.58 5.58 0 001.118-2.027 5.573 5.573 0 00.195-2.307 5.565 5.565 0 00-2.349-3.872c-2.649-1.985-6.722-1.726-9.734-.863-3.305.958-8.913 5.721-9.604 6.325a263.77 263.77 0 01-4.461-4.634 278.735 278.735 0 01-7.973-8.871l-2.589 1.726c2.356 2.589 5.221 5.713 8.551 9.104a234.21 234.21 0 005.074 5.039 56.919 56.919 0 00-3.719 6.041c-3.452-.863-10.26-.043-11.131.069-.432-2.183-.863-4.315-1.165-6.325-.717-4.211-1.269-8-1.726-11.261l-2.787 1.82a329.38 329.38 0 001.725 9.941c.423 2.218.924 4.582 1.45 6.998-.863.328-7.688 3.055-10.087 5.54-2.175 2.244-4.315 5.721-3.814 8.992a5.541 5.541 0 002.322 3.884 5.555 5.555 0 004.443.862c4.539-1.182 7.455-9.13 7.697-13.315 0-.25-.138-2.942-.259-4.642.225.983.432 1.95.673 2.959.466 2.011.993 4.004 1.545 6.144.302 1.027.612 2.063.923 3.107.311 1.044.725 2.114 1.079 3.184.863 2.459 1.898 4.901 2.977 7.343-1.726.415-7.973 1.968-10.485 3.866-2.511 1.899-5.177 5.005-5.134 8.319a5.55 5.55 0 005.971 5.712c4.669-.483 8.759-7.895 9.631-11.994.051-.259.345-3.271.466-4.928.664 1.467 1.311 2.926 2.027 4.384 2.071 4.211 4.315 8.413 6.481 12.607.682 1.286 1.337 2.589 1.993 3.866-.621.138-8.059 1.821-10.864 3.952-2.494 1.899-5.177 5.005-5.134 8.319a5.519 5.519 0 00.406 2.278 5.535 5.535 0 005.565 3.434c4.669-.483 8.75-7.896 9.622-11.994.06-.311.474-4.643.526-5.756 1.458 2.839 2.882 5.678 4.176 8.534a98.882 98.882 0 014.652 11.908c-.294.069-8.06 1.795-10.934 3.97-2.493 1.898-5.177 5.005-5.177 8.318a5.544 5.544 0 001.71 4.19 5.555 5.555 0 004.261 1.523c4.669-.483 8.759-7.896 9.63-11.995.061-.319.51-4.987.527-5.842.069.233.172.475.241.708a72.06 72.06 0 012.33 12.504c.251 2.338.354 4.582.415 6.765-1.485.172-8.233 1.035-11.037 2.709-2.805 1.674-5.661 4.41-6.041 7.706a5.58 5.58 0 001.246 4.347 5.567 5.567 0 004.061 1.987c4.695 0 9.579-6.903 10.89-10.864.069-.216.553-2.503.863-4.168v2.951c0 3.547-.259 6.8-.5 9.673a131.396 131.396 0 01-.483 4.488c-1.364.932-6.809 4.737-8.491 7.464-1.683 2.727-3.003 6.515-1.795 9.604a5.535 5.535 0 003.102 3.296 5.547 5.547 0 004.526-.112c4.185-2.14 5.324-10.527 4.651-14.669-.061-.363-1.605-5.851-1.674-5.799l-.086.052c.189-1.321.379-2.744.552-4.315.302-2.882.612-6.135.716-9.69.152-3.841.08-7.688-.216-11.52a72.698 72.698 0 00-2.071-12.711v-.147c.734 1.165 2.891 4.315 3.081 4.574 2.727 3.184 9.872 7.766 14.203 5.919a5.556 5.556 0 003.007-3.382 5.559 5.559 0 00-.513-4.496c-1.579-2.908-5.393-4.366-8.491-4.832-3.451-.527-10.855 1.57-11.442 1.725a98.51 98.51 0 00-4.392-12.357 175.355 175.355 0 00-3.193-7.006c.664.983 1.268 1.864 1.363 1.976 2.727 3.184 9.872 7.766 14.195 5.919a5.552 5.552 0 003.237-5.683 5.559 5.559 0 00-.734-2.195c-1.579-2.917-5.393-4.366-8.491-4.841-3.098-.475-9.492 1.191-11.115 1.648-.44-.863-.863-1.777-1.303-2.658-2.114-4.254-4.237-8.482-6.187-12.702-.69-1.484-1.311-2.968-1.941-4.461.587.863 1.096 1.605 1.182 1.726 2.727 3.184 9.872 7.766 14.203 5.928a5.565 5.565 0 003.007-3.387 5.568 5.568 0 00-.513-4.5c-1.579-2.908-5.393-4.366-8.491-4.832-3.098-.466-8.836 1.027-10.821 1.57-.595-1.544-1.199-3.089-1.726-4.608-.327-1.044-.716-2.028-.983-3.098-.268-1.07-.57-2.096-.863-3.132-.475-2.011-.967-4.073-1.381-6.04a223.739 223.739 0 01-.811-3.996c.664 1.493 2.037 4.375 2.175 4.6a21.643 21.643 0 008.171 7.196c.212.351.458.681.734.984a5.564 5.564 0 004.083 1.956 5.565 5.565 0 004.184-1.732c3.132-3.494 1.182-11.727-.932-15.351-.121-.215-1.726-2.381-2.77-3.728.733.699 1.432 1.39 2.191 2.097 1.502 1.424 3.038 2.796 4.677 4.315l2.486 2.08c.819.716 1.769 1.363 2.657 2.053 2.097 1.562 4.315 3.046 6.541 4.487-1.242 1.312-5.574 6.041-6.618 9.009-1.044 2.969-1.528 7.007.302 9.768a5.568 5.568 0 006.053 2.48 5.569 5.569 0 002.084-1.004c3.633-2.986 2.951-11.425 1.407-15.317-.095-.25-1.511-2.916-2.322-4.375 1.355.863 2.71 1.726 4.108 2.537 4.047 2.382 8.215 4.651 12.365 6.947 1.269.699 2.529 1.415 3.789 2.122-.441.458-5.713 5.972-6.904 9.294-1.035 2.951-1.536 7.007.302 9.768a5.57 5.57 0 003.736 2.548 5.553 5.553 0 004.393-1.072c3.633-2.986 2.951-11.425 1.415-15.317-.121-.293-2.166-4.142-2.735-5.091 2.778 1.562 5.531 3.141 8.189 4.815a98.917 98.917 0 0110.311 7.395c-.207.216-5.738 5.937-6.903 9.345-1.035 2.952-1.536 7.007.302 9.769a5.56 5.56 0 008.137 1.467c3.625-2.977 2.943-11.417 1.407-15.317-.121-.302-2.33-4.436-2.779-5.178l.587.458a71.322 71.322 0 018.828 9.155c1.493 1.812 2.822 3.624 4.073 5.411-1.139.958-6.291 5.41-7.706 8.353-1.415 2.942-2.295 6.799-.768 9.742a5.545 5.545 0 007.921 2.356c3.935-2.589 4.186-11.02 3.081-15.067-.06-.224-.915-2.39-1.562-3.96.553.819 1.139 1.648 1.657 2.442 1.933 2.977 3.529 5.816 4.919 8.353a149.104 149.104 0 012.071 4.003c-.63 1.528-3.072 7.706-2.969 10.916.104 3.21 1.096 7.085 3.797 9.001a5.567 5.567 0 004.408 1.029 5.556 5.556 0 003.712-2.591c2.313-4.082-1.363-11.71-4.211-14.791-.242-.267-4.565-3.995-4.591-3.917l-.043.095a151.66 151.66 0 00-1.907-3.892c-1.337-2.589-2.873-5.445-4.755-8.474a97.908 97.908 0 00-6.532-9.492 72.223 72.223 0 00-8.732-9.492l-.121-.095c1.251.57 4.806 2.037 5.091 2.114 4.03 1.156 12.495 1.01 15.11-2.891a5.556 5.556 0 00-2.261-7.956c-2.9-1.527-6.886-.612-9.725.682z" fill="#FF8562"/><path d="M302.713 279.136c-.086 0 1.726 5.402 1.898 5.729 1.787 3.789 7.473 10.062 12.124 9.493a5.561 5.561 0 004.496-6.904c-.759-3.227-4.047-5.643-6.903-6.903-3.374-1.596-11.615-1.415-11.615-1.415zM117.532 93.61c2.588-1.467 6.377-6.904 6.377-6.904s-4.315-1.44-4.608-1.493c-3.297-.638-10.053.06-11.874 3.357a4.453 4.453 0 00.801 5.188c.441.444.971.79 1.555 1.017 2.45 1.095 5.574.103 7.749-1.165z" fill="#FF8562"/><path d="M134.272 103.196c1.994-2.01 4.134-7.766 4.315-8.223a78.492 78.492 0 0010.079 3.02c1.993.466 4.021.863 6.04 1.26-.949 0-1.803-.07-1.924-.06-3.357.258-9.682 2.717-10.571 6.376a4.47 4.47 0 003.918 5.359c2.632.362 5.384-1.415 7.153-3.202 1.769-1.786 3.719-6.678 4.211-7.973l2.339.423c3.754.647 7.499 1.286 11.157 2.019 1.286.259 2.546.561 3.806.863-.863 0-1.562-.052-1.674 0-3.348.25-9.682 2.71-10.562 6.377a4.465 4.465 0 002.142 4.789 4.458 4.458 0 001.767.57c2.64.354 5.384-1.424 7.162-3.202 1.777-1.777 3.529-6.213 4.116-7.766 1.286.345 2.589.682 3.797 1.079.863.284 1.648.5 2.468.863l2.433.932c1.519.647 3.098 1.303 4.565 1.976 1.027.457 1.993.863 2.968 1.363-1.277-.267-3.788-.751-4.004-.768-3.356-.259-9.984 1.217-11.416 4.703a4.442 4.442 0 00.217 3.627 4.459 4.459 0 002.846 2.258c2.589.759 5.532-.578 7.56-2.071 2.217-1.648 5.117-6.791 5.47-7.438 1.614.759 3.176 1.518 4.643 2.252 3.236 1.614 6.04 3.132 8.465 4.453l1.476-1.985a228.291 228.291 0 00-8.966-4.479c-1.631-.776-3.4-1.579-5.221-2.381.485-1.834.86-3.696 1.122-5.575 2.822-.31 7.766-2.821 8.362-3.15.923 1.519 1.812 3.012 2.588 4.436a203.636 203.636 0 014.401 8.008l1.588-2.149a221.14 221.14 0 00-7.11-11.856c.543-.484 4.936-4.444 6.04-6.973 1.01-2.303 1.666-5.514.371-7.835a4.464 4.464 0 00-2.819-2.297 4.453 4.453 0 00-3.592.571c-3.09 2.158-3.081 8.949-2.089 12.167.052.19.915 2.175 1.476 3.452-.44-.682-.863-1.346-1.329-2.036-.863-1.39-1.855-2.744-2.865-4.203l-1.562-2.08c-.5-.707-1.13-1.389-1.725-2.096a84.048 84.048 0 00-4.315-4.703c1.208-.794 5.462-3.693 6.817-5.825 1.355-2.131 2.485-5.177 1.553-7.68a4.467 4.467 0 00-2.451-2.68 4.464 4.464 0 00-3.632.031c-3.374 1.666-4.393 8.379-3.909 11.71 0 .207.647 2.589 1.018 3.84-.906-.915-1.804-1.838-2.744-2.736a355.317 355.317 0 00-8.388-7.688l-2.588-2.356c.431-.276 5.557-3.616 7.084-5.997 1.346-2.114 2.477-5.178 1.553-7.689a4.449 4.449 0 00-2.437-2.653 4.458 4.458 0 00-3.603.013c-3.383 1.665-4.401 8.379-3.909 11.71 0 .25.932 3.624 1.199 4.47-1.889-1.727-3.745-3.452-5.514-5.264a78.817 78.817 0 01-6.575-7.715c.199-.13 5.566-3.59 7.128-6.04 1.346-2.114 2.476-5.178 1.553-7.68a4.473 4.473 0 00-2.435-2.659 4.465 4.465 0 00-3.605.01c-3.383 1.665-4.393 8.379-3.909 11.71 0 .258 1.001 3.891 1.225 4.538-.121-.155-.259-.302-.38-.466a57.317 57.317 0 01-5.177-8.767c-.863-1.726-1.545-3.348-2.192-4.97 1.061-.544 5.902-3.072 7.55-5.117 1.649-2.045 3.038-4.884 2.391-7.465a4.457 4.457 0 00-3.91-3.5 4.452 4.452 0 00-1.846.204c-3.546 1.277-5.29 7.844-5.177 11.218 0 .181.276 2.028.491 3.374-.284-.742-.586-1.493-.862-2.209a86.691 86.691 0 01-2.313-7.421 75.333 75.333 0 01-.863-3.512c.768-1.079 3.814-5.454 4.315-7.982.5-2.528.44-5.738-1.321-7.766a4.456 4.456 0 00-5.082-1.304 4.47 4.47 0 00-1.545 1.028c-2.589 2.77-1.078 9.397.57 12.33.146.25 2.839 3.953 2.873 3.901l.052-.069c.224 1.053.475 2.166.777 3.391.569 2.252 1.242 4.78 2.157 7.49a79.808 79.808 0 003.357 8.63 58.762 58.762 0 005.091 9l.077.094c-.862-.672-3.382-2.467-3.589-2.588-2.943-1.631-9.579-3.072-12.331-.51a4.467 4.467 0 00-1.326 3.382 4.46 4.46 0 001.628 3.246c2.002 1.726 5.281 1.786 7.766 1.277 2.77-.57 7.766-4.194 8.129-4.487a78.15 78.15 0 006.748 8.085c1.397 1.493 2.864 2.943 4.314 4.384a61.9 61.9 0 00-1.579-1.105c-2.943-1.64-9.578-3.08-12.331-.509a4.45 4.45 0 00-1.325 3.381 4.46 4.46 0 001.627 3.246c2.002 1.726 5.281 1.787 7.766 1.278 2.485-.51 6.783-3.521 7.913-4.315l1.726 1.64c2.77 2.588 5.54 5.177 8.18 7.843.941.924 1.821 1.873 2.71 2.814-.69-.492-1.277-.907-1.372-.958-2.934-1.64-9.578-3.072-12.331-.51a4.46 4.46 0 00-.851 5.179 4.477 4.477 0 001.161 1.449c1.994 1.725 5.273 1.786 7.767 1.277 2.494-.51 6.368-3.228 7.706-4.185.862.992 1.725 1.984 2.588 2.994.535.69 1.105 1.329 1.605 2.062l1.51 2.115c.915 1.38 1.864 2.795 2.719 4.167.604.95 1.164 1.864 1.725 2.779-.914-.932-2.752-2.718-2.916-2.856a17.415 17.415 0 00-8.155-3.141 4.896 4.896 0 00-.863-.544 4.455 4.455 0 00-3.616-.334 4.468 4.468 0 00-2.666 2.465c-1.389 3.504 2.373 9.156 4.971 11.296.155.129 1.967 1.312 3.123 2.036-.742-.319-1.467-.647-2.235-.966-1.518-.656-3.063-1.26-4.711-1.916l-2.451-.863c-.811-.31-1.726-.535-2.588-.811a93.8 93.8 0 00-6.17-1.553c.569-1.337 2.511-6.1 2.468-8.63-.043-2.527-.794-5.703-2.943-7.265a4.453 4.453 0 00-3.522-.88 4.464 4.464 0 00-3.01 2.028c-1.899 3.253.958 9.414 3.201 11.917.138.164 1.95 1.777 2.96 2.649-1.26-.268-2.511-.544-3.797-.768-3.702-.665-7.473-1.217-11.218-1.795l-3.451-.544c.207-.466 2.64-6.083 2.588-8.905-.043-2.511-.793-5.704-2.942-7.266a4.471 4.471 0 00-3.522-.88 4.463 4.463 0 00-3.01 2.028c-1.899 3.253.958 9.414 3.192 11.925.173.182 2.779 2.512 3.452 3.073a203.153 203.153 0 01-7.507-1.355 79.07 79.07 0 01-9.812-2.701c.095-.216 2.667-6.04 2.589-8.957-.043-2.511-.794-5.704-2.942-7.266a4.465 4.465 0 00-6.533 1.148c-1.898 3.253.958 9.414 3.202 11.925.172.19 2.985 2.692 3.52 3.107-.181-.06-.379-.113-.569-.182a57.354 57.354 0 01-9.19-4.435c-1.622-.94-3.124-1.941-4.565-2.934.587-1.044 3.236-5.825 3.452-8.43.216-2.606-.164-5.756-2.123-7.551a4.472 4.472 0 00-6.627.423c-2.244 3.029-.078 9.492 1.872 12.201.104.156 1.355 1.545 2.278 2.59-.647-.458-1.32-.924-1.924-1.382-2.287-1.725-4.271-3.39-6.04-4.91a108.807 108.807 0 01-2.675-2.442c.052-1.32.172-6.653-.794-9.043-.967-2.39-2.796-5.03-5.367-5.712a4.464 4.464 0 00-4.963 1.734 4.452 4.452 0 00-.715 1.717c-.604 3.72 4.314 8.44 7.283 9.967.258.13 4.538 1.726 4.547 1.665v-.077c.768.75 1.596 1.544 2.52 2.399 1.726 1.553 3.676 3.305 5.937 5.056a77.792 77.792 0 007.55 5.324 58.247 58.247 0 009.207 4.695l.113.043c-1.096-.087-4.186-.199-4.419-.181-3.356.259-9.69 2.718-10.57 6.377a4.46 4.46 0 003.909 5.358c2.64.285 5.428-1.493 7.153-3.279z" fill="#FF8562"/><path d="M158.52 40.764c.06 0-2.813-3.581-3.02-3.78-2.399-2.355-8.422-5.505-11.736-3.78a4.453 4.453 0 00-1.449 6.473c1.458 2.217 4.608 3.123 7.119 3.279 2.959.215 9.077-2.183 9.086-2.192z" fill="#FF8562"/><g opacity=".1" fill="#000"><path opacity=".1" d="M57.258 124.441c.12-.923-.95-1.933-.95-2.882 0-.949 1.07-1.968.95-2.882-.121-.915-1.416-1.648-1.657-2.589-.242-.941.526-2.166.164-3.029-.363-.863-1.787-1.217-2.261-2.019-.475-.803-.052-2.226-.621-2.968-.57-.743-2.046-.708-2.71-1.373-.664-.664-.621-2.131-1.372-2.709-.75-.578-2.149-.155-2.968-.621-.82-.466-1.148-1.899-2.02-2.261-.871-.363-2.114.405-3.028.164-.915-.242-1.605-1.536-2.546-1.657-.94-.12-1.924.949-2.882.949-.958 0-1.959-1.027-2.908-.914-.95.112-1.64 1.415-2.537 1.656-.898.242-2.175-.526-3.038-.164-.862.363-1.208 1.787-2.019 2.261-.811.475-2.226.052-2.968.621-.742.57-.708 2.046-1.372 2.71-.665.664-2.132.621-2.701 1.372-.57.751-.155 2.149-.63 2.968-.475.82-1.899 1.148-2.26 2.02-.363.871.413 2.114.163 3.028-.25.915-1.527 1.606-1.657 2.589-.13.984.95 1.933.95 2.882 0 .95-1.062 1.959-.95 2.883.112.923 1.415 1.639 1.657 2.588.242.949-.518 2.166-.164 3.029s1.795 1.208 2.26 2.019c.467.811.053 2.227.63 2.969.579.742 2.037.707 2.702 1.372.664.664.63 2.131 1.372 2.709.742.578 2.157.156 2.968.622.811.466 1.157 1.898 2.028 2.26.872.363 2.114-.405 3.029-.164.915.242 1.596 1.528 2.537 1.657.94.13 1.933-.949 2.882-.949.95 0 1.967 1.07 2.882.949.915-.121 1.648-1.415 2.546-1.657.897-.241 2.166.518 3.029.164.862-.353 1.216-1.794 2.019-2.26.802-.466 2.226-.052 2.968-.63.742-.579.708-2.037 1.372-2.701.665-.665 2.14-.63 2.71-1.372.57-.742.155-2.149.63-2.969.474-.819 1.898-1.147 2.252-2.019.354-.871-.406-2.123-.164-3.029.241-.906 1.562-1.682 1.683-2.623zM35.357 138.55a16.99 16.99 0 1116.99-16.991 17.001 17.001 0 01-16.99 16.991z"/><path opacity=".1" d="M44.969 131.17c5.307-5.307 5.307-13.913 0-19.22-5.308-5.308-13.913-5.308-19.22 0-5.308 5.307-5.308 13.913 0 19.22 5.307 5.308 13.912 5.308 19.22 0z"/></g><g opacity=".1" fill="#000"><path opacity=".1" d="M393.794 118.072c.155-1.225-1.269-2.588-1.269-3.848 0-1.26 1.424-2.589 1.269-3.849-.156-1.26-1.89-2.192-2.209-3.391-.32-1.2.699-2.899.215-4.047-.483-1.148-2.39-1.622-3.011-2.701s-.078-2.969-.863-3.96c-.785-.993-2.727-.941-3.616-1.83-.888-.889-.863-2.848-1.829-3.616-.967-.768-2.874-.207-3.961-.863-1.087-.656-1.536-2.528-2.701-3.011-1.165-.484-2.821.543-4.047.215-1.225-.328-2.131-2.045-3.391-2.209-1.26-.164-2.589 1.269-3.849 1.269-1.26 0-2.588-1.424-3.848-1.269-1.26.156-2.192 1.89-3.392 2.21-1.199.319-2.89-.69-4.047-.216-1.156.474-1.613 2.39-2.7 3.02-1.088.63-2.969.069-3.961.863-.993.794-.898 2.718-1.761 3.633-.863.914-2.847.863-3.607 1.829-.759.966-.207 2.873-.862 3.961-.656 1.087-2.537 1.536-3.021 2.701-.483 1.165.553 2.821.225 4.047-.328 1.225-2.045 2.131-2.209 3.391-.164 1.26 1.259 2.589 1.259 3.849 0 1.259-1.423 2.588-1.259 3.848.164 1.26 1.889 2.192 2.209 3.391.319 1.2-.699 2.891-.225 4.048.475 1.156 2.391 1.613 3.021 2.7.629 1.088.077 2.969.862 3.961.786.993 2.727.941 3.607 1.83.881.888.863 2.847 1.83 3.607.966.759 2.873.207 3.969.862 1.096.656 1.536 2.537 2.701 3.021 1.165.483 2.822-.544 4.039-.225 1.216.32 2.14 2.045 3.391 2.209 1.251.164 2.589-1.259 3.848-1.259 1.26 0 2.589 1.423 3.849 1.259 1.26-.164 2.192-1.889 3.391-2.209 1.2-.319 2.9.699 4.047.225 1.148-.475 1.623-2.391 2.701-3.021 1.079-.629 2.969-.069 3.961-.862.992-.794.941-2.727 1.829-3.607.889-.881 2.848-.863 3.616-1.83.768-.966.207-2.873.863-3.961.656-1.087 2.528-1.544 3.011-2.7.484-1.157-.543-2.831-.215-4.048.328-1.216 1.976-2.165 2.14-3.417zm-29.236 18.829a22.679 22.679 0 01-16.035-38.713 22.675 22.675 0 0134.891 3.437 22.676 22.676 0 013.822 12.599 22.685 22.685 0 01-22.678 22.677z"/><path opacity=".1" d="M375.01 127.121c8.014-6.011 9.638-17.38 3.628-25.394-6.011-8.014-17.38-9.638-25.394-3.628-8.014 6.011-9.638 17.38-3.628 25.394 6.011 8.014 17.38 9.638 25.394 3.628z"/></g><g opacity=".1" fill="#000"><path opacity=".1" d="M346.187 302.547a18.983 18.983 0 10-.002 37.966 18.983 18.983 0 00.002-37.966zm1.225 32.152v2.002h-2.416v-2.002c-3.279-.449-4.754-2.943-4.754-6.524v-1.579h2.752v1.812c0 2.373.984 3.737 3.098 3.737s3.098-1.364 3.098-3.737c0-5.885-8.836-5.962-8.836-13.401 0-3.624 1.475-5.997 4.642-6.489v-2.114h2.416v2.071c3.21.457 4.677 2.943 4.677 6.489v.716h-2.752v-.906c0-2.338-.941-3.771-3.055-3.771-2.114 0-3.02 1.433-3.02 3.771 0 5.928 8.87 5.963 8.87 13.401 0 3.547-1.51 6.075-4.72 6.524z"/><path opacity=".1" d="M346.187 290.466a31.067 31.067 0 00-6.061 61.533 31.06 31.06 0 0031.89-13.21 31.057 31.057 0 00-3.863-39.224 31.064 31.064 0 00-21.966-9.099zm0 54.363a23.298 23.298 0 11-.002-46.595 23.298 23.298 0 01.002 46.595z"/></g><g opacity=".1" fill="#000"><path opacity=".1" d="M272.831 329.478a13.405 13.405 0 00-12.389 8.278 13.404 13.404 0 002.907 14.614 13.412 13.412 0 0014.613 2.906 13.403 13.403 0 008.278-12.388 13.409 13.409 0 00-13.409-13.41zm.863 22.712v1.415h-1.726v-1.415c-2.321-.32-3.357-2.08-3.357-4.617v-1.13h2.002v1.277c0 1.674.69 2.64 2.183 2.64 1.493 0 2.192-.966 2.192-2.64 0-4.159-6.239-4.211-6.239-9.492 0-2.589 1.036-4.237 3.279-4.582v-1.493h1.726v1.493c2.261.319 3.305 2.079 3.305 4.582v.509h-1.95v-.639c0-1.656-.665-2.666-2.157-2.666-1.493 0-2.132 1.01-2.132 2.666 0 4.185 6.265 4.211 6.265 9.492-.052 2.494-1.122 4.28-3.383 4.6h-.008z"/><path opacity=".1" d="M272.831 320.944a21.949 21.949 0 00-20.274 13.546 21.947 21.947 0 0028.671 28.671 21.94 21.94 0 0013.547-20.273 21.942 21.942 0 00-21.944-21.944zm0 38.399a16.45 16.45 0 01-15.203-10.158 16.453 16.453 0 0111.992-22.437 16.46 16.46 0 0116.893 6.997 16.458 16.458 0 012.773 9.143 16.437 16.437 0 01-1.24 6.31 16.465 16.465 0 01-8.908 8.932 16.449 16.449 0 01-6.307 1.256v-.043z"/></g><g opacity=".1" fill="#000"><path opacity=".1" d="M249.653 282.888a13.413 13.413 0 00-12.389 8.278 13.405 13.405 0 002.907 14.614 13.412 13.412 0 0014.613 2.907 13.405 13.405 0 008.278-12.389 13.393 13.393 0 00-8.276-12.391 13.398 13.398 0 00-5.133-1.019zm.863 22.712v1.407h-1.726V305.6c-2.313-.319-3.357-2.08-3.357-4.617v-1.139h1.95v1.278c0 1.674.691 2.64 2.183 2.64 1.493 0 2.184-.966 2.184-2.64 0-4.16-6.239-4.211-6.239-9.493 0-2.588 1.044-4.236 3.279-4.582v-1.492h1.726v1.492c2.269.32 3.305 2.08 3.305 4.582v.51h-1.942v-.639c0-1.657-.673-2.666-2.166-2.666-1.493 0-2.131 1.009-2.131 2.666 0 4.185 6.264 4.211 6.264 9.492 0 2.503-1.061 4.289-3.33 4.608z"/><path opacity=".1" d="M249.653 274.354a21.943 21.943 0 1021.935 21.944 21.935 21.935 0 00-21.935-21.944zm0 38.4a16.453 16.453 0 01-15.203-10.159 16.45 16.45 0 013.567-17.933 16.457 16.457 0 0125.318 2.494 16.455 16.455 0 012.773 9.142 16.447 16.447 0 01-10.15 15.234 16.457 16.457 0 01-6.305 1.256v-.034z"/></g><path opacity=".1" d="M66.775 28.916H79.47l-6.351-10.985-6.343 10.985zm-24.912 0h12.694l-6.343-10.985-6.35 10.985z" fill="#000"/><path opacity=".1" d="M60.666 3.581a24.696 24.696 0 1024.697 24.697A24.722 24.722 0 0060.666 3.58zm17.465 28.76H68.113a2.788 2.788 0 01-2.416-4.175L72.945 15.6h-10.57v23.99h3.917v2.044h5.462v2.874H50.26v-2.873h4.772V39.59h5.031V15.558H48.387l7.248 12.564a2.788 2.788 0 01-2.416 4.22H43.201a2.788 2.788 0 01-2.416-4.176L48.032 15.6h-.293a1.173 1.173 0 010-2.338h12.322a1.174 1.174 0 012.339 0h12.261a1.175 1.175 0 110 2.338H73.29l7.258 12.565a2.787 2.787 0 01-2.417 4.176z" fill="#000"/><path opacity=".1" d="M60.666 0a28.277 28.277 0 100 56.555 28.277 28.277 0 000-56.555zm0 53.837a25.56 25.56 0 1125.56-25.56 25.595 25.595 0 01-25.56 25.56zm24.947 264.552h12.694l-6.343-10.994-6.351 10.994zm-24.903 0h12.693l-6.351-10.994-6.343 10.994z" fill="#000"/><path opacity=".1" d="M79.504 293.053a24.697 24.697 0 1024.696 24.688 24.711 24.711 0 00-24.697-24.688zm17.473 28.709H86.95a2.78 2.78 0 01-2.785-2.784 2.78 2.78 0 01.378-1.392l7.248-12.555h-10.57v24.023h3.917v2.045H90.6v2.874H69.097v-2.874h4.772v-2.045h5.005v-24.032h-11.65l7.249 12.555a2.779 2.779 0 01-2.408 4.177H62.038a2.782 2.782 0 01-2.413-1.391 2.782 2.782 0 01.006-2.786l7.248-12.555h-.293a1.174 1.174 0 010-2.347h12.288a1.174 1.174 0 012.347 0h12.287a1.17 1.17 0 011.174 1.173 1.172 1.172 0 01-1.174 1.174h-1.371l7.248 12.555a2.79 2.79 0 01-1.014 3.81 2.783 2.783 0 01-1.394.375z" fill="#000"/><path opacity=".1" d="M79.504 289.49a28.278 28.278 0 10-.002 56.557 28.278 28.278 0 00.002-56.557zm0 53.837a25.556 25.556 0 01-23.614-15.778 25.562 25.562 0 0118.627-34.85 25.558 25.558 0 0130.546 25.068 25.586 25.586 0 01-25.56 25.534v.026z" fill="#000"/><path d="M205.031 387c98.651 0 178.623-3.091 178.623-6.903 0-3.813-79.972-6.904-178.623-6.904-98.65 0-178.623 3.091-178.623 6.904 0 3.812 79.973 6.903 178.623 6.903z" fill="#263238"/><path d="M331.431 205.503c5.1.949 10.665-2.321 13.806-7.577 2.391-3.943 3.228-7.835 4.203-12.296 1.096-4.867 38.995-181.065 39.392-182.808H196.885l-39.072 181.565-1.588 7.326a13.93 13.93 0 01-1.726 4.315l-1.156 1.924a12.946 12.946 0 01-18.448 3.948 12.943 12.943 0 01-4.445-5.354 20.49 20.49 0 00-18.389-12.133h-.716a20.53 20.53 0 00-19.571 15.714l-15.852 65.771h191.921l14.566-60.404" fill="#fff"/><path d="M331.431 205.503c5.1.949 10.665-2.321 13.806-7.577 2.391-3.943 3.228-7.835 4.203-12.296 1.096-4.867 38.995-181.065 39.392-182.808H196.885l-39.072 181.565-1.588 7.326a13.93 13.93 0 01-1.726 4.315l-1.156 1.924a12.946 12.946 0 01-18.448 3.948 12.943 12.943 0 01-4.445-5.354 20.49 20.49 0 00-18.389-12.133h-.716a20.53 20.53 0 00-19.571 15.714l-15.852 65.771h191.921l14.566-60.404" stroke="#263238" stroke-linecap="round" stroke-linejoin="round"/><path d="M257.669 23.316l-.276 1.45h-1.726l.294-1.544c.284-1.45-.121-2.322-1.441-2.322-1.321 0-2.054.863-2.339 2.322l-1.639 8.534c-.285 1.45.146 2.32 1.441 2.32 1.294 0 2.062-.862 2.338-2.32l.406-2.097h1.726l-.38 2.002c-.475 2.442-1.942 4.055-4.427 4.055-2.485 0-3.305-1.613-2.839-4.055l1.614-8.345c.466-2.442 1.933-4.055 4.401-4.055s3.279 1.613 2.847 4.055zm1.458 0c.475-2.468 2.002-4.055 4.47-4.055s3.4 1.587 2.926 4.055l-1.605 8.345c-.475 2.442-2.002 4.055-4.496 4.055-2.494 0-3.374-1.613-2.908-4.055l1.613-8.345zm.147 8.44c-.285 1.475.173 2.32 1.467 2.32s2.071-.862 2.356-2.32l1.648-8.535c.276-1.45-.155-2.32-1.467-2.32s-2.08.862-2.356 2.32l-1.648 8.535zm8.189 3.796h-1.614l3.107-16.154h2.287l1.484 11.658 2.252-11.658h1.588l-3.115 16.128h-1.864l-1.614-13.038-2.511 13.064zm10.165 0l2.796-14.497h-2.977l.319-1.631h7.723l-.319 1.63h-2.968l-2.796 14.498h-1.778zm12.677-16.154c2.536 0 3.348 1.286 2.89 3.685l-.259 1.312c-.336 1.777-1.173 2.882-2.64 3.322 1.389.44 1.726 1.64 1.381 3.365l-.492 2.511a3.791 3.791 0 000 1.933h-1.83a4.073 4.073 0 01.087-1.959l.483-2.528c.354-1.83-.388-2.399-1.89-2.399h-1.268l-1.329 6.904h-1.795l3.063-16.146h3.599zm-1.925 7.603a2.375 2.375 0 002.71-2.21l.293-1.544c.285-1.458-.103-2.218-1.441-2.218h-1.726l-1.208 5.998L288.38 27zm6.748 5.341l-1.217 3.21h-1.725l6.239-16.154h2.588v16.128h-1.795v-3.184h-4.09zm.527-1.544h3.598v-9.311l-3.598 9.31zm16.214-7.482l-.276 1.45h-1.726l.302-1.544c.276-1.45-.13-2.322-1.441-2.322-1.312 0-2.063.863-2.339 2.322l-1.648 8.534c-.276 1.45.147 2.32 1.441 2.32 1.295 0 2.062-.862 2.339-2.32l.405-2.097h1.726l-.345 2.002c-.475 2.442-1.933 4.055-4.427 4.055-2.494 0-3.339-1.648-2.882-4.055l1.614-8.345c.466-2.442 1.933-4.055 4.4-4.055 2.468 0 3.331 1.613 2.857 4.055zm1.605 12.236l2.795-14.497h-2.968l.311-1.631h7.723l-.311 1.63h-2.951l-2.796 14.498h-1.803z" fill="#263238"/><path d="M201.83 43.44h169.295m-45.036 18.759h39.617m-101.746 0h57.962m-96.742 0h35.449m-64.218 0h25.438m99.235 9.587h42.533m-138.851 0h92.151m-122.586 0h26.682m91.322 9.594h49.203m-123.008 0h70.465m-116.752 0h42.947m93.402 9.588h30.858m-77.973 0h42.947m-88.397 0h41.282m-75.479 0h30.444m-42.119 0h7.921m152.201 9.596h7.085m-77.559 0h65.055m-114.673 0h45.45m-87.56 0h37.528m115.501 9.586h14.178m-55.46 0h37.528m-50.04 0h8.345m-68.386 0h57.961m-99.243 0h37.942m-40.03 9.587h169.295m-10.839 9.596h8.759m-47.124 0h32.946m-87.982 0h49.203m-61.302 0h8.345m-46.701 0h33.775m-50.455 0h11.675m112.999 9.588h42.533m-87.569 0h39.617m-74.219 0h30.435m-77.559 0h42.947m110.919 9.595h13.34m-57.539 0h39.608m-67.963 0h25.439m-48.375 0h18.768m-40.445 0h18.346m-45.872 0h22.936m-34.189 0h7.499m137.186 9.587h22.522m-62.13 0h34.603m-71.717 0h32.109m-75.47 0h38.356m-65.046 0h22.513m123.008 9.587h21.685m-59.212 0h33.36m-72.14 0h32.946m-59.627 0h22.936m-50.454 0h23.35m-40.453 0h14.6m140.103 9.596h12.503m-55.036 0h38.365m-72.14 0h28.77m-50.869 0h17.509m-52.949 0h29.184m-52.12 0h20.011" stroke="#263238" stroke-miterlimit="10"/><path d="M301.945 184.387v.06a20.506 20.506 0 00-18.233 15.653l-15.869 65.797H75.923l15.86-65.797a20.532 20.532 0 0119.571-15.713h190.591z" fill="#fff" stroke="#263238" stroke-linecap="round" stroke-linejoin="round"/><path d="M331.431 205.502h-49.022l1.303-5.402a20.565 20.565 0 0118.233-15.653 22.02 22.02 0 011.683-.069c7.766 0 15.748 4.254 18.76 12.141 2.122 5.575 5.462 8.31 9.043 8.983z" fill="#263238" stroke="#263238" stroke-linecap="round" stroke-linejoin="round"/><path d="M271.407 199.876c0 .639-1.562 1.113-1.674 1.726-.113.613 1.156 1.631.931 2.209-.224.578-1.855.475-2.174 1.018-.319.544.544 1.907.138 2.39-.406.484-1.907-.12-2.382.303-.474.422 0 1.976-.517 2.338-.518.362-1.83-.604-2.382-.311-.552.294-.466 1.925-1.053 2.158-.587.233-1.657-.984-2.261-.811-.604.172-.863 1.786-1.467 1.898-.604.112-1.432-1.294-2.062-1.234-.63.06-1.165 1.588-1.795 1.588-.63 0-1.191-1.536-1.803-1.588-.613-.052-1.45 1.346-2.054 1.234-.604-.112-.863-1.726-1.476-1.898-.612-.173-1.682 1.044-2.252.811-.569-.233-.518-1.864-1.053-2.158-.535-.293-1.881.665-2.381.311-.501-.354-.069-1.933-.527-2.338-.457-.406-1.984.163-2.381-.303-.397-.465.457-1.863.146-2.398-.31-.535-1.95-.432-2.174-1.01-.224-.578 1.044-1.596.923-2.209s-1.665-1.079-1.665-1.726 1.553-1.104 1.665-1.726c.112-.621-1.147-1.622-.923-2.209.224-.587 1.847-.466 2.174-1.009.328-.544-.552-1.907-.146-2.391.405-.483 1.915.121 2.381-.302.466-.423 0-1.976.527-2.338.526-.363 1.821.604 2.381.302.561-.302.466-1.916 1.053-2.157.587-.242 1.648.992 2.252.819.604-.172.863-1.786 1.476-1.898.613-.112 1.424 1.294 2.054 1.234.63-.061 1.165-1.597 1.803-1.597.639 0 1.182 1.536 1.795 1.597.613.06 1.458-1.355 2.062-1.234.604.121.863 1.726 1.467 1.898.604.173 1.726-1.044 2.261-.819.535.224.509 1.872 1.053 2.157.544.285 1.872-.656 2.382-.302.509.354.069 1.924.517 2.338.449.415 1.994-.172 2.382.302.388.475-.457 1.864-.138 2.391.319.526 1.95.44 2.174 1.018.225.578-1.052 1.588-.931 2.2.12.613 1.674 1.096 1.674 1.726z" fill="#FF8562"/><path d="M254.709 209.817c7.001 0 12.676-4.45 12.676-9.94 0-5.49-5.675-9.941-12.676-9.941s-12.676 4.451-12.676 9.941c0 5.49 5.675 9.94 12.676 9.94z" fill="#fff"/><path d="M254.709 207.927c5.667 0 10.26-3.604 10.26-8.051 0-4.446-4.593-8.051-10.26-8.051-5.666 0-10.26 3.605-10.26 8.051 0 4.447 4.594 8.051 10.26 8.051z" fill="#FF8562"/><path d="M261.932 248.321h-83.34m-26.509 0H92.37m104.3-1.761s15.731-17.422 20.218-34.516c4.487-17.095-6.55-7.827-10.959 11.131-4.41 18.958-4.41 23.817 0 20.287a45.763 45.763 0 009.052-10.553 34.817 34.817 0 001.536-2.675c1.726-3.529-3.97-1.32-5.299 5.73-1.328 7.05 6.619-3.081 8.819-6.61 2.201-3.53 6.619-5.29 3.09 3.969-3.53 9.259-8.819 7.49-3.97 1.32 4.85-6.17 10.148-18.984 10.588-11.908.44 7.076-1.329 14.98-4.867 17.207-3.538 2.226 6.61-10.14 9.699-9.259 3.09.88 4.41 4.409 1.321 7.058-3.09 2.649-3.09-6.178 20.287-5.298" stroke="#263238" stroke-linecap="round" stroke-linejoin="round"/><path d="M252.371 222.228l12.943 10.355a.803.803 0 01-.707 1.397l-16.396-4.254 4.16-7.498z" fill="#fff" stroke="#263238" stroke-linecap="round" stroke-linejoin="round"/><path d="M250.274 218.197l-75.626-44.777-8.448 14.377 78.301 42.412c.193.135.402.248.621.336 2.589 1.088 5.859-.794 7.283-4.211 1.424-3.417.466-7.058-2.131-8.137z" fill="#8C8C8C" stroke="#263238" stroke-linecap="round" stroke-linejoin="round"/><path d="M176.641 182.593c-2.209 5.29-7.265 8.215-11.295 6.533a6.546 6.546 0 01-1.105-.605l-77.515-43.197-6.317-3.529-.776-.423.198-.475 8.888-21.279.38-.863 1.027.621 8.853 5.393 74.366 45.234c4.073 1.649 5.506 7.309 3.296 12.59z" fill="#fff" stroke="#263238" stroke-linecap="round" stroke-linejoin="round"/><path d="M172.603 169.546l-73.624-44.785-8.853-5.394-1.027-.621-.38.863-8.888 21.279-.198.475.776.423 6.317 3.529 75.738 42.205c4.038 1.2 8.836-1.726 10.993-6.903 1.726-4.168 1.269-8.482-.854-11.071z" fill="#8C8C8C" stroke="#263238" stroke-linecap="round" stroke-linejoin="round"/><path d="M86.726 145.324c4.6.19 9.492-3.383 11.89-9.078a15.112 15.112 0 00.363-11.52l-8.853-5.393a9.908 9.908 0 00-1.407.285c-3.65 1.027-7.136 4.211-9.017 8.724-1.881 4.513-1.726 9.242.13 12.555.171.301.364.59.578.863" fill="#fff"/><path d="M86.726 145.324c4.6.19 9.492-3.383 11.89-9.078a15.112 15.112 0 00.363-11.52l-8.853-5.393a9.908 9.908 0 00-1.407.285c-3.65 1.027-7.136 4.211-9.017 8.724-1.881 4.513-1.726 9.242.13 12.555.171.301.364.59.578.863" stroke="#263238" stroke-linecap="round" stroke-linejoin="round"/><path d="M93.63 132.285l57.504 37.425a1.725 1.725 0 01.578 2.209 1.738 1.738 0 01-1.045.835 1.716 1.716 0 01-1.328-.162l-59.153-34.974 3.443-5.333z" fill="#fff" stroke="#263238" stroke-linecap="round" stroke-linejoin="round"/><path d="M93 133.649c-2.59 6.256-8.63 9.716-13.367 7.723-4.738-1.993-6.507-8.681-3.9-14.972 2.605-6.29 8.629-9.716 13.366-7.723 4.737 1.994 6.515 8.716 3.9 14.972z" fill="#8C8C8C" stroke="#263238" stroke-linecap="round" stroke-linejoin="round"/><path d="M91.127 132.872c-2.045 4.902-6.74 7.62-10.476 6.041-3.736-1.579-16.585-13.867-14.549-18.769 2.037-4.901 18.225-.552 21.962 1.01 3.736 1.562 5.125 6.808 3.063 11.718zm121.092 81.356l4.669-2.175a4.51 4.51 0 012.951.932c1.398 1.088 4.038 2.796 4.038 2.796s5.281.311 5.437 1.087c.155.777-3.107 1.726-3.573 1.726h-3.451s4.815 2.494 5.281 2.805c.466.31 7.153 2.33 6.221 2.951-.932.621-7.153.466-8.551.777-1.388.213-2.79.317-4.194.31l-5.281-4.815-3.736-4.047s-1.208-1.415.189-2.347zM95.044 158.44s-.31-4.202-.31-6.221-1.088-5.903-1.554-6.213c-.466-.311-5.28-2.175-6.679-3.452-1.397-1.277-3.115.466-2.493 1.553.621 1.088 4.202 3.107 4.202 3.107l-.932 1.398-3.452-2.951s-3.572-5.592-4.504-5.126c-.932.466-.621 1.243 0 2.33s.31 8.077 2.02 9.492c1.708 1.415 6.842 3.115 6.842 3.115l.466 3.883s4.815.311 5.436.466c.622.155.958-1.381.958-1.381z" fill="#fff" stroke="#263238" stroke-linecap="round" stroke-linejoin="round"/><path d="M84.784 164.368l.622-4.193s-.156-1.398 3.451-2.02a13.436 13.436 0 016.213.311 1.23 1.23 0 01.777 1.087 26.764 26.764 0 01-.466 4.505s-5.618-2.201-10.597.31z" fill="#fff" stroke="#263238" stroke-linecap="round" stroke-linejoin="round"/><path d="M147.121 370.605v11.218s2.589 1.303 10.139 1.303a58.559 58.559 0 0019.753-3.901c3.632-1.553 4.935-4.936 3.632-5.453-1.303-.518-7.766-.786-9.095-1.821-1.329-1.036-6.756-4.418-6.756-4.418s-12.996 3.857-17.673 3.072z" fill="#FF8562" stroke="#263238" stroke-linecap="round" stroke-linejoin="round"/><path d="M181.12 374.755a58.42 58.42 0 01-17.258 5.039c-8.975 1.157-14.506.164-16.758-.422v2.45s2.589 1.303 10.139 1.303a58.523 58.523 0 0019.752-3.9c2.624-1.156 4.021-3.21 4.125-4.47z" fill="#fff" stroke="#263238" stroke-linecap="round" stroke-linejoin="round"/><path d="M151.022 263.284l1.303 3.642s5.453 10.355 9.353 17.931c3.901 7.577 8.051 23.644 9.354 25.206 1.303 1.562 1.036 3.633.259 5.971-.776 2.339-7.015 43.146-7.015 44.181 0 1.036-.518 1.036.259 2.339.776 1.303 1.044 5.454 1.044 5.454a11.63 11.63 0 01-6.239 3.123c-4.159.777-12.219.777-12.219.777s-1.035-4.936-.776-5.713c.258-.776 1.044-5.721 1.044-5.721s2.588-12.736 2.071-19.225c-.518-6.49.785-21.055 1.303-22.609.359-1.702.533-3.438.517-5.177l-1.553-2.856v-2.132s-12.478-12.736-17.413-17.672c-4.936-4.936-9.872-10.916-9.872-10.916s-5.721 25.473-7.283 30.927c-1.562 5.453-2.339 7.766-3.374 9.354-1.036 1.587-11.693 15.592-15.593 21.314-3.9 5.721-9.872 15.851-9.872 15.851a31.987 31.987 0 00.26 4.418c.258 1.036-2.59 4.936-2.59 4.936l-1.044 1.036s-6.239-6.239-8.577-6.757c-2.338-.518-7.274.259-7.274.259s3.123-8.569 3.9-10.355c.777-1.786 8.051-20.27 10.13-23.911 2.08-3.642 3.642-10.916 7.284-13.807 3.641-2.891 7.766-6.239 7.766-6.239l-.518-29.097-.518-8.06a26.304 26.304 0 01-.785-6.239v-5.177s23.652 5.454 35.379 4.936c11.727-.518 18.708-3.633 18.708-3.633l2.581 3.641z" fill="#263238" stroke="#263238" stroke-linecap="round" stroke-linejoin="round"/><path d="M157.519 182.059s-13.522-5.903-20.666-5.903c-7.145 0-11.037.156-18.657.466-7.619.311-12.08 2.641-12.08 2.641l-11.218 3.727.923-20.347a17.43 17.43 0 00-6.99-.466 9.6 9.6 0 00-5.177 2.796s-4.194 27.665-4.038 30.15c.155 2.485 3.451 2.951 3.451 2.951l25.335-.466-1.864 28.287-18.984 32.946s.156 5.125 15.697 10.26c15.541 5.134 34.654 3.451 40.557 1.863 5.902-1.587 15.351-8.542 16.127-9.63.777-1.087 0-6.687 0-9.017 0-2.33-3.883-24.403-3.261-25.491.621-1.087 4.038-15.696 4.038-15.696s31.548 20.512 33.412 20.201c1.864-.311 20.822-9.63 21.297-9.941.474-.311 1.726-2.019-.156-4.824a7.83 7.83 0 00-6.04-3.261c-.932 0-13.677 1.087-13.677 1.087s-15.964-14.152-16.404-14.928c-.44-.777-2.951-7.301-4.039-9.009-1.087-1.709-17.586-8.396-17.586-8.396z" fill="#FF8562" stroke="#263238" stroke-linecap="round" stroke-linejoin="round"/><path d="M195.591 214.418s5.108 2.908 6.127 4.694l-6.127-4.694z" fill="#FF8562"/><path d="M195.591 214.418s5.108 2.908 6.127 4.694" stroke="#263238" stroke-linecap="round" stroke-linejoin="round"/><path d="M175.079 190.454s-4.668.371-9.492 5.462l9.492-5.462z" fill="#FF8562"/><path d="M175.079 190.454s-4.668.371-9.492 5.462" stroke="#263238" stroke-linecap="round" stroke-linejoin="round"/><path d="M164.561 192.612a10.697 10.697 0 00-5.342 7.637" fill="#FF8562"/><path d="M164.561 192.612a10.697 10.697 0 00-5.342 7.637m-50.808-2.649l-.466-11.658.466 11.658zm45.01 18.517l7.36-4.996-11.968 3.728m-.622 4.825l2.546-1.726m-3.271-34.12a24.166 24.166 0 00-7.818 4.608c-6.04 5.436-9.328 4.97-9.328 4.97m23.161-11.037c-.924.096-1.841.255-2.744.474m-12.021 3.409s-4.979 4.668-10.26 6.843m-44.474-7.292a3.772 3.772 0 00-.863 2.166m11.77-4.978l-2.174.155s-2.796-1.242-4.194-1.087a6.33 6.33 0 00-2.589 1.614m-.526-1.304s-2.796 1.087-3.262 3.572" stroke="#263238" stroke-linecap="round" stroke-linejoin="round"/><path d="M156.708 226.817s-2.2 14.929-3.184 19.537c-.984 4.608-2.304 15.955-2.304 15.955a23.629 23.629 0 015.1-1.312c2.589-.327 3.615.328 3.615.328s1.976-4.772 0-13.004-3.227-21.504-3.227-21.504zm-73.77 140.932s1.044 4.936 2.08 5.462c1.035.527 5.98 1.553 6.497 2.856.518 1.303-4.677 3.633-8.06 4.16-3.382.526-9.353-.786-10.13-1.303-.777-.518-2.589-3.115-4.936-3.901-2.347-.785-5.177-1.812-4.677-4.936.5-3.123 3.374-8.836 3.374-8.836a16.882 16.882 0 0110.657.259c5.713 2.08 5.195 6.239 5.195 6.239z" fill="#FF8562" stroke="#263238" stroke-linecap="round" stroke-linejoin="round"/><path d="M83.456 380.226c3.382-.526 8.577-2.865 8.06-4.159a1.082 1.082 0 00-.225-.319c-2.529.863-5.635 1.337-8.491-.242-3.504-1.95-4.677-6.239-9.354-7.766-2.718-.906-6.36-.751-8.931-.475a17.642 17.642 0 00-.803 2.857c-.526 3.123 2.338 4.159 4.677 4.935 2.339.777 4.16 3.383 4.936 3.901.776.517 6.757 1.786 10.13 1.268z" fill="#fff" stroke="#263238" stroke-linecap="round" stroke-linejoin="round"/><path d="M81.902 378.371c-2.865-1.303-5.462-4.677-9.621-7.274-3.797-2.382-7.766.233-8.465.698.595 1.813 2.735 2.589 4.573 3.193 2.339.786 4.16 3.383 4.936 3.901.777.517 6.757 1.82 10.13 1.303a17.102 17.102 0 002.037-.466 34 34 0 01-3.59-1.355z" fill="#263238" stroke="#263238" stroke-linecap="round" stroke-linejoin="round"/><path d="M160.16 177.865l-4.66 3.262s-6.04-4.039-10.26-4.815c-4.22-.777-6.368-.932-6.368-.932l3.262-5.756a15.174 15.174 0 005.281-6.834c1.398-4.194 2.796-5.903 5.911-4.315 3.115 1.588 4.314 7.766 4.314 11.649 0 3.884 2.52 7.741 2.52 7.741z" fill="#fff" stroke="#263238" stroke-linecap="round" stroke-linejoin="round"/><path d="M162.8 149.268s2.641 3.883 2.951 5.289c.311 1.407-1.087 4.194-1.087 4.194s3.115 4.504 3.271 5.592c.155 1.087-1.873 3.106-1.873 3.106s.466 4.513 1.096 5.6c.63 1.088 1.243 2.641.466 4.039-.777 1.398-1.873 2.33-5.177 2.796-3.305.466-5.903-1.088-6.524-4.315-.621-3.227-.621-10.26-1.087-11.218-.466-.958-2.641-3.106-3.728-1.398-1.087 1.709-.311 3.452.466 4.971a4.95 4.95 0 002.174 2.174l-3.451 1.726a9.259 9.259 0 01-6.524.311 6.16 6.16 0 01-2.053-1.29 6.162 6.162 0 01-1.399-1.981c-.155-.466-1.725-4.314-2.174-5.125-.449-.811-3.737-5.437-3.892-10.882-.155-5.445 6.377-11.649 14.765-13.358 8.387-1.708 12.279 2.02 14.143 2.175 1.864.155 0-1.553 1.553-.466s1.967 7.128-1.916 8.06z" fill="#fff" stroke="#263238" stroke-linecap="round" stroke-linejoin="round"/><path d="M166.062 167.448s.173-.172.414-.44c-.629.087-2.519.346-3.676.596-1.397.31-2.019 4.513-3.261 3.451-1.243-1.061-1.864-10.26-2.175-10.726-.311-.466 1.07-2.002 1.07-2.002s2.175-2.951 2.175-4.202-2.175-2.64-1.398-2.951c.776-.311 3.572-1.864 3.572-1.864 3.883-.932 3.573-6.99 2.019-8.077-1.553-1.087.311.621-1.553.466-1.864-.155-5.747-3.892-14.143-2.174-8.396 1.717-14.92 7.921-14.764 13.357.155 5.437 3.451 10.105 3.891 10.882.44.776 2.02 4.66 2.175 5.126a6.165 6.165 0 003.452 3.27 9.256 9.256 0 006.523-.311l3.452-1.726a4.952 4.952 0 01-2.175-2.174c-.776-1.553-1.562-3.262-.466-4.97 1.096-1.709 3.262.466 3.728 1.397.466.932.466 7.931 1.087 11.218.622 3.288 3.262 4.815 6.524 4.315 3.262-.501 4.315-1.398 5.177-2.796.863-1.398.156-2.951-.466-4.038-.621-1.088-1.182-5.627-1.182-5.627z" fill="#263238" stroke="#263238" stroke-linecap="round" stroke-linejoin="round"/><path d="M165.286 155.956a2.231 2.231 0 00-2.02 1.242" stroke="#263238" stroke-linecap="round" stroke-linejoin="round"/><path d="M164.043 161.237c.343 0 .621-.765.621-1.709 0-.944-.278-1.709-.621-1.709-.343 0-.621.765-.621 1.709 0 .944.278 1.709.621 1.709z" fill="#263238"/><path d="M166.373 171.341s-2.641.932-3.728-.941" stroke="#fff" stroke-linecap="round" stroke-linejoin="round"/><path d="M136.861 176.157c7.145 0 20.667 5.902 20.667 5.902l.518.216a4.695 4.695 0 00-.863-1.925c-.466-.31-2.952-3.883-7.62-5.747a26.678 26.678 0 00-9.63-2.019c-1.096 0-4.228 2.882-4.97 3.573h1.898z" fill="#FF8562" stroke="#263238" stroke-linecap="round" stroke-linejoin="round"/></svg>