<svg width="1200" height="348" fill="none" xmlns="http://www.w3.org/2000/svg"><g clip-path="url(#clip0_751_1710)" stroke="#fff" stroke-width="4"><path d="M1030.52 23.5c0 10.452 7.46 18.5 16.16 18.5 2.31 0 2.88-.543 3.04-.764.24-.34.42-1.118.14-2.944-.17-1.132-.45-2.351-.77-3.759-.19-.81-.39-1.683-.6-2.638-.53-2.506-1.01-5.36-1.01-8.395 0-10.452-7.46-18.5-16.16-18.5-2.31 0-2.88.543-3.04.764-.24.34-.42 1.118-.14 2.944.17 1.131.45 2.35.77 3.758.19.811.39 1.684.6 2.638.53 2.507 1.01 5.36 1.01 8.396z"/><path d="M1030.52 23.5c0 10.452 7.46 18.5 16.16 18.5 2.31 0 2.88-.543 3.04-.764.24-.34.42-1.118.14-2.944-.17-1.132-.45-2.351-.77-3.759-.19-.81-.39-1.683-.6-2.638-.53-2.506-1.01-5.36-1.01-8.395 0-10.452-7.46-18.5-16.16-18.5-2.31 0-2.88.543-3.04.764-.24.34-.42 1.118-.14 2.944.17 1.131.45 2.35.77 3.758.19.811.39 1.684.6 2.638.53 2.507 1.01 5.36 1.01 8.396zm-53.705-21c0 8.296 7.888 15.5 18.254 15.5 2.729 0 3.536-.515 3.735-.73.113-.124.348-.513.055-2.012-.183-.936-.483-1.926-.838-3.1-.21-.697-.44-1.457-.677-2.31-.6-2.159-1.159-4.664-1.159-7.348 0-8.296-7.888-15.5-18.254-15.5-2.729 0-3.536.514-3.735.73-.113.124-.348.513-.055 2.012.184.936.483 1.926.838 3.1.21.696.44 1.457.677 2.31.6 2.159 1.159 4.664 1.159 7.348z"/><path d="M976.815 2.5c0 8.296 7.888 15.5 18.254 15.5 2.729 0 3.536-.515 3.735-.73.113-.124.348-.513.055-2.012-.183-.936-.483-1.926-.838-3.1-.21-.697-.44-1.457-.677-2.31-.6-2.159-1.159-4.664-1.159-7.348 0-8.296-7.888-15.5-18.254-15.5-2.729 0-3.536.514-3.735.73-.113.124-.348.513-.055 2.012.184.936.483 1.926.838 3.1.21.696.44 1.457.677 2.31.6 2.159 1.159 4.664 1.159 7.348zM389.247 43.409c-66.873 38.61-128.568 71.524-174.248 93.528-22.849 11.006-41.647 19.26-55.065 24.135-6.723 2.442-12.01 4.004-15.743 4.656-1.88.328-3.241.403-4.144.302a3.09 3.09 0 01-.715-.149c.034-.098.094-.238.2-.43.391-.705 1.193-1.684 2.535-2.946 2.657-2.501 6.986-5.711 12.885-9.603 11.77-7.765 29.431-18.011 51.516-30.392 14.299-8.016 30.441-16.92 48.007-26.61 36.635-20.21 79.466-43.839 124.692-69.95 66.874-38.61 128.569-71.524 174.249-93.528 22.849-11.005 41.646-19.26 55.064-24.135 6.724-2.442 12.01-4.004 15.744-4.656 1.879-.328 3.241-.403 4.144-.302.363.041.585.101.715.15a2.766 2.766 0 01-.201.43c-.39.704-1.193 1.683-2.534 2.945-2.657 2.501-6.986 5.712-12.886 9.603-11.77 7.765-29.431 18.01-51.515 30.392-14.299 8.016-30.44 16.92-48.006 26.61-36.636 20.21-79.467 43.838-124.694 69.95zM139.292 166.066c-.001.001-.002-.008 0-.028.002.018.001.028 0 .028zm489.95-262.51h-.001.001zm-.119-.235c-.003-.018-.001-.028 0-.028s.002.008 0 .028zM116.068 223.013c-40.857 23.588-78.521 43.731-106.381 57.229-13.938 6.752-25.38 11.821-33.523 14.827-4.086 1.508-7.256 2.466-9.462 2.873-.484.09-.9.148-1.25.182.193-.205.424-.435.7-.69 1.583-1.471 4.191-3.395 7.794-5.762 7.176-4.716 17.948-10.965 31.443-18.537 8.728-4.898 18.585-10.343 29.314-16.27 22.384-12.365 48.563-26.827 76.207-42.787 40.856-23.589 78.521-43.731 106.381-57.229 13.938-6.753 25.379-11.821 33.522-14.827 4.086-1.509 7.257-2.466 9.463-2.873.484-.09.899-.148 1.249-.182a14.02 14.02 0 01-.698.69c-1.584 1.471-4.193 3.395-7.795 5.762-7.176 4.715-17.948 10.965-31.443 18.537-8.728 4.897-18.585 10.342-29.314 16.269-22.384 12.366-48.563 26.827-76.207 42.788zM-35.862 298.1l.027.01c-.02-.006-.027-.009-.027-.01zm.527 1.067a.175.175 0 010 0zm298.174-160.176l-.027-.01c.02.005.028.009.027.01zm-.526-1.067l.007-.019s-.001.006-.007.019zm-96.265 114.567c-53.371 30.814-102.761 56.8-139.462 73.907-18.36 8.557-33.493 14.868-44.34 18.454-5.438 1.797-9.702 2.877-12.715 3.236-1.516.181-2.59.164-3.29.03-.32-.06-.497-.131-.59-.18a1.84 1.84 0 01.12-.32c.251-.54.814-1.322 1.833-2.357 2.02-2.051 5.39-4.658 10.063-7.809 9.312-6.28 23.385-14.452 41.037-24.298 11.42-6.37 24.326-13.433 38.372-21.121 29.303-16.037 63.571-34.792 99.678-55.639 53.37-30.813 102.761-56.8 139.461-73.906 18.361-8.558 33.494-14.869 44.34-18.454 5.439-1.798 9.703-2.877 12.716-3.237 1.515-.181 2.59-.163 3.29-.03.319.061.497.132.589.181a1.902 1.902 0 01-.12.32c-.251.54-.813 1.322-1.832 2.357-2.019 2.05-5.39 4.657-10.063 7.808-9.313 6.281-23.386 14.452-41.038 24.298-11.419 6.37-24.325 13.433-38.37 21.12-29.303 16.038-63.572 34.794-99.679 55.64zM-34.435 347.88l.006.006a.054.054 0 01-.006-.006zm.072.143c.003.017.002.026.001.027-.001 0-.003-.008-.001-.027zm391.6-207.018s-.003-.001-.006-.005a.061.061 0 01.006.005zm-.072-.142c-.003-.017-.002-.027-.001-.027.001-.001.002.008.001.027zM67.242 217.582c-15.92 9.192-31.398 15.516-43.511 18.342-6.07 1.416-11.18 1.926-15.032 1.546-3.911-.386-6.064-1.63-6.989-3.231-.45-.78-.494-1.407-.312-2.029.208-.711.773-1.603 1.91-2.685 2.295-2.184 6.285-4.561 11.707-7.332 3.425-1.75 7.382-3.636 11.71-5.7 9.116-4.346 19.878-9.477 30.782-15.772 15.92-9.192 31.398-15.516 43.512-18.342 6.069-1.416 11.18-1.926 15.032-1.546 3.911.386 6.064 1.63 6.988 3.231.45.78.494 1.408.312 2.029-.208.712-.772 1.603-1.91 2.686-2.295 2.184-6.284 4.56-11.706 7.331-3.425 1.75-7.382 3.637-11.71 5.7-9.116 4.346-19.879 9.477-30.783 15.772z"/></g><path d="M1138.25 259.104c10.28-9.744 32.4-18.594 49.66-19.251 4.45-.169 5.62.333 5.76.817.12.397-.4 1.137-2.68 2.855-1.44 1.091-3.17 2.273-5.17 3.639-1.16.787-2.4 1.635-3.73 2.561-3.47 2.428-7.23 5.193-10.3 8.103-10.28 9.744-32.4 18.594-49.66 19.251-4.45.169-5.62-.333-5.76-.817-.11-.397.41-1.137 2.68-2.855 1.44-1.09 3.17-2.273 5.17-3.639 1.16-.787 2.4-1.635 3.73-2.561 3.48-2.428 7.23-5.193 10.3-8.103z" stroke="#fff" stroke-width="4"/><path d="M1111.31 261.439c.93-1.654 2.98-3.759 6.52-6.331 3.51-2.56 8.19-5.339 13.75-8.143 11.1-5.597 25.26-11.041 39.78-14.931 3.63-.974 6.36-1.602 8.37-1.949 2.02-.352 3.19-.394 3.8-.277.39.075.47.194.48.24-.03.043-.15.272-.74.896-.68.71-1.64 1.602-2.89 2.731-.34.308-.71.635-1.09.975-.94.84-1.97 1.761-2.96 2.68-2.77 2.563-5.94 5.713-7.65 8.737-.94 1.653-2.99 3.759-6.52 6.331-3.52 2.56-8.19 5.339-13.76 8.143-11.1 5.597-25.26 11.041-39.78 14.931-3.63.974-6.36 1.602-8.36 1.949-2.03.352-3.2.394-3.81.277-.39-.075-.46-.194-.47-.24.02-.043.14-.272.74-.896.67-.71 1.63-1.602 2.88-2.731.34-.308.71-.635 1.09-.974.94-.841 1.97-1.762 2.96-2.681 2.78-2.564 5.95-5.714 7.66-8.737zm72.7-31.372c-.01 0-.01-.004 0-.015v.015zm-88.03 47.372v0z" stroke="#fff" stroke-width="4"/><defs><clipPath id="clip0_751_1710"><path d="M-30 20c0-11.046 8.954-20 20-20h1158c11.05 0 20 8.954 20 20v308c0 11.046-8.95 20-20 20H-10c-11.046 0-20-8.954-20-20V20z" fill="#fff"/></clipPath></defs></svg>