<svg width="410" height="342" fill="none" xmlns="http://www.w3.org/2000/svg"><path d="M214.774 341.333c107.523 0 194.687-3.239 194.687-7.236 0-3.996-87.164-7.236-194.687-7.236-107.522 0-194.686 3.24-194.686 7.236 0 3.997 87.164 7.236 194.686 7.236z" fill="#FF8562"/><path opacity=".8" d="M214.774 341.333c107.523 0 194.687-3.239 194.687-7.236 0-3.996-87.164-7.236-194.687-7.236-107.522 0-194.686 3.24-194.686 7.236 0 3.997 87.164 7.236 194.686 7.236z" fill="#fff"/><path d="M308.345 62.092a1.442 1.442 0 00-1.443 1.444v7.4h-26.376v-7.4a1.442 1.442 0 10-2.887 0v186.391a1.443 1.443 0 102.887 0v-41.695h26.376v41.695a1.443 1.443 0 102.887 0V63.507a1.445 1.445 0 00-1.444-1.415zm-1.443 143.282h-26.376v-9.353h26.376v9.353zm0-12.249h-26.376v-9.344h26.376v9.344zm0-12.24h-26.376v-9.315h26.376v9.315zm0-12.231h-26.376v-9.276h26.376v9.276zm0-12.221h-26.376v-9.17h26.376v9.17zm0-12.182h-26.376v-9.228h26.376v9.228zm0-12.125h-26.376v-9.314h26.376v9.314zm0-12.24h-26.376v-9.314h26.376v9.314zm0-12.211h-26.376v-9.343h26.376v9.343zm0-12.24h-26.376v-9.363h26.376v9.363zm0-12.25h-26.376v-9.362h26.376v9.362z" fill="#fff"/><path d="M58.502 212.36s21.603-29.57 11.066-36.566c-10.96-7.226-16.108 14.665-18.427 25.414-4.946 22.94-3.551 27.809-.231 22.767l7.592-11.615z" fill="#FF8562"/><path opacity=".5" d="M58.502 212.36s21.603-29.57 11.066-36.566c-10.96-7.226-16.108 14.665-18.427 25.414-4.946 22.94-3.551 27.809-.231 22.767l7.592-11.615z" fill="#fff"/><path d="M66.604 230.547s30.033-20.958 22.325-30.946c-8.016-10.402-19.996 8.66-25.683 18.052-12.134 20.092-12.384 25.154-7.611 21.459l10.97-8.565z" fill="#FF8562"/><path opacity=".5" d="M66.604 230.547s30.033-20.958 22.325-30.946c-8.016-10.402-19.996 8.66-25.683 18.052-12.134 20.092-12.384 25.154-7.611 21.459l10.97-8.565z" fill="#fff"/><path d="M67.259 254.854s25.98-11.672 21.545-20.429c-4.619-9.112-16.541 3.705-22.248 10.075-12.192 13.607-13.115 17.437-8.93 15.31l9.633-4.956z" fill="#FF8562"/><path opacity=".5" d="M67.259 254.854s25.98-11.672 21.545-20.429c-4.619-9.112-16.541 3.705-22.248 10.075-12.192 13.607-13.115 17.437-8.93 15.31l9.633-4.956z" fill="#fff"/><path d="M68.798 279.267s25.981-11.672 21.555-20.429c-4.628-9.103-16.541 3.705-22.257 10.085-12.183 13.606-13.116 17.436-8.92 15.3l9.622-4.956z" fill="#FF8562"/><path opacity=".5" d="M68.798 279.267s25.981-11.672 21.555-20.429c-4.628-9.103-16.541 3.705-22.257 10.085-12.183 13.606-13.116 17.436-8.92 15.3l9.622-4.956z" fill="#fff"/><path d="M38.323 224.716s-28.56-22.931-35.979-12.731c-7.698 10.585 13.914 16.772 24.547 19.582 22.69 5.995 27.618 4.812 22.73 1.27l-11.298-8.121z" fill="#FF8562"/><path opacity=".5" d="M38.323 224.716s-28.56-22.931-35.979-12.731c-7.698 10.585 13.914 16.772 24.547 19.582 22.69 5.995 27.618 4.812 22.73 1.27l-11.298-8.121z" fill="#fff"/><path d="M39.17 243.875s-32.544-16.802-37.788-5.322c-5.456 11.942 16.964 13.674 27.905 14.309 23.432 1.367 28.031-.77 22.537-3.271l-12.654-5.716z" fill="#FF8562"/><path opacity=".5" d="M39.17 243.875s-32.544-16.802-37.788-5.322c-5.456 11.942 16.964 13.674 27.905 14.309 23.432 1.367 28.031-.77 22.537-3.271l-12.654-5.716z" fill="#fff"/><path d="M43.106 265.353s-27.906-13.472-32.073-3.628c-4.34 10.229 14.656 11.172 23.96 11.451 19.843.616 23.682-1.309 18.977-3.233l-10.864-4.59z" fill="#FF8562"/><path opacity=".5" d="M43.106 265.353s-27.906-13.472-32.073-3.628c-4.34 10.229 14.656 11.172 23.96 11.451 19.843.616 23.682-1.309 18.977-3.233l-10.864-4.59z" fill="#fff"/><path d="M44.472 282.702s-26.328-16.358-31.514-7.015c-5.399 9.71 13.395 12.664 22.613 13.934 19.669 2.714 23.682 1.222 19.245-1.251l-10.344-5.668z" fill="#FF8562"/><path opacity=".5" d="M44.472 282.702s-26.328-16.358-31.514-7.015c-5.399 9.71 13.395 12.664 22.613 13.934 19.669 2.714 23.682 1.222 19.245-1.251l-10.344-5.668z" fill="#fff"/><path d="M41.98 195.665s-4.946-42.946-21.17-38.558c-16.85 4.58-2.742 26.308 4.417 36.816 15.213 22.363 20.814 24.827 19.61 17.841l-2.857-16.099z" fill="#FF8562"/><path opacity=".5" d="M41.98 195.665s-4.946-42.946-21.17-38.558c-16.85 4.58-2.742 26.308 4.417 36.816 15.213 22.363 20.814 24.827 19.61 17.841l-2.857-16.099z" fill="#fff"/><path d="M24.13 172.753s24.692 46.266 28.521 67.744c4.408 24.673 5.12 52.232 2.079 73.825m-5.976-88.115L60.85 189.16m-8.199 51.337L75.42 211.87m-24.222 23.421l-32.967-13.847m37.279 38.443l24.787-18.995m-26.106 10.844l-25.895-5.388m27.136 25.221l-20.053-3.176m21.747 16.012l13.491-12.086m-13.761 17.523L33.81 284.05" stroke="#FF8562" stroke-width="1.252" stroke-linecap="round" stroke-linejoin="round"/><path d="M39.786 296.896h27.242v5.639H64.65l-4.917 30.763H47.08l-4.917-30.763h-2.377v-5.639z" fill="#FF8562"/><path opacity=".5" d="M39.786 296.896h27.242v5.639H64.65l-4.917 30.763H47.08l-4.917-30.763h-2.377v-5.639z" fill="#fff"/><path d="M84.647 6.396a8.872 8.872 0 00-8.834-1.76c-5.292 1.76-10.364 9.41-9.084 15.887.895 4.484 5.052 11.095 6.313 13.616 1.26 2.52-.51 6.784-4.513 15.637-4.003 8.852-5.552 17.157 6.053 24.47 11.604 7.313 24.74-4.292 31.475-12.615 6.736-8.324-5.052-27.492-6.062-35.604-1.01-8.112-2.743-23.662-15.348-19.63z" fill="#263238"/><path d="M111.927 62.189a27.783 27.783 0 01-22.228 8.025L86.918 81.81l5.292 26.472 34.555-17.908-7.823-20.208-7.015-7.977z" fill="#FF8562" stroke="#263238" stroke-linecap="round" stroke-linejoin="round"/><path opacity=".3" d="M111.927 62.189a27.783 27.783 0 01-22.228 8.025L86.918 81.81l5.292 26.472 34.555-17.908-7.823-20.208-7.015-7.977z" fill="#263238"/><path d="M111.927 62.189l-5.292-35.065-15.685 3.214-7.824 5.042s-9.334 7.323-9.334 8.073 15.791 27.175 15.791 27.175a29.272 29.272 0 0022.344-8.44z" fill="#fff"/><path d="M111.927 62.189l-5.292-35.065-15.685 3.214-7.824 5.042s-9.334 7.323-9.334 8.073 15.791 27.175 15.791 27.175a29.272 29.272 0 0022.344-8.44z" stroke="#263238" stroke-linecap="round" stroke-linejoin="round"/><path opacity=".5" d="M90.882 60.688s11.057-8.199 10.037-5.774c-1.02 2.425-8.66 8.478-10.71 8.66-2.05.183.673-2.886.673-2.886z" fill="#FF8562"/><path d="M91.22 45.118l.432.452 2.695 2.849.692 10.94 3.301-.52-2.608-10.247 4.177 8.68 3.473-3.474-7.467-6.775-.183-5.379-3.82-1.915" fill="#263238"/><path d="M85.147 32.128s-3.281 1.51-3.281 4.532c0 3.021 3.55 10.21 5.773 11.72 2.223 1.511 6.034-5.408 6.034-5.408s5.773 2.772 7.313.25c1.54-2.52-3.531-10.844-6.803-13.115-3.272-2.271-9.036 2.02-9.036 2.02z" fill="#fff" stroke="#263238" stroke-linecap="round" stroke-linejoin="round"/><path d="M82.376 29.096a59.877 59.877 0 012.27 7.063c.501 2.522 7.314 6.813 8.065 7.063.75.25 1.26-8.073 1.26-8.073l-2.01-9.834-9.585 3.781z" fill="#fff"/><path d="M92.172 26.363a9.77 9.77 0 00-1.29-.269l-6.957 2.454-.914 2.386c.462 1.29 1.049 3.022 1.405 4.427a7.747 7.747 0 003.974 1.664c2.088.145 3.926-1.472 5.225-3.454l-1.443-7.208z" fill="#FF8562" opacity=".5"/><path d="M82.376 29.096a59.877 59.877 0 012.27 7.063c.501 2.522 7.314 6.813 8.065 7.063.75.25 1.26-8.073 1.26-8.073l-2.01-9.834-9.585 3.781z" stroke="#263238" stroke-linecap="round" stroke-linejoin="round"/><path d="M77.834 24.805s-2.781-2.261-2.781 0 2.53 3.531 4.542 3.531" fill="#fff"/><path d="M77.834 24.805s-2.781-2.261-2.781 0 2.53 3.531 4.542 3.531" stroke="#263238" stroke-linecap="round" stroke-linejoin="round"/><path d="M92.71 17.491s1.771-2.77 2.272.26a7.699 7.699 0 01-1.511 5.543l-.76-5.803z" fill="#fff" stroke="#263238" stroke-linecap="round" stroke-linejoin="round"/><g opacity=".5"><path d="M77.834 24.805s-2.781-2.261-2.781 0 2.53 3.531 4.542 3.531" fill="#FF8562"/><path d="M77.834 24.805s-2.781-2.261-2.781 0 2.53 3.531 4.542 3.531" stroke="#263238" stroke-linecap="round" stroke-linejoin="round"/></g><path opacity=".5" d="M92.71 17.491s1.771-2.77 2.272.26a7.699 7.699 0 01-1.511 5.543l-.76-5.803z" fill="#FF8562" stroke="#263238" stroke-linecap="round" stroke-linejoin="round"/><path d="M74.707 17.51s2.165 9.017 6.812 13.472c4.648 4.456 9.623 4.494 11.346-3.444 1.414-6.544-2.098-15.272-2.098-15.272s-11.336-9.334-16.06 5.245z" fill="#fff"/><path d="M82.78 9.331l1.761 4.427s2.771-.616 4.33 2.733c1.56 3.348 3.128 8.256 2.233 12.057-.857 3.618-2.887 4.811-6.014 4.898 3.406 1.453 6.495 0 7.775-5.928 1.414-6.543-2.098-15.27-2.098-15.27S86.927 9.1 82.78 9.33z" fill="#FF8562" opacity=".5"/><path d="M74.707 17.51s2.165 9.017 6.812 13.472c4.648 4.456 9.623 4.494 11.346-3.444 1.414-6.544-2.098-15.272-2.098-15.272s-11.336-9.334-16.06 5.245z" stroke="#263238" stroke-linecap="round" stroke-linejoin="round"/><path d="M83.31 22.274c.269.51.22 1.058-.107 1.232-.327.173-.808-.106-1.068-.616s-.221-1.05.106-1.222c.327-.174.808.105 1.068.606zm5.022-1.559c.193.539.068 1.078-.279 1.193-.346.116-.789-.211-.962-.75-.173-.54-.067-1.078.279-1.194.346-.115.77.232.962.751z" fill="#263238"/><path d="M88.679 17.828a2.165 2.165 0 00-2.618.154c-1.385 1.078 1.232 6.476 1.232 6.476s.048 1.703-2.136.914m3.522 1.752a2.482 2.482 0 01-3.85.962m-2.01-8.824s-2.464-2.32-3.542 2.155" stroke="#263238" stroke-width=".5" stroke-linecap="round" stroke-linejoin="round"/><path d="M90.911 9.408c-2.704-2.348-4.888-2.319-5.84-2.01a6.457 6.457 0 00-2.955-.963c-7.563-1.01-8.574 4.811-8.574 10.344 0 5.533-4.811 12.106-1.51 12.866a3.945 3.945 0 004.541-2.271s3.532-5.774 3.532-9.844c0-4.07 4.397-3.686 4.397-3.686a2.346 2.346 0 013.542-.404c2.001 1.713 2.232 3.724 3.849 4.244 1.616.52 4.32-2.079 4.32-2.079a38.073 38.073 0 00-5.302-6.197z" fill="#263238"/><path d="M84.714 10.92s-3.04-2.445-5.773.297c-2.733 2.743-2.435 7.93-3.35 11.288-.913 3.358-3.357 3.964-3.357 3.964" stroke="#fff" stroke-width=".5" stroke-linecap="round" stroke-linejoin="round"/><path d="M82.588 10.005s-3.282-3.253-7.41.866c-3.147 3.156-1.742 5.225-2.358 10.412M86.244 9.389s5.774-2.742 8.237 4.273" stroke="#fff" stroke-width=".5" stroke-linecap="round" stroke-linejoin="round"/><path d="M73.792 43.473l-8.727 35.123L90.66 85.85l1.26-4.542-16.81-7.756 5.706-20.207s-.75-3.782-4.811-8.064" fill="#fff"/><path d="M91.96 81.338l-16.81-7.756 5.706-20.208a15.513 15.513 0 00-2.146-4.705l-.549-.414v5.581c0 3.57-4.465 14.954-6.033 17.63-1.569 2.674-4.013 6.023-4.013 6.023l4.908-2.233 18.6 7.448.337-1.366z" fill="#FF8562" opacity=".5"/><path d="M73.792 43.473l-8.727 35.123L90.66 85.85l1.26-4.542-16.81-7.756 5.706-20.207s-.75-3.782-4.811-8.064" stroke="#263238" stroke-linecap="round" stroke-linejoin="round"/><path d="M145.761 54.02l-19.381-4.071-19.793-22.873 2.925 18.398 12.144 11.567 24.403 1.116-.298-4.138z" fill="#fff"/><path d="M106.587 27.076l2.357 14.684 1.501 4.59.193.173c.567-.587 3.772-3.916 4.59-3.916.818 0 10.046 8.035 8.708 8.66l-1.347.664 22.989 3.791.163-1.76L126.4 49.9l-19.813-22.825z" fill="#FF8562" opacity=".5"/><path d="M145.761 54.02l-19.381-4.071-19.793-22.873 2.925 18.398 12.144 11.567 24.403 1.116-.298-4.138z" stroke="#263238" stroke-linecap="round" stroke-linejoin="round"/><path d="M326.677 248.773L79.884 212.611a2.995 2.995 0 01-2.522-3.397L97.917 69.001a2.982 2.982 0 013.387-2.52l4.676.683a2.974 2.974 0 003.022-1.463l6.206-10.73c.189-.336.444-.63.751-.865a6.88 6.88 0 015.033-1.232l62.21 9.122c1.396.2 2.696.825 3.724 1.79.275.275.491.602.635.962l5.533 13.703a2.977 2.977 0 002.339 1.838l152.664 22.382a2.998 2.998 0 011.966 1.17c.474.636.677 1.433.565 2.218l-20.555 140.202a2.989 2.989 0 01-3.396 2.512z" fill="#263238" stroke="#263238" stroke-miterlimit="10"/><path d="M329.304 248.09H84.685a5.404 5.404 0 01-4.996-3.339 5.405 5.405 0 01-.412-2.069V105.809a5.406 5.406 0 015.408-5.408h.664a5.445 5.445 0 005.033-3.407l3.724-9.363a5.264 5.264 0 012.165-2.598 6.929 6.929 0 013.503-.962h62.874a6.942 6.942 0 012.473.452 5.241 5.241 0 012.598 2.271l6.4 10.903a5.399 5.399 0 004.667 2.675h150.518a5.409 5.409 0 015.408 5.408v136.902a5.402 5.402 0 01-1.584 3.824 5.415 5.415 0 01-3.824 1.584z" fill="#FF8562"/><path opacity=".1" d="M329.304 248.09H84.685a5.404 5.404 0 01-4.996-3.339 5.405 5.405 0 01-.412-2.069V105.809a5.406 5.406 0 015.408-5.408h.664a5.445 5.445 0 005.033-3.407l3.724-9.363a5.264 5.264 0 012.165-2.598 6.929 6.929 0 013.503-.962h62.874a6.942 6.942 0 012.473.452 5.241 5.241 0 012.598 2.271l6.4 10.903a5.399 5.399 0 004.667 2.675h150.518a5.409 5.409 0 015.408 5.408v136.902a5.402 5.402 0 01-1.584 3.824 5.415 5.415 0 01-3.824 1.584z" fill="#263238"/><path d="M329.304 248.09H84.685a5.404 5.404 0 01-4.996-3.339 5.405 5.405 0 01-.412-2.069V105.809a5.406 5.406 0 015.408-5.408h.664a5.445 5.445 0 005.033-3.407l3.724-9.363a5.264 5.264 0 012.165-2.598 6.929 6.929 0 013.503-.962h62.874a6.942 6.942 0 012.473.452 5.241 5.241 0 012.598 2.271l6.4 10.903a5.399 5.399 0 004.667 2.675h150.518a5.409 5.409 0 015.408 5.408v136.902a5.402 5.402 0 01-1.584 3.824 5.415 5.415 0 01-3.824 1.584v0z" stroke="#263238" stroke-miterlimit="10"/><path d="M148.397 99.939h-39.145a3.52 3.52 0 01-3.522-3.522 3.517 3.517 0 011.028-2.497 3.52 3.52 0 012.494-1.035h39.145a3.53 3.53 0 012.497 6.026 3.528 3.528 0 01-2.497 1.028z" fill="#fff"/><path d="M329.304 271.973H84.685a5.409 5.409 0 01-5.408-5.408V129.692a5.408 5.408 0 015.408-5.408h.664a5.43 5.43 0 005.033-3.406l3.724-9.354a5.225 5.225 0 012.165-2.598 6.843 6.843 0 013.503-.962h62.874a6.942 6.942 0 012.473.452 5.213 5.213 0 012.598 2.281l6.4 10.912a5.399 5.399 0 004.667 2.675h150.518a5.409 5.409 0 015.408 5.408v136.873a5.409 5.409 0 01-5.408 5.408z" fill="#263238" stroke="#263238" stroke-miterlimit="10"/><path d="M167.152 71.715l-38.837-4.811a3.54 3.54 0 01-3.07-3.936 3.532 3.532 0 013.945-3.06l38.828 4.812a3.529 3.529 0 011.736 6.28 3.512 3.512 0 01-2.602.714z" fill="#FF8562"/><path opacity=".5" d="M167.152 71.715l-38.837-4.811a3.54 3.54 0 01-3.07-3.936 3.532 3.532 0 013.945-3.06l38.828 4.812a3.529 3.529 0 011.736 6.28 3.512 3.512 0 01-2.602.714z" fill="#fff"/><path d="M148.397 123.832h-39.145a3.535 3.535 0 01-2.494-1.035 3.52 3.52 0 01-1.028-2.497 3.533 3.533 0 013.522-3.531h39.145a3.53 3.53 0 110 7.063z" fill="#FF8562"/><path opacity=".5" d="M148.397 123.832h-39.145a3.535 3.535 0 01-2.494-1.035 3.52 3.52 0 01-1.028-2.497 3.533 3.533 0 013.522-3.531h39.145a3.53 3.53 0 110 7.063z" fill="#fff"/><path d="M337.3 165.45H76.68a5.07 5.07 0 00-5.072 5.071v157.706a5.07 5.07 0 005.071 5.071H337.3a5.07 5.07 0 005.071-5.071V170.521a5.07 5.07 0 00-5.071-5.071z" fill="#fff"/><path d="M342.371 210.628a405.62 405.62 0 01-101.134 69.188c-54.705 26.164-117.233 44.197-153.665 53.482h249.719a5.062 5.062 0 005.08-5.071V210.628z" fill="#FF8562"/><path opacity=".2" d="M342.371 210.628a405.62 405.62 0 01-101.134 69.188c-54.705 26.164-117.233 44.197-153.665 53.482h249.719a5.062 5.062 0 005.08-5.071V210.628z" fill="#fff"/><path d="M337.3 165.45H76.68a5.07 5.07 0 00-5.072 5.071v157.706a5.07 5.07 0 005.071 5.071H337.3a5.07 5.07 0 005.071-5.071V170.521a5.07 5.07 0 00-5.071-5.071z" stroke="#263238" stroke-miterlimit="10"/><path d="M75.525 180.192v-6.736a5.078 5.078 0 015.08-5.071h11.018M75.525 282.491V188.4m262.92 126.192v10.652a5.066 5.066 0 01-3.128 4.694 5.061 5.061 0 01-1.943.387h-8.882m13.953-152.5v128.848" stroke="#263238" stroke-miterlimit="10"/><path d="M247.241 226.823h-80.513a2.628 2.628 0 00-2.627 2.627v41.08a2.628 2.628 0 002.627 2.627h80.513a2.627 2.627 0 002.627-2.627v-41.08a2.627 2.627 0 00-2.627-2.627z" fill="#263238" stroke="#263238" stroke-miterlimit="10"/><path d="M247.241 226.823h-80.513a2.628 2.628 0 00-2.627 2.627v8.834a2.627 2.627 0 002.627 2.627h80.513a2.627 2.627 0 002.627-2.627v-8.834a2.627 2.627 0 00-2.627-2.627zM90.661 85.851l1.761 3.281 3.743 2.695a1.453 1.453 0 001.636.058l.327-.212a1.146 1.146 0 00.453-1.444l-2.127-4.888 1.434 1.116a1.107 1.107 0 001.53-.173 1.117 1.117 0 000-1.395l-3.34-4.225-4.176.645-1.24 4.542z" fill="#fff" stroke="#263238" stroke-miterlimit="10"/><path d="M98.167 91.673l-3.349-4.398m1.386 4.552l-2.627-3.484" stroke="#263238" stroke-width=".5" stroke-linecap="round" stroke-linejoin="round"/><path d="M145.761 54.019l5.234.308 6.371 4.07s.356 1.242-.53 1.415c-.885.173-5.667-1.588-5.667-1.588l-5.11-.067-.298-4.138z" fill="#fff" stroke="#263238" stroke-miterlimit="10"/><path d="M146.03 57.512l5.495 2.483s.885-1.241-.356-1.77l-1.81-1.242" fill="#fff"/><path d="M146.03 57.512l5.495 2.483s.885-1.241-.356-1.77l-1.81-1.242" stroke="#263238" stroke-linejoin="round"/><path d="M340.149 151.353l-2.271-6.794-2.55-3.493a.346.346 0 00-.636.212v10.065l1.925 2.531 3.532-2.521z" fill="#fff"/><path d="M377.157 181.058l-19.053.673a3.702 3.702 0 01-3.425-2.011l-14.53-28.367s-3.272 1.77-3.522 2.521c-.251.75 10.758 28.358 14.135 36.835a3.703 3.703 0 003.59 2.329l21.295-.904" fill="#fff"/><path d="M377.157 181.058l-19.053.673a3.702 3.702 0 01-3.425-2.011l-14.53-28.367s-3.272 1.77-3.522 2.521c-.251.75 10.758 28.358 14.135 36.835a3.703 3.703 0 003.59 2.329l21.295-.904" stroke="#263238" stroke-miterlimit="10"/><path d="M341.544 154.884l-2.983 1.232" stroke="#263238" stroke-width=".75" stroke-miterlimit="10"/><g opacity=".5"><g opacity=".5"><path d="M377.157 181.058l-19.053.673a3.702 3.702 0 01-3.425-2.011l-14.53-28.367s-3.272 1.77-3.522 2.521c-.251.75 10.758 28.358 14.135 36.835a3.703 3.703 0 003.59 2.329l21.295-.904" fill="#FF8562"/><path d="M377.157 181.058l-19.053.673a3.702 3.702 0 01-3.425-2.011l-14.53-28.367s-3.272 1.77-3.522 2.521c-.251.75 10.758 28.358 14.135 36.835a3.703 3.703 0 003.59 2.329l21.295-.904" stroke="#263238" stroke-miterlimit="10"/></g><path opacity=".5" d="M341.544 154.884l-2.983 1.232" stroke="#263238" stroke-width=".75" stroke-miterlimit="10"/></g><path d="M340.149 151.353l-2.271-6.794-2.55-3.493a.346.346 0 00-.636.212v10.065l1.925 2.531 3.532-2.521z" fill="#FF8562"/><path opacity=".5" d="M340.149 151.353l-2.271-6.794-2.55-3.493a.346.346 0 00-.636.212v10.065l1.925 2.531 3.532-2.521z" fill="#fff"/><path d="M340.149 151.353l-2.271-6.794-2.55-3.493a.346.346 0 00-.636.212v10.065l1.925 2.531 3.532-2.521z" stroke="#263238" stroke-miterlimit="10"/><path d="M383.056 163.131a10.343 10.343 0 00-1.924 3.936c-.28 1.847.163 8.958.163 8.958l-9.911 1.117s.75-7.227.789-8.43a10.715 10.715 0 015.244-7.121c3.407-1.674 6.303-.856 5.639 1.54z" fill="#fff"/><path d="M382.989 163.208c-1.8-.491-3.984-1.039-5.832-1.482a10.766 10.766 0 00-5.013 6.976c0 .462-.135 1.809-.269 3.291a84.566 84.566 0 013.627-.76c.9-.145 1.785-.367 2.647-.664l-.337 5.774h.221l3.233-.366s-.442-7.111-.163-8.959a10.099 10.099 0 011.886-3.81z" fill="#FF8562" opacity=".5"/><path d="M383.056 163.131a10.343 10.343 0 00-1.924 3.936c-.28 1.847.163 8.958.163 8.958l-9.911 1.117s.75-7.227.789-8.43a10.715 10.715 0 015.244-7.121c3.407-1.674 6.303-.856 5.639 1.54z" stroke="#263238" stroke-width="1.004" stroke-miterlimit="10"/><path d="M385.115 164.353c8.218-10.854-11.595-22.132-16.801-11.345a20.358 20.358 0 00-1.713 4.195c-.789.481-2.887 1.771-3.271 2.127-.385.356.962 1.27 1.703 1.722-1.415 3.474-1.203 7.131-.799 7.958.703 1.424 4.167 1.444 6.447 1.02 2.281-.423 3.185-2.607 3.849-3.204.664-.597 3.975.164 5.139.51 1.164.346 3.849-.837 5.446-2.983z" fill="#fff"/><path d="M376.984 163.314s.173.818-1.482 1.481c-1.655.664-1.982.164-2.473 1.319a4.117 4.117 0 01-3.3 2.973 39.44 39.44 0 01-4.744.606c1.308.732 3.907.674 5.773.337 2.271-.414 3.185-2.608 3.849-3.204.664-.597 3.975.163 5.139.51.273.054.554.054.827 0a9.013 9.013 0 00.77-3.06l-4.359-.962z" fill="#FF8562" opacity=".5"/><path d="M385.115 164.353c8.218-10.854-11.595-22.132-16.801-11.345a20.358 20.358 0 00-1.713 4.195c-.789.481-2.887 1.771-3.271 2.127-.385.356.962 1.27 1.703 1.722-1.415 3.474-1.203 7.131-.799 7.958.703 1.424 4.167 1.444 6.447 1.02 2.281-.423 3.185-2.607 3.849-3.204.664-.597 3.975.164 5.139.51 1.164.346 3.849-.837 5.446-2.983z" stroke="#263238" stroke-miterlimit="10"/><path d="M369.065 158.156c-.212.462-.568.75-.799.645-.231-.106-.25-.568 0-1.03.25-.462.568-.751.799-.645.231.106.211.568 0 1.03z" fill="#263238"/><path d="M368.872 155.192s.963-.799 1.155 1.039m-5.187 6.688s0 .962 1.732.962" stroke="#263238" stroke-width=".5" stroke-linecap="round" stroke-linejoin="round"/><path d="M362.492 225.89l-.76 9.411s-5.263 37.471-5.013 41.772c.25 4.301.818 48.739.818 48.739l6.341 1.01 7.121-49.287 9.998-50.086-18.505-1.559z" fill="#FF8562" stroke="#263238" stroke-miterlimit="10"/><path opacity=".2" d="M362.492 225.89l-.76 9.411s-5.263 37.471-5.013 41.772c.25 4.301.818 48.739.818 48.739l6.341 1.01 7.121-49.287 9.998-50.086-18.505-1.559z" fill="#263238"/><path d="M370.518 260.118s-2.435 14.328-4.273 21.353c-1.838 7.024-1.828 14.03-1.828 21.651s-2.742 21.67-2.742 21.67" stroke="#263238" stroke-width=".75" stroke-miterlimit="10"/><path d="M375.358 223.581c4.176-2.194 8.66-3.647 9.94-.732 2.541 5.832-.5 14.694-.5 14.694l2.319 40.877 4.243 49.317-6.341-1.02s-9.738-41.618-11.258-44.159c-1.521-2.54-3.917-38.173-3.917-38.173l-4.811-4.378" fill="#FF8562"/><path d="M375.358 223.581c4.176-2.194 8.66-3.647 9.94-.732 2.541 5.832-.5 14.694-.5 14.694l2.319 40.877 4.243 49.317-6.341-1.02s-9.738-41.618-11.258-44.159c-1.521-2.54-3.917-38.173-3.917-38.173l-4.811-4.378" stroke="#263238" stroke-miterlimit="10"/><path opacity=".2" d="M375.358 223.581c4.176-2.194 8.66-3.647 9.94-.732 2.541 5.832-.5 14.694-.5 14.694l2.319 40.877 4.243 49.317-6.341-1.02s-9.738-41.618-11.258-44.159c-1.521-2.54-3.917-38.173-3.917-38.173l-4.811-4.378" fill="#263238"/><path d="M380.304 254.546c.144 9.479 1.107 14.04 1.857 16.542.914 3.05.606 8.843.606 11.547 0 2.704-1.222-.606 1.53 11.903 2.753 12.51 4.571 29.888 4.571 29.888m-8.564-90.54s.298-.615 0 13.722v2.233" stroke="#263238" stroke-width=".75" stroke-miterlimit="10"/><path d="M366.226 231.163l-.202 4.292-.991 2.983 1.482 1.732m-2.233-6.447s2.483 2.482 8.93 1.732" stroke="#263238" stroke-width=".75" stroke-linecap="round" stroke-linejoin="round"/><path d="M379.515 231.577c4.811-.962 5.119-2.29 6.784-3.406a13.898 13.898 0 00-.962-5.322c-1.261-2.887-5.774-1.462-9.941.732l-2.02 3.194-10.845-.885-.346 4.253a35.433 35.433 0 0017.33 1.434z" fill="#263238"/><path d="M363.58 228.835l-.106 1.693 2.752.635.212-2.223-2.858-.105z" fill="#fff" stroke="#263238" stroke-width=".75" stroke-miterlimit="10"/><path d="M382.787 231.346l-.462-4.215 1.395-.462.703 3.744" fill="#FF8562"/><path d="M382.787 231.346l-.462-4.215 1.395-.462.703 3.744" stroke="#263238" stroke-miterlimit="10"/><path d="M372.028 232.751l-.933-4.917h2.338l.934 4.214" fill="#FF8562"/><path d="M372.028 232.751l-.933-4.917h2.338l.934 4.214" stroke="#263238" stroke-miterlimit="10"/><path opacity=".2" d="M382.787 231.346l-.462-4.215 1.395-.462.703 3.744m-12.395 2.338l-.933-4.917h2.338l.934 4.215" fill="#263238"/><path d="M361.251 188.593s-.799 5.34-3.195 14.434c-2.396 9.093-4.811 19.996-4.811 19.996l1.338 5.6 3.993-5.87 2.675-34.16zm6.669-7.727s-5.601 1.328-6.13 3.993a22.082 22.082 0 00-.539 3.734l8.535-6.929 10.672-4.272-12.538 3.474z" fill="#263238" stroke="#263238" stroke-miterlimit="10"/><path d="M369.45 178.806s-4.552 5.148-6.361 7.265c-1.809 2.117-1.819 24.836-1.819 28.176 0 3.339-1.809 12.403 1.213 14.222 3.021 1.819 21.506 1.212 23.325-1.819 1.819-3.031 3.022-39.366 2.723-42.696a9.258 9.258 0 00-5.157-6.966c-2.108-.972-13.924 1.818-13.924 1.818z" fill="#fff"/><path d="M383.374 176.988a2.408 2.408 0 00-.789-.174l-1.309.684a12.412 12.412 0 014.292 7.101 37.763 37.763 0 01-.164 12.211c-.654 4.456-11.22 0-9.238 1.656 1.983 1.655 9.402 4.455 9.738 5.937.337 1.482-3.675 3.955-5.119 4.128-1.443.173.962 3.464 2.473 6.264 1.511 2.8.962 6.736-2.473 9.411-3.435 2.675-11.412 3.994-14.857 4.128-1.116 0-1.809.289-2.021.616 5.292 1.184 20.275.414 21.901-2.3 1.819-3.031 3.022-39.366 2.723-42.695a9.258 9.258 0 00-5.157-6.967z" fill="#FF8562" opacity=".5"/><path d="M369.45 178.806s-4.552 5.148-6.361 7.265c-1.809 2.117-1.819 24.836-1.819 28.176 0 3.339-1.809 12.403 1.213 14.222 3.021 1.819 21.506 1.212 23.325-1.819 1.819-3.031 3.022-39.366 2.723-42.696a9.258 9.258 0 00-5.157-6.966c-2.108-.972-13.924 1.818-13.924 1.818z" stroke="#263238" stroke-miterlimit="10"/><path d="M378.755 201.852c-4.879-1.52-9.151-5.773-9.151-5.773a20.632 20.632 0 008.237 12.509" fill="#fff"/><path d="M378.755 201.852c-4.879-1.52-9.151-5.773-9.151-5.773a20.632 20.632 0 008.237 12.509" stroke="#263238" stroke-width=".75" stroke-linecap="round" stroke-linejoin="round"/><path d="M382.469 173.658l-14.54 3.33-.904 4.243 16.349-4.243-.905-3.33z" fill="#fff" stroke="#263238" stroke-miterlimit="10"/><path d="M364.725 333.173l-.847-6.389-6.341-1.011-5.283 3.763-4.734 2.598v1.039h17.205zm27.425.501l-.79-5.937-6.341-1.02-5.283 3.762-4.734 2.608v.587h17.148z" fill="#263238" stroke="#263238" stroke-miterlimit="10"/><path d="M337.377 145.81l-3.907-2.261s-1.52-.183-.866 1.511l3.907 3.011" fill="#fff"/><path d="M337.377 145.81l-3.907-2.261s-1.52-.183-.866 1.511l3.907 3.011" stroke="#263238" stroke-linecap="round" stroke-linejoin="round"/><path d="M336.8 151.689a3.902 3.902 0 00-.799-1.25l-.731-.79-3.974-4.926s-1.232-.828-.963.962l2.464 4.811-4.379-4.109s-.827-.683-.827.279c0 .963 3.974 5.206 3.974 5.206l-4.388-2.059s-.962.683-.269 1.366c.693.684 4.378 2.06 4.378 2.06l-3.281-.135s-.963.818-.279 1.097c.683.279 4.522 1.087 4.522 1.087a5.462 5.462 0 001.646.963l.962 1.78 3.686-1.857-1.742-4.485z" fill="#fff" stroke="#263238" stroke-linecap="round" stroke-linejoin="round"/><path d="M376.147 194.405l-21.959 5.148a4.936 4.936 0 01-5.456-3.07l-13.857-38.491 3.686-1.857 15.31 28.358a3.426 3.426 0 003.695 1.742l16.791-4.744" fill="#fff"/><path d="M376.147 194.405l-21.959 5.148a4.936 4.936 0 01-5.456-3.07l-13.857-38.491 3.686-1.857 15.31 28.358a3.426 3.426 0 003.695 1.742l16.791-4.744" stroke="#263238" stroke-miterlimit="10"/><path d="M340.63 159.763l-4.273 2.136" stroke="#263238" stroke-width=".75" stroke-miterlimit="10"/><path d="M373.414 153.123s-2.338 2.339-1.174 4.09a11.634 11.634 0 011.559 3.301s-.962 2.338-.192 2.338c.769 0 .385-1.751 1.751-1.357 1.366.395 2.723 2.723 1.559 3.503-.871.487-1.794.874-2.752 1.154a.659.659 0 00-.459.553.657.657 0 00.324.641 9.262 9.262 0 004.244 1.539 14.82 14.82 0 003.695-.385s3.849-5.254 6.62-6.62c2.771-1.366 1.559-7.592 1.559-8.372 0-.779-2.723-2.531-2.723-2.531s.779-1.751-2.723-5.638c-3.503-3.888-10.123-4.677-10.316-3.311a1.925 1.925 0 00.779 1.925s-5.84-2.531-8.564.192c-2.723 2.724 6.813 8.978 6.813 8.978z" fill="#263238" stroke="#263238" stroke-miterlimit="10"/><path d="M373.414 153.123s4.735 5.774 11.749 6.332m-13.423-4.571s2.203 6.409 11.316 8.237" stroke="#fff" stroke-width=".5" stroke-linecap="round" stroke-linejoin="round"/></svg>