<svg width="76" height="80" fill="none" xmlns="http://www.w3.org/2000/svg"><path d="M0 20C0 8.954 8.954 0 20 0h36c11.046 0 20 8.954 20 20v41c0 10.493-8.507 19-19 19H20C8.954 80 0 71.046 0 60V20z" fill="#FFEDE8"/><path d="M35.743 15.85a3.19 3.19 0 014.271-.058c2.772 2.43 5.36 4.039 7.75 4.836a47.53 47.53 0 007.609 1.831 3.19 3.19 0 012.69 3.151v19.304a11.7 11.7 0 01-4.848 9.485l-11.622 8.393a6.381 6.381 0 01-7.472 0l-11.622-8.393a11.7 11.7 0 01-4.85-9.485V25.647a3.19 3.19 0 012.724-3.156c2.378-.352 4.903-.973 7.576-1.863 2.576-.86 5.028-2.317 7.348-4.375l.446-.404zm2.87 1.54a1.067 1.067 0 00-1.433.028l-.463.42c-2.537 2.25-5.237 3.855-8.096 4.808-2.785.929-5.43 1.579-7.936 1.95a1.063 1.063 0 00-.908 1.052v19.267a9.572 9.572 0 003.968 7.76l11.62 8.393a4.254 4.254 0 004.982 0l11.621-8.393a9.571 9.571 0 003.968-7.76V25.611c0-.523-.38-.969-.897-1.05a49.703 49.703 0 01-7.947-1.914c-2.689-.896-5.512-2.651-8.48-5.255v-.001zm9.582 16.272c.376.39.394.994.062 1.405l-.09.099-13.254 12.762c-.38.366-.965.394-1.376.084l-.1-.084-5.89-5.672a1.063 1.063 0 011.374-1.62l.102.087 5.152 4.962L46.69 33.633a1.063 1.063 0 011.504.029z" fill="#333"/></svg>