<svg width="76" height="80" fill="none" xmlns="http://www.w3.org/2000/svg"><path d="M0 20C0 8.954 8.954 0 20 0h36c11.046 0 20 8.954 20 20v41c0 10.493-8.507 19-19 19H20C8.954 80 0 71.046 0 60V20z" fill="#FFEDE8"/><path d="M60.364 32.232a2.465 2.465 0 00-1.9-.899h-.988v-14.18A2.154 2.154 0 0055.323 15H20.117a2.154 2.154 0 00-2.153 2.153v19.451h-1.01a2.517 2.517 0 00-1.878.862 2.495 2.495 0 00-.572 2.004l3.504 22.407A2.464 2.464 0 0020.474 64H53.78a2.463 2.463 0 002.442-2.064l4.715-27.693a2.45 2.45 0 00-.572-2.012zm-40.916-15.08c0-.369.3-.668.668-.668h35.207c.37 0 .668.3.668.668v14.18h-2.227V20.197a1.485 1.485 0 00-1.485-1.485H23.161a1.485 1.485 0 00-1.485 1.485v16.408h-2.227V17.152zm32.831 14.18h-5.152a2.472 2.472 0 00-2.116 1.174l-2.227 3.63a.994.994 0 01-.854.468H23.16V20.196h29.12v11.137zm7.195 2.651l-4.715 27.7a1.01 1.01 0 01-.98.832H20.466a.995.995 0 01-.995-.854l-3.505-22.414a1 1 0 01.23-.81.986.986 0 01.743-.349h24.969a2.48 2.48 0 002.123-1.187l2.227-3.63c.185-.294.508-.47.854-.468h11.381a1 1 0 01.743.363.988.988 0 01.238.817z" fill="#333"/><path d="M27.036 22.847h21.367v1.485H27.037v-1.485zm0 4.812h8.1v1.485h-8.1v-1.485zm0 4.811h8.1v1.484h-8.1V32.47zm7.485 20.023h-10a1.484 1.484 0 00-1.486 1.485v4.455a1.485 1.485 0 001.485 1.484h10.001a1.485 1.485 0 001.485-1.485v-4.454a1.485 1.485 0 00-1.485-1.485zm0 5.94h-10v-4.455h10v4.455z" fill="#333"/></svg>