<svg width="76" height="80" fill="none" xmlns="http://www.w3.org/2000/svg"><path d="M0 20C0 8.954 8.954 0 20 0h36c11.046 0 20 8.954 20 20v41c0 10.493-8.507 19-19 19H20C8.954 80 0 71.046 0 60V20z" fill="#FFEDE8"/><path d="M28.428 46.408a.446.446 0 01-.34-.159l-1.184-1.405a.447.447 0 11.683-.577l.826.981 2.177-2.816a.446.446 0 11.707.547l-2.515 3.256a.448.448 0 01-.344.173h-.01zm0-4.478a.446.446 0 01-.34-.16l-1.184-1.405a.447.447 0 11.683-.576l.826.98 2.177-2.816a.446.446 0 11.707.548l-2.515 3.255a.452.452 0 01-.344.174h-.01zm0-4.478a.445.445 0 01-.34-.16l-1.184-1.406a.447.447 0 11.683-.576l.826.981 2.177-2.816a.446.446 0 11.707.547l-2.515 3.256a.448.448 0 01-.354.174zm12.123-6.106h-7.333a.447.447 0 010-.894h7.333a.447.447 0 110 .894zm0 4.478h-7.333a.447.447 0 010-.895h7.333a.447.447 0 110 .895zm0 4.478h-7.333a.447.447 0 010-.895h7.333a.448.448 0 010 .895zm0 4.478h-7.333a.447.447 0 010-.894h7.333a.447.447 0 110 .894zM28.428 32.974a.445.445 0 01-.34-.16l-1.184-1.405a.447.447 0 11.683-.576l.826.981 2.177-2.817a.446.446 0 11.707.548L28.782 32.8a.45.45 0 01-.344.174h-.01zm0 17.912a.445.445 0 01-.34-.16l-1.184-1.405a.447.447 0 11.683-.576l.826.981 2.177-2.816a.446.446 0 11.707.547l-2.515 3.255a.45.45 0 01-.344.174h-.01zm10.735-1.628h-5.945a.447.447 0 010-.894h5.945a.447.447 0 110 .894z" fill="#333"/><path d="M46.166 65.105h2.219v-2.019c0-.215.154-.4.367-.439a8.084 8.084 0 003.171-1.315.447.447 0 01.571.052l1.427 1.428 1.569-1.57-1.428-1.427a.446.446 0 01-.05-.57 8.091 8.091 0 001.313-3.171.45.45 0 01.44-.368h2.019v-2.219h-2.018a.449.449 0 01-.44-.367 8.06 8.06 0 00-1.315-3.17.447.447 0 01.05-.571l1.429-1.428-1.57-1.569-1.426 1.428a.447.447 0 01-.57.052 8.102 8.102 0 00-3.172-1.315.448.448 0 01-.367-.44V44.09h-2.219v2.018a.448.448 0 01-.367.44 8.08 8.08 0 00-3.17 1.315.447.447 0 01-.572-.052l-1.428-1.428-1.569 1.57 1.428 1.427a.447.447 0 01.051.57 8.084 8.084 0 00-1.314 3.171.449.449 0 01-.44.367h-2.018v2.22h2.018c.216 0 .401.154.44.367a8.103 8.103 0 001.314 3.17.447.447 0 01-.05.571l-1.429 1.428 1.57 1.569 1.427-1.428a.448.448 0 01.571-.052 8.067 8.067 0 003.171 1.314.45.45 0 01.367.44v2.02zm2.666.895h-3.113a.448.448 0 01-.448-.447v-2.1a8.955 8.955 0 01-2.84-1.178l-1.485 1.486a.45.45 0 01-.633 0l-2.201-2.202a.447.447 0 010-.632l1.485-1.486a8.938 8.938 0 01-1.177-2.84h-2.1a.447.447 0 01-.447-.447V53.04c0-.247.2-.448.448-.448h2.099a8.958 8.958 0 011.177-2.84l-1.485-1.486a.447.447 0 010-.632l2.201-2.201a.446.446 0 01.633 0l1.485 1.485a8.94 8.94 0 012.84-1.177v-2.1c0-.247.2-.448.448-.448h3.112c.247 0 .447.2.447.448v2.1a8.943 8.943 0 012.84 1.177l1.487-1.485a.447.447 0 01.633 0l2.2 2.201a.447.447 0 010 .632l-1.485 1.485a8.96 8.96 0 011.177 2.84h2.1a.45.45 0 01.449.449v3.113a.448.448 0 01-.448.447h-2.1a8.969 8.969 0 01-1.178 2.84l1.485 1.486a.45.45 0 01.132.316.448.448 0 01-.132.316l-2.2 2.202a.449.449 0 01-.633 0l-1.486-1.486a8.944 8.944 0 01-2.84 1.177v2.1c0 .248-.2.448-.448.448z" fill="#333"/><path d="M47.274 49.837a4.765 4.765 0 00-4.76 4.76 4.765 4.765 0 004.76 4.76 4.765 4.765 0 004.76-4.76 4.765 4.765 0 00-4.76-4.76zm0 10.414a5.661 5.661 0 01-5.654-5.654 5.661 5.661 0 015.654-5.655 5.66 5.66 0 015.655 5.655 5.661 5.661 0 01-5.655 5.654z" fill="#333"/><path d="M44.107 64.71H24.18c-3.959 0-7.18-3.221-7.18-7.18V27.49c0-3.958 3.221-7.178 7.18-7.178h2.191c.247 0 .447.2.447.446v4.57h14.16v-4.57c0-.247.2-.447.447-.447h2.192c3.959 0 7.18 3.221 7.18 7.18v19.04a.448.448 0 01-.895 0V27.49a6.292 6.292 0 00-6.285-6.285h-1.744v4.57c0 .246-.2.447-.447.447H26.372a.448.448 0 01-.448-.448v-4.569H24.18a6.292 6.292 0 00-6.284 6.285v30.04a6.292 6.292 0 006.284 6.284h19.437l.265.001c.585.002 1.09.004 1.256-.16.11-.11.134-.37.134-.57a.447.447 0 01.895 0c0 .552-.126.935-.398 1.205-.387.386-.953.42-1.66.42h-.002z" fill="#333"/><path d="M47.87 44.09a.448.448 0 01-.448-.449V27.49a3.81 3.81 0 00-3.806-3.806h-2.191a.447.447 0 010-.895h2.191c2.592 0 4.7 2.108 4.7 4.7v16.152c0 .247-.2.448-.446.448zm-8.902 18.14H24.18a4.706 4.706 0 01-4.7-4.7V27.49c0-2.591 2.108-4.7 4.7-4.7h2.192a.447.447 0 010 .895H24.18a3.81 3.81 0 00-3.805 3.806v30.04a3.81 3.81 0 003.805 3.805h14.79a.448.448 0 110 .895z" fill="#333"/><path d="M41.425 26.222a.447.447 0 01-.447-.448v-5.958h-3.036a.448.448 0 01-.447-.448v-2.103c0-.756-.615-1.37-1.37-1.37H31.67c-.755 0-1.37.614-1.37 1.37v2.103c0 .247-.2.448-.448.448h-3.036v5.958a.448.448 0 11-.894 0v-6.406c0-.247.2-.448.448-.448h3.036v-1.655A2.267 2.267 0 0131.67 15h4.454a2.268 2.268 0 012.265 2.265v1.655h3.035c.248 0 .448.201.448.448v6.406c0 .247-.2.448-.448.448z" fill="#333"/><path d="M33.898 18.89c-.95 0-1.722.773-1.722 1.721a1.723 1.723 0 003.445 0c0-.949-.774-1.721-1.723-1.721zm0 4.338a2.62 2.62 0 01-2.617-2.616 2.62 2.62 0 012.617-2.616 2.62 2.62 0 012.617 2.616 2.62 2.62 0 01-2.617 2.616z" fill="#333"/></svg>