<svg width="76" height="80" fill="none" xmlns="http://www.w3.org/2000/svg"><path d="M0 20C0 8.954 8.954 0 20 0h36c11.046 0 20 8.954 20 20v41c0 10.493-8.507 19-19 19H20C8.954 80 0 71.046 0 60V20z" fill="#FFEDE8"/><path d="M29.919 34.024a9.512 9.512 0 009.512-9.512A9.512 9.512 0 0029.919 15a9.512 9.512 0 00-9.513 9.512 9.511 9.511 0 009.513 9.512zm0-16.812c4.037 0 7.3 3.263 7.3 7.3s-3.263 7.3-7.3 7.3a7.293 7.293 0 01-7.3-7.3c0-4.037 3.318-7.3 7.3-7.3zm18.914 17.642c3.595 0 6.47-2.931 6.47-6.47 0-3.54-2.93-6.471-6.47-6.471-3.54 0-6.47 2.93-6.47 6.47 0 3.54 2.875 6.47 6.47 6.47zm0-10.73c2.323 0 4.258 1.937 4.258 4.26 0 2.322-1.935 4.258-4.258 4.258s-4.259-1.936-4.259-4.259a4.26 4.26 0 014.259-4.258zm15.374 37.994l-7.079-6.968a9.436 9.436 0 002.212-6.084c0-1.327-.276-2.544-.719-3.705h.388c.553 0 1.05-.442 1.106-.995.608-5.862-3.982-8.572-6.471-9.125a1.22 1.22 0 00-.774.11c-1.604.83-3.54.996-4.259.996-.885-.055-2.599-.221-4.092-.995-.221-.111-.498-.166-.775-.111-.055 0-1.714.442-3.373 1.66-1.604-.83-2.876-1.218-2.931-1.273-.277-.11-.609-.055-.885.055-.055 0-3.153 1.66-6.968 1.88-3.595.277-6.36-1.714-6.416-1.714-.22-.166-.497-.22-.774-.22-2.71.276-5.033 1.437-6.968 3.483-2.157 2.268-3.374 5.31-3.374 8.573L12 52.717c0 .277.11.609.332.775.22.22.497.332.774.332h28.537c1.66 2.82 4.701 4.7 8.185 4.7 2.157 0 4.092-.718 5.696-1.88l7.134 7.024c.221.221.498.332.774.332.277 0 .554-.11.775-.332a1.07 1.07 0 000-1.55zM43.911 37.453c1.714.774 3.594.995 4.59 1.05h.11c.83 0 2.931-.165 4.867-1.05 1.106.387 4.369 1.77 4.48 5.696h-.609c-1.77-2.212-4.424-3.65-7.466-3.65a9.507 9.507 0 00-4.148.94c-.83-.83-1.88-1.66-3.097-2.434.443-.276.94-.442 1.273-.552zM14.212 51.61l.056-3.927c.055-2.71.995-5.199 2.765-7.08 1.493-1.548 3.207-2.488 5.198-2.764.996.608 3.872 2.156 7.467 1.88 3.428-.221 6.304-1.438 7.41-1.936.554.221 1.66.664 2.876 1.328 1.549.829 2.765 1.659 3.76 2.544-2.1 1.77-3.428 4.369-3.428 7.355 0 .885.11 1.77.387 2.6h-26.49zm28.316-2.6c0-4.037 3.263-7.3 7.3-7.3s7.3 3.263 7.3 7.3-3.262 7.3-7.3 7.3a7.294 7.294 0 01-7.3-7.3z" fill="#333"/></svg>