<svg width="76" height="80" fill="none" xmlns="http://www.w3.org/2000/svg"><path d="M0 20C0 8.954 8.954 0 20 0h36c11.046 0 20 8.954 20 20v41c0 10.493-8.507 19-19 19H20C8.954 80 0 71.046 0 60V20z" fill="#FFEDE8"/><path d="M59.023 15H28.097a2.3 2.3 0 00-2.297 2.297v1.154h-1.135a2.295 2.295 0 00-2.292 2.29v15.366a.556.556 0 001.112 0V20.742c0-.65.53-1.179 1.178-1.179H46.23c.05 0 .115.02.172.028v8.002a2.3 2.3 0 002.297 2.297h8.031c.008.057.033.108.033.166V61.71a1.19 1.19 0 01-1.198 1.179h-30.9a1.18 1.18 0 01-1.179-1.18v-.446a.556.556 0 00-1.111 0v.447c0 1.262 1.03 2.29 2.291 2.29h30.9c1.273 0 2.311-1.028 2.311-2.29v-1.155h1.148a2.3 2.3 0 002.297-2.297v-40.96A2.302 2.302 0 0059.023 15zM47.516 27.593v-7.237l8.456 8.42h-7.27c-.655 0-1.186-.53-1.186-1.183zm12.692 30.665c0 .654-.531 1.184-1.183 1.184h-1.15V30.055c0-.61-.238-1.185-.673-1.62l-9.34-9.3a2.21 2.21 0 00-1.63-.684H26.915v-1.154c0-.653.532-1.184 1.184-1.184h30.925c.653 0 1.183.532 1.183 1.184v40.96l.002.002z" fill="#333"/><path d="M31.847 57.49V40.017c0-1.086-.885-1.97-1.97-1.97h-13.91A1.971 1.971 0 0014 40.018v17.47c0 1.087.884 1.97 1.968 1.97h13.907a1.973 1.973 0 001.971-1.97v.001zm-16.735 0V40.017c0-.474.385-.857.857-.857h13.906a.86.86 0 01.859.857v17.47a.857.857 0 01-.859.857H15.969a.856.856 0 01-.857-.856z" fill="#333"/><path d="M28.68 41.178H17.166a.556.556 0 00-.556.556v4.108c0 .307.25.556.556.556H28.68c.308 0 .556-.25.556-.556v-4.108a.554.554 0 00-.556-.556zm-.556 4.108H17.722V42.29h10.4l.002 2.995zm-8.806 3.399h-2.155a.556.556 0 000 1.112h2.155a.556.556 0 100-1.111zm4.682 0h-2.155a.556.556 0 000 1.112H24a.556.556 0 000-1.111zm4.679 0h-2.155a.556.556 0 000 1.112h2.155a.556.556 0 000-1.111zm-9.361 3.265h-2.155a.556.556 0 000 1.112h2.155a.556.556 0 000-1.111zm4.682 0h-2.155a.556.556 0 000 1.112H24a.556.556 0 000-1.111zm4.679 0h-2.155a.556.556 0 000 1.112h2.155a.556.556 0 000-1.111zm-9.361 3.266h-2.155a.556.556 0 000 1.111h2.155a.556.556 0 000-1.111zm4.682 0h-2.155a.556.556 0 000 1.111H24a.556.556 0 000-1.111zm4.679 0h-2.155a.556.556 0 000 1.113h2.155a.556.556 0 000-1.113zm12.57-23.631h-.462v-.631a.556.556 0 00-1.112 0v.63h-.46a1.15 1.15 0 00-1.15 1.148v1.748c0 .635.517 1.15 1.15 1.15l2.067.036-.035 1.785-2.07-.035v-.452a.556.556 0 00-1.112 0v.452c0 .634.517 1.149 1.15 1.149h.46v.631a.556.556 0 001.112 0v-.631h.462c.633 0 1.147-.515 1.147-1.15v-1.748c0-.633-.514-1.147-1.147-1.147l-2.07-.036.036-1.784 2.067.036v.453a.556.556 0 001.112 0v-.453a1.147 1.147 0 00-1.145-1.151z" fill="#333"/><path d="M40.232 27.865c-3.975 0-7.209 3.235-7.209 7.209 0 3.975 3.235 7.209 7.21 7.209 3.974 0 7.208-3.235 7.208-7.209 0-3.975-3.234-7.209-7.209-7.209zm0 13.306a6.102 6.102 0 01-6.095-6.095 6.103 6.103 0 016.095-6.097 6.103 6.103 0 016.096 6.097 6.103 6.103 0 01-6.096 6.095zm10.821 5.119h-16.74a.556.556 0 000 1.112h16.74a.556.556 0 100-1.112zm0 4.249h-16.74a.556.556 0 100 1.111h16.74a.556.556 0 000-1.111zm0 4.247h-16.74a.556.556 0 000 1.111h16.74a.556.556 0 100-1.111z" fill="#333"/></svg>