<svg width="76" height="80" fill="none" xmlns="http://www.w3.org/2000/svg"><path d="M0 20C0 8.954 8.954 0 20 0h36c11.046 0 20 8.954 20 20v41c0 10.493-8.507 19-19 19H20C8.954 80 0 71.046 0 60V20z" fill="#FFEDE8"/><path d="M49.965 34.58c5.397 0 9.788-4.392 9.788-9.79 0-5.398-4.391-9.79-9.788-9.79-5.398 0-9.79 4.392-9.79 9.79 0 5.398 4.392 9.79 9.79 9.79zm0-18.362c4.726 0 8.57 3.845 8.57 8.572 0 4.727-3.844 8.572-8.57 8.572-4.727 0-8.573-3.846-8.573-8.573 0-4.726 3.846-8.572 8.573-8.572zm3.999 18.395h-8c-4.937 0-8.954 4.018-8.954 8.955v20.127c0 .168.136.305.304.305h25.3a.305.305 0 00.305-.305V43.57c0-4.938-4.017-8.955-8.955-8.955zm7.737 28.17H38.227V43.568c0-4.267 3.472-7.737 7.738-7.737h7.999c4.266 0 7.737 3.471 7.737 7.737v19.213z" fill="#333"/><path d="M53.205 37.013h-6.484a.305.305 0 00-.305.304v.609c0 .168.137.304.305.304h.453v15.853c0 .04.007.08.023.116l2.486 6.029a.305.305 0 00.562.001l2.463-5.913a.311.311 0 00.023-.116l.021-15.97h.454a.305.305 0 00.304-.304v-.609a.305.305 0 00-.305-.304zm-1.67 16.95l-1.571 3.774-1.573-3.775V38.23h3.145v15.732zM37.084 36.591a.303.303 0 00-.13-.194l-3.121-2.084a.303.303 0 00-.422.084l-.852 1.274h-4.576v-.747a.305.305 0 00-.305-.304h-1.98a2.41 2.41 0 00-2.317-1.786 2.41 2.41 0 00-2.317 1.786h-1.98a.305.305 0 00-.305.304v.747h-5.474a.305.305 0 00-.305.304v27.72c0 .167.137.304.305.304h20.153a.305.305 0 00.304-.305v-21.97l3.277-4.905a.307.307 0 00.045-.229v.001zm-17.087-.754H21.9a.305.305 0 00.304-.304v-.305a1.179 1.179 0 012.355 0v.305c0 .168.137.304.305.304h1.903v.885h-6.77v-.885zm12.547 26.945H14.217V36.89h4.562v.747c0 .168.136.305.304.305h8.596a.305.305 0 00.304-.305v-.747h3.763l-4.443 6.653a.307.307 0 00-.267.22l-.088.311-.116.173a.306.306 0 00-.02.303l-1.35 4.755v-.354a.305.305 0 00-.304-.305h-8.236a.305.305 0 00-.305.305v.608c0 .168.136.305.305.305h8.236c.06 0 .114-.022.16-.052l-.05.183a.306.306 0 00.48.323l4.438-3.512a.298.298 0 00.274-.135l.116-.173.253-.201a.305.305 0 00.1-.33l1.615-2.417v19.233zm-4.68-17.481l1.224.817-1.878 1.486.654-2.303zm2.09-.068l-1.602-1.071 5.564-8.33 1.602 1.07-5.563 8.33z" fill="#333"/><path d="M16.923 46.117h8.237a.305.305 0 00.304-.305v-.609a.305.305 0 00-.304-.304h-8.237a.305.305 0 00-.305.304v.609c0 .168.137.305.305.305zm12.917 6.269H16.922a.305.305 0 00-.305.305v.608c0 .168.137.305.305.305H29.84a.305.305 0 00.305-.305v-.608a.304.304 0 00-.305-.305zm0 3.744H16.922a.305.305 0 00-.305.304v.609c0 .168.137.304.305.304H29.84a.305.305 0 00.305-.304v-.609a.304.304 0 00-.305-.304z" fill="#333"/></svg>