<svg width="76" height="80" fill="none" xmlns="http://www.w3.org/2000/svg"><path d="M0 20C0 8.954 8.954 0 20 0h36c11.046 0 20 8.954 20 20v41c0 10.493-8.507 19-19 19H20C8.954 80 0 71.046 0 60V20z" fill="#FFEDE8"/><path d="M46.322 27.456a.61.61 0 00-.853.155L35.008 42.73l-7.433-5.144a.61.61 0 00-.852.155l-3.073 4.44a.613.613 0 00.155.852l12.377 8.565a.613.613 0 00.852-.156l13.884-20.061a.613.613 0 00-.155-.853l-4.44-3.072zM36.374 50.24l-11.368-7.867 2.374-3.432 7.434 5.144c.278.191.66.123.852-.156L46.13 28.811l3.431 2.375-13.186 19.055z" fill="#333"/><path d="M57.997 22.353a.613.613 0 00-.12-.824l-4.42-3.556a.61.61 0 00-.605-.094c-9.407 3.66-14.437-2.396-14.65-2.662-.232-.29-.724-.29-.957 0-.05.065-5.208 6.335-14.65 2.662a.61.61 0 00-.605.093l-4.419 3.556a.614.614 0 00-.12.826c.042.06 4.201 6.195 2.145 10.944-1.64 3.785-5.48 12.65 1.186 21.25 3.555 4.588 7.747 5.636 11.116 6.478 2.426.607 4.342 1.086 5.3 2.677a.612.612 0 001.05 0c.96-1.591 2.876-2.07 5.302-2.677 3.368-.842 7.56-1.89 11.116-6.478 6.665-8.6 2.825-17.464 1.186-21.25-2.053-4.739 2.103-10.883 2.145-10.945zm-4.3 31.445c-3.296 4.252-7.094 5.201-10.444 6.039-2.257.565-4.246 1.062-5.53 2.516-1.282-1.454-3.271-1.952-5.529-2.516-3.35-.838-7.148-1.787-10.444-6.04-5.482-7.073-3.597-14.086-1.029-20.013 1.99-4.595-.95-10.014-1.952-11.645l3.716-2.992c8.386 3.1 13.673-1.117 15.235-2.647a12.964 12.964 0 003.684 2.537c2.42 1.118 6.372 2.028 11.559.11l3.716 2.992c-1.002 1.632-3.942 7.05-1.953 11.645 2.568 5.927 4.454 12.94-1.029 20.014z" fill="#333"/></svg>