<svg width="1920" height="407" fill="none" xmlns="http://www.w3.org/2000/svg"><path opacity=".2" fill-rule="evenodd" clip-rule="evenodd" d="M2022.63 128.29c-85.07-25.451-305.95-66.106-509.04-25.132-63.45 12.803-87.99 32.398-94.51 54.75-3.25 11.162-2 22.959 1.07 34.844 2.22 8.581 5.39 17.235 8.5 25.743v.001l.01.005c1.19 3.267 2.38 6.512 3.51 9.723 4.06 11.595 7.27 22.751 7.03 32.979-.24 10.205-3.92 19.495-13.69 27.382-9.78 7.901-25.69 14.406-50.42 18.968-24.71 4.561-58.21 7.174-103.15 7.314-135.34.424-228.14-21.608-306.669-40.25-25.76-6.116-49.984-11.867-73.669-16.34-47.939-9.055-93.66-12.871-145.405-3.861-51.742 9.009-109.488 30.839-181.49 73.048-71.931 42.168-132.084 54.206-185.864 49.493-53.789-4.714-101.237-26.186-147.763-51.106-11.26-6.031-22.465-12.264-33.693-18.51h-.002c-81.536-45.355-164.259-91.369-277.386-65.327l.157.643c112.864-25.981 195.354 19.899 276.901 65.254l.002.001c11.231 6.246 22.444 12.482 33.715 18.52 46.545 24.93 94.092 46.457 148.021 51.183 53.938 4.727 114.225-7.356 186.252-49.58 71.957-42.182 129.629-63.977 181.273-72.969 51.641-8.991 97.276-5.186 145.169 3.86 23.647 4.466 47.848 10.212 73.593 16.324h.002c78.536 18.645 171.446 40.701 306.866 40.278 44.96-.141 78.5-2.754 103.27-7.325 24.77-4.57 40.8-11.102 50.71-19.102 9.92-8.014 13.68-17.489 13.93-27.873.24-10.36-3.01-21.616-7.07-33.215-1.13-3.232-2.33-6.49-3.53-9.764v-.001c-3.11-8.498-6.26-17.105-8.47-25.652-3.06-11.834-4.28-23.496-1.07-34.495 6.41-21.969 30.59-41.498 94.01-54.295 202.95-40.946 423.72-.315 508.72 25.116l.18-.632zm-482.25 3.199c203.08-40.974 423.97-.319 509.03 25.132l-.18.633c-85-25.432-305.77-66.063-508.71-25.117-63.43 12.797-87.61 32.326-94.02 54.295-3.21 10.999-1.98 22.662 1.07 34.495 2.21 8.546 5.36 17.153 8.48 25.65v.003a695.8 695.8 0 013.52 9.764c4.06 11.599 7.31 22.855 7.07 33.215-.25 10.384-4 19.859-13.93 27.873-9.9 8-25.94 14.532-50.7 19.102-24.78 4.571-58.32 7.184-103.27 7.325-135.43.423-228.34-21.633-306.873-40.278-25.746-6.112-49.947-11.857-73.595-16.324-47.893-9.046-93.528-12.851-145.169-3.86-51.644 8.992-109.316 30.787-181.273 72.969-72.027 42.224-132.314 54.307-186.252 49.58-53.928-4.726-101.476-26.253-148.02-51.183-11.273-6.038-22.487-12.275-33.718-18.521-81.547-45.355-164.036-91.234-276.901-65.254l-.157-.643c113.128-26.042 195.85 19.972 277.387 65.327 11.228 6.245 22.434 12.479 33.694 18.51 46.526 24.92 93.974 46.392 147.763 51.106 53.78 4.713 113.933-7.325 185.864-49.493 72.002-42.209 129.748-64.039 181.491-73.048 51.745-9.01 97.465-5.194 145.405 3.861 23.684 4.473 47.908 10.224 73.668 16.34 78.526 18.642 171.336 40.674 306.666 40.251 44.94-.141 78.44-2.754 103.16-7.315 24.72-4.562 40.63-11.067 50.41-18.968 9.77-7.887 13.45-17.177 13.69-27.382.24-10.228-2.97-21.384-7.03-32.979-1.12-3.211-2.31-6.456-3.51-9.723v-.008c-3.12-8.507-6.29-17.161-8.51-25.741-3.07-11.885-4.32-23.682-1.06-34.844 6.52-22.352 31.05-41.947 94.51-54.75zm535.82 53.463c-85.07-25.451-305.95-66.106-509.04-25.131-63.46 12.802-87.99 32.398-94.51 54.749-3.26 11.162-2 22.959 1.07 34.844 2.21 8.58 5.38 17.234 8.5 25.742v.007c1.2 3.267 2.39 6.512 3.51 9.723 4.06 11.595 7.27 22.751 7.03 32.979-.24 10.205-3.92 19.495-13.68 27.382-9.79 7.901-25.7 14.406-50.42 18.968-24.72 4.561-58.22 7.174-103.15 7.315-135.34.423-228.15-21.609-306.67-40.251v-.001c-25.764-6.115-49.987-11.866-73.671-16.339-47.94-9.055-93.66-12.871-145.405-3.861-51.743 9.009-109.489 30.839-181.49 73.048-71.931 42.168-132.084 54.206-185.864 49.493-53.789-4.714-101.238-26.186-147.764-51.106-11.26-6.031-22.466-12.265-33.694-18.51-81.537-45.355-164.26-91.369-277.387-65.327l.157.643c112.865-25.98 195.355 19.899 276.901 65.254 11.232 6.246 22.445 12.483 33.718 18.521 46.544 24.93 94.092 46.457 148.02 51.183 53.938 4.727 114.225-7.356 186.253-49.58 71.956-42.182 129.628-63.976 181.272-72.969 51.641-8.991 97.276-5.186 145.169 3.86 23.645 4.466 47.843 10.211 73.585 16.322l.01.002c78.54 18.645 171.44 40.701 306.87 40.278 44.95-.14 78.5-2.754 103.27-7.325 24.77-4.57 40.8-11.102 50.71-19.102 9.92-8.014 13.68-17.489 13.92-27.873.25-10.36-3-21.616-7.06-33.215a852.56 852.56 0 00-3.53-9.764v-.005c-3.11-8.496-6.27-17.102-8.47-25.648-3.06-11.833-4.29-23.496-1.08-34.494 6.41-21.97 30.59-41.499 94.02-54.296 202.94-40.946 423.71-.315 508.72 25.117l.18-.633zm26.78 28.332c-85.07-25.451-305.95-66.106-509.04-25.131-63.45 12.802-87.99 32.398-94.51 54.749-3.25 11.162-2 22.959 1.07 34.844 2.22 8.58 5.39 17.234 8.5 25.742v.002l.01.007c1.19 3.266 2.38 6.511 3.51 9.721 4.05 11.595 7.27 22.751 7.03 32.979-.24 10.205-3.92 19.495-13.69 27.382-9.78 7.901-25.69 14.406-50.42 18.968-24.71 4.561-58.21 7.174-103.15 7.315-135.34.423-228.14-21.609-306.67-40.251-25.76-6.116-49.984-11.866-73.668-16.34-47.94-9.054-93.66-12.871-145.405-3.861-51.742 9.009-109.488 30.839-181.49 73.048-71.931 42.168-132.084 54.206-185.864 49.493-53.789-4.714-101.238-26.186-147.764-51.106-11.26-6.031-22.466-12.264-33.694-18.51C196.198 346.98 113.476 300.966.348 327.008l.157.643c112.865-25.98 195.355 19.899 276.901 65.254 11.232 6.246 22.445 12.483 33.718 18.521 46.545 24.93 94.092 46.457 148.021 51.183 53.937 4.727 114.224-7.356 186.252-49.58 71.956-42.182 129.628-63.976 181.272-72.968 51.641-8.992 97.276-5.187 145.169 3.859 23.648 4.467 47.852 10.212 73.592 16.324 78.54 18.645 171.45 40.701 306.87 40.278 44.96-.14 78.5-2.754 103.27-7.325 24.77-4.57 40.8-11.102 50.71-19.102 9.92-8.014 13.68-17.489 13.93-27.873.24-10.36-3.01-21.616-7.07-33.214-1.13-3.233-2.33-6.491-3.53-9.765v-.005c-3.11-8.496-6.26-17.102-8.47-25.648-3.06-11.833-4.28-23.496-1.07-34.494 6.41-21.97 30.58-41.499 94.01-54.296 202.95-40.946 423.72-.315 508.72 25.117l.18-.633z" fill="url(#paint0_linear_736_1672)"/><path opacity=".2" fill-rule="evenodd" clip-rule="evenodd" d="M1710.56 301.524c-74.55 23.407-268.12 58.494-446.1 11.596-55.63-14.658-77.13-35.128-82.84-57.873-2.85-11.352-1.75-23.226.94-35.145 1.94-8.606 4.72-17.26 7.45-25.769v-.001c1.05-3.269 2.09-6.517 3.07-9.733 7.12-23.228 11.26-44.747-5.83-61.186-8.57-8.24-22.49-15.238-44.15-20.514-21.65-5.275-51-8.822-90.38-10.18-118.58-4.094-199.889 15.643-268.698 32.347-22.575 5.48-43.805 10.634-64.564 14.512-42.015 7.849-82.09 10.466-127.448-.04-45.353-10.505-95.962-34.126-159.058-78.716-63.025-44.54-115.72-58.321-162.823-55.02-47.116 3.304-88.683 23.701-129.453 47.614-9.865 5.786-19.683 11.778-29.522 17.783-71.445 43.605-143.962 87.863-243.128 58.483l.179-.633c98.866 29.292 171.12-14.8 242.582-58.407 9.842-6.006 19.67-12.002 29.549-17.797 40.786-23.922 82.462-44.387 129.737-47.701 47.288-3.315 100.132 10.532 163.255 55.14 63.051 44.558 113.58 68.131 158.823 78.611 45.238 10.479 85.215 7.872 127.177.033 20.717-3.87 41.921-9.017 64.479-14.494 68.82-16.706 150.247-36.473 268.933-32.376 39.39 1.36 68.79 4.91 90.51 10.2 21.71 5.289 35.77 12.325 44.45 20.682 17.42 16.752 13.12 38.671 6.02 61.861-.99 3.228-2.04 6.48-3.09 9.749v.02c-2.73 8.499-5.5 17.111-7.43 25.686-2.68 11.874-3.75 23.631-.94 34.839 5.62 22.377 26.8 42.747 82.36 57.387 177.82 46.854 371.26 11.796 445.74-11.589l.2.631zm-422.63-16.297c177.98 46.897 371.55 11.81 446.1-11.597l-.2-.63c-74.48 23.385-267.92 58.443-445.74 11.588-55.56-14.639-76.74-35.009-82.36-57.386-2.81-11.208-1.74-22.966.94-34.839 1.93-8.576 4.7-17.187 7.43-25.687v-.02c1.05-3.269 2.1-6.521 3.09-9.748 7.1-23.191 11.4-45.11-6.02-61.862-8.68-8.356-22.74-15.393-44.45-20.682-21.72-5.29-51.12-8.84-90.51-10.2-118.686-4.096-200.113 15.67-268.933 32.377-22.559 5.476-43.762 10.623-64.48 14.494-41.961 7.839-81.939 10.445-127.177-.034-45.242-10.479-95.771-34.052-158.822-78.61-63.123-44.609-115.967-58.456-163.255-55.14-47.275 3.313-88.951 23.779-129.737 47.7-9.878 5.794-19.703 11.79-29.544 17.794l-.005.004C62.796 86.356-9.459 130.447-108.325 101.155l-.18.633C-9.339 131.169 63.179 86.91 134.624 43.306c9.839-6.005 19.657-11.998 29.522-17.784 40.77-23.912 82.337-44.31 129.453-47.613 47.103-3.302 99.798 10.48 162.823 55.02 63.096 44.59 113.705 68.21 159.058 78.716 45.357 10.506 85.433 7.888 127.447.039 20.759-3.878 41.989-9.031 64.564-14.512h.001C876.301 80.47 957.61 60.731 1076.19 64.825c39.38 1.359 68.73 4.906 90.38 10.18 21.66 5.277 35.58 12.275 44.15 20.514 17.09 16.44 12.95 37.958 5.83 61.187a687.2 687.2 0 01-3.07 9.732v.003c-2.74 8.508-5.51 17.162-7.45 25.768-2.69 11.919-3.79 23.792-.94 35.145 5.71 22.744 27.21 43.215 82.84 57.873zm469.57-39.489c-74.55 23.406-268.12 58.493-446.1 11.596-55.63-14.658-77.13-35.129-82.84-57.873-2.85-11.352-1.75-23.226.94-35.145 1.94-8.605 4.71-17.258 7.45-25.767v-.003a687.3 687.3 0 003.07-9.733c7.12-23.229 11.26-44.747-5.83-61.186-8.57-8.24-22.5-15.238-44.15-20.514-21.65-5.275-51-8.822-90.38-10.181-118.58-4.094-199.89 15.644-268.698 32.348h-.001c-22.575 5.48-43.805 10.633-64.564 14.511-42.015 7.85-82.09 10.467-127.447-.039-45.353-10.505-95.962-34.126-159.059-78.716-63.025-44.54-115.719-58.322-162.823-55.02-47.115 3.304-88.682 23.701-129.452 47.614-9.865 5.786-19.684 11.778-29.522 17.783C86.648 59.018 14.131 103.276-85.035 73.896l.18-.633c98.866 29.292 171.12-14.8 242.581-58.407 9.843-6.006 19.67-12.003 29.55-17.797 40.786-23.922 82.462-44.387 129.737-47.701C364.3-53.957 417.145-40.11 480.267 4.498c63.052 44.558 113.581 68.131 158.823 78.61 45.238 10.48 85.215 7.873 127.177.034 20.717-3.87 41.921-9.017 64.479-14.493 68.821-16.707 150.248-36.474 268.934-32.377 39.39 1.36 68.79 4.91 90.51 10.2 21.71 5.289 35.77 12.325 44.45 20.682 17.42 16.752 13.12 38.671 6.02 61.861-.99 3.227-2.04 6.48-3.09 9.749v.02c-2.73 8.499-5.5 17.111-7.43 25.686-2.68 11.874-3.75 23.631-.94 34.839 5.62 22.377 26.8 42.747 82.36 57.387 177.82 46.854 371.26 11.796 445.74-11.589l.2.631zm23.47-27.892c-74.55 23.407-268.12 58.494-446.1 11.597-55.63-14.658-77.13-35.129-82.84-57.873-2.85-11.353-1.76-23.226.93-35.146 1.95-8.605 4.72-17.258 7.45-25.767v-.003c1.05-3.269 2.1-6.517 3.08-9.732 7.12-23.23 11.26-44.747-5.83-61.187-8.57-8.24-22.5-15.237-44.15-20.514-21.66-5.275-51-8.821-90.38-10.18-118.58-4.094-199.891 15.644-268.7 32.347-22.575 5.48-43.805 10.634-64.564 14.512-42.015 7.849-82.09 10.467-127.447-.04-45.353-10.505-95.963-34.126-159.059-78.716-63.025-44.54-115.719-58.321-162.823-55.02-47.116 3.304-88.682 23.702-129.452 47.614-9.86 5.783-19.672 11.771-29.505 17.773l-.013.007-.005.003C110.117 31.126 37.6 75.385-61.566 46.004l.179-.633c98.867 29.292 171.121-14.8 242.582-58.406l.004-.002c9.841-6.006 19.667-12.002 29.546-17.796 40.785-23.922 82.462-44.387 129.737-47.7 47.287-3.316 100.131 10.53 163.254 55.14 63.051 44.558 113.581 68.13 158.823 78.61 45.238 10.479 85.215 7.873 127.177.034 20.717-3.87 41.921-9.018 64.479-14.494C923.035 24.05 1004.46 4.283 1123.15 8.38c39.39 1.36 68.79 4.91 90.5 10.2 21.72 5.29 35.78 12.326 44.46 20.682 17.42 16.752 13.12 38.671 6.01 61.861a776.45 776.45 0 01-3.08 9.747v.022c-2.73 8.5-5.5 17.111-7.43 25.687-2.68 11.873-3.76 23.63-.94 34.838 5.62 22.378 26.8 42.748 82.36 57.387 177.82 46.855 371.25 11.796 445.73-11.588l.21.63z" fill="url(#paint1_linear_736_1672)"/><defs><linearGradient id="paint0_linear_736_1672" x1="171.039" y1="358.761" x2="2084.3" y2="358.761" gradientUnits="userSpaceOnUse"><stop offset=".342" stop-opacity=".7"/><stop offset=".512" stop-color="#F8EFF4" stop-opacity=".1"/><stop offset=".852" stop-color="#111" stop-opacity=".8"/></linearGradient><linearGradient id="paint1_linear_736_1672" x1="88.012" y1="18.56" x2="1764.6" y2="18.56" gradientUnits="userSpaceOnUse"><stop offset=".31" stop-color="#949494"/><stop offset=".461" stop-opacity=".1"/><stop offset=".676" stop-opacity=".8"/></linearGradient></defs></svg>