<svg width="375" height="830" fill="none" xmlns="http://www.w3.org/2000/svg"><path opacity=".2" fill-rule="evenodd" clip-rule="evenodd" d="M381.834 850.13c-20.858-5.997-54.495-20.725-87.665-45.422-33.173-24.699-65.896-59.381-84.896-105.294-5.944-14.365-7.847-26.605-6.822-37.258 1.024-10.654 4.975-19.696 10.703-27.667 9.85-13.707 24.979-24.266 39.527-34.419a996.877 996.877 0 006.968-4.892c8.261-5.869 16.01-11.751 22.134-18.193 6.121-6.44 10.603-13.423 12.35-21.49 3.493-16.121-3.901-36.746-31.479-66.248-41.5-44.397-83.408-60.993-118.92-75.057-11.663-4.619-22.636-8.965-32.678-13.932-20.307-10.045-36.788-22.637-47.356-45.187-10.56-22.535-15.196-54.973-11.92-104.673 3.27-49.628-8.032-76.627-27.39-91.182C5.003 144.637-22.555 142.463-52 142.738c-7.11.066-14.33.275-21.567.485-22.685.657-45.539 1.319-65.72-2.398-13.32-2.454-25.502-6.818-35.727-14.365-10.228-7.55-18.48-18.273-23.955-33.412l.616-.23c5.434 15.025 13.609 25.637 23.725 33.104 10.121 7.471 22.2 11.807 35.458 14.249 20.107 3.704 42.861 3.045 65.53 2.389 7.25-.21 14.492-.42 21.635-.487 29.431-.274 57.202 1.882 76.787 16.609 19.616 14.75 30.93 42.032 27.652 91.76-3.273 49.655 1.37 81.96 11.858 104.344 10.482 22.367 26.822 34.868 47.052 44.875 9.98 4.936 20.911 9.265 32.546 13.872 35.532 14.071 77.629 30.741 119.241 75.257 27.606 29.533 35.211 50.383 31.643 66.848-1.782 8.227-6.346 15.315-12.519 21.808-6.17 6.492-13.964 12.405-22.23 18.277-2.3 1.634-4.637 3.265-6.986 4.905-14.554 10.16-29.576 20.646-39.355 34.253-5.67 7.89-9.569 16.822-10.58 27.34-1.012 10.52.862 22.649 6.774 36.936 18.942 45.772 51.573 80.366 84.679 105.015 33.108 24.651 66.674 39.343 87.456 45.319l-.179.639zm-62.27-54.257c33.171 24.697 66.808 39.425 87.666 45.422l.179-.639c-20.782-5.976-54.348-20.668-87.456-45.319-33.106-24.649-65.737-59.243-84.679-105.015-5.912-14.287-7.786-26.416-6.775-36.936 1.012-10.518 4.911-19.45 10.581-27.34 9.779-13.607 24.801-24.093 39.355-34.253 2.349-1.639 4.686-3.271 6.986-4.905 8.266-5.872 16.06-11.785 22.23-18.276 6.173-6.494 10.737-13.582 12.519-21.809 3.567-16.465-4.037-37.315-31.644-66.848-41.611-44.516-83.708-61.186-119.24-75.256-11.635-4.608-22.566-8.937-32.546-13.873-20.23-10.007-36.57-22.508-47.052-44.875-10.489-22.384-15.13-54.689-11.858-104.344 3.278-49.728-8.036-77.01-27.652-91.76-19.585-14.727-47.356-16.883-76.788-16.609-7.143.067-14.384.277-21.634.487h-.001c-22.668.656-45.423 1.315-65.529-2.389-13.258-2.442-25.337-6.778-35.458-14.248-10.116-7.468-18.291-18.08-23.725-33.104l-.616.229c5.475 15.14 13.727 25.862 23.955 33.412 10.224 7.547 22.407 11.912 35.727 14.365 20.18 3.718 43.035 3.055 65.72 2.398 7.237-.209 14.457-.419 21.567-.485 29.444-.274 57.002 1.899 76.39 16.478 19.357 14.555 30.66 41.555 27.39 91.182-3.276 49.7 1.36 82.139 11.92 104.673 10.567 22.551 27.048 35.142 47.356 45.187 10.042 4.967 21.015 9.313 32.678 13.932 35.512 14.064 77.42 30.661 118.92 75.057 27.577 29.502 34.972 50.127 31.479 66.249-1.748 8.067-6.229 15.05-12.35 21.489-6.124 6.442-13.873 12.324-22.134 18.194a1096.967 1096.967 0 01-6.968 4.892c-14.548 10.152-29.677 20.712-39.527 34.419-5.728 7.97-9.679 17.012-10.704 27.667-1.024 10.652.879 22.892 6.823 37.257 19 45.913 51.723 80.595 84.895 105.294zm113.064 36.584c-20.857-5.997-54.494-20.725-87.665-45.423-33.172-24.698-65.895-59.38-84.895-105.293-5.945-14.365-7.848-26.606-6.823-37.258 1.025-10.654 4.976-19.697 10.703-27.667 9.85-13.707 24.98-24.266 39.527-34.419l.014-.01a969.891 969.891 0 006.954-4.882c8.262-5.869 16.011-11.751 22.134-18.193 6.122-6.44 10.603-13.423 12.351-21.49 3.493-16.121-3.902-36.747-31.479-66.249-41.501-44.396-83.408-60.993-118.921-75.057-11.662-4.618-22.635-8.964-32.677-13.931-20.308-10.046-36.789-22.637-47.357-45.188-10.56-22.534-15.196-54.973-11.92-104.673 3.272-49.635-5.964-78.755-22.255-96.445-16.298-17.698-39.72-24.029-65.006-27.932-6.934-1.07-14.011-1.957-21.116-2.848l-.002-.001h-.001c-18.762-2.353-37.72-4.73-54.77-10.563-23.545-8.055-43.508-22.712-54.457-52.988l.616-.229c10.867 30.051 30.654 44.583 54.05 52.587 16.983 5.81 35.838 8.175 54.576 10.524 7.121.893 14.225 1.784 21.203 2.861 25.303 3.905 48.925 10.26 65.387 28.136 16.468 17.883 25.707 47.223 22.43 96.943-3.273 49.655 1.368 81.96 11.858 104.343 10.481 22.367 26.821 34.868 47.051 44.875 9.98 4.937 20.911 9.265 32.547 13.873 35.531 14.07 77.628 30.741 119.24 75.256 27.607 29.534 35.211 50.383 31.643 66.849-1.782 8.226-6.346 15.315-12.518 21.808-6.171 6.491-13.965 12.405-22.23 18.276-2.301 1.635-4.638 3.266-6.987 4.906-14.554 10.159-29.576 20.645-39.355 34.252-5.67 7.891-9.569 16.823-10.58 27.341-1.012 10.519.863 22.649 6.775 36.936 18.941 45.772 51.572 80.365 84.678 105.015 33.108 24.65 66.674 39.343 87.456 45.318l-.179.64zm25.394-8.835c-20.858-5.997-54.495-20.724-87.665-45.422-33.173-24.698-65.896-59.381-84.896-105.294-5.944-14.365-7.847-26.605-6.822-37.257 1.024-10.655 4.975-19.697 10.703-27.667 9.85-13.707 24.979-24.266 39.526-34.419l.017-.012c2.34-1.633 4.666-3.256 6.952-4.88 8.261-5.869 16.01-11.752 22.134-18.193 6.121-6.44 10.603-13.423 12.35-21.49 3.493-16.122-3.901-36.747-31.479-66.249-42.324-45.278-86.009-60.727-123.115-73.851-11.221-3.968-21.84-7.723-31.638-12.027-21.097-9.265-38.377-21.077-49.544-43.049-11.159-21.956-16.191-54.011-12.915-103.712 3.272-49.643-3.565-81.229-16.297-102.585C92.604 106.166 73.956 94.99 53.486 86.23c-6.785-2.904-13.772-5.542-20.808-8.198h-.001C-2.715 64.672-39.337 50.847-57.588.38l.616-.23c18.139 50.157 54.443 63.87 89.818 77.23 7.052 2.665 14.068 5.314 20.895 8.236 20.522 8.783 39.32 20.029 52.153 41.555 12.829 21.519 19.668 53.26 16.391 102.972-3.273 49.654 1.765 81.566 12.843 103.364 11.071 21.782 28.197 33.51 49.222 42.744 9.74 4.277 20.32 8.019 31.514 11.977l.002.001h.001c37.124 13.127 81.006 28.645 123.452 74.052 27.606 29.533 35.21 50.383 31.643 66.848-1.782 8.227-6.346 15.315-12.519 21.809-6.17 6.491-13.964 12.404-22.23 18.276-2.3 1.634-4.637 3.266-6.986 4.905-14.554 10.16-29.576 20.646-39.355 34.253-5.67 7.891-9.569 16.822-10.58 27.34-1.012 10.52.862 22.649 6.774 36.936 18.942 45.772 51.573 80.366 84.679 105.015 33.108 24.651 66.674 39.343 87.456 45.319l-.179.639z" fill="url(#paint0_linear_323_2174)"/><defs><linearGradient id="paint0_linear_323_2174" x1="-46.087" y1="97.683" x2="569.402" y2="697.266" gradientUnits="userSpaceOnUse"><stop offset=".31" stop-color="#939393"/><stop offset=".594" stop-color="#939393"/><stop offset=".852" stop-color="#939393"/></linearGradient></defs></svg>