<svg width="39" height="33" fill="none" xmlns="http://www.w3.org/2000/svg"><path d="M18.86 0a.695.695 0 00-.478.185.614.614 0 00-.197.45c0 .168.072.33.198.448a.695.695 0 00.477.184c.798 0 1.445.646 1.445 1.444v.033c0 .707-.503 1.307-1.185 1.494-2.859.78-5.451 2.326-7.437 4.494a.609.609 0 00.074.896.701.701 0 00.948-.07c2.699-2.947 6.62-4.636 10.746-4.636 7.852 0 14.205 5.991 14.205 13.404s-6.353 13.41-14.205 13.41c-4.126 0-8.046-1.695-10.746-4.642a.702.702 0 00-.948-.066.608.608 0 00-.074.892c2.953 3.225 7.25 5.08 11.768 5.08C32.03 33 39 26.42 39 18.326c0-6.678-4.742-12.321-11.219-14.093-.68-.186-1.184-.786-1.184-1.492v-.753c0-.399.324-.722.723-.722h.722c.37-.001.669-.283.67-.631a.614.614 0 00-.195-.448.696.696 0 00-.475-.187H18.86zm2.79 2.443c0-.65.526-1.177 1.176-1.177h1.25c.65 0 1.177.527 1.177 1.177 0 .7-.609 1.242-1.31 1.221a16.363 16.363 0 00-.985 0c-.7.021-1.309-.52-1.309-1.221zm9.053 8.408a.694.694 0 00-.477.187L26.62 14.44c-.81.764-2.054.79-3.167.79-1.808 0-3.286 1.393-3.286 3.096s1.478 3.1 3.286 3.1c1.807 0 3.285-1.397 3.285-3.1v-.056c-.02-1.005.002-2.148.733-2.838l3.71-3.502a.614.614 0 00.198-.449.614.614 0 00-.198-.448.696.696 0 00-.477-.182zm-25.64 2.311a.693.693 0 00-.476.184.615.615 0 00-.2.446.62.62 0 00.2.447.693.693 0 00.476.183h11.033a.692.692 0 00.476-.183.615.615 0 00.2-.447.615.615 0 00-.2-.446.692.692 0 00-.476-.184H5.063zm18.388 3.333c.486 0 .927.165 1.266.438.037.03.07.066.104.1.036.032.074.063.107.098.29.32.464.736.464 1.195 0 1.021-.862 1.835-1.94 1.835-1.08 0-1.941-.814-1.941-1.835s.862-1.83 1.94-1.83zM.675 17.696a.695.695 0 00-.476.183.615.615 0 00-.199.447c0 .168.07.33.197.45a.695.695 0 00.478.185H11.71c.179 0 .35-.066.478-.185a.615.615 0 00.197-.45.615.615 0 00-.2-.447.695.695 0 00-.475-.183H.675zm4.387 4.534a.696.696 0 00-.478.185.615.615 0 00-.197.45.615.615 0 00.2.446.692.692 0 00.475.183h11.034a.692.692 0 00.476-.183.615.615 0 00.2-.447.62.62 0 00-.198-.45.696.696 0 00-.478-.184H5.062z" fill="#414141"/></svg>