<svg width="688" height="583" fill="none" xmlns="http://www.w3.org/2000/svg"><path d="M634.082 484.378c-.146 0 2.135-9.949 2.346-10.564 2.491-7.07 11.486-19.284 19.883-19.058a9.941 9.941 0 017.218 3.702 9.933 9.933 0 012.051 7.849c-.76 5.873-6.179 10.775-11.049 13.558-5.727 3.268-20.433 4.513-20.449 4.513zm.938-40.477c-.145 0 3.608-9.513 3.915-10.079 3.543-6.633 14.269-17.343 22.536-15.839a9.96 9.96 0 016.572 4.75 9.958 9.958 0 01.854 8.063c-1.618 5.711-7.749 9.707-12.942 11.729-6.197 2.379-20.919 1.376-20.935 1.376zm10.548-44.991c-.162 0 3.592-9.513 3.899-10.079 3.543-6.617 14.285-17.327 22.552-15.838a9.946 9.946 0 017.41 12.829c-1.618 5.695-7.749 9.707-12.943 11.729-6.18 2.362-20.918 1.359-20.918 1.359zm7.879-42.904c-.162 0 3.591-9.513 3.899-10.096 3.543-6.616 14.285-17.326 22.552-15.822a9.954 9.954 0 017.857 8.691 9.96 9.96 0 01-.431 4.122c-1.618 5.711-7.766 9.707-12.943 11.729-6.196 2.362-20.934 1.376-20.934 1.376zm-3.349-37.291c-.162 0 .955-10.127 1.1-10.758 1.618-7.329 9.189-20.498 17.569-21.226a9.95 9.95 0 0110.532 10.403c0 5.937-4.853 11.421-9.415 14.738-5.307 3.85-19.786 6.843-19.786 6.843zm-20.093 164.563c.145 0-1.472-10.063-1.618-10.677-2.022-7.232-10.192-20.013-18.588-20.336a9.943 9.943 0 00-7.446 3.224 9.948 9.948 0 00-2.569 7.696c.372 5.921 5.468 11.163 10.144 14.253 5.468 3.64 20.061 5.84 20.077 5.84zm4.433-45.007c.162 0-2.977-9.707-3.236-10.322-3.106-6.843-13.12-18.232-21.468-17.278a9.956 9.956 0 00-6.865 4.318 9.952 9.952 0 00-1.37 7.994c1.262 5.791 7.102 10.208 12.182 12.554 5.986 2.766 20.741 2.734 20.757 2.734zm10.03-42.419c.146 0-2.977-9.707-3.236-10.305-3.09-6.843-13.104-18.233-21.452-17.278a9.936 9.936 0 00-6.868 4.307 9.955 9.955 0 00-1.383 7.988c1.278 5.808 7.103 10.208 12.199 12.57 5.969 2.751 20.724 2.718 20.74 2.718zm7.329-39.474c.161 0-2.977-9.707-3.236-10.322-3.106-6.827-13.104-18.216-21.468-17.262a9.936 9.936 0 00-6.864 4.308 9.928 9.928 0 00-1.371 7.987c1.262 5.808 7.102 10.209 12.198 12.555 5.97 2.766 20.741 2.734 20.741 2.734zm-2.006-36.45c.161 0-4.012-9.334-4.352-9.9-3.834-6.472-15.03-16.68-23.232-14.803a9.924 9.924 0 00-6.35 5.042 9.934 9.934 0 00-.477 8.094c1.893 5.614 8.17 9.367 13.492 11.131 6.245 2.087 20.919.436 20.919.436zm-8.834-32.258c.13 0 .728-10.144.696-10.791-.437-7.507-5.662-21.743-13.8-23.863a9.958 9.958 0 00-7.957 1.552 9.959 9.959 0 00-4.16 6.958c-.906 5.873 2.944 12.085 6.843 16.178 4.579 4.659 18.362 9.949 18.378 9.966z" fill="#333"/><path d="M632.755 538.736s-.534-4.287-1.181-11.729a517.48 517.48 0 01-1.731-30.883 456.685 456.685 0 01-.113-20.676c0-3.689.194-7.377.34-11.325.129-1.909.275-3.834.404-5.791.13-1.958.453-3.964.663-5.97a228.298 228.298 0 014.644-24.267c1.989-8.17 4.254-16.372 6.471-24.558 2.216-8.186 4.4-16.372 6.115-24.51a170.337 170.337 0 003.511-24.121c.416-7.596.156-15.213-.777-22.763a173.512 173.512 0 00-3.511-20.336c-1.423-6.196-3.09-11.793-4.61-16.728-1.521-4.934-3.09-9.173-4.384-12.651-2.638-6.957-4.433-10.807-4.433-10.807s1.876 3.818 4.659 10.71a253.669 253.669 0 014.675 12.57c1.683 4.902 3.43 10.484 4.983 16.68a176.382 176.382 0 014.061 20.222 130.068 130.068 0 011.294 23.038 175.425 175.425 0 01-3.025 24.493c-1.618 8.251-3.559 16.534-5.614 24.785-2.054 8.251-4.206 16.518-6.002 24.607a222.726 222.726 0 00-4.044 23.976c-.162 1.957-.453 3.818-.518 5.791-.065 1.974-.194 3.899-.291 5.808 0 3.689-.114 7.507-.081 11.115 0 7.264.242 14.123.566 20.449.599 12.667 1.618 23.199 2.378 30.544.761 7.345 1.408 11.486 1.408 11.486a2.951 2.951 0 01-5.841.858v-.017h-.016z" fill="#333"/><path d="M614.765 522.024h40.332v8.348h-3.511l-7.28 45.558h-18.734l-7.296-45.558h-3.511v-8.348zm-265.756 30.464s-1.391 8.202-.372 10.046c1.019 1.845 2.653 4.271 2.653 4.271h12.846l.695-3.963a18.445 18.445 0 006.374 4.578c3.414 1.213 6.714 0 10.71.307 3.382.259 11.325 0 11.325 0l-.227-4.287-23.183-10.386-8.299-6.471s-7.28 6.568-12.522 5.905zm-95.677 0s2.201 6.681 1.392 8.51c-.809 1.828-2.136 5.807-2.136 5.807h-12.829l-1.132-3.963a15.694 15.694 0 01-5.873 4.578c-3.236 1.214-6.73 0-10.678.308-3.348.258-11.324 0-11.324 0l-.227-4.288 22.051-10.386 8.752-4.853s6.827 4.95 12.004 4.287z" fill="#333" stroke="#333" stroke-linecap="round" stroke-linejoin="round"/><path d="M355.933 237.081s5.307 68.692 7.151 101.533c1.844 32.842 2.702 47.742 2.912 70.86.21 23.118 1.23 68.805 1.23 85.97a397.85 397.85 0 01-3.414 52.401l-15.515 8.267s-5.015-44.069-7.037-59.859c-1.828-14.285-8.51-72.413-11.535-90.387-3.025-17.973-16.809-80.469-16.809-80.469s-18.394 65.569-23.151 91.762c-4.756 26.192-22.649 85.258-26.483 99.624-3.834 14.366-9.95 35.672-9.95 35.672a16.17 16.17 0 01-6.649.518 6.14 6.14 0 01-4.853-3.09s4.514-43.001 6.374-63.903c2.313-25.885 3.041-60.247 5.856-74.629 2.815-14.383 2.718-41.934 5.986-60.425 1.861-10.5 11.325-110.949 11.325-110.949s52.481 21.242 84.562-2.896z" fill="#333" stroke="#333" stroke-linecap="round" stroke-linejoin="round"/><path d="M363.812 547.845l-12.085 9.804m-110.383-9.481l9.594 7.361m69.905-295.33l-.97 40.057 6.794-6.778m-10.062 30.754l19.3-24.008m5.355 1.747l-16.097 15.79m-20.045-14.026a54.425 54.425 0 00-24.186-25.724m48.728-28.651l-.922 4.692-7.506 1.747.857-5.84" stroke="#fff" stroke-width=".5" stroke-linecap="round" stroke-linejoin="round"/><path d="M321.232 255.799s-14.059-.582-21.194-2.928l1.505-4.676m-6.504-1.164l-1.423 5.84s-11.147-.583-12.943-2.33m48.065 3.462a24.813 24.813 0 0010.953-2.912l5.096-2.928-1.974-4.093" stroke="#fff" stroke-width=".5" stroke-linecap="round" stroke-linejoin="round"/><path d="M362.858 102.658s10.16 8.817 13.201 14.641c3.041 5.824 42.969 87.232 42.807 92.797-.162 5.566-6.067 16.178-16.485 16.178-10.419 0-49.91-63.45-49.91-63.45l10.387-60.166z" fill="#fff"/><path d="M364.103 112.429l.68.372a133.69 133.69 0 016.827 4.223 56.618 56.618 0 019.043 8.687s-3.656-9.706-9.011-14.349a74.116 74.116 0 01-8.283-8.348l.744 9.415z" fill="#FF8562" opacity=".5"/><path d="M362.858 102.658s10.16 8.817 13.201 14.641c3.041 5.824 42.969 87.232 42.807 92.797-.162 5.566-6.067 16.178-16.485 16.178-10.419 0-49.91-63.45-49.91-63.45l10.387-60.166z" stroke="#333" stroke-linecap="round" stroke-linejoin="round"/><path opacity=".5" d="M388.306 187.787c-1.343-1.618-11.325-17.683-12.344-23.685-1.019-6.002 1.618-13.686 1.618-17.699 0-4.012-6.342 7.005-6.682 5.679-.34-1.327-4.336-15.693-4.336-15.693l-12.246 15.838-1.828 10.629s15.466 24.834 29.605 43.422c10.063-3.235 25.254-8.17 28.522-10.143 5.064-2.993-20.967-6.666-22.309-8.348z" fill="#FF8562"/><path d="M314.081 91.657l48.841 11.001s3.398 25.027 3.01 38.552c-.389 13.525-10.451 97.165-10.451 97.165s-25.885 26.403-83.997 1.618c0 0-2.022-3.899-2.782-33.052-.728-28.748-22.342-82.135-20.611-88.218 3.559-12.474 46.301-24.462 51.915-24.801 4.736-.45 9.437-1.207 14.075-2.265z" fill="#fff" stroke="#333" stroke-linecap="round" stroke-linejoin="round"/><path d="M318.498 238.23l-44.733-17.537 7.733-84.967 50.88 23.814 30.496-13.719-21.808 88.672-22.568 3.737zm13.233-131.9c2.087 0 21.387 3.867 32.356 6.1-.631-5.727-1.181-9.707-1.181-9.707l-48.841-11.001a110.14 110.14 0 01-14.075 2.28c-5.614.34-48.356 12.328-51.915 24.802-.567 2.022 1.407 9.205 4.335 18.96 4.271-11.017 8.089-20.093 9.4-21.371 2.944-2.944 32.356-10.58 32.356-10.58l37.565.517z" fill="#FF8562" opacity=".5"/><path d="M327.347 116.636l-6.714 15.013 14.722 104.025-10.791 14.56-10.24-11.875 2.863-105.383-13.557-15.822 8.671-16.405 15.046 15.887z" fill="#333"/><path d="M379.359 150.253l-39.134 21.711-50.33-26.338-7.976 74.339 49.844 24.024 37.744-22.714 9.852-71.022z" fill="#FF8562" stroke="#333" stroke-linecap="round" stroke-linejoin="round"/><path d="M338.736 188.66l1.489-11.939m-8.462 67.268l6.148-48.777" stroke="#333" stroke-width=".5" stroke-linecap="round" stroke-linejoin="round"/><path d="M318.627 87.483s8.817 0 12.651 5.824c3.834 5.824 11.195 28.845 11.195 28.845l-26.532-7.458-16.081 16.615s-14.738-21.84-8.736-35.705c6.002-13.864 27.503-8.121 27.503-8.121z" fill="#fff" stroke="#333" stroke-linecap="round" stroke-linejoin="round"/><path d="M333.964 98.694a40.244 40.244 0 00-2.686-5.387c-3.834-5.905-12.651-5.824-12.651-5.824s-21.468-5.743-27.503 8.089c-1.941 4.481-1.617 9.804-.501 14.948 1.051-2.75 3.43-8.267 6.471-11.324 4.109-4.11 4.595-.534 4.595-.534l23.005-1.828a73.851 73.851 0 009.27 1.86z" fill="#FF8562" opacity=".5"/><path d="M322.413 74.087s1.488 30.609-2.379 36.644c-3.866 6.034-8.267 3.721-11.486 0-3.219-3.721-6.859-12.037-6.859-12.037l-3.932-22.65s22.908 4.223 24.656-1.957z" fill="#fff" stroke="#333" stroke-linecap="round" stroke-linejoin="round"/><path d="M314.113 98.694a16.942 16.942 0 008.478-5.597v-5.113c-3.77-4.32-12.425-12.473-22.067-9.852a33.21 33.21 0 00-2.346.744l3.494 19.818s3.657 8.38 6.86 12.037l-3.236-14.447a9.141 9.141 0 008.817 2.41z" fill="#FF8562" opacity=".5"/><path d="M335.905 46.245s4.433-.323 4.53 7.07c.097 7.393-4.255 13.606-7.248 11.034-2.993-2.573 1.893-21.469 2.718-18.104z" fill="#fff" stroke="#333" stroke-linecap="round" stroke-linejoin="round"/><path d="M305.474 7.968c-20.174 4.756-25.577 17.796-25.416 29.606 0 4.513 2.087 12.327 4.854 20.562l-.356-.744s-6.067-10.58-6.957-4.223c-.889 6.358 5.113 12.943 7.103 15.062a3.234 3.234 0 004.109.226c4.012 9.707 8.493 18.395 11.421 20.757 6.342 5.128 15.256 7.765 22.342 1.618 7.086-6.148 14.091-41.206 14.091-41.206 1.683-35.462-11.017-46.382-31.191-41.658z" fill="#fff"/><path d="M294.732 45.307s7.037-5.873 14.091-5.873c7.054 0 21.743 6.472 23.49 11.746 1.068 3.235-.194 13.67-1.375 21.597 3.398-11.163 5.792-23.102 5.792-23.102 1.618-35.446-11.098-46.398-31.256-41.642s-25.577 17.796-25.416 29.606c0 4.513 2.087 12.327 4.854 20.562l-.356-.744s-6.067-10.58-6.957-4.223c-.889 6.358 5.113 12.943 7.103 15.062a3.234 3.234 0 004.109.226c4.012 9.707 8.493 18.395 11.421 20.757 0 0-6.746-15.191-9.092-21.646-2.345-6.455-1.698-17.683 3.592-22.326z" fill="#FF8562" opacity=".5"/><path d="M305.474 7.968c-20.174 4.756-25.577 17.796-25.416 29.606 0 4.513 2.087 12.327 4.854 20.562l-.356-.744s-6.067-10.58-6.957-4.223c-.889 6.358 5.113 12.943 7.103 15.062a3.234 3.234 0 004.109.226c4.012 9.707 8.493 18.395 11.421 20.757 6.342 5.128 15.256 7.765 22.342 1.618 7.086-6.148 14.091-41.206 14.091-41.206 1.683-35.462-11.017-46.382-31.191-41.658zm23.717 51.98a6.955 6.955 0 01-9.545 2.006m-11.988.13a6.954 6.954 0 01-9.545 2.006" stroke="#333" stroke-linecap="round" stroke-linejoin="round"/><path d="M308.694 57.197a24.272 24.272 0 00-8.332-2.442c-3.851-.162-7.636 2.976-7.636 2.976m25.254 15.806a3.785 3.785 0 01-4.207 3.236 5.58 5.58 0 01-5.063-2.896" stroke="#333" stroke-linecap="round" stroke-linejoin="round"/><path d="M321.377 81.352s-9.448 2.814-15.514.372a11.61 11.61 0 007.571 5.678c3.591.955 7.943-6.05 7.943-6.05z" fill="#333"/><path d="M330.372 52.943s-3.543-.307-6.892-.275c-3.074 0-6.131 3.996-6.131 3.996l-1.084 4.853" stroke="#333" stroke-linecap="round" stroke-linejoin="round"/><path d="M301.219 35.487a125.076 125.076 0 0023.895 15.741c13.914 6.956 24.591-6.471 18.071-13.072-6.519-6.6 8.494 7.248 10.856-1.035S334.789.413 313.078.008c-21.711-.404-26.969 13.202-26.969 13.202s-2.556-7.005-4.481-3.139a16.171 16.171 0 00-1.877 6.811s-4.4 3.236-6.341 5.16c-1.942 1.926.55 3.964.55 3.964s-3.883 9.707-1.812 17.198l11.146 16.178a8.765 8.765 0 006.844-3.657c2.912-3.818.776-15.725.776-15.725s.178 12.813 3.592 9.998c3.413-2.814-1.618-15.336-1.618-15.336l8.331.825z" fill="#333"/><path d="M291.529 22.253s9.933 7.475 17.116 14.302 18.136 9.448 21.388 7.943m-7.814-12.845s-14.237-3.236-17.586-9.416c-3.349-6.18-13.719-5.452-13.719-5.452a20.56 20.56 0 0119.575-4.66M286.125 25.31s11.131 16.777 4.109 21.938" stroke="#fff" stroke-width=".5" stroke-miterlimit="10" stroke-linecap="round"/><path d="M248.091 118.739s-30.205 82.346-28.813 91.535c1.391 9.189 17.245 5.533 22.244 4.287 4.999-1.246 24.267-31.822 24.397-38.406a10.359 10.359 0 004.724-7.086c1.181-5.307 1.99-24.267-5.679-38.488" fill="#fff"/><path d="M248.091 118.739s-30.205 82.346-28.813 91.535c.776 5.031 5.888 6.196 11.162 6.034 3.689-10.402 5.129-29.411 7.895-38.827 3.058-10.532 13.024-37.792 19.09-52.125l-9.334-6.617z" fill="#FF8562" opacity=".5"/><path d="M248.091 118.739s-30.205 82.346-28.813 91.535c1.391 9.189 17.245 5.533 22.244 4.287 4.999-1.246 24.267-31.822 24.397-38.406a10.359 10.359 0 004.724-7.086c1.181-5.307 1.99-24.267-5.679-38.488" stroke="#333" stroke-linecap="round" stroke-linejoin="round"/><path d="M270.918 202.751s-38.827-2.362-43.81-2.766c-4.983-.405-10.953 6.471-6.261 15.984 4.692 9.512 12.15 10.062 21.306 8.331 9.157-1.731 29.38-14.075 29.38-14.075l-.615-7.474z" fill="#fff"/><path opacity=".5" d="M270.918 202.752s-38.827-2.362-43.81-2.767c-4.983-.404-10.953 6.471-6.261 15.984 4.692 9.513 12.15 10.063 21.306 8.332 9.157-1.731 29.38-14.075 29.38-14.075l-.615-7.474z" fill="#FF8562" stroke="#333" stroke-linecap="round" stroke-linejoin="round"/><path d="M270.918 202.751s-38.827-2.362-43.81-2.766c-4.983-.405-10.953 6.471-6.261 15.984 4.692 9.512 12.15 10.062 21.306 8.331 9.157-1.731 29.38-14.075 29.38-14.075l-.615-7.474z" stroke="#333" stroke-linecap="round" stroke-linejoin="round"/><path d="M277.114 193.287s5.015-5.322 6.342-5.209c1.326.113 11.066-.421 11.891 1.86.825 2.282-.486 1.278-1.828 2.039-1.343.76-8.009 1.618-8.009 1.618s5.744.469 7.475 1.488c1.731 1.019 9.059 7.782 9.027 9.108-.032 1.327-.922 1.618-2.702 1.618-1.779 0-.469 1.278-.954 2.556-.486 1.278-3.996 1.003-3.996 1.003s.307 4.433-2.346 4.207c-2.653-.227-7.409-3.689-7.409-3.689s-9.821 3.591-13.347 3.316a12.946 12.946 0 00-6.666 1.505 75.61 75.61 0 0112.522-21.42z" fill="#fff"/><path d="M277.114 193.287a75.592 75.592 0 00-12.522 21.274 12.946 12.946 0 016.666-1.505c1.159.02 2.317-.105 3.446-.372a51.843 51.843 0 001.245-9.415c0-4.708 7.507-15.192 7.507-15.192-1.343-.113-6.342 5.21-6.342 5.21z" fill="#FF8562" opacity=".5"/><path d="M277.114 193.287s5.015-5.322 6.342-5.209c1.326.113 11.066-.421 11.891 1.86.825 2.282-.486 1.278-1.828 2.039-1.343.76-8.009 1.618-8.009 1.618s5.744.469 7.475 1.488c1.731 1.019 9.059 7.782 9.027 9.108-.032 1.327-.922 1.618-2.702 1.618-1.779 0-.469 1.278-.954 2.556-.486 1.278-3.996 1.003-3.996 1.003s.307 4.433-2.346 4.207c-2.653-.227-7.409-3.689-7.409-3.689s-9.821 3.591-13.347 3.316a12.946 12.946 0 00-6.666 1.505 75.61 75.61 0 0112.522-21.42z" stroke="#333" stroke-linecap="round" stroke-linejoin="round"/><path d="M299.31 205.663l-8.655-6.875-7.053-1.019m10.742 11.454l-9.594-5.193-4.4-.793" stroke="#333" stroke-linecap="round" stroke-linejoin="round"/><path d="M383.436 186.735s-5.015-5.306-6.342-5.209c-1.326.097-11.065-.405-11.89 1.86-.826 2.265.485 1.278 1.828 2.055a44.498 44.498 0 008.008 1.537s-5.743.469-7.474 1.504c-1.731 1.036-9.06 7.782-9.028 9.092.033 1.311.922 1.618 2.702 1.618 1.78 0 .469 1.278.954 2.556.486 1.278 3.996.987 3.996.987s-.307 4.433 2.346 4.223c2.653-.211 7.41-3.689 7.41-3.689s9.82 3.592 13.347 3.236a12.784 12.784 0 016.665 1.52 75.557 75.557 0 00-12.522-21.29z" fill="#fff" stroke="#333" stroke-linecap="round" stroke-linejoin="round"/><path d="M361.24 199.111l8.639-6.859 7.053-1.02M366.19 202.67l9.594-5.177 4.4-.808m9.028-1.893s16.647-1.909 22.358 2.378c5.711 4.287 4.756 15.207 4.756 15.207" stroke="#333" stroke-linecap="round" stroke-linejoin="round"/><path d="M257.701 546.826s1.779-3.543 7.458-2.832c5.678.712 9.237 7.458 5.322 9.578-3.915 2.119-12.78-6.746-12.78-6.746z" fill="#FF8562" stroke="#333" stroke-linecap="round" stroke-linejoin="round"/><path d="M266.097 382.069s13.363 2.685 19.786 6.956c6.422 4.271 7.474 5.339 9.076 13.897 1.601 8.558-4.271 31.531-4.271 43.292 0 11.762-8.559 83.382-8.559 89.287 0 5.905 5.889 18.168 5.355 22.439a24.157 24.157 0 001.068 9.092s3.737 2.669-1.068 3.235c-4.805.567-5.355 1.068-9.626-1.067-4.271-2.136-6.471-12.829-10.159-16.033-3.689-3.203-5.873-6.94-5.873-9.626 0-2.685 8.542-12.813 8.542-12.813s-1.068-14.964-1.618-27.793c-.55-12.83-6.471-41.157-6.471-53.388 0-12.231 8.089-41.157 8.089-41.157s-20.756 2.54-28.845-2.799c-8.09-5.338 1.067-28.861 24.574-23.522z" fill="#fff" stroke="#333" stroke-linecap="round" stroke-linejoin="round"/><path d="M267.699 553.102s-9.707-8.331-9.998-6.212c-.291 2.119-.356 18.831.356 20.595.711 1.763 19.882 3.559 29.832 5.338 9.949 1.78 6.034-4.626 3.899-6.05-2.136-1.424-24.089-13.671-24.089-13.671z" fill="#FF8562" stroke="#333" stroke-linecap="round" stroke-linejoin="round"/><path opacity=".2" d="M267.699 553.102s-9.707-8.331-9.998-6.212c-.291 2.119-.356 18.831.356 20.595.711 1.763 19.882 3.559 29.832 5.338 9.949 1.78 6.034-4.626 3.899-6.05-2.136-1.424-24.089-13.671-24.089-13.671z" fill="#333"/><path d="M270.481 562.518a31.158 31.158 0 016.746-6.034 30.049 30.049 0 019.95-4.611l4.611 8.866a46.326 46.326 0 00-9.222 3.235 27.23 27.23 0 00-6.034 4.967s-5.339-3.575-6.051-6.423z" fill="#333" stroke="#333" stroke-linecap="round" stroke-linejoin="round"/><path d="M280.075 552.585a3.322 3.322 0 00-2.266 1.335 3.325 3.325 0 00-.582 2.564c.356 3.559.712 14.916 2.136 15.272 1.424.356 19.171 3.236 25.561 3.543 6.39.307 13.493.356 13.493-2.831s-1.068-4.611-2.476-4.611c-1.407 0-4.627-1.068-8.881-3.543-4.255-2.475-14.561-12.069-17.796-12.425-3.236-.356-7.41-2.507-9.189.696z" fill="#FF8562" stroke="#333" stroke-linecap="round" stroke-linejoin="round"/><path opacity=".2" d="M280.075 552.585a3.322 3.322 0 00-2.266 1.335 3.325 3.325 0 00-.582 2.564c.356 3.559.712 14.916 2.136 15.272 1.424.356 19.171 3.236 25.561 3.543 6.39.307 13.493.356 13.493-2.831s-1.068-4.611-2.476-4.611c-1.407 0-4.627-1.068-8.881-3.543-4.255-2.475-14.561-12.069-17.796-12.425-3.236-.356-7.41-2.507-9.189.696z" fill="#333"/><path d="M131.205 567.857a8.087 8.087 0 00-4.994-7.473 8.09 8.09 0 00-10.569 10.569 8.091 8.091 0 0013.193 2.624 8.09 8.09 0 002.37-5.72z" fill="#333" stroke="#333" stroke-linecap="round" stroke-linejoin="round"/><path d="M123.116 571.885a4.044 4.044 0 100-8.088 4.044 4.044 0 000 8.088z" fill="#fff" stroke="#333" stroke-linecap="round" stroke-linejoin="round"/><path d="M217.887 567.857a8.087 8.087 0 00-4.994-7.473 8.093 8.093 0 00-8.815 1.753 8.087 8.087 0 001.226 12.446 8.086 8.086 0 0010.213-1.006 8.09 8.09 0 002.37-5.72z" fill="#333" stroke="#333" stroke-linecap="round" stroke-linejoin="round"/><path d="M213.842 567.857a4.04 4.04 0 00-2.497-3.737 4.046 4.046 0 00-5.284 5.285 4.046 4.046 0 003.736 2.497 4.046 4.046 0 004.045-4.045z" fill="#fff" stroke="#333" stroke-linecap="round" stroke-linejoin="round"/><path d="M246.214 567.857a8.086 8.086 0 00-9.667-7.934 8.093 8.093 0 00-2.916 14.66 8.086 8.086 0 0010.214-1.006 8.09 8.09 0 002.369-5.72z" fill="#333" stroke="#333" stroke-linecap="round" stroke-linejoin="round"/><path d="M242.17 567.857a4.063 4.063 0 00-4.849-3.999 4.06 4.06 0 00.804 8.044 4.046 4.046 0 004.045-4.045z" fill="#fff" stroke="#333" stroke-linecap="round" stroke-linejoin="round"/><path d="M197.243 428.985h-17.116v129.602h17.116V428.985z" fill="#333" stroke="#333" stroke-linecap="round" stroke-linejoin="round"/><path d="M201.822 496.706h-26.241v61.881h26.241v-61.881z" fill="#333" stroke="#333" stroke-linecap="round" stroke-linejoin="round"/><path d="M121.449 556.144h120.899a6.47 6.47 0 016.471 6.471v.858H114.978v-.858c0-1.716.682-3.362 1.895-4.576a6.475 6.475 0 014.576-1.895zm49.764-177.279h-22.002v35.462h22.002v-35.462z" fill="#333" stroke="#333" stroke-linecap="round" stroke-linejoin="round"/><path d="M259.966 409.426H117.405c-6.549 0-11.859 5.309-11.859 11.858v3.187c0 6.549 5.31 11.859 11.859 11.859h142.561c6.549 0 11.858-5.31 11.858-11.859v-3.187c0-6.549-5.309-11.858-11.858-11.858z" fill="#FF8562" stroke="#333" stroke-linecap="round" stroke-linejoin="round"/><path opacity=".1" d="M259.966 409.426H117.405c-6.549 0-11.859 5.309-11.859 11.858v3.187c0 6.549 5.31 11.859 11.859 11.859h142.561c6.549 0 11.858-5.31 11.858-11.859v-3.187c0-6.549-5.309-11.858-11.858-11.858z" fill="#333"/><path d="M271.824 422.87a13.441 13.441 0 00-13.444-13.444h-73.351a13.463 13.463 0 00-12.857 8.193 13.46 13.46 0 0012.857 18.711h73.351a13.461 13.461 0 0013.444-13.46z" fill="#FF8562" stroke="#333" stroke-miterlimit="10"/><path opacity=".1" d="M271.824 423.29a13.437 13.437 0 00-8.299-12.42 13.436 13.436 0 00-5.145-1.024h-73.351a13.463 13.463 0 00-13.927 13.452 13.46 13.46 0 0013.927 13.452h73.351a13.438 13.438 0 0012.425-8.31 13.441 13.441 0 001.019-5.15z" fill="#333"/><path d="M203.553 378.882h-85.744a15.025 15.025 0 01-13.984-9.537 15.018 15.018 0 01-1.029-5.865l2.119-83.592a15 15 0 0115.014-14.641h70.746a14.998 14.998 0 0114.851 12.732l12.862 83.657a15.015 15.015 0 01-14.835 17.246z" fill="#FF8562" stroke="#333" stroke-linecap="round" stroke-linejoin="round"/><path opacity=".1" d="M203.553 378.882h-85.744a15.025 15.025 0 01-13.984-9.537 15.018 15.018 0 01-1.029-5.865l2.119-83.592a15 15 0 0115.014-14.641h70.746a14.998 14.998 0 0114.851 12.732l12.862 83.657a15.015 15.015 0 01-14.835 17.246z" fill="#333"/><path d="M175.549 432.042l-37.598 24.753" stroke="#333" stroke-linecap="round" stroke-linejoin="round"/><path d="M136.527 452.993l-6.471 4.352a4.157 4.157 0 00-.583 6.39l.551.518a4.126 4.126 0 005.516.242l5.921-4.853a4.138 4.138 0 00.34-6.067 4.122 4.122 0 00-5.274-.582zm44.894 103.151h37.096a6.471 6.471 0 016.472 6.471v.858h-43.568v-7.329z" fill="#333" stroke="#333" stroke-linecap="round" stroke-linejoin="round"/><path d="M211.124 335.8c7.318 0 13.25-3.376 13.25-7.539 0-4.164-5.932-7.539-13.25-7.539s-13.25 3.375-13.25 7.539c0 4.163 5.932 7.539 13.25 7.539zm36.87 54.293s21.371 1.068 26.192 12.295a51.27 51.27 0 011.618 11.761c0 5.873 19.769 119.184 20.303 121.336.534 2.151 12.296 18.701 13.897 22.439a133.543 133.543 0 003.236 6.956s4.853 2.136 4.287 3.737c-.566 1.602-11.761 2.136-16.566 2.136s-10.16-11.746-13.363-12.829c-3.204-1.084-6.957-4.854-6.957-6.941 0-2.087 1.618-17.634 1.618-17.634a158.39 158.39 0 00-10.678-36.886c-7.15-16.291-16.048-40.089-17.116-51.3-1.068-11.212-1.068-21.921-1.068-21.921l-13.492-2.152s-1.618-27.794 8.089-30.997z" fill="#fff" stroke="#333" stroke-linecap="round" stroke-linejoin="round"/><path d="M291.432 563.23s4.271-17.391 15.272-10.645l4.611 7.798s-10.29 0-13.493 9.949a10.19 10.19 0 01-6.39-7.102zm-87.669-205.59l-.518.081c-4.853-19.77-11.405-39.976-11.405-39.976s-32.146 8.493-50.686 2.734c0 0-9.432 46.447-9.432 58.581 0 9.706-2.006 19.575 5.339 25.27a9.439 9.439 0 006.18 3.996c20.045 3.769 54.585 2.459 60.344 3.607 5.759 1.149 36.32 9.157 36.32 9.157s1.828-16.857 7.005-27.794c5.177-10.936 28.813-9.076 28.813-9.076l-71.96-26.58z" fill="#333" stroke="#333" stroke-linecap="round" stroke-linejoin="round"/><path d="M196.337 228.119s-4.432-5.566-9.221.566c-4.789 6.131-.987 27.421 1.375 35.931 2.362 8.51 42.257 43.81 46.01 46.431 3.754 2.621 52.66 13.67 56.931 11.648 4.271-2.022 5.5-12.263 3.074-17.796-2.427-5.532-48.13-17.278-48.13-17.278l-50.039-59.502z" fill="#fff"/><path d="M234.501 311.079c3.754 2.605 52.66 13.671 56.931 11.649 2.459-1.165 3.899-5.08 4.222-9.238-7.555-3.041-16.517-5.096-20.675-4.853-6.035.339-1.99 5.969-11.665 4.384-9.674-1.586-20.707-6.471-30.738-12.198-10.03-5.727-28.036-22.65-28.036-22.65l14.123 1.618-16.097-4.966 13.994-5.258-12.02-.712a14.555 14.555 0 001.051-6.002c0-4.158-7.927-19.592-7.927-19.592l-8.413 23.119c5.873 10.548 41.707 42.224 45.25 44.699z" fill="#FF8562" opacity=".5"/><path d="M196.337 228.119s-4.432-5.566-9.221.566c-4.789 6.131-.987 27.421 1.375 35.931 2.362 8.51 42.257 43.81 46.01 46.431 3.754 2.621 52.66 13.67 56.931 11.648 4.271-2.022 5.5-12.263 3.074-17.796-2.427-5.532-48.13-17.278-48.13-17.278l-50.039-59.502z" stroke="#333" stroke-linecap="round" stroke-linejoin="round"/><path d="M212.046 272.818l-10.985 4.255 18.476 6.148" stroke="#333" stroke-width=".5" stroke-linecap="round" stroke-linejoin="round"/><path d="M291.545 304.851a7.146 7.146 0 00-5.614 5.808c-.954 5.063 4.029 9.383 4.029 9.383s10.499 3.608 13.638-4.853c3.138-8.462-6.973-10.662-12.053-10.338z" fill="#fff"/><path d="M289.96 320.042s8.962 3.058 12.796-3.106a68.598 68.598 0 00-16.744-6.617 2.802 2.802 0 00-.081.34c-.954 5.064 4.029 9.383 4.029 9.383z" fill="#FF8562" opacity=".5"/><path d="M291.545 304.851a7.146 7.146 0 00-5.614 5.808c-.954 5.063 4.029 9.383 4.029 9.383s10.499 3.608 13.638-4.853c3.138-8.462-6.973-10.662-12.053-10.338z" stroke="#333" stroke-linecap="round" stroke-linejoin="round"/><path d="M322.558 316.548a13.747 13.747 0 017.701 4.012c3.058 3.446.566 4.853-1.391 4.352-1.958-.502-8.397-10.015-6.31-8.364z" fill="#fff" stroke="#333" stroke-linecap="round" stroke-linejoin="round"/><path d="M320.52 315.917a13.718 13.718 0 017.07 5.047c2.556 3.818-.114 4.853-1.974 4.109-1.861-.744-6.94-11.082-5.096-9.156z" fill="#fff" stroke="#333" stroke-linecap="round" stroke-linejoin="round"/><path d="M302.206 308.378s-4.853 1.779-5.387 4.853a6.949 6.949 0 001.78 5.307s4.853 3.882 6.697 4.287c1.845.404 5.986 2.766 6.472.517.485-2.248-4.433-4.238-4.433-4.238s9.399.566 9.707 2.459c.307 1.893 3.704 3.85 6.713 3.899 3.01.048-.63-6.035-1.358-7.555-.728-1.521-14.172-9.416-20.191-9.529z" fill="#fff" stroke="#333" stroke-linecap="round" stroke-linejoin="round"/><path d="M148.143 213.025s-29.573 17.197-31.887 18.329c-2.313 1.133-4.61 18.929-4.61 20.611 0 1.683 29.573 68.514 29.573 68.514s7.28 6.164 28.586 6.164c21.307 0 22.957-3.236 22.957-3.236l1.699-28.198s7.28-19.058 7.846-22.423c.566-3.365-5.97-44.667-5.97-44.667l-30.252-20.174s-12.328-7.248-17.942 5.08z" fill="#fff"/><path d="M119.265 243.585C121.579 239.88 142.869 226 142.869 226l7.863-4.627 10.079-15.289c-4.045-.744-9.448-.129-12.668 6.941 0 0-29.638 17.197-31.887 18.313-2.249 1.117-4.61 18.929-4.61 20.611 0 .372 1.391 3.802 3.559 8.963.841-7.652 2.443-14.738 4.06-17.327z" fill="#FF8562" opacity=".5"/><path d="M148.143 213.025s-29.573 17.197-31.887 18.329c-2.313 1.133-4.61 18.929-4.61 20.611 0 1.683 29.573 68.514 29.573 68.514s7.28 6.164 28.586 6.164c21.307 0 22.957-3.236 22.957-3.236l1.699-28.198s7.28-19.058 7.846-22.423c.566-3.365-5.97-44.667-5.97-44.667l-30.252-20.174s-12.328-7.248-17.942 5.08z" stroke="#333" stroke-linecap="round" stroke-linejoin="round"/><path d="M158.06 239.702l8.623 9.302-1.796 39.556 12.619 3.332 1.327-17.278 4.643 17.942 9.302-9.303-20.109-34.912 2.653-10.629-11.292-12.619-7.296 17.278" fill="#333"/><path d="M158.06 239.702l8.623 9.302-1.796 39.556 12.619 3.332 1.327-17.278 4.643 17.942 9.302-9.303-20.109-34.912 2.653-10.629-11.292-12.619-7.296 17.278" stroke="#333" stroke-linecap="round" stroke-linejoin="round"/><path d="M142.367 213.122s1.845 12.311 4.304 17.795c2.459 5.485 8.008 14.787 8.008 14.787l11.697-11.713 11.712 8.089s-1.229-20.319-5.549-29.557c-4.319-9.238-25.253-18.491-30.172.599z" fill="#fff" stroke="#333" stroke-linecap="round" stroke-linejoin="round"/><path d="M150.731 221.373l11.697-17.796a19.653 19.653 0 00-6.746-1.618c-2.006.404-4.271.906-6.665 1.44-2.929 1.618-5.355 4.659-6.65 9.707 0 0 .923 6.212 2.346 11.793l6.018-3.526z" fill="#FF8562" opacity=".5"/><path d="M171.31 209.417a27.495 27.495 0 00-2.459 11.098c0 6.147 1.229 12.942 1.229 16.016v9.238s-7.393-9.238-12.942-16.017c-5.549-6.778-9.852-12.942-9.238-18.475.615-5.533 6.164-27.114 6.164-27.114a15.727 15.727 0 0114.172 8.623c4.918 9.237 3.074 16.631 3.074 16.631z" fill="#fff" stroke="#333" stroke-linecap="round" stroke-linejoin="round"/><path d="M152.123 198.707l-1.845.89c-1.132 4.853-2.135 9.496-2.378 11.68-.598 5.339 3.398 11.325 8.656 17.796l.663-12.732 14.091-6.876-11.325-11.179-7.862.421z" fill="#FF8562" opacity=".5"/><path d="M183.282 202.799s-4.077 7.556.323 7.863c4.401.307 3.446-3.462 4.077-4.708.631-1.246 3.462 1.618 1.893 7.539-1.569 5.921-9.432 10.063-14.156 5.339s-3.446-9.707-1.876-13.509c1.569-3.802 7.894-5.662 9.739-2.524z" fill="#333" stroke="#333" stroke-linecap="round" stroke-linejoin="round"/><path d="M174.448 136.017a50.435 50.435 0 00-4.303-.421c-5.419-.275-11.324.081-15.547 3.462-8.768 7.022-7.296 21.129-6.665 30.949.712 11.147.566 27.406 8.93 35.478 14.123 13.622 36.206-.954 36.206-17.1 0-6.827.259-17.229.712-19.559.59-2.878.995-5.79 1.214-8.72.97-14.868-7.458-22.229-20.547-24.089z" fill="#fff" stroke="#333" stroke-linecap="round" stroke-linejoin="round"/><path d="M179.658 208.397a94.67 94.67 0 01-11.81-.905c-6.002-.923-14.334-10.646-10.176-24.057 4.158-13.412 4.174-20.368 4.174-20.368l-14.156-8.85a101.271 101.271 0 00.259 15.79c.712 11.147.566 27.406 8.93 35.478 6.86 6.633 15.596 6.569 22.779 2.912z" fill="#FF8562" opacity=".5"/><path d="M171.634 179.05c.884 0 1.601-1.231 1.601-2.75s-.717-2.75-1.601-2.75c-.885 0-1.602 1.231-1.602 2.75s.717 2.75 1.602 2.75zm15.805-2.07c-.097 1.52-.906 2.701-1.779 2.637-.874-.065-1.521-1.327-1.424-2.848.097-1.52.89-2.701 1.78-2.637.89.065 1.521 1.327 1.423 2.848z" fill="#333"/><path d="M166.667 169.716s3.235-6.828 8.429-3.608l-8.429 3.608z" fill="#fff"/><path d="M166.667 169.716s3.235-6.828 8.429-3.608" stroke="#333" stroke-linecap="round" stroke-linejoin="round"/><path d="M183.524 167.306s3.835-4.401 6.019 2.815l-6.019-2.815z" fill="#fff"/><path d="M183.524 167.306s3.835-4.401 6.019 2.815" stroke="#333" stroke-linecap="round" stroke-linejoin="round"/><path d="M181.033 181.769v.792c.404 2.815 2.41 4.854 1.618 6.018-.793 1.165-4.854 1.618-4.854 1.618" fill="#fff"/><path d="M181.033 181.769v.792c.404 2.815 2.41 4.854 1.618 6.018-.793 1.165-4.854 1.618-4.854 1.618" stroke="#333" stroke-linecap="round" stroke-linejoin="round"/><path d="M176.293 196.62s-7.07 2.184-9.707-3.527l9.707 3.527z" fill="#fff"/><path d="M176.293 196.62s-7.07 2.184-9.707-3.527" stroke="#333" stroke-linecap="round" stroke-linejoin="round"/><path d="M170.258 183.03a8.316 8.316 0 100-16.631 8.316 8.316 0 000 16.631zm18.816 0c4.119 0 7.458-3.723 7.458-8.315 0-4.593-3.339-8.316-7.458-8.316s-7.459 3.723-7.459 8.316c0 4.592 3.34 8.315 7.459 8.315zm-27.131-8.315l-11.875.501m46.463-.501h-3.041m-14.932-2.54h3.446" stroke="#333" stroke-width=".5" stroke-linecap="round" stroke-linejoin="round"/><path d="M189.122 126.197a135.12 135.12 0 00-18.783-1.941s-11.017-5.194-25.885.647c-21.274 8.315-20.804 36.724-15.53 54.827 1.617 5.468 5.419 13.768 1.925 19.252-2.2 3.462-8.494 1.618-7.539-3.139.954-4.756 2.507-3.138 3.769-3.769 1.262-.631-.631-1.262-3.462-2.2-2.831-.939-5.306 1.617-5.662 7.846-.938 16.987 24.089 28.231 33.634 13.379 3.883-6.471.437-17.715-1.246-25.885a71.183 71.183 0 01-1.084-8.558 12.083 12.083 0 007.847-3.963 36.445 36.445 0 003.818-6.585c1.132 0 2.313.081 3.607.21 12.943 1.295 16.858-20.74 16.858-20.74s6.471 12.312 8.412 16.858l1.942 4.53s5.193.647 10.37-10.371c5.177-11.017-.68-28.408-12.991-30.398z" fill="#333" stroke="#333" stroke-linecap="round" stroke-linejoin="round"/><path d="M180.645 140.401s15.919 5.469 16.404 14.917c.486 9.447-1.99 9.933-1.99 9.933m-16.388-28.328s14.9-3.478 19.883 6.471m-38.277-16.42s14.9 7.458 17.391 14.43c2.491 6.973-10.435 20.369-18.896 22.86-8.461 2.491-14.9-.502-20.87 3.98-5.969 4.481-3.478 16.89-3.478 16.89" stroke="#fff" stroke-width=".5" stroke-miterlimit="10" stroke-linecap="round"/><path d="M129.894 171.221s-3.979-9.448 4.482-14.415c8.461-4.967 15.903 0 25.351-5.97 9.448-5.969 10.936-13.411 10.936-13.411" stroke="#fff" stroke-width=".5" stroke-miterlimit="10" stroke-linecap="round"/><path d="M151.783 179.795s-5.225-12.7-10.467-8.219c-5.242 4.482 3.737 16.437 9.707 14.949" fill="#fff"/><path d="M151.783 179.795s-5.225-12.7-10.467-8.219c-5.242 4.482 3.737 16.437 9.707 14.949" stroke="#333" stroke-linecap="round" stroke-linejoin="round"/><g opacity=".37"><path d="M151.783 179.795s-5.225-12.7-10.467-8.219c-5.242 4.482 3.737 16.437 9.707 14.949" fill="#FF8562"/><path d="M151.783 179.795s-5.225-12.7-10.467-8.219c-5.242 4.482 3.737 16.437 9.707 14.949" stroke="#333" stroke-linecap="round" stroke-linejoin="round"/></g><path d="M119.864 232.632s-2.54-1.909-8.186 2.346-10.904 23.604-7.377 31.806c3.526 8.202 12.942 50.848 17.326 53.177 4.384 2.33 51.527 2.136 57.092.825 5.566-1.31 9.448-8.59 8.51-14.883-.938-6.294-7.151-7.928-8.979-7.976-1.828-.049-39.377-2.184-39.377-2.184l-11.664-49.278" fill="#fff"/><path d="M180.208 310.222c-2.686-3.317-45.428 2.459-49.99 0-4.563-2.459-6.763-7.135-3.43-10.289 3.333-3.155-6.374-3.867-6.293-6.649.081-2.783 5.646-3.543 5.29-7.264-.356-3.721-12.376-4.498-12.085-15.143.291-10.645 2.961-23.523 5.371-27.163a22.798 22.798 0 014.562-4.012l-3.769-7.086s-2.54-1.909-8.186 2.346-10.904 23.62-7.377 31.822c3.526 8.202 12.942 50.847 17.326 53.177 4.384 2.33 51.527 2.136 57.092.825a11.818 11.818 0 007.669-7.684c-2.993-.858-5.387-1.909-6.18-2.88z" fill="#FF8562" opacity=".5"/><path d="M119.864 232.632s-2.54-1.909-8.186 2.346-10.904 23.604-7.377 31.806c3.526 8.202 12.942 50.848 17.326 53.177 4.384 2.33 51.527 2.136 57.092.825 5.566-1.31 9.448-8.59 8.51-14.883-.938-6.294-7.151-7.928-8.979-7.976-1.828-.049-39.377-2.184-39.377-2.184l-11.664-49.278" stroke="#333" stroke-linecap="round" stroke-linejoin="round"/><path d="M124.588 304.835c2.783-8.186 14.269-8.348 14.269-8.348a32.103 32.103 0 00-14.026-.502" stroke="#333" stroke-width=".5" stroke-linecap="round" stroke-linejoin="round"/><path d="M185.191 299.965a9.501 9.501 0 00-5.76 8.671c-.194 6.633 4.207 7.863 5.29 8.623 1.084.761 7.62 4.271 10.257 2.12 2.637-2.152 5.744-7.944 3.236-12.797-2.508-4.854-10.451-6.552-13.023-6.617z" fill="#fff"/><path d="M194.978 319.379a10.583 10.583 0 001.78-1.942l-5.501-2.928c-5.047-1.391-9.852-2.815-11.049-4.287a1.751 1.751 0 00-.76-.469c.307 5.662 4.238 6.794 5.274 7.506 1.035.712 7.619 4.271 10.256 2.12z" fill="#FF8562" opacity=".5"/><path d="M185.191 299.965a9.501 9.501 0 00-5.76 8.671c-.194 6.633 4.207 7.863 5.29 8.623 1.084.761 7.62 4.271 10.257 2.12 2.637-2.152 5.744-7.944 3.236-12.797-2.508-4.854-10.451-6.552-13.023-6.617z" stroke="#333" stroke-linecap="round" stroke-linejoin="round"/><path d="M194.299 305.902s-4.012 1.537-4.562 4.563c-.55 3.025-.356 4.659.339 4.853.696.194 3.009 1.246 3.009 1.246l7.135 3.704s5.662 6.472 7.523 6.989c1.86.518.259-.695 0-2.103a27.176 27.176 0 00-3.123-5.694l8.445 7.474s2.783 1.003 2.136-1.116c-.647-2.12-4.967-6.472-4.967-6.472l7.976 7.232s1.618.744 1.618-.194a2.768 2.768 0 00-.874-2.589c-.906-.728-6.342-6.956-6.342-6.956l7.572 4.643s1.617 2.151 2.75 2.184c1.132.032.485-.696-.372-3.236-.858-2.54-6.617-6.261-8.672-7.717-2.054-1.456-13.282-6.633-19.591-6.811z" fill="#fff" stroke="#333" stroke-linecap="round" stroke-linejoin="round"/><path d="M556.266 303.961h-63.192l11.374-36.886h63.191l-11.373 36.886z" fill="#333" stroke="#333" stroke-linecap="round" stroke-linejoin="round"/><path d="M551.299 307.439h-63.175l11.373-36.902h63.175l-11.373 36.902z" fill="#fff" stroke="#333" stroke-linecap="round" stroke-linejoin="round"/><path d="M460.508 292.831H564.63a9.707 9.707 0 019.707 9.707v27.146H460.508v-36.853z" fill="#333" stroke="#333" stroke-linecap="round" stroke-linejoin="round"/><path d="M555.7 292.831H441.823v36.902H555.7v-36.902z" fill="#fff" stroke="#333" stroke-linecap="round" stroke-linejoin="round"/><path d="M530.074 319.832h-90.969v4.87h90.969v-4.87z" fill="#fff" stroke="#333" stroke-linecap="round" stroke-linejoin="round"/><path d="M530.074 314.962h-71.556v4.87h71.556v-4.87z" fill="#333" stroke="#333" stroke-linecap="round" stroke-linejoin="round"/><path d="M439.477 326.141h-71.782v3.349h71.782v-3.349zm55.199-118.536H339.949v99.786h154.727v-99.786z" fill="#fff" stroke="#333" stroke-linecap="round" stroke-linejoin="round"/><path d="M494.676 207.605H348.395v99.786h146.281v-99.786z" fill="#333" stroke="#333" stroke-linecap="round" stroke-linejoin="round"/><path d="M441.143 253.971h-33.861v77.04h33.861v-77.04z" fill="#fff" stroke="#333" stroke-linecap="round" stroke-linejoin="round"/><path d="M444.265 253.971h-33.86v77.04h33.86v-77.04z" fill="#333" stroke="#333" stroke-linecap="round" stroke-linejoin="round"/><path d="M408.156 254.877h36.902v52.757" stroke="#fff" stroke-linejoin="round"/><path d="M338.882 324.345H235.229v5.42h103.653v-5.42z" fill="#fff" stroke="#333" stroke-linecap="round" stroke-linejoin="round"/><path d="M365.673 324.345H262.02v5.42h103.653v-5.42z" fill="#fff" stroke="#333" stroke-linecap="round" stroke-linejoin="round"/><path d="M231.233 338.696H72.413l-7.538 232.089a4.858 4.858 0 002.755 4.695 4.858 4.858 0 001.855.466 4.756 4.756 0 004.611-4.481L89.255 381.81a13.56 13.56 0 0113.104-12.781h98.929a13.545 13.545 0 0113.088 12.781l15.175 189.623a4.757 4.757 0 004.594 4.481 4.858 4.858 0 004.365-3.25 4.861 4.861 0 00.262-1.895l-7.539-232.073z" fill="#FF8562" stroke="#333" stroke-linecap="round" stroke-linejoin="round"/><path d="M231.589 349.373l-.356-10.677H72.413l-.355 10.677h159.531z" fill="#333" stroke="#333" stroke-linecap="round" stroke-linejoin="round"/><path d="M592.909 338.696H434.041l-7.523 232.089a4.863 4.863 0 001.23 3.536 4.852 4.852 0 003.381 1.609 4.755 4.755 0 004.594-4.481l15.208-189.639a13.56 13.56 0 0113.104-12.781h98.929a13.545 13.545 0 0113.088 12.781l15.175 189.623a4.754 4.754 0 004.594 4.513 4.861 4.861 0 003.381-1.608 4.861 4.861 0 001.23-3.536l-7.523-232.106z" fill="#FF8562" stroke="#333" stroke-linecap="round" stroke-linejoin="round"/><path d="M593.961 349.373l-.34-10.677H434.785l-.34 10.677h159.516z" fill="#333" stroke="#333" stroke-linecap="round" stroke-linejoin="round"/><path d="M603.376 329.733H59.536v12.23h543.84v-12.23z" fill="#fff" stroke="#333" stroke-linecap="round" stroke-linejoin="round"/><path d="M603.392 329.733H213.599v12.23h389.793v-12.23z" fill="#fff" stroke="#333" stroke-linecap="round" stroke-linejoin="round"/></svg>