<svg width="648" height="648" fill="none" xmlns="http://www.w3.org/2000/svg"><circle cx="323.522" cy="323.522" r="319.522" fill="#F3F5F9" stroke="#fff" stroke-width="8"/><path d="M522.47 365.542h-25.694v73.867h25.694v-73.867zm-70.387 50.342a18.298 18.298 0 003.09 15.951 18.312 18.312 0 0022.684 5.309 18.308 18.308 0 009.527-21.26h-35.301zm35.137-10.137h-34.985a3.34 3.34 0 00-3.341 3.341v3.454a3.34 3.34 0 003.341 3.341h34.985a3.34 3.34 0 003.341-3.341v-3.454a3.34 3.34 0 00-3.341-3.341zm55.889-15.154h-16.97v48.803h16.97v-48.803zm-259.096-42.487H128.575v87.319h155.438v-87.319z" stroke="#263238" stroke-linecap="round" stroke-linejoin="round"/><path d="M256.944 355.09H133.819v72.481h123.125V355.09zm9.897 35.907h-4.967v6.782h4.967v-6.782zm8.132 0h-4.968v6.782h4.968v-6.782zm-8.132 9.493h-4.967v6.783h4.967v-6.783zm8.132 0h-4.968v6.783h4.968v-6.783zm-8.132 9.493h-4.967v6.783h4.967v-6.783zm8.132 0h-4.968v6.783h4.968v-6.783z" stroke="#263238" stroke-linecap="round" stroke-linejoin="round"/><path d="M252.392 381.969h-4.072v20.336h4.072v-20.336zm23.034 53.318h-4.967v3.618h4.967v-3.618zm-133.753 0h-4.967v3.618h4.967v-3.618zm-46.244 4.11h459.153m-464.776 13.83H564m-53.582-324.328H137.74v166.129h372.678V128.899zM262.113 294.537V128.874m123.931 165.663V128.874" stroke="#263238" stroke-linecap="round" stroke-linejoin="round"/><path d="M258.949 202.375h-6.329v18.987h6.329v-18.987zm12.67 0h-6.329v18.987h6.329v-18.987zm110.795 0h-6.329v18.987h6.329v-18.987zm12.658 0h-6.329v18.987h6.329v-18.987z" fill="#263238"/><path opacity=".67" d="M232.46 379.284h-7.514v78.671h7.514v-78.671zm-11.296 73.766s-2.118-3.504-8.435-3.151c-6.316.353-4.223 4.916 0 5.269 2.95.051 5.86-.679 8.435-2.118zm-16.226 6.506s-2.446-1.059-5.648 1.538c-3.202 2.597-.353 4.199 2.005 2.774a10.73 10.73 0 003.643-4.312z" fill="#fff" stroke="#263238" stroke-linecap="round" stroke-linejoin="round"/><path d="M331.858 388.954a141.17 141.17 0 01-5.043 16.806c-2.522 6.076.366 14.296 1.437 15.368 1.072 1.072-4.652.719-5.724 5.043a52.418 52.418 0 00-1.071 10.376s-10.729 7.149-29.678 8.939-29.691.718-42.198 1.071c-12.506.353-15.734 1.438-19.667 4.3-3.934 2.862-22.896 25.379-19.315 27.534 3.58 2.156 10.376-.365 10.376-.365s-2.522 5.371 0 6.077c2.521.706 9.645-2.862 9.645-2.862s2.155 5.043 6.089 3.58a25.227 25.227 0 007.149-4.286s0 2.521 2.521 1.071c2.522-1.45 11.448-6.795 15.028-12.166a88.935 88.935 0 015.724-7.867 152.603 152.603 0 0044.341 7.161 172.79 172.79 0 0043.243-5.774l-11.8-84.748-11.057 10.742zm3.328 114.375s-.302-17.045.883-19.68c1.185-2.635 5.875-.882 14.688 1.753 8.812 2.635 12.922 10.287 46.421 6.467 33.498-3.82 49.068-11.75 52.598-8.22 3.53 3.53 9.103 44.656 9.103 44.656l-123.693-24.976z" fill="#263238" stroke="#263238" stroke-linecap="round" stroke-linejoin="round"/><path d="M382.288 299.895s-10.729 7.11-27.573 17.524c-16.843 10.414-15.028 9.292-16.805 20.386-1.778 11.095-7.868 48.981-7.868 60.428 0 11.448 7.868 38.264 5.359 50.783-2.509 12.52-5.043 29.678-2.144 34.684 2.9 5.005 30.031 17.877 53.633 17.877 23.601 0 60.44-6.077 65.798-12.872 5.359-6.796 5.043-11.801 5.371-21.093.328-9.291 3.215-21.105 11.435-53.292s21.105-98.338 15.381-107.63c-5.723-9.292-23.601-7.867-35.402-7.867-11.8 0-21.811-1.425-35.754-3.581-13.944-2.155-31.431 4.653-31.431 4.653z" fill="#FF8562"/><path opacity=".2" d="M484.358 305.958c-3.379-2.269-7.325-1.727-10.426-.315-7.136 3.24-18.18 31.393-18.18 31.393l-29.855 81.545s-7.779 32.452-18.167 53.217c-5.182 10.35-13.578 21.357-20.702 29.779 23.602 0 60.34-6.09 65.698-12.873 5.358-6.783 5.043-11.8 5.371-21.092.328-9.292 3.215-21.105 11.435-53.292s21.105-98.339 15.381-107.63a7.907 7.907 0 00-.555-.732z" fill="#000"/><path d="M382.288 299.895s-10.729 7.11-27.573 17.524c-16.843 10.414-15.028 9.292-16.805 20.386-1.778 11.095-7.868 48.981-7.868 60.428 0 11.448 7.868 38.264 5.359 50.783-2.509 12.52-5.043 29.678-2.144 34.684 2.9 5.005 30.031 17.877 53.633 17.877 23.601 0 60.44-6.077 65.798-12.872 5.359-6.796 5.043-11.801 5.371-21.093.328-9.291 3.215-21.105 11.435-53.292s21.105-98.338 15.381-107.63c-5.723-9.292-23.601-7.867-35.402-7.867-11.8 0-21.811-1.425-35.754-3.581-13.944-2.155-31.431 4.653-31.431 4.653z" stroke="#263238" stroke-linecap="round" stroke-linejoin="round"/><path d="M377.283 343.882s-16.264 42.991-16.264 56.091c0 13.099-1.513 48.829-1.513 66.454 0 17.625-5.043 24.66-2.017 29.199m55.549-113.127s7.867-38.264 13.944-56.495m-16.793 61.865s-4.653-27.9 3.215-47.568" stroke="#263238" stroke-linecap="round" stroke-linejoin="round"/><path d="M377.283 290.237s-6.442 11.801-14.309 29.325c-7.867 17.524-6.077 20.021-3.215 16.806s17.877-13.225 23.601-13.944c5.724-.719 18.596 23.954 20.374 21.433 1.777-2.522 15.381-24.32 15.028-43.269-.353-18.949-13.238-22.177-18.596-22.177-5.358 0-22.883 11.826-22.883 11.826z" fill="#263238" stroke="#263238" stroke-linecap="round" stroke-linejoin="round"/><path d="M371.56 282.371a79.04 79.04 0 015.723 29.678c-.365 15.734-1.084 31.834 0 31.834 1.085 0 29.678-52.574 29.678-57.579 0-5.005-5.043-26.097-3.58-37.192 1.462-11.094 5.724-13.225 3.58-21.811-2.143-8.586-13.59-5.358-21.105 7.565-7.514 12.922-15.015 34.998-14.296 47.505z" fill="#fff"/><path d="M404.616 243.035l-1.412-20.172a2.258 2.258 0 00-.416-.139l-9.897 3.593a32.189 32.189 0 00-7.035 8.536c-7.501 12.872-15.015 35.048-14.297 47.555a79.516 79.516 0 015.724 28.682c7.25-4.085 15.041-9.796 19.416-17.096a65.56 65.56 0 008.107-22.794c-1.148-7.564-2.182-16.201-1.425-22.051a42.997 42.997 0 011.235-6.114z" fill="#FF8562"/><path opacity=".5" d="M404.616 243.035l-1.412-20.172a2.258 2.258 0 00-.416-.139l-9.897 3.593a32.189 32.189 0 00-7.035 8.536c-7.501 12.872-15.015 35.048-14.297 47.555a79.516 79.516 0 015.724 28.682c7.25-4.085 15.041-9.796 19.416-17.096a65.56 65.56 0 008.107-22.794c-1.148-7.564-2.182-16.201-1.425-22.051a42.997 42.997 0 011.235-6.114z" fill="#fff"/><path d="M371.56 282.371a79.04 79.04 0 015.723 29.678c-.365 15.734-1.084 31.834 0 31.834 1.085 0 29.678-52.574 29.678-57.579 0-5.005-5.043-26.097-3.58-37.192 1.462-11.094 5.724-13.225 3.58-21.811-2.143-8.586-13.59-5.358-21.105 7.565-7.514 12.922-15.015 34.998-14.296 47.505z" stroke="#263238" stroke-linecap="round" stroke-linejoin="round"/><path d="M436.664 324.567s-27.888 64.008-32.187 71.523c-4.299 7.514-8.586 13.943-11.435 16.389a79.434 79.434 0 01-8.951 6.077s6.442 37.898 7.564 37.898c1.122 0 8.22-1.424 28.998-13.944 20.777-12.519 57.112-91.127 57.112-91.127" fill="#FF8562"/><path opacity=".2" d="M479.013 348.61l-23.26-11.511c-4.123 4.816-8.662 12.683-13.629 24.421-12.33 29.211-20.765 59.722-28.556 61.663-7.792 1.942-8.435 2.597-7.792 9.09.643 6.493 0 3.24-5.181-3.895-5.182-7.136-8.447-9.091-9.09 3.24a61.454 61.454 0 01-2.824 12.695c1.26 6.796 2.521 12.268 2.899 12.268 1.072 0 8.22-1.425 28.998-13.944 14.713-8.826 37.368-51.099 49.27-74.851.857-3.341 8.296-11.612 9.165-19.176z" fill="#000"/><path d="M436.664 324.567s-27.888 64.008-32.187 71.523c-4.299 7.514-8.586 13.943-11.435 16.389a79.434 79.434 0 01-8.951 6.077s6.442 37.898 7.564 37.898c1.122 0 8.22-1.424 28.998-13.944 20.777-12.519 57.112-91.127 57.112-91.127" stroke="#263238" stroke-linecap="round" stroke-linejoin="round"/><path d="M116.396 493.092H301.36l212.55 44.454" fill="#fff"/><path d="M116.396 493.092H301.36l212.55 44.454" stroke="#263238" stroke-linecap="round" stroke-linejoin="round"/><path d="M270.888 526.968c49.277 0 89.223-6.406 89.223-14.309s-39.946-14.31-89.223-14.31-89.223 6.407-89.223 14.31c0 7.903 39.946 14.309 89.223 14.309z" fill="#FF8562" stroke="#263238" stroke-linecap="round" stroke-linejoin="round"/><path d="M270.888 523.035c41.882 0 75.835-5.041 75.835-11.259s-33.953-11.258-75.835-11.258c-41.882 0-75.834 5.04-75.834 11.258 0 6.218 33.952 11.259 75.834 11.259z" fill="#707070" stroke="#263238" stroke-linecap="round" stroke-linejoin="round"/><path opacity=".67" d="M235.31 470.827c-20.387-2.143-30.032-1.071-30.032-1.071s-1.79 6.429-.365 9.291c1.424 2.862 6.795 3.934 6.795 6.077s-2.521 4.652.719 6.796c3.24 2.143 12.154 3.58 12.519 6.089.265 1.891.126 15.961 0 22.618 4.009.454 15.495 1.677 23.538 1.954-.781-5.661-2.37-19.088-.693-24.938 2.143-7.501 8.22-5.043 9.657-10.01 1.438-4.967-.365-6.077 1.425-7.564 1.79-1.488 9.657-5.359 10.729-8.221a16.993 16.993 0 001.072-5.358 77.458 77.458 0 01-35.364 4.337z" fill="#fff" stroke="#263238" stroke-linecap="round" stroke-linejoin="round"/><path d="M370.122 421.116s-76.906 16.1-82.957 16.453c-6.052.353-23.602-1.425-31.519-3.581-7.918-2.156-8.939 1.438-11.801 3.228-2.862 1.79-16.087 7.564-17.877 11.435-1.791 3.87-3.228 7.867-3.934 8.939-.706 1.071-10.376 5.043-14.662 6.795-4.287 1.753-5.043 4.299-2.144 5.371 1.478.607 3.046.969 4.64 1.072a16.586 16.586 0 008.233 3.214c2.84.412 5.703.652 8.573.719 0 0 10.376 5.724 18.596 3.215 8.22-2.509 19.668-6.43 24.673-10.01 5.005-3.581 11.094-7.867 12.166-7.867 1.072 0 40.054.718 64.727-.353 24.673-1.072 34.355-2.156 34.355-2.156s-2.155-27.17-3.933-33.965c-1.778-6.795-7.136-2.509-7.136-2.509z" fill="#fff"/><path d="M351.059 446.003c-17.31 6.417-73.124 8.334-81.47 11.549-6.972 2.672-20.701 12.065-41.869 17.65 2.773 1.324 10.905 4.753 17.65 2.711 8.233-2.522 19.668-6.43 24.673-10.011 5.005-3.58 11.095-7.867 12.166-7.867 1.072 0 40.054.719 64.727-.353 24.673-1.071 34.255-2.093 34.255-2.093s-.265-3.29-.681-7.854l-7.022-15.28s-5.106 5.131-22.429 11.548z" fill="#FF8562"/><path opacity=".5" d="M351.059 446.003c-17.31 6.417-73.124 8.334-81.47 11.549-6.972 2.672-20.701 12.065-41.869 17.65 2.773 1.324 10.905 4.753 17.65 2.711 8.233-2.522 19.668-6.43 24.673-10.011 5.005-3.58 11.095-7.867 12.166-7.867 1.072 0 40.054.719 64.727-.353 24.673-1.071 34.255-2.093 34.255-2.093s-.265-3.29-.681-7.854l-7.022-15.28s-5.106 5.131-22.429 11.548z" fill="#fff"/><path d="M370.122 421.116s-76.906 16.1-82.957 16.453c-6.052.353-23.602-1.425-31.519-3.581-7.918-2.156-8.939 1.438-11.801 3.228-2.862 1.79-16.087 7.564-17.877 11.435-1.791 3.87-3.228 7.867-3.934 8.939-.706 1.071-10.376 5.043-14.662 6.795-4.287 1.753-5.043 4.299-2.144 5.371 1.478.607 3.046.969 4.64 1.072a16.586 16.586 0 008.233 3.214c2.84.412 5.703.652 8.573.719 0 0 10.376 5.724 18.596 3.215 8.22-2.509 19.668-6.43 24.673-10.01 5.005-3.581 11.094-7.867 12.166-7.867 1.072 0 40.054.718 64.727-.353 24.673-1.072 34.355-2.156 34.355-2.156s-2.155-27.17-3.933-33.965c-1.778-6.795-7.136-2.509-7.136-2.509z" stroke="#263238" stroke-linecap="round" stroke-linejoin="round"/><path d="M222.084 457.589s16.088-8.22 26.098-15.368l-26.098 15.368z" fill="#fff"/><path d="M222.084 457.589s16.088-8.22 26.098-15.368" stroke="#263238" stroke-linecap="round" stroke-linejoin="round"/><path d="M209.918 470.827s18.596 1.072 30.044-7.149l-30.044 7.149z" fill="#fff"/><path d="M209.918 470.827s18.596 1.072 30.044-7.149" stroke="#263238" stroke-linecap="round" stroke-linejoin="round"/><path d="M226.724 474.761s12.166-.719 20.386-4.287l-20.386 4.287z" fill="#fff"/><path d="M226.724 474.761s12.166-.719 20.386-4.287" stroke="#263238" stroke-linecap="round" stroke-linejoin="round"/><path d="M393.017 412.543s7.148 36.108 6.783 41.831c-.366 5.724 1.79 3.934-10.011 5.724-11.8 1.791-15.368.719-16.087-3.58-.719-4.299-1.072-18.596-3.933-26.476-2.862-7.88-2.862-10.363-1.072-11.801 1.79-1.437 18.596-5.711 20.021-6.076 1.424-.366 2.143-2.131 4.299.378z" fill="#263238" stroke="#263238" stroke-linecap="round" stroke-linejoin="round"/><path d="M419.657 248.897s-.643 19.466 24.988 23.047m-26.892-29.855s-.656 18.811 5.522 30.826" stroke="#263238" stroke-linecap="round" stroke-linejoin="round"/><path d="M438.316 258.958c15.862 0 28.72-14.891 28.72-33.259 0-18.368-12.858-33.259-28.72-33.259-15.861 0-28.72 14.891-28.72 33.259 0 18.368 12.859 33.259 28.72 33.259z" fill="#263238" stroke="#263238" stroke-linecap="round" stroke-linejoin="round"/><path d="M326.98 221.274s-6.077-.718-13.944-13.591c-7.867-12.872 7.867-32.54 22.529-40.407 14.663-7.867 42.198-12.153 60.794-3.58 18.596 8.573 41.479 29.69 43.269 54.716 1.79 25.026-11.095 34.684-23.601 38.264-12.507 3.581-17.828-3.883-19.618-6.405-1.79-2.521-15.381-13.578-26.829-25.744-11.447-12.166-16.087-21.433-24.672-19.302-8.586 2.131-17.928 16.049-17.928 16.049z" fill="#263238" stroke="#263238" stroke-linecap="round" stroke-linejoin="round"/><path d="M430.222 212.209s-2.862 9.544-20.034 3.782c-17.171-5.761-27.673-16.692-41.516-31.002-13.843-14.309-24.333-8.598-24.333-8.598s15.747-11.851 29.111-11.851 28.619 10.981 37.684 20.046m21.471 15.697s13.868 29.098-5.724 50.568m-92.085-57.73s-20.26.668-20.992 7.628c-.731 6.959 9.544 9.064 9.544 9.064" stroke="#fff" stroke-linecap="round" stroke-linejoin="round"/><path d="M341.339 192.34s-17.878 17.172-17.172 26.476c.706 9.304 7.565 27.535 7.161 31.519-.403 3.984-3.58 5.043 1.425 13.944s24.32 31.519 35.402 29.325c11.082-2.194 31.821-18.911 33.259-26.476a99.016 99.016 0 001.071-17.877s6.077-3.215 7.502-9.292c1.424-6.077.718-8.233.718-8.233s-19.667 3.228-30.749-4.286c-11.082-7.514-22.53-19.668-28.607-26.476-6.077-6.808-10.01-8.624-10.01-8.624z" fill="#fff"/><path d="M379.93 227.389a127.535 127.535 0 01-16.389-13.654 98.234 98.234 0 0010.086 12.872c7.564 7.565 11.762 16.604 8.989 29.741-2.774 13.137 0 26.287-4.842 31.128l-4.147 4.224c11.346-5.043 26.564-18.218 27.736-24.623a99.108 99.108 0 001.072-17.877s6.077-3.215 7.564-9.292c1.488-6.077.706-8.233.706-8.233s-19.667 3.228-30.775-4.286z" fill="#FF8562"/><path opacity=".5" d="M379.93 227.389a127.535 127.535 0 01-16.389-13.654 98.234 98.234 0 0010.086 12.872c7.564 7.565 11.762 16.604 8.989 29.741-2.774 13.137 0 26.287-4.842 31.128l-4.147 4.224c11.346-5.043 26.564-18.218 27.736-24.623a99.108 99.108 0 001.072-17.877s6.077-3.215 7.564-9.292c1.488-6.077.706-8.233.706-8.233s-19.667 3.228-30.775-4.286z" fill="#fff"/><path d="M341.339 192.34s-17.878 17.172-17.172 26.476c.706 9.304 7.565 27.535 7.161 31.519-.403 3.984-3.58 5.043 1.425 13.944s24.32 31.519 35.402 29.325c11.082-2.194 31.821-18.911 33.259-26.476a99.016 99.016 0 001.071-17.877s6.077-3.215 7.502-9.292c1.424-6.077.718-8.233.718-8.233s-19.667 3.228-30.749-4.286c-11.082-7.514-22.53-19.668-28.607-26.476-6.077-6.808-10.01-8.624-10.01-8.624zm7.223 76.691s8.284 1.739 15.243-6.972" stroke="#263238" stroke-linecap="round" stroke-linejoin="round"/><path d="M346.697 245.229s-1.071 6.076-1.79 9.304c-.718 3.227 2.522 4.286 4.652 4.286a15.487 15.487 0 004.287-.718m5.723-27.497v6.089" stroke="#263238" stroke-linecap="round" stroke-linejoin="round"/><path d="M357.426 238.118s7.149 1.79 13.238-2.143" stroke="#263238" stroke-width="2" stroke-linecap="round" stroke-linejoin="round"/><path d="M336.068 237.399v4.98" stroke="#263238" stroke-linecap="round" stroke-linejoin="round"/><path d="M334.304 243.551c3.706.795 7.575.17 10.842-1.752" stroke="#263238" stroke-width="2" stroke-linecap="round" stroke-linejoin="round"/><path d="M331.329 233.882s.353-11.095 10.716-7.867m8.586-1.488s4.652-10.01 17.877-1.424" stroke="#263238" stroke-linecap="round" stroke-linejoin="round"/><path d="M360.641 240.261s3.581 1.437 8.939-1.425m-33.612 6.796s3.58 1.424 8.938-1.438" stroke="#263238" stroke-width="2" stroke-linecap="round" stroke-linejoin="round"/><path d="M348.109 184.939c-13.44 39.84 28.796 32.149 28.796 32.149s-20.639 7.211-30.725-2.875c-10.086-10.086-6.304-27.143-6.304-27.143s5.409-8.737 13.516-8.737" fill="#263238"/><path d="M348.109 184.939c-13.44 39.84 28.796 32.149 28.796 32.149s-20.639 7.211-30.725-2.875c-10.086-10.086-6.304-27.143-6.304-27.143s5.409-8.737 13.516-8.737" stroke="#263238" stroke-linecap="round" stroke-linejoin="round"/><path d="M153.285 465.28h-9.733v-80.902c0-24.699 19.529-45.388 44.227-45.854a45.17 45.17 0 0145.904 43.962 1.13 1.13 0 01-1.122 1.135h-7.564a1.108 1.108 0 01-1.11-1.084 35.386 35.386 0 00-36.196-34.267c-19.302.454-34.507 16.705-34.507 36.007l.101 81.003z" fill="#707070" stroke="#263238" stroke-linecap="round" stroke-linejoin="round"/><path d="M150.802 461.624h-3.782v-77.915a42.007 42.007 0 0184.003 0h-3.782a38.252 38.252 0 00-76.502 0l.063 77.915z" fill="#263238"/><path d="M148.154 460.817h-1.261v-80.688a40.092 40.092 0 0140.054-40.042h4.198a40.092 40.092 0 0140.017 40.117v2.787h-1.261v-2.787a38.832 38.832 0 00-38.793-38.793h-4.199a38.843 38.843 0 00-38.806 38.793l.051 80.613z" fill="#fff"/><path d="M182.03 471.18h-19.314v-9.657h-23.602v59.721h23.602v-27.887h19.314V471.18z" fill="#707070" stroke="#263238" stroke-linecap="round" stroke-linejoin="round"/><path d="M185.359 463.906h-7.01a3.303 3.303 0 00-3.303 3.303v30.472a3.303 3.303 0 003.303 3.303h7.01a3.303 3.303 0 003.303-3.303v-30.472a3.303 3.303 0 00-3.303-3.303z" fill="#707070" stroke="#263238" stroke-linecap="round" stroke-linejoin="round"/><path d="M453.533 450.441h-9.292v13.515h9.292v-13.515z" fill="#fff" stroke="#263238" stroke-linecap="round" stroke-linejoin="round"/><path d="M456.824 455.736h-15.861v13.516h15.861v-13.516z" fill="#fff" stroke="#263238" stroke-linecap="round" stroke-linejoin="round"/><path d="M462.585 467.487h-27.384a9.228 9.228 0 00-9.228 9.228v57.049a9.228 9.228 0 009.228 9.229h27.384a9.229 9.229 0 009.229-9.229v-57.049a9.229 9.229 0 00-9.229-9.228z" fill="#fff" stroke="#263238" stroke-linecap="round" stroke-linejoin="round"/><path d="M457.114 448.386h-32.313v9.405" stroke="#263238" stroke-width="4" stroke-linecap="round" stroke-linejoin="round"/><path d="M459.383 481.405h-30.498v42.185h30.498v-42.185z" fill="#fff" stroke="#263238" stroke-linecap="round" stroke-linejoin="round"/><path d="M246.049 63.744c.299-.92 1.603-.92 1.902 0l2.417 7.438a1 1 0 00.951.691h7.82c.969 0 1.372 1.24.588 1.81l-6.327 4.596a1 1 0 00-.363 1.118l2.417 7.438c.299.92-.756 1.687-1.539 1.118l-6.327-4.597a1 1 0 00-1.176 0l-6.327 4.597c-.783.569-1.838-.197-1.539-1.118l2.417-7.438a1 1 0 00-.363-1.118l-6.327-4.597c-.784-.57-.381-1.809.588-1.809h7.82a1 1 0 00.951-.69l2.417-7.439zm38 0c.299-.92 1.603-.92 1.902 0l2.417 7.438a1 1 0 00.951.691h7.82c.969 0 1.372 1.24.588 1.81l-6.327 4.596a1 1 0 00-.363 1.118l2.417 7.438c.299.92-.756 1.687-1.539 1.118l-6.327-4.597a1 1 0 00-1.176 0l-6.327 4.597c-.783.569-1.838-.197-1.539-1.118l2.417-7.438a1 1 0 00-.363-1.118l-6.327-4.597c-.784-.57-.381-1.809.588-1.809h7.82a1 1 0 00.951-.69l2.417-7.439zm38 0c.299-.92 1.603-.92 1.902 0l2.417 7.438a1 1 0 00.951.691h7.82c.969 0 1.372 1.24.588 1.81l-6.327 4.596a1 1 0 00-.363 1.118l2.417 7.438c.299.92-.756 1.687-1.539 1.118l-6.327-4.597a1 1 0 00-1.176 0l-6.327 4.597c-.783.569-1.838-.197-1.539-1.118l2.417-7.438a1 1 0 00-.363-1.118l-6.327-4.597c-.784-.57-.381-1.809.588-1.809h7.82a1 1 0 00.951-.69l2.417-7.439zm38 0c.299-.92 1.603-.92 1.902 0l2.417 7.438a1 1 0 00.951.691h7.82c.969 0 1.372 1.24.588 1.81l-6.327 4.596a1 1 0 00-.363 1.118l2.417 7.438c.299.92-.756 1.687-1.539 1.118l-6.327-4.597a1 1 0 00-1.176 0l-6.327 4.597c-.783.569-1.838-.197-1.539-1.118l2.417-7.438a1 1 0 00-.363-1.118l-6.327-4.597c-.784-.57-.381-1.809.588-1.809h7.82a1 1 0 00.951-.69l2.417-7.439zm38 0c.299-.92 1.603-.92 1.902 0l2.417 7.438a1 1 0 00.951.691h7.82c.969 0 1.372 1.24.588 1.81l-6.327 4.596a1 1 0 00-.363 1.118l2.417 7.438c.299.92-.756 1.687-1.539 1.118l-6.327-4.597a1 1 0 00-1.176 0l-6.327 4.597c-.783.569-1.838-.197-1.539-1.118l2.417-7.438a1 1 0 00-.363-1.118l-6.327-4.597c-.784-.57-.381-1.809.588-1.809h7.82a1 1 0 00.951-.69l2.417-7.439z" fill="#FF8562"/></svg>