<svg width="33" height="33" fill="none" xmlns="http://www.w3.org/2000/svg"><path d="M21.755 10.546a5.971 5.971 0 015.972 5.971v5.048c0 .51-.414.924-.924.924h-1.121a.471.471 0 000 .943h2.534c.244 0 .453-.21.453-.454v-12.17c0-.472-.02-1.147-.489-1.205H12.347a.472.472 0 000 .943h9.408z" fill="#373737"/><path d="M25.492 21.685c0-.349.14-.698.384-.977a1.37 1.37 0 01.978-.384c.244 0 .454-.21.454-.455V13.8c0-.44-.013-1.123-.454-1.123a1.326 1.326 0 01-1.328-1.327c0-.245-.21-.454-.454-.49H13.64a.471.471 0 100 .944h9.581c.835 0 1.869.826 2.537 1.326.503.376.572.771.572 1.4v3.558c0 .78-.6 1.405-1.152 1.957a2.29 2.29 0 00-.531.827.479.479 0 01-.437.325.427.427 0 00-.296.734l.08.077a.471.471 0 00.327.132h.753c.244 0 .419-.21.419-.454z" fill="#373737"/><path d="M16.517 12.187c-.541 0-1.048.104-1.52.288-.294.114-.343.492-.114.709a.522.522 0 00.538.097c.344-.124.72-.186 1.096-.186a3.428 3.428 0 013.422 3.422c0 .346-.04.671-.137.992a.512.512 0 00.124.52c.23.22.606.148.703-.154.138-.43.218-.885.218-1.357 0-2.41-1.92-4.33-4.33-4.33z" fill="#373737"/><path d="M28.18 4.854C25.074 1.746 20.918 0 16.518 0c-2.304 0-4.54.454-6.634 1.397-2.013.867-3.785 2.149-5.315 3.707-.018.019-.045.029-.063.047-.019.018-.048.025-.062.047l-.002.001c-.013.022-.016.05-.033.068C1.561 8.371 0 12.34 0 16.517c0 4.4 1.711 8.556 4.82 11.664A16.404 16.404 0 0016.482 33c4.4 0 8.555-1.711 11.663-4.82l.041-.04c.019-.019.046-.028.064-.046.018-.019.045-.028.063-.046l.007-.007C31.359 24.933 33 20.848 33 16.517c.035-4.4-1.711-8.555-4.82-11.663zM16.518.943c8.591 0 15.575 6.984 15.575 15.574 0 3.737-1.327 7.159-3.492 9.848-.07.07-.14.175-.21.244-.232.291-.685.301-.953.043l-3.342-3.22-.943-.908-.384-.35-.943-.907-1.99-1.956-.664-.629-4.923-4.75-.664-.627-1.571-1.502-.943-.908-.384-.35-.943-.907-3.764-3.64a.68.68 0 01-.008-.97c.07-.07.175-.14.245-.21C9.044 2.305 12.676.943 16.517.943zm3.842 21.58a.035.035 0 00-.035-.034H11.28a5.971 5.971 0 01-5.97-5.972v-2.974a2.997 2.997 0 012.996-2.997h1.09a.175.175 0 110 .35H7.963c-.244 0-.454.209-.454.418 0 .314-.14.629-.384.873-.244.245-.594.35-.943.35a.462.462 0 00-.454.454v6.28c0 .44.013 1.123.454 1.123.35 0 .664.14.943.384.245.244.384.594.384.943 0 .244.21.454.454.489h13.412a.175.175 0 010 .349h-.98a.035.035 0 01-.035-.035zm-2.343-3.683c.253.242.21.647-.102.803a.881.881 0 01-.07.03c-.094.038-.19.096-.314.127-.314.104-.663.14-1.013.14a3.428 3.428 0 01-3.422-3.423c0-.314.035-.628.105-.908.035-.104.07-.244.105-.349.114-.342.562-.391.823-.142l3.888 3.722zm-5.445-4.244c-.034.105-.104.21-.14.315a3.83 3.83 0 00-.279 1.885c.14 2.166 1.851 3.912 4.016 4.051.734.035 1.432-.07 2.06-.349.088-.03.176-.083.264-.12.033-.014.067-.027.098-.044a3.15 3.15 0 00.16-.09c.232-.14.532-.131.728.054a.54.54 0 01-.372.934h-9.51c-.742 0-1.355-.593-1.88-1.118-.524-.525-1.117-1.138-1.117-1.88v-3.4c0-.741.593-1.354 1.118-1.879.524-.525 1.137-1.117 1.88-1.117h.296c.485 0 .952.189 1.3.526l1.497 1.45a.389.389 0 01.048.487 3.442 3.442 0 00-.168.295zm3.912 17.46c-8.59 0-15.575-6.983-15.575-15.574 0-3.492 1.152-6.81 3.248-9.533.07-.07.14-.175.21-.245.24-.3.675-.31.953-.043l.519.498c.922.886.295 2.444-.984 2.444a.462.462 0 00-.454.454v12.85c0 .245.21.455.454.455h16.061c1.144 0 2.244.443 3.069 1.235l2.773 2.667c.264.254.251.657-.008.917-.07.07-.174.14-.244.21-2.724 2.27-6.216 3.666-10.022 3.666z" fill="#373737"/></svg>