<svg width="1920" height="922" fill="none" xmlns="http://www.w3.org/2000/svg"><path fill="#F3F5F9" d="M0 .229L1919.997 0v873.74L0 873.967z"/><path d="M86.782 284.136C55.189 302.377 24.586 315.28.685 321.424c-11.965 3.076-22.137 4.428-29.865 3.968-7.824-.465-12.572-2.736-14.605-6.258-.997-1.726-1.124-3.327-.56-4.995.6-1.771 2.032-3.753 4.45-5.971 4.844-4.443 12.99-9.254 23.671-14.767 6.842-3.532 14.686-7.332 23.24-11.476 17.916-8.679 38.951-18.87 60.434-31.273 31.593-18.24 62.196-31.144 86.097-37.288 11.965-3.075 22.137-4.427 29.865-3.968 7.824.465 12.572 2.737 14.606 6.259.996 1.726 1.123 3.327.559 4.995-.6 1.771-2.031 3.753-4.45 5.971-4.844 4.443-12.99 9.254-23.671 14.767-6.842 3.532-14.685 7.331-23.239 11.475-17.917 8.68-38.952 18.87-60.435 31.273zM-30.433 390.454c-19.267 11.124-37.869 19.045-52.334 22.885-7.247 1.924-13.343 2.792-17.915 2.585-4.684-.213-7.158-1.509-8.137-3.205-.465-.806-.509-1.507-.232-2.288.316-.888 1.095-1.982 2.54-3.291 2.894-2.62 7.793-5.52 14.318-8.9 4.15-2.15 8.922-4.474 14.133-7.013 10.948-5.333 23.837-11.613 36.986-19.204 19.268-11.124 37.87-19.046 52.335-22.885 7.247-1.924 13.342-2.792 17.915-2.585 4.683.212 7.158 1.509 8.137 3.205.465.805.51 1.507.232 2.287-.316.889-1.095 1.983-2.54 3.291-2.894 2.62-7.793 5.52-14.319 8.9-4.15 2.15-8.92 4.474-14.132 7.013-10.948 5.334-23.837 11.613-36.987 19.205zm56.321 70.496c-25.176 14.535-49.824 24.318-69.28 28.422-9.739 2.054-18.062 2.66-24.454 1.798-6.426-.866-10.526-3.153-12.465-6.513-.965-1.67-1.14-3.131-.787-4.53.372-1.472 1.387-3.094 3.218-4.898 3.692-3.64 10.106-7.453 18.673-11.788 5.457-2.762 11.745-5.712 18.61-8.934 14.413-6.764 31.371-14.723 48.541-24.636 25.177-14.536 49.825-24.318 69.28-28.422 9.74-2.054 18.063-2.66 24.455-1.798 6.426.866 10.525 3.153 12.465 6.513.965 1.67 1.14 3.131.786 4.53-.372 1.472-1.386 3.094-3.217 4.898-3.693 3.64-10.106 7.453-18.673 11.788-5.458 2.762-11.745 5.712-18.61 8.934-14.412 6.764-31.371 14.723-48.542 24.636zM1667.08 357.967c-70.31 40.598-135.13 75.312-183.07 98.619-23.97 11.658-43.69 20.441-57.74 25.68-7.04 2.625-12.58 4.329-16.49 5.076-1.96.376-3.39.484-4.34.4-.34-.03-.56-.077-.7-.12.04-.1.1-.237.21-.416.43-.742 1.3-1.764 2.73-3.078 2.82-2.604 7.4-5.96 13.62-10.034 12.4-8.131 30.98-18.906 54.19-31.938 15.03-8.438 32-17.818 50.46-28.025 38.5-21.285 83.5-46.169 131.05-73.623 70.32-40.597 135.13-75.311 183.07-98.618 23.98-11.658 43.69-20.441 57.75-25.68 7.04-2.625 12.57-4.329 16.48-5.076 1.97-.376 3.4-.484 4.35-.4.34.03.56.077.7.12-.04.1-.11.237-.21.416-.43.742-1.3 1.764-2.73 3.078-2.83 2.604-7.41 5.96-13.62 10.034-12.41 8.131-30.98 18.906-54.2 31.938-15.03 8.438-31.99 17.817-50.45 28.024-38.5 21.286-83.51 46.169-131.06 73.623zm-262.41 129.89v-.028c.01.017 0 .027 0 .028zm514.74-277.238v0zm-540.05 335.347c-42.96 24.804-82.53 46.047-111.77 60.342-14.63 7.151-26.63 12.542-35.16 15.772-4.28 1.62-7.61 2.665-9.93 3.13-.48.098-.91.166-1.27.209.21-.212.45-.448.74-.709 1.69-1.536 4.45-3.551 8.25-6.03 7.56-4.94 18.9-11.513 33.08-19.482 9.18-5.157 19.54-10.892 30.81-17.135 23.52-13.022 51.03-28.251 80.09-45.031 42.97-24.804 82.54-46.048 111.78-60.342 14.63-7.151 26.63-12.542 35.16-15.772 4.28-1.62 7.61-2.665 9.92-3.13.49-.098.91-.166 1.27-.209-.2.212-.44.448-.73.709-1.69 1.536-4.45 3.55-8.25 6.03-7.57 4.94-18.9 11.512-33.08 19.482-9.18 5.156-19.54 10.892-30.81 17.134-23.52 13.023-51.03 28.252-80.1 45.032zm-159.58 79.46c0-.001.01.002.03.01a.102.102 0 01-.03-.01zm.57 1.124c-.01.018-.01.027-.01.028 0 0 0-.009.01-.028zm313.44-168.978s-.02-.002-.04-.011c.03.006.04.01.04.011zm-.57-1.125c.01-.017.01-.026.01-.027 0 0 0 .009-.01.027zm-102.61 118.264c-56.11 32.4-108 59.824-146.5 77.971-19.26 9.078-35.13 15.811-46.48 19.688-5.7 1.943-10.16 3.136-13.31 3.57-1.59.218-2.72.225-3.46.103a2.32 2.32 0 01-.56-.148c.02-.071.06-.17.12-.301.28-.571.9-1.391 1.99-2.469 2.15-2.135 5.73-4.86 10.65-8.157 9.82-6.574 24.63-15.168 43.18-25.533 12-6.708 25.56-14.15 40.32-22.25 30.79-16.896 66.8-36.654 104.76-58.571 56.12-32.401 108-59.825 146.5-77.972 19.27-9.078 35.13-15.811 46.49-19.687 5.69-1.944 10.16-3.136 13.31-3.57 1.59-.219 2.72-.226 3.45-.104.29.047.47.104.57.148-.02.072-.06.17-.13.302-.28.571-.89 1.39-1.98 2.468-2.16 2.136-5.73 4.86-10.66 8.157-9.82 6.574-24.62 15.168-43.17 25.534-12.01 6.707-25.57 14.149-40.33 22.249-30.79 16.896-66.79 36.654-104.76 58.572zm-210.44 101.112v0zm.1.198v.027c-.01.001-.01-.008 0-.027zm411.5-218.52l-.01-.005c.01.003.01.005.01.005zm-.1-.198v-.027.027zm148.41 75.664c-70.31 40.598-135.13 75.312-183.07 98.619-23.97 11.658-43.69 20.441-57.74 25.68-7.04 2.625-12.58 4.329-16.49 5.076-1.96.376-3.39.484-4.34.4-.34-.03-.56-.077-.7-.12.04-.1.1-.237.21-.416.43-.742 1.3-1.764 2.73-3.078 2.82-2.604 7.4-5.96 13.62-10.034 12.4-8.131 30.98-18.906 54.19-31.938 15.03-8.438 32-17.818 50.46-28.025 38.5-21.285 83.5-46.169 131.05-73.623 70.32-40.597 135.13-75.311 183.07-98.618 23.98-11.658 43.69-20.441 57.75-25.68 7.04-2.625 12.57-4.329 16.48-5.076 1.97-.376 3.4-.484 4.35-.4.34.03.56.077.7.12-.04.1-.11.237-.21.416-.43.742-1.3 1.764-2.73 3.078-2.83 2.604-7.41 5.96-13.62 10.034-12.41 8.131-30.98 18.906-54.2 31.938-15.03 8.438-31.99 17.817-50.45 28.024-38.5 21.286-83.51 46.169-131.06 73.623zm-262.41 129.89v-.028c.01.017 0 .027 0 .028zm514.74-277.238v0zm-540.05 335.347c-42.96 24.804-82.53 46.047-111.77 60.342-14.63 7.151-26.63 12.542-35.16 15.772-4.28 1.62-7.61 2.665-9.93 3.13-.48.098-.91.166-1.27.209.21-.212.45-.448.74-.709 1.69-1.536 4.45-3.551 8.25-6.03 7.56-4.94 18.9-11.513 33.08-19.482 9.18-5.157 19.54-10.892 30.81-17.135 23.52-13.022 51.03-28.251 80.09-45.031 42.97-24.804 82.54-46.048 111.78-60.342 14.63-7.151 26.63-12.542 35.16-15.772 4.28-1.62 7.61-2.665 9.92-3.13.49-.098.91-.166 1.27-.209-.2.212-.44.448-.73.709-1.69 1.536-4.45 3.55-8.25 6.03-7.57 4.94-18.9 11.512-33.08 19.482-9.18 5.156-19.54 10.892-30.81 17.134-23.52 13.023-51.03 28.252-80.1 45.032zm-159.58 79.46c0-.001.01.002.03.01a.102.102 0 01-.03-.01zm.57 1.124c-.01.018-.01.027-.01.028 0 0 0-.009.01-.028zm313.44-168.978s-.02-.002-.04-.011c.03.006.04.01.04.011zm-.57-1.125c.01-.017.01-.026.01-.027 0 0 0 .009-.01.027zm-102.61 118.264c-56.11 32.4-108 59.824-146.5 77.971-19.26 9.078-35.13 15.811-46.48 19.688-5.7 1.943-10.16 3.136-13.31 3.57-1.59.218-2.72.225-3.46.103a2.32 2.32 0 01-.56-.148c.02-.071.06-.17.12-.301.28-.571.9-1.391 1.99-2.469 2.15-2.135 5.73-4.86 10.65-8.157 9.82-6.574 24.63-15.168 43.18-25.533 12-6.708 25.56-14.15 40.32-22.25 30.79-16.896 66.8-36.654 104.76-58.571 56.12-32.401 108-59.825 146.5-77.972 19.27-9.078 35.13-15.811 46.49-19.687 5.69-1.944 10.16-3.136 13.31-3.57 1.59-.219 2.72-.226 3.45-.104.29.047.47.104.57.148-.02.072-.06.17-.13.302-.28.571-.89 1.39-1.98 2.468-2.16 2.136-5.73 4.86-10.66 8.157-9.82 6.574-24.62 15.168-43.17 25.534-12.01 6.707-25.57 14.149-40.33 22.249-30.79 16.896-66.79 36.654-104.76 58.572zm-210.44 101.112v0zm.1.198v.027c-.01.001-.01-.008 0-.027zm411.5-218.52l-.01-.005c.01.003.01.005.01.005zm-.1-.198v-.027.027zm342.41-49.336c-70.32 40.598-135.13 75.312-183.07 98.619-23.97 11.658-43.69 20.441-57.74 25.68-7.04 2.625-12.58 4.329-16.49 5.076-1.96.376-3.39.484-4.35.4-.33-.03-.55-.077-.69-.12.04-.1.1-.237.21-.416.43-.742 1.3-1.764 2.72-3.078 2.83-2.604 7.41-5.96 13.63-10.034 12.4-8.131 30.98-18.906 54.19-31.938 15.03-8.438 32-17.818 50.46-28.025 38.49-21.285 83.5-46.169 131.05-73.623 70.32-40.597 135.13-75.311 183.07-98.618 23.98-11.658 43.69-20.441 57.74-25.68 7.05-2.625 12.58-4.329 16.49-5.076 1.97-.376 3.4-.484 4.35-.4.34.03.56.077.7.12-.04.1-.11.237-.21.416-.44.742-1.3 1.764-2.73 3.078-2.83 2.604-7.41 5.96-13.62 10.034-12.41 8.131-30.99 18.906-54.2 31.938-15.03 8.438-31.99 17.817-50.45 28.024-38.5 21.286-83.51 46.169-131.06 73.623zm-262.41 129.89v-.028.028zm514.74-277.238v0zm-540.05 335.347c-42.96 24.804-82.53 46.047-111.77 60.342-14.63 7.151-26.63 12.542-35.17 15.772-4.28 1.62-7.6 2.665-9.92 3.13-.49.098-.91.166-1.27.209.21-.212.45-.448.74-.709 1.69-1.536 4.45-3.551 8.25-6.03 7.56-4.94 18.89-11.513 33.08-19.482 9.17-5.157 19.53-10.892 30.81-17.135 23.52-13.022 51.03-28.251 80.09-45.031 42.96-24.804 82.54-46.048 111.78-60.342 14.62-7.151 26.63-12.542 35.16-15.772 4.28-1.62 7.61-2.665 9.92-3.13.49-.098.91-.166 1.27-.209-.2.212-.45.448-.73.709-1.69 1.536-4.46 3.55-8.25 6.03-7.57 4.94-18.9 11.512-33.08 19.482-9.18 5.156-19.54 10.892-30.81 17.134-23.53 13.023-51.03 28.252-80.1 45.032zm-159.58 79.46c0-.001.01.002.03.01a.102.102 0 01-.03-.01zm.57 1.124c-.01.018-.01.027-.01.028-.01 0 0-.009.01-.028zm313.43-168.978s-.01-.002-.03-.011c.03.006.04.01.03.011zm-.56-1.125c0-.017.01-.026.01-.027 0 0 0 .009-.01.027zm-102.61 118.264c-56.12 32.4-108 59.824-146.5 77.971-19.26 9.078-35.13 15.811-46.48 19.688-5.7 1.943-10.16 3.136-13.32 3.57-1.58.218-2.71.225-3.45.103a2.604 2.604 0 01-.57-.148c.03-.071.07-.17.13-.301.28-.571.9-1.391 1.98-2.469 2.16-2.135 5.73-4.86 10.66-8.157 9.82-6.574 24.62-15.168 43.18-25.533 12-6.708 25.56-14.15 40.32-22.25 30.79-16.896 66.8-36.654 104.76-58.571 56.12-32.401 108-59.825 146.5-77.972 19.26-9.078 35.13-15.811 46.49-19.687 5.69-1.944 10.15-3.136 13.31-3.57 1.59-.219 2.71-.226 3.45-.104.29.047.46.104.57.148-.02.072-.06.17-.13.302-.28.571-.89 1.39-1.98 2.468-2.16 2.136-5.73 4.86-10.66 8.157-9.82 6.574-24.62 15.168-43.17 25.534-12.01 6.707-25.57 14.149-40.33 22.249-30.79 16.896-66.79 36.654-104.76 58.572zm-210.44 101.112v.005c0-.003-.01-.005 0-.005zm.09.198c.01.017.01.027 0 .027v-.027zm411.51-218.52s-.01-.001-.01-.005c.01.003.01.005.01.005zm-.1-.198v-.027.027z" stroke="#fff" stroke-opacity=".4" stroke-width="4"/></svg>