<svg width="34" height="33" fill="none" xmlns="http://www.w3.org/2000/svg"><path d="M7.07 5.32c0-.217.176-.393.393-.393h18.412a.394.394 0 010 .787H7.463a.394.394 0 01-.394-.393zm7.39 2.827c0-.218.177-.394.395-.394h11.02a.394.394 0 110 .788h-11.02a.394.394 0 01-.394-.394zm-7.39 0c0-.218.176-.394.393-.394h3.761a.394.394 0 010 .788h-3.76a.394.394 0 01-.395-.394zm6.23 5.652c0-.217.177-.394.395-.394h12.178a.394.394 0 110 .788H13.695a.394.394 0 01-.394-.394zm-6.23 0c0-.217.176-.394.393-.394h3.367a.394.394 0 110 .788H7.463a.394.394 0 01-.394-.394z" fill="#000"/><path d="M32.946 27.632a4.184 4.184 0 01-4.185-4.184V2.215A2.218 2.218 0 0026.546 0H2.517A2.688 2.688 0 000 2.684v2.289c0 .217.176.394.394.394A4.185 4.185 0 014.578 9.55v21.232c0 1.222.994 2.216 2.216 2.216 15.322 0 20.918.004 22.959 0 .783-.001 1.609.014 2.281-.387a2.67 2.67 0 001.306-2.296v-2.289a.394.394 0 00-.394-.394zM4.578 2.682a1.895 1.895 0 11-3.79 0c0-1.002.78-1.834 1.753-1.894h.244c.465.021.893.212 1.234.55.36.364.559.842.559 1.345zm2.216 29.529a1.43 1.43 0 01-1.428-1.428v-28.1c0-.177-.018-.353-.052-.524-.011-.058-.036-.112-.051-.17-.03-.11-.056-.222-.1-.328-.027-.066-.068-.126-.1-.19-.047-.091-.089-.185-.146-.272-.045-.068-.104-.127-.155-.191-.066-.083 0-.22.105-.22h21.678c.788 0 1.428.64 1.428 1.428v28.1c0 .776-.542 1.895-1.318 1.895H6.794zm25.758-1.896a1.899 1.899 0 01-1.89 1.896 1.895 1.895 0 111.89-1.896z" fill="#000"/><path d="M20.106 10.58H7.463a.394.394 0 000 .787h18.412a.394.394 0 000-.788h-5.77zm-3.373 5.523a4.704 4.704 0 00-4.618 5.562c.467 2.507 2.354 4.82 2.354 7.37a.393.393 0 00.608.33 3.042 3.042 0 013.307 0 .395.395 0 00.608-.33c0-2.55 1.887-4.863 2.354-7.37a4.7 4.7 0 00-4.613-5.561zm1.471 10.703a.818.818 0 01-1.263.687.394.394 0 00-.428 0 .813.813 0 01-1.257-.681v-.245c0-.646.643-1.103 1.289-1.077a4.727 4.727 0 00.37 0c.646-.026 1.289.43 1.289 1.077v.24zm-1.445-2.119c-1.963.031-3.936-1.247-3.936-3.886a3.915 3.915 0 013.91-3.91 3.912 3.912 0 013.905 3.91c0 2.544-1.935 3.856-3.88 3.886z" fill="#000"/></svg>