<svg width="1920" height="1022" fill="none" xmlns="http://www.w3.org/2000/svg"><g clip-path="url(#clip0_159_3093)"><path fill="#F3F5F9" d="M0 .046l1919.996-.228v1022.22L0 1022.266z"/><g filter="url(#filter0_d_159_3093)"><path d="M1765.87-146H1920v1168h-727.18s-353.276-295.429-95.93-358.857C1354.24 599.714 983.5 196.5 1226 196.5S1765.87-146 1765.87-146z" fill="#F3F5F9"/></g></g><path fill-rule="evenodd" clip-rule="evenodd" d="M1363.16 831.664l24.04-13.009c25.39-13.885 74.42-41.409 114.78-82.185 39.03-39.9 71.15-93.298 114.81-129.026 43.67-35.728 99.29-53.156 150.37-77.525 51.5-23.738 98.47-54.418 140.79-89.269 43.66-35.728 84.44-75.874 105.3-96.7l19.51-19.95 38.75 59.319-22.81 14.902c-24.15 15.778-71.11 46.457-118.08 77.137l-139.54 91.162c-46.97 30.68-93.93 61.36-140.89 92.039-46.97 30.68-93.93 61.36-139.55 91.163-46.96 30.679-93.93 61.359-118.08 77.137l-22.81 14.902-6.59-10.097zm37.87-229.731l24-13.075c25.34-13.951 74.3-41.587 114.89-82.008 39.26-39.545 71.91-92.144 115.69-127.695 43.78-35.55 99.09-53.444 150.03-78.035 51.34-23.982 98.3-54.661 140.74-89.335 43.78-35.551 84.78-75.364 105.75-96.013L2071.76 96l37.39 57.234-22.81 14.901c-24.15 15.778-71.12 46.458-118.08 77.137-45.62 29.804-92.58 60.483-139.55 91.163-46.96 30.679-93.92 61.359-140.89 92.039l-139.54 91.162c-46.97 30.68-93.93 61.359-118.08 77.138l-22.81 14.901-6.36-9.742zM1098.5 929.5l13.81-8.414c14.1-9.221 41.36-27.363 64.65-50.871 22.55-22.953 42.07-51.571 66.87-73.035 24.81-21.463 55.08-35.517 83.28-52.381 28.39-16.609 54.7-36.028 78.75-56.937 24.81-21.464 48.29-44.716 60.32-56.748l11.27-11.476 17.72 24.019-12.78 9.432c-13.53 9.988-39.84 29.407-66.16 48.827-25.56 18.864-51.87 38.284-78.18 57.703-26.32 19.42-52.63 38.839-78.94 58.259-26.31 19.419-52.63 38.839-78.19 57.703-26.31 19.42-52.62 38.839-66.16 48.826L1102.5 934l-2.03-2.204-1.97-2.296zm545.35-722.694l13.63-8.167c14.43-8.677 42.37-25.695 67.94-46.358 24.78-20.153 48.07-44.288 74.54-63.563 26.48-19.275 56.24-33.515 84.75-49.665 28.62-15.976 56-33.861 81.69-52.625 26.47-19.275 52.15-39.764 65.32-50.352L2044.12-74l10.66 16.319-13.3 8.687-68.84 44.97c-26.6 17.375-53.98 35.26-81.35 53.147l-82.14 53.657c-27.38 17.886-54.76 35.772-81.35 53.146l-68.84 44.97-13.3 8.688-1.81-2.778z" fill="#fff" fill-opacity=".6"/><defs><clipPath id="clip0_159_3093"><path fill="#fff" d="M0 0h2002v1022H0z"/></clipPath><filter id="filter0_d_159_3093" x="963" y="-183" width="997" height="1248" filterUnits="userSpaceOnUse" color-interpolation-filters="sRGB"><feFlood flood-opacity="0" result="BackgroundImageFix"/><feColorMatrix in="SourceAlpha" values="0 0 0 0 0 0 0 0 0 0 0 0 0 0 0 0 0 0 127 0" result="hardAlpha"/><feOffset dy="3"/><feGaussianBlur stdDeviation="20"/><feComposite in2="hardAlpha" operator="out"/><feColorMatrix values="0 0 0 0 0 0 0 0 0 0 0 0 0 0 0 0 0 0 0.1 0"/><feBlend in2="BackgroundImageFix" result="effect1_dropShadow_159_3093"/><feBlend in="SourceGraphic" in2="effect1_dropShadow_159_3093" result="shape"/></filter></defs></svg>