<svg width="558" height="554" fill="none" xmlns="http://www.w3.org/2000/svg"><path d="M506.962 387.901c-3.758-.41-8.215 4.734-9.636 7.817-.121.265-1.494 4.638-1.422 4.638h.073c-.711.807-1.458 1.674-2.265 2.65-1.458 1.795-3.084 3.831-4.71 6.167 0-3.613-.674-11.166-5.469-11.624-6.324-.602-8.13 6.625-4.216 10.54a11.526 11.526 0 008.3 3.096 104.338 104.338 0 00-3.614 5.866 57.563 57.563 0 00-4.204 9.468v.121c0-1.109 0-4.204-.06-4.433-.434-3.349-3.24-9.552-6.95-10.239a4.464 4.464 0 00-3.512.952 4.467 4.467 0 00-1.632 3.252c-.229 2.65 1.699 5.312 3.614 6.986 2.12 1.892 7.998 3.723 8.432 3.867a79.139 79.139 0 00-2.482 10.251 147.413 147.413 0 00-.939 6.119v-1.927c-.434-3.337-3.24-9.54-6.951-10.227a4.455 4.455 0 00-3.511.943 4.45 4.45 0 00-1.632 3.249c-.229 2.662 1.698 5.312 3.614 6.998 1.915 1.687 6.89 3.361 8.215 3.783-.109.783-.205 1.578-.301 2.409-.458 3.794-.892 7.577-1.434 11.275-.18 1.301-.421 2.577-.65 3.854v-1.674c-.434-3.349-3.228-9.552-6.951-10.239a4.46 4.46 0 00-3.511.952 4.454 4.454 0 00-1.632 3.252c-.217 2.662 1.71 5.312 3.614 6.986 1.903 1.675 6.408 3.205 7.974 3.711-.277 1.3-.542 2.613-.867 3.854-.253.855-.422 1.687-.711 2.518-.289.831-.542 1.662-.795 2.481-.578 1.566-1.144 3.168-1.735 4.674-.409 1.06-.807 2.048-1.204 3.047.205-1.289.554-3.83.554-4.047a17.46 17.46 0 00-2.325-8.432c.01-.33-.01-.661-.06-.988a4.478 4.478 0 00-1.887-3.105 4.48 4.48 0 00-1.713-.718 4.488 4.488 0 00-1.857.041c-3.614.976-5.962 7.372-6.143 10.733 0 .204.12 2.409.229 3.734-.181-.795-.35-1.566-.554-2.409a202.841 202.841 0 00-1.265-4.939l-.759-2.493c-.229-.844-.59-1.699-.879-2.554a93.993 93.993 0 00-2.41-5.89c1.41-.338 6.409-1.615 8.432-3.156 2.024-1.542 4.12-4.036 4.096-6.71a4.466 4.466 0 00-1.39-3.358 4.453 4.453 0 00-3.428-1.207c-3.759.409-7.011 6.384-7.685 9.636 0 .205-.265 2.626-.362 3.963-.542-1.204-1.072-2.409-1.65-3.517-1.674-3.385-3.481-6.746-5.264-10.118-.554-1.024-1.084-2.06-1.614-3.096.506-.108 6.468-1.494 8.721-3.216 2-1.542 4.108-4.048 4.095-6.71a4.464 4.464 0 00-1.393-3.358 4.481 4.481 0 00-3.425-1.219c-3.746.41-6.998 6.396-7.685 9.697 0 .241-.361 3.734-.397 4.625a128.545 128.545 0 01-3.397-6.854 80.235 80.235 0 01-3.686-9.504c.241-.06 6.48-1.481 8.781-3.24 2-1.53 4.12-4.035 4.096-6.709a4.474 4.474 0 00-.337-1.828 4.457 4.457 0 00-4.482-2.738c-3.758.41-7.01 6.384-7.697 9.637 0 .217-.289 2.867-.373 4.144h-.217a57.861 57.861 0 01-1.915-10.071c-.205-1.879-.302-3.686-.362-5.432 1.205-.157 6.613-.88 8.866-2.229 2.252-1.349 4.529-3.613 4.818-6.215a4.473 4.473 0 00-1.015-3.494 4.47 4.47 0 00-3.273-1.589c-3.782 0-7.673 5.577-8.709 8.793-.06.168-.434 1.999-.699 3.349v-2.41c0-2.854.193-5.468.374-7.781a97.01 97.01 0 01.361-3.614c1.096-.747 5.457-3.83 6.806-6.023 1.349-2.192 2.409-5.252 1.397-7.721a4.455 4.455 0 00-6.143-2.529c-3.349 1.734-4.24 8.431-3.686 11.804 0 .289 1.325 4.698 1.373 4.662h.072c-.144 1.06-.301 2.204-.433 3.457-.229 2.313-.47 4.927-.53 7.794v1.614c-1.446-2.217-6.023-8.432-10.841-7.119-5.939 1.602-4.566 6.854.228 7.998 3.522.63 7.127.63 10.649 0 0 2.156 0 4.433.253 6.782a57.652 57.652 0 001.722 10.214.351.351 0 000 .121c-.602-.928-2.409-3.481-2.505-3.614-2.205-2.553-7.962-6.179-11.432-4.71a4.487 4.487 0 00-2.41 2.731 4.46 4.46 0 00.423 3.617c1.289 2.337 4.36 3.494 6.854 3.855 2.807.41 8.721-1.301 9.191-1.445a76.923 76.923 0 003.613 9.925 131.035 131.035 0 002.59 5.613c-.542-.783-1.024-1.481-1.108-1.578-2.204-2.553-7.962-6.179-11.431-4.697a4.45 4.45 0 00-2.584 4.575 4.47 4.47 0 00.596 1.761c1.289 2.336 4.361 3.493 6.854 3.854 2.494.362 7.589-.988 8.926-1.373l1.06 2.144c1.71 3.409 3.433 6.806 5.023 10.179.566 1.204 1.072 2.409 1.578 3.613-.47-.698-.879-1.288-.952-1.361-2.204-2.553-7.974-6.179-11.443-4.71a4.468 4.468 0 00-2.409 2.732 4.462 4.462 0 00.434 3.617c1.276 2.336 4.348 3.493 6.841 3.854 2.494.361 7.107-.867 8.697-1.301.482 1.205.976 2.47 1.398 3.686.265.843.578 1.638.795 2.494.217.855.47 1.686.698 2.517.398 1.602.807 3.265 1.145 4.818.241 1.097.445 2.145.662 3.205-.542-1.205-1.65-3.506-1.77-3.686-1.795-2.855-6.939-7.312-10.589-6.385a4.488 4.488 0 00-3.264 4.177 4.492 4.492 0 00.337 1.846c.916 2.506 3.783 4.108 6.192 4.818 2.65.808 8.516 0 9.251 0 .349 1.759.674 3.47.951 5.084a236.248 236.248 0 011.988 13.599c.06.59.12 1.108.169 1.602h-11.359l2.553 49.797h22.55l2.553-49.797h-10.853l.241-.482a231.298 231.298 0 005.638-12.696 187.614 187.614 0 002.108-5.348c.71.145 6.516 1.325 9.226.711 2.41-.554 5.421-1.94 6.529-4.361a4.471 4.471 0 00.139-3.638 4.475 4.475 0 00-2.608-2.541c-3.614-1.205-9.034 2.867-11.046 5.577-.108.157-1.205 2.036-1.867 3.228.289-.759.566-1.493.855-2.288a183.15 183.15 0 001.662-4.819c.253-.831.494-1.662.747-2.505s.446-1.735.675-2.614a79.49 79.49 0 001.204-6.252c1.362.494 6.24 2.193 8.758 2.012 2.517-.181 5.661-1.096 7.119-3.325a4.464 4.464 0 00.693-3.576 4.465 4.465 0 00-2.199-2.904c-3.349-1.735-9.372 1.457-11.757 3.842-.144.145-1.674 2.036-2.481 3.096.193-1.265.397-2.542.566-3.843.458-3.734.819-7.54 1.205-11.335l.361-3.469c.482.181 6.228 2.313 9.058 2.12 2.506-.18 5.662-1.096 7.107-3.336a4.458 4.458 0 00-1.493-6.469c-3.361-1.734-9.372 1.458-11.757 3.831-.181.18-2.409 2.915-2.891 3.613.265-2.541.566-5.083.952-7.576a76.324 76.324 0 012.18-9.962c.217.084 6.203 2.337 9.094 2.132 2.518-.169 5.662-1.096 7.119-3.325a4.46 4.46 0 00-.096-5.262 4.456 4.456 0 00-1.409-1.218c-3.349-1.723-9.36 1.457-11.757 3.842-.156.157-1.819 2.229-2.59 3.241l-.192-.097a56.917 56.917 0 013.963-9.468 64.886 64.886 0 012.698-4.734c1.072.543 6.023 2.928 8.612 3.036 2.59.108 5.746-.47 7.445-2.53a4.48 4.48 0 001.079-3.475 4.458 4.458 0 00-1.862-3.126c-3.144-2.084-9.468.422-12.106 2.518l-1.482 1.457v-.554l.325-.481c1.578-2.41 3.168-4.457 4.59-6.288a108.24 108.24 0 012.301-2.807c1.325 0 6.661-.193 8.998-1.289 2.337-1.096 4.89-3.059 5.444-5.673a4.477 4.477 0 00-.633-3.594 4.48 4.48 0 00-3.101-1.923zm-41.557 100.822a227.557 227.557 0 01-5.855 12.443l-.831 1.602h-.241c-.084-.578-.156-1.204-.253-1.915-.457-3.325-1.204-8.059-2.3-13.696-.35-1.783-.759-3.686-1.205-5.625a48.207 48.207 0 005.168-2.41c1.927 2.084 6.878 4.53 7.516 4.819a166.6 166.6 0 01-1.999 4.782zm22.959-77.562l-.289.289.18-.277.109-.012z" fill="#263238"/><path opacity=".3" d="M324.208 340.479a26.599 26.599 0 0026.69 33.162 26.592 26.592 0 0015.241-5.457l10.299 9.853a6.33 6.33 0 001.735 6.023l22.417 21.983a6.373 6.373 0 0010.556-2.096c.309-.8.454-1.654.426-2.51a6.394 6.394 0 00-.591-2.477 6.386 6.386 0 00-1.514-2.047l-22.356-22.008a6.351 6.351 0 00-6.204-1.517l-10.13-9.709a26.277 26.277 0 005.107-10.179 26.618 26.618 0 00-19.176-32.797 26.612 26.612 0 00-28.085 10.214 26.625 26.625 0 00-4.354 9.562h-.061zm46.978 11.853a21.846 21.846 0 01-30.556 14.428 21.857 21.857 0 01-12.461-20.848 21.854 21.854 0 0127.177-20.081 21.886 21.886 0 0115.852 26.501h-.012z" stroke="#000" stroke-miterlimit="10"/><g opacity=".3" stroke="#000" stroke-miterlimit="10"><path opacity=".3" d="M226.518 54.347a39.39 39.39 0 11-.747 1.819"/><path opacity=".3" d="M226.06 54.178a40.956 40.956 0 11-.734 1.819" stroke-width=".5"/><path opacity=".3" d="M236.637 58.166a30.186 30.186 0 11-.747 1.819"/><path opacity=".3" d="M236.191 57.996a29.967 29.967 0 0136.708-16.047 29.972 29.972 0 0119.866 34.79 29.967 29.967 0 01-32.477 23.459 29.97 29.97 0 01-26.783-29.794 29.515 29.515 0 011.939-10.6" stroke-width=".5"/><path opacity=".3" d="M248.935 63.248l.181-.373a15.657 15.657 0 0120.755-6.648 15.657 15.657 0 017.299 20.535 15.662 15.662 0 01-20.295 7.943 15.66 15.66 0 01-8.578-20.035" stroke-width=".5"/><path opacity=".3" d="M249.827 63.14h-.253l-.446-.18-12.491-4.795-.446-.169-9.637-3.613-.457-.169-15.587-5.878.77-5.758a.5.5 0 00-.289-.518l-12.322-5.517a.494.494 0 00-.675.602l2.506 7.408-1.843-.698a.99.99 0 00-1.201 1.32.986.986 0 00.502.523l1.915.722-5.746 4.421a.51.51 0 00-.18.518.482.482 0 00.409.35l13.817 2.132h.06a.507.507 0 00.47-.314l1.301-3.3 15.322 5.77.445.168 9.637 3.614.446.18 12.419 4.687.457.168.362.145"/><path opacity=".3" d="M249.562 63.092h.265l8.877 3.349.976-2.927a.975.975 0 01.927-.663v0a.976.976 0 01.928.699l1.734 5.818a.962.962 0 01-.493 1.204l-4.445 2.217a.965.965 0 01-.434.108.99.99 0 01-.974-.83.977.977 0 01.035-.459l1.072-3.204-8.95-3.373a.93.93 0 01-.326-.229"/></g><path opacity=".3" d="M126.142 485.484l10.841 2.47 2.505-10.974-10.395-2.409v-.927a24.888 24.888 0 00-1.964-9.721l8.432-6.722-7.022-8.805-8.071 6.432a24.683 24.683 0 00-9.781-5.203v-10.456H99.448v10.094c-3.71.73-7.204 2.3-10.214 4.59l-8.155-6.505-7.035 8.805 7.962 6.36a24.925 24.925 0 00-2.65 10.745l-10.37 2.409 2.505 10.986 10.238-2.337a24.897 24.897 0 006.59 8.54l-4.819 9.89 10.142 4.89 4.686-9.732a25.33 25.33 0 005.842.71c1.59.001 3.175-.152 4.734-.458l4.819 10.083 10.142-4.891-4.722-9.793a24.873 24.873 0 006.999-8.071zm-32.97-11.804a11.058 11.058 0 1111.047 11.046 11.045 11.045 0 01-11.046-11.046v0z" stroke="#000" stroke-linecap="round" stroke-linejoin="round"/><path opacity=".3" d="M146.896 431.496l8.878 2.036 2.06-9.01-8.541-1.952v-.759a20.47 20.47 0 00-1.614-7.974l6.915-5.517-5.758-7.227-6.625 5.276a20.476 20.476 0 00-8.023-4.264v-8.613h-9.203v8.336a20.256 20.256 0 00-8.432 3.77l-6.685-5.336-5.77 7.227 6.529 5.204a20.27 20.27 0 00-2.168 8.829l-8.517 1.94 2.06 9.01 8.432-1.916a20.214 20.214 0 005.409 7.011l-3.903 8.119 8.323 3.999 3.843-7.974c1.578.378 3.195.572 4.818.578a20.61 20.61 0 003.879-.374l3.987 8.216 8.324-4.012-3.879-8.046a20.472 20.472 0 005.661-6.577v0zm-27.054-9.637c0-1.793.532-3.547 1.528-5.039a9.074 9.074 0 0113.956-1.374 9.07 9.07 0 01-6.414 15.484 9.069 9.069 0 01-9.07-9.119v.048z" stroke="#000" stroke-linecap="round" stroke-linejoin="round"/><g opacity=".3" stroke="#000" stroke-miterlimit="10"><path opacity=".3" d="M60.46 47.995c4.824-11.647-.707-25-12.354-29.824-11.647-4.825-25 .706-29.824 12.353-4.824 11.647.706 25 12.354 29.825 11.647 4.824 25-.707 29.824-12.354z"/><path opacity=".3" d="M46.941 37.724H32.066a5.264 5.264 0 00-5.264 5.252v12.48a20.477 20.477 0 0025.392-.193V42.976a5.25 5.25 0 00-5.252-5.252zm-7.721-2.313a7.565 7.565 0 100-15.13 7.565 7.565 0 000 15.13v0z"/></g><g opacity=".3" stroke="#000" stroke-miterlimit="10"><path opacity=".3" d="M201.346 212.098c4.853-11.635-.645-25.002-12.281-29.854-11.635-4.853-25.001.645-29.854 12.28-4.853 11.636.645 25.002 12.281 29.855 11.635 4.852 25.001-.646 29.854-12.281z"/><path opacity=".3" d="M187.852 201.774h-14.925a5.266 5.266 0 00-5.264 5.252v12.479a20.475 20.475 0 0025.392-.193v-12.286a5.25 5.25 0 00-5.203-5.252v0zm-7.698-2.313a7.565 7.565 0 100-15.13 7.565 7.565 0 000 15.13v0z"/></g><g opacity=".3" stroke="#000" stroke-miterlimit="10"><path opacity=".3" d="M544.661 221.749c4.852-11.635-.646-25.002-12.281-29.855-11.635-4.852-25.002.646-29.855 12.281-4.852 11.635.646 25.002 12.281 29.855 11.635 4.852 25.002-.646 29.855-12.281z"/><path opacity=".3" d="M531.153 211.412h-14.925a5.266 5.266 0 00-5.264 5.252v12.479a20.48 20.48 0 0025.392-.193v-12.286a5.249 5.249 0 00-5.203-5.252v0zm-7.698-2.313a7.568 7.568 0 007.42-9.041 7.567 7.567 0 00-10.315-5.513 7.565 7.565 0 002.895 14.554v0z"/></g><g opacity=".3" stroke="#000" stroke-miterlimit="10"><path opacity=".3" d="M413.368 38.641c4.853-11.635-.645-25.001-12.28-29.854-11.636-4.853-25.002.645-29.855 12.28-4.852 11.636.646 25.002 12.281 29.855 11.635 4.853 25.002-.645 29.854-12.28z"/><path opacity=".3" d="M399.855 28.316H384.93a5.26 5.26 0 00-5.263 5.252v12.48a20.473 20.473 0 0025.392-.194V33.568a5.254 5.254 0 00-5.204-5.252v0zm-7.697-2.313a7.566 7.566 0 005.349-12.913 7.565 7.565 0 10-5.349 12.913v0z"/></g><path d="M445.387 243.512s-7.697 0-15.731 8.432c-8.035 8.432-12.504 19.923-10.637 23.405 1.868 3.481 4 9.203 3.939 10.54-.06 1.337-10.78 10.287-8.275 14.743 2.506 4.457 3.06 7.156.711 7.397-2.349.24-6.505 3.421-5.927 5.793.578 2.373 4.517 4.53 2.735 7.144-1.783 2.613-3.096 2.216-3.229 5.565-.132 3.348 2.94 6.167 1.205 6.589-1.735.421-5.144.951-4.228 3.336a30.847 30.847 0 003.132 5.481s11.841 13.853 37.137 17.864c25.295 4.011 50.591-17.093 54.374-20.285 3.782-3.192 4.517-4.18 4.601-6.18.084-1.999-1.205-4.408-1.747-6.769-.542-2.361.615-7.011.651-8.011.036-.999-2.192-3.77-3.807-5.179-1.614-1.41-1.806-5.095-1.011-8.432.795-3.337-2.41-5.794-3.747-6.842-1.337-1.048-2.18-4.108-1.06-7.083 1.121-2.975-2.77-6.131-4.396-7.54-1.626-1.41-1.831-4.421-1.036-7.734.795-3.312-3.265-10.516-5.481-13.611-2.216-3.096-4.818-12.925-17.406-17.43-12.588-4.506-20.767-1.193-20.767-1.193z" fill="#263238" stroke="#263238" stroke-linecap="round" stroke-linejoin="round"/><path d="M417.454 364.486a70.901 70.901 0 0076.152-3.903c0-6.372.06-11.732 0-14.033-.289-7.36-2.301-17.864-4.951-20.008-2.65-2.144-8.167-3.843-16.273-6.095-8.107-2.253-20.321-3.048-20.321-3.048s-14.455 8.264-24.236 11.54c-9.781 3.277-10.239 25.091-10.022 30.536a48.255 48.255 0 01-.349 5.011z" fill="#fff" stroke="#263238" stroke-linecap="round" stroke-linejoin="round"/><path d="M417.454 364.486a70.901 70.901 0 0076.152-3.903c0-6.372.06-11.732 0-14.033-.144-3.722-.494-2.241-1.385-6.083-4.65 4.372-14.973 11.588-35.27 13.937-18.514 2.144-33.728-4.819-38.437-7.782a78.582 78.582 0 00-.711 12.853 48.255 48.255 0 01-.349 5.011z" fill="#fff" stroke="#263238" stroke-linecap="round" stroke-linejoin="round"/><path d="M441.292 337.335l-.602-15.37c-.29-7.36-1.386-10.516-1.386-10.516a41.264 41.264 0 0010.335 1.831c5.144.12 12.841-7.878 13.431-9.191.591-1.313 1.458-3.614 1.458-3.614s.819 12.468 1.963 17.238a359.522 359.522 0 001.904 7.625" fill="#fff"/><path d="M441.292 337.335l-.602-15.37c-.29-7.36-1.386-10.516-1.386-10.516a41.264 41.264 0 0010.335 1.831c5.144.12 12.841-7.878 13.431-9.191.591-1.313 1.458-3.614 1.458-3.614s.819 12.468 1.963 17.238a359.522 359.522 0 001.904 7.625" stroke="#263238" stroke-miterlimit="10" stroke-linecap="round"/><path d="M445.99 324.181c7.805-4.3 14.539-14.238 14.539-14.238l.445-3.36c-2.77 2.794-7.697 6.781-11.335 6.697a41.264 41.264 0 01-10.335-1.831s1.096 3.156 1.386 10.516c0 1.662.132 3.348.192 4.975a307.266 307.266 0 005.108-2.759z" fill="#263238" stroke="#263238" stroke-linecap="round" stroke-linejoin="round"/><path d="M475.851 281.937l-5.12-.349s0-.747-.072-1.964l-.542-.71c-.831-1.072-1.204-.807-2.734-1.337-1.53-.531-1.843-3.144-1.506-5.686.337-2.542-2.758-3.614-5.914-6.613-2.578-2.409-3.18-6.818-3.301-8.324a22.372 22.372 0 00-3.529-.746 23.274 23.274 0 01-4.192 6.962c-3.012 3.156-5.192 2.542-6.083 4.36-.892 1.819-2.771 3.831-4.084 3.975-1.313.145-4.493-.265-4.697 1.313-.205 1.578-1.506 4.012-2.542 4.518l-.831.421c0 3.614.18 6.649.096 7.228-.169 1.276-1.265 9.528 1.59 14.755 2.855 5.228 8.167 16.563 16.382 17.768 8.215 1.204 16.72-9.095 18.37-11.781 1.65-2.686 3.385-10.841 3.385-10.841a18.522 18.522 0 004.89-5.168c2.108-3.348.434-7.781.434-7.781zm-44.087-8.769c.301-2.228 3.023-5.746 3.987-5.613a8.264 8.264 0 005.228-2.867c.843-1.494.735-3.132 2.409-3.614 1.674-.481 1.963-2.65 1.963-2.65s-5.035 3.855-7.745 4.819a15.57 15.57 0 00-5.228 2.854 29.683 29.683 0 00-1.53 8.517 1.794 1.794 0 00.916-1.446z" fill="#fff" stroke="#263238" stroke-linecap="round" stroke-linejoin="round"/><path d="M445.339 299.861s1.53 3.108 5.638 1.398m-6.264 3.36s6.023 3.397 9.179-1.036" stroke="#263238" stroke-linecap="round" stroke-linejoin="round"/><path d="M440.906 287.02c0 1.325-.662 2.41-1.373 2.41s-1.204-1.121-1.204-2.41c0-1.288.662-2.409 1.373-2.409s1.253 1.084 1.204 2.409zm16.069.687c0 1.325-.662 2.41-1.361 2.41s-1.204-1.121-1.204-2.41c0-1.288.662-2.409 1.373-2.409.71 0 1.24 1.084 1.192 2.409z" fill="#263238"/><path d="M434.92 281.022s1.975-2.65 6.962-1.338m11.202.844s5.385-1.542 8.77 2.132m-19.105-2.217s3.53 4.999 2.94 9.444" stroke="#263238" stroke-linecap="round" stroke-linejoin="round"/><path d="M429.126 369.726c.807-5.493 1.602-10.938 2.252-15.322 2.036-13.551 9.047-30.825 9.047-30.825-2.578-.53-27.513 9.745-32.789 14.118-2.3 1.915-4.962 7.119-7.42 12.961a70.995 70.995 0 0028.91 19.068zm83.488-29.331a34.798 34.798 0 00-12.66-9.637 68.212 68.212 0 00-10.094-5.529c-5.553-2.674-20.478-5.938-20.478-5.938s-1.337 38.245.735 52.218a70.974 70.974 0 0042.497-31.114z" fill="#FF8562" stroke="#263238" stroke-linecap="round" stroke-linejoin="round"/><path d="M502.651 352.919c27.693-27.693 27.693-72.593 0-100.286-27.693-27.693-72.593-27.693-100.286 0-27.693 27.693-27.693 72.593 0 100.286 27.693 27.693 72.593 27.693 100.286 0z" stroke="#263238" stroke-miterlimit="10"/><path d="M468.395 198.945c38.168-8.777 61.994-46.833 53.218-85.001-8.777-38.168-46.833-61.994-85.001-53.217-38.168 8.776-61.994 46.832-53.218 85 8.777 38.168 46.833 61.995 85.001 53.218z" fill="#FF8562"/><path d="M452.507 200.749a70.809 70.809 0 0055.108-26.296l-28.126-21.971-20.478-5.818v-.807l-5.119.397-5.12-.397v.807l-20.477 1.602-31.897 24.923a70.803 70.803 0 0056.109 27.56z" fill="#fff" stroke="#263238" stroke-miterlimit="10"/><path d="M433.715 144.05a58.294 58.294 0 01-7.227 1.205c-1.807 0-8.432 29.512-8.432 29.512l22.887-7.228 9.636 9.637 7.83-9.034 22.887 10.239s-1.807-27.705-1.807-31.319c0-3.614-21.08-8.432-21.08-8.432l-24.694 5.42z" fill="#fff" stroke="#263238" stroke-miterlimit="10"/><path d="M430.704 132.005l2.409 21.079 16.262 16.262 18.67-18.671 1.205-24.091-38.546 5.421z" fill="#D4D4D4" stroke="#263238" stroke-miterlimit="10"/><path d="M468.419 143.087l.831-16.503-2.132.301-24.067 17.286 25.368-1.084z" fill="#263238" stroke="#263238" stroke-miterlimit="10"/><path d="M456.205 70.693s18.068 4.637 19.273 12.78c1.204 8.143.241 25.091.241 25.091s3.866-7.311 6.275-.578c2.409 6.734-1.999 11.166-3.553 11.636-1.18.307-2.395.453-3.614.434 0 0-4.987 11.395-7.709 13.599-2.722 2.205-12.901 11.106-16.936 12.347-4.036 1.241-11.046 1.699-13.046-.409-1.999-2.108-10.202-16.575-10.443-19.563-.241-2.987-2.084-29.957-1.795-33.45.289-3.493-1.409-10.107 6.023-16.864 7.432-6.758 25.284-5.023 25.284-5.023z" fill="#D4D4D4" stroke="#263238" stroke-miterlimit="10"/><path d="M430.909 75.764c7.456-6.71 25.296-5.072 25.296-5.072s18.068 4.638 19.273 12.78c1.204 8.144.241 25.092.241 25.092s-1.94 3.614-3.976 2.578c-2.035-1.036 1.362-9.938 1.362-9.938s-1.205-2.698-2.12-5.806c-.916-3.108-.458-6.998.758-10.769 1.217-3.77-7.95-11.491-12.9-10.997-4.951.493-11.275 4.167-15.636 3.445-4.36-.723-5.059-3.204-5.059-3.204s-1.132-.338-5.167.915a8.828 8.828 0 00-2.132 1.024l.06-.048z" fill="#263238" stroke="#263238" stroke-miterlimit="10"/><path d="M446.207 99.638l21.393 2.084s.65 7.564-.506 9.54c-1.157 1.975-3.024 3.83-8.613 4.288-5.589.458-11.455-1.349-12.118-3.855-.662-2.505-.156-12.057-.156-12.057zm-6.011-.157h-21.538s-1.385 7.457-.421 9.553c.963 2.096 2.638 4.095 8.155 5.107 5.517 1.012 11.539-.205 12.479-2.614.939-2.409 1.325-12.046 1.325-12.046zm6.011.157s-3.469-1.626-6.023-.132m5.685 3.336s-3.433-2.529-5.89-.373m27.621-.747l8.504 6.493m-57.397-8.71l6.131 2.47" stroke="#263238" stroke-width="2" stroke-miterlimit="10" stroke-linecap="round"/><path d="M451.591 109.865c.047.187.132.363.249.517a1.438 1.438 0 00.981.55c.192.02.386.001.571-.056a1.432 1.432 0 00.854-.731 1.417 1.417 0 00.055-1.123 1.42 1.42 0 00-2.71.843zm-21.971-.879a1.42 1.42 0 102.755-.693 1.42 1.42 0 00-2.755.693z" fill="#263238"/><path d="M450.639 94.507s6.096-4.06 10.384 2.264m-23.971-.266s-2.698-3.697-9.215.494" stroke="#263238" stroke-width="2" stroke-miterlimit="10" stroke-linecap="round"/><path d="M440.232 107.913s-.735 5.228-2.228 6.469c-1.494 1.24-5.228 3.794-2.614 4.709 2.614.916 7.89 1.783 9.889 1.205a3.093 3.093 0 002.229-2.409m-7.168 9.143a17.67 17.67 0 0010.408-.711c5.42-2.132 5.637-5.011 5.637-5.011m-1.53-.928l3.686 1.831" stroke="#263238" stroke-miterlimit="10"/><path d="M468.395 198.945c38.168-8.777 61.994-46.833 53.218-85.001-8.777-38.168-46.833-61.994-85.001-53.217-38.168 8.776-61.994 46.832-53.218 85 8.777 38.168 46.833 61.995 85.001 53.218z" stroke="#263238" stroke-miterlimit="10"/><path d="M118.818 373.311c38.197-8.65 62.15-46.627 53.499-84.823-8.65-38.197-46.626-62.15-84.823-53.499-38.197 8.65-62.15 46.627-53.5 84.823 8.65 38.197 46.628 62.149 84.824 53.499z" fill="#FF8562"/><path d="M103.183 375.049a70.664 70.664 0 0052.434-23.211l-34.402-18.671-3.409-17.081-24.344-6.023-.855 23.104-40.534 20.092a70.646 70.646 0 0051.11 21.79z" fill="#fff" stroke="#263238" stroke-miterlimit="10"/><path d="M92.8 327.783l22.007-3.975-5.854-9.866-15.491-3.806-.663 17.647z" fill="#263238" stroke="#263238" stroke-miterlimit="10"/><path d="M127.696 262.495s-24.73-13.647-36.462-12.684C79.5 250.775 61.758 275.18 59.54 286.9c-2.216 11.72 9.191 18.068 9.818 19.02.626.952-9.504.325-8.553 7.926.952 7.601 12.997 8.878 19.972 7.613 6.974-1.265 11.72-10.143 11.72-11.407 0-1.265-3.168-9.83-3.168-9.83s6.662.627 7.613-5.071c.952-5.697 6.336-18.393 13.624-18.707 7.287-.313 12.997.639 13.635 2.217a52.353 52.353 0 011.205 7.613 18.27 18.27 0 0014.997-3.807c6.661-5.709 9.191-21.236.325-24.404a10.453 10.453 0 00-13.033 4.432z" fill="#263238" stroke="#263238" stroke-linecap="round" stroke-linejoin="round"/><path d="M86.343 294.958l-12.744 7.228s4.818 5.854 6.89 6.541c2.072.686 5.505-.35 5.505-.35s5.854 6.89 10.335 9.998c4.481 3.108 15.153 8.95 21.019 6.878 5.867-2.072 14.455-17.562 13.769-22.73-.687-5.168-3.783-13.431-3.445-17.562.337-4.132 1.035-10.685 1.035-10.685s-14.117-6.89-25.488-.337c-11.371 6.553-10.673 18.61-16.876 21.019z" fill="#fff" stroke="#263238" stroke-linecap="round" stroke-linejoin="round"/><path d="M117.348 288.755l.338 4.132s8.962 1.035 5.517 4.143a17.644 17.644 0 01-8.276 3.783m-14.117-14.817s3.445-3.433 7.576-3.096m10.336-1.035a7.222 7.222 0 016.89 1.385" stroke="#263238" stroke-linecap="round" stroke-linejoin="round"/><path d="M107.122 294.332c.825 0 1.493-1.17 1.493-2.614s-.668-2.614-1.493-2.614c-.825 0-1.494 1.17-1.494 2.614s.669 2.614 1.494 2.614zm16.924-4.204c0 1.446-.663 2.626-1.494 2.626s-1.494-1.205-1.494-2.626c0-1.421.675-2.614 1.494-2.614s1.494 1.169 1.494 2.614z" fill="#263238"/><path d="M122.926 305.016s-8.119 4.698-15.371-.433" stroke="#263238" stroke-linecap="round" stroke-linejoin="round"/><path d="M103.183 375.05a70.693 70.693 0 0052.446-23.224l-23.272-13.455-8.155 23.019-28.186.421-18.358-20.923-.47-.06-25.115 12.431a70.665 70.665 0 0051.11 21.791z" fill="#263238" stroke="#263238" stroke-miterlimit="10"/><path d="M118.818 373.311c38.197-8.65 62.15-46.627 53.499-84.823-8.65-38.197-46.626-62.15-84.823-53.499-38.197 8.65-62.15 46.627-53.5 84.823 8.65 38.197 46.628 62.149 84.824 53.499zm-15.635-171.91c39.164 0 70.912-31.749 70.912-70.913s-31.748-70.913-70.912-70.913S32.27 91.324 32.27 130.488s31.749 70.913 70.913 70.913z" stroke="#263238" stroke-miterlimit="10"/><path d="M116.313 82.33a9.295 9.295 0 009.154-.218c4.469-2.903 1.349-4.252.446-6.022-.904-1.771 1.349-2.241 1.795-4.698.445-2.458-1.121-4.47-2.012-4.686-.891-.217-.674-2.686-.674-5.144a5.506 5.506 0 00-4.241-4.697c-1.349 0-2.24-1.783-3.131-4.024-.892-2.24-2.687-4.24-5.806-2.903-3.12 1.337-4.698 1.35-6.264-.891-1.566-2.24-5.36-2.686-6.698-1.566-1.337 1.12-2.011 3.349-4.697 1.12a5.77 5.77 0 00-7.601-.228c-1.566 1.565-1.337 3.36-3.794 2.409-2.458-.952-6.481.457-7.373 3.132-.89 2.674-5.817 5.589-7.6 4.914-1.783-.675-4.915 0-3.349 3.36 1.566 3.362-.229 5.578-1.566 5.578s-4.252.903-2.686 3.806c1.566 2.903 2.686 5.132.891 6.023-1.794.892-4.685 1.108-2.409 4.915 2.277 3.806 4.023 3.614 3.36 5.806-.662 2.192-2.01 2.903 0 4.469 2.012 1.566 4.47 2.24 4.47 3.614 0 1.373-2.686 2.011.445 3.131a24.77 24.77 0 005.59 1.337s4.457-12.057 17.25-16.08c12.792-4.024 20.115-3.614 23.018-2.012 2.903 1.602 3.482-.446 3.482-.446z" fill="#263238" stroke="#263238" stroke-linecap="round" stroke-linejoin="round"/><path d="M103.183 201.4a70.776 70.776 0 01-15.997-1.831 6817.5 6817.5 0 01-5.589-29.572s12.046-3.325 15.732-3.927c3.686-.602 14.515-1.819 14.515-1.819l16.333 7.565s1.952 10.78 3.903 23.428a70.536 70.536 0 01-28.897 6.156z" fill="#fff" stroke="#263238" stroke-miterlimit="10"/><path d="M82.645 175.611l45.267-3.855.265.121s.386 2.156 1 5.673l-45.388 3.843-1.144-5.782zm2.735 14.455l45.255-3.855c.301 1.843.614 3.794.939 5.818l-45.087 3.818c-.385-1.939-.746-3.878-1.108-5.781z" fill="#263238"/><path d="M114.265 155.783s3.324 12.708 3.613 19.358c.29 6.649-6.649 12.106-16.635 11.19-9.986-.915-11.792-11.793-11.792-14.455 0-2.662-.603-25.705-.603-25.705a97.826 97.826 0 0010.588 7.866c5.758 3.565 14.829 1.746 14.829 1.746z" fill="#B5B5B5" stroke="#263238" stroke-miterlimit="10"/><path d="M105.194 166.673c-9.456-4.554-14.177-13.407-16.297-19.008v-1.494a97.826 97.826 0 0010.588 7.866c5.746 3.613 14.816 1.807 14.816 1.807s2.084 7.938 3.096 14.551a38.314 38.314 0 01-12.203-3.722z" fill="#263238" stroke="#263238" stroke-miterlimit="10"/><path d="M127.9 116.25s4.819-6.264 5.782 2.409c.964 8.673-8.191 17.345-8.191 17.345V116.25" fill="#B5B5B5"/><path d="M127.9 116.25s4.819-6.264 5.782 2.409c.964 8.673-8.191 17.345-8.191 17.345V116.25" stroke="#263238" stroke-linecap="round" stroke-linejoin="round"/><path d="M72.804 107.239s.373-13.419 5.36-21.08c4.987-7.66 15.49-12.37 27.211-10.347 14.551 2.494 21.08 13.407 23.381 22.61 2.3 9.203-.386 22.61-.386 31.812 0 9.203-10.732 25.682-13.792 28.356-3.06 2.674-7.806 3.614-13.25.843-4.963-2.517-13.118-11.106-18.069-16.093-4.95-4.987-7.902-19.767-8.709-23.236-.807-3.469-1.746-12.865-1.746-12.865z" fill="#B5B5B5" stroke="#263238" stroke-linecap="round" stroke-linejoin="round"/><path d="M113.434 133.282s.457 2.903-6.252 2.409m8.263 5.192s-7.817 5.361-15.66.217" stroke="#263238" stroke-linecap="round" stroke-linejoin="round"/><path d="M115.445 120.996c0 1.602.759 2.903 1.687 2.903.927 0 1.674-1.301 1.674-2.903s-.759-2.903-1.674-2.903c-.916 0-1.687 1.301-1.687 2.903zm-17.442 1.433c0 1.602.747 2.903 1.674 2.903.928 0 1.675-1.301 1.675-2.903s-.747-2.915-1.675-2.915c-.927 0-1.674 1.301-1.674 2.915z" fill="#263238"/><path d="M122.6 111.829s-2.011-4.469-8.709-2.228m-11.178 1.782s-6.252-3.349-13.19 1.783" stroke="#263238" stroke-linecap="round" stroke-linejoin="round"/><path d="M53.856 181.393c.144-2.024-.084-5.577 2.349-6.927 1.65-.915 13.25-3.613 22.14-5.577 5.842-1.301 10.54-2.288 10.54-2.288s1.132 17.165 2.409 33.727a70.68 70.68 0 01-37.438-18.935zm79.501 13.25a261.616 261.616 0 00-5.541-25.754c8.914 1.976 20.478 4.662 22.14 5.577 2.518 1.398 2.192 5.108 2.409 7.107a70.906 70.906 0 01-19.008 13.07z" fill="#FF8562" stroke="#263238" stroke-miterlimit="10"/><path d="M78.875 197.113c-.832-15.045-.53-28.199-.53-28.199 5.842-1.301 10.54-2.289 10.54-2.289s1.132 17.165 2.409 33.728a70.983 70.983 0 01-12.42-3.24z" fill="#FF8562" stroke="#263238" stroke-miterlimit="10"/><path d="M105.375 75.812c14.551 2.494 21.08 13.407 23.381 22.61.41 1.721.676 3.474.795 5.24a23.875 23.875 0 00-2.132-2.831 63.604 63.604 0 00-12.046-11.07s-1.927 4.818-13.009 10.588-26.007 5.3-26.007 5.3 2.891.964.482 6.264a145.285 145.285 0 01-2.734 5.673c-.65-4.179-1.301-10.347-1.301-10.347s.373-13.419 5.36-21.08c4.987-7.66 15.49-12.37 27.211-10.347z" fill="#263238" stroke="#263238" stroke-linecap="round" stroke-linejoin="round"/><path d="M77.766 125.404s-2.89-11.082-7.709-5.781c-4.818 5.3.964 13.009 3.855 16.863 2.89 3.855 7.709.964 7.709.964" fill="#B5B5B5"/><path d="M77.766 125.404s-2.89-11.082-7.709-5.781c-4.818 5.3.964 13.009 3.855 16.863 2.89 3.855 7.709.964 7.709.964" stroke="#263238" stroke-linecap="round" stroke-linejoin="round"/><path d="M117.276 166.456l4.818 32.306s10.119-2.843 13.492-5.324l-6.397-24.85a32.774 32.774 0 00-11.913-2.132z" fill="#FF8562" stroke="#263238" stroke-miterlimit="10"/><path d="M279.567 160.481a53.63 53.63 0 013.337 8.866c1.204 4.553.915 7.89 3.613 10.022 2.699 2.132 5.758 2.722 5.156 5.457a4.444 4.444 0 01-3.036 3.336s-1.517 13.66-2.12 18.514c-.602 4.855-16.695 0-16.695 0l-2.939 15.431-19.731 1.204-2.132-16.695a51.8 51.8 0 01-10.01-23.368c-2.132-13.961 5.758-30.355 22.453-30.355 16.696 0 22.104 7.588 22.104 7.588z" fill="#fff" stroke="#263238" stroke-miterlimit="10"/><path d="M287.457 195.69s-3.614 1.205-5.77-1.204m.614-19.128l1.217 3.951m-1.217-6.348a2.408 2.408 0 00-2.409 2.409" stroke="#263238" stroke-miterlimit="10"/><path d="M237.973 230.9s7.228-9.708 8.493-10.01c1.264-.301 14.575-3.336 20.947-1.818 6.372 1.517 7.89 4.553 12.744 5.757 3.439.651 6.984.444 10.323-.602a13.71 13.71 0 01-4.818 4.553 21.542 21.542 0 01-6.986 2.12c-3.72.712-7.55.609-11.227-.301-7.589-1.518-20.646-1.819-20.646-1.819l-8.83 2.12zm131.744-5.757s3.336-11.54 4.818-13.973a26.594 26.594 0 017.288-6.975c2.12-1.204 10.323-6.023 12.443-6.023 2.12 0 3.264 2.409 1.517 3.337-1.096.602-6.372 2.734-6.974 3.614a18.038 18.038 0 01-2.409 2.409l4.818 1.204s1.819 3.337 2.735 4.819c.915 1.481 1.818 3.035.602 5.155-1.217 2.12-2.723 5.469-4.553 6.384-1.831.916-.904-3.348-.904-3.348s-3.614 3.613-5.469 5.167a25.552 25.552 0 01-4.252 2.735l-.903 2.409-8.757-6.914zm-145.439 93.702s6.022 0 7.359-.132c1.337-.133 3.975-1.205 4.819-1.205.843 0 1.301 6.107-.88 11.347-2.18 5.24-7.841 8.059-7.841 8.059l-6.987-7.408s3.096-7.179 3.53-10.661zm5.348 109.086s-2.807 16.057-.807 30.909c1.999 14.852 13.25 72.683 13.25 72.683l-4.409 16.864s-4.818 2.807-2.409 4.012c2.409 1.204 14.045 0 14.045 0s1.614-7.228 2.819-10.842c1.205-3.613 4.818-6.022 3.204-10.443-1.614-4.421-2.806-8.83-2.806-8.83l5.625-85.921-28.512-8.432z" fill="#fff" stroke="#263238" stroke-miterlimit="10"/><path d="M254.307 528.187c-1.891-.133-5.902 0-7.42 3.336-1.999 4.409-6.42 15.25-6.42 15.25l-4.421 2.819-.421.277c-.94.867-1.615 1.915-.374 2.53 2.409 1.204 14.045 0 14.045 0s1.614-7.228 2.819-10.842c1.205-3.613 4.818-6.022 3.204-10.443a98.884 98.884 0 01-1.012-2.927z" fill="#263238" stroke="#263238" stroke-miterlimit="10"/><path d="M248.899 535.534l1.807 16.864h2.806l1.41-18.273s-4.819-3.409-6.023 1.409z" fill="#263238" stroke="#263238" stroke-miterlimit="10"/><path d="M281.422 433.544l7.227 15.262s1.205 21.923 6.83 35.173c5.626 13.25 16.864 34.535 16.864 34.535l3.614 6.42s-5.228 6.023-3.614 9.637c1.614 3.614 8.432 5.625 11.239 8.034 2.806 2.41 3.409 9.794 6.625 9.794s12.046.807 12.853-1.205c.807-2.012-4.421-4.421-4.421-4.421s-7.733-14.647-8.528-16.659c-.795-2.012-12.95-70.069-13.757-78.092-.807-8.022-3.216-22.092-3.216-22.092l-31.716 3.614z" fill="#fff" stroke="#263238" stroke-miterlimit="10"/><path d="M331.412 547.183s-6.228-9.794-9.432-14.214a15.775 15.775 0 00-7.83-5.565c-1.337 2.071-2.758 5.035-1.807 7.167 1.602 3.613 8.035 5.613 9.986 8.757 2.722 4.385 4.662 9.07 7.878 9.07s12.046.807 12.853-1.204c.807-2.012-4.421-4.421-4.421-4.421-1.205-.398-7.227.41-7.227.41z" fill="#263238" stroke="#263238" stroke-miterlimit="10"/><path d="M312.343 536.077l1.385 16.924h2.542l1.47-12.648s.313-5.541-5.397-4.276zm-80.706-217.364s-9.636 20.478-12.045 34.932c-2.409 14.455 1.807 40.956 1.807 40.956l-1.807 36.137s34.932 9.034 59.023 9.034a168.961 168.961 0 0043.967-6.023s.602-39.148-4.216-57.819c-4.818-18.671-15.659-49.99-16.262-51.796-.602-1.807-4.818-7.228-4.818-7.228s-38.546 7.83-65.649 1.807z" fill="#263238" stroke="#263238" stroke-miterlimit="10"/><path d="M241.105 376.665l37.896 34.607m-25.537-12.359l17.298 13.997" stroke="#707070" stroke-miterlimit="10"/><path d="M241.322 230.298s-23.682 9.709-24.585 12.443c-.903 2.734-7.89 17.611-7.89 17.611s-28.536 43.701-27.934 45.833c.602 2.133 33.391 22.164 33.391 22.164s-.904.916 0 1.518a70.926 70.926 0 007.89 2.409s4.818-4.553 4.818-8.805-1.205-6.023-2.12-6.372c-.916-.349-5.156-2.735-5.156-2.735l-1.204-.301-13.082-13.949 16.394-22.766s14.576 26.103 14.576 29.44c0 3.336-7.288 11.238-5.77 14.876 1.517 3.638 6.974 4.553 28.223 6.673 21.248 2.12 39.16-4.818 40.955-6.372 1.795-1.554-3.036-10.925-3.036-17.912 0-6.986.301-32.523.301-32.523s30.669 12.744 36.74 9.408c6.071-3.337 42.798-43.1 42.798-43.1l5.457-5.155-12.142-11.239-8.191 7.288-35.21 27.922s-1.819-1.819-2.734-1.819c-.917.047-1.83.148-2.735.301 0 0-23.067-15.78-25.801-18.213-2.735-2.433-10.312-2.722-10.312-2.722l-14.876-2.735s-16.322-6.637-28.765-1.168z" fill="#fff" stroke="#263238" stroke-miterlimit="10"/><path d="M297.166 271.578l-18.514-3.336m13.659 2.734l-16.996 5.155m3.072 35.825a38.58 38.58 0 002.698-3.349m-26.103 18.538a62.557 62.557 0 0020.477-12.274m5.879-12.938s-6.975 3.951-14.262 8.191m-50.52-46.436l5.336 13.66s-10.323-8.191-11.527-11.841m3.939-7.589l1.048 2.687m-11.371 14.311s5.468 2.734 13.973.614m-13.973 23.669c-4.044.68-8.186.474-12.142-.602m3.975-3.975s4.553 2.132 7.89 2.132" stroke="#263238" stroke-miterlimit="10"/><path d="M218.556 314.075s3.035 11.54-4.252 14.262l4.252-14.262z" fill="#fff"/><path d="M218.556 314.075s3.035 11.54-4.252 14.262m149.643-101.375l12.756 10.925m-56.434 27.043a70.885 70.885 0 01-2.156 2.096m8.504-9.108s-1.686 2.048-3.999 4.554m.048-5.769a48.616 48.616 0 01-9.407 7.227" stroke="#263238" stroke-miterlimit="10"/><path d="M280.446 154.471s2.145 5.601-2.156 19.791c-4.3 14.189-8.179 23.669-6.023 32.704 2.157 9.034 7.312 10.756 8.179 9.467a17.914 17.914 0 013.012-3.011s.855 3.433-3.012 6.444c-3.866 3.012-18.935 6.023-28.403 4.734-9.468-1.289-15.491 2.566-18.888-5.589-3.397-8.155-1.722-21.08-2.59-26.247-.867-5.168-9.455-12.046-3.433-27.537 6.023-15.49 30.115-17.213 38.281-17.213 8.167 0 13.732-2.578 15.033 6.457z" fill="#263238" stroke="#263238" stroke-miterlimit="10"/><path d="M381.594 150.435c11.376 0 20.598-9.222 20.598-20.598s-9.222-20.598-20.598-20.598-20.598 9.222-20.598 20.598 9.222 20.598 20.598 20.598z" fill="#fff" stroke="#263238" stroke-miterlimit="10"/><path d="M373.282 124.778l8.842 9.637 17.659-25.694" stroke="#263238" stroke-width="3" stroke-linecap="round" stroke-linejoin="round"/><path d="M52.185 318.7c8.044-8.044 8.044-21.086 0-29.131-8.044-8.044-21.086-8.044-29.13 0-8.044 8.045-8.044 21.086 0 29.131 8.044 8.044 21.086 8.044 29.13 0z" fill="#fff" stroke="#263238" stroke-miterlimit="10"/><path d="M29.307 299.078l8.83 9.636 17.67-25.693" stroke="#263238" stroke-width="3" stroke-linecap="round" stroke-linejoin="round"/></svg>