<svg width="1920" height="1125" fill="none" xmlns="http://www.w3.org/2000/svg"><path opacity=".2" fill-rule="evenodd" clip-rule="evenodd" d="M2274.56 1123.87c-112.36 5.56-395.22-15.06-627.87-142.003-72.7-39.672-95.62-75.17-95.73-108.147-.06-16.468 5.58-32.259 13.47-47.562 5.7-11.049 12.57-21.866 19.34-32.507v-.002l.02-.018c2.59-4.084 5.17-8.142 7.66-12.177 9-14.572 16.83-28.854 20.12-43.069 3.29-14.197 2.06-28.324-7.08-42.611-9.14-14.303-26.23-28.795-54.7-43.663-28.47-14.865-68.3-30.092-122.9-45.88-164.46-47.55-285.05-49.392-387.08-50.95-33.47-.511-64.943-.991-95.311-3.045-61.47-4.157-118.405-14.762-178.178-45.133-59.768-30.368-122.352-80.487-195.143-163.64-72.733-83.087-141.688-120.558-208.755-132.727-67.079-12.172-132.312.958-197.623 19.158-15.806 4.404-31.617 9.106-47.459 13.817l-.001.001c-115.039 34.211-231.731 68.914-360.185-6.223l.326-.572c128.191 74.983 244.594 40.372 359.648 6.163h.001c15.846-4.712 31.666-9.416 47.487-13.825 65.33-18.204 130.683-31.371 197.915-19.171 67.244 12.201 136.326 49.768 209.138 132.944 72.754 83.112 135.273 133.167 194.943 163.485 59.666 30.316 116.505 40.909 177.923 45.062 30.327 2.051 61.774 2.531 95.224 3.041 102.04 1.558 222.75 3.401 387.3 50.979 54.63 15.793 94.5 31.035 123.03 45.929 28.52 14.892 45.72 29.452 54.95 43.896 9.25 14.46 10.5 28.776 7.17 43.122-3.32 14.329-11.2 28.691-20.2 43.267-2.5 4.058-5.09 8.132-7.7 12.227v.004c-6.76 10.632-13.61 21.409-19.29 32.429-7.87 15.26-13.46 30.94-13.4 47.257.1 32.593 22.73 67.919 95.38 107.56 232.5 126.864 515.23 147.474 627.52 141.924l.04.66zm-585.38-171.753c232.65 126.943 515.51 147.563 627.87 142.003l-.04-.66c-112.29 5.55-395.02-15.06-627.52-141.925-72.65-39.641-95.28-74.966-95.38-107.56-.06-16.316 5.53-31.997 13.4-47.257 5.68-11.019 12.53-21.796 19.29-32.427v-.005c2.61-4.096 5.2-8.17 7.7-12.228 9-14.576 16.88-28.938 20.2-43.266 3.33-14.346 2.08-28.663-7.16-43.123-9.24-14.444-26.44-29.003-54.96-43.896-28.53-14.894-68.4-30.135-123.03-45.929-164.55-47.578-285.26-49.42-387.3-50.978-33.45-.511-64.9-.991-95.223-3.042-61.417-4.153-118.257-14.746-177.923-45.062-59.67-30.318-122.189-80.373-194.943-163.484-72.812-83.177-141.894-120.744-209.138-132.945-67.232-12.199-132.585.967-197.914 19.172-15.82 4.408-31.639 9.111-47.482 13.822l-.006.002h-.001c-115.053 34.21-231.457 68.82-359.648-6.163l-.326.572c128.454 75.137 245.147 40.434 360.185 6.223h.002c15.842-4.711 31.652-9.413 47.458-13.818 65.312-18.199 130.544-31.33 197.623-19.158 67.067 12.169 136.022 49.64 208.755 132.728 72.791 83.152 135.375 133.272 195.144 163.64 59.772 30.37 116.707 40.975 178.177 45.132 30.37 2.054 61.84 2.535 95.31 3.046 102.03 1.558 222.62 3.399 387.08 50.95 54.6 15.787 94.43 31.014 122.9 45.88 28.47 14.867 45.56 29.359 54.7 43.662 9.14 14.287 10.37 28.414 7.08 42.611-3.29 14.215-11.12 28.497-20.12 43.07-2.49 4.035-5.07 8.092-7.66 12.176l-.01.018-.01.002c-6.76 10.641-13.64 21.459-19.34 32.508-7.88 15.302-13.52 31.093-13.47 47.562.11 32.976 23.03 68.475 95.73 108.147zm670.36 112.253c-112.36 5.55-395.22-15.07-627.87-142.01-72.7-39.672-95.62-75.171-95.73-108.147-.05-16.469 5.59-32.259 13.47-47.562 5.7-11.05 12.58-21.868 19.34-32.51 2.61-4.089 5.19-8.153 7.68-12.194 9-14.572 16.83-28.854 20.12-43.069 3.29-14.197 2.06-28.324-7.08-42.611-9.14-14.304-26.23-28.796-54.7-43.663-28.47-14.866-68.3-30.092-122.9-45.88-164.46-47.551-285.05-49.392-387.08-50.95-33.47-.511-64.94-.992-95.31-3.045-61.47-4.157-118.405-14.763-178.177-45.133-59.769-30.368-122.353-80.487-195.144-163.64-72.74-83.095-140.447-125.234-205.641-144.391-65.199-19.159-127.917-15.344-190.705-6.468-17.261 2.44-34.528 5.263-51.852 8.095h-.001l-.002.001h-.001c-108.688 17.769-219.645 35.91-345.674-37.809l.326-.571c125.81 73.59 236.522 55.494 345.209 37.728h.004l.003-.001h.003c17.329-2.833 34.607-5.657 51.886-8.099 62.817-8.88 125.647-12.711 190.982 6.488 65.339 19.2 133.15 61.423 205.955 144.592 72.754 83.111 135.273 133.167 194.943 163.485 59.666 30.316 116.505 40.908 177.926 45.062 30.32 2.051 61.77 2.531 95.22 3.041 102.04 1.558 222.75 3.401 387.3 50.978 54.63 15.794 94.5 31.035 123.03 45.93 28.52 14.892 45.72 29.451 54.96 43.896 9.24 14.46 10.49 28.776 7.16 43.122-3.32 14.329-11.2 28.69-20.2 43.266-2.5 4.058-5.09 8.132-7.7 12.228v.006c-6.76 10.631-13.61 21.408-19.29 32.427-7.87 15.259-13.46 30.94-13.4 47.256.1 32.594 22.73 67.919 95.38 107.561 232.5 126.861 515.23 147.481 627.52 141.921l.04.67zm42.49-29.75c-112.36 5.55-395.22-15.07-627.87-142.008-72.7-39.672-95.62-75.17-95.73-108.147-.05-16.468 5.58-32.259 13.47-47.561 5.7-11.05 12.58-21.868 19.34-32.51 2.61-4.09 5.19-8.154 7.68-12.194 9-14.573 16.83-28.855 20.12-43.07 3.29-14.197 2.06-28.324-7.08-42.611-9.14-14.303-26.23-28.795-54.7-43.663-28.47-14.865-68.3-30.092-122.9-45.88-167.74-48.498-290.45-47.387-394.52-46.446h-.02c-31.43.285-61.16.553-89.91-.565-61.99-2.41-119.447-11.268-179.611-40.329-60.161-29.059-123.005-78.307-195.797-161.46-72.747-83.103-139.031-130.674-202.089-157.964-63.058-27.29-122.913-34.31-182.823-36.278-19.888-.653-39.783-.75-59.803-.846h-.001C149.196 72.602 45.445 72.1-76.394.833l.327-.572c121.673 71.17 225.235 71.674 325.816 72.163h.001c20.029.097 39.941.194 59.853.848 59.949 1.97 119.898 8.995 183.064 36.332 63.167 27.337 129.529 74.976 202.327 158.137 72.753 83.11 135.529 132.291 195.585 161.299 60.052 29.007 117.411 37.855 179.341 40.263 28.73 1.117 58.44.848 89.86.564 104.08-.943 226.91-2.055 394.75 46.473 54.63 15.793 94.5 31.035 123.03 45.929 28.52 14.892 45.72 29.452 54.95 43.896 9.25 14.46 10.5 28.776 7.17 43.123-3.32 14.328-11.2 28.69-20.2 43.266-2.5 4.058-5.09 8.132-7.7 12.228v.003c-6.76 10.632-13.61 21.409-19.29 32.429-7.87 15.26-13.46 30.941-13.4 47.257.1 32.593 22.73 67.919 95.38 107.56 232.5 126.859 515.23 147.479 627.52 141.929l.04.66z" fill="url(#paint0_linear_292_3680)"/><defs><linearGradient id="paint0_linear_292_3680" x1="106.024" y1="153.106" x2="2450.34" y2="748.485" gradientUnits="userSpaceOnUse"><stop offset=".31" stop-color="#252525"/><stop offset=".594" stop-color="#141414" stop-opacity=".9"/><stop offset=".852" stop-opacity=".8"/></linearGradient></defs></svg>