<svg width="485" height="503" fill="none" xmlns="http://www.w3.org/2000/svg"><path d="M444.806 340.875a22.916 22.916 0 00-22.848 22.848c0 12.617 22.848 36.395 22.848 36.395s22.848-23.832 22.848-36.395a22.916 22.916 0 00-22.848-22.848zm0 31.003a9.641 9.641 0 01-8.913-5.937 9.637 9.637 0 118.913 5.937z" fill="#263238"/><path d="M444.806 400.846a.643.643 0 01-.485-.202c-.944-.984-23.037-24.183-23.037-36.921a23.523 23.523 0 0147.044 0c0 12.738-22.093 35.937-23.037 36.921a.659.659 0 01-.485.202zm0-59.31a22.201 22.201 0 00-22.174 22.174c0 11.188 18.871 31.933 22.174 35.464 3.289-3.531 22.174-24.263 22.174-35.464a22.188 22.188 0 00-22.174-22.161v-.013zm0 31.003a10.314 10.314 0 01-7.315-17.594 10.313 10.313 0 0117.613 7.268 10.299 10.299 0 01-3.006 7.305 10.307 10.307 0 01-7.292 3.034v-.013zm0-19.262a8.959 8.959 0 00-8.808 10.699 8.96 8.96 0 007.033 7.053 8.957 8.957 0 009.207-3.797 8.961 8.961 0 001.518-4.978 8.962 8.962 0 00-8.95-8.924v-.053zM161.978 34.486c-10.527-5.554-24.492-6.619-37.325-2.831-12.832 3.788-24.263 12.401-30.005 22.915a3.464 3.464 0 004.044 5 3.397 3.397 0 002.049-1.657c4.933-8.95 14.611-16.283 25.894-19.6 11.282-3.315 23.158-2.426 32.135 2.306a3.466 3.466 0 103.235-6.133h-.027z" fill="#263238"/><path d="M155.723 46.792a40.829 40.829 0 00-49.092 14.585 3.463 3.463 0 003.882 5.23 3.355 3.355 0 001.914-1.348 33.927 33.927 0 0140.533-12.037 3.47 3.47 0 004.85-3.122 3.485 3.485 0 00-.974-2.47 3.475 3.475 0 00-1.113-.77v-.068z" fill="#263238"/><path d="M149.375 59.005a25.275 25.275 0 00-31.003 9.584 3.48 3.48 0 00.957 4.812 3.517 3.517 0 004.812-.903 18.343 18.343 0 0122.618-7.063 3.47 3.47 0 004.516-1.914 3.468 3.468 0 00-1.914-4.516h.014z" fill="#263238"/><path d="M135.895 69.802a8.332 8.332 0 00-1.697 15.296 8.332 8.332 0 0012.023-9.608 8.326 8.326 0 00-7.085-5.968 8.331 8.331 0 00-3.241.28zM444.24 109.85H384a8.926 8.926 0 00-8.924 8.923v32.203a8.926 8.926 0 008.924 8.923h1.874c-1.874 4.152-5.473 10.474-11.256 14.235 0 0 12.213-.849 24.937-14.235h44.658a8.926 8.926 0 008.923-8.923v-32.203a8.922 8.922 0 00-8.896-8.923z" fill="#263238"/><path d="M374.645 174.808a.673.673 0 01-.643-.894.691.691 0 01.265-.346c5.15-3.343 8.546-8.735 10.568-12.995H384a9.608 9.608 0 01-9.571-9.597v-32.203a9.602 9.602 0 012.806-6.768 9.603 9.603 0 016.765-2.816h60.213a9.608 9.608 0 016.786 2.811 9.607 9.607 0 012.811 6.787v32.189a9.595 9.595 0 01-9.597 9.597h-44.334c-12.698 13.224-24.681 14.194-25.194 14.235h-.04zM384 110.537a8.252 8.252 0 00-8.25 8.25v32.189a8.249 8.249 0 008.25 8.25h1.873a.658.658 0 01.607.957 36.327 36.327 0 01-9.139 12.765c4.273-1.065 12.913-4.233 21.729-13.48a.652.652 0 01.485-.216h44.658a8.249 8.249 0 008.249-8.249v-32.23a8.25 8.25 0 00-8.249-8.249l-60.213.013z" fill="#263238"/><path d="M403.774 133.722a4.599 4.599 0 00-7.847-3.251 4.6 4.6 0 00-.996 5.01 4.599 4.599 0 006 2.488 4.58 4.58 0 002.83-4.234l.013-.013zm11.027 4.596a4.596 4.596 0 100-9.193 4.596 4.596 0 000 9.193zm20.205-4.596a4.597 4.597 0 10-9.193 0 4.597 4.597 0 009.193 0z" fill="#fff"/><path d="M29.824 308.748c13.091-1.288 22.66-12.945 21.371-26.037-1.288-13.091-12.945-22.659-26.036-21.371-13.091 1.288-22.66 12.945-21.371 26.036 1.288 13.092 12.945 22.66 26.036 21.372z" fill="#263238"/><path d="M27.52 309.522a24.494 24.494 0 01-24.022-29.27 24.497 24.497 0 0119.244-19.244 24.49 24.49 0 0129.27 24.022 24.48 24.48 0 01-24.492 24.492zm0-47.636a23.145 23.145 0 10-.002 46.29 23.145 23.145 0 00.002-46.29z" fill="#263238"/><path d="M16.776 270.189l25.692 14.841-25.692 14.841v-29.682z" fill="#fff"/><path d="M16.777 300.599a.583.583 0 01-.337-.094.652.652 0 01-.337-.58V270.27a.648.648 0 01.337-.58.675.675 0 01.674 0l25.692 14.828a.662.662 0 01.27.89.652.652 0 01-.27.269l-25.692 14.828a.616.616 0 01-.337.094zm.674-29.183v27.336l23.67-13.668-23.67-13.668zm66.845 194.078a22.161 22.161 0 01-11.876-3.182c-17.038-10.217-27.08-25.395-31.326-44.59a26.135 26.135 0 01-.35-12.037 17.635 17.635 0 0113.169-13.614 4.903 4.903 0 016.2 2.871 131.144 131.144 0 014.044 13.479 4.368 4.368 0 01-2.696 4.88 60.616 60.616 0 01-6.133 2.696 2.06 2.06 0 00-1.577 2.466c.042.214.12.419.229.607a74.139 74.139 0 0018.48 28.577c1.24 1.199 2.13.997 3.263-.243a33.558 33.558 0 014.73-4.448 4.852 4.852 0 016.241-.068 106.36 106.36 0 019.302 7.738c3.41 3.343 3.18 6.551-.243 9.88a16.782 16.782 0 01-11.457 4.988z" fill="#263238"/><path d="M84.296 466.168a23.002 23.002 0 01-12.132-3.276c-16.58-9.934-27.229-25.085-31.65-45.021a26.558 26.558 0 01-.35-12.348 18.25 18.25 0 0113.587-14.099 5.565 5.565 0 017.023 3.289 125.986 125.986 0 014.044 13.601 4.961 4.961 0 01-3.06 5.621 71.623 71.623 0 01-6.174 2.763c-1.186.458-1.429.997-.984 2.211a73.897 73.897 0 0018.319 28.307c.277.322.659.536 1.078.606.324 0 .715-.269 1.213-.822a34.1 34.1 0 014.826-4.529 5.502 5.502 0 017.063-.068l1.213.958a86.923 86.923 0 018.088 6.834 7.45 7.45 0 012.696 5.27 7.923 7.923 0 01-2.885 5.54 17.52 17.52 0 01-11.902 5.109l-.013.054zM55.57 392.516c-.502 0-1 .068-1.483.202a17.025 17.025 0 00-12.698 13.129 25.61 25.61 0 00.35 11.727c4.341 19.559 14.828 34.427 31.003 44.159a21.354 21.354 0 0011.512 3.087 16.097 16.097 0 0010.986-4.731 6.755 6.755 0 002.467-4.61 6.154 6.154 0 00-2.238-4.314 89.214 89.214 0 00-8.02-6.74l-1.213-.957a4.19 4.19 0 00-5.392.081 32.362 32.362 0 00-4.637 4.368 3.095 3.095 0 01-2.157 1.253 2.697 2.697 0 01-2.076-.984 75.213 75.213 0 01-18.642-28.833 2.689 2.689 0 01-.228-2.054 2.704 2.704 0 011.293-1.612c.218-.113.449-.199.687-.256a72.802 72.802 0 006.066-2.696 3.665 3.665 0 002.359-4.111 130.197 130.197 0 00-4.044-13.48 4.044 4.044 0 00-3.895-2.628zm52.638 33.537c-.283 2.143-.445 4.313-.876 6.443a3.15 3.15 0 01-3.464 2.817 4.391 4.391 0 01-.58-.121c-1.766-.418-2.696-2.076-2.292-4.259a26.839 26.839 0 00-19.76-30.936 10.4 10.4 0 01-1.78-.526 3.095 3.095 0 01-1.9-3.639 2.91 2.91 0 013.208-2.588h.323a42.238 42.238 0 018.614 2.871 33.698 33.698 0 0118.507 29.938z" fill="#263238"/><path d="M104.218 436.014a5.396 5.396 0 01-1.132-.135c-2.116-.512-3.248-2.534-2.79-5.041a26.163 26.163 0 00-19.262-30.168l-.472-.107a6.035 6.035 0 01-1.442-.459 3.76 3.76 0 01-2.265-4.381 4.046 4.046 0 011.712-2.696 3.33 3.33 0 012.696-.404 43.496 43.496 0 018.748 2.912 34.195 34.195 0 0118.871 30.45v.094c-.08.661-.161 1.348-.229 1.968-.162 1.483-.337 3.02-.647 4.529a4.2 4.2 0 01-1.685 2.818 3.658 3.658 0 01-2.103.62zm-23.872-42.097a1.917 1.917 0 00-1.051.297 2.683 2.683 0 00-1.119 1.779 2.454 2.454 0 001.537 2.912c.366.158.751.272 1.145.337l.513.121a27.538 27.538 0 0120.219 31.717c-.337 1.806.35 3.141 1.766 3.478a2.698 2.698 0 002.116-.243 2.94 2.94 0 001.159-1.954c.297-1.443.459-2.952.634-4.422.067-.633.135-1.347.229-1.927a32.848 32.848 0 00-18.184-29.21 41.593 41.593 0 00-8.465-2.817 2.08 2.08 0 00-.499 0v-.068z" fill="#263238"/><path d="M97.034 427.724c-.108.809-.216 2.373-.526 3.882a3.24 3.24 0 01-1.227 2.164 3.234 3.234 0 01-2.4.654h-.12a3.41 3.41 0 01-2.696-4.044c.269-1.962.31-3.947.121-5.918-1.267-7.454-5.675-12.212-12.967-14.288-2.373-.674-3.586-2.17-3.154-4.044.43-1.874 2.237-2.898 4.704-2.372 10.393 2.291 18.292 12.306 18.265 23.966z" fill="#263238"/><path d="M93.34 435.124h-.687a4.044 4.044 0 01-3.316-4.664c0-.418.067-.849.108-1.28a17.73 17.73 0 000-4.475c-1.213-7.118-5.392-11.755-12.482-13.763-2.696-.768-4.138-2.629-3.626-4.839.512-2.211 2.696-3.505 5.486-2.871 10.945 2.386 18.871 12.724 18.871 24.613v.081c.01.26-.022.519-.094.768a32.01 32.01 0 01-.445 3.155 3.935 3.935 0 01-3.815 3.275zm-15.96-30.827a2.504 2.504 0 00-2.695 1.994c-.486 2.117 1.712 2.979 2.696 3.249 7.615 2.157 12.131 7.144 13.48 14.828a19.275 19.275 0 010 4.825c0 .418-.082.836-.109 1.254a2.696 2.696 0 002.117 3.289 2.585 2.585 0 002.608-1.219c.176-.292.293-.615.344-.951v-.108c.215-1.079.337-2.211.43-3.033-.016-.255.011-.51.082-.755 0-11.228-7.468-21.001-17.78-23.252a5.637 5.637 0 00-1.172-.121z" fill="#263238"/><path d="M79.214 428.843a7.535 7.535 0 00-5.742-8.263c-2.292-.701-3.357-2.318-2.818-4.259.54-1.941 2.319-2.696 4.678-2.089a14.191 14.191 0 0110.339 15.946c-.418 2.372-1.658 3.464-3.694 3.248-2.035-.215-2.965-1.604-2.817-4.043.014-.176.04-.364.054-.54z" fill="#263238"/><path d="M82.449 434.127h-.54c-2.358-.243-3.598-1.968-3.41-4.745v-.566a6.875 6.875 0 00-5.27-7.562c-2.696-.822-3.91-2.777-3.275-5.095.633-2.319 2.79-3.249 5.5-2.561a14.933 14.933 0 0110.85 16.714c-.404 2.467-1.78 3.815-3.855 3.815zm-8.6-19.424a2.412 2.412 0 00-2.575 1.82c-.444 1.59.418 2.844 2.373 3.451a8.208 8.208 0 016.214 8.936v.54c-.202 3.073 1.617 3.262 2.21 3.329 1.052.108 2.508 0 2.966-2.696a13.48 13.48 0 00-9.854-15.178 5.527 5.527 0 00-1.334-.202z" fill="#263238"/><path d="M60.316 414.002a.678.678 0 01-.634-.445l-.782-2.197a.673.673 0 01.337-.89.65.65 0 01.256-.062.646.646 0 01.483.183.66.66 0 01.15.216v.108l.783 2.184a.686.686 0 01-.418.863.62.62 0 01-.175.04zm-1.632-4.61a.647.647 0 01-.633-.445l-5.392-15.205a.702.702 0 01.458-.89.686.686 0 01.89.445l5.392 15.205a.674.674 0 01-.405.863.792.792 0 01-.31.027zm38.093 50.36a.677.677 0 01-.445-.162l-13.088-11.431a.67.67 0 01-.232-.464.68.68 0 01.892-.692.684.684 0 01.23.132l13.088 11.444a.66.66 0 010 .916.639.639 0 01-.445.257zm-14.503-12.671a.672.672 0 01-.445-.162l-2.157-1.873a.681.681 0 01-.147-.738.666.666 0 01.147-.219.66.66 0 01.93-.081l2.157 1.873a.69.69 0 010 .957.64.64 0 01-.485.243z" fill="#fff"/><path d="M182.737 494.286h2.696a.675.675 0 000-1.348h-2.696a.674.674 0 000 1.348zm6.263-.197a.675.675 0 00.476.197h2.75a.66.66 0 00.634-.687.7.7 0 00-.688-.661h-2.696a.671.671 0 00-.673.674c0 .179.071.35.197.477zm-13.003.13l2.696.067v-.081a.675.675 0 00.66-.579.671.671 0 00-.66-.688l-2.696-.067a.677.677 0 00-.674.674.675.675 0 00.674.674zm19.751-.251a.69.69 0 00.468.197h.027l2.696-.108a.664.664 0 00.256-.062.665.665 0 00.168-1.1.7.7 0 00-.478-.186l-2.696.108a.677.677 0 00-.647.687.686.686 0 00.206.464zm-26.491-.046l2.696.148.014-.08a.674.674 0 00.701-.594.667.667 0 00-.383-.627.66.66 0 00-.251-.06l-2.696-.135a.672.672 0 00-.714.634.676.676 0 00.633.714zm33.222-.265a.674.674 0 00.477.198h.108a90.961 90.961 0 002.696-.162.677.677 0 00.249-.07.651.651 0 00.357-.644.67.67 0 00-.714-.62l-2.696.148a.677.677 0 00-.674.674c0 .179.071.35.197.476zm-39.962-.193l2.696.202.027-.067a.663.663 0 00.701-.553.663.663 0 00-.158-.493.678.678 0 00-.462-.235l-2.696-.202a.678.678 0 00-.728.62.673.673 0 00.16.492.673.673 0 00.46.236zm46.702-.238a.677.677 0 00.477.197h.135l2.695-.202a.66.66 0 00.594-.728.667.667 0 00-.235-.461.683.683 0 00-.493-.159l-2.696.202a.674.674 0 00-.477 1.151zm-53.36-.423c.889.108 1.792.203 2.695.283h.081a.675.675 0 00.64-.391.663.663 0 00.061-.256.653.653 0 00-.379-.639.677.677 0 00-.254-.062l-2.696-.283a.692.692 0 00-.498.145.68.68 0 00-.227.719.668.668 0 00.324.405c.078.043.164.07.253.079zm60.079-.102a.66.66 0 00.457.17h.081l2.696-.256a.657.657 0 00.448-.241.658.658 0 00.145-.487.668.668 0 00-.478-.582.669.669 0 00-.263-.025l-2.696.243a.668.668 0 00-.582.478.669.669 0 00-.025.263.657.657 0 00.217.437zm-64.164-.383h.081l-.027-.067a.639.639 0 00.563-1.034.63.63 0 00-.428-.233l-2.696-.364a.682.682 0 00-.498.128.682.682 0 00-.27.438.714.714 0 00.579.768l2.696.364zm70.858-.282a.655.655 0 00.449.174h.094l2.696-.296a.681.681 0 00.339-1.208.685.685 0 00-.5-.14l-2.696.296a.677.677 0 00-.594.742c.014.165.09.32.212.432z" fill="#263238"/><path d="M400.782 15.439l-83.924 9.53 21.203 15.798 62.721-25.328z" fill="#fff"/><path d="M338.061 41.441a.715.715 0 01-.404-.121l-21.19-15.812a.679.679 0 01-.256-.714.65.65 0 01.58-.486l83.91-9.435a.673.673 0 01.728.512.646.646 0 01-.391.782l-62.721 25.341a.845.845 0 01-.256-.067zm-19.424-15.987l19.532 14.558 57.787-23.346-77.319 8.788z" fill="#263238"/><path d="M338.061 40.767l-.162 17.132 62.883-42.46-62.721 25.328z" fill="#fff"/><path d="M337.9 58.573a.688.688 0 01-.674-.674l.161-17.133a.68.68 0 01.418-.62l62.721-25.314a.658.658 0 01.849.31.677.677 0 01-.216.876l-62.882 42.447a.62.62 0 01-.377.108zm.835-17.348l-.148 15.393 56.52-38.16-56.372 22.767z" fill="#263238"/><path d="M337.899 57.9l9.841-13.884 53.042-28.577-62.883 42.46z" fill="#fff"/><path d="M337.9 58.574a.637.637 0 01-.472-.203.677.677 0 01-.068-.862l9.827-13.884a.672.672 0 01.229-.203l53.042-28.59a.687.687 0 01.903.243.7.7 0 01-.202.917l-62.882 42.447a.645.645 0 01-.377.135zm10.298-14.087l-7.602 10.784 48.62-32.836-41.018 22.052z" fill="#263238"/><path d="M347.74 44.016l27.633 20.65 25.409-49.227-53.042 28.577z" fill="#fff"/><path d="M375.373 65.34a.638.638 0 01-.405-.135l-27.633-20.65a.645.645 0 01-.269-.593.657.657 0 01.35-.54l53.042-28.59a.703.703 0 01.796.108.675.675 0 01.121.795l-25.396 49.241a.667.667 0 01-.458.35l-.148.014zm-26.42-21.23l26.164 19.545 24.034-46.585-50.198 27.04zM231.897 213.885a2.696 2.696 0 01-2.602-1.995c-.31-1.159-31.326-116.301-36.799-152.763-3.572-23.832 3.518-37.932 10.096-45.561A39.09 39.09 0 01232.827.006c23.953 0 36.206 21.728 39.333 33.213 2.696 10.002 7.306 27.404 7.36 27.579a2.694 2.694 0 01-3.958 2.923 2.695 2.695 0 01-1.259-1.575c0-.175-4.623-17.523-7.346-27.539-2.723-10.015-13.439-29.21-34.13-29.21a33.873 33.873 0 00-26.15 11.687c-5.837 6.74-12.132 19.437-8.843 41.247 5.392 36.166 36.395 150.971 36.678 152.157a2.695 2.695 0 01-2.615 3.397zM79.969 343.126c-11.27 0-20.435-3.895-25.059-15.191-9.287-22.632 19.613-37.46 53.069-54.646 10.784-5.527 21.918-11.256 32.54-17.524 40.29-24.007 37.379-40.007 37.338-40.169a2.7 2.7 0 011.96-3.185 2.698 2.698 0 013.257 1.837c.526 1.995 3.855 20.22-39.792 46.168-10.783 6.416-21.998 12.131-32.836 17.752-31.097 15.96-57.962 29.75-50.548 47.799 8.25 20.125 36.462 10.568 63.758 1.348 16.903-5.715 32.863-11.121 42.825-8.411 8.869 2.426 10.689 8.573 11.659 11.875.135.525.311 1.039.526 1.537a2.692 2.692 0 01-.207 3.765 2.7 2.7 0 01-3.769-.126 8.434 8.434 0 01-1.712-3.653c-.863-2.925-1.941-6.564-7.913-8.195-8.371-2.292-23.576 2.871-39.684 8.317-15.393 5.108-31.92 10.702-45.412 10.702zm283.272-53.015a2.683 2.683 0 01-2.151-1.016 2.7 2.7 0 01-.248-2.987c14.073-25.315 39.441-32.796 61.844-39.387a219.909 219.909 0 0023.037-7.711c8.586-3.626 13.479-12.522 11.147-20.219-3.976-13.156-27.646-23.535-82.144-13.21-24.425 4.624-43.135 2.696-55.63-5.917-10.784-7.374-12.657-16.958-12.738-17.362a2.693 2.693 0 012.16-3.091 2.695 2.695 0 013.137 2.093c.256 1.268 6.551 29.494 62.006 18.98 73.005-13.83 86.067 9.435 88.318 16.943 3.168 10.488-2.939 21.999-14.207 26.757a216.785 216.785 0 01-23.617 7.913c-22.457 6.618-45.655 13.479-58.649 36.839a2.692 2.692 0 01-2.265 1.375z" fill="#263238"/><path d="M279.655 77.89a5.39 5.39 0 01-5.19-3.963l-5.513-20.22a5.388 5.388 0 01.518-4.095 5.405 5.405 0 013.263-2.53 5.392 5.392 0 016.625 3.782l5.513 20.219a5.385 5.385 0 01-1.904 5.68 5.39 5.39 0 01-3.312 1.127z" fill="#263238"/><path d="M355.976 286.499s6.43-11.026 12.859-6.43c6.43 4.597-7.346 13.776-1.833 15.609 5.513 1.834 16.526-2.695 20.219 9.193 3.694 11.889-7.359 17.443-18.372 14.693-11.013-2.75-20.219-13.776-12.873-33.065z" fill="#fff"/><path d="M374.348 320.925a23.001 23.001 0 01-5.674-.714 20.582 20.582 0 01-13.601-10.379c-3.303-6.309-3.195-14.464.269-23.576v-.094c.162-.283 3.95-6.74 8.816-7.751a6.173 6.173 0 015.014 1.105c4.044 2.871 1.173 7.293-.889 10.528-1.106 1.739-2.251 3.531-1.955 4.381 0 .094.135.391.822.62 1.765.421 3.58.589 5.392.498 5.527 0 12.401 0 15.192 9.126 1.887 6.133-.095 9.935-2.103 12.051a15.525 15.525 0 01-11.283 4.205zm-17.766-34.13c-3.316 8.722-3.423 16.472-.323 22.417a19.328 19.328 0 0012.738 9.691c6.295 1.578 12.482.351 15.771-3.113 2.507-2.696 3.127-6.363 1.793-10.784-2.507-8.088-8.56-8.088-13.911-8.169a20.415 20.415 0 01-5.864-.566 2.444 2.444 0 01-1.671-1.455c-.526-1.47.687-3.357 2.089-5.554 2.454-3.855 4.044-6.74 1.24-8.694a4.768 4.768 0 00-3.949-.89c-4.044.93-7.576 6.551-7.913 7.117z" fill="#263238"/><path d="M382.53 318.944a.727.727 0 01-.377-.108.672.672 0 01-.189-.93c7.724-11.781-4.745-20.556-5.284-20.92a.688.688 0 01.01-1.129.67.67 0 01.505-.095.645.645 0 01.24.105c.135.094 14.1 9.894 5.635 22.767a.663.663 0 01-.54.31z" fill="#263238"/><path d="M360.815 434.815l-134.296 20.96c-8.951 1.348-18.076-6.092-20.368-16.741l-69.743-323.59c-4.044-15.259 9.692-23.387 18.642-24.789l127.705-17.982c8.951-1.348 18.063 6.093 20.368 16.742l78.707 323.064c2.291 10.662-3.222 19.68-21.015 22.336z" fill="#fff"/><path d="M224.362 456.625c-8.505 0-16.688-7.36-18.871-17.443l-69.743-323.603a18.149 18.149 0 012.156-15.124c4.206-6.417 11.808-9.652 17.052-10.46l127.705-17.996c9.274-1.442 18.75 6.309 21.109 17.281l78.707 323.051a16.71 16.71 0 01-2.184 13.479c-3.45 4.988-9.961 8.223-19.383 9.638l-134.283 20.961c-.748.132-1.505.204-2.265.216zm60.55-383.453c-.69 0-1.38.054-2.062.162L155.145 91.329c-4.947.768-12.132 3.815-16.108 9.867a16.835 16.835 0 00-1.982 14.073l69.757 323.616c2.224 10.299 11.013 17.524 19.599 16.176l134.297-21.015c9.044-1.348 15.259-4.408 18.467-9.071a15.41 15.41 0 001.995-12.456L302.463 89.577c-2.036-9.477-9.652-16.405-17.551-16.405z" fill="#263238"/><path d="M369.995 431.148l-134.27 20.961c-8.951 1.348-18.063-6.106-20.354-16.755l-69.784-323.59c-2.291-10.649 3.101-20.408 12.051-21.81l134.297-20.96c8.95-1.349 18.076 6.106 20.367 16.754l69.743 323.59c2.305 10.649-3.1 20.408-12.05 21.81z" fill="#263238"/><path d="M233.555 452.918c-8.519 0-16.701-7.36-18.872-17.443l-69.756-323.59a20.906 20.906 0 012.763-16.175 14.658 14.658 0 019.84-6.349l134.297-20.96c9.287-1.456 18.763 6.294 21.136 17.267l69.689 323.509c.675 2.753.784 5.614.32 8.411a20.93 20.93 0 01-3.016 7.858 14.693 14.693 0 01-9.854 6.349l-134.296 20.961a13.91 13.91 0 01-2.251.162zm60.55-383.44c-.691.001-1.38.055-2.063.163L157.746 90.6a13.316 13.316 0 00-8.951 5.783 19.647 19.647 0 00-2.547 15.218l69.743 323.59c2.224 10.285 11.013 17.524 19.613 16.176L369.9 430.393a13.292 13.292 0 008.937-5.782 19.59 19.59 0 002.561-15.219L311.642 85.883c-2.036-9.435-9.652-16.377-17.524-16.377l-.013-.027z" fill="#263238"/><path d="M370.655 392.705l-151.604 23.656-63.475-294.514 151.591-23.67 63.488 294.528z" fill="#FFC2B0"/><path d="M219.051 417.035a.66.66 0 01-.647-.526l-63.489-294.527a.735.735 0 01.094-.526.68.68 0 01.459-.283l151.591-23.657a.686.686 0 01.768.526l63.489 294.514a.665.665 0 01-.108.526.702.702 0 01-.445.283l-151.604 23.67h-.108zm-62.667-294.636l63.166 293.207 150.269-23.454-63.178-293.207-150.257 23.454z" fill="#263238"/><path d="M241.75 189.473c1.55 7.427.593 13.857-2.103 14.356-2.695.498-6.133-5.122-7.669-12.55-1.537-7.427-.594-13.857 2.102-14.355 2.696-.499 6.134 5.054 7.67 12.549zm33.295-6.228c1.537 7.428.593 13.857-2.116 14.369-2.71.513-6.134-5.122-7.67-12.549-1.537-7.427-.593-13.857 2.103-14.356 2.696-.498 6.106 5.109 7.683 12.536zM258.02 249.12c-15.933 0-31.637-9.773-41.409-26.312a2.694 2.694 0 013.012-3.749 2.7 2.7 0 011.625 1.053c10.056 17.011 26.838 26.083 42.811 23.117 15.542-2.871 27.404-16.849 30.194-35.586a2.731 2.731 0 011.071-1.79 2.727 2.727 0 014.321 2.586c-3.141 21.055-16.701 36.785-34.548 40.101a38.859 38.859 0 01-7.077.58z" fill="#263238"/><path d="M192.785 230.857l-6.905 14.119 1.211.592 6.905-14.119-1.211-.592zm57.904-118.319l-51.685 105.689 1.211.592L251.9 113.131l-1.211-.593zm-16.145.957l-21.63 41.427 1.195.624 21.63-41.427-1.195-.624zM336.028 348.04l-23.993 47.457 1.203.608 23.993-47.456-1.203-.609zm11.123-21.929l-7.457 14.748 1.203.609 7.457-14.749-1.203-.608zM249.407 93.27l-41.881 6.484a3.56 3.56 0 01-3.721-3.06 3.12 3.12 0 01.142-2.382 3.107 3.107 0 011.786-1.581l.269-.081 41.854-6.376a3.56 3.56 0 013.721 3.06 3.117 3.117 0 01-2.049 3.895l-.121.04z" fill="#fff"/><path d="M207.135 100.508a4.609 4.609 0 01-3.397-7.01 3.145 3.145 0 012.157-1.347l41.962-6.591a4.26 4.26 0 014.475 3.585 4.375 4.375 0 01-.58 3.397 3.178 3.178 0 01-2.17 1.348l-41.894 6.537a3.562 3.562 0 01-.553.081zm41.167-13.627h-.297l-41.935 6.55c-.514.097-.97.392-1.267.823a3.022 3.022 0 00-.377 2.359 2.922 2.922 0 002.952 2.534l41.894-6.538a1.892 1.892 0 001.254-.835 3.261 3.261 0 00-1.119-4.476 3.437 3.437 0 00-1.146-.418h.041z" fill="#263238"/><path d="M303.122 416.913c-.768-3.545-3.801-6.052-6.739-5.58-2.939.471-4.772 3.72-4.044 7.265.728 3.545 3.801 6.052 6.74 5.581 2.938-.472 4.798-3.721 4.043-7.266z" fill="#fff"/><path d="M298.378 424.906c-3.046 0-5.971-2.601-6.74-6.16a7.44 7.44 0 01.998-5.769 5.269 5.269 0 013.585-2.305c3.33-.526 6.74 2.211 7.549 6.106a7.402 7.402 0 01-.984 5.756 5.396 5.396 0 01-3.599 2.318 5.212 5.212 0 01-.809.054zm-1.348-12.953h-.647a4.038 4.038 0 00-2.696 1.738 6.155 6.155 0 00-.782 4.732c.688 3.194 3.397 5.472 6.026 5.055a3.96 3.96 0 002.696-1.739 5.989 5.989 0 00.781-4.718 6.066 6.066 0 00-5.391-5.068h.013z" fill="#263238"/><path d="M285.087 309.67l-61.898 10.662c-4.044.701-6.74 4.044-6.093 7.441l7.98 38.43.216.998 4.165 20.084 11.66-16.418 54.754-9.436c4.044-.701 6.74-4.043 6.079-7.427l-8.263-39.441c-.66-3.397-4.529-5.594-8.6-4.893z" fill="#fff"/><path d="M229.107 388.943l-12.671-61.035a6.159 6.159 0 011.011-4.785 8.508 8.508 0 015.621-3.451l61.911-10.662c4.408-.755 8.641 1.671 9.436 5.392l8.182 39.441a6.186 6.186 0 01-.997 4.771 8.558 8.558 0 01-5.635 3.465l-54.471 9.368-12.387 17.496zm57.503-78.72c-.452 0-.903.04-1.348.121l-61.911 10.663a7.159 7.159 0 00-4.745 2.884 4.827 4.827 0 00-.795 3.734l12.05 57.962 10.892-15.38 55.023-9.436a7.172 7.172 0 004.651-2.884 4.88 4.88 0 00.809-3.748l-8.196-39.427c-.512-2.656-3.276-4.489-6.43-4.489z" fill="#263238"/><path d="M280.652 332.76c.041-.533 0-1.069-.121-1.59v-.297c-1.052-5.095-6.848-8.357-12.927-7.319-4.785.822-8.317 4.044-9.099 7.912a11.693 11.693 0 00-11.646-4.34c-6.079 1.051-10.15 6.025-9.099 11.107 0 0-.162 4.354 10.164 10.676 8.478 5.203 15.636 9.435 15.771 9.26.175.095 5.324-6.2 11.377-13.924a27.608 27.608 0 005.27-9.436c.145-.465.245-.944.297-1.429a4.427 4.427 0 01.013-.62z" fill="#FF8562"/><path d="M263.587 358.83a.57.57 0 01-.256-.081c-1.253-.418-4.731-2.426-15.825-9.234-9.813-6.025-10.446-10.446-10.487-11.174a8.976 8.976 0 011.469-6.834 12.52 12.52 0 018.196-5.015 12.778 12.778 0 0111.471 3.559 11.84 11.84 0 019.26-7.131c6.43-1.105 12.577 2.413 13.709 7.845v.216c.137.605.187 1.227.148 1.847.009.213-.013.427-.067.633a8.703 8.703 0 01-.31 1.55 28.64 28.64 0 01-5.392 9.652c-7.858 10.055-10.42 13.115-11.43 13.924a.449.449 0 01-.405.189l-.081.054zm-14.504-31.273a11.5 11.5 0 00-2.143.189 10.965 10.965 0 00-7.306 4.448 7.633 7.633 0 00-1.253 5.85v.162s.121 4.111 9.84 10.083c7.791 4.771 13.83 8.317 15.285 9.058 1.106-1.186 5.46-6.524 10.973-13.574a27.37 27.37 0 005.162-9.206c.13-.441.221-.892.27-1.348v-.553a4.555 4.555 0 00-.094-1.348.56.56 0 010-.216c-.998-4.839-6.444-7.885-12.132-6.888-4.367.742-7.805 3.707-8.546 7.374a.667.667 0 01-.29.423.653.653 0 01-.505.089.64.64 0 01-.418-.27 10.677 10.677 0 00-8.843-4.273z" fill="#263238"/><path d="M185.163 335.267s-3.882-12.131-11.148-9.072c-7.265 3.06 4.166 15.044-1.604 15.637-5.769.593-15.541-6.282-21.729 4.569-6.187 10.851 3.384 18.629 14.734 18.346 11.349-.283 22.726-9.058 19.747-29.48z" fill="#fff"/><path d="M164.809 365.422c-6.74 0-12.657-2.696-15.272-7.131-1.497-2.494-2.615-6.645.566-12.212 4.691-8.25 11.417-6.74 16.809-5.608 1.756.482 3.57.718 5.391.701.715-.081.877-.351.931-.431.485-.769-.243-2.696-.944-4.705-1.348-3.599-3.114-8.532 1.415-10.46a6.215 6.215 0 015.136 0c4.516 2.076 6.821 9.18 6.929 9.436v.108c1.415 9.651-.27 17.631-4.853 23.077a20.627 20.627 0 01-15.542 7.171l-.566.054zm-4.26-24.52c-3.37 0-6.659 1.241-9.274 5.837-2.264 3.963-2.466 7.724-.593 10.865 2.454 4.043 8.223 6.631 14.72 6.47a19.256 19.256 0 0014.531-6.74c4.327-5.122 5.904-12.711 4.569-21.945-.215-.633-2.385-6.874-6.187-8.613a4.8 4.8 0 00-4.043 0c-3.114 1.348-2.238 4.462-.674 8.762.889 2.439 1.658 4.556.822 5.877a2.476 2.476 0 01-1.941 1.051 19.956 19.956 0 01-5.85-.714 28.952 28.952 0 00-6.08-.85z" fill="#263238"/><path d="M159.727 346.766c-.391 1.456-1.348 2.453-2.21 2.224-.863-.229-1.2-1.577-.796-3.033.405-1.456 1.348-2.467 2.211-2.238.863.23 1.186 1.591.795 3.047zm-5.405 2.359c-.391 1.455-1.348 2.453-2.211 2.237-.862-.215-1.199-1.59-.808-3.046.391-1.456 1.348-2.453 2.224-2.224.876.229 1.186 1.536.795 3.033zm3.383 5.917c-.391 1.456-1.348 2.467-2.21 2.238-.863-.229-1.187-1.591-.796-3.047.391-1.455 1.348-2.453 2.211-2.224.863.229 1.186 1.577.795 3.033zm.567 8.303a.658.658 0 01-.62-.417.65.65 0 01-.008-.506.645.645 0 01.358-.357 10.557 10.557 0 003.06-1.955.674.674 0 01.903.998 11.778 11.778 0 01-3.451 2.211.856.856 0 01-.242.026zm4.92-3.908a.67.67 0 01-.668-.579.68.68 0 01.128-.5 14.496 14.496 0 002.305-4.556 12.986 12.986 0 00-.808-10.312.684.684 0 01.242-.93.717.717 0 01.93.243 14.459 14.459 0 01.93 11.39 15.74 15.74 0 01-2.52 4.974.71.71 0 01-.539.27z" fill="#263238"/></svg>