<svg width="575" height="586" fill="none" xmlns="http://www.w3.org/2000/svg"><path d="M147.616 120.212c-.318-2.645.886-4.352 3.465-4.656 2.579-.304 4.14 1.032 4.458 3.73l1.018 8.611c.304 2.645-.899 4.351-3.479 4.656-2.579.304-4.14-1.032-4.457-3.73l-1.005-8.611zm3.637 8.492c.145 1.164.688 1.587 1.548 1.494.859-.092 1.322-.648 1.15-1.812l-1.045-8.981c-.145-1.164-.727-1.587-1.547-1.481-.82.105-1.323.635-1.151 1.799l1.045 8.981zm10.185-14.166l2.433-.291-7.261 27.406-2.434.291 7.262-27.406zm.277 13.742c-.317-2.645.9-4.365 3.479-4.656 2.579-.291 4.14 1.032 4.458 3.717l1.005 8.611c.317 2.645-.886 4.352-3.479 4.656-2.592.304-4.14-1.032-4.457-3.73l-1.006-8.598zm3.651 8.479c.132 1.164.675 1.6 1.534 1.494.86-.105 1.323-.648 1.164-1.812l-1.058-8.981c-.132-1.15-.714-1.574-1.534-1.481-.82.092-1.323.648-1.151 1.799l1.045 8.981z" fill="#263238"/><path d="M176.794 146.56l-30.633 3.584a2.643 2.643 0 01-2.937-2.315l-3.677-31.585a3.97 3.97 0 011.124-3.228l12.778-12.579a3.874 3.874 0 014.748-.555l15.33 9.259a3.867 3.867 0 011.839 2.87l3.703 31.586a2.646 2.646 0 01-2.275 2.963v0z" stroke="#263238" stroke-linecap="round" stroke-linejoin="round"/><path d="M158.276 103.942a1.967 1.967 0 01-.991 1.959 1.976 1.976 0 01-2.189-.174 1.976 1.976 0 01-.669-2.091 1.965 1.965 0 011.68-1.413 1.958 1.958 0 012.169 1.719v0zm-1.944-22.088s5.979 23.015 0 22.353m-1.521-4.629c1.164-6.401 7.024-17.195 7.024-17.195m-5.503 21.785a1.69 1.69 0 01-1.521-1.23m28.2-12.58a38.77 38.77 0 0111.904 16.468" stroke="#263238" stroke-linecap="round" stroke-linejoin="round"/><path d="M121.096 110.781a38.79 38.79 0 0123.302-26.326 38.797 38.797 0 0135.002 3.31m-46.228 62.008a38.595 38.595 0 01-12.897-23.623m36.851 33.147a38.706 38.706 0 01-19.841-6.415m59.733-37.961a38.796 38.796 0 01-32.75 44.006" stroke="#263238" stroke-linecap="round" stroke-linejoin="round"/><path d="M60.464 243.983l48.7 9.442-5.672 29.256a2.194 2.194 0 01-2.569 1.734l-44.41-8.61a2.188 2.188 0 01-1.734-2.568l5.672-29.257.013.003z" stroke="#263238" stroke-width=".998" stroke-linecap="round" stroke-linejoin="round"/><path d="M110.858 254.092l-51.263-9.881 1.502-7.792a2.195 2.195 0 012.572-1.741l47.002 9.06a2.194 2.194 0 011.696 2.523l-1.502 7.792-.007.039z" stroke="#263238" stroke-linecap="round" stroke-linejoin="round"/><path d="M90.698 239.846l-6.974-1.344-7.991 41.457 6.974 1.345 7.991-41.458z" stroke="#263238" stroke-linecap="round" stroke-linejoin="round"/><path d="M87.208 239.175s12.103-8.836 17.698-6.164c5.595 2.672 2.83 10.119 0 9.576" stroke="#263238" stroke-linecap="round" stroke-linejoin="round"/><path d="M91.996 240.087s9.841-4.894 11.27-2.645c1.428 2.249-2.818 4.325-6.085 3.69m-9.642-2.566s5.105-9.259 4.444-12.249h3.4s1.11 3.519-2.858 9.537m-5.317 3.32s-7.936-12.697-14.14-12.287c-6.203.41-6.375 8.333-3.558 8.875" stroke="#263238" stroke-linecap="round" stroke-linejoin="round"/><path d="M82.42 238.249s-7.314-8.214-9.47-6.68c-2.156 1.535 1.018 5.053 4.285 5.675m9.894 1.242s-1.323-10.515.436-13.015l-3.174-1.323s-2.328 2.857-.873 9.921m39.707-9.761a49.477 49.477 0 0110.198 23.808m-93.078-15.872a49.534 49.534 0 0179.11-12.182m-75.142 64.163a49.388 49.388 0 01-9.39-33.067m36.598 51.678a49.308 49.308 0 01-22.949-13.598m85.168-30.408a49.533 49.533 0 01-53.211 45.553m249.129-177.438l-4.154-2.116a13.12 13.12 0 00.609-5.675c1.322.635 2.724 1.323 3.968 1.892-.066 1.706-.172 3.717-.423 5.899z" stroke="#263238" stroke-linecap="round" stroke-linejoin="round"/><path d="M335.702 123.77a14.961 14.961 0 004.18 1.402 37.705 37.705 0 01-3.399 23.928c-1.072 2.09-12.328-3.677-11.27-5.767a49.605 49.605 0 004.444-16.388c.252-2.183.397-4.193.463-5.9a213.43 213.43 0 015.582 2.725z" stroke="#263238" stroke-linecap="round" stroke-linejoin="round"/><path d="M349.127 97.541a14.735 14.735 0 11-13.438 26.229 213.43 213.43 0 00-5.582-2.725c-1.323-.621-2.645-1.256-3.968-1.891-3.254-1.495-6.402-2.87-8.029-3.399l14.233-27.777c2.962 2.17 13.451 7.857 16.784 9.563zM318.52 74.83a70.873 70.873 0 0013.796 13.122l-14.232 27.777a71.165 71.165 0 00-18.716-3.453l-5.516-.291 21.163-41.44 3.505 4.286z" stroke="#263238" stroke-linecap="round" stroke-linejoin="round"/><path d="M287.437 113.136l24.814-48.477a1.575 1.575 0 012.103-.674l1.825.939a1.573 1.573 0 01.688 2.103l-1.812 3.531-21.163 41.44-1.799 3.532a1.553 1.553 0 01-.912.773 1.574 1.574 0 01-1.191-.098l-1.839-.94a1.55 1.55 0 01-.89-1.53c.018-.21.078-.414.176-.599v0zm.741-30.224l-9.563-4.894m20.766-10.449l-6.031-10.555m-11.058 43.953l-12.076 1.283m92.019-46.943a63.736 63.736 0 00-29.734-15.515m11.217 121.423a63.988 63.988 0 0037.219-74.123 63.994 63.994 0 00-13.622-26.507m-90.142 90.3a63.71 63.71 0 0041.638 15.396m-62.867-52.233a63.731 63.731 0 0015.224 30.925m47.643-106.662a63.993 63.993 0 00-63.991 63.992m-49.337 103.024c-5.37-4.801-10.938-2.645-13.782-1.018-.569-3.254-2.646-8.863-9.735-9.815-7.751-1.032-14.1 6.521-12.024 17.05 1.508 7.579 6.349 14.549 8.942 17.79.304.397.595.741.833 1.018h1.323c4.18-.172 12.592-1.005 19.311-4.788 9.299-5.291 10.952-15.026 5.132-20.237zm-30.157 29.959s-.357.648-.847 1.786" stroke="#263238" stroke-linecap="round" stroke-linejoin="round"/><path d="M173.13 240.762c-2.116 6.917-3.571 18.769 7.698 25.951 27.856 17.764 37.234-24.139 15.873-20.37-14.669 2.646.846 41.414 23.808 33.597" stroke="#263238" stroke-linecap="round" stroke-linejoin="round" stroke-dasharray="2.98 2.98"/><path d="M222.427 279.213a31.803 31.803 0 001.772-.873" stroke="#263238" stroke-linecap="round" stroke-linejoin="round"/><path d="M188.077 535.22s-15.727 10.7-22.063 9.986a2.947 2.947 0 01-1.865-.794c-4.127-4.259-7.447-11.745-7.447-11.745s1.971-2.725 8.042 4.51l3.849-3.531-7.936-8.016s4.484-3.558 12.103.979c-.265-.555-5.172-11.243-1.468-25.792l-18.518-17.87 16.428-14.311 1.322-1.112s1.032 1.019 2.646 2.646c1.613 1.627 3.849 3.584 6.269 5.714 5.794 5.092 12.804 10.581 15.873 10.581 5.528-.185-7.235 48.755-7.235 48.755z" fill="#fff"/><path opacity=".4" d="M175.921 528.209s-8.968 9.259-9.907 16.997a2.947 2.947 0 01-1.865-.794c-4.127-4.259-7.447-11.745-7.447-11.745s1.971-2.725 8.042 4.51l3.849-3.531-7.936-8.016s4.484-3.558 12.103.979c-.265-.556-5.172-11.243-1.468-25.793l-18.518-17.869 16.428-14.312 3.968 1.495a254 254 0 006.269 5.714c-3.478 5.092-10.925 15.634-10.925 15.634l6.441 8.73s-3.968 22.009.966 28.001z" fill="#FF8562"/><path d="M188.077 535.22s-15.727 10.7-22.063 9.986a2.947 2.947 0 01-1.865-.794c-4.127-4.259-7.447-11.745-7.447-11.745s1.971-2.725 8.042 4.51l3.849-3.531-7.936-8.016s4.484-3.558 12.103.979c-.265-.555-5.172-11.243-1.468-25.792l-18.518-17.87 16.428-14.311 1.322-1.112s1.032 1.019 2.646 2.646c1.613 1.627 3.849 3.584 6.269 5.714 5.794 5.092 12.804 10.581 15.873 10.581 5.528-.185-7.235 48.755-7.235 48.755zm-19.431-1.574a19.578 19.578 0 014.14-7.023" stroke="#263238" stroke-linecap="round" stroke-linejoin="round"/><path d="M462.006 410.649a44.815 44.815 0 01-8.902 9.603c-28.914 23.941-95.577 35.712-95.577 35.712s-2.236 3.347-5.675 8.109c-6.164 8.557-16.256 21.705-24.483 28.292-3.478 2.791-6.613 4.405-9.007 3.968l12.512 46.202 5.595 20.052s-57.484 25.131-155.8-3.598c0 0-1.124-12.83-.291-15.568 0-.132.08-.265.133-.41a18.17 18.17 0 013.862-4.841s-.556-8.254-.833-16.653a112.399 112.399 0 01.198-16.071c.701-4.232 3.796-14.47 5.357-19.496l.913-2.923-4.894-45.818-1.402-13.227-.08-.688v-.331l-.767-7.076-25.29 7.724s1.323 2.963 3.148 7.117c3.32 7.605 8.201 19.179 9.259 23.808.08.377.186.749.318 1.111 2.341 6.68 11.256 12.751 11.256 12.751l-23.954 27.988-7.077-4.947a22.52 22.52 0 01-2.857 1.799c-4.656 2.526-14.417 6.243-25.131.569a37.398 37.398 0 01-11.825-10.476c-18.782-24.39-26.956-44.35-24.298-67.722 2.659-23.372 107.839-95.498 128.712-94.744l31.043 6.851c.675-.555 2.487-1.984 3.889-1.918 5.648.291 5.793 6.852 5.793 6.852l69.574 11.296s7.209-3.611 8.465-3.558a5.463 5.463 0 014.405 2.791s18.015-10.794 23.808-8.281c19.073 8.228 113.99 54.35 99.903 75.751z" fill="#FF8562"/><path opacity=".2" d="M220.297 524.956a52.004 52.004 0 01-30.117 16.335 214.951 214.951 0 00-9.696 1.746 18.174 18.174 0 013.863-4.841s-.556-8.253-.834-16.653c8.161 5.384 22.393 11.6 36.784 3.413zm-31.228-38.94l.912-2.924-4.894-45.818c7.315 10.489 33.398 46.215 51.374 50.078 18.795 4.021-31.454 11.15-47.392-1.336zM330.848 542.6c-19.642-2.235-47.405-7.182-50.183-17.459-4.325-16.058 16.719-25.687 46.704-32.71-3.478 2.791-6.613 4.404-9.007 3.968l12.486 46.201zm122.243-122.335c-28.914 23.941-95.578 35.713-95.578 35.713s-2.235 3.346-5.674 8.108a111.187 111.187 0 01-4.246-73.873s5.132 27.777 26.454 34.39c0 0-16.322-12.155-10.581-41.413 0 0 5.568 34.39 41.797 43.94 17.578 4.722 34.786-.41 47.828-6.865zm-269.485 3.121l-.794-7.407-25.29 7.725s1.323 2.963 3.148 7.116c-9.669-.992-28.014 7.936-31.215-1.799-3.862-11.798 19.84-7.738 19.84-7.738l22.407-13.028c-4.233-18.121 6.547-31.745 6.547-31.745l2.05 12.645c.979-24.033 10.383-37.181 10.383-37.181-7.777 19.007-7.566 65.844-7.076 71.412zm-2.064 45.051l-23.954 27.988-7.076-4.946a22.512 22.512 0 01-2.857 1.798c-4.656 2.527-14.417 6.244-25.131.569 7.764-10.74 23.808-26.546 42.868-32.644a191.123 191.123 0 00-12.618 21.745l4.92 4.841s12.275-13.994 23.848-19.351zm58.159-123.275c0 2.474-1.561 30.422 18.809 37.869 20.369 7.447 38.437-5.146 38.437-5.146s-31.228 30.131-50.262 14.021-6.984-46.744-6.984-46.744z" fill="#000"/><path d="M180.63 559.041s-1.098-12.83-.278-15.555c.688-2.301 3.968-5.291 3.968-5.291s-1.733-26.004-.622-32.71c.953-5.753 6.27-22.485 6.27-22.485l-7.169-67.114-25.29 7.738s10.767 23.808 12.433 30.872c1.667 7.063 11.587 13.848 11.587 13.848l-23.954 27.975-7.076-4.934s-20.899 16.349-39.774-8.094c-18.874-24.444-26.982-44.35-24.337-67.788 2.645-23.439 107.865-95.486 128.738-94.745l31.043 6.865c.661-.556 2.487-1.984 3.876-1.918 5.648.291 5.793 6.852 5.793 6.852l69.574 11.295s7.222-3.611 8.478-3.558a5.47 5.47 0 014.391 2.791s18.015-10.78 23.809-8.28c19.047 8.227 113.95 54.35 99.876 75.751-19.986 30.422-104.492 45.381-104.492 45.381s-28.108 42.326-39.178 40.369l18.107 66.253" stroke="#263238" stroke-linecap="round" stroke-linejoin="round"/><path d="M388.478 415.291c31.929 21.084 57.669 17.195 77.813-9.946 0 0 16.772-21.626 15.582-44.972-1.191-23.345-6.759-99.4-79.441-79.956-11.97 3.2-39.892 40.593-42.234 50.87-1.084 4.696-12.287 28.597-23.173 53.344" fill="#FF8562"/><path d="M388.478 415.291c31.929 21.084 57.669 17.195 77.813-9.946 0 0 16.772-21.626 15.582-44.972-1.191-23.345-6.759-99.4-79.441-79.956-11.97 3.2-39.892 40.593-42.234 50.87-1.084 4.696-12.287 28.597-23.173 53.344" stroke="#263238" stroke-linecap="round" stroke-linejoin="round"/><path d="M302.093 191.849s20.343-3.082 34.469 9.563c17.87 15.991 37.935 59.111 9.365 130.563 0 0-42.208-28.015-114.241-9.259 0 0 6.203-16.758-4.683-69.521-4.92-23.874 7.46-78.872 75.09-61.346z" fill="#263238"/><path d="M271.261 371.154c30.104 4.88 62.087-28.451 62.087-28.451s-16.362-2.011-17.83-9.696c-4.696-24.245 14.192-54.23 14.192-54.23s-73.092 2.024-60.314 18.518a41.393 41.393 0 015.78 9.906c4.431 10.886 1.322 19.1-.992 21.164a3.22 3.22 0 01-.543.357c-4.417 2.01-22.578-.992-22.578-.992s-7.275 38.966 20.198 43.424z" fill="#fff" stroke="#263238" stroke-linecap="round" stroke-linejoin="round"/><path d="M322.991 351.935s-13.888 5.555-34.218 3.902l-9.153 4.483m-9.126-.701l-.662-6.005s-14.999-4.695-19.642-13.61" stroke="#263238" stroke-linecap="round" stroke-linejoin="round"/><path d="M274.184 328.403c22.38 5.847 32.895-22.856 32.895-22.856s-17.909-5.291-31.903 1.746c4.431 10.886 1.362 19.1-.992 21.11z" fill="#263238"/><path d="M331.007 263.71c5.436-30.567-.609-67.245-47.141-64.203-33.239 2.169-32.962 38.609-30.766 49.495 3.704 18.293-1.6 25.488 4.1 40.858 4.101 11.045 13.611 23.399 24.814 28.028 6.891 2.844 34.787-16.732 36.85-25.687" fill="#fff"/><path d="M331.007 263.71c5.436-30.567-.609-67.245-47.141-64.203-33.239 2.169-32.962 38.609-30.766 49.495 3.704 18.293-1.6 25.488 4.1 40.858 4.101 11.045 13.611 23.399 24.814 28.028 6.891 2.844 34.787-16.732 36.85-25.687" stroke="#263238" stroke-linecap="round" stroke-linejoin="round"/><path d="M272.544 254.704c-.278 3.439-.688 11.904-7.936 18.2-4.709 4.061 6.084 8.214 6.084 8.214m-5.873-38.544s-10.264-5-17.195 3.254m34.417-3.928a34.686 34.686 0 0121.943.873" stroke="#263238" stroke-linecap="round" stroke-linejoin="round"/><path d="M292.701 256.356c.318 2.95 2.302 5.159 4.432 4.921 2.129-.238 3.597-2.804 3.28-5.754-.318-2.949-2.302-5.145-4.431-4.92-2.13.225-3.598 2.804-3.281 5.753z" fill="#263238"/><path d="M271.194 290.839a57.723 57.723 0 0022.949-8.386s.966 12.83-9.775 15.489c-8.24 2.05-11.428-7.354-11.428-7.354" stroke="#263238" stroke-linecap="round" stroke-linejoin="round"/><path d="M301.378 211.148s-2.936 36.228 29.033 49.389l14.987-34.827-22.671-25.131-34.139-9.867c-51.016 3.188-72.973 34.879-44.654 119.333 0 .04-7.923-100.538 57.444-98.897z" fill="#263238"/><path d="M323.401 262.071c-.45-4.074 9.854-14.444 13.333-7.791 5.939 11.349 1.614 21.163-4.524 25.131-2.751 1.733-6.243 4.987-8.69 1.918" fill="#fff"/><path d="M323.401 262.071c-.45-4.074 9.854-14.444 13.333-7.791 5.939 11.349 1.614 21.163-4.524 25.131-2.751 1.733-6.243 4.987-8.69 1.918" stroke="#263238" stroke-linecap="round" stroke-linejoin="round"/><path d="M261.565 257.772c.331 2.949 2.315 5.158 4.444 4.92 2.13-.238 3.598-2.804 3.281-5.754-.318-2.949-2.315-5.158-4.445-4.92-2.129.238-3.61 2.738-3.28 5.754z" fill="#263238"/><path opacity=".2" d="M239.41 251.767a77.306 77.306 0 00-.793 7.407m57.471-54.613c-25.846-.675-49.866 15.793-55.553 41.652m50.936-49.033s-37.273-8.77-51.241 15.952m81.478 27.115a39.982 39.982 0 008.029 8.465m-22.817-46.704a100.703 100.703 0 0011.825 33.676m25.621 78.435a126.592 126.592 0 01-2.315 8.809m.159-58.066c6.045 13.426 5.635 30.131 3.148 44.258m-7.579-20.926a36.104 36.104 0 01-10.516 27.618m-6.666-109.479c6.336 8.571 11.045 17.764 18.385 25.594 7.738 8.24 15.476 17.684 16.931 29.298m-44.257-63.807a27.813 27.813 0 014.973 4.166" stroke="#fff" stroke-linecap="round" stroke-linejoin="round"/><path d="M439.15 396.324c-.741.159-1.482.291-2.249.397-19.999 2.857-42.432-13.73-49.997-33.636-5.979-15.727-.754-33.57 2.103-41.202.899-2.394 1.547-3.783 1.547-3.783 12.063-17.195 82.192 16.467 83.012 35.038.82 18.571-13.928 38.689-34.416 43.186z" fill="#263238" stroke="#263238" stroke-linecap="round" stroke-linejoin="round"/><path d="M461.093 355.651s-3.968 29.523-24.192 41.07c-19.999 2.857-42.432-13.73-49.997-33.636-5.979-15.727-.754-33.57 2.103-41.202 23.636-13.505 72.086 33.768 72.086 33.768z" fill="#fff"/><path opacity=".4" d="M461.093 355.651s-3.968 29.523-24.192 41.07c-19.999 2.857-42.432-13.73-49.997-33.636-5.979-15.727-.754-33.57 2.103-41.202 23.636-13.505 72.086 33.768 72.086 33.768z" fill="#FF8562"/><path d="M461.093 355.651s-3.968 29.523-24.192 41.07c-19.999 2.857-42.432-13.73-49.997-33.636-5.979-15.727-.754-33.57 2.103-41.202 23.636-13.505 72.086 33.768 72.086 33.768z" stroke="#263238" stroke-linecap="round" stroke-linejoin="round"/><path d="M378.385 371.193s22.777 32.697 49.376 35.422c26.6 2.725 43.649-19.682 44.694-36.573" stroke="#263238" stroke-linecap="round" stroke-linejoin="round"/><path d="M365.582 223.646c1.997-5.595 16.362-3.717 20.925 13.743 4.563 17.459 22.486 59.905 22.486 59.905s71.425-105.035 84.176-109.083c12.75-4.047 7.737 14.153-9.365 39.403 0 0 16.018-2.817 20.224 0 4.206 2.818 2.156 19.841 4.391 25.74 3.757 9.96-4.589 12.063-4.589 12.063a17.81 17.81 0 0111.15 4.246c4.59 4.298 2.288 22.062 3.598 27.088 1.309 5.027-7.447 9.259-7.447 9.259s21.044 11.468 16.295 14.351c-8.015 4.841-12.578-.119-12.578-.119s-32.34 40.607-56.731 49.654c-24.39 9.047-71.861-26.903-76.967-46.479-5.106-19.576.992-18.372-2.884-50.95-3.875-32.578-12.684-48.821-12.684-48.821z" fill="#fff" stroke="#263238" stroke-linecap="round" stroke-linejoin="round"/><path d="M469.715 159.11l-94.049 24.515a6.243 6.243 0 00-4.466 7.616l44.456 170.55a6.243 6.243 0 007.616 4.466l94.049-24.515a6.243 6.243 0 004.466-7.616l-44.456-170.55a6.243 6.243 0 00-7.616-4.466z" fill="#fff" stroke="#263238" stroke-linecap="round" stroke-linejoin="round"/><path d="M415.831 178.715a1.52 1.52 0 01-.161 1.155 1.539 1.539 0 01-.93.703 1.527 1.527 0 01-1.859-1.091 1.517 1.517 0 01.15-1.161 1.514 1.514 0 01.935-.704 1.531 1.531 0 011.865 1.098v0zm19.377-5.053a.958.958 0 01-.101.726.945.945 0 01-.587.438.95.95 0 01-1.184-.871.948.948 0 01.537-.91.953.953 0 011.335.617v0z" fill="#FF8562" stroke="#263238" stroke-linecap="round" stroke-linejoin="round"/><path d="M430.578 176.048l-11.355 2.926a.424.424 0 00-.304.517l.059.231c.059.226.29.363.517.304l11.354-2.926a.424.424 0 00.305-.516l-.06-.231a.423.423 0 00-.516-.305z" fill="#FF8562" stroke="#263238" stroke-width="1.002" stroke-linecap="round" stroke-linejoin="round"/><path d="M474.505 165.342l44.086 169.146a3.707 3.707 0 01-2.646 4.51l-92.839 24.192a3.701 3.701 0 01-4.511-2.645L374.51 191.399a3.702 3.702 0 012.645-4.51l19.06-4.974a3.095 3.095 0 013.32 1.217l1.389 1.971a3.092 3.092 0 003.32 1.217l41.837-10.899a3.109 3.109 0 002.301-2.646l.252-2.394a3.077 3.077 0 012.301-2.645l19.06-4.973a3.7 3.7 0 014.51 2.579v0z" fill="#FF8562" stroke="#263238" stroke-linecap="round" stroke-linejoin="round"/><path d="M477.739 260.259c8.626-19.868-.487-42.966-20.354-51.593-19.868-8.626-42.966.487-51.593 20.354-8.626 19.868.487 42.967 20.355 51.593 19.867 8.626 42.966-.487 51.592-20.354z" fill="#fff" stroke="#263238" stroke-linecap="round" stroke-linejoin="round"/><path d="M425.566 267.163a3.465 3.465 0 004.206 1.958l12.896-3.717c.029.277.082.552.159.82a5.346 5.346 0 004.543 3.823 5.358 5.358 0 003.928-1.139 5.35 5.35 0 001.793-5.66 5.66 5.66 0 00-.304-.781l12.883-3.716a3.476 3.476 0 002.526-3.968 3.348 3.348 0 00-1.537-2.277 3.35 3.35 0 00-2.722-.369l-1.084-.661a10.823 10.823 0 01-4.842-6.283l-2.447-8.478a15.033 15.033 0 00-16.613-10.714 4.089 4.089 0 00-1.485-6.621 4.088 4.088 0 10-2.483 7.772 15.038 15.038 0 00-8.412 18.015l2.474 8.571c.439 1.497.549 3.072.321 4.616a10.796 10.796 0 01-1.644 4.325v0a3.366 3.366 0 00-2.065 1.767 3.363 3.363 0 00-.091 2.717v0zm12.711-44.522a2.383 2.383 0 01-2.086 3.033 2.383 2.383 0 111.662-3.861c.195.245.339.527.424.828v0z" fill="#FF8562" stroke="#263238" stroke-linecap="round" stroke-linejoin="round"/><path d="M450.446 262.679l-5.688 1.654m14.1-10.754l-26.07 7.539" stroke="#263238" stroke-linecap="round" stroke-linejoin="round"/><path d="M486.092 306.262l-52.907 13.783a11.902 11.902 0 01-9.036-1.23 11.914 11.914 0 01-5.514-7.262 11.893 11.893 0 011.235-9.039 11.893 11.893 0 017.27-5.511l52.908-13.782a11.902 11.902 0 0114.483 8.492 11.906 11.906 0 01-8.439 14.549z" fill="#263238"/><path d="M427.352 303.524a2.527 2.527 0 011.706-1.204 2.49 2.49 0 012.076.225 3.013 3.013 0 011.164 1.865l.093.344-1.627.423-.119-.45a1.324 1.324 0 00-.423-.767.83.83 0 00-.714-.079.78.78 0 00-.569.423 1.32 1.32 0 000 .873c.105.434.346.823.688 1.111.435.344.905.641 1.402.886.429.217.844.46 1.243.728.348.241.656.536.913.873.294.396.51.845.634 1.323a2.997 2.997 0 01-.132 2.208 3.013 3.013 0 01-3.809.992 2.924 2.924 0 01-1.191-1.865l-.172-.674 1.627-.423.199.78c.185.714.569.992 1.164.833.595-.158.807-.582.621-1.322a2.15 2.15 0 00-.687-1.111 7.208 7.208 0 00-1.402-.873 14.308 14.308 0 01-1.244-.741 4.042 4.042 0 01-.912-.873 3.718 3.718 0 01-.635-1.323 3.076 3.076 0 01.106-2.182zm9.1 6.018c.185.701.582.979 1.177.834.595-.146.793-.596.608-1.323l-2.195-8.439 1.627-.423 2.169 8.32a3.005 3.005 0 01-.133 2.209 2.536 2.536 0 01-1.719 1.216 2.64 2.64 0 01-2.09-.211 3.105 3.105 0 01-1.19-1.878l-2.17-8.32 1.72-.45 2.196 8.465zm7.076-10.198a2.641 2.641 0 011.111 1.746l.093.383c.145.476.177.979.092 1.468a1.818 1.818 0 01-.621 1.032c.939.106 1.574.781 1.891 1.997l.225.9a2.636 2.636 0 01-.159 2.103 2.634 2.634 0 01-1.772 1.164l-2.646.714-2.857-10.938 2.646-.688a2.763 2.763 0 011.997.119zm-1.812 4.563l.675-.172a1.038 1.038 0 00.701-.463c.121-.31.121-.655 0-.965l-.159-.609a1.389 1.389 0 00-.437-.793.788.788 0 00-.727-.093l-.833.212.78 2.883zm1.323 4.934l.978-.265a.86.86 0 00.609-.41c.105-.29.105-.609 0-.899l-.251-.953a1.665 1.665 0 00-.53-.965 1.114 1.114 0 00-.925-.08l-.768.212.887 3.36zm2.711-10.065a2.457 2.457 0 011.706-1.204 2.487 2.487 0 012.077.212 3.048 3.048 0 011.177 1.878l.093.344-1.627.423-.119-.463a1.217 1.217 0 00-.437-.754.798.798 0 00-.701-.092.806.806 0 00-.582.423c-.098.282-.098.59 0 .873.101.432.338.822.675 1.111.442.34.916.637 1.415.886.503.265.913.516 1.244.727.342.249.649.543.912.873.293.396.505.845.622 1.323.25.724.207 1.516-.119 2.209a2.57 2.57 0 01-1.72 1.217 2.635 2.635 0 01-2.103-.212 3.04 3.04 0 01-1.177-1.878l-.185-.661 1.627-.437.211.794c.186.701.569.979 1.164.82.596-.159.794-.582.609-1.323a2.113 2.113 0 00-.675-1.098 7.352 7.352 0 00-1.415-.886 13.459 13.459 0 01-1.23-.741 3.538 3.538 0 01-.913-.872 3.35 3.35 0 01-.635-1.323 3.046 3.046 0 01.106-2.169zm12.433 4.973a3 3 0 01-.132 2.209 2.55 2.55 0 01-1.719 1.203 2.515 2.515 0 01-2.09-.211 2.93 2.93 0 01-1.191-1.865l-1.481-5.688a3.004 3.004 0 01.119-2.209 2.57 2.57 0 011.72-1.217 2.652 2.652 0 012.103.212 3.043 3.043 0 011.177 1.878l.278 1.058-1.627.424-.305-1.178c-.185-.714-.568-.992-1.164-.833-.595.159-.793.582-.608 1.323l1.534 5.899c.186.714.569.992 1.164.833.596-.158.807-.582.622-1.322l-.41-1.561 1.627-.423.383 1.468zm5.066.939a6.235 6.235 0 01-.251-.833l-.45-1.72a1.726 1.726 0 00-.542-.992 1.133 1.133 0 00-.952-.106l-.582.159 1.15 4.457-1.719.45-2.844-10.939 2.645-.687a2.277 2.277 0 012.85.842c.196.304.316.65.351 1.009l.225.873a2.28 2.28 0 01-.542 2.5c.427.053.817.271 1.085.609.318.424.543.911.661 1.428l.436 1.693c.08.305.159.556.225.741.076.19.178.368.304.529l-1.745.463a2.086 2.086 0 01-.305-.476zm-3.187-5.053l.661-.172a1.106 1.106 0 00.714-.476 1.324 1.324 0 000-.952l-.291-1.085a1.325 1.325 0 00-.423-.794.826.826 0 00-.741-.092l-.82.212.9 3.359zm4.999-6.56l2.844 10.939-1.719.45-2.844-10.979 1.719-.41zm5.939-.913a2.648 2.648 0 011.098 1.733l.106.397c.139.472.17.969.093 1.455a1.909 1.909 0 01-.622 1.031c.939.12 1.561.781 1.891 2.011l.225.899a2.647 2.647 0 01-.159 2.09 2.642 2.642 0 01-1.772 1.177l-2.645.701-2.963-10.912 2.645-.674a2.763 2.763 0 012.103.092zm-1.812 4.564l.675-.172c.285-.058.536-.224.701-.463a1.33 1.33 0 000-.966l-.159-.608a1.477 1.477 0 00-.436-.807.865.865 0 00-.741-.093l-.82.225.78 2.884zm1.323 4.92l.979-.251a.902.902 0 00.608-.424c.109-.285.109-.6 0-.886l-.238-.952a1.706 1.706 0 00-.529-.979 1.14 1.14 0 00-.926-.066l-.767.198.873 3.36zm7.42-7.01l.41 1.574-2.367.608.833 3.201 2.976-.767.41 1.561-4.696 1.217-2.843-10.939 4.682-1.217.41 1.561-2.963.78.794 3.042 2.354-.621zm3.188-5.754a2.632 2.632 0 012.103.198 2.911 2.911 0 011.164 1.838l1.442 5.543a2.872 2.872 0 01-.119 2.182 2.526 2.526 0 01-1.733 1.177l-2.725.714-2.857-10.938 2.725-.714zm1.442 9.642l.965-.251a.891.891 0 00.595-.424 1.32 1.32 0 000-.873l-1.481-5.687a1.323 1.323 0 00-.45-.754.88.88 0 00-.701-.079l-.979.251 2.051 7.817z" fill="#fff"/><path d="M357.513 456.03s-16.057-37.366-7.936-82.681m-31.242 123.05s-32.459 9.92-35.712 17.393c-3.254 7.474 14.549 1.178 14.549 1.178m41.123-171.792s-29.893 29.629-49.892 37.525m-48.054-45.487s-5.449 39.998 14.881 47.551m-72.418 33.212s-.158-52.431 10.251-68.647m-14.139 15.224s-2.924 32.564 3.65 43.186m-25.052 17.974s-22.737-7.83-27.445 1.879c-4.709 9.708 13.557 1.097 13.557 1.097m27.565 31.018s-22.327 12.579-23.478 19.774m59.945-54.561s42.736 64.587 66.319 58.662m-37.128 31.93S203.354 538.077 198.499 536" stroke="#263238" stroke-linecap="round" stroke-linejoin="round"/><path opacity=".2" d="M471.543 408.704c2.261-1.852 3.756-3.082 4.245-3.466-.502.437-1.957 1.707-4.245 3.466z" fill="#000"/></svg>