<svg width="900" height="931" fill="none" xmlns="http://www.w3.org/2000/svg"><path fill-rule="evenodd" clip-rule="evenodd" d="M40.2 855.511l32.148-17.63c33.948-18.807 99.529-56.031 154.306-109.794 52.977-52.587 97.464-122.102 156.357-169.565 58.893-47.463 132.706-72.086 200.86-105.372 68.669-32.499 131.678-73.661 188.77-119.948 58.893-47.463 114.185-100.438 142.474-127.908L941.603 179l48.363 74.032-30.604 19.993-158.423 103.493-187.227 122.311-189.027 123.486-187.226 122.311L79.036 848.119l-30.604 19.993-8.232-12.601zm221.318 69.992l101.306-116.606c25.613-13.543 75.009-40.497 114.184-83.099 37.832-41.725 67.271-99.23 110.339-135.871 43.069-36.641 100.254-51.672 152.085-74.9 52.317-22.483 99.28-53.163 141.007-88.927 43.069-36.641 82.73-78.498 102.988-100.237L1002.34 305l45.76 70.044-22.81 14.902c-24.15 15.778-71.115 46.457-118.078 77.137l-139.547 91.162-140.888 92.039-139.547 91.163-118.078 77.137-98.032 107.841-9.602-.922zM102.574 642.431l31.491-19.517c33.316-20.707 97.961-61.178 159.22-106.83 59.436-44.462 117.471-95.05 180.02-138.728 62.55-43.679 129.774-80.201 195.225-119.438 65.612-38.989 129.451-80.694 190.176-123.181 62.55-43.678 123.971-89.084 155.514-112.506L1043.94 0l15.15 23.196-31.01 20.256c-32.829 21.448-96.668 63.152-160.507 104.857L677.88 272.231 486.363 397.344 296.671 521.266l-160.51 104.856-31.007 20.257-2.58-3.948z" fill="#fff" fill-opacity=".6"/></svg>