<svg width="664" height="593" fill="none" xmlns="http://www.w3.org/2000/svg"><path d="M336.612 593c164.518 0 297.886-23.688 297.886-52.91 0-29.221-133.368-52.909-297.886-52.909-164.518 0-297.886 23.688-297.886 52.909 0 29.222 133.368 52.91 297.886 52.91z" fill="#FF8562"/><path opacity=".5" d="M336.612 593c164.518 0 297.886-23.688 297.886-52.91 0-29.221-133.368-52.909-297.886-52.909-164.518 0-297.886 23.688-297.886 52.909 0 29.222 133.368 52.91 297.886 52.91z" fill="#fff"/><path d="M628.726 266.514s0-6.483-9.076-15.574c-9.075-9.091-14.925-14.261-14.925-14.261s-4.538 14.909 3.889 24a160.263 160.263 0 0020.065 17.503l.047-11.668zm-13.181 40.5s0-6.483-9.076-15.558c-9.075-9.076-14.91-14.277-14.91-14.277s-4.63 14.925 3.89 24a159.364 159.364 0 0020.065 17.503l.031-11.668z" fill="#FF8562"/><path d="M628.155 277.565s.679-6.452 10.68-14.524c10.002-8.072 16.33-12.61 16.33-12.61s2.948 15.311-6.405 23.445a160.05 160.05 0 01-21.84 15.28l1.235-11.591zm-15.913 47.832s1.358-6.344 12.131-13.32c10.774-6.977 17.58-10.805 17.58-10.805s1.312 15.543-8.828 22.658a160.91 160.91 0 01-23.337 12.904l2.454-11.437zm2.994 52.153s0-6.498 9.075-15.574c9.076-9.075 14.91-14.261 14.91-14.261s4.538 14.909-3.889 23.985a158.8 158.8 0 01-20.065 17.518l-.031-11.668z" fill="#FF8562"/><path d="M615.081 390.268s.911-6.421-6.775-16.701c-7.687-10.279-12.734-16.237-12.734-16.237s-6.621 14.123.432 24.31a159.308 159.308 0 0017.411 20.188l1.666-11.56zm-8.951 37.799s0-6.483 9.075-15.558c9.076-9.076 14.91-14.262 14.91-14.262s4.553 14.91-3.89 23.985a158.818 158.818 0 01-20.065 17.519l-.03-11.684zm6.019 34.141s-1.652-6.282 4.831-17.364c6.482-11.082 10.804-17.58 10.804-17.58s8.165 13.274 2.315 24.201a160.46 160.46 0 01-15.018 22.026l-2.932-11.283z" fill="#FF8562"/><path d="M629.544 264.847a182.314 182.314 0 01-2.485 20.142c-3.581 18.521-12.564 30.498-16.144 47.26-3.581 16.762 6.714 38.324 3.951 59.84-2.763 21.516-11.129 33.477-8.736 47.847 2.392 14.369 15.234 54.638 15.234 54.638m6.698-212.703l9.785-7.517m-9.322-1.126l-4.106-7.285m-12.965 65.535s8.196-6.174 16.608-12.348m-12.95-1.59a127.215 127.215 0 00-14.122-21.114m14.554 90.338a101.134 101.134 0 0117.534-23.43" stroke="#263238" stroke-width=".75" stroke-linecap="round" stroke-linejoin="round"/><path d="M613.955 395.87a113.931 113.931 0 00-8.875-16.839c-4.769-7.053-5.464-7.964-5.464-7.964m6.514 68.853a107.929 107.929 0 017.377-14.925 95.908 95.908 0 019.554-12.517m-7.918 61.012a27.8 27.8 0 012.454-14.354c3.412-6.606 7.286-15.249 8.875-18.66" stroke="#263238" stroke-width=".75" stroke-linecap="round" stroke-linejoin="round"/><path d="M569.272 353.148s-.71-4.059 3.998-10.804c4.707-6.745 7.809-10.573 7.809-10.573s4.461 8.875.17 15.435a102.196 102.196 0 01-10.711 13.165l-1.266-7.223zm12.656 23.985s-.694-4.059 4.013-10.804c4.708-6.745 7.795-10.573 7.795-10.573s4.476 8.86.169 15.435a101.52 101.52 0 01-10.711 13.15l-1.266-7.208z" fill="#FF8562"/><path d="M570.831 360.016s-1.127-3.967-8.273-7.949c-7.147-3.982-11.623-6.173-11.623-6.173s-.169 9.924 6.576 13.999a101.171 101.171 0 0015.357 7.223l-2.037-7.1zm15.172 28.261s-1.544-3.828-9.06-7.023c-7.517-3.195-12.193-4.877-12.193-4.877s.864 9.878 7.995 13.243a101.946 101.946 0 0016.036 5.556l-2.778-6.899zm3.781 33.029s-.694-4.059-7.378-8.766c-6.683-4.708-10.912-7.332-10.912-7.332s-1.219 9.847 5.047 14.632a103.005 103.005 0 0014.509 8.798l-1.266-7.332z" fill="#FF8562"/><path d="M591.266 429.271s-1.281-3.921 2.439-11.206c3.719-7.285 6.174-11.56 6.174-11.56s5.679 8.134 2.361 15.28a101.435 101.435 0 01-8.72 14.555l-2.254-7.069zm11.391 32.752s.478-4.106 6.868-9.261c6.39-5.155 10.464-7.933 10.464-7.933s1.791 9.754-4.198 14.879a100.546 100.546 0 01-13.983 9.615l.849-7.3zm-1.683-10.063s-.71-4.06-7.377-8.767c-6.668-4.708-10.913-7.332-10.913-7.332s-1.219 9.848 5.047 14.617a101.39 101.39 0 0014.509 8.813l-1.266-7.331zm-.092 22.117s.355-4.121-4.924-10.372c-5.278-6.251-8.69-9.847-8.69-9.847s-3.673 9.261 1.189 15.434a100.706 100.706 0 0011.807 12.178l.618-7.393z" fill="#FF8562"/><path d="M568.577 352.206a120.45 120.45 0 003.736 12.348c4.275 11.236 11.19 17.765 15.264 27.89 4.075 10.125 0 24.695 4.013 37.954 4.013 13.258 10.619 19.771 10.681 29.032.062 9.261-3.596 35.005-3.596 35.005m-27.319-131.718l-6.961-3.658m5.726-1.729l1.79-5m15.249 39.682s-5.819-2.964-11.761-5.896m7.748-2.948a94.303 94.303 0 016.761-14.262m.632 58.219a64.802 64.802 0 00-13.536-12.795" stroke="#263238" stroke-width=".75" stroke-linecap="round" stroke-linejoin="round"/><path d="M592.578 432.697a72.332 72.332 0 013.735-11.529c2.223-4.94 2.562-5.572 2.562-5.572m3.072 50.872a60.988 60.988 0 017.485-7.717 40.286 40.286 0 004.847-4.23m-12.008 4.909a69.073 69.073 0 00-6.251-8.551 61.469 61.469 0 00-7.347-6.807m11.592 37.398a17.727 17.727 0 00-3.087-8.736c-2.856-3.766-6.174-8.766-7.594-10.804" stroke="#263238" stroke-width=".75" stroke-linecap="round" stroke-linejoin="round"/><path d="M587.207 491.101h44.282v22.89a3.84 3.84 0 01-3.843 3.843H591.05a3.84 3.84 0 01-3.843-3.843v-22.89z" fill="#263238" stroke="#263238" stroke-linecap="round" stroke-linejoin="round"/><path d="M66.137 297.12s0-5.526-7.717-13.243c-7.717-7.717-12.718-12.131-12.718-12.131s-3.859 12.687 3.303 20.404a136.618 136.618 0 0017.101 14.894l.031-9.924zm-11.174 34.434s0-5.51-7.718-13.227c-7.717-7.717-12.718-12.193-12.718-12.193s-3.858 12.672 3.303 20.404a135.868 135.868 0 0017.133 14.941v-9.925z" fill="#FF8562"/><path d="M65.659 306.504s.571-5.479 9.075-12.347c8.505-6.868 13.892-10.712 13.892-10.712s2.5 13.012-5.449 19.942a136.461 136.461 0 01-18.521 12.996l1.003-9.879zM52.123 347.19s1.158-5.402 10.31-11.329c9.153-5.927 14.956-9.261 14.956-9.261s1.112 13.197-7.516 19.247a135.929 135.929 0 01-19.834 10.989l2.084-9.646zm2.547 44.343s0-5.51 7.717-13.243c7.717-7.732 12.64-12.131 12.64-12.131s3.86 12.687-3.318 20.404a134.438 134.438 0 01-17.086 14.895l.046-9.925z" fill="#FF8562"/><path d="M54.53 402.353s.788-5.449-5.757-14.2c-6.544-8.751-10.804-13.814-10.804-13.814s-5.618 12.008.37 20.682a135.664 135.664 0 0014.818 17.164l1.374-9.832zm-7.609 32.088s0-5.51 7.718-13.242c7.717-7.733 12.671-12.132 12.671-12.132s3.859 12.687-3.303 20.405a136.707 136.707 0 01-17.101 14.894l.015-9.925zm5.156 29.125s-1.405-5.325 4.12-14.755c5.526-9.431 9.261-14.956 9.261-14.956s6.884 11.19 1.852 20.543a136.395 136.395 0 01-12.764 18.722l-2.47-9.554z" fill="#FF8562"/><path d="M66.832 295.7a154.237 154.237 0 01-2.114 17.133c-3.087 15.758-10.681 25.929-13.722 40.129-3.04 14.2 5.71 32.598 3.365 50.934-2.346 18.336-9.477 28.461-7.44 40.67 2.038 12.209 12.965 46.473 12.965 46.473m5.696-180.861l8.319-6.39m-7.934-.972l-3.488-6.19m-11.02 55.812s6.96-5.233 14.123-10.449m-11.021-1.483a108.28 108.28 0 00-11.946-17.95m12.348 76.818a86.138 86.138 0 0114.91-19.926" stroke="#263238" stroke-width=".75" stroke-linecap="round" stroke-linejoin="round"/><path d="M53.574 407.122a97.346 97.346 0 00-7.532-14.323c-4.075-6.004-4.63-6.776-4.63-6.776m5.509 58.543a93.83 93.83 0 016.267-12.687 81.847 81.847 0 018.134-10.635m-6.73 51.876a23.612 23.612 0 012.084-12.208c2.902-5.619 6.174-12.965 7.547-15.867" stroke="#263238" stroke-width=".75" stroke-linecap="round" stroke-linejoin="round"/><path d="M15.574 370.789s-.587-3.457 3.41-9.137c3.998-5.68 6.638-8.983 6.638-8.983s3.797 7.532.139 13.15a86.252 86.252 0 01-9.107 11.19l-1.08-6.22zm10.773 20.389s-.602-3.457 3.411-9.137c4.013-5.68 6.637-8.998 6.637-8.998s3.797 7.547.139 13.165a86.235 86.235 0 01-9.107 11.19l-1.08-6.22z" fill="#FF8562"/><path d="M16.901 376.623s-.957-3.364-7.022-6.745C3.813 366.498 0 364.662 0 364.662s-.154 8.427 5.572 11.915a86.64 86.64 0 0013.058 6.174l-1.729-6.128zm12.904 24.048s-1.312-3.257-7.718-5.989c-6.405-2.732-10.34-4.152-10.34-4.152s.74 8.412 6.806 11.267a86.849 86.849 0 0013.628 4.739l-2.376-5.865zm3.225 28.075s-.602-3.457-6.282-7.455-9.26-6.174-9.26-6.174-1.112 8.319 4.275 12.379a87.175 87.175 0 0012.348 7.485l-1.08-6.235z" fill="#FF8562"/><path d="M34.28 435.522s-1.08-3.334 2.069-9.523c3.148-6.19 5.294-9.832 5.294-9.832s4.83 6.914 2.006 12.996a85.839 85.839 0 01-7.408 12.347l-1.96-5.988zm9.693 27.905s.401-3.488 5.85-7.81c5.448-4.321 8.89-6.745 8.89-6.745s1.544 8.289-3.565 12.657a86.619 86.619 0 01-11.9 8.211l.725-6.313zm-1.358-8.612s-.602-3.457-6.282-7.455c-5.68-3.997-9.26-6.174-9.26-6.174s-1.05 8.381 4.29 12.441a86.62 86.62 0 0012.348 7.485l-1.096-6.297zm-.155 18.799s.294-3.488-4.182-8.813c-4.476-5.325-7.393-8.365-7.393-8.365s-3.087 7.825 1.003 13.119a86.51 86.51 0 0010.048 10.356l.525-6.297z" fill="#FF8562"/><path d="M14.987 369.987a103.446 103.446 0 003.18 10.51c3.627 9.554 9.523 15.095 12.98 23.708 3.458 8.612 0 21.053 3.411 32.274 3.411 11.22 9.03 16.823 9.076 24.695.046 7.871-3.087 29.773-3.087 29.773M17.349 378.923l-5.912-3.102m4.878-1.467l1.512-4.26m12.965 33.741s-4.939-2.516-10.002-5.017m6.591-2.5a81.258 81.258 0 015.757-12.132m.572 49.514a54.932 54.932 0 00-11.515-10.804" stroke="#263238" stroke-width=".75" stroke-linecap="round" stroke-linejoin="round"/><path d="M35.392 438.408a62.315 62.315 0 013.18-9.801c1.898-4.198 2.175-4.754 2.175-4.754m2.624 43.294a51.473 51.473 0 016.36-6.591 34.062 34.062 0 004.12-3.596m-10.217 4.214a58.274 58.274 0 00-5.31-7.27 51.652 51.652 0 00-6.174-5.803m9.786 31.81a15.17 15.17 0 00-2.64-7.439c-2.423-3.195-5.293-7.455-6.451-9.122" stroke="#263238" stroke-width=".75" stroke-linecap="round" stroke-linejoin="round"/><path d="M28.477 491.101H72.76v22.89a3.844 3.844 0 01-3.905 3.843H32.32a3.842 3.842 0 01-3.843-3.843v-22.89z" fill="#263238" stroke="#263238" stroke-linecap="round" stroke-linejoin="round"/><path d="M139.885 517.839s-8.568 13.783-11.013 15.939c-2.445 2.155-8.585 6.738-11.031 9.183-2.445 2.445.598 5.524 3.369 5.814 2.772.29 36.226 0 36.226 0s3.622-.598 3.985-2.445c.362-1.848 1.811-7.354-.308-12.244a29.51 29.51 0 01-2.156-10.433l.616-1.522-.616-3.622-19.072-.67z" fill="#fff" stroke="#263238" stroke-linecap="round" stroke-linejoin="round"/><path d="M121.21 548.774c2.753.308 36.225 0 36.225 0s3.623-.597 3.985-2.445c.516-2.277.783-4.603.797-6.937-5.053 1.503-10.179 3.622-10.179 3.622h-34.197c-2.463 2.391.688 5.47 3.369 5.76z" fill="#fff" stroke="#263238" stroke-linecap="round" stroke-linejoin="round"/><path d="M153.542 539.845l-2.355 8.278" stroke="#263238" stroke-linecap="round" stroke-linejoin="round"/><path d="M143.688 536.077a1.478 1.478 0 01-.561-.108c-6.358-2.826-10.506-.906-10.669-.815a1.36 1.36 0 01-1.811-.634 1.362 1.362 0 01.616-1.812c.217-.108 5.434-2.608 12.987.761a1.346 1.346 0 01.734.757 1.354 1.354 0 01-.028 1.054 1.375 1.375 0 01-1.268.797z" fill="#fff" stroke="#263238" stroke-linecap="round" stroke-linejoin="round"/><path d="M144.865 532.618a1.538 1.538 0 01-.561-.109c-6.34-2.825-10.488-.905-10.669-.815a1.373 1.373 0 01-1.753-.667 1.375 1.375 0 01.54-1.796c.217-.109 5.433-2.608 13.005.761a1.376 1.376 0 01-.562 2.626zm1.178-3.622a1.45 1.45 0 01-.544-.109c-6.357-2.844-10.505-.906-10.686-.815a1.376 1.376 0 01-1.214-2.463c.218-.109 5.434-2.609 13.005.76a1.377 1.377 0 01.707 1.811 1.411 1.411 0 01-1.268.816zm86.904-11.157s8.568 13.783 11.031 15.939c2.464 2.155 8.567 6.738 11.031 9.183 2.463 2.445-.616 5.524-3.387 5.814-2.772.29-36.226 0-36.226 0s-3.622-.598-3.966-2.445c-.345-1.848-1.812-7.354.289-12.244a29.51 29.51 0 002.156-10.433l-.616-1.522.616-3.622 19.072-.67z" fill="#fff" stroke="#263238" stroke-linecap="round" stroke-linejoin="round"/><path d="M251.622 548.774c-2.753.308-36.226 0-36.226 0s-3.622-.597-3.966-2.445a30.86 30.86 0 01-.815-6.937c5.053 1.503 10.179 3.622 10.179 3.622h34.143c2.517 2.391-.562 5.47-3.315 5.76z" fill="#fff" stroke="#263238" stroke-linecap="round" stroke-linejoin="round"/><path d="M219.291 539.845l2.372 8.278" stroke="#263238" stroke-linecap="round" stroke-linejoin="round"/><path d="M229.144 536.078a1.46 1.46 0 00.561-.109c6.358-2.825 10.506-.905 10.669-.815a1.432 1.432 0 001.09.096 1.418 1.418 0 00.839-.703 1.428 1.428 0 00-.607-1.929c-.217-.108-5.434-2.608-13.005.761a1.357 1.357 0 00-.706 1.812 1.376 1.376 0 001.159.887z" fill="#fff" stroke="#263238" stroke-linecap="round" stroke-linejoin="round"/><path d="M227.967 532.618c.192-.001.382-.038.561-.109 6.358-2.825 10.487-.905 10.669-.815a1.373 1.373 0 001.753-.667 1.38 1.38 0 00-.54-1.796c-.217-.109-5.434-2.608-13.005.761a1.371 1.371 0 00-.769 1.537 1.378 1.378 0 001.331 1.089z" fill="#fff" stroke="#263238" stroke-linecap="round" stroke-linejoin="round"/><path d="M226.789 528.996c.186-.001.371-.038.543-.109 6.358-2.844 10.506-.906 10.687-.815a1.373 1.373 0 001.753-.667 1.375 1.375 0 00-.54-1.796c-.217-.109-5.433-2.609-13.005.76a1.382 1.382 0 00-.769 1.538 1.378 1.378 0 001.331 1.089z" fill="#fff" stroke="#263238" stroke-linecap="round" stroke-linejoin="round"/><path d="M237.675 509.379c-.254-.923-.525-1.811-.779-2.735a141.306 141.306 0 01-3.822-27.893l-12.679-182.812c.145 2.065-60.116.797-65.495.706-12.281-.181-11.502 3.134-11.81 15.034-.308 11.9-.579 24.307-.833 36.461a6346.05 6346.05 0 00-1.213 139.812 40.99 40.99 0 01-1.033 11.339c-.833 2.916-2.318 5.596-3.224 8.476a23.548 23.548 0 00.29 15.034 56.415 56.415 0 0123.293 4.238c4.528-8.839 5.723-18.946 6.846-28.817l16.302-142.801 20.938 120.341 3.913 22.442c1.666 9.581 3.332 19.181 5.162 28.745a72.299 72.299 0 0124.144-4.456c2.21-3.876 1.232-8.603 0-13.114z" fill="#263238" stroke="#263238" stroke-linecap="round" stroke-linejoin="round"/><path d="M206.322 300.992h-49.611v5.362h49.611v-5.362zm14.091 0h-9.581v5.362h9.581v-5.362zm-68.212 0h-7.607v5.362h7.607v-5.362z" fill="#575757" stroke="#263238" stroke-linecap="round" stroke-linejoin="round"/><path d="M188.282 301.554h-12.408v4.51h12.408v-4.51zm-60.896-99.168s-22.858 79.479-23.854 81.508c-.996 2.028 4.981.996 10.596 1.992s13.584-3.315 14.49-4.981c.906-1.666 9.274-27.477 9.274-27.477l-10.506-51.042z" fill="#fff" stroke="#263238" stroke-linecap="round" stroke-linejoin="round"/><path d="M128.419 228.144l-.942-2.301m8.441 20.431l-6.394-15.468" stroke="#263238" stroke-linecap="round" stroke-linejoin="round"/><path d="M127.876 270.418l1.811 1.305-1.811-1.305z" fill="#fff"/><path d="M127.876 270.418l1.811 1.305" stroke="#263238" stroke-linecap="round" stroke-linejoin="round"/><path d="M110.995 266.832a54.125 54.125 0 017.534-2.283 35.93 35.93 0 017.246 4.347" fill="#fff"/><path d="M110.995 266.832a54.125 54.125 0 017.534-2.283 35.93 35.93 0 017.246 4.347" stroke="#263238" stroke-linecap="round" stroke-linejoin="round"/><path d="M233.364 197.751s26.155 69.879 26.825 72.451a18.115 18.115 0 01.996 7.245c-.344 2.97-4.963 4.963-5.959 4.963-.996 0-8.278-4.637-11.266-5.959-2.989-1.322-11.918-5.633-11.918-5.633l-4.637-14.907 5.959-58.16z" fill="#fff" stroke="#263238" stroke-linecap="round" stroke-linejoin="round"/><path d="M234.831 220.427l.435-1.702m-6.684 26.28l5.543-21.807m10.487 34.27l-10.687 6.683" stroke="#263238" stroke-linecap="round" stroke-linejoin="round"/><path d="M165.641 178.315l1.087-16.827h21.427l4.347 18.729-14.381 12.751-12.48-14.653z" fill="#fff" stroke="#263238" stroke-linecap="round" stroke-linejoin="round"/><path d="M164.807 182.517l-37.421 19.924 16.302 86.108s-1.322 7.951-.344 9.6a8.515 8.515 0 002.662 2.644H219.2s4.963-4.637 4.963-5.615v-4.365l9.274-93.063-37.132-14.708-31.498-.525z" fill="#fff" stroke="#263238" stroke-linecap="round" stroke-linejoin="round"/><path d="M173.193 186.448l4.909 13.856-6.647 84.333 10.396 16.464 8.966-17.913-9.255-82.884 5.777-12.425-8.368-9.238-5.778 7.807z" fill="#263238" stroke="#263238" stroke-linecap="round" stroke-linejoin="round"/><path d="M164.246 175.181l-.869 9.238 7.788 12.715 5.778-13.875-12.697-8.078zm17.895 8.369l4.619 14.725 9.546-15.305-4.348-8.948-9.817 9.528zm23.728 97.663l-1.322-10.27 8.947 1.648-7.625 8.622z" fill="#fff" stroke="#263238" stroke-linecap="round" stroke-linejoin="round"/><path d="M181.362 250.06a56.91 56.91 0 01-8.277-1.667c-2.989-.978-4.963.344-2.645 3.315 2.319 2.97 10.596 4.311 11.593 4.311 0 0 1.648 8.603 6.285 10.27a24.324 24.324 0 007.245 1.648 9.058 9.058 0 005.307 3.622c2.989.345 9.926 5.307 9.926 5.307l3.314-7.625-7.245-5.959-7.245-12.588-6.955-2.319-5.995-1.938-5.308 3.623z" fill="#DBDBDB" stroke="#263238" stroke-linecap="round" stroke-linejoin="round"/><path d="M199.91 259.115l-2.97 2.971c.201.868.31 1.754.326 2.644 0 1.341-2.319 1.341-3.985 1.341a8.601 8.601 0 01-4.963-1.341c-1.322-.978-6.629-5.615-6.629-5.615l5.633-9.943-4.963 3.314a34.175 34.175 0 01-4.311 6.285c-1.974 1.993-2.644-.326-2.644-.326a41.41 41.41 0 013.314-7.951 74.604 74.604 0 015.959-5.633 13.06 13.06 0 013.967 0 32.354 32.354 0 018.948 4.311 11.167 11.167 0 013.984 5.307c.193.758.303 1.536.327 2.318" fill="#DBDBDB"/><path d="M199.91 259.115l-2.97 2.971c.201.868.31 1.754.326 2.644 0 1.341-2.319 1.341-3.985 1.341a8.601 8.601 0 01-4.963-1.341c-1.322-.978-6.629-5.615-6.629-5.615l5.633-9.943-4.963 3.314a34.175 34.175 0 01-4.311 6.285c-1.974 1.993-2.644-.326-2.644-.326a41.41 41.41 0 013.314-7.951 74.604 74.604 0 015.959-5.633 13.06 13.06 0 013.967 0 32.354 32.354 0 018.948 4.311 11.167 11.167 0 013.984 5.307c.193.758.303 1.536.327 2.318" stroke="#263238" stroke-linecap="round" stroke-linejoin="round"/><path d="M191.306 265.636a6.25 6.25 0 01-.344-3.967 90.91 90.91 0 014.981-7.951m-7.625 10.922s-.526-.598-1.123-1.431c-.598-.833-.109-2.336-.109-3.423 0-1.992 4.872-10.035 4.872-10.035" stroke="#263238" stroke-linecap="round" stroke-linejoin="round"/><path d="M253.56 262.992s8.277 12.589 7.951 15.903c-.326 3.315-2.318 10.596-5.289 10.596-2.97 0-16.301-1.666-25.502-3.314-9.202-1.649-15.577-2.319-15.577-2.319l-9.274-2.644 6.303-15.233 6.014 1.25a59.926 59.926 0 018.748-1.449c4.311-.344 18.674-3.786 18.674-3.786" fill="#fff"/><path d="M253.56 262.992s8.277 12.589 7.951 15.903c-.326 3.315-2.318 10.596-5.289 10.596-2.97 0-16.301-1.666-25.502-3.314-9.202-1.649-15.577-2.319-15.577-2.319l-9.274-2.644 6.303-15.233 6.014 1.25a59.926 59.926 0 018.748-1.449c4.311-.344 18.674-3.786 18.674-3.786m-27.368 6.737a19.312 19.312 0 01-2.645 10.596" stroke="#263238" stroke-linecap="round" stroke-linejoin="round"/><path d="M107.843 273.262s-5.633 13.566-5.959 14.49c-.326.924.996 7.245 6.285 5.959 5.289-1.286 33.454-4.293 37.095-4.963l9.273-1.648h7.246c3.314 0 12.678 0 14.58-.67l7.952-2.645c1.974-.67 6.285-3.314 6.611-4.311.326-.996-.978-1.974-4.293-1.648-3.314.326-13.584.652-13.584.652s9.273-3.622 12.262-4.963c2.989-1.34 1.974-2.644 1.974-2.644-1.92.013-3.825.349-5.633.996-2.318.996-25.158 3.967-25.158 3.967l-2.609-2.228a19.643 19.643 0 001.323-5.959c0-2.645-1.323-4.637-2.989-3.967-1.666.67-2.318 4.637-2.644 5.959-.326 1.322-1.993 6.611-1.993 6.611l-.652 2.989s-13.584-2.644-17.569-4.311c-3.985-1.666-12.244-3.966-13.567-3.622-1.322.344-3.985 3.984-4.637 5.633" fill="#fff"/><path d="M107.843 273.262s-5.633 13.566-5.959 14.49c-.326.924.996 7.245 6.285 5.959 5.289-1.286 33.454-4.293 37.095-4.963l9.273-1.648h7.246c3.314 0 12.678 0 14.58-.67l7.952-2.645c1.974-.67 6.285-3.314 6.611-4.311.326-.996-.978-1.974-4.293-1.648-3.314.326-13.584.652-13.584.652s9.273-3.622 12.262-4.963c2.989-1.34 1.974-2.644 1.974-2.644-1.92.013-3.825.349-5.633.996-2.318.996-25.158 3.967-25.158 3.967l-2.609-2.228a19.643 19.643 0 001.323-5.959c0-2.645-1.323-4.637-2.989-3.967-1.666.67-2.318 4.637-2.644 5.959-.326 1.322-1.993 6.611-1.993 6.611l-.652 2.989s-13.584-2.644-17.569-4.311c-3.985-1.666-12.244-3.966-13.567-3.622-1.322.344-3.985 3.984-4.637 5.633m26.264 1.068s-2.21 4.855.453 7.952" stroke="#263238" stroke-linecap="round" stroke-linejoin="round"/><path d="M142.166 260.565l10.071 20.485a2.193 2.193 0 001.975 1.232l36.768.38a2.228 2.228 0 002.101-3.024l-8.005-20.866a2.212 2.212 0 00-2.065-1.413h-38.852a2.213 2.213 0 00-1.993 3.206z" fill="#FF8562" stroke="#263238" stroke-linecap="round" stroke-linejoin="round"/><path d="M186.67 277.899c-3.315.326-13.585.652-13.585.652s9.274-3.623 12.263-4.963c2.988-1.341 1.974-2.645 1.974-2.645a17.06 17.06 0 00-5.633.997c-2.319.996-25.159 3.966-25.159 3.966l-2.644-2.3a19.642 19.642 0 001.322-5.959c0-2.645-1.322-4.637-2.989-3.967-1.666.67-2.318 4.637-2.644 5.959-.326 1.322-1.993 6.611-1.993 6.611l-.652 2.989-3.513-.706a11.604 11.604 0 00.199 6.991 30.94 30.94 0 001.286 3.369h.362l9.274-1.648h7.245c3.314 0 12.679 0 14.581-.67l7.951-2.645c1.974-.67 6.285-3.314 6.611-4.311.326-.996-.942-2.046-4.256-1.72z" fill="#DBDBDB" stroke="#263238" stroke-linecap="round" stroke-linejoin="round"/><path d="M189.713 280.073a64.241 64.241 0 01-7.861 3.261c-.978 0-12.679 1.322-12.679 1.322" stroke="#263238" stroke-linecap="round" stroke-linejoin="round"/><path d="M136.986 522.873c.08-.321.183-.636.308-.942-.127.218-.272.417-.417.634l.109.308zm19.961-387.213s-2.971-2.173-4.058 1.087c-1.086 3.26-1.63 6.774.544 9.22 2.173 2.445 5.144 6.792 5.144 6.792l-1.63-17.099zm40.844 0s2.97-2.173 4.057 1.087c1.087 3.26 1.63 6.774-.544 9.22-2.173 2.445-5.144 6.792-5.144 6.792l1.631-17.099z" fill="#fff" stroke="#263238" stroke-linecap="round" stroke-linejoin="round"/><path d="M160.025 159.061s10.868 14.581 13.15 15.342c2.627.869 7.445 1.811 9.636.434 2.192-1.376 13.802-14.309 14.128-20.304.326-5.995 2.409-29.433-.978-35.356-3.387-5.923-10.523-14.49-29.361-8.332 0 0-17.968 5.705-6.575 48.216z" fill="#fff" stroke="#263238" stroke-linecap="round" stroke-linejoin="round"/><path d="M172.56 157.848a5.955 5.955 0 005.56 3.116c2.608 0 4.148-3.08 4.148-3.08" stroke="#263238" stroke-linecap="round" stroke-linejoin="round"/><path d="M147.6 130.624s8.912 11.882 23.764 12.48c14.853.598 20.939-2.083 24.652-5.053 3.713-2.971 10.994-9.202 10.994-9.202a31.38 31.38 0 01-4.166-11.284c-.887-6.249-1.811-18.42-15.45-22.587-13.639-4.165-29.107 1.486-33.853 10.995-4.745 9.509-2.68 20.793-5.941 24.651z" fill="#FF8562" stroke="#263238" stroke-linecap="round" stroke-linejoin="round"/><path d="M163.032 130.389s-.398-13.748 1.214-18.602c1.612-4.854 10.505-8.893 10.505-8.893v-5.253" fill="#fff"/><path d="M163.032 130.389s-.398-13.748 1.214-18.602c1.612-4.854 10.505-8.893 10.505-8.893v-5.253" stroke="#263238" stroke-linecap="round" stroke-linejoin="round"/><path d="M189.314 130.389s2.01-14.146-2.029-20.63c-4.039-6.485-6.865-6.467-6.865-6.467v-5.65" fill="#fff"/><path d="M189.314 130.389s2.01-14.146-2.029-20.63c-4.039-6.485-6.865-6.467-6.865-6.467v-5.65" stroke="#263238" stroke-linecap="round" stroke-linejoin="round"/><path d="M155.42 137.948s.738 6.811 1.593 11.288c.855 4.476 1.961 9.382 2.698 11.087 1.475 3.339 4.586 9.867 7.985 12.091 3.398 2.224 8.434 4.726 13.904 3.201 5.47-1.524 10.498-4.85 12.423-8.481 1.924-3.631 2.366-3.894 3.398-9.313 1.033-5.419 1.925-13.346 1.925-13.346l-1.436-6.96-1.801 1.542s1.327 3.194 1.327 5.141-2.366 11.676-2.809 13.346c-.442 1.67-1.629 2.917-2.809 3.194-1.179.277.144 4.159-2.65 2.489s-5.403-1.753-8.035-1.607c-2.632.145-6.33-.573-10.178.536-3.848 1.108-7.617-1.688-7.617-1.688s-2.514-.693-3.988-5.973c-1.475-5.28-2.337-15.438-2.337-15.438l-1.593-1.109z" fill="#263238" stroke="#263238" stroke-linecap="round" stroke-linejoin="round"/><path d="M174.932 164.749s1.811 2.192 6.575 0" stroke="#fff" stroke-linecap="round" stroke-linejoin="round"/><path d="M170.419 146.089c0 1.18-.475 2.139-1.068 2.139-.594 0-1.075-.959-1.075-2.139 0-1.18.481-2.147 1.075-2.147.593 0 1.068.944 1.068 2.147zm17.142-.004c0 1.178-.475 2.143-1.069 2.143-.593 0-1.074-.965-1.074-2.143s.481-2.143 1.074-2.143c.594 0 1.069.958 1.069 2.143z" fill="#263238" stroke="#263238" stroke-linecap="round" stroke-linejoin="round"/><path d="M285.426 511.107s-4.505 9.149-7.723 14.319c-3.218 5.17-9.192 11.97-8.581 17.955.612 5.985 6.843 6.628 13.257 3.218 6.414-3.411 12.185-10.254 13.944-15.392 1.759-5.137 7.272-9.406 7.272-15.177 0-5.77-.429-6.435-2.564-7.057-2.134-.622-13.471-1.502-15.605 2.134z" fill="#fff" stroke="#263238" stroke-linecap="round" stroke-linejoin="round"/><path d="M303.595 516.02v-2.22a40.487 40.487 0 01-2.145 5.212c-2.36 4.709-5.781 7.508-7.058 13.257-1.276 5.749-9.406 12.399-16.464 14.105-7.057 1.705-8.58-4.055-8.58-4.055h-.258a7.39 7.39 0 000 1.073c.644 5.985 6.843 6.628 13.257 3.218 6.414-3.411 12.185-10.254 13.944-15.392 1.759-5.137 7.304-9.428 7.304-15.198z" fill="#263238" stroke="#263238" stroke-linecap="round" stroke-linejoin="round"/><path d="M286.284 514.947s2.574 3.636 11.122 2.574m-11.337.429a12.324 12.324 0 008.978 2.563m-9.836.001a8.827 8.827 0 007.508 2.778m-8.366.858s1.502 2.992 7.272 2.349" stroke="#263238" stroke-linecap="round" stroke-linejoin="round"/><path d="M340.148 519.184a36.285 36.285 0 0012.871 12.184c8.334 4.494 19.028 7.508 19.875 9.653a3.593 3.593 0 01-1.276 4.494c-1.073.633-16.893 1.073-25.227-.429a59.632 59.632 0 00-14.319-1.287c-3.851 0-12.185 1.073-13.257-3.636-1.073-4.709 1.705-21.805 1.705-21.805s12.571 3.646 19.628.826z" fill="#fff" stroke="#263238" stroke-miterlimit="10"/><path d="M371.575 545.526c.552-.365.99-.879 1.263-1.483a3.509 3.509 0 00.281-1.928 70.508 70.508 0 01-10.093 1.695c-8.58.858-21.376-1.92-31.426-2.349-7.379-.311-11.412-2.017-13.032-2.885.029.537.097 1.071.204 1.598 1.072 4.708 9.406 3.636 13.257 3.636 4.807-.15 9.615.282 14.319 1.287 8.334 1.491 24.154 1.062 25.227.429z" fill="#263238" stroke="#263238" stroke-miterlimit="10"/><path d="M343.355 524.15a13.575 13.575 0 00-3.85 4.912m6.414-1.716s-2.778 2.36-2.778 3.851m5.556-1.706a17.722 17.722 0 00-1.706 3.851m5.985-1.931s-1.716 1.502-1.716 2.992" stroke="#263238" stroke-miterlimit="10"/><path d="M279.773 292.152s-6.8 32.36-6.264 50.057c.536 17.698 24.669 61.673 24.669 61.673s-12.871 31.641-13.407 45.585c-.536 13.943.558 58.83.558 58.83s5.363 3.111 10.222 3.111c4.858 0 10.661-2.446 10.661-2.446l12.345-48.266.537 58.456a23.033 23.033 0 0011.798 3.217 20.804 20.804 0 0011.798-3.754s8.581-61.673 9.653-71.862c1.073-10.189 8.045-40.758 8.581-42.903.536-2.145 10.726-35.931 10.726-63.282 0-27.35-7.862-43.793-7.862-43.793s-27.533-6.081-47.912-6.618a218.817 218.817 0 00-36.103 1.995z" fill="#263238" stroke="#263238" stroke-linecap="round" stroke-linejoin="round"/><path d="M322.311 452.684s13.944-39.685 13.944-49.338c0-9.653-9.117-69.718-9.117-69.718m3.754 18.234s8.044-9.117 10.726-14.48" stroke="#878787" stroke-miterlimit="10"/><path d="M362.715 209.929s11.08 6.435 17.161 16.088c6.082 9.653 19.307 50.411 18.588 60.772-.719 10.361-3.926 13.236-13.225 11.445-9.299-1.792-10.007-12.153-12.152-20.733-2.145-8.581-13.589-62.928-13.589-62.928l-.354-5.009 3.571.365z" fill="#fff" stroke="#263238" stroke-linecap="round" stroke-linejoin="round"/><path d="M398.464 286.789c.365-5.277-2.885-18.448-6.971-31.372l-22.621 3.131c1.899 8.796 3.529 16.186 4.215 18.921 2.145 8.58 2.853 18.941 12.153 20.732 9.299 1.792 12.516-1.04 13.224-11.412z" fill="#CFCFCF" stroke="#263238" stroke-linecap="round" stroke-linejoin="round"/><path d="M288.708 206.711s-8.581 1.78-10.726 16.796c-2.145 15.016 2.864 39.686 2.864 39.686l-1.073 28.959s35.749 9.299 50.411 9.299c14.662 0 33.604-4.644 33.604-4.644s-7.862-72.227-9.299-78.298c-1.438-6.071-7.862-12.163-13.225-16.088-5.363-3.926-18.953-3.583-26.815-1.438-7.862 2.146-18.952 6.436-18.952 6.436l-6.789-.708z" fill="#fff" stroke="#263238" stroke-linecap="round" stroke-linejoin="round"/><path d="M314.45 196.693s7.508 30.397 8.226 51.129c.719 20.733-3.218 85.088-3.218 85.088s-16.807.718-28.959-1.427c-12.152-2.145-20.744-3.218-20.744-3.218l10.726-66.853s14.662 1.073 17.88-9.299c3.218-10.372-1.073-31.105-5.009-37.54-3.936-6.436-4.644-7.862-4.644-7.862l25.742-10.018zm32.53 28.251s7.873 30.032 7.155 60.064c-.719 30.033-1.073 46.121-1.073 46.121s17.161-1.072 26.814-5.009c0 0-5.363-70.071-10.371-90.815-5.009-20.743-6.79-25.377-6.79-25.377l-20.025-8.226 4.29 23.242z" fill="#FF8562" stroke="#263238" stroke-linecap="round" stroke-linejoin="round"/><path d="M322.151 190.858s-7.508 1.394-9.482 5.299c-1.973 3.904 7.809 35.974 7.809 35.974l14.222-11.713 17.569 10.04s-3.347-24.262-10.597-32.628c-7.251-8.366-19.521-6.972-19.521-6.972z" fill="#fff" stroke="#263238" stroke-linecap="round" stroke-linejoin="round"/><path d="M319.083 170.511s-.279 28.155 2.788 35.395c3.068 7.24 11.155 17.848 14.223 16.175 3.067-1.674 3.904-22.031 4.462-23.425.557-1.395 2.788-12.871 2.788-12.871s-20.078-5.535-24.261-15.274z" fill="#CFCFCF" stroke="#263238" stroke-linecap="round" stroke-linejoin="round"/><path d="M319.083 170.511s-.107 11.305.59 21.452a19.962 19.962 0 0012.613 6.907c2.737.414 5.523.378 8.249-.107a.19.19 0 010-.075c.557-1.395 2.788-12.871 2.788-12.871s-20.057-5.567-24.24-15.306z" fill="#263238" stroke="#263238" stroke-linecap="round" stroke-linejoin="round"/><path d="M350.455 267.386l-2.145 1.309-12.409-20.283a1.253 1.253 0 011.803-1.666c.133.097.245.218.331.358l12.42 20.282z" fill="#fff" stroke="#263238" stroke-linecap="round" stroke-linejoin="round"/><path d="M288.708 206.71s-8.227.708-13.225 10.362c-4.998 9.653-12.871 55.065-14.308 68.29-1.438 13.225 6.435 12.153 7.508 12.153 1.072 0 57.919-18.942 57.919-18.942l19.306-2.145s-2.145 1.78-.354 1.78 5.363-3.571 6.789-5.717c1.427-2.145-4.29-13.943-6.435-15.37-2.145-1.426-21.451 12.871-21.451 12.871l-37.541 2.499 9.654-32.895" fill="#fff"/><path d="M288.708 206.71s-8.227.708-13.225 10.362c-4.998 9.653-12.871 55.065-14.308 68.29-1.438 13.225 6.435 12.153 7.508 12.153 1.072 0 57.919-18.942 57.919-18.942l19.306-2.145s-2.145 1.78-.354 1.78 5.363-3.571 6.789-5.717c1.427-2.145-4.29-13.943-6.435-15.37-2.145-1.426-21.451 12.871-21.451 12.871l-37.541 2.499 9.654-32.895" stroke="#263238" stroke-linecap="round" stroke-linejoin="round"/><path d="M345.908 257.121c-2.145-1.437-21.452 12.871-21.452 12.871l-37.54 2.499 2.382-8.108-24.015-5.417c-1.985 11.016-3.54 21.194-4.108 26.396-1.427 13.225 6.435 12.153 7.508 12.153 1.072 0 57.919-18.942 57.919-18.942l19.306-2.145s-2.145 1.78-.354 1.78 5.363-3.571 6.789-5.717c1.427-2.145-4.29-13.943-6.435-15.37z" fill="#CFCFCF" stroke="#263238" stroke-linecap="round" stroke-linejoin="round"/><path d="M345.908 257.121c-2.145-1.437-21.452 12.871-21.452 12.871l-5.47.365a20.595 20.595 0 002.478 9.921l5.137-1.705 19.307-2.145s-2.145 1.78-.354 1.78 5.363-3.571 6.789-5.717c1.427-2.145-4.29-13.943-6.435-15.37z" fill="#666" stroke="#263238" stroke-linecap="round" stroke-linejoin="round"/><path d="M364.86 240.314l-36.467 51.13 47.912-1.791 34.676-47.193-46.121-2.146z" fill="#263238" stroke="#263238" stroke-linecap="round" stroke-linejoin="round"/><path d="M380.96 238.812l-2.8 4.655 20.969.472 2.8-4.665-20.969-.462z" fill="#263238" stroke="#263238" stroke-linecap="round" stroke-linejoin="round"/><path d="M395.129 269.328a21.316 21.316 0 01-5.106 1.179c-2.145.097-4.118 1.18-4.118 2.264 0 1.083 3.829 1.276 6.574 1.276 2.746 0 4.902-.59 5.363-2.36.461-1.769-.161-3.335-2.713-2.359z" fill="#666" stroke="#263238" stroke-linecap="round" stroke-linejoin="round"/><path d="M397.595 264.533a27.154 27.154 0 01-6.435 1.502c-2.735.118-5.223 1.49-5.223 2.853 0 1.362 4.848 1.619 8.333 1.619 3.486 0 6.221-.74 6.843-2.982.623-2.241-.278-4.236-3.518-2.992z" fill="#666" stroke="#263238" stroke-linecap="round" stroke-linejoin="round"/><path d="M399.58 260.436a27.112 27.112 0 01-6.436 1.501c-2.746.118-5.234 1.491-5.234 2.853 0 1.363 4.859 1.62 8.345 1.62 3.485 0 6.22-.74 6.843-2.982.622-2.241-.279-4.236-3.518-2.992z" fill="#666" stroke="#263238" stroke-linecap="round" stroke-linejoin="round"/><path d="M400.92 255.802a27.403 27.403 0 01-6.435 1.491c-2.735.118-5.224 1.491-5.224 2.863 0 1.373 4.848 1.62 8.334 1.62 3.486 0 6.221-.751 6.843-2.992.622-2.242-.279-4.226-3.518-2.982zM284.224 498.075s-.225 11.112.215 12.871c.439 1.759 8.226 3.99 13.107 3.99 4.88 0 8.001-1.073 8.891-2.435.89-1.362 2.435-10.447 2.435-10.447s-17.322 3.583-24.648-3.979z" fill="#666" stroke="#263238" stroke-linecap="round" stroke-linejoin="round"/><path d="M308.808 161.588a20.911 20.911 0 00-20.626 3.904c-9.76 8.366-1.073 23.425 9.203 25.098 10.275 1.673 17-3.067 18.673-10.597 1.673-7.529-1.094-18.684-7.25-18.405z" fill="#263238" stroke="#263238" stroke-linecap="round" stroke-linejoin="round"/><path d="M358.146 159.078s-1.394 13.943-4.183 23.704c-2.788 9.76-10.039 13.385-20.379 11.991-10.339-1.394-16.174-9.76-19.52-19.521-3.347-9.76-3.626-23.146-3.626-23.146l47.708 6.972z" fill="#CFCFCF" stroke="#263238" stroke-linecap="round" stroke-linejoin="round"/><path d="M311.896 158.799s3.347 3.068 10.855-2.231c7.508-5.298 3.904-7.808 3.904-7.808l-17.848 1.072 3.089 8.967z" fill="#263238" stroke="#263238" stroke-linecap="round" stroke-linejoin="round"/><path d="M347.034 162.424s-1.394 4.183-.558 5.577c.837 1.395 3.068 3.347.558 5.578a4.042 4.042 0 01-6.435-1.073m-9.117 2.381s4.29 5.566 12.42 3.003" stroke="#263238" stroke-linecap="round" stroke-linejoin="round"/><path d="M337.553 164.097c0 1.545-.622 2.789-1.395 2.789-.772 0-1.394-1.244-1.394-2.789 0-1.544.622-2.788 1.394-2.788.773 0 1.395 1.244 1.395 2.788zm15.337 2.21c0 1.544-.622 2.788-1.394 2.788-.772 0-1.394-1.244-1.394-2.788 0-1.545.622-2.789 1.394-2.789.772 0 1.394 1.266 1.394 2.789z" fill="#263238"/><path d="M331.697 157.962s3.904-4.462 8.923 0m8.946 2.231a4.647 4.647 0 015.856.279" stroke="#263238" stroke-linecap="round" stroke-linejoin="round"/><path d="M307.735 153.221l51.87 5.578s-.558-26.214-.837-30.665c-.278-4.451-20.915-10.597-28.959-10.039-8.044.557-18.127 5.298-19.8 7.508-1.673 2.209-2.274 27.618-2.274 27.618z" fill="#FF8562" stroke="#263238" stroke-linecap="round" stroke-linejoin="round"/><path d="M330.023 156.01l46.003 6.135s-12.26-10.597-22.02-11.434c-9.76-.836-23.983 5.299-23.983 5.299z" fill="#FF8562" stroke="#263238" stroke-linecap="round" stroke-linejoin="round"/><path d="M313.849 160.751s-1.073-8.645-5.857-8.645c-4.783 0-2.509 6.972-1.952 11.434.558 4.461 5.856 5.577 7.809 3.904" fill="#CFCFCF"/><path d="M313.849 160.751s-1.073-8.645-5.857-8.645c-4.783 0-2.509 6.972-1.952 11.434.558 4.461 5.856 5.577 7.809 3.904" stroke="#263238" stroke-linecap="round" stroke-linejoin="round"/><path d="M318.654 509.627l.665 10.447s2.949 2.209 11.573 2.327c8.623.118 11.798-3.754 11.798-3.754l1.727-11.262s-15.992 7.573-25.763 2.242z" fill="#666" stroke="#263238" stroke-linecap="round" stroke-linejoin="round"/><path d="M577.826 185.592s.268-12.327 1.115-14.256c.847-1.928 3.009-4.926 4.659-5.473a61.345 61.345 0 007.401-2.742 88.726 88.726 0 006.855-6.308s4.38-1.115 4.659.278c.279 1.394-6.309 7.401-6.309 7.401l2.742 1.115 14.49.279 8.494-8.505s3.009-1.917 2.742 0c-.268 1.917-8.505 12.607-9.319 12.607-.813 0-24.677 8.772-24.677 8.772l-2.742 10.689-10.11-3.857z" fill="#fff" stroke="#263238" stroke-linecap="round" stroke-linejoin="round"/><path d="M603.864 173.264s5.751-1.649 6.576-3.02c.825-1.371 6.855-13.376 7.401-14.256.546-.881-3.009-.268-4.38 0-1.371.267-5.217 12.06-5.217 12.06l-6.03 1.917 1.65 3.299z" fill="#fff" stroke="#263238" stroke-linecap="round" stroke-linejoin="round"/><path d="M605.937 171.169s5.974-.368 7.067-1.527c1.092-1.159 9.597-11.637 10.31-12.317.713-.68-2.887-.925-4.28-.947-1.393-.022-7.691 10.645-7.691 10.645l-6.309.579.903 3.567z" fill="#fff" stroke="#263238" stroke-linecap="round" stroke-linejoin="round"/><path d="M582.753 178.191s-.267-5.484 3.288-8.226c3.556-2.742 14.802-3.009 14.802-3.009s5.484-10.689 6.855-10.689c1.371 0 4.659-1.371 4.392 0-.268 1.371-3.567 6.854-4.938 9.596-1.371 2.742-1.917 6.298-3.288 7.401-1.371 1.104-9.318 3.01-9.318 3.01" fill="#fff"/><path d="M582.753 178.191s-.267-5.484 3.288-8.226c3.556-2.742 14.802-3.009 14.802-3.009s5.484-10.689 6.855-10.689c1.371 0 4.659-1.371 4.392 0-.268 1.371-3.567 6.854-4.938 9.596-1.371 2.742-1.917 6.298-3.288 7.401-1.371 1.104-9.318 3.01-9.318 3.01" stroke="#263238" stroke-linecap="round" stroke-linejoin="round"/><path d="M573.435 194.643l3.021-10.143 13.698 2.196-3.288 12.606-13.431-4.659z" fill="#FF8562" stroke="#263238" stroke-linecap="round" stroke-linejoin="round"/><path d="M518.395 183.675s12.06 3.288 14.256 7.401c2.196 4.113 20.554 33.717 21.657 35.668a92.159 92.159 0 011.917 3.566s13.432-32.624 13.978-34.553c.546-1.928 5.205-2.463 6.576-2.463 1.371 0 13.977.825 14.49 4.113.513 3.288-15.906 65.762-17.544 67.156-1.639 1.393-6.03 1.917-8.772 1.114-2.742-.802-38.655-18.948-38.655-18.948l-7.903-63.054z" fill="#FF8562" stroke="#263238" stroke-linecap="round" stroke-linejoin="round"/><path d="M556.169 230.277a84.435 84.435 0 00-4.336 13.833m-4.692-1.193a29.038 29.038 0 00-.747 2.296m5.685-10.822a25.598 25.598 0 00-3.723 5.706" stroke="#263238" stroke-linecap="round" stroke-linejoin="round"/><path d="M451.35 290.924l-9.797 114.906-6.03 99.836s-3.344 4.147-3.01 6.03c.335 1.884 2.23 7.156 2.23 7.156s-5.651 16.207-4.136 17.332a40.031 40.031 0 004.515 2.642h15.448s3.01-3.021 2.642-5.283c-.368-2.263-2.642-15.817-2.642-15.817a69.579 69.579 0 003.768-7.535c.379-1.504-1.884-9.418-1.884-9.418l36.169-138.636s15.438 86.639 19.205 106.613c3.768 19.974 11.146 69.541 11.146 69.541h7.914l1.115-3.344s.379-.747 4.146 1.505a12.464 12.464 0 007.156 1.884H558.9s1.505-1.884.379-2.23c-1.126-.345-16.574-10.811-19.216-13.074-2.642-2.263-7.156-8.282-7.156-8.282s2.631-6.788 2.631-7.914c0-1.125-3.344-7.534-3.344-7.534l-2.464-100.94 1.115-104.774-79.495-2.664z" fill="#263238" stroke="#263238" stroke-linecap="round" stroke-linejoin="round"/><path d="M463.968 179.462l-23.797 11.413 11.526 74.078-1.115 29.403s19.751 10.812 42.088 10.11a109.562 109.562 0 0039.279-8.705l1.17-64.202s-2.351-31.276-5.171-36.448c-2.82-5.172-4.236-7.524-8.226-10.578-3.991-3.054-16.229-6.587-16.229-6.587s-22.159-1.828-22.872-1.828c-.714 0-16.653 3.344-16.653 3.344z" fill="#263238" stroke="#263238" stroke-linecap="round" stroke-linejoin="round"/><path d="M489.917 206.514l13.988 25.29 3.289-29.86-9.876-14.345-7.29 16.463-.111 2.452z" fill="#FF8562" stroke="#263238" stroke-linecap="round" stroke-linejoin="round"/><path d="M498.332 192.626l8.405 11.335 2.195-24.488-5.116-6.208-5.484 19.361z" fill="#FF8562" stroke="#263238" stroke-linecap="round" stroke-linejoin="round"/><path d="M467.624 154.249l1.828 20.108 28.88 18.268 12.428-33.984-43.136-4.392z" fill="#fff" stroke="#263238" stroke-linecap="round" stroke-linejoin="round"/><path d="M468.716 166.175a31.214 31.214 0 0013.521 2.531c10.031-.435 21.668-4.905 27.564-7.468l.959-2.597-43.136-4.392 1.092 11.926z" fill="#263238" stroke="#263238" stroke-linecap="round" stroke-linejoin="round"/><path d="M498.332 192.626l-8.416 13.888-25.948-27.041 4.024-6.576 30.34 19.729z" fill="#FF8562" stroke="#263238" stroke-linecap="round" stroke-linejoin="round"/><path d="M531.224 273.312s10.69-9.05 12.061-9.05c1.37 0 8.225 5.205 8.225 5.205s6.844-.814 7.123.825c.278 1.638-1.115 6.309-1.115 6.309l-1.649 1.638s-4.66 7.134-4.66 8.226c0 1.092-6.03.825-8.772 1.371s-10.41-1.371-10.41-1.371l-.803-13.153z" fill="#fff" stroke="#263238" stroke-linecap="round" stroke-linejoin="round"/><path d="M520.803 272.488l12.617.279.268 13.152-10.411.279-2.474-13.71z" fill="#fff" stroke="#263238" stroke-linecap="round" stroke-linejoin="round"/><path d="M462.664 216.813a21.51 21.51 0 00-8.293-16.876c-4.391-3.421-9.853-7.534-11.725-8.315-3.289-1.371-4.927-.824-9.586 2.475-4.659 3.299-6.309 10.132-6.03 21.378.278 11.247 8.215 70.444 9.039 72.907.825 2.464 3.344 3.021 5.484 3.288 2.14.268 77.756-2.307 79.216-2.463 5.217-.546 6.064-7.646 5.763-10.968-.546-6.03-5.763-7.947-13.71-8.772-7.947-.825-46.814-5.473-48.241-5.751-.934-.204-1.85-.48-2.742-.825 0 0 .825-32.068.825-40.84v-5.238z" fill="#FF8562" stroke="#263238" stroke-linecap="round" stroke-linejoin="round"/><path d="M446.87 272.622a15.122 15.122 0 00-2.229 3.154m17.232-12.885a56.505 56.505 0 00-11.625 6.688m-6.198-.658s6.309-8.493 16.173-6.298" stroke="#263238" stroke-linecap="round" stroke-linejoin="round"/><path d="M584.013 126.919h-2.542v23.931h2.542v-23.931zm8.337 23.931h-19.216v1.092h19.216v-1.092z" fill="#fff" stroke="#263238" stroke-linecap="round" stroke-linejoin="round"/><path d="M582.742 129.104a9.803 9.803 0 01-6.897-2.905 9.803 9.803 0 01-2.834-6.926l1.895-17.723h15.672l1.95 17.723a9.783 9.783 0 01-2.854 6.945 9.8 9.8 0 01-6.932 2.886z" fill="#fff" stroke="#263238" stroke-linecap="round" stroke-linejoin="round"/><path d="M614.865 88.687L613.962 68h-7.702l-.925 20.687a19.627 19.627 0 01-1.114 5.83l-4.459 12.261a21.54 21.54 0 00-1.315 7.412v40.003h23.407v-40.026c0-2.528-.445-5.037-1.315-7.412l-4.459-12.26a19.644 19.644 0 01-1.215-5.808z" fill="#263238" stroke="#263238" stroke-linecap="round" stroke-linejoin="round"/><path d="M620.628 118.638H599.45v28.579h21.178v-28.579z" fill="#fff" stroke="#263238" stroke-linecap="round" stroke-linejoin="round"/><path d="M614.765 86.213a.885.885 0 010-.178l-.725-16.374A1.724 1.724 0 00612.301 68h-4.38a1.75 1.75 0 00-1.739 1.66l-.713 16.375v.178h9.296zm41.731 70.054H552.603l-5.484-4.392h115.954l-6.577 4.392z" fill="#8C8C8C" stroke="#263238" stroke-linecap="round" stroke-linejoin="round"/><path d="M477.344 264.597l.368 65.171h54.627l1.081-57.001-56.076-8.17zm16.529-154.242a13.972 13.972 0 018.784 7.401c3.344 6.32 12.35 32.658 12.628 36.225.279 3.567-3.566 4.67-7.958 7.412s-18.659 4.938-26.617 2.23c-7.959-2.709-9.608-7.134-9.608-7.134s-3.021 3.567-8.783-.279c-5.763-3.845-6.855-9.05-4.659-10.979 2.195-1.928 5.762-.267 5.762-.267s-6.041-14.825-5.495-20.063c.546-5.239.825-10.422 9.608-13.989 8.783-3.566 26.338-.557 26.338-.557z" fill="#fff" stroke="#263238" stroke-linecap="round" stroke-linejoin="round"/><path d="M494.119 122.193s1.114 3.567 2.463 4.124c1.349.557 8.516-1.65 9.062 1.371.546 3.021-2.229 7.958-2.229 7.958m2.229 4.938s-6.866 6.03-13.721.546m-11.246-10.154l7.679-2.742m-2.474-8.237s-6.03-3.344-9.051 2.753m17.042-3.299s2.742-4.938 7.691-.825" stroke="#263238" stroke-linecap="round" stroke-linejoin="round"/><path d="M485.692 130.073c.134.39-.379.902-1.115 1.114-.735.212-1.471.134-1.594-.256-.122-.39.368-.903 1.115-1.115.747-.212 1.46-.134 1.594.257zm-24.499 10.511s1.638 5.762 2.742 6.03c1.103.267 5.763 1.114 5.484-1.639-.279-2.753-5.205-12.35-4.659-15.604.546-3.255 6.855-7.959 5.484-9.876-1.371-1.917-3.567-1.649-2.742-3.02.825-1.371 13.988-5.763 18.948-5.763 4.96 0 7.134-.268 9.33-1.917 2.195-1.65 5.484-8.237-4.671-8.505-10.154-.267-26.884 6.588-32.647 14.267-5.762 7.68-3.02 13.721-1.382 16.72 1.639 2.998 4.113 9.307 4.113 9.307zm38.02 57.581l-11.035-2.352 2.274 11.581 9.173-7.011 10.221 4.648-1.884-11.826-8.749 4.96z" fill="#263238" stroke="#263238" stroke-linecap="round" stroke-linejoin="round"/></svg>