<svg width="416" height="381" fill="none" xmlns="http://www.w3.org/2000/svg"><path d="M402.395 361.69l-7.309-7.224c6.084-8.815 3.461-15.308-1.763-21.285-3.15-3.601-11.385-3.053-21.5-1.752l-55.9-55.222-8.6 3.225s23.263 28.325 45.053 54.372c-9.051.807-18.156.817-25.703-1.698-22.575-7.525-40.849-23.65-40.849-23.65-25.8 2.15 12.899 44.075 27.949 55.9 30.1 23.649 46.096 19.35 67.467 3.418 3.837 4.386 6.611 7.407 7.783 8.407l.225.193c9.632 7.998 22.048-5.88 13.147-14.684z" fill="#FF8562"/><path opacity=".5" d="M402.395 361.69l-7.309-7.224c6.084-8.815 3.461-15.308-1.763-21.285-3.15-3.601-11.385-3.053-21.5-1.752l-55.9-55.222-8.6 3.225s23.263 28.325 45.053 54.372c-9.051.807-18.156.817-25.703-1.698-22.575-7.525-40.849-23.65-40.849-23.65-25.8 2.15 12.082 45.204 27.949 55.9 35.475 23.886 46.096 19.35 67.467 3.418 3.837 4.386 6.611 7.407 7.783 8.407l.225.193c9.632 7.998 22.048-5.88 13.147-14.684z" fill="#fff"/><path d="M60.84 166.891s28.271 32.68 28.422 73.164c.15 40.484-27.864 73.432-27.864 73.432s-28.272-32.679-28.423-73.153c-.15-40.473 27.864-73.443 27.864-73.443z" fill="#FF8562"/><path d="M122.963 259.491s.172 26.606-14.115 43.515c-14.287 16.91-37.624 17.727-37.624 17.727s-.183-26.606 14.114-43.516c14.297-16.909 37.625-17.726 37.625-17.726zM.167 257.029s-1.183 26.574 12.459 44.16c13.641 17.587 36.937 19.544 36.937 19.544s1.171-26.574-12.47-44.161C23.45 258.985.167 257.029.167 257.029z" fill="#FF8562"/><g opacity=".5" fill="#fff"><path opacity=".5" d="M60.84 166.891s28.271 32.68 28.422 73.164c.15 40.484-27.864 73.432-27.864 73.432s-28.272-32.679-28.423-73.153c-.15-40.473 27.864-73.443 27.864-73.443z"/><path opacity=".5" d="M122.963 259.491s.172 26.606-14.115 43.515c-14.287 16.91-37.624 17.727-37.624 17.727s-.183-26.606 14.114-43.516c14.297-16.909 37.625-17.726 37.625-17.726zM.167 257.029s-1.183 26.574 12.459 44.16c13.641 17.587 36.937 19.544 36.937 19.544s1.171-26.574-12.47-44.161C23.45 258.985.167 257.029.167 257.029z"/></g><path d="M43.489 276.089a.66.66 0 01.501-.347.674.674 0 01.574.207l14.856 13.276a.736.736 0 00.818.062.743.743 0 00.375-.729l-.16-30.626a.923.923 0 00-.248-.623L37.899 234.83a.911.911 0 01-.065-1.182.683.683 0 01.52-.304.675.675 0 01.556.229l20.349 20.511a.726.726 0 00.831.124.722.722 0 00.384-.748l-.13-33.701a.88.88 0 00-.247-.623L45.295 204.58a.911.911 0 01-.076-1.182.68.68 0 01.822-.264.68.68 0 01.254.178l12.781 12.695c.473.473 1.215.086 1.215-.634l-.215-47.643a.797.797 0 01.73-.839.788.788 0 01.743.828l.268 70.541a.731.731 0 001.344.473l16.555-27.595a.687.687 0 011.021-.215.91.91 0 01.194 1.161l-18.974 31.615-.118-.097.107 28.907a.73.73 0 001.226.623L83.36 252.45a.669.669 0 011.075.064.914.914 0 01-.064 1.183L62 276.626l.139 36.034a.782.782 0 01-.731.838.775.775 0 01-.742-.828l-.075-19.822a.882.882 0 00-.28-.656l-16.694-14.91a.913.913 0 01-.13-1.193zM.952 258.782a.675.675 0 011.075.075l22.424 28.53c.473.613 1.365.161 1.268-.656l-1.838-16.641a.806.806 0 01.634-.935.746.746 0 01.563.185.761.761 0 01.254.535l2.408 21.683 8.686 11.148a.721.721 0 001.28-.463l1.58-15.909a.774.774 0 01.817-.742.804.804 0 01.645.924l-1.881 18.877a.914.914 0 00.182.656l11.707 14.91a.924.924 0 01-.054 1.183.68.68 0 01-1.075-.065l-6.32-8.052a.704.704 0 00-.592-.279l-11.664.806a.774.774 0 01-.555-.23.785.785 0 01-.23-.555.818.818 0 01.7-.892l9.34-.645a.854.854 0 00.647-.55.86.86 0 00-.14-.837l-9.364-11.921a.698.698 0 00-.548-.269H14.217a.797.797 0 01-.73-.839.78.78 0 01.433-.758.786.786 0 01.297-.08h14.06a.863.863 0 00.822-.986.86.86 0 00-.198-.433l-10.32-13.147a.703.703 0 00-.559-.28l-10.75.151a.787.787 0 01-.741-.828.78.78 0 01.424-.765.768.768 0 01.296-.084l8.17-.108a.858.858 0 00.537-1.397L.952 259.964a.924.924 0 010-1.182zm76.076 38.151a.768.768 0 01.828.72l1.258 10.567a.72.72 0 001.258.473L90.1 297.18a.903.903 0 00.194-.645L89.1 277.572a.795.795 0 01.677-.892.763.763 0 01.785.763l1.075 15.985a.73.73 0 00.89.734.724.724 0 00.378-.218l10.75-12.717a.977.977 0 00.204-.656l-.935-12.169a.824.824 0 01.667-.913.77.77 0 01.795.763l.71 9.266a.72.72 0 001.257.506l15.641-18.512a.691.691 0 01.538-.265.68.68 0 01.537.265.927.927 0 010 1.183L99.765 288.29c-.506.591 0 1.559.666 1.397l14.437-3.343a.731.731 0 01.769.369c.05.088.081.186.091.287a.838.838 0 01-.57.989l-18.887 4.343-9.105 10.75a.858.858 0 00.093 1.23.86.86 0 00.412.189l14.039.612a.782.782 0 01.68.554c.03.099.04.203.03.306a.758.758 0 01-.212.561.774.774 0 01-.551.235l-16.663-.72a.677.677 0 00-.559.258l-12.169 14.404a.673.673 0 01-.837.196.673.673 0 01-.238-.196.924.924 0 010-1.182l6.58-7.783a.917.917 0 00.193-.688l-1.57-13.201a.828.828 0 01.634-.924z" fill="#fff"/><path d="M345.163 274.52l-159.689 44.945a8.35 8.35 0 01-9.127-3.763L55.249 97.759a4.74 4.74 0 013.042-7.18l159.69-44.946a8.333 8.333 0 019.116 3.752l121.076 217.943c.411.646.659 1.382.723 2.145a4.74 4.74 0 01-1.697 4.056 4.763 4.763 0 01-2.036.991z" fill="#263238" stroke="#000" stroke-miterlimit="10"/><path d="M183.227 309.908s92.277-21.952 154.39-43.462l-154.39 43.462z" fill="#884849"/><path d="M337.617 266.446l-154.39 43.462L63.807 94.996l154.389-43.451 119.421 214.901z" fill="#fff" stroke="#263238" stroke-miterlimit="10"/><path d="M172.466 97.06l11.986-3.376m-95.126 26.778l73.863-20.79m-3.87 10.739l29.777-8.385m-75.41 21.231l37.506-10.556M93.96 128.804l12.76-3.59m29.003 1.494l58.017-16.329m-95.137 26.778l24.36-6.858" stroke="#263238" stroke-miterlimit="10"/><path d="M226.226 90.771a13.812 13.812 0 00-15.05-6.213c-5.557 1.57-7.804 6.88-5.03 11.878a13.777 13.777 0 0015.049 6.214c5.504-1.559 7.805-6.88 5.031-11.879z" fill="#fff" stroke="#263238" stroke-miterlimit="10"/><path d="M121.995 154.303l-11.986 3.376m95.126-26.778l-73.863 20.79m13.148 5.956l-29.778 8.384m75.411-21.231l-37.506 10.557m57.232-16.104l-12.76 3.591m-19.726 15.2l-58.007 16.329m95.137-26.778l-24.37 6.859" stroke="#263238" stroke-miterlimit="10"/><path d="M246.909 127.998a13.777 13.777 0 00-15.05-6.213c-5.557 1.558-7.804 6.88-5.031 11.825a13.777 13.777 0 0015.05 6.213c5.547-1.516 7.805-6.837 5.031-11.825z" fill="#fff" stroke="#263238" stroke-miterlimit="10"/><path d="M213.832 171.492l11.986-3.375m-95.126 26.778l73.863-20.791m-3.87 10.75l29.777-8.385M155.051 197.7l37.507-10.567m-57.233 16.115l12.76-3.591m29.004 1.483l58.006-16.318M139.969 211.6l24.359-6.858" stroke="#263238" stroke-miterlimit="10"/><path d="M268.258 172.254c1.842-4.686-1.471-10.373-7.4-12.704-5.929-2.331-12.228-.422-14.07 4.264-1.842 4.686 1.471 10.373 7.4 12.704 5.929 2.331 12.228.421 14.07-4.264z" fill="#fff" stroke="#263238" stroke-miterlimit="10"/><path d="M163.361 228.746l-11.986 3.376m95.126-26.778l-73.863 20.79m13.147 5.955l-29.777 8.375m75.411-21.221l-37.507 10.556m57.233-16.113l-12.76 3.59m-19.726 15.211l-58.007 16.329m95.126-26.777l-24.36 6.858" stroke="#263238" stroke-miterlimit="10"/><path d="M288.264 202.431a13.795 13.795 0 00-15.05-6.214c-5.558 1.57-7.804 6.88-5.031 11.879a13.782 13.782 0 0015.05 6.213c5.558-1.526 7.815-6.901 5.031-11.878z" fill="#fff" stroke="#263238" stroke-miterlimit="10"/><path d="M255.197 245.936l11.986-3.376m-95.125 26.778l73.862-20.791m-3.87 10.739l29.778-8.374m-75.411 21.221l37.506-10.557m-57.232 16.115l12.76-3.602m29.003 1.495l58.007-16.33m-95.126 26.778l24.359-6.858" stroke="#263238" stroke-miterlimit="10"/><path d="M309.62 246.689c1.842-4.685-1.471-10.373-7.399-12.703-5.929-2.331-12.229-.422-14.07 4.264-1.842 4.685 1.471 10.373 7.399 12.703 5.929 2.331 12.229.422 14.07-4.264z" fill="#fff" stroke="#263238" stroke-miterlimit="10"/><path d="M165.93 55.19l-20.296 5.707c-1.537.065-3.225-.053-3.698-.838-1.075-2.021.301-3.913.731-5.698a8.168 8.168 0 00-.892-6.052 14.156 14.156 0 00-15.469-6.374c-5.697 1.612-7.998 7.062-5.16 12.18a13.342 13.342 0 005.977 5.374s4.117 1.838 4.945 3.322c.441.785-.709 1.71-1.881 2.408l-21.876 6.16a5.22 5.22 0 00-3.737 3.076 5.23 5.23 0 00.394 4.824l2.956 5.311 71.024-19.984-2.956-5.321a9.17 9.17 0 00-10.062-4.096zm-36.152-6.945a4.526 4.526 0 014.956 2.042 2.567 2.567 0 01-1.655 3.892 4.516 4.516 0 01-4.945-2.032 2.57 2.57 0 01-.197-2.38 2.571 2.571 0 011.841-1.522z" fill="#FF8562" stroke="#263238" stroke-miterlimit="10"/><path d="M209.725 91.395l8.761 6.117 9.03-20.242m2.57 50.771l8.761 6.106 9.03-20.231" stroke="#FF8562" stroke-width="6" stroke-linecap="round" stroke-linejoin="round"/><path d="M373.779 123.032s2.333-4.966.871-8.771c-1.462-3.806-28.369-9.944-28.369-9.944s-6.138 0-5.848 3.515c.29 3.515 22.521 16.963 24.273 18.124 1.753 1.161 8.482 3.806 9.073-2.924zm-25.273-23.628a52.862 52.862 0 01-4.869-2.085c-2.322-1.161.225 4.181 1.161 4.407.935.226 3.225.699 3.225.699l.483-3.02z" fill="#fff" stroke="#263238" stroke-linecap="round" stroke-linejoin="round"/><path d="M268.204 151.401l-13.448 16.373 1.161 2.343 19.017-4.633 133.847-77.916a11.599 11.599 0 003.999-16.124 11.59 11.59 0 00-16.125-3.58l-128.451 83.537z" fill="#FF8562" stroke="#263238" stroke-linecap="round" stroke-linejoin="round"/><path d="M335.456 121.054l-4.364 2.817m41.935-26.982l-32.239 20.747" stroke="#263238" stroke-linecap="round" stroke-linejoin="round"/><path d="M256.003 167.43s-3.343 1.397-2.827 2.805c.516 1.409 5.311-1.999 5.311-1.999l-2.484-.806z" fill="#FF8562" stroke="#263238" stroke-linecap="round" stroke-linejoin="round"/><path d="M254.756 167.773l1.161 2.344 19.017-4.633c-10.535-4.096-6.73-14.04-6.73-14.04l-13.448 16.329zM412.78 71.368a11.59 11.59 0 00-16.125-3.58L373.306 82.99a13.683 13.683 0 00-.946 5.031 13.064 13.064 0 0012.739 13.308l23.725-13.802a11.6 11.6 0 003.956-16.157z" fill="#fff" stroke="#263238" stroke-linecap="round" stroke-linejoin="round"/><path d="M412.78 71.368a11.59 11.59 0 00-16.125-3.58l-17.737 11.557a12.977 12.977 0 00-1.301 5.676 12.724 12.724 0 007.713 11.871 12.726 12.726 0 004.864 1.029h.871l17.759-10.33a11.604 11.604 0 005.601-11.896 11.603 11.603 0 00-1.645-4.326z" fill="#263238" stroke="#263238" stroke-linecap="round" stroke-linejoin="round"/><path d="M333.661 104.747s-2.602 0-2.602 1.182c0 1.183-.688 5.375.817 5.257 1.505-.118 1.376-2.752 1.505-3.677.129-.924.28-2.762.28-2.762z" fill="#fff" stroke="#263238" stroke-linecap="round" stroke-linejoin="round"/><path d="M336.499 100.469s-2.322-.72-2.86.709c-.537 1.43-1.075 8.224.538 8.041 1.612-.183 1.967-6.246 2.322-8.75z" fill="#fff" stroke="#263238" stroke-linecap="round" stroke-linejoin="round"/><path d="M340.078 100.823s-2.687-2.322-3.579-.354c-.893 1.967-1.075 7.525 0 7.525s2.687-2.322 3.042-3.569c.267-1.186.447-2.39.537-3.602z" fill="#fff" stroke="#263238" stroke-linecap="round" stroke-linejoin="round"/><path d="M343.873 101.899s-3.397-2.86-3.934-2.322c-.538.537-2.688 6.041-1.075 7.148 1.612 1.107 3.655-3.837 3.655-3.837l1.354-.989zm-49.095 16.962s.377 5.73 1.903 7.073a16.707 16.707 0 012.483 2.677c.211 1.457.34 2.925.387 4.397 0 1.72 1.15 1.526 2.15 1.526s2.677 3.225 3.634 4.773a26.6 26.6 0 006.45 5.741c1.72.957 4.59-2.677 4.59-2.677l1.333 3.827 13.577-8.793-6.686-13.008a31.172 31.172 0 00-4.021-12.803c-3.827-6.88-8.987-10.75-17.587-8.224-8.6 2.527-8.213 15.491-8.213 15.491z" fill="#fff" stroke="#263238" stroke-linecap="round" stroke-linejoin="round"/><path d="M310.484 93.384a31.18 31.18 0 00-9.385 1.881c-5.02 1.774-6.256 8.762-10.631 11.266-4.376 2.505-2.505-2.15-4.698-.946-2.193 1.204-4.375 12.201.312 15.33 4.687 3.128 11.577-.936 11.577-.936s-.623 2.15 1.247 2.817c1.132.375 2.284.688 3.451.935 0 0-.323 3.763 2.494 3.44 2.816-.322.322-4.687.322-4.687s5.322 10.32 9.396 11.578c4.074 1.258 10.008-4.386 11.567-6.891 1.558-2.505.311-20.328-3.128-27.208-3.44-6.88-12.524-6.579-12.524-6.579z" fill="#263238" stroke="#263238" stroke-linecap="round" stroke-linejoin="round"/><path d="M305.292 129.182s-1.914-7.267 1.139-6.311c3.053.957 4.784 7.461 4.59 8.224-.193.763-1.72 1.14-2.483.957" fill="#fff"/><path d="M305.292 129.182s-1.914-7.267 1.139-6.311c3.053.957 4.784 7.461 4.59 8.224-.193.763-1.72 1.14-2.483.957" stroke="#263238" stroke-linecap="round" stroke-linejoin="round"/><path d="M327.383 131.815a80.57 80.57 0 00-10.191 6.794c-3.225 2.87-6.117 11.47-6.117 11.47s19.694-13.383 23.134-15.286c3.44-1.903 4.203-2.87 4.203-2.87s-7.202-1.065-11.029-.108zm26.509-11.707a12.07 12.07 0 017.89-5.848c5.558-1.171 12.9 2.634 13.749 8.772.85 6.138-3.805 9.073-6.729 9.073s-5.558-4.096-5.558-4.096-9.352-3.515-9.352-7.901zm-78.378 65.22l9.364-24.865a5.737 5.737 0 01-3.806 1.462c-2.343 0-7.89-.87-6.45-1.752 1.441-.881 7.009-4.676 7.009-4.676s-4.085.881-5.257 0c-1.171-.882-1.752-2.053-.881-2.344.871-.29 2.634 0 5.848-1.171 3.214-1.172 4.676-2.333 7.31-2.333 2.633 0 4.977 4.676 4.977 6.138 0 1.462-2.053 29.24-2.053 30.412 0 1.171 0 2.343-7.6 3.225-7.601.881-8.751-.882-8.461-4.096z" fill="#fff" stroke="#263238" stroke-linecap="round" stroke-linejoin="round"/><path d="M284.878 160.463l1.386-5.461" stroke="#263238" stroke-linecap="round" stroke-linejoin="round"/><path d="M284.577 179.18s-9.353 2.633-11.105 6.729c-1.752 4.096-1.462 10.234 2.043 13.749 3.504 3.515 4.977 4.386 8.771 2.924 3.795-1.462 4.687-3.805 4.978-6.149.29-2.343 2.332-10.234-4.687-17.253zm-3.795 123.999s-8.191-3.805-11.406-2.343c-3.214 1.462-3.225 2.924.871 9.363s15.501 14.33 19.35 12.567c3.848-1.763.29-13.448.29-13.448l-9.105-6.139z" fill="#fff" stroke="#263238" stroke-linecap="round" stroke-linejoin="round"/><path d="M274.934 312.241a45.52 45.52 0 01-7.095-10.481c-1.505 1.333-.86 3.29 2.408 8.439 4.096 6.45 15.501 14.33 19.35 12.567a3.495 3.495 0 001.602-2.914c-5.375 2.269-10.933-1.72-16.265-7.611z" fill="#fff" stroke="#263238" stroke-linecap="round" stroke-linejoin="round"/><path d="M322.889 213.687l.29 8.782s-17.834 6.719-26.606 12.9c-8.771 6.181-14.619 10.815-15.501 16.662-.881 5.848-.29 51.181-.29 51.181s-2.634.58-1.752 2.332c.881 1.753 2.623 8.192 4.966 8.772 2.344.581 5.268 1.763 5.848.301.581-1.462 2.344-10.234 3.515-13.157 1.172-2.924 3.214-16.652 4.967-26.327a101.584 101.584 0 001.752-16.372 94.464 94.464 0 0018.135-4.386c10.234-3.515 25.144-9.944 25.144-9.944s11.997 30.1 14.631 35.969c2.633 5.87 12.9 19.006 14.91 22.812 2.01 3.805 14.91 20.177 14.91 20.177s4.977-4.386 8.191-4.386h4.386s-5.267-14.62-9.675-23.402c-4.407-8.783-13.448-23.102-13.448-23.102s-8.18-51.158-8.481-54.684c-.57-6.751-4.892-16.942-4.892-16.942s-14.093-2.978-41 12.814z" fill="#263238" stroke="#263238" stroke-linecap="round" stroke-linejoin="round"/><path d="M387.808 323.357a38.347 38.347 0 00-2.043 3.794c-.29.882-6.729 1.763-5.848 4.687.882 2.924 7.6 5.257 10.815 5.558 3.214.301 9.675-4.096 10.825-5.267.688-.688 1.72-5.236 1.172-8.772a9.063 9.063 0 00-2.344-4.386s-5.558-8.482-12.577 4.386z" fill="#fff" stroke="#263238" stroke-linecap="round" stroke-linejoin="round"/><path d="M402.729 323.357a8.59 8.59 0 00-1.989-3.999 8.938 8.938 0 00-6.45 2.827c-2.924 3.505-1.462 11.406-4.977 12.577-2.612.871-7.181-2.321-9.331-3.998a1.65 1.65 0 000 1.075c.871 2.923 7.6 5.256 10.814 5.557 3.215.301 9.675-4.096 10.826-5.267.623-.688 1.655-5.235 1.107-8.772z" fill="#fff" stroke="#263238" stroke-linecap="round" stroke-linejoin="round"/><path d="M395.118 325.399c-1.161 5.267.301 8.772-4.386 11.997 3.225.29 9.675-4.096 10.825-5.268.688-.688 1.72-5.235 1.172-8.772a6.92 6.92 0 00-.72-2.096h-.452s-5.267-1.118-6.439 4.139z" fill="#263238" stroke="#263238" stroke-linecap="round" stroke-linejoin="round"/><path d="M346.281 243.807l17.254-8.471m-9.353 4.677l14.91-2.054" stroke="#fff" stroke-linecap="round" stroke-linejoin="round"/><path d="M359.998 118.066c-4.967.581-17.834 9.352-18.716 10.234-.881.881-4.386 2.924-5.848 4.096 0 0-30.099 18.715-32.755 20.424-2.655 1.71-7.89 5.268-7.6 6.45.291 1.183-15.501 26.875-15.501 26.875s-4.676 6.149-.29 11.696 8.481 1.763 10.524.591c2.042-1.171 18.135-16.383 18.135-16.383l14.835 35.475s20.543-13.771 42.483-12.9l-14.63-57.318s20.188-15.201 20.769-20.425c.58-5.225-6.407-9.406-11.406-8.815z" fill="#fff"/><path d="M359.998 118.066c-1.989.237-5.246 1.785-8.503 3.612a3.85 3.85 0 013.923 1.634c2.419 3.107-2.762 13.115-2.762 13.115s-2.15-13.824-2.064-9.675c.086 4.149-1.075 16.91-1.075 16.91s-6.902-8.278-6.558-6.214c.344 2.064 4.827 21.392 7.59 28.638 2.762 7.245-2.075 27.595-4.827 33.454-2.752 5.858-1.075-24.833-4.149-17.2-3.075 7.632-13.449 28.627-15.867 30.701-2.419 2.075.774-28.132 1.634-32.066-1.075 3.289-8.181 24.133-8.181 24.133l-9.675-24.843s-16.555-13.448-14.835-11.04c1.72 2.408 5.87 10.008 5.87 10.008s-10.008-2.075-8.278-1.376c1.731.699 9.31 4.483 9.31 4.483s-15.523 11.04-20.006 12.416a18.002 18.002 0 01-3.698.677 8.808 8.808 0 001.387 2.494c4.386 5.558 8.482 1.763 10.524.591 2.043-1.171 18.135-16.383 18.135-16.383l14.835 35.475s20.543-13.77 42.484-12.9l-14.631-57.318s20.188-15.201 20.769-20.425c.58-5.224-6.353-9.492-11.352-8.901z" fill="#FF8562"/><path opacity=".5" d="M359.998 118.066c-1.989.237-5.246 1.785-8.503 3.612a3.85 3.85 0 013.923 1.634c2.419 3.107-2.762 13.115-2.762 13.115s-2.15-13.824-2.064-9.675c.086 4.149-1.075 16.91-1.075 16.91s-6.902-8.278-6.558-6.214c.344 2.064 4.827 21.392 7.59 28.638 2.762 7.245-2.075 27.595-4.827 33.454-2.752 5.858-1.075-24.833-4.149-17.2-3.075 7.632-13.449 28.627-15.867 30.701-2.419 2.075.774-28.132 1.634-32.066-1.075 3.289-8.181 24.133-8.181 24.133l-9.675-24.843s-16.555-13.448-14.835-11.04c1.72 2.408 5.87 10.008 5.87 10.008s-10.008-2.075-8.278-1.376c1.731.699 9.31 4.483 9.31 4.483s-15.523 11.04-20.006 12.416a18.002 18.002 0 01-3.698.677 8.808 8.808 0 001.387 2.494c4.386 5.558 8.482 1.763 10.524.591 2.043-1.171 18.135-16.383 18.135-16.383l14.835 35.475s20.543-13.77 42.484-12.9l-14.631-57.318s20.188-15.201 20.769-20.425c.58-5.224-6.353-9.492-11.352-8.901z" fill="#fff"/><path d="M359.998 118.066c-4.967.581-17.834 9.352-18.716 10.234-.881.881-4.386 2.924-5.848 4.096 0 0-30.099 18.715-32.755 20.424-2.655 1.71-7.89 5.268-7.6 6.45.291 1.183-15.501 26.875-15.501 26.875s-4.676 6.149-.29 11.696 8.481 1.763 10.524.591c2.042-1.171 18.135-16.383 18.135-16.383l14.835 35.475s20.543-13.771 42.483-12.9l-14.63-57.318s20.188-15.201 20.769-20.425c.58-5.225-6.407-9.406-11.406-8.815z" stroke="#263238" stroke-linecap="round" stroke-linejoin="round"/><path d="M322.814 217.524a77.005 77.005 0 011.236-24.09l-1.236 24.09z" fill="#fff"/><path d="M322.814 217.524a77.005 77.005 0 011.236-24.09" stroke="#263238" stroke-linecap="round" stroke-linejoin="round"/><path d="M320.041 199.604s0-4.945 5.557-20.424l-5.557 20.424z" fill="#fff"/><path d="M320.041 199.604s0-4.945 5.557-20.424" stroke="#263238" stroke-linecap="round" stroke-linejoin="round"/><path d="M296.573 169.246l11.406 12.856-11.696-8.481" fill="#fff"/><path d="M296.573 169.246l11.406 12.856-11.696-8.481" stroke="#263238" stroke-linecap="round" stroke-linejoin="round"/><path d="M350.667 130.934v16.372l3.805-21.049" fill="#fff"/><path d="M350.667 130.934v16.372l3.805-21.049" stroke="#263238" stroke-linecap="round" stroke-linejoin="round"/><path d="M327.512 180.534a2.113 2.113 0 00-.097.365c.129-.365.172-.505.097-.365z" fill="#263238"/></svg>