<svg width="537" height="514" fill="none" xmlns="http://www.w3.org/2000/svg"><path d="M452.088 324.163c2.54 1.18 8.741.979 8.752.979.012 0-1.34-4.116-1.457-4.363-1.363-2.878-5.664-7.642-9.172-7.159a4.154 4.154 0 00-1.623.642 4.21 4.21 0 00-1.225 1.254 4.282 4.282 0 00-.508 3.411c.583 2.453 3.065 4.281 5.233 5.236z" fill="#263238"/><path d="M454.255 342.419c2.634.389 8.158-1.239 8.613-1.368a75.226 75.226 0 003.356 9.434c.758 1.781 1.585 3.538 2.436 5.319-.513-.743-.967-1.415-1.037-1.498-2.074-2.418-7.471-5.896-10.722-4.458a4.194 4.194 0 00-1.398 1.052 4.277 4.277 0 00-.455 4.963c1.165 2.217 4.079 3.313 6.41 3.655 2.331.342 7.121-.943 8.379-1.297.327.672.653 1.356.991 2.029 1.597 3.231 3.217 6.45 4.662 9.646.524 1.18.99 2.264 1.48 3.397-.455-.661-.839-1.18-.909-1.298-2.063-2.417-7.459-5.896-10.711-4.457a4.174 4.174 0 00-1.402 1.049 4.264 4.264 0 00-.451 4.965c1.166 2.217 4.079 3.314 6.41 3.656 2.331.342 6.655-.826 8.158-1.238.455 1.179.921 2.358 1.306 3.537.256.802.547 1.545.757 2.359.21.814.431 1.604.653 2.359.361 1.533.746 3.101 1.06 4.611.234 1.037.432 2.04.63 3.042-.513-1.179-1.55-3.325-1.655-3.538-1.678-2.7-6.503-6.934-9.93-6.049a4.172 4.172 0 00-1.542.827 4.232 4.232 0 00-1.076 1.391 4.293 4.293 0 00-.121 3.454c.863 2.359 3.497 3.892 5.828 4.587 2.482.767 7.971.071 8.659 0 .338 1.663.641 3.279.897 4.812a209.227 209.227 0 011.853 12.901c.07.555.117 1.05.175 1.522h-10.652l.723 14.269h24.474l.723-14.269h-9.918c.07-.154.14-.307.221-.46a234.8 234.8 0 005.28-12.041 186.443 186.443 0 001.969-5.071c.664.142 6.107 1.262 8.648.684 2.331-.53 5.093-1.851 6.118-4.151a4.27 4.27 0 00-.833-4.959 4.177 4.177 0 00-1.497-.937c-3.357-1.18-8.473 2.712-10.35 5.283a56.46 56.46 0 00-1.748 3.066c.268-.719.525-1.427.793-2.17.536-1.474 1.025-2.96 1.561-4.564l.7-2.358c.256-.779.419-1.651.629-2.477.454-1.934.827-3.927 1.165-5.896 1.282.471 5.828 2.075 8.159 1.91 2.33-.165 5.302-1.038 6.666-3.16a4.272 4.272 0 00-.081-4.988 4.186 4.186 0 00-1.318-1.156c-3.146-1.64-8.787 1.391-11.025 3.644-.14.141-1.561 1.934-2.331 2.948.187-1.179.385-2.418.536-3.644.432-3.538.77-7.159 1.108-10.755.105-1.097.233-2.194.338-3.291.454.166 5.827 2.194 8.484 2.005 2.331-.165 5.303-1.038 6.666-3.16a4.27 4.27 0 00-.081-4.98 4.209 4.209 0 00-1.317-1.153c-3.147-1.639-8.788 1.38-11.025 3.633-.163.177-2.215 2.771-2.704 3.455.256-2.418.524-4.823.897-7.194a73.136 73.136 0 012.04-9.434c.21.082 5.827 2.229 8.519 2.028 2.331-.165 5.315-1.037 6.678-3.16a4.28 4.28 0 00.645-3.384 4.243 4.243 0 00-.738-1.596 4.193 4.193 0 00-1.317-1.152c-3.147-1.64-8.776 1.379-11.013 3.632-.175.177-2.331 2.972-2.751 3.538.058-.177.093-.366.14-.543a55.773 55.773 0 013.706-8.951 59.655 59.655 0 012.529-4.481c1.002.507 5.618 2.771 8.077 2.866 2.459.094 5.384-.437 6.992-2.359a4.291 4.291 0 00.449-4.966 4.215 4.215 0 00-1.183-1.296c-2.948-1.981-8.869.401-11.34 2.359-.139.106-1.387 1.368-2.272 2.287.396-.636.792-1.297 1.165-1.886 1.48-2.265 2.972-4.234 4.312-5.968.77-.978 1.48-1.851 2.156-2.665 1.236 0 6.247-.177 8.438-1.179 2.191-1.003 4.569-2.901 5.093-5.378a4.272 4.272 0 00-.599-3.395 4.217 4.217 0 00-1.257-1.221 4.155 4.155 0 00-1.64-.596c-3.496-.378-7.692 4.493-8.974 7.418-.117.247-1.399 4.398-1.34 4.398h.081a82.14 82.14 0 00-2.121 2.512c-1.375 1.71-2.913 3.644-4.452 5.897a75.163 75.163 0 00-4.662 7.429 55.528 55.528 0 00-3.939 8.975.582.582 0 010 .118v-4.211c-.408-3.172-3.03-9.056-6.515-9.705a4.129 4.129 0 00-1.741.097 4.168 4.168 0 00-1.55.806 4.225 4.225 0 00-1.091 1.376 4.278 4.278 0 00-.443 1.707c-.209 2.512 1.597 5.036 3.357 6.628 1.981 1.792 7.494 3.537 7.937 3.667a73.215 73.215 0 00-2.331 9.718 135.566 135.566 0 00-.874 5.802v-1.828c-.408-3.173-3.031-9.057-6.515-9.706a4.15 4.15 0 00-3.288.908 4.28 4.28 0 00-1.537 3.078c-.198 2.524 1.596 5.036 3.356 6.628 1.76 1.592 6.457 3.196 7.692 3.538-.081.754-.186 1.497-.28 2.252-.419 3.538-.827 7.17-1.328 10.673a245.35 245.35 0 01-.618 3.656v-1.581c-.408-3.172-3.03-9.057-6.503-9.705a4.166 4.166 0 00-3.288.908 4.275 4.275 0 00-1.537 3.078c-.21 2.512 1.597 5.035 3.357 6.627 1.759 1.592 5.99 3.031 7.47 3.538-.256 1.238-.513 2.477-.827 3.656-.222.802-.385 1.592-.653 2.359-.268.766-.501 1.58-.758 2.358a192.086 192.086 0 01-1.62 4.434 71.063 71.063 0 01-1.165 2.89c.186-1.18.513-3.644.513-3.845a16.674 16.674 0 00-2.18-7.996 5.048 5.048 0 00-.058-.943 4.243 4.243 0 00-1.781-2.92 4.127 4.127 0 00-3.335-.618c-3.415.92-5.583 6.982-5.746 10.177 0 .189.117 2.241.21 3.538-.175-.754-.326-1.486-.513-2.252-.361-1.533-.769-3.054-1.165-4.717-.233-.779-.467-1.569-.711-2.359-.245-.79-.548-1.604-.828-2.417a86.55 86.55 0 00-2.272-5.59c1.328-.319 6.002-1.522 7.89-2.984s3.857-3.833 3.834-6.356a4.283 4.283 0 00-.315-1.737 4.232 4.232 0 00-.988-1.455 4.159 4.159 0 00-3.219-1.148c-3.496.389-6.561 6.062-7.202 9.187 0 .2-.245 2.488-.338 3.762a122.358 122.358 0 00-1.539-3.338c-1.573-3.207-3.263-6.403-4.941-9.587-.513-.979-1.002-1.958-1.515-2.937.478-.106 6.072-1.427 8.158-3.066 1.865-1.451 3.857-3.821 3.834-6.356a4.254 4.254 0 00-1.303-3.189 4.171 4.171 0 00-1.489-.917 4.104 4.104 0 00-1.73-.222c-3.496.389-6.561 6.049-7.202 9.186 0 .236-.35 3.538-.373 4.387-1.107-2.158-2.191-4.328-3.182-6.498a74.425 74.425 0 01-3.496-9.021c.221 0 6.06-1.392 8.216-3.066 1.877-1.451 3.858-3.833 3.846-6.357a4.29 4.29 0 00-.319-1.734 4.248 4.248 0 00-.988-1.453 4.172 4.172 0 00-3.215-1.153c-3.496.39-6.573 6.062-7.202 9.187-.058.248-.373 3.809-.385 4.458 0-.177-.128-.366-.175-.543a55.351 55.351 0 01-1.794-9.528 60.754 60.754 0 01-.338-5.142c1.165-.142 6.2-.826 8.309-2.123 2.11-1.297 4.242-3.373 4.499-5.896a4.243 4.243 0 00-.945-3.317 4.168 4.168 0 00-3.076-1.495c-3.496 0-7.179 5.283-8.158 8.326-.058.165-.408 1.911-.653 3.172v-2.24c0-2.713.175-5.189.35-7.383.105-1.25.221-2.358.35-3.42 1.013-.707 5.104-3.632 6.363-5.719 1.259-2.088 2.238-4.977 1.317-7.335a4.24 4.24 0 00-.921-1.491 4.18 4.18 0 00-1.44-.983 4.136 4.136 0 00-3.396.115c-3.147 1.651-3.975 8.043-3.497 11.203 0 .272 1.236 4.446 1.282 4.411h.058c-.128 1.014-.268 2.099-.396 3.278-.21 2.194-.431 4.717-.501 7.394-.1 2.927-.03 5.856.21 8.774.25 3.27.788 6.51 1.608 9.682v.118c-.559-.884-2.191-3.302-2.331-3.538-2.063-2.358-7.459-5.896-10.722-4.457a4.18 4.18 0 00-1.398 1.052 4.245 4.245 0 00-.854 1.537 4.287 4.287 0 00.399 3.425c1.224 2.052 4.137 3.149 6.468 3.55zm35.069 46.9c1.806 1.981 6.445 4.305 7.051 4.599a359.585 359.585 0 01-1.877 4.517 226.165 226.165 0 01-5.489 11.793c-.28.566-.536 1.073-.781 1.533h-.233c-.07-.554-.14-1.179-.233-1.816-.431-3.16-1.166-7.654-2.156-12.972a96.014 96.014 0 00-1.166-5.331 45.24 45.24 0 004.86-2.382l.024.059z" fill="#263238"/><path d="M514.859 325.543c.058 0 1.165-4.175 1.165-4.446.431-3.16-.571-9.54-3.753-11.097a4.143 4.143 0 00-4.825 1.02 4.248 4.248 0 00-.874 1.527c-.85 2.359.233 5.295 1.515 7.3 1.527 2.347 6.772 5.696 6.772 5.696z" fill="#263238"/><path d="M509.288 58.009H387.825v163.544h121.463V58.009z" stroke="#A1A1A1" stroke-linecap="round" stroke-linejoin="round"/><path d="M502.54 67.09H394.573v145.37H502.54V67.089z" stroke="#A1A1A1" stroke-linecap="round" stroke-linejoin="round"/><path d="M465.432 117.068h-33.74v45.426h33.74v-45.426zM253.192 8.372H43.307v417.434h209.885V8.372z" stroke="#A1A1A1" stroke-linecap="round" stroke-linejoin="round"/><path d="M143.197 27.383H63.516v86.312h79.681V27.383z" stroke="#A1A1A1" stroke-linecap="round" stroke-linejoin="round"/><path d="M131.018 40.579H75.695v59.92h55.323v-59.92zm-55.323 0l-12.18-13.196m67.503 73.116l12.179 13.196m-12.179-73.116l12.179-13.196m-67.502 73.116l-12.18 13.196M237.96 27.383h-79.682v86.312h79.682V27.383z" stroke="#A1A1A1" stroke-linecap="round" stroke-linejoin="round"/><path d="M225.793 40.579h-55.324v59.92h55.324v-59.92zm-55.324 0l-12.191-13.196m67.503 73.116l12.19 13.196m-12.19-73.116l12.19-13.196m-67.502 73.116l-12.191 13.196m-15.081 21.982H63.516v86.312h79.681v-86.312z" stroke="#A1A1A1" stroke-linecap="round" stroke-linejoin="round"/><path d="M131.018 148.873H75.695v59.92h55.323v-59.92zm-55.323 0l-12.18-13.196m67.503 73.116l12.179 13.196m-12.179-73.116l12.179-13.196m-67.502 73.116l-12.18 13.196m174.445-86.312h-79.682v86.312h79.682v-86.312z" stroke="#A1A1A1" stroke-linecap="round" stroke-linejoin="round"/><path d="M225.793 148.873h-55.324v59.92h55.324v-59.92zm-55.324 0l-12.191-13.196m67.503 73.116l12.19 13.196m-12.19-73.116l12.19-13.196m-67.502 73.116l-12.191 13.196m-15.081 21.982H63.516v86.313h79.681v-86.313z" stroke="#A1A1A1" stroke-linecap="round" stroke-linejoin="round"/><path d="M131.018 257.168H75.695v59.919h55.323v-59.919zm-55.323 0l-12.18-13.197m67.503 73.116l12.179 13.197m-12.179-73.116l12.179-13.197m-67.502 73.116l-12.18 13.197m174.445-86.313h-79.682v86.313h79.682v-86.313z" stroke="#A1A1A1" stroke-linecap="round" stroke-linejoin="round"/><path d="M225.793 257.168h-55.324v59.919h55.324v-59.919zm-55.324 0l-12.191-13.197m67.503 73.116l12.19 13.197m-12.19-73.116l12.19-13.197m-67.502 73.116l-12.191 13.197m-15.081 21.982H63.516v73.54h79.681v-73.54z" stroke="#A1A1A1" stroke-linecap="round" stroke-linejoin="round"/><path d="M131.018 365.462H75.695v59.92h55.323v-59.92zm-55.323 0l-12.18-13.196m67.503 13.196l12.179-13.196m94.763 0h-79.682v73.54h79.682v-73.54z" stroke="#A1A1A1" stroke-linecap="round" stroke-linejoin="round"/><path d="M225.793 365.462h-55.324v59.92h55.324v-59.92zm-55.324 0l-12.191-13.196m67.503 13.196l12.19-13.196M60.754 232.367a6.672 6.672 0 00-1.102-3.675 6.558 6.558 0 00-2.934-2.437 6.467 6.467 0 00-3.778-.377 6.523 6.523 0 00-3.348 1.811 6.64 6.64 0 00-1.79 3.387 6.69 6.69 0 00.373 3.823 6.6 6.6 0 002.408 2.969 6.483 6.483 0 003.632 1.115 6.499 6.499 0 004.624-1.938 6.654 6.654 0 001.915-4.678v0z" stroke="#A1A1A1" stroke-linecap="round" stroke-linejoin="round"/><path d="M477.063 425.806c-3.788-25.767-20.454-139.628-20.162-143.036.315-3.856-44.392-17.972-44.392-17.972l-25.046-.967v-.307l-3.962.153-3.963-.153v.307l-25.045.967s-44.695 14.151-44.38 17.972c.279 3.408-16.387 117.269-20.163 143.036h187.113z" fill="#FF8562" stroke="#263238" stroke-linecap="round" stroke-linejoin="round"/><path d="M456.132 281.65l.769 1.12c.023-.318-.257-.696-.769-1.12zm-43.332 8.88l36.455-12.524c-12.691-5.567-36.746-13.161-36.746-13.161l-11.328-.436L412.8 290.53zm44.485-3.632l13.286 138.908h6.539c-3.45-23.243-17.296-117.799-19.825-138.908z" fill="#263238" stroke="#263238" stroke-linecap="round" stroke-linejoin="round"/><path d="M475.303 425.806l-21.91-45.473-11.597.271-1.491 45.202h34.998z" fill="#FF8562" stroke="#263238" stroke-linecap="round" stroke-linejoin="round"/><path d="M435.992 327.335v-5.448m0 55.368v-43.681" stroke="#263238" stroke-linecap="round" stroke-linejoin="round"/><path d="M326.673 425.806l-1.491-45.202-11.597-.271-21.91 45.473h34.998z" fill="#FF8562" stroke="#263238" stroke-linecap="round" stroke-linejoin="round"/><path d="M330.986 338.763v-16.876m0 55.368v-34.341" stroke="#263238" stroke-linecap="round" stroke-linejoin="round"/><path d="M370.984 293.679l12.68 16.675-13.95 92.716 16.479 20.85 13.321-22.454-13.321-92.068 13.006-16.368-12.365-14.753-15.85 15.402z" fill="#263238" stroke="#263238" stroke-linecap="round" stroke-linejoin="round"/><path d="M385.937 288.171s-12.424 7.076-15.909 11.557c-3.484 4.482-11.724 13.149-11.724 14.152 0 1.002-7.925-29.824-7.925-39.448 0-9.623-.956-8.667 1.585-11.557 2.54-2.889 10.489-10.908 12.68-11.863 2.191-.955 40.254-.319 42.48.637 2.226.955 7.925 12.512 9.51 16.368a34.026 34.026 0 011.9 5.448s-3.496 20.85-4.126 25.945c-.629 5.094-5.384 16.038-5.384 16.038s-14.58-17.312-15.535-19.564c-.956-2.253-7.552-7.713-7.552-7.713z" fill="#FF8562" stroke="#263238" stroke-linecap="round" stroke-linejoin="round"/><path d="M362.733 238.499l.338 24.058 22.866 25.661 19.882-23.739.665-25.024-43.751-.956z" fill="#fff" stroke="#263238" stroke-linecap="round" stroke-linejoin="round"/><path d="M375.086 248.146l1.329 2.253 27.423 16.462 1.981-2.382.664-25.024-34.171-.743 2.774 9.434z" fill="#263238"/><path d="M357.441 202.519s-3.612-11.722-9.137-8.762c-5.524 2.96-3.216 15.59.105 19.27a21.155 21.155 0 008.66 5.212s-1.69 16.616 5.664 22.725c7.354 6.109 10.489 13.645 14.941 13.845 4.452.201 15.232 0 17.155-.507 1.923-.507 12.447-8.762 14.673-16.038a63.22 63.22 0 002.517-14.022s11.597-11.038 12.191-17.43c.594-6.392-4.662-8.562-7.272-7.713l-2.576.849 1.492-19.529s15.255-.589 15.325-2.193c.07-1.604-6.223-9.918-6.223-9.918s18.717.2 20.011-7.76c1.293-7.96-14.837-16.085-19.661-14.694-4.825 1.392-12.494 2.642-12.494 2.642s11.118-7.524 6.212-11.274c-4.907-3.75-14.452-3.22-20.023.696a44.976 44.976 0 00-7.913 6.71 20.052 20.052 0 00-12.447-5.696c-7.902-.684-12.494 2.641-10.314 3.703a7.114 7.114 0 013.053 2.712s-16.013 3.456-18.029 12.972c-2.016 9.517 4.09 44.2 4.09 44.2z" fill="#fff" stroke="#263238" stroke-linecap="round" stroke-linejoin="round"/><path d="M416.961 199.099l-2.016.661-1.69 4.304-1.166 20.178s11.597-11.038 12.191-17.43c.594-6.392-4.767-8.562-7.319-7.713z" fill="#263238"/><path d="M368.7 200.786l8.426.766m20.36.92l8.089-.413m-52.026-6.922l3.892 7.382a23.269 23.269 0 00-3.892-7.382v0z" stroke="#263238" stroke-linecap="round" stroke-linejoin="round"/><path d="M444.932 160.548c1.305-7.972-14.65-14.694-19.662-14.694a30.381 30.381 0 00-12.493 2.642s11.118-7.524 6.212-11.274c-4.907-3.75-14.452-3.22-20.023.696a44.976 44.976 0 00-7.913 6.71 20.052 20.052 0 00-12.447-5.696c-7.902-.684-12.494 2.641-10.314 3.703a7.114 7.114 0 013.053 2.712s-16.013 3.456-18.029 12.972c-2.016 9.517 4.09 44.177 4.09 44.177l2.588-1.18a21.434 21.434 0 012.028-9.87c2.47-5.661 5.419-7.784 5.594-11.947.175-4.162-3.881-12.7 1.282-14.705 5.163-2.005 36.129 0 39.322.802 3.193.802 5.21 4.092 4.032 9.175-1.177 5.082-2.191 6.639-1.037 9.269s2.331 11.345 2.238 13.904l-.105 2.559-.152 3.538 1.562-4.258-.431.142 1.492-19.529s15.255-.59 15.325-2.194c.07-1.604-6.223-9.918-6.223-9.918s18.752.224 20.011-7.736z" fill="#263238" stroke="#263238" stroke-linecap="round" stroke-linejoin="round"/><path d="M415.795 165.619a24.85 24.85 0 003.683 1.663m-37.714-11.074s17.598 7.819 21.118 6.817c3.52-1.003 1.259-8.114 1.259-8.114a38.234 38.234 0 008.251 8.515" stroke="#6E6E6E" stroke-linecap="round" stroke-linejoin="round"/><path d="M393.547 189.7l-2.331 9.847s.921 7.748 1.666 12.595a15.4 15.4 0 01-.676 7.996l-12.668-.566 15.675 3.337 2.028-4.375-3.916-19.553.222-9.281z" fill="#263238" stroke="#263238" stroke-linecap="round" stroke-linejoin="round"/><path d="M374.2 225.433a9.29 9.29 0 006.212 3.172l11.398.507a6.919 6.919 0 002.885-.753 7.01 7.01 0 002.313-1.9" stroke="#263238" stroke-linecap="round" stroke-linejoin="round"/><path d="M376.998 195.856c-.07 1.427-.711 2.559-1.446 2.524-.734-.035-1.282-1.179-1.165-2.642.117-1.462.711-2.559 1.445-2.535.734.023 1.224 1.226 1.166 2.653zm22.831 1.026c-.058 1.427-.711 2.559-1.445 2.524-.735-.035-1.271-1.179-1.166-2.642.105-1.462.711-2.559 1.445-2.523.735.035 1.224 1.214 1.166 2.641z" fill="#263238" stroke="#263238" stroke-linecap="round" stroke-linejoin="round"/><path d="M369.609 185.726a19.69 19.69 0 0114.23.967m10.769.484s6.177-3.255 11.071.813" stroke="#263238" stroke-width="3" stroke-linecap="round" stroke-linejoin="round"/><path d="M404.607 364.979a53.132 53.132 0 01-9.755-8.48 3.641 3.641 0 00-2.164-1.225 3.61 3.61 0 00-2.439.459l-2.098 1.179a3.622 3.622 0 00-1.416 1.499 3.688 3.688 0 00-.379 2.039c.21 2.359.909 5.896 3.159 8.149a30.798 30.798 0 007.19 5.46l10.42-3.998-2.518-5.082zm-45.662-.001s6.654-4.398 10.361-9.245c.35-.448.849-.753 1.404-.857a2.305 2.305 0 011.614.291l3.765 2.193a2.377 2.377 0 011.165 2.17c-.105 2.229-.664 6.486-3.228 9.081a30.824 30.824 0 01-7.191 5.46l-10.419-3.998 2.529-5.095z" fill="#fff" stroke="#263238" stroke-linecap="round" stroke-linejoin="round"/><path d="M452.6 425.806v-55.733c0-.998-.391-1.955-1.088-2.66a3.696 3.696 0 00-2.629-1.102H317.56a3.694 3.694 0 00-2.636 1.098 3.79 3.79 0 00-1.093 2.664v55.733H452.6z" fill="#737373" stroke="#263238" stroke-linecap="round" stroke-linejoin="round"/><path d="M450.759 366.818a3.623 3.623 0 00-1.83-.507H317.56a3.66 3.66 0 00-1.664.397 3.704 3.704 0 00-1.308 1.113c8.892 7.571 55.522 46.711 71.034 47.313 16.048.637 55.09-38.103 65.137-48.316z" stroke="#263238" stroke-linecap="round" stroke-linejoin="round"/><path d="M392.999 401.265h-14.941v24.188h14.941v-24.188z" fill="#263238" stroke="#263238" stroke-linecap="round" stroke-linejoin="round"/><path d="M360.262 351.417h-4.685c-1.474 0-2.669 1.209-2.669 2.7v16.098c0 1.491 1.195 2.7 2.669 2.7h4.685c1.474 0 2.669-1.209 2.669-2.7v-16.098c0-1.491-1.195-2.7-2.669-2.7z" fill="#fff" stroke="#263238" stroke-linecap="round" stroke-linejoin="round"/><path d="M354.458 372.715c.313.133.65.201.99.2h4.942c.405.003.805-.094 1.165-.283v-6.12h-7.062l-.035 6.203zm.711-14.234h5.291m-4.231-1.911a5.04 5.04 0 014.581.354" stroke="#263238" stroke-linecap="round" stroke-linejoin="round"/><path d="M338.748 351.417h-4.686c-1.474 0-2.668 1.209-2.668 2.7v16.098c0 1.491 1.194 2.7 2.668 2.7h4.686c1.474 0 2.668-1.209 2.668-2.7v-16.098c0-1.491-1.194-2.7-2.668-2.7z" fill="#fff" stroke="#263238" stroke-linecap="round" stroke-linejoin="round"/><path d="M332.944 372.715c.314.133.65.201.99.2h4.942a2.39 2.39 0 001.165-.283v-6.12h-6.992l-.105 6.203zm.711-14.234h5.291m-4.242-1.911a5.058 5.058 0 014.591.354" stroke="#263238" stroke-linecap="round" stroke-linejoin="round"/><path d="M327.28 355.509h-2.774c-1.474 0-2.669 1.209-2.669 2.7v12.006c0 1.491 1.195 2.7 2.669 2.7h2.774c1.474 0 2.668-1.209 2.668-2.7v-12.006c0-1.491-1.194-2.7-2.668-2.7z" fill="#fff" stroke="#263238" stroke-linecap="round" stroke-linejoin="round"/><path d="M323.096 372.75c.25.109.52.165.792.165h4.009c.316-.007.626-.084.909-.224v-4.965h-5.71v5.024zm.571-11.533h4.277m-3.426-1.581a4.088 4.088 0 013.717.283" stroke="#263238" stroke-linecap="round" stroke-linejoin="round"/><path d="M349.155 348.598h-4.685c-1.474 0-2.669 1.209-2.669 2.701v18.916c0 1.491 1.195 2.7 2.669 2.7h4.685c1.474 0 2.669-1.209 2.669-2.7v-18.916c0-1.492-1.195-2.701-2.669-2.701z" fill="#fff" stroke="#263238" stroke-linecap="round" stroke-linejoin="round"/><path d="M343.351 372.715c.31.133.643.201.979.2h4.953c.406.006.807-.091 1.166-.283v-6.12h-7.051l-.047 6.203zm.7-14.234h5.302m-4.242-1.911a5.06 5.06 0 014.592.354" stroke="#263238" stroke-linecap="round" stroke-linejoin="round"/><path d="M404.922 372.915h4.685c1.474 0 2.669-1.209 2.669-2.7v-16.098c0-1.491-1.195-2.7-2.669-2.7h-4.685c-1.474 0-2.669 1.209-2.669 2.7v16.098c0 1.491 1.195 2.7 2.669 2.7z" fill="#fff" stroke="#263238" stroke-linecap="round" stroke-linejoin="round"/><path d="M410.726 372.715a2.522 2.522 0 01-.991.2h-4.941a2.396 2.396 0 01-1.166-.283v-6.12h6.993l.105 6.203zm-.711-14.234h-5.291m4.242-1.911a5.058 5.058 0 00-4.592.354" stroke="#263238" stroke-linecap="round" stroke-linejoin="round"/><path d="M426.436 372.915h4.685c1.474 0 2.669-1.209 2.669-2.7v-16.098c0-1.491-1.195-2.7-2.669-2.7h-4.685c-1.474 0-2.669 1.209-2.669 2.7v16.098c0 1.491 1.195 2.7 2.669 2.7z" fill="#fff" stroke="#263238" stroke-linecap="round" stroke-linejoin="round"/><path d="M432.24 372.715c-.31.133-.643.201-.979.2h-4.976a2.419 2.419 0 01-1.166-.283v-6.12h7.051l.07 6.203zm-.699-14.234h-5.291m4.23-1.911a5.06 5.06 0 00-4.592.354" stroke="#263238" stroke-linecap="round" stroke-linejoin="round"/><path d="M437.915 372.903h2.774c1.474 0 2.669-1.209 2.669-2.7v-12.005c0-1.492-1.195-2.701-2.669-2.701h-2.774c-1.473 0-2.668 1.209-2.668 2.701v12.005c0 1.491 1.195 2.7 2.668 2.7z" fill="#fff" stroke="#263238" stroke-linecap="round" stroke-linejoin="round"/><path d="M442.1 372.75a2.01 2.01 0 01-.805.165h-3.997a2.068 2.068 0 01-.909-.224v-4.965h5.711v5.024zm-.571-11.533h-4.289m3.426-1.581a4.063 4.063 0 00-3.706.283" stroke="#263238" stroke-linecap="round" stroke-linejoin="round"/><path d="M416.029 372.903h4.685c1.474 0 2.669-1.209 2.669-2.7v-18.916c0-1.492-1.195-2.701-2.669-2.701h-4.685c-1.474 0-2.669 1.209-2.669 2.701v18.916c0 1.491 1.195 2.7 2.669 2.7z" fill="#fff" stroke="#263238" stroke-linecap="round" stroke-linejoin="round"/><path d="M421.832 372.715a2.456 2.456 0 01-.978.2h-4.942a2.438 2.438 0 01-1.165-.283v-6.12h7.051l.034 6.203zm-.699-14.234h-5.291m4.231-1.911a5.037 5.037 0 00-4.581.354M109.05 425.806h415.202" stroke="#263238" stroke-linecap="round" stroke-linejoin="round"/><path d="M231.398 392.385l7.319 37.089h-24.439l17.12-37.089z" fill="#263238" stroke="#263238" stroke-linecap="round" stroke-linejoin="round"/><path d="M223.065 432.434H90.845l8.333-40.049h132.22l-8.333 40.049z" fill="#FF8562" stroke="#263238" stroke-linecap="round" stroke-linejoin="round"/><path d="M114.399 127.387s-29.37 16.769-30.115 20.189c-.746 3.42.745 39.624-.385 42.289-1.13 2.666-16.934 26.664-16.934 39.235 0 12.572-.373 80.77-.373 80.77l-21.41 39.235 51.956 19.046 25.978-40.002s17.319-15.614 21.083-19.423l-6.083-182.472-23.717 1.133z" fill="#fff" stroke="#263238" stroke-linecap="round" stroke-linejoin="round"/><path d="M100.845 156.338s13.927 4.198 18.822 9.151m-14.685 15.992s4.149-1.18 11.655-.378" stroke="#263238" stroke-linecap="round" stroke-linejoin="round"/><path d="M104.122 94.502s36.529 227.975 37.077 236.116c.549 8.141 1.109 18.238 1.109 18.238s44.826-10.129 74.154-13.676c29.328-3.547 126.729-11.143 126.729-11.143s-24.905-156.553-28.219-177.354c-3.314-20.802-13.841-83.592-13.841-83.592s-105.139 8.611-137.793 8.611a468.531 468.531 0 00-62.53 4.563l3.314 18.237z" fill="#fff" stroke="#263238" stroke-linecap="round" stroke-linejoin="round"/><path d="M256.875 172.471l42.492-4.588c-1.853-7.358-3.135-12.571-3.135-12.972 0-.967-7.832-2.689-11.398-3.432-.699-1.179-2.098-3.302-2.692-3.537h-.163l-.129-1.557a5.951 5.951 0 00.84-2.064c.173-1.242.212-2.499.116-3.75.326-.436 2.587-3.467 2.506-5.118a2.09 2.09 0 00-.258-.991 2.056 2.056 0 00-.698-.743 1.642 1.642 0 00-1.422-.035l-.443.224-.349-4.823a11.348 11.348 0 003.776-1.085c.151-.118.14-.189.14-.236a9.405 9.405 0 00-1.853-2.241c1.084-.188 4.743-.979 4.766-2.936a2.671 2.671 0 00-1.445-2.123c-1.422-.932-3.636-1.462-4.487-1.073s-1.899.767-2.564.991c.513-.566 1.294-1.545 1.166-2.359a.951.951 0 00-.501-.696 5.187 5.187 0 00-2.84-.264 5.223 5.223 0 00-2.556 1.278 14.236 14.236 0 00-1.749 1.97 5.468 5.468 0 00-3.496-.92c-1.608.106-2.809.767-2.867 1.297a.341.341 0 00.268.378c.259.075.498.208.699.389-.85.354-3.962 1.839-4.102 4.174a1.55 1.55 0 000 .236v1.427a1.71 1.71 0 000 .248v.13c0 .094 0 .188.058.283v.094l.07.389v.106l.07.307v.141c0 .095 0 .189.058.283v.13c0 .13 0 .26.094.378l.104.436v.118c0 .106.059.212.082.33v.13c0 .106 0 .224.093.342v.094c.082.295.163.601.245.885v.082l.105.366v.082c0 .142.082.271.116.401.082.295.175.59.257.861 0 .13.081.271.128.389l.466 1.498h-.058l-.07-.106-.082-.083-.104-.129a.703.703 0 01-.094-.095l-.058-.059-.093-.082-.07-.059a1.64 1.64 0 00-.664-.342 1.043 1.043 0 00-.933.2 1.917 1.917 0 00-.676 1.592c.01 1.372.53 2.69 1.457 3.691.72.525 1.55.876 2.424 1.026 0 .696.373 4.093 2.121 5.496l.315 2.653a34.452 34.452 0 00-2.564 3.102c-.291.424-.396.601-.396.908-3.497 1.557-10.279 4.717-10.105 5.637.501.365.362 5.743.082 13.326z" fill="#263238"/><path d="M305.905 160.077a10.215 10.215 0 00-1.603-5.653 10.034 10.034 0 00-4.437-3.799 9.898 9.898 0 00-5.774-.665 9.97 9.97 0 00-5.167 2.694 10.165 10.165 0 00-2.817 5.144 10.236 10.236 0 00.482 5.86 10.116 10.116 0 003.618 4.603 9.931 9.931 0 005.536 1.792 9.881 9.881 0 003.842-.712 9.97 9.97 0 003.281-2.146 10.138 10.138 0 002.22-3.253c.521-1.222.8-2.535.819-3.865z" fill="#FF8562" stroke="#263238" stroke-linecap="round" stroke-linejoin="round"/><path d="M291.803 158.072l4.627 5.436 9.091-16.545" stroke="#263238" stroke-width="3" stroke-linecap="round" stroke-linejoin="round"/><path d="M155.924 142.776l87.443-8.042m-87.708-4.347l87.443-8.043m-87.443-4.708l87.443-8.043m-85.593 46.049l87.444-8.042m-45.359 17.194l46.944-4.316m-87.444 8.042l31.898-2.936m-30.301 15.802l87.443-8.042M219.371 192l84.402-8.196m-140.705 13.668l49.928-4.847m59.065 12.182l34.101-3.314m-140.705 13.68l96.931-9.423m20.652 15.921l25.511-2.477m-99.599 9.682l65.428-6.356m-106.534 10.342l35.034-3.396m80.253 10.13l27.795-2.7m-140.704 13.668l96.219-9.352m-56.512 23.421l103.387-10.048m-140.705 13.68l23.938-2.335m54.823 12.606l64.333-6.25m-140.705 13.668l67.55-6.557m64.507 11.652l11.025-1.073m-74.717 7.264l54.019-5.248M177.38 303.655l56.536-5.495" stroke="#263238" stroke-linecap="round" stroke-linejoin="round"/><path d="M107.243 221.871s6.398-21.333 9.417-30.862c3.018-9.528 4.895-17.147 7.156-25.142 2.261-7.996 1.165-25.52 1.165-28.952 0-3.431 20.337-2.288 22.971-1.91 2.634.377 9.79 45.344 7.529 54.483-2.261 9.14-10.489 16.758-10.489 22.088 0 5.331-.385 15.626-.385 17.914 0 2.287 5.653 24.765 6.026 34.659.373 9.894-5.268 24.765-6.399 26.286-1.13 1.522-27.481 33.528-27.481 33.528" fill="#fff"/><path d="M107.243 221.871s6.398-21.333 9.417-30.862c3.018-9.528 4.895-17.147 7.156-25.142 2.261-7.996 1.165-25.52 1.165-28.952 0-3.431 20.337-2.288 22.971-1.91 2.634.377 9.79 45.344 7.529 54.483-2.261 9.14-10.489 16.758-10.489 22.088 0 5.331-.385 15.626-.385 17.914 0 2.287 5.653 24.765 6.026 34.659.373 9.894-5.268 24.765-6.399 26.286-1.13 1.522-27.481 33.528-27.481 33.528" stroke="#263238" stroke-linecap="round" stroke-linejoin="round"/><path d="M127.196 160.536s8.659-3.809 15.815-.766c0 0 .757-17.902-3.392-22.855m-16.561 39.624c4.328.836 8.804.3 12.82-1.533m-11.689-2.287s7.901-4.564 16.561-1.18m-1.877-3.007a13.473 13.473 0 00-11.293.377" stroke="#263238" stroke-linecap="round" stroke-linejoin="round"/><path d="M50.58 331.675s23.763-2.795 43.12 10.071c19.359 12.867 24.906 29.07 24.906 29.07l-16.025 33.563s-27.679-27.407-46.466-34.117c-18.787-6.71-21.56-7.265-21.56-7.265l16.024-31.322z" fill="#fff" stroke="#263238" stroke-linecap="round" stroke-linejoin="round"/><path d="M16.047 378.305c15.01 35.107 40.989 65.804 79.577 89.755l22.26-66.299s-15.477-30.19-33.717-40.261c-18.239-10.072-49.182-13.975-49.182-13.975l-18.938 30.78z" fill="#263238" stroke="#263238" stroke-linecap="round" stroke-linejoin="round"/><path d="M148.247 99.843l144.54-11.25" stroke="#FF8562" stroke-linecap="round" stroke-linejoin="round"/></svg>