<svg width="505" height="437" fill="none" xmlns="http://www.w3.org/2000/svg"><path d="M462.67 145.55c-6.492-3.543-9.455-.58-11.812-3.543-2.358-2.962 6.492-10.627-11.232-18.317 0 0-1.173-16.539-25.402-17.132-24.23-.592-17.725 16.565-24.192 20.687-6.467 4.123-8.282-2.37-14.774 1.765-6.493 4.135-3.543 12.405-8.825 13.59-5.282 1.185-12.404-5.32-18.909-1.185-6.505 4.135-6.493 7.69-9.455 7.69-2.963 0-8.824-2.37-12.405 0-3.58 2.37-7.677 5.307-7.677 5.307h149.41s1.778-5.307-4.727-8.862z" fill="#FF8562"/><path opacity=".5" d="M462.67 145.55c-6.492-3.543-9.455-.58-11.812-3.543-2.358-2.962 6.492-10.627-11.232-18.317 0 0-1.173-16.539-25.402-17.132-24.23-.592-17.725 16.565-24.192 20.687-6.467 4.123-8.282-2.37-14.774 1.765-6.493 4.135-3.543 12.405-8.825 13.59-5.282 1.185-12.404-5.32-18.909-1.185-6.505 4.135-6.493 7.69-9.455 7.69-2.963 0-8.824-2.37-12.405 0-3.58 2.37-7.677 5.307-7.677 5.307h149.41s1.778-5.307-4.727-8.862z" fill="#fff"/><path d="M365.311 323.312c-10.501-5.736-15.279-.958-19.086-5.736-3.807-4.778 10.489-17.183-18.14-29.587 0 0-1.916-26.726-41.046-27.734-39.131-1.009-28.642 26.725-39.143 33.407-10.501 6.681-13.363-3.782-23.851 2.874-10.489 6.656-5.736 20.094-14.283 21.985-8.547 1.891-20.044-8.585-30.545-1.903-10.501 6.681-10.502 12.404-15.279 12.404-4.778 0-14.321-3.782-20.044 0-5.724 3.782-12.405 8.598-12.405 8.598h241.462s2.861-8.585-7.64-14.308z" fill="#FF8562"/><path opacity=".5" d="M365.311 323.311c-10.501-5.736-15.279-.958-19.086-5.736-3.807-4.777 10.489-17.182-18.14-29.587 0 0-1.916-26.725-41.046-27.734-39.131-1.008-28.642 26.726-39.143 33.407-10.501 6.681-13.363-3.782-23.851 2.874-10.489 6.657-5.736 20.095-14.283 21.986-8.547 1.891-20.044-8.585-30.545-1.904-10.501 6.682-10.502 12.405-15.279 12.405-4.778 0-14.321-3.782-20.044 0-5.724 3.782-12.405 8.597-12.405 8.597h241.462s2.861-8.585-7.64-14.308z" fill="#fff"/><path d="M132.598 212.187c-3.593-1.967-5.231-.328-6.542-1.967s3.592-5.887-6.215-10.085c0 0-.656-9.165-14.069-9.492-13.413-.328-9.808 9.164-13.4 11.446-3.593 2.282-4.59-1.26-8.182.984-3.593 2.243-1.967 6.87-4.904 7.563-2.937.694-6.87-2.937-10.463-.655-3.593 2.282-3.605 4.16-5.295 4.16-1.689 0-4.904-1.261-6.858 0-1.954 1.261-4.26 2.95-4.26 2.95h82.76s1.021-2.95-2.572-4.904z" fill="#FF8562"/><path opacity=".5" d="M132.598 212.187c-3.593-1.967-5.231-.328-6.542-1.967s3.592-5.887-6.215-10.085c0 0-.656-9.165-14.069-9.492-13.413-.328-9.808 9.164-13.4 11.446-3.593 2.282-4.59-1.261-8.182.983-3.593 2.244-1.967 6.871-4.904 7.564-2.937.694-6.87-2.937-10.463-.655-3.593 2.281-3.605 4.16-5.295 4.16-1.689 0-4.904-1.261-6.858 0-1.954 1.26-4.26 2.95-4.26 2.95h82.76s1.021-2.95-2.572-4.904z" fill="#fff"/><path d="M151.911 404.484s9.329-19.262 2.521-32.045c-6.807-12.783-15.341-.857-27.267-16.199-11.926-15.342-11.926-32.373-22.162-34.037-10.236-1.664-16.186 2.521-23.851 0-7.665-2.522 1.702-24.709-14.497-29.827-16.2-5.118-26.474 7.677-37.492-4.261-11.018-11.938-27.267-17.044-28.124-11.068-.858 5.975 12.783 5.105 17.9 13.627 5.119 8.522 20.448 23.864 20.448 40.05 0 16.187 14.485 8.522 24.721 12.783 10.236 4.261 9.367 13.64 10.224 26.474.857 12.833 23.006 0 26.473 5.962 3.467 5.963-4.26 7.678-1.702 21.305 2.559 13.628 27.608 14.296 27.608 14.296" fill="#263238"/><path d="M151.911 404.484s9.329-19.262 2.521-32.045c-6.807-12.783-15.341-.857-27.267-16.199-11.926-15.342-11.926-32.373-22.162-34.037-10.236-1.664-16.186 2.521-23.851 0-7.665-2.522 1.702-24.709-14.497-29.827-16.2-5.118-26.474 7.677-37.492-4.261-11.018-11.938-27.267-17.044-28.124-11.068-.858 5.975 12.783 5.105 17.9 13.627 5.119 8.522 20.448 23.864 20.448 40.05 0 16.187 14.485 8.522 24.721 12.783 10.236 4.261 9.367 13.64 10.224 26.474.857 12.833 23.006 0 26.473 5.962 3.467 5.963-4.26 7.678-1.702 21.305 2.559 13.628 27.608 14.296 27.608 14.296" stroke="#263238" stroke-linecap="round" stroke-linejoin="round"/><path d="M135.674 407.371s-17.939-41.752-44.311-68.175c-26.373-26.423-44.311-28.124-55.392-37.491" stroke="#fff" stroke-linecap="round" stroke-linejoin="round"/><path d="M51.338 328.165l20.523-4.5-8.51-19.515m24.029 53.048l17.926-1.16-1.412-15.354m11.005 51.055l14.522 2.496 2.496-21.014" stroke="#fff" stroke-linecap="round" stroke-linejoin="round"/><path d="M81.177 271.185s-6.908.92-14.296-16.603c-6.076-14.434 2.22-26.044 5.346-29.713a1.16 1.16 0 011.89.189c2.408 4.324 9.531 17.712 10.3 25.364.92 9.228-3.24 20.763-3.24 20.763zm69.675 60.435s-4.16-3.681-5.042-11.523c-.883-7.841 5.534-23.069 9.227-20.762 3.694 2.307 5.043 19.376 3.694 25.364-1.349 5.988-7.879 6.921-7.879 6.921zm22.15 26.763s-4.16-3.694-5.043-11.535c-.882-7.841 5.534-23.07 9.228-20.763 3.694 2.307 5.042 19.376 3.694 25.377-1.349 6.001-7.879 6.921-7.879 6.921zm11.635 18.191s-1.802-5.257 1.261-12.543c3.063-7.287 16.161-17.359 18.241-13.54 2.08 3.82-5.042 19.364-9.253 23.952-4.21 4.589-10.249 2.131-10.249 2.131zm-30.343-26.536s-3.921 3.933-11.8 4.424c-7.879.492-22.691-6.82-20.17-10.375 2.522-3.555 19.628-3.983 25.541-2.269 5.912 1.715 6.429 8.22 6.429 8.22zm18.708 28.654s-3.921 3.933-11.8 4.412c-7.879.479-22.691-6.807-20.17-10.362 2.521-3.555 19.628-3.984 25.54-2.269 5.913 1.714 6.43 8.219 6.43 8.219zm-50.3-77.983s-4.614 0-7.374-11.069c-2.761-11.068 2.76-23.069 5.534-20.762 2.773 2.307 8.307 16.615 7.387 23.536-.92 6.921-5.547 8.295-5.547 8.295zm-27.217-2.761a13.87 13.87 0 00-8.761-10.148c-7.854-3.24-22.15.92-22.15 2.761 0 1.84 6.001 7.387 16.603 9.694 10.602 2.307 14.308-2.307 14.308-2.307zm33.218 29.058s-.454-3.681-9.682-8.824c-9.228-5.144-19.451-2.131-18.909-.139.542 1.992 9.732 6.593 17.573 9.833 7.841 3.24 11.018-.87 11.018-.87zm-34.604-46.593s-4.148-3.694-5.043-11.535c-.895-7.841 5.534-23.069 9.228-20.762 3.694 2.307 5.043 19.376 3.681 25.376-1.361 6.001-7.866 6.921-7.866 6.921z" fill="#FF8562"/><path d="M183.2 397.702s4.715-11.787-18.909-43.202c-23.625-31.415-82.484-62.842-89.505-100.548m31.314 45.837l-26.763-6.001m44.752 22.616l-3.694-29.991m22.15 45.673l-28.138-9.682m-20.762-35.07l1.374-22.149m55.367 73.356l1.386-22.137m20.763 48.9l1.387-22.15m6.921 39.219l12.089-18.607m-31.73-12.846l-22.036-2.622m40.719 31.238l-22.036-2.622" stroke="#263238" stroke-linecap="round" stroke-linejoin="round"/><path d="M425.468 406.981s13.943-10.892 13.552-22.868c-.391-11.976-11.081-6.228-14.333-21.961-3.253-15.732 2.962-28.376-4.009-33.381-6.971-5.005-12.947-4.009-17.649-8.698-4.702-4.69 10.274-17.712.126-27.419s-22.401-3.946-26.271-16.842c-3.87-12.897-14.019-22.591-16.83-18.469-2.811 4.123 7.627 8.447 8.308 16.641.681 8.194 6.479 25.212.567 37.176-5.912 11.963 7.64 11.61 13.678 18.506 6.038 6.896 1.979 13.539-2.055 23.334-4.034 9.795 17.044 8.383 17.384 14.056.341 5.673-5.963 4.135-9.038 15.191-3.076 11.056 15.266 20.737 15.266 20.737" fill="#263238"/><path d="M425.468 406.981s13.943-10.892 13.552-22.868c-.391-11.976-11.081-6.228-14.333-21.961-3.253-15.732 2.962-28.376-4.009-33.381-6.971-5.005-12.947-4.009-17.649-8.698-4.702-4.69 10.274-17.712.126-27.419s-22.401-3.946-26.271-16.842c-3.87-12.897-14.019-22.591-16.83-18.469-2.811 4.123 7.627 8.447 8.308 16.641.681 8.194 6.479 25.212.567 37.176-5.912 11.963 7.64 11.61 13.678 18.506 6.038 6.896 1.979 13.539-2.055 23.334-4.034 9.795 17.044 8.383 17.384 14.056.341 5.673-5.963 4.135-9.038 15.191-3.076 11.056 15.266 20.737 15.266 20.737" stroke="#263238" stroke-linecap="round" stroke-linejoin="round"/><path d="M412.358 403.199s1.954-37.504-8.018-66.751c-9.971-29.247-22.615-37.025-27.418-48.03" stroke="#fff" stroke-linecap="round" stroke-linejoin="round"/><path d="M378.674 313.668l16.867 4.135.807-17.586m-1.525 48.131l13.728 5.686 4.551-11.913m-10.451 41.903l9.858 7.148 9.518-14.686" stroke="#fff" stroke-linecap="round" stroke-linejoin="round"/><path d="M443.786 289.451c-4.4-5.168-3.429-11.408-1.488-18.833 1.588-6.127 9.089-15.683 17.195-16.742 1.362-.176 1.387 0 1.261 1.022-.479 6.479-2.043 16.211-4.892 21.544-3.391 6.416-7.135 8.522-12.076 13.009zm20.977 68.882c-1.022-3.442.075-7.047 1.26-10.199 1.185-3.151 11.611-15.455 14.813-10.791s-4.753 15.758-7.564 18.973c-2.811 3.214-5.282 2.546-8.509 2.017zm4.311 28.263c-.92-3.492.214-7.236 1.45-10.4 1.235-3.164 11.66-15.128 14.799-10.413 3.139 4.715-4.828 15.808-7.639 18.998-2.811 3.189-5.396 2.483-8.61 1.815zm-.013 17.989c.984-3.517 3.883-6.152 6.556-8.282 2.672-2.13 17.648-7.11 18.014-1.462.366 5.647-12.115 11.144-16.161 12.48-4.047 1.336-5.925-.555-8.409-2.736zm-9.543-31.856c-3.555.844-7.122-.479-10.261-1.803-3.139-1.324-14.397-12.279-9.644-15.128 4.752-2.849 15.342 5.585 18.493 8.371 3.152 2.786 2.131 5.471 1.412 8.56zm.542 28.15c-3.555.706-7.122-.681-10.185-2.156-3.064-1.475-14.082-12.808-9.19-15.569 4.891-2.761 15.266 6.001 18.216 9.026 2.95 3.026 2.029 5.547 1.159 8.699zm-2.067-74.125c-3.126-1.122-.656-8.22-.063-10.539.592-2.32 10.022-16.288 12.808-11.346 2.786 4.942-2.673 15.556-5.042 18.695-2.37 3.139-4.577 4.311-7.703 3.19zm-17.195-12.758c1.727-3.53.819-7.564-1.185-10.829-2.004-3.265-12.329-11.346-15.682-8.169-3.354 3.177 3.945 11.346 6.202 13.867 2.257 2.521 6.782 6.228 10.665 5.131zm9.896 32.625c1.323-3.063-1.979-7.362-3.051-9.745-1.071-2.382-10.488-11.673-12.606-7.967-2.118 3.706 5.521 11.005 7.374 13.791 1.854 2.786 5.156 4.69 8.283 3.921zm-2.471-44.941c-.731-3.543.605-7.136 2.055-10.224 1.45-3.089 12.606-14.17 15.506-9.304 2.899 4.866-5.862 15.267-8.825 18.242-2.962 2.975-5.572 2.092-8.736 1.286z" fill="#FF8562"/><path d="M458.472 419.751c7.766-17.649 8.736-17.939 5.673-42.61-3.063-24.67-30.545-71.755-16.262-101.367m-.82 43.882c-5.269-5.131-10.236-10.526-15.19-15.947m20.119 34c3.543-7.173 7.312-14.22 10.917-21.355m-4.273 38.903c-5.232-5.95-10.842-11.548-16.061-17.523m2.055-31.629l11.434-14.309m5.471 71.176c3.429-5.043 6.896-10.022 10.3-15.065m-6.165 43.391c3.618-5.043 7.11-10.085 10.602-15.128m-12.455 30.772a904.554 904.554 0 0016.804-7.753m-16.615-22.943a697.571 697.571 0 00-14.56-10.993m14.963 39.269a1429.863 1429.863 0 00-14.169-11.56M65.507 436s202.824-109.082 432.927 0" stroke="#263238" stroke-linecap="round" stroke-linejoin="round"/><path d="M353.234 398.257c0 4.979-28.389 9.026-63.41 9.026-35.02 0-63.397-4.047-63.397-9.026 0-4.98 28.39-9.026 63.397-9.026 35.008 0 63.41 4.046 63.41 9.026z" fill="#FF8562"/><path opacity=".5" d="M353.234 398.257c0 4.979-28.389 9.026-63.41 9.026-35.02 0-63.397-4.047-63.397-9.026 0-4.98 28.39-9.026 63.397-9.026 35.008 0 63.41 4.046 63.41 9.026z" fill="#fff"/><path d="M302.796 114.627c6.644-1.412 11.497-3.555 10.842-9.644-.656-6.089-8.056-10.148-8.825-13.262-.768-3.114 4.337-7.79 3.228-13.74-1.11-5.95-7.035-12.607-12.985-11.548 0 0-.983 1.967-1.954-2.257-.97-4.223-4.147-9.454-9.997-7.425-6.139 2.13-6.139 5.698-7.942 6.303a154.731 154.731 0 00-14.61 7.123c-4.728 2.61-5.497 10.791-6.203 13.653-.706 2.861-2.962 3.542-6.303 2.975-3.341-.568-6.832-1.185-7.564 2.092-.731 3.278-1.109 6.43-3.429 6.24-2.319-.189-4.916-3.63-6.706-.73-1.79 2.899-5.295 8.471-9.051 6.756-3.757-1.714-8.106-8.66-14.145-5.861-6.038 2.798-7.185 10.715-4.841 11.963 2.345 1.248 3.505 3.177 2.938 5.206-.568 2.03-7.703.164-9.947 4.476-2.244 4.311 3.064 8.206 3.089 10.551.025 2.345-1.261 4.488-5.471 5.673-4.211 1.185-7.173 4.526-4.362 6.719 2.811 2.194 2.433-.441 3.126-2.017.694-1.576 2.887-1.853 5.434-.567 2.546 1.286 4.084-1.425 4.084-1.425s-.366 3.354 2.521 4.274c2.887.92 3.354 3.996 0 4.904-3.353.907-5.673 5.635-3.164 8.421 2.509 2.786 6.48 4.525 13.186 2.697 6.707-1.827 21.166-12.606 30.47-7.11 9.303 5.497 25.956 5.346 34.138 2.522 8.181-2.824 10.299-11.459 16.741-12.897 6.442-1.437 4.727-5.156 3.643-8.824-1.084-3.668-2.584-13.829 4.059-15.241zm4.677-6.026a6.161 6.161 0 001.677-3.542 2.872 2.872 0 011.407 2.935 2.879 2.879 0 01-.398 1.074c-1.324 2.76-4.778 1.739-4.778 1.739l2.092-2.206zm-95.064-5.547c-1.45-.252-4.488 5.043-5.282 3.354-.794-1.69 1.021-8.358 4.274-8.648 3.252-.29 6.668 5.849 6.668 5.849-.428 2.484-4.21-.302-5.66-.555zm70.041-40.088a4.036 4.036 0 00-3.29.505 3.948 3.948 0 012.868-3.591 3.96 3.96 0 011.619-.116c2.686.467 3.291 4.413 3.291 4.413a28.702 28.702 0 00-4.488-1.21z" fill="#263238"/><path d="M140.061 241.056l18.784-9.051a17.65 17.65 0 01.075 7.563c-.806 4.702-2.092 9.858-6.303 9.77-4.21-.088-12.556-8.282-12.556-8.282zm63.625 32.864s6.946-16.791 8.408-19.35c1.462-2.559 12.089-3.278 10.262 5.408-1.828 8.686-7.816 13.262-11.611 13.867-2.335.384-4.716.41-7.059.075zm-88.194-103.573a26.921 26.921 0 00-5.711 7.564c-1.74 3.971-3.782 8.824-3.782 8.824s20.41-17.951 31.516-18.67c11.106-.718 13.867-.643 13.867-.643s-13.766-6.416-21.116-4.45a47.456 47.456 0 00-14.043 7.01l-.731.365z" fill="#263238" stroke="#263238" stroke-linecap="round" stroke-linejoin="round"/><path d="M261.549 140.634s-26.625 6.593-53.212 11.913c-26.586 5.32-52.102-.668-66.901 3.214-14.8 3.883-25.944 14.586-25.944 14.586s14.056-8.522 22.691-1.261c8.635 7.262 7.728 11.926 1.664 20.624-6.064 8.699-11.346 21.62-2.231 26.474 9.114 4.853 18.027 21.809 17.951 25.59-.075 3.782-1.336 3.782-1.336 3.782l-14.207-4.5s8.042 17.825 26.057 20.309c18.014 2.483 26.99-4.476 38.323-3.782 11.333.693 10.703 10.728 10.703 10.728s-10.993 3.139-11.459 5.647c-.467 2.509 2.836 4.677 15.947 1.173 13.11-3.505 19.628-13.867 25.792-7.438 6.165 6.429 9.821 12.392 16.552 12.531 6.732.138 11.081-7.753 19.49-27.331 8.408-19.577 38.777-45.383 40.088-67.658s-11.131-50.261-11.131-50.261l-48.837 5.66z" fill="#FF8562" stroke="#263238" stroke-linecap="round" stroke-linejoin="round"/><path d="M252.938 150.127s-19.855 4.626-35.613 14.383c-15.757 9.758-46.076 12.481-54.56 16.086a65.426 65.426 0 00-12.329 6.467m3.858 58.494a78.148 78.148 0 0015.581-21.948 85.876 85.876 0 0134.037-37.113c16.174-9.329 24.167-9.581 39.08-19.351m-27.847 101.128s11.345-37.592 20.397-50.425" stroke="#263238" stroke-linecap="round" stroke-linejoin="round"/><path d="M246.938 355.522a69.857 69.857 0 01-8.018 21.695c-6.555 11.623-8.307 14.951-10.009 16.174-1.702 1.223-5.118 3.265-1.765 4.173 3.353.907 12.606 1.096 15.972-.089 3.366-1.185 3.013-3.718 4.374-8.307a6.406 6.406 0 015.144-4.942l-.29 13.867h2.521l1.084-11.749s1.778-4.576 1.425-7.564c-.353-2.987-3.669-5.547-3.669-5.547l4.148-17.144-10.917-.567z" fill="#D9D9D9" stroke="#263238" stroke-linecap="round" stroke-linejoin="round"/><path d="M254.867 398.143l1.084-11.749s1.778-4.576 1.425-7.564c-.277-2.294-2.32-4.361-3.227-5.168-2.736 3.403-6.077 12.329-10.88 16.212a13.75 13.75 0 01-12.228 2.269l-.693-.303a7.018 7.018 0 01-1.437 1.513c-1.702 1.26-5.118 3.265-1.765 4.173 3.353.907 12.606 1.096 15.972-.089 3.366-1.185 3.013-3.719 4.374-8.307a6.402 6.402 0 015.144-4.942l-.29 13.867 2.521.088z" fill="#263238" stroke="#263238" stroke-linecap="round" stroke-linejoin="round"/><path d="M340.931 357.501a69.556 69.556 0 007.11 22.01c6.051 11.888 7.664 15.292 9.316 16.59 1.651 1.299 4.967 3.467 1.588 4.236-3.378.769-12.606.567-15.947-.756-3.341-1.324-2.862-3.845-4.034-8.497a6.404 6.404 0 00-4.929-5.144l-.29 13.867-2.521-.063-.593-11.774s-1.588-4.652-1.109-7.564c.479-2.912 3.895-5.383 3.895-5.383l-3.416-17.308 10.93-.214z" fill="#D9D9D9" stroke="#263238" stroke-linecap="round" stroke-linejoin="round"/><path d="M331.224 399.744l-.593-11.774s-1.588-4.652-1.109-7.564c.378-2.269 2.521-4.248 3.454-5.043 2.584 3.53 5.547 12.607 10.173 16.666a13.74 13.74 0 0012.128 2.773l.706-.264a6.91 6.91 0 001.374 1.575c1.651 1.261 4.967 3.467 1.588 4.236-3.378.769-12.606.567-15.947-.756-3.341-1.324-2.862-3.845-4.034-8.497a6.404 6.404 0 00-4.929-5.143l-.29 13.867-2.521-.076zM273.6 195.055s-17.409 40.038-19.83 55.544c-2.42 15.505-10.261 108.263-10.261 108.263l16.791.781 24.948-106.674 4.614-19.666 38.853 130.69 14.321-.959s-15.128-98.669-20.965-122.281a344.604 344.604 0 00-15.468-46.278l-33.003.58z" fill="#263238" stroke="#263238" stroke-linecap="round" stroke-linejoin="round"/><path d="M281.063 108.903s.063 18.532 0 20.788c-.063 2.257-20.876 8.371-20.876 8.371l13.476 56.993s17.649 1.5 33.004-.655l10.085-60.788-18.91-3.782.757-14.888s-11.939-.265-17.536-6.039z" fill="#D9D9D9" stroke="#263238" stroke-linecap="round" stroke-linejoin="round"/><path d="M304.309 131.129c-1.374 5.156-5.862 18.102-16.186 16.791-8.926-1.134-14.371-9.934-16.288-13.64-5.622 2.005-11.736 3.782-11.736 3.782l13.476 56.993s17.649 1.5 33.003-.655l10.085-60.788-12.354-2.483z" fill="#fff" stroke="#263238" stroke-linecap="round" stroke-linejoin="round"/><path d="M275.617 131.393s5.043 27.444 6.303 42.862c1.261 15.417 1.261 26.007.984 28.036-.278 2.03-14.056 55.96-14.056 55.96L244.896 247.8l24.166-53.489s-13.867-52.026-13.779-53.841c.088-1.816 20.334-9.077 20.334-9.077z" fill="#707070" stroke="#263238" stroke-linecap="round" stroke-linejoin="round"/><path d="M271.066 133.322l-2.244 20.738 5.043 3.958-3.782 6.694 12.606 32.776s-.113-16.047-1.021-26.687c-.908-10.64-6.177-39.433-6.177-39.433l-4.425 1.954z" stroke="#263238" stroke-linecap="round" stroke-linejoin="round"/><path d="M300.729 130.108s-3.479 69.07-3.505 69.738c-.025.668 18.91 58.241 18.91 58.241l18.657-5.937-24.721-59.931s11.8-56.249 11.598-57.371c-.202-1.122-20.939-4.74-20.939-4.74z" fill="#707070" stroke="#263238" stroke-linecap="round" stroke-linejoin="round"/><path d="M306.137 131.583l2.496 23.8-6.278 3.505 5.887 5.055-11.018 35.903 3.505-69.738 5.408 1.475z" fill="#707070" stroke="#263238" stroke-linecap="round" stroke-linejoin="round"/><path d="M300.754 83.754a5.378 5.378 0 00-.189-.706c-.441-1.361-1.752-4.097-5.042-2.521-4.249 2.017-6.657 6.593-9.821 7.16a28.332 28.332 0 01-4.009.542s-4.853 10.627-7.21 12.468a14.226 14.226 0 01-5.509 2.408s.68 7.375 2.76 8.471a4.447 4.447 0 004.211-.327s5.95 7.273 9.908 9.24c3.959 1.967 8.359 2.521 10.691 1.261 2.332-1.261 9.026-8.825 9.114-13.061.088-4.235-1.79-14.762-2.13-18.91a8.089 8.089 0 00-2.774-6.025z" fill="#D9D9D9" stroke="#263238" stroke-linecap="round" stroke-linejoin="round"/><path d="M287.152 80.262s.618.429-.252 1.891a14.17 14.17 0 01-2.584 2.887s4.21-.328 5.962-3.454c1.753-3.127-.554-3.53-3.126-1.324z" fill="#fff"/><path d="M288.287 95.15c.189 1.084-.164 2.055-.795 2.168-.63.114-1.26-.68-1.475-1.764-.214-1.085.164-2.055.795-2.169.63-.113 1.285.744 1.475 1.765zm10.765-1.45c.189 1.085-.176 2.055-.807 2.169-.63.113-1.26-.694-1.474-1.778-.215-1.084.163-2.054.794-2.168.63-.113 1.286.68 1.487 1.778z" fill="#263238"/><path d="M283.547 91.81l6.126-1.35m5.295-1.777s1.966-3.328 4.677-2.433m-4.854 20.725s-6.971 1.324-8.824-2.71m9.896-6.795s1.122 3.908-2.42 4.286" stroke="#263238" stroke-linecap="round" stroke-linejoin="round"/><path d="M325.387 204.056s-10.564 7.917-10.602 9.947c-.038 2.029 1.929 5.042 2.584 5.698.656.655 2.66 2.521 2.66 2.521s5.446-1.261 5.27-3.505c-.177-2.243-.82-2.307-.82-2.307l4.451-7.563-3.543-4.791z" fill="#D9D9D9" stroke="#263238" stroke-linecap="round" stroke-linejoin="round"/><path d="M324.442 216.461l-2.534 2.433" stroke="#263238" stroke-linecap="round" stroke-linejoin="round"/><path d="M315.832 153.253l25.893 26.07-17.914 24.027 5.736 6.669s28.642-29.675 28.692-32.159c.051-2.483-31.906-40.428-33.911-41.827-2.004-1.4-6.505-2.181-6.505-2.181" fill="#707070"/><path d="M315.832 153.253l25.893 26.07-17.914 24.027 5.736 6.669s28.642-29.675 28.692-32.159c.051-2.483-31.906-40.428-33.911-41.827-2.004-1.4-6.505-2.181-6.505-2.181" stroke="#263238" stroke-linecap="round" stroke-linejoin="round"/><path d="M255.611 202.859s11.27 6.857 11.51 8.824c.239 1.967-1.425 5.181-2.017 5.925-.593.744-2.396 2.836-2.396 2.836s-5.534-.706-5.584-2.975c-.051-2.269.63-2.345.63-2.345l-5.131-7.122 2.988-5.143z" fill="#D9D9D9" stroke="#263238" stroke-linecap="round" stroke-linejoin="round"/><path d="M257.741 215.125l2.761 2.168" stroke="#263238" stroke-linecap="round" stroke-linejoin="round"/><path d="M264.045 155.547l-26.032 23.851 19.086 22.603-5.043 7.199s-30.331-27.18-30.621-29.65c-.29-2.471 32.777-40.252 34.857-41.601 2.08-1.349 6.593-1.891 6.593-1.891" fill="#707070"/><path d="M264.045 155.547l-26.032 23.851 19.086 22.603-5.043 7.199s-30.331-27.18-30.621-29.65c-.29-2.471 32.777-40.252 34.857-41.601 2.08-1.349 6.593-1.891 6.593-1.891" stroke="#263238" stroke-linecap="round" stroke-linejoin="round"/><path d="M277.546 143.143s3.681-9.228 3.164-12.153c-.517-2.925-5.483-2.156-8.421-1.046-2.937 1.109-7.097 5.383-7.097 5.383s7.866-.429 9.039-.984c1.172-.554 3.05 7.69 3.315 8.8zm20.258-13.325l2.106 14.963s2.168-6.303 4.853-9.505a15.904 15.904 0 014.45-3.971s-6.253-2.609-11.409-1.487z" fill="#FF8562" stroke="#263238" stroke-linecap="round" stroke-linejoin="round"/></svg>