<svg width="312" height="295" fill="none" xmlns="http://www.w3.org/2000/svg"><path d="M63.537 16.878s4.034-3.18 5.06-5.223c.861-1.724 1.516-4.197.611-6.033a3.447 3.447 0 00-4.904-1.578c-2.482 1.543-2.75 6.81-2.112 9.344.052.198 1.302 3.525 1.345 3.49zM26.259 43.409c.164.155 3.043 2.232 3.06 2.19.017-.044 1.603-4.88 1.336-7.155-.224-1.94-1.052-4.31-2.827-5.387a3.448 3.448 0 00-4.956 1.396c-1.224 2.655 1.465 7.189 3.387 8.956zm84.477-21.703S95.98 36.944 96.083 55.656c.104 18.713 14.972 33.823 14.972 33.823s14.765-15.23 14.653-33.952c-.112-18.72-14.972-33.821-14.972-33.821z" fill="#FF8562"/><path d="M89.696 66.861c.195-.208.373-.43.535-.663 1.069-1.63 1.99-4 1.301-5.948a3.449 3.449 0 00-4.689-2.129c-2.008.949-2.99 4.163-3.197 6.792a49.675 49.675 0 00-2.147-.43 97.595 97.595 0 00-.801-1.793c-.276-.604-.491-1.25-.75-1.888-.353-.93-.664-1.913-.983-2.896 1.164-.517 4.56-2.112 5.827-3.508 1.267-1.396 2.586-3.655 2.19-5.68a3.447 3.447 0 00-4.31-2.81c-2.81.862-4.456 5.844-4.508 8.456 0 .077 0 .629.095 1.292-.276-.965-.57-1.93-.82-2.922-.723-2.8-1.37-5.68-2.025-8.559-.138-.594-.284-1.197-.422-1.792.983-.44 4.68-2.13 6.033-3.595 1.354-1.465 2.586-3.654 2.19-5.68a3.446 3.446 0 00-4.31-2.81c-2.801.863-4.447 5.844-4.508 8.456 0 .086.052.75.12 1.491a101.54 101.54 0 00-1.223-4.637 60.196 60.196 0 00-2.758-7.697c.353-.146 4.732-2.043 6.206-3.672 1.301-1.448 2.585-3.654 2.18-5.68a3.447 3.447 0 00-4.31-2.81c-2.8.862-4.447 5.844-4.507 8.456 0 .18.215 2.586.319 3.448a.355.355 0 010-.087 45.282 45.282 0 00-4.017-6.938 62.74 62.74 0 00-4.439-5.637c-1.456-1.724-2.887-3.12-4.163-4.387A84.599 84.599 0 0055.84 8.75h.06c.052 0-1.361-3.258-1.474-3.447C53.116 3.045 49.255-.55 46.402.07a3.448 3.448 0 00-2.517 4.49c.638 1.966 2.81 3.284 4.646 3.922 1.836.638 6.033.336 7.042.242.62.603 1.284 1.25 2 1.973 1.25 1.293 2.646 2.767 4.06 4.465.378.457.766.957 1.145 1.44-.81-.681-1.947-1.586-2.068-1.664-2.198-1.396-7.283-2.81-9.524-.948a3.447 3.447 0 00-.06 5.172c1.465 1.448 4.007 1.62 5.938 1.335 1.93-.284 5.602-2.585 6.387-3.042a38.793 38.793 0 012.465 3.448 44.753 44.753 0 013.818 6.895c.06.138.104.293.164.431-.345-.405-2.396-2.474-2.586-2.586-2.034-1.637-6.895-3.594-9.369-1.99a3.449 3.449 0 00-.62 5.11c1.301 1.604 3.8 2.052 5.749 1.983 2.25-.078 6.67-2.31 6.835-2.396a61.175 61.175 0 012.5 7.498c.5 1.888.939 3.819 1.352 5.758-.456-.517-2.37-2.44-2.525-2.586-2.034-1.629-6.895-3.594-9.37-1.982a3.446 3.446 0 00-.62 5.111c1.302 1.595 3.801 2.051 5.75 1.982 2.197-.086 6.447-2.206 6.8-2.387l.569 2.655c.594 2.887 1.18 5.783 1.844 8.619.233.983.492 1.948.75 2.913-.715-.75-2.043-2.086-2.172-2.19-2.034-1.628-6.895-3.593-9.369-1.981a3.447 3.447 0 00-.62 5.11c1.3 1.595 3.8 2.052 5.748 1.974 1.948-.077 5.569-1.775 6.586-2.266.44 1.603.913 3.18 1.456 4.714.25.655.457 1.345.733 1.957l.414.983-.509-.078s-.043.914.043 2.396c-2.146-1.526-5.24-2.844-7.257-1.922a3.446 3.446 0 00-1.388 4.956c.127.222.277.43.448.62a13.43 13.43 0 002.776 6.19 97.94 97.94 0 002.327 2.145c-.733-.405-1.465-.793-2.224-1.224-1.095-.603-2.232-1.284-3.344-1.939l-1.724-1.086c-.586-.353-1.103-.767-1.664-1.155-.81-.577-1.62-1.224-2.422-1.862.681-1.086 2.638-4.31 2.922-6.154.285-1.844.13-4.465-1.31-5.938a3.447 3.447 0 00-5.171 0c-1.88 2.24-.492 7.326.905 9.532 0 .078.388.509.793 1.026a81.09 81.09 0 01-2.293-1.982 232.464 232.464 0 01-6.413-6.034l-1.344-1.267c.586-.905 2.732-4.352 3.034-6.309.301-1.957.129-4.465-1.31-5.947a3.448 3.448 0 00-5.172 0c-1.879 2.24-.491 7.326.862 9.541.052.078.465.595.93 1.172a113.024 113.024 0 00-3.585-3.189 60.663 60.663 0 00-6.542-4.895c.216-.32 2.819-4.31 3.146-6.482.293-1.93.13-4.465-1.31-5.947a3.449 3.449 0 00-5.171 0c-1.88 2.24-.492 7.326.861 9.541.095.155 1.595 2.026 2.147 2.672l-.078-.052a44.552 44.552 0 00-7.18-3.577 62.674 62.674 0 00-6.809-2.25c-2.137-.594-4.129-1.008-5.896-1.361a89.172 89.172 0 00-2.654-.466s-2.94-1.973-3.138-2.068c-2.335-1.164-7.541-2.034-9.576.06a3.448 3.448 0 00.483 5.172c1.612 1.284 4.155 1.19 6.034.698 1.878-.491 5.171-3.034 6.033-3.672.862.155 1.724.328 2.758.535 1.724.396 3.732.861 5.844 1.49.569.164 1.164.371 1.724.56-1.052-.111-2.5-.24-2.638-.24-2.585.043-7.628 1.672-8.472 4.464A3.449 3.449 0 0020 54.217c2.026.396 4.232-.862 5.689-2.155 1.457-1.293 3.275-5.223 3.646-6.033a56.96 56.96 0 013.947 1.49 44.313 44.313 0 017.017 3.69c.12.077.25.18.37.267-.508-.146-3.361-.741-3.568-.758-2.586-.242-7.757.861-8.912 3.508a3.446 3.446 0 002.3 4.61c1.975.613 4.31-.387 5.896-1.525 1.828-1.31 4.31-5.61 4.37-5.775a62.532 62.532 0 016.224 4.879c1.456 1.293 2.887 2.672 4.31 4.06-.673-.173-3.328-.733-3.526-.75-2.586-.242-7.758.862-8.912 3.516a3.447 3.447 0 002.3 4.603c1.975.612 4.31-.388 5.896-1.526 1.785-1.275 4.155-5.387 4.353-5.731.647.629 1.293 1.258 1.93 1.896 2.095 2.086 4.181 4.18 6.31 6.18.733.698 1.483 1.353 2.233 2.017-1.009-.233-2.854-.612-3.017-.63-2.586-.24-7.758.862-8.913 3.517a3.448 3.448 0 002.302 4.603c1.965.62 4.31-.388 5.887-1.517 1.577-1.13 3.663-4.56 4.232-5.525 1.258 1.086 2.525 2.146 3.827 3.129.569.405 1.12.862 1.724 1.224l1.68 1.12c1.173.733 2.259 1.405 3.37 2.052.552.336 1.087.637 1.638.948-.991-.388-2.586-.966-2.715-1.009-2.534-.63-7.8-.362-9.343 2.12a3.448 3.448 0 001.577 4.905c1.853.905 4.31.267 6.034-.612 1.922-.974 4.81-4.542 5.171-4.982a175.889 175.889 0 0012.343 6.395c7.292 6.31 17.549 7 17.549 7s.543-12.292-6.689-20.377a25.52 25.52 0 00-8.835-6.18zm-13.015 11.99c.225-.509 1.974-4.413 2.095-6.611l1.207-.25a28.444 28.444 0 004.525 10.817 198.398 198.398 0 01-4.31-2.103 256.325 256.325 0 01-3.517-1.853zm66.782-14.334s-12.3.37-19.824 8.197c-7.525 7.826-7.43 20.117-7.43 20.117s12.291-.379 19.824-8.197c7.533-7.817 7.43-20.117 7.43-20.117z" fill="#FF8562"/><g opacity=".5" fill="#fff"><path opacity=".5" d="M63.537 16.878s4.034-3.18 5.06-5.223c.861-1.724 1.516-4.197.611-6.033a3.447 3.447 0 00-4.904-1.578c-2.482 1.543-2.75 6.81-2.112 9.344.052.198 1.302 3.525 1.345 3.49zm-37.278 26.53c.164.155 3.043 2.233 3.06 2.19.017-.044 1.603-4.879 1.336-7.154-.224-1.94-1.052-4.31-2.827-5.388a3.448 3.448 0 00-4.956 1.397c-1.224 2.654 1.465 7.188 3.387 8.955zm84.477-21.703S95.98 36.944 96.083 55.656c.104 18.713 14.972 33.822 14.972 33.822s14.765-15.23 14.653-33.951c-.112-18.721-14.972-33.822-14.972-33.822z"/><path opacity=".5" d="M89.696 66.861c.195-.208.373-.43.535-.663 1.069-1.63 1.99-4 1.301-5.948a3.449 3.449 0 00-4.689-2.129c-2.008.949-2.99 4.163-3.197 6.792a49.675 49.675 0 00-2.147-.43 97.595 97.595 0 00-.801-1.793c-.276-.604-.491-1.25-.75-1.888-.353-.93-.664-1.913-.983-2.896 1.164-.517 4.56-2.112 5.827-3.508 1.267-1.396 2.586-3.655 2.19-5.68a3.447 3.447 0 00-4.31-2.81c-2.81.862-4.456 5.844-4.508 8.456 0 .077 0 .629.095 1.292-.276-.965-.57-1.93-.82-2.922-.723-2.8-1.37-5.68-2.025-8.559-.138-.594-.284-1.197-.422-1.792.983-.44 4.68-2.13 6.033-3.595 1.354-1.465 2.586-3.654 2.19-5.68a3.446 3.446 0 00-4.31-2.81c-2.801.863-4.447 5.844-4.508 8.456 0 .086.052.75.12 1.491a101.54 101.54 0 00-1.223-4.637 60.196 60.196 0 00-2.758-7.697c.353-.146 4.732-2.043 6.206-3.672 1.301-1.448 2.585-3.654 2.18-5.68a3.447 3.447 0 00-4.31-2.81c-2.8.862-4.447 5.844-4.507 8.456 0 .18.215 2.586.319 3.448a.355.355 0 010-.087 45.282 45.282 0 00-4.017-6.938 62.74 62.74 0 00-4.439-5.637c-1.456-1.724-2.887-3.12-4.163-4.387A84.599 84.599 0 0055.84 8.75h.06c.052 0-1.361-3.258-1.474-3.447C53.116 3.045 49.255-.55 46.402.07a3.448 3.448 0 00-2.517 4.49c.638 1.966 2.81 3.284 4.646 3.922 1.836.638 6.033.336 7.042.242.62.603 1.284 1.25 2 1.973 1.25 1.293 2.646 2.767 4.06 4.465.378.457.766.957 1.145 1.44-.81-.681-1.947-1.586-2.068-1.664-2.198-1.396-7.283-2.81-9.524-.948a3.447 3.447 0 00-.06 5.172c1.465 1.448 4.007 1.62 5.938 1.335 1.93-.284 5.602-2.585 6.387-3.042a38.793 38.793 0 012.465 3.448 44.753 44.753 0 013.818 6.895c.06.138.104.293.164.431-.345-.405-2.396-2.474-2.586-2.586-2.034-1.637-6.895-3.594-9.369-1.99a3.449 3.449 0 00-.62 5.11c1.301 1.604 3.8 2.052 5.749 1.983 2.25-.078 6.67-2.31 6.835-2.396a61.175 61.175 0 012.5 7.498c.5 1.888.939 3.819 1.352 5.758-.456-.517-2.37-2.44-2.525-2.586-2.034-1.629-6.895-3.594-9.37-1.982a3.446 3.446 0 00-.62 5.111c1.302 1.595 3.801 2.051 5.75 1.982 2.197-.086 6.447-2.206 6.8-2.387l.569 2.655c.594 2.887 1.18 5.783 1.844 8.619.233.983.492 1.948.75 2.913-.715-.75-2.043-2.086-2.172-2.19-2.034-1.628-6.895-3.593-9.369-1.981a3.447 3.447 0 00-.62 5.11c1.3 1.595 3.8 2.052 5.748 1.974 1.948-.077 5.569-1.775 6.586-2.266.44 1.603.913 3.18 1.456 4.714.25.655.457 1.345.733 1.957l.414.983-.509-.078s-.043.914.043 2.396c-2.146-1.526-5.24-2.844-7.257-1.922a3.446 3.446 0 00-1.388 4.956c.127.222.277.43.448.62a13.43 13.43 0 002.776 6.19 97.94 97.94 0 002.327 2.145c-.733-.405-1.465-.793-2.224-1.224-1.095-.603-2.232-1.284-3.344-1.939l-1.724-1.086c-.586-.353-1.103-.767-1.664-1.155-.81-.577-1.62-1.224-2.422-1.862.681-1.086 2.638-4.31 2.922-6.154.285-1.844.13-4.465-1.31-5.938a3.447 3.447 0 00-5.171 0c-1.88 2.24-.492 7.326.905 9.532 0 .078.388.509.793 1.026a81.09 81.09 0 01-2.293-1.982 232.464 232.464 0 01-6.413-6.034l-1.344-1.267c.586-.905 2.732-4.352 3.034-6.309.301-1.957.129-4.465-1.31-5.947a3.448 3.448 0 00-5.172 0c-1.879 2.24-.491 7.326.862 9.541.052.078.465.595.93 1.172a113.024 113.024 0 00-3.585-3.189 60.663 60.663 0 00-6.542-4.895c.216-.32 2.819-4.31 3.146-6.482.293-1.93.13-4.465-1.31-5.947a3.449 3.449 0 00-5.171 0c-1.88 2.24-.492 7.326.861 9.541.095.155 1.595 2.026 2.147 2.672l-.078-.052a44.552 44.552 0 00-7.18-3.577 62.674 62.674 0 00-6.809-2.25c-2.137-.594-4.129-1.008-5.896-1.361a89.172 89.172 0 00-2.654-.466s-2.94-1.973-3.138-2.068c-2.335-1.164-7.541-2.034-9.576.06a3.448 3.448 0 00.483 5.172c1.612 1.284 4.155 1.19 6.034.698 1.878-.491 5.171-3.034 6.033-3.672.862.155 1.724.328 2.758.535 1.724.396 3.732.861 5.844 1.49.569.164 1.164.371 1.724.56-1.052-.111-2.5-.24-2.638-.24-2.585.043-7.628 1.672-8.472 4.464A3.449 3.449 0 0020 54.217c2.026.396 4.232-.862 5.689-2.155 1.457-1.293 3.275-5.223 3.646-6.033a56.96 56.96 0 013.947 1.49 44.313 44.313 0 017.017 3.69c.12.077.25.18.37.267-.508-.146-3.361-.741-3.568-.758-2.586-.242-7.757.861-8.912 3.508a3.446 3.446 0 002.3 4.61c1.975.613 4.31-.387 5.896-1.525 1.828-1.31 4.31-5.61 4.37-5.775a62.532 62.532 0 016.224 4.879c1.456 1.293 2.887 2.672 4.31 4.06-.673-.173-3.328-.733-3.526-.75-2.586-.242-7.758.862-8.912 3.516a3.447 3.447 0 002.3 4.603c1.975.612 4.31-.388 5.896-1.526 1.785-1.275 4.155-5.387 4.353-5.731.647.629 1.293 1.258 1.93 1.896 2.095 2.086 4.181 4.18 6.31 6.18.733.698 1.483 1.353 2.233 2.017-1.009-.233-2.854-.612-3.017-.63-2.586-.24-7.758.862-8.913 3.517a3.448 3.448 0 002.302 4.603c1.965.62 4.31-.388 5.887-1.517 1.577-1.13 3.663-4.56 4.232-5.525 1.258 1.086 2.525 2.146 3.827 3.129.569.405 1.12.862 1.724 1.224l1.68 1.12c1.173.733 2.259 1.405 3.37 2.052.552.336 1.087.637 1.638.948-.991-.388-2.586-.966-2.715-1.009-2.534-.63-7.8-.362-9.343 2.12a3.448 3.448 0 001.577 4.905c1.853.905 4.31.267 6.034-.612 1.922-.974 4.81-4.542 5.171-4.982a175.889 175.889 0 0012.343 6.395c7.292 6.31 17.549 7 17.549 7s.543-12.292-6.689-20.377a25.52 25.52 0 00-8.835-6.18zm-13.015 11.99c.225-.509 1.974-4.413 2.095-6.611l1.207-.25a28.444 28.444 0 004.525 10.817 198.398 198.398 0 01-4.31-2.103 256.325 256.325 0 01-3.517-1.853zm66.782-14.334s-12.3.37-19.824 8.197c-7.525 7.826-7.43 20.117-7.43 20.117s12.291-.379 19.824-8.197c7.533-7.817 7.43-20.117 7.43-20.117z"/></g><path d="M111.348 72.438l12.075-10.86-.517-.577-11.567 10.394-.06-14.221.06.043 10.223-14.937-.647-.44-9.636 14.101-.155-34.235h-.767l.094 23.237-7.688-6.654-.508.586 8.205 7.102.069 16.61-11.653-10.309-.517.578 12.17 10.773.069 15.127-8.757-6.87-.474.604 9.24 7.258.034 9.73h.776l-.069-17.048v.008zm-11.128 4.189l-.767-.086-.974 8.593-5.188-5.792h.017L91.989 68.93l-.767.103 1.172 9.309-12.886-14.411-.577.517 8.748 9.774-5.542.069.017.776 6.206-.078 6.137 6.852-8.662.009v.776l9.352-.009 5.576 6.232-6.11.37.051.768 6.714-.405 3.715 4.154.578-.517-6.542-7.31 1.051-9.282zm29.185 3.069l10.274-2.095-.155-.758-9.188 1.87 13.403-13.929-.56-.534-9.093 9.447-.483-5.517-.767.07.534 6.188-6.378 6.628-.655-8.636-.776.06.715 9.326-5.8 6.016-.819-6.06-.776.104.905 6.672-3.861 4.016.56.535 6.801-7.068 9.343.353.026-.767-8.645-.336 5.387-5.603.008.018z" fill="#fff"/><path d="M134.654 49.718c4.032 0 7.301-3.303 7.301-7.378s-3.269-7.378-7.301-7.378c-4.031 0-7.3 3.303-7.3 7.378s3.269 7.378 7.3 7.378zm20.264 12.808s3.448-.146 4.31 5.965c.862 6.11 4.465 22.048 4.766 24.28.302 2.232-1.043 4.922-4.309 5.965-3.267 1.042-5.069-2.086-5.37-3.577-.302-1.492-3.181-19.644-3.181-19.644l3.784-12.989z" fill="#263238" stroke="#263238" stroke-linecap="round" stroke-linejoin="round"/><path d="M121.364 77.386s-15.101 6.387-15.101 8.705c0 2.319 9.3 24.996 9.3 24.996l40.071-10.455-4.491-25.1s-5.964-7.438-29.779 1.854z" fill="#FF8562" stroke="#263238" stroke-linecap="round" stroke-linejoin="round"/><path d="M135.137 63.68s-4.31 2.682-7.757 4.612c-3.448 1.93-8.62 4.62-8.62 9.99s3.879 26.668 3.879 28.9c-.071.997-.022 1.998.147 2.982 0-.448 26.219-9.093 26.219-9.093a95.628 95.628 0 012.983-10.127c1.344-3.276 0-6.112 1.491-11.473 1.491-5.36 4.309-8.938 3.129-12.928-1.181-3.991-1.492-3.87-5.81-4.026-4.318-.155-11.489-.18-15.661 1.164z" fill="#263238" stroke="#263238" stroke-linecap="round" stroke-linejoin="round"/><path d="M133.172 61.337s-1.939 1.042-2.689 5.809a92.061 92.061 0 00-.742 11.472s8.042-4.465 9.24-4.62c1.198-.155 9.835 3.448 9.835 3.448a79.911 79.911 0 00-2.982-11.627c-1.785-4.784-10.878-6.568-12.662-4.482z" fill="#fff" stroke="#263238" stroke-linecap="round" stroke-linejoin="round"/><path d="M131.681 60.148l.146.508c.578 2.017 2.741 9.481 4.026 13.196 1.491 4.31 3.723 6.111 3.723 6.111l2.233-8.912s-8.792-8.525-10.128-10.904z" fill="#fff" stroke="#263238" stroke-linecap="round" stroke-linejoin="round"/><path d="M139.559 41.073s-7.301-1.19-9.835 8.343c-2.534 9.533 5.663 17.73 8.042 20.859 2.379 3.129 5.827 4.128 7.757 1.043 2.983-4.767 3.879-7.154 4.31-13.412.431-6.257-.302-10.43-3.129-13.704a9.813 9.813 0 00-7.145-3.13z" fill="#fff" stroke="#263238" stroke-linecap="round" stroke-linejoin="round"/><path d="M146.73 44.202a9.815 9.815 0 00-7.154-3.13s-7.301-1.189-9.835 8.344a15.105 15.105 0 00.199 8.214c.267-.68.672-1.215 1.293-1.215 1.784 0 1.939 2.534 2.534 2.388.594-.147 2.973-2.233 2.534-4.172-.44-1.94.146-2.827 3.275-2.827s3.87 1.336 4.913 1.043c1.043-.293 1.793-2.388 2.836-2.388a3.509 3.509 0 012.465 1.138 13.197 13.197 0 00-3.06-7.395z" fill="#263238" stroke="#263238" stroke-linecap="round" stroke-linejoin="round"/><path d="M133.767 59.699s-1.198-2.983-2.534-3.284c-1.336-.302-2.086.603-1.345 3.128.741 2.526 1.793 3.577 2.388 3.577.594 0 .862-.861.862-.861" fill="#fff"/><path d="M133.767 59.699s-1.198-2.983-2.534-3.284c-1.336-.302-2.086.603-1.345 3.128.741 2.526 1.793 3.577 2.388 3.577.594 0 .862-.861.862-.861m-10.249 27.978s.741 4.775 4.025 6.895c3.284 2.12 7.758 1.043 7.758 1.043m4.887-18.212s2.086 7.895 1.637 11.317" stroke="#263238" stroke-linecap="round" stroke-linejoin="round"/><path d="M95.05 77.946s1.81.75 3.17 5.43c1.363 4.68 4.974 13.274 5.879 16.592.905 3.319.604 7.542-3.318 8.62-3.922 1.077-8.145-9.654-8.749-10.559-.603-.905-2.111-9.352-1.353-13.877.759-4.525 2.715-6.8 4.37-6.206z" fill="#fff" stroke="#263238" stroke-linecap="round" stroke-linejoin="round"/><path d="M73.57 93.616s-23.565 22.987-23.565 26.435c0 3.448 13.868 31.96 17.747 31.314 3.879-.647 21.333-19.247 21.333-19.247L73.57 93.616z" fill="#FF8562" stroke="#263238" stroke-linecap="round" stroke-linejoin="round"/><path d="M74.234 81.575a146.742 146.742 0 00-12.67 12.67c-5.284 6.18-4.827 16.592-3.172 23.677 1.654 7.085 4.68 27.151 8.446 27.909 3.767.759 6.792-7.24 13.43-12.929 6.636-5.688 11.92-10.558 12.368-14.333.448-3.776-.147-15.834.155-16.739a95.671 95.671 0 001.207-13.429c0-4.37-3.319-9.196-6.637-10.257-3.319-1.06-11.774 2.388-13.127 3.43zm30.555 141.889s-4.879 10.033-11.86 16.42c-6.982 6.387-17.937 14.291-17.937 14.291s11.55 3.654 13.99 3.956c2.438.301 1.818 1.517-.915 2.741-2.732 1.224-6.085 2.129-13.687 2.129-7.602 0-12.463 0-12.774-1.828-.31-1.827 4.569-6.387 8.214-10.032 3.646-3.646 17.636-26.461 18.85-27.677 1.216-1.215 9.732-5.171 16.119 0z" fill="#fff" stroke="#263238" stroke-linecap="round" stroke-linejoin="round"/><path d="M88.981 258.131c-2.008-.25-10.188-2.767-13.015-3.646l-2.19 4.861a10.787 10.787 0 01-9.204-2.879c-1.82 1.974-3.13 3.732-2.974 4.706.31 1.828 5.171 1.828 12.774 1.828 7.602 0 10.946-.914 13.687-2.129 2.74-1.216 3.353-2.44.922-2.741z" fill="#263238" stroke="#263238" stroke-linecap="round" stroke-linejoin="round"/><path d="M192.033 223.464s4.87 10.033 11.86 16.42c6.99 6.387 17.945 14.291 17.945 14.291s-11.558 3.654-13.989 3.956c-2.431.301-1.827 1.517.914 2.741 2.741 1.224 6.033 2.129 13.678 2.129 7.646 0 12.472 0 12.774-1.828.302-1.827-4.56-6.387-8.214-10.032-3.655-3.646-17.635-26.461-18.85-27.677-1.216-1.215-9.731-5.171-16.118 0z" fill="#fff" stroke="#263238" stroke-linecap="round" stroke-linejoin="round"/><path d="M207.849 258.131c2-.25 10.188-2.767 13.015-3.646l2.189 4.861a10.796 10.796 0 009.197-2.879c1.81 1.974 3.129 3.732 2.965 4.706-.302 1.828-5.171 1.828-12.774 1.828-7.602 0-10.946-.914-13.678-2.129-2.733-1.216-3.345-2.44-.914-2.741zM34.542 227.722s4.258 7.904 3.956 10.645c-.25 2.233-5.568 19.281-7.507 25.453a1.55 1.55 0 002.956.939l8.508-26.09s1.517-1.827 6.386-2.732c3.724-.707 22.272-1.578 30.736-1.948a6.03 6.03 0 016.353 5.473v.12c.267 3.509 6.033 21.652 7.343 25.669a.964.964 0 001.717.245.969.969 0 00.145-.745c-1.034-4.706-5.473-24.996-7.076-35.201 0 0-32.236 1.517-39.537-.311a45.603 45.603 0 01-12.463-5.171s-1.819.008-1.517 3.654z" fill="#263238" stroke="#263238" stroke-linecap="round" stroke-linejoin="round"/><path d="M31.818 174.206s-10.955 34.356-9.136 40.441c1.819 6.085 10.645 14.593 13.989 14.593 3.344 0 6.085-33.443 6.085-36.486 0-3.042-5.766-13.963-7.602-18.548-1.836-4.586-3.336 0-3.336 0z" fill="#FF8562" stroke="#263238" stroke-linecap="round" stroke-linejoin="round"/><path d="M91.67 225.593c-.112 3.448-.646 6.086-2.085 6.086-2.733 0-32.538 3.034-39.528 2.732-6.99-.302-12.162-3.905-12.162-9.076 0-5.172.302-27.978 5.473-31.029 5.172-3.052 32.538-3.345 38.925-3.345 7.86 0 8.197 15.188 8.533 20.333.095 1.483 1.017 8.869.844 14.299z" fill="#FF8562" stroke="#263238" stroke-linecap="round" stroke-linejoin="round"/><path d="M83.81 225.895s19.462.612 20.979-2.431c1.517-3.042 0-9.429-3.948-10.644-3.947-1.216-20.376-.302-20.376-.302l3.345 13.377z" fill="#fff" stroke="#263238" stroke-linecap="round" stroke-linejoin="round"/><path d="M36.671 197.314a40.345 40.345 0 00-1.517 12.506c.302 6.697 2.13 13.386 11.205 18.859 9.076 5.473 38.925-.913 38.925-.913l-2.13-39.839s-19.763-2.43-30.71-.301c-10.946 2.129-15.454 8.473-15.773 9.688z" fill="#263238" stroke="#263238" stroke-linecap="round" stroke-linejoin="round"/><path d="M179.207 57.148a24.344 24.344 0 00-5.051 7.981c-1.629 4.568-7.007 18.256-6.843 20.859.164 2.603 2.439 5.87 4.723 4.076 2.284-1.792 7.818-11.403 8.145-11.894.328-.491.655-7.335.655-11.576 0-4.24.285-9.61-1.629-9.446z" fill="#fff" stroke="#263238" stroke-linecap="round" stroke-linejoin="round"/><path d="M184.465 71.784c1.784-.345 42.527 8.619 42.527 13.213 0 4.594-9.196 29.883-9.196 29.883l-39.071-10.343s.784-31.762 5.74-32.753z" fill="#FF8562" stroke="#263238" stroke-linecap="round" stroke-linejoin="round"/><path d="M198.23 51.933s-8.8-.983-14.998 2.12c-6.197 3.103-6.188 8.31-5.861 13.36.328 5.05 2.009 32.296 2.5 34.253.491 1.956 11.679 1.439 18.195 2.741 6.516 1.301 11.084-4.077 12.067-6.197.983-2.12 12.386-22.816 12.386-27.211 0-4.396-4.723-12.714-11.412-16.627a18.901 18.901 0 00-12.877-2.44z" fill="#fff" stroke="#263238" stroke-linecap="round" stroke-linejoin="round"/><path d="M192.033 68.715l1.793 3.913-7.008 24.444 1.629 4.724 4.732-3.586 2.603-25.09 3.586-3.914-1.793-4.404-5.542 3.913z" fill="#263238" stroke="#263238" stroke-linecap="round" stroke-linejoin="round"/><path d="M192.524 58.613a39.686 39.686 0 00-2.448 5.706 31.762 31.762 0 00-.646 6.516s5.214-2.447 6.68-2.447c1.465 0 4.395 6.688 4.395 6.688s4.405-6.525 5.06-11.205c.655-4.68-4.404-8.145-7.99-8.145a5.765 5.765 0 00-5.051 2.887z" fill="#fff" stroke="#263238" stroke-linecap="round" stroke-linejoin="round"/><path d="M211.098 53.89s1.638-2.448 1.957-.164c.319 2.284-1.629 4.068-2.767 4.723a1.725 1.725 0 01-1.956 0" fill="#fff"/><path d="M211.098 53.89s1.638-2.448 1.957-.164c.319 2.284-1.629 4.068-2.767 4.723a1.725 1.725 0 01-1.956 0" stroke="#263238" stroke-linecap="round" stroke-linejoin="round"/><path d="M194.48 44.434s-1.629-1.301-2.585 1.302c-.957 2.603.655 5.87.655 5.87l1.629-3.448" fill="#fff"/><path d="M194.48 44.434s-1.629-1.301-2.585 1.302c-.957 2.603.655 5.87.655 5.87l1.629-3.448" stroke="#263238" stroke-linecap="round" stroke-linejoin="round"/><path d="M194.48 66.275a1.654 1.654 0 00.276 1.472 1.64 1.64 0 001.353.64c2.121.164 6.517-4.396 6.844-5.378.328-.983-8.473 3.266-8.473 3.266z" fill="#fff" stroke="#263238" stroke-linecap="round" stroke-linejoin="round"/><path d="M202.143 34.496s-5.706 2.586-7.007 6.68c-1.302 4.094-3.448 12.386-3.448 15.515 0 3.129.974 9.481 3.094 10.43 2.121.947 9.128-3.586 11.076-4.888 1.948-1.301 4.241-6.352 6.689-9.291 2.447-2.94 4.395-8.31 3.447-12.705-.948-4.396-8.154-9.654-13.851-5.74z" fill="#fff" stroke="#263238" stroke-linecap="round" stroke-linejoin="round"/><path d="M215.994 40.202c-.983-4.404-8.154-9.619-13.851-5.706 0 0-5.706 2.586-7.007 6.68-.621 1.94-1.423 4.827-2.095 7.663 1.112-1.724 2.956-4.698 3.068-5.378.164-.983.164-1.147 1.302-1.147 1.138 0 3.258 3.258 6.197 3.913 2.939.655 6.844.164 6.844 1.793 0 1.63-2.284 4.24-.819 5.05 1.146.639.121 2.837.224 3.793a34.447 34.447 0 012.715-3.956c2.439-2.93 4.396-8.309 3.422-12.705z" fill="#263238" stroke="#263238" stroke-linecap="round" stroke-linejoin="round"/><path d="M194.644 50.304s5.706 2.767 8.473 3.75c2.767.982 5.542 2.111 4.56 3.904-.983 1.793-4.232 2.586-6.189 1.793-1.956-.793-1.465-4.887-2.586-5.05-1.12-.165-1.948 1.956-4.068 1.956-2.12 0-4.404-3.258-4.077-5.542.328-2.285 3.887-.81 3.887-.81z" fill="#fff" stroke="#263238" stroke-linecap="round" stroke-linejoin="round"/><path d="M208.168 56.328l3.749-3.749m-20.203-2.439l1.948-4.404" stroke="#263238" stroke-linecap="round" stroke-linejoin="round"/><path d="M237.223 84.703s-10.808 9.62-13.61 12.403c-2.801 2.784-2.93 8.137-.267 9.335 2.664 1.198 11.076-3.732 12.403-4.801 1.328-1.069 4.939-16.273 1.474-16.937z" fill="#263238" stroke="#263238" stroke-linecap="round" stroke-linejoin="round"/><path d="M264.244 108.751s14.524 14.515 11.619 19.161c-2.904 4.645-30.779 19.169-30.779 19.169l-5.232-22.652 24.392-15.678z" fill="#FF8562" stroke="#263238" stroke-linecap="round" stroke-linejoin="round"/><path d="M245.618 83.773s-6.128-.535-8.395.93c-2.266 1.466-3.87 15.075-4.309 23.212-.44 8.137-1.466 14.653-.931 16.265.534 1.611 14.403 19.074 16.376 21.479 1.974 2.404 18.144-22.143 20.411-27.082 2.267-4.939.801-9.481-2.138-16.264-2.939-6.784-9.197-13.076-12.929-16.54a8.62 8.62 0 00-8.085-2z" fill="#263238" stroke="#263238" stroke-linecap="round" stroke-linejoin="round"/><path d="M245.489 99.908l-.095.517c-.172.957-.543 3.146-.862 5.62-.405 3.336-.267 7.757.802 7.757s15.066-10.136 15.334-19.333c.267-9.197-14.11 1.578-15.179 5.439z" fill="#fff" stroke="#263238" stroke-linecap="round" stroke-linejoin="round"/><path d="M244.826 81.773s-1.336 4.93-1.336 5.732c.1.946.279 1.883.534 2.8 0 0-2.267 3.604-2 4 .317.391.672.75 1.06 1.069 0 0-.258 5.068.802 6.137s5.473.396 5.473.396-2.137 2.672.268 2.802c2.404.129 8.8-5.172 10.67-8.266 1.87-3.095 1.724-8.671 0-11.472-1.724-2.802-12.006-6.672-15.471-3.198z" fill="#fff" stroke="#263238" stroke-linecap="round" stroke-linejoin="round"/><path d="M256.427 72.163s-10.274 1.336-12.136 5.335c-1.862 4 2.396 8.938 5.465 9.61a19.96 19.96 0 005.068.526s-3.198 2.801-1.198 3.448c1.999.646 2.93.267 2.93.93 0 .664-1.999 2.802-.267 2.94 1.732.138 2.267-2.94 3.336-2.267 1.068.672-.397 3.327.138 3.448.534.12 5.602-5.172 7.757-10.809 2.155-5.637-.802-9.067-2.931-10.929s-5.628-2.896-8.162-2.232z" fill="#263238" stroke="#263238" stroke-linecap="round" stroke-linejoin="round"/><path d="M256.427 95.504s1.87-4.31 3.068-3.328c1.199.983.802 4-.534 5.069-1.336 1.068-3.87-.138-3.87-.138" fill="#fff"/><path d="M256.427 95.504s1.87-4.31 3.068-3.328c1.199.983.802 4-.534 5.069-1.336 1.068-3.87-.138-3.87-.138" stroke="#263238" stroke-linecap="round" stroke-linejoin="round"/><path d="M244.558 107.243l4.267-2.129-.664 6.395" fill="#fff"/><path d="M244.558 107.243l4.267-2.129-.664 6.395" stroke="#263238" stroke-linecap="round" stroke-linejoin="round"/><path d="M278.501 220.525s-7.671 15.101-7.37 17.842c.25 2.232 5.568 19.281 7.516 25.453a1.55 1.55 0 01-.281 1.437 1.561 1.561 0 01-1.348.571 1.552 1.552 0 01-1.336-1.069l-8.498-26.09s-1.526-1.828-6.387-2.733c-3.732-.706-22.272-1.577-30.745-1.948a6.036 6.036 0 00-6.344 5.474.602.602 0 000 .12c-.275 3.508-6.033 21.652-7.352 25.668a.96.96 0 01-1.077.655.964.964 0 01-.785-1.155c1.035-4.706 5.474-24.995 7.085-35.2 0 0 32.228 1.516 39.528-.311 7.301-1.827 15.886-12.368 15.886-12.368s1.81 0 1.508 3.654z" fill="#263238" stroke="#263238" stroke-linecap="round" stroke-linejoin="round"/><path d="M283.646 170.456s8.396 35.072 6.129 41.002c-2.267 5.93-11.679 13.79-15.015 13.532-3.336-.259-3.62-33.805-3.396-36.839.224-3.034 6.792-13.523 8.947-17.979 2.155-4.457 3.335.284 3.335.284z" fill="#FF8562" stroke="#263238" stroke-linecap="round" stroke-linejoin="round"/><path d="M217.994 225.593c.103 3.448.646 6.086 2.077 6.086 2.741 0 32.538 3.034 39.537 2.732 6.998-.302 12.135-3.905 12.135-9.076 0-5.172-.31-28.021-5.481-31.029-5.172-3.008-32.538-3.345-38.925-3.345-7.861 0-8.205 15.188-8.533 20.333-.095 1.483-1.008 8.869-.81 14.299z" fill="#FF8562" stroke="#263238" stroke-linecap="round" stroke-linejoin="round"/><path d="M269.571 197.305s-2.517 6.146-2.517 11.024c0 4.879-2.361 14.48-7.24 17.308-4.878 2.827-10.343 4.413-18.419 3.309-8.076-1.103-25.651-3.939-25.651-3.939s18.101-12.929 22.66-19.358c4.56-6.43 6.137-11.8 9.757-15.42 3.62-3.62 21.091-7.24 21.41 7.076z" fill="#263238" stroke="#263238" stroke-linecap="round" stroke-linejoin="round"/><path d="M161.271 246.176c53.434 0 96.75-33.476 96.75-74.772 0-41.295-43.316-74.772-96.75-74.772S64.52 130.11 64.52 171.404c0 41.296 43.317 74.772 96.751 74.772z" fill="#263238" stroke="#263238" stroke-linecap="round" stroke-linejoin="round"/><path d="M161.271 243.935c53.434 0 96.75-33.476 96.75-74.772 0-41.295-43.316-74.771-96.75-74.771S64.52 127.868 64.52 169.163c0 41.296 43.317 74.772 96.751 74.772z" fill="#FF8562" stroke="#263238" stroke-linecap="round" stroke-linejoin="round"/><path d="M209.211 123.249l12.273 13.471-21.746 15.601-12.532-15.204 22.005-13.868zm-66.386 1.163l-20.082 10.326 17.79 21.798 20.651-13.765-18.359-18.359zm30.452 21.833l-20.074 10.325 17.782 21.799 20.651-13.765-18.359-18.359z" fill="#fff" stroke="#263238" stroke-linecap="round" stroke-linejoin="round"/><path d="M171.036 147.831l-21.625 6.464 13.48 24.694 22.824-9.748-14.679-21.41zm-25.806-35.667s3.905-1.456 3.905-.482 0 1.948-1.724 2.439c-1.724.491-7.559-.733-6.094-1.465a8.743 8.743 0 013.913-.492z" fill="#fff" stroke="#263238" stroke-linecap="round" stroke-linejoin="round"/><path d="M123.63 70.275s-5.059 1.784-7.593 4.921c-2.534 3.138-3.724 11.317-4.31 14.895-.586 3.577-3.275 17.135-1.784 18.772 1.491 1.638 17.428 7.154 20.557 8.051 3.129.896 6.895 2.232 8.947 2.085a9.759 9.759 0 004.171-1.637s3.577 1.637 4.465 1.637c.888 0 2.086-1.637 1.043-3.284-1.043-1.646-3.947-4.033-5.585-4.033s-7.671.905-7.671.905-10.283-5.215-13.265-7.301a37.946 37.946 0 01-5.215-4.465l6.111-19.074" fill="#263238"/><path d="M123.63 70.275s-5.059 1.784-7.593 4.921c-2.534 3.138-3.724 11.317-4.31 14.895-.586 3.577-3.275 17.135-1.784 18.772 1.491 1.638 17.428 7.154 20.557 8.051 3.129.896 6.895 2.232 8.947 2.085a9.759 9.759 0 004.171-1.637s3.577 1.637 4.465 1.637c.888 0 2.086-1.637 1.043-3.284-1.043-1.646-3.947-4.033-5.585-4.033s-7.671.905-7.671.905-10.283-5.215-13.265-7.301a37.946 37.946 0 01-5.215-4.465l6.111-19.074" stroke="#263238" stroke-linecap="round" stroke-linejoin="round"/><path d="M143.524 111.682c-1.638 0-7.671.905-7.671.905s-1.138-.569-2.759-1.414a7.379 7.379 0 00-2.758 3.5 8.794 8.794 0 00-.319 2.103l.466.138c3.129.862 6.895 2.232 8.947 2.085a9.764 9.764 0 004.171-1.637s3.577 1.637 4.465 1.637c.888 0 2.086-1.637 1.043-3.283-1.043-1.647-3.948-4.034-5.585-4.034zM75.285 85.04c-.457.137-3.921 3.921-4.223 8.3-.302 4.378 3.017 11.61 3.62 12.817.603 1.206-.147 3.318 1.362 3.318 1.508 0 6.188-6.938 6.188-6.938s5.275.301 5.879-1.052c.603-1.353-4.224-8.904-5.275-12.067-1.052-3.163-4.982-5.128-7.55-4.379z" fill="#fff" stroke="#263238" stroke-linecap="round" stroke-linejoin="round"/><path d="M74.984 82.782a30.384 30.384 0 01-.604 6.18c-.603 2.111-.75 3.171 1.509 6.49a81.369 81.369 0 007.395 8.447s.302-3.448.457-5.43c.155-1.983 3.163-3.172 3.766-4.077.604-.905-3.318-1.509-4.826-4.224-1.509-2.715-1.509-7.386-3.62-7.843-2.112-.457-3.284-1.655-4.077.457z" fill="#fff" stroke="#263238" stroke-linecap="round" stroke-linejoin="round"/><path d="M95.204 73.576s4.224-1.206 3.448-5.43c-.776-4.223-8.447-7.386-16.739-6.637-8.291.75-12.066 6.189-12.825 11.62-.758 5.43 4.973 10.704 5.577 11.61.603.904-.147 1.81 1.663 2.413a6.966 6.966 0 003.767 0 4.042 4.042 0 004.077 1.663c2.585-.603 1.81-5.732 2.87-6.335 1.06-.603 1.81-2.586 4.973-4.379 3.163-1.792 3.19-4.525 3.19-4.525z" fill="#263238" stroke="#263238" stroke-linecap="round" stroke-linejoin="round"/><path d="M82.379 86.1s.302-2.414-2.715-2.715c-3.017-.302-2.258 2.585-1.655 3.921.603 1.336 2.706 2.414 2.706 2.414s.759 3.447 1.82 3.766c1.06.32 7.386 3.017 8.618 2.586 1.233-.43 2.414-6.033 2.414-6.033s2.111-1.06 2.111-2.112-.94-4.094-.94-4.81c0-.715 1.664-2.87 1.966-4.525.302-1.655-1.508-4.982-1.508-4.982s-.759 2.715-3.172 2.715a18.676 18.676 0 01-4.827-.75s1.207 3.164.302 4.526c-.905 1.362-2.414 1.051-2.715 1.654-.302.604-.147 3.319-.302 3.922-.155.604-1.198 2.68-2.103.423z" fill="#fff" stroke="#263238" stroke-linecap="round" stroke-linejoin="round"/><path d="M97.014 102.537s.75 6.033 2.258 8.446c1.509 2.414 7.844 11.766 7.844 11.766s-.448 3.172 0 4.077a41.6 41.6 0 012.267 5.878c0 .603 1.206 1.06 1.353.155a15.07 15.07 0 00.155-2.112l2.586 3.922s1.362 1.052 1.81.147c.448-.905.155-5.732.457-7.689.301-1.956-1.207-4.68-2.414-5.887-1.206-1.206-2.715-3.318-3.172-3.766-.456-.448-2.413-7.542-3.318-12.369-.905-4.827-3.318-7.843-5.128-8.145" fill="#fff"/><path d="M97.014 102.537s.75 6.033 2.258 8.446c1.509 2.414 7.844 11.766 7.844 11.766s-.448 3.172 0 4.077a41.6 41.6 0 012.267 5.878c0 .603 1.206 1.06 1.353.155a15.07 15.07 0 00.155-2.112l2.586 3.922s1.362 1.052 1.81.147c.448-.905.155-5.732.457-7.689.301-1.956-1.207-4.68-2.414-5.887-1.206-1.206-2.715-3.318-3.172-3.766-.456-.448-2.413-7.542-3.318-12.369-.905-4.827-3.318-7.843-5.128-8.145" stroke="#263238" stroke-linecap="round" stroke-linejoin="round"/><path d="M115.261 134.833c.457-.862.155-5.732.457-7.688.302-1.957-1.207-4.681-2.414-5.887a36.006 36.006 0 01-2.456-2.905 9.854 9.854 0 00-4.715 2.965l.983 1.448s-.448 3.172 0 4.077a41.6 41.6 0 012.267 5.878c0 .604 1.206 1.06 1.353.155.101-.699.153-1.405.155-2.111l2.586 3.921s1.336 1.009 1.784.147z" fill="#fff" stroke="#263238" stroke-linecap="round" stroke-linejoin="round"/><path d="M60.805 96.503a11.12 11.12 0 00-3.922 6.189c-1.051 4.223 2.414 21.418 3.319 26.392.905 4.973 5.43 21.548 6.791 22.625 1.362 1.078 17.196-.905 22.928-1.956 5.731-1.052 18.1-5.431 20.686-6.189 2.586-.759 3.922-4.672 4.671-5.43.75-.759 2.414-3.319 1.509-4.224-.905-.905-3.448 0-4.525 0-1.078 0-3.017-.146-5.129-.146a4.804 4.804 0 00-4.525 3.62 8.92 8.92 0 01-1.508 3.163s-15.515 2.112-18.85 2.112a52.962 52.962 0 01-6.49-.448s-1.81-10.412-3.173-16.894c-1.361-6.482-2.585-11.464-3.62-13.127" fill="#fff"/><path d="M60.805 96.503a11.12 11.12 0 00-3.922 6.189c-1.051 4.223 2.414 21.418 3.319 26.392.905 4.973 5.43 21.548 6.791 22.625 1.362 1.078 17.196-.905 22.928-1.956 5.731-1.052 18.1-5.431 20.686-6.189 2.586-.759 3.922-4.672 4.671-5.43.75-.759 2.414-3.319 1.509-4.224-.905-.905-3.448 0-4.525 0-1.078 0-3.017-.146-5.129-.146a4.804 4.804 0 00-4.525 3.62 8.92 8.92 0 01-1.508 3.163s-15.515 2.112-18.85 2.112a52.962 52.962 0 01-6.49-.448s-1.81-10.412-3.173-16.894c-1.361-6.482-2.585-11.464-3.62-13.127" stroke="#263238" stroke-linecap="round" stroke-linejoin="round"/><path d="M112.244 133.911c-1.051 0-3.016-.147-5.128-.147a4.8 4.8 0 00-4.525 3.62 8.922 8.922 0 01-1.509 3.163l-1.094.147c.435.901.704 1.873.793 2.87a16.007 16.007 0 01-.198 3.258c4.464-1.413 8.619-2.853 10.006-3.258 2.586-.75 3.922-4.671 4.672-5.43.75-.758 2.413-3.318 1.508-4.223-.905-.905-3.464 0-4.525 0zm-10.205 28.426s3.888.319 5.172.319c1.284 0 10.205-.966 8.912-2.422-1.293-1.457-11.032-2.759-11.032-2.759l-3.052 4.862z" fill="#fff" stroke="#263238" stroke-linecap="round" stroke-linejoin="round"/><path d="M121.467 153.588l-28.331 13.119 11.007 22.341 27.848-14.084-10.524-21.376z" fill="#fff" stroke="#263238" stroke-linecap="round" stroke-linejoin="round"/><path d="M102.496 161.035s3.396 0 4.206.492c.81.491 4.206 3.559 4.698 2.749.491-.81-1.457-2.749-2.267-3.56-.81-.81-1.621-1.456-1.621-1.456" fill="#fff"/><path d="M102.496 161.035s3.396 0 4.206.492c.81.491 4.206 3.559 4.698 2.749.491-.81-1.457-2.749-2.267-3.56-.81-.81-1.621-1.456-1.621-1.456" stroke="#263238" stroke-linecap="round" stroke-linejoin="round"/><path d="M75.906 149.874l29.176 7.602-4.568 6.688-30.71-3.646s-7.284-10.032 6.102-10.644z" fill="#fff" stroke="#263238" stroke-linecap="round" stroke-linejoin="round"/><path d="M55.254 151.149s-7.11 6.034-9.481 13.36c-2.37 7.326-3.879 21.979-3.879 21.979s-7.541 10.774-7.541 11.851c0 1.078 6.248 0 6.248 0l-6.033 10.344s0 8.619 4.74 13.144a20.227 20.227 0 0016.593 5.387c5.171-.862 14.652-12.498 15.73-13.144 1.077-.647-2.586-10.559-3.448-14.222-.862-3.663.862-6.249 1.94-6.896 1.077-.646 7.326-4.525 8.619-7.326 1.292-2.801 1.077-7.542.646-11.205-.43-3.663-5.818-16.376-10.559-20.255-4.74-3.879-9.05-6.465-13.575-3.017z" fill="#fff" stroke="#263238" stroke-linecap="round" stroke-linejoin="round"/><path d="M59.564 150.072s-3.233 4.74-3.233 8.188c0 3.448 2.802 9.05 4.957 11.636a44.326 44.326 0 004.094 4.31l4.74-1.078.216 3.663s1.077-1.939 4.094-.646c3.017 1.293 4.956.431 4.956-.216a26.528 26.528 0 000-12.713c-1.724-7.542-3.663-8.835-6.464-11.636-2.802-2.801-9.266-3.879-13.36-1.508z" fill="#fff" stroke="#263238" stroke-linecap="round" stroke-linejoin="round"/><path d="M61.718 151.149s-2.37 4.094-1.077 7.327c1.293 3.232 5.387 7.11 8.62 9.912 3.232 2.801 7.326 5.818 7.326 5.818a18.572 18.572 0 00-1.509-14.438c-4.094-7.757-11.42-10.127-13.36-8.619z" fill="#fff" stroke="#263238" stroke-linecap="round" stroke-linejoin="round"/><path d="M80.465 131.54a32.225 32.225 0 011.509 4.31v1.508s3.016 1.724 2.586 2.37c-.431.647-2.155 3.448-2.155 3.448.236 2.37.163 4.76-.216 7.111-.646 2.801.216 4.094-2.154 4.094H74s-.646 9.05-2.155 9.05c-1.508 0-8.404-3.232-9.696-4.956-1.293-1.724-1.724-3.448-1.293-4.74a101.528 101.528 0 003.447-10.559c.862-3.879 7.327-6.895 8.835-7.542 1.508-.646 7.326-4.094 7.326-4.094z" fill="#fff" stroke="#263238" stroke-linecap="round" stroke-linejoin="round"/><path d="M56.547 146.839s-5.172-.862-7.757-.431c-2.586.431-5.818 4.094-5.818 7.757 0 3.664 2.8 5.818 7.326 6.249 4.525.431 7.542-3.447 7.542-5.602a25.09 25.09 0 00-1.293-7.973z" fill="#263238" stroke="#263238" stroke-linecap="round" stroke-linejoin="round"/><path d="M69.691 145.762s8.188-8.835 10.774-14.222c2.586-5.387 1.724-10.989-2.37-10.989s-8.62-1.293-16.377 1.508-10.989 11.852-10.558 16.592c.43 4.741 7.542 14.437 11.205 15.084 3.663.646 3.663-5.818 3.663-5.818l3.663-2.155z" fill="#263238" stroke="#263238" stroke-linecap="round" stroke-linejoin="round"/><path d="M70.769 147.271s-1.94-4.31-4.31-3.017c-2.37 1.293-.215 6.033 1.293 7.111 1.508 1.077 3.879-.647 3.879-.647" fill="#fff"/><path d="M70.769 147.271s-1.94-4.31-4.31-3.017c-2.37 1.293-.215 6.033 1.293 7.111 1.508 1.077 3.879-.647 3.879-.647m10.343-13.36s-.862 2.802-1.94 3.233" stroke="#263238" stroke-linecap="round" stroke-linejoin="round"/><path d="M98.497 176.378s-1.655-1.104-1.87.327c-.216 1.431 1.43 2.974 1.43 2.974s-2.094-2.31-2.206-.991c-.112 1.318 1.215 2.758 1.215 2.758s-1.655-.776-1.655-.112c0 .663 2.319 2.973 2.422 4.068.104 1.095 2.207-2.31 2.646-4.947a4.198 4.198 0 00-1.982-4.077z" fill="#fff" stroke="#263238" stroke-linecap="round" stroke-linejoin="round"/><path d="M95.334 192.737a35.52 35.52 0 001.077-5.818c0-1.724 1.94-4.741 2.801-6.465.862-1.723-2.801-4.74-1.077-5.602 1.724-.862 3.016.862 4.525 2.801 1.508 1.94 1.939 6.034.646 8.835a28.93 28.93 0 01-4.74 7.111 9.575 9.575 0 01-2.155 1.724l-1.078-2.586z" fill="#fff" stroke="#263238" stroke-linecap="round" stroke-linejoin="round"/><path d="M96.963 188.6v-5.456c0-2.733 1.534-6.766 1.534-6.766a1.534 1.534 0 011.681 1.939 19.052 19.052 0 00.319 5.301" fill="#fff"/><path d="M96.963 188.6v-5.456c0-2.733 1.534-6.766 1.534-6.766a1.534 1.534 0 011.681 1.939 19.052 19.052 0 00.319 5.301" stroke="#263238" stroke-linecap="round" stroke-linejoin="round"/><path d="M49.22 185.41s-3.016 4.31-1.508 9.05c1.509 4.741 23.057 33.4 26.074 33.4 3.016 0 24.78-28.228 26.073-29.952 1.293-1.724-4.31-6.033-4.31-6.033l-21.763 19.824s-5.818-23.272-8.189-27.582c-2.37-4.309-7.972-4.74-7.972-4.74" fill="#fff"/><path d="M49.22 185.41s-3.016 4.31-1.508 9.05c1.509 4.741 23.057 33.4 26.074 33.4 3.016 0 24.78-28.228 26.073-29.952 1.293-1.724-4.31-6.033-4.31-6.033l-21.763 19.824s-5.818-23.272-8.189-27.582c-2.37-4.309-7.972-4.74-7.972-4.74" stroke="#263238" stroke-linecap="round" stroke-linejoin="round"/><path d="M153.436 94.116s2.973-3.276 6.102-3.879c3.129-.603 4.767 1.491 3.879 5.215-.888 3.723-3.724 4.62-5.37 4.473-1.646-.147-4.309-.862-5.059-2.827a2.625 2.625 0 01.448-2.982z" fill="#263238" stroke="#263238" stroke-linecap="round" stroke-linejoin="round"/><path d="M155.22 93.22s-6.404.862-7.895 1.94c-1.491 1.077-4.922 6.851-4.922 7.593 0 .741 2.086 1.491 3.129 1.491 1.043 0 3.732-3.577 3.732-3.577l-1.345 3.732s1.345-.155 1.492-.75c.146-.595 2.232-4.62 2.232-4.62s3.879.155 4.921-1.638c1.043-1.792 1.785-2.982-1.344-4.171z" fill="#fff" stroke="#263238" stroke-linecap="round" stroke-linejoin="round"/><path d="M168.08 83.385s-1.793 6.033-1.793 9.774c0 3.74 2.577 15.816 2.577 15.816a11.728 11.728 0 01-2.586 5.542c-2.12 2.285-1.465 5.379-.491 6.353.974.974 2.939 2.775 3.586 1.629.646-1.147.163-3.258.819-4.068.655-.811 3.094-2.121 3.447-4.569.354-2.447-.164-9.938-.164-14.014 0-4.077 2.121-10.102-.163-14.334" fill="#fff"/><path d="M168.08 83.385s-1.793 6.033-1.793 9.774c0 3.74 2.577 15.816 2.577 15.816a11.728 11.728 0 01-2.586 5.542c-2.12 2.285-1.465 5.379-.491 6.353.974.974 2.939 2.775 3.586 1.629.646-1.147.163-3.258.819-4.068.655-.811 3.094-2.121 3.447-4.569.354-2.447-.164-9.938-.164-14.014 0-4.077 2.121-10.102-.163-14.334" stroke="#263238" stroke-linecap="round" stroke-linejoin="round"/><path d="M173.648 107.044c-2.646-.525-4.103.371-4.879 1.336.078.371.13.586.13.586a11.736 11.736 0 01-2.586 5.543c-2.121 2.284-1.465 5.378-.491 6.352.973.974 2.939 2.775 3.585 1.629.647-1.146.164-3.258.819-4.068.655-.81 3.094-2.121 3.448-4.568a56.885 56.885 0 00-.026-6.81z" fill="#fff" stroke="#263238" stroke-linecap="round" stroke-linejoin="round"/><path d="M178.181 106.846l-15.643 17.764 15.807 11.249 15.153-19.23-15.317-9.783z" fill="#fff" stroke="#263238" stroke-linecap="round" stroke-linejoin="round"/><path d="M171.338 114.147s.164 5.542.164 6.361 1.792 1.793 1.956-.164c.027-1.093.136-2.182.328-3.258.164-.491 1.137-3.586-.164-5.87" fill="#fff"/><path d="M171.338 114.147s.164 5.542.164 6.361 1.792 1.793 1.956-.164c.027-1.093.136-2.182.328-3.258.164-.491 1.137-3.586-.164-5.87" stroke="#263238" stroke-linecap="round" stroke-linejoin="round"/><path d="M215.339 71s-4.396 4.886-6.516 9.48-3.75 16.29-3.75 16.29-8.472 13.852-9.619 14.998c-1.146 1.146-.482.974-3.258 2.276-2.775 1.301-6.352 1.956-6.843 2.775-.492.819-2.284 4.723-2.767 5.215-.483.491.646 1.465 1.301.81.655-.655 2.931-3.258 2.931-3.258l-2.767 6.516a.859.859 0 00.307.624.864.864 0 00.667.195 13.527 13.527 0 003.448-1.138s2.775-.655 3.749-1.957c.974-1.301 4.568-8.317 4.568-8.317s9.482-6.034 12.869-10.102a37.315 37.315 0 006.197-10.757c.483-1.629 6.516-19.712 6.353-22.651-.164-2.94-1.63-3.448-1.63-3.448" fill="#fff"/><path d="M215.339 71s-4.396 4.886-6.516 9.48-3.75 16.29-3.75 16.29-8.472 13.852-9.619 14.998c-1.146 1.146-.482.974-3.258 2.276-2.775 1.301-6.352 1.956-6.843 2.775-.492.819-2.284 4.723-2.767 5.215-.483.491.646 1.465 1.301.81.655-.655 2.931-3.258 2.931-3.258l-2.767 6.516a.859.859 0 00.307.624.864.864 0 00.667.195 13.527 13.527 0 003.448-1.138s2.775-.655 3.749-1.957c.974-1.301 4.568-8.317 4.568-8.317s9.482-6.034 12.869-10.102a37.315 37.315 0 006.197-10.757c.483-1.629 6.516-19.712 6.353-22.651-.164-2.94-1.63-3.448-1.63-3.448" stroke="#263238" stroke-linecap="round" stroke-linejoin="round"/><path d="M194.972 112.259c-.535.612-.517.699-2.776 1.724-2.766 1.31-6.352 1.957-6.843 2.776-.492.818-2.284 4.723-2.767 5.214-.483.492.646 1.466 1.301.81.655-.655 2.931-3.258 2.931-3.258l-2.767 6.517a.863.863 0 00.974.818 13.525 13.525 0 003.448-1.137s2.775-.655 3.749-1.957c.974-1.301 4.568-8.317 4.568-8.317s.587-.371 1.535-1a6.711 6.711 0 00-3.353-2.19z" fill="#fff" stroke="#263238" stroke-linecap="round" stroke-linejoin="round"/><path d="M259.625 117.379s-3.603 6.8-4.267 9.481c-.663 2.681-1.724 5.602-1.724 5.602s-6.671-1.068-12.403-1.723c-5.731-.655-13.868-2.138-15.876-2.534-2.009-.397-5.732-1.474-6.534-.802-.801.672-.267.534.673.931a5.077 5.077 0 002.396.138s-1.336.396-2.802.931c-1.465.534-4.137 1.465-4.533 1.999-.397.535.534 2.405 1.999 2.405 1.111-.07 2.225-.07 3.336 0 .802.129 1.198.931 3.87.931s6.396-2.138 6.396-2.138 12.541 5.741 19.608 6.939c7.068 1.198 8.137-.397 11.076-2.672 2.939-2.276 11.464-16.265 10.8-19.066a16.294 16.294 0 00-2.138-4.939" fill="#263238"/><path d="M259.625 117.379s-3.603 6.8-4.267 9.481c-.663 2.681-1.724 5.602-1.724 5.602s-6.671-1.068-12.403-1.723c-5.731-.655-13.868-2.138-15.876-2.534-2.009-.397-5.732-1.474-6.534-.802-.801.672-.267.534.673.931a5.077 5.077 0 002.396.138s-1.336.396-2.802.931c-1.465.534-4.137 1.465-4.533 1.999-.397.535.534 2.405 1.999 2.405 1.111-.07 2.225-.07 3.336 0 .802.129 1.198.931 3.87.931s6.396-2.138 6.396-2.138 12.541 5.741 19.608 6.939c7.068 1.198 8.137-.397 11.076-2.672 2.939-2.276 11.464-16.265 10.8-19.066a16.294 16.294 0 00-2.138-4.939" stroke="#263238" stroke-linecap="round" stroke-linejoin="round"/><path d="M233.026 129.541a273.035 273.035 0 01-7.68-1.354c-2-.405-5.732-1.474-6.533-.801-.802.672-.268.534.672.931a5.077 5.077 0 002.396.138s-1.336.396-2.801.93c-1.466.535-4.138 1.466-4.534 2-.396.534.534 2.405 2 2.405a26.135 26.135 0 013.335 0c.802.129 1.198.931 3.87.931s6.396-2.138 6.396-2.138.982.448 2.542 1.121l.337-4.163z" fill="#fff" stroke="#263238" stroke-linecap="round" stroke-linejoin="round"/><path d="M224.415 96.84s-6.266 3.068-8.671 5.171c-2.405 2.103-8.404 15.601-8.533 16.532-.129.931 4.534 1.474 5.068 1.206.535-.267 10.007-11.205 12.403-13.075a3.445 3.445 0 001.336-4.129" fill="#263238"/><path d="M224.415 96.84s-6.266 3.068-8.671 5.171c-2.405 2.103-8.404 15.601-8.533 16.532-.129.931 4.534 1.474 5.068 1.206.535-.267 10.007-11.205 12.403-13.075a3.445 3.445 0 001.336-4.129" stroke="#263238" stroke-linecap="round" stroke-linejoin="round"/><path d="M209.478 115.784c-1.985.42-3.945.952-5.87 1.595-1.603.672-5.335 5.473-4.404 5.74.931.267 3.448-2.801 3.448-2.801a23.226 23.226 0 00-2.267 3.999c-.267 1.069-.535 3.448.534 3.069 1.069-.38 3.198-3.336 3.198-3.336s2.663-1.603 4.801-1.603c2.137 0 3.603-3.999 3.603-3.999s1.723-1.724 1.068-3.603c-.655-1.879-4.111.939-4.111.939z" fill="#fff" stroke="#263238" stroke-linecap="round" stroke-linejoin="round"/><path d="M213.081 114.716a3.53 3.53 0 01-2.801-1.207c-1.069-1.327-1.724 0-1.724 1.336a1.886 1.886 0 001.327 1.724s-2.267 2.137-.931 2.801c.441.175.92.23 1.389.16.47-.069.912-.261 1.283-.556" fill="#fff"/><path d="M213.081 114.716a3.53 3.53 0 01-2.801-1.207c-1.069-1.327-1.724 0-1.724 1.336a1.886 1.886 0 001.327 1.724s-2.267 2.137-.931 2.801c.441.175.92.23 1.389.16.47-.069.912-.261 1.283-.556" stroke="#263238" stroke-linecap="round" stroke-linejoin="round"/><path d="M259.969 149.485s-6.611-1.258-8.972-1.723c-2.362-.466-10.076 2.68-12.274 3.447-2.198.767 0 1.422 2.362 1.888 2.361.465 7.076-.466 7.076-.466s-5.171 2.198-3.93 2.517c1.241.319 3.775-.319 5.981-.474 2.207-.155 4.405-2.206 4.405-2.206s10.55 5.171 11.808 5.171c1.259 0 3.146-3.775.466-5.352a37.966 37.966 0 00-6.922-2.802z" fill="#fff" stroke="#263238" stroke-linecap="round" stroke-linejoin="round"/><path d="M262.331 155.287a53.76 53.76 0 00-10.86 11.015c-4.568 6.456-5.353 19.514-4.404 23.272.948 3.758 1.568 8.179 6.136 11.205 4.569 3.025 7.87 4.249 15.739 0 7.87-4.249 11.964-18.411 11.205-29.306-.758-10.894-7.395-18.419-10.86-19.358-3.465-.94-6.956 3.172-6.956 3.172z" fill="#fff" stroke="#263238" stroke-linecap="round" stroke-linejoin="round"/><path d="M262.814 157.329s-2.836.319-4.25 2.207c-1.413 1.888-.948 2.517 0 2.991a2.425 2.425 0 011.095 1.724s-3.301 5.352-1.569 6.447c1.733 1.094 9.438-2.517 11.49-5.172 2.051-2.654 1.103-7.085-.155-8.343-1.259-1.259-6.611.146-6.611.146z" fill="#fff" stroke="#263238" stroke-linecap="round" stroke-linejoin="round"/><path d="M260.909 136.876a15.14 15.14 0 01-3.146 2.827c-1.258.629-2.827 1.258-1.569 2.206a19.772 19.772 0 012.043 1.724s-1.577 5.172-.939 8.18a2.699 2.699 0 002.299 2.291c.384.055.776.026 1.148-.085 0 0-.474 7.87-1.103 10.232-.629 2.361 2.362 2.197 4.723.784 2.362-1.414 2.681-7.24 3.62-11.49.94-4.249 6.611-9.282 2.681-14.006-3.93-4.723-9.757-2.663-9.757-2.663z" fill="#fff" stroke="#263238" stroke-linecap="round" stroke-linejoin="round"/><path d="M286.568 131.523c-5.826-5.982-14.652-4.568-15.893-4.249 0 0-4.913-1.198-7.758-.724-2.844.474-3.904 8.619-2.172 13.153a7.46 7.46 0 003.301 3.844c-.284-.25-1.965-1.836-.344-3.094a7.528 7.528 0 013.327-1.569s-1.371 4.499-.785 5.292c2.396 3.189-8.378 18.23-8.8 17.989 0 0 3.146 1.775 7.085 3.663 8.697 4.18 18.962-4.741 22.186-12.274 2.569-5.947 5.042-16.704-.147-22.031z" fill="#263238" stroke="#263238" stroke-linecap="round" stroke-linejoin="round"/><path d="M201.824 153.951l-7.947 33.244 16.256 7.404 6.146-31.253-14.455-9.395z" fill="#fff" stroke="#263238" stroke-linecap="round" stroke-linejoin="round"/><path d="M202.376 157.39l-6.603 27.624 13.507 6.154 5.111-25.978-12.015-7.8z" fill="#263238" stroke="#263238" stroke-linecap="round" stroke-linejoin="round"/><path d="M216.279 163.345l22.22 1.086-4.336 31.978-24.03-1.81 6.146-31.254z" fill="#fff" stroke="#263238" stroke-linecap="round" stroke-linejoin="round"/><path d="M222.821 177.55l1.611.069.164-1.035-1.586-.112-.189 1.078zm3.74 7.257l.259-1.577-2.241-.104-.242 1.526 2.224.155zm-3.964-11.782l.198-1.112-2.017-.138-.207 1.164 2.026.086zm.999.052l1.534.069.164-1.052-1.508-.103-.19 1.086zm-1.189 6.895l1.637.121.233-1.491-1.629-.069-.241 1.439zm5.628-4.146l.259-1.543-2.319-.112-.233 1.5 2.293.155zm-6.671-7.361l2.008.095.293-1.724-1.991-.104-.31 1.733zm4.465.207l.267-1.707-1.431-.077-.293 1.715 1.457.069zm-4.637.776l-.242 1.353 2.008.138.242-1.405-2.008-.086zm3.792 4.68l-1.56-.069-.25 1.431 1.577.112.233-1.474zm.698-4.474l-1.482-.069-.25 1.423 1.499.103.233-1.457zm1.621 10.663l.258-1.56-2.284-.104-.233 1.509 2.259.155zm-9.111.353l-1.646-.112-.216 1.198 1.655.078.207-1.164zm-.379 2.146l-1.655-.077-.224 1.319 1.638.12.241-1.362zm-.414 2.336l-1.637-.112-.207 1.189 1.637.078.207-1.155zm-.379 2.137l-1.646-.077-.233 1.327 1.629.121.25-1.371zm1.586-8.946l-1.664-.077-.224 1.31 1.647.12.241-1.353zm.793-4.474l-1.672-.077-.225 1.301 1.664.112.233-1.336zm.801-4.473l-1.689-.078-.224 1.293 1.672.112.241-1.327zm-1.215 6.792l-1.655-.112-.215 1.207 1.663.077.207-1.172zm.802-4.482l-1.673-.12-.215 1.223 1.672.078.216-1.181zm9.239-1.896l-2.353-.112-.232 1.482 2.336.164.249-1.534zm-12.429 19.824l-1.62-.113-.328 1.828 1.621.164.327-1.879zm8.835-11.964l2.284.104.164-.966-2.293-.155-.155 1.017zm-1.405 8.947l2.224.104.155-.94-2.224-.155-.155.991zm.698-4.474l2.259.104.155-.948-2.25-.155-.164.999zm-.827-1.076l-1.663-.112-.19 1.068 1.689.078.164-1.034zm2.189 6.636l-2.206-.103-.242 1.534 2.19.155.258-1.586zm-2.603 2.414l-.327 2.094 2.155.216.353-2.155-2.181-.155zm-3.327-14.834l2.026.138.25-1.414-2.034-.086-.242 1.362zm.216-6.87l.31-1.732-1.698-.086-.302 1.749 1.69.069zm5.757 4.775l2.328.112.155-.974-2.327-.163-.156 1.025zm.699-4.473l2.361.112.276-1.689-2.379-.121-.258 1.698zm-3.25 14.368l-1.698-.086-.258 1.457 1.723.12.233-1.491zm-2.698-.129l-2.077-.095-.241 1.388 2.068.138.25-1.431zm.578 2.482l-.181 1.052 1.758.086.164-1.017-1.741-.121zm1.422 2.121l-1.776-.086-.258 1.474 1.801.12.233-1.508zm-5.111 1.172l2.086.146.25-1.448-2.095-.094-.241 1.396zm2.698-3.361l-2.078-.147-.198 1.129 2.086.095.19-1.077zm-1.483-3.492l2.068.095.19-1.086-2.06-.146-.198 1.137zm-1.396 7.827l-.337 1.905 2.095.215.345-1.973-2.103-.147zm4.904.345l-1.81-.13-.345 2.009 1.836.181.319-2.06zm-.474-13.645l-2.034-.146-.207 1.146 2.051.095.19-1.095zm-.362 2.077l-2.051-.094-.25 1.379 2.051.138.25-1.423z" fill="#263238"/><path d="M263.116 183.773s-2.026.189-5.474 2.991c-3.447 2.801-17.152 26.719-17.152 26.719s-12.438-7.757-15.584-9.912c-3.146-2.155-5.662-6.137-7.395-8.498-1.732-2.362-2.051-2.681-4.413-2.836-2.362-.155-4.085-1.724-4.404-.629-.319 1.094.629 1.577 1.258 1.887.55.212 1.135.32 1.724.319-1.485.224-3-.114-4.249-.948-2.362-1.413-2.991-1.724-2.991-.155s1.724 4.094 2.991 5.663c1.267 1.569 8.498 2.206 8.498 2.206a134.206 134.206 0 008.818 14.653c4.714 6.611 14.79 13.696 17.626 12.748 2.836-.948 17.782-19.669 21.876-24.867 4.094-5.197 9.481-11.334 8.179-14.79" fill="#fff"/><path d="M263.116 183.773s-2.026.189-5.474 2.991c-3.447 2.801-17.152 26.719-17.152 26.719s-12.438-7.757-15.584-9.912c-3.146-2.155-5.662-6.137-7.395-8.498-1.732-2.362-2.051-2.681-4.413-2.836-2.362-.155-4.085-1.724-4.404-.629-.319 1.094.629 1.577 1.258 1.887.55.212 1.135.32 1.724.319-1.485.224-3-.114-4.249-.948-2.362-1.413-2.991-1.724-2.991-.155s1.724 4.094 2.991 5.663c1.267 1.569 8.498 2.206 8.498 2.206a134.206 134.206 0 008.818 14.653c4.714 6.611 14.79 13.696 17.626 12.748 2.836-.948 17.782-19.669 21.876-24.867 4.094-5.197 9.481-11.334 8.179-14.79" stroke="#263238" stroke-linecap="round" stroke-linejoin="round"/><path d="M220.631 199.4c-1.232-1.543-2.292-3.12-3.154-4.31-1.724-2.362-2.052-2.68-4.413-2.836-2.362-.155-4.086-1.723-4.405-.629-.319 1.095.629 1.577 1.259 1.888.55.211 1.134.319 1.724.319a6.038 6.038 0 01-4.25-.948c-2.361-1.414-2.991-1.724-2.991-.156 0 1.569 1.724 4.095 2.991 5.663 1.267 1.569 8.499 2.207 8.499 2.207s.319.62.862 1.629a9.294 9.294 0 013.878-2.827z" fill="#fff" stroke="#263238" stroke-linecap="round" stroke-linejoin="round"/></svg>