<svg width="1920" height="806" fill="none" xmlns="http://www.w3.org/2000/svg"><path opacity=".2" fill-rule="evenodd" clip-rule="evenodd" d="M1923.06 552.37c-91.03 33.262-327.42 83.47-544.75 18.21-67.95-20.402-94.15-49.119-101.11-81.023-3.47-15.93-2.13-32.617 1.15-49.394 2.37-12.113 5.75-24.295 9.09-36.281v-.006c1.28-4.608 2.56-9.186 3.76-13.721 8.69-32.722 13.78-63.132-7.16-86.27-10.47-11.58-27.49-21.374-53.94-28.709-26.45-7.335-62.29-12.203-110.37-13.95-144.817-5.261-244.116 22.868-328.144 46.672-27.569 7.809-53.493 15.153-78.842 20.7-51.306 11.225-100.242 15.079-155.627.483-55.378-14.594-117.175-47.626-194.221-110.122-76.978-62.439-141.336-81.617-198.863-76.769-57.544 4.849-108.311 33.742-158.103 67.577-12.043 8.184-24.03 16.657-36.04 25.148l-.005.003v.001c-37.626 26.598-75.493 53.367-116.082 71.926-53.572 24.496-111.921 34.711-180.803 11.425l.204-.626c68.688 23.221 126.862 13.043 180.318-11.4 40.528-18.532 78.325-45.251 115.94-71.841 12.021-8.498 24.024-16.983 36.092-25.184 49.803-33.843 100.691-62.823 158.415-67.687 57.742-4.866 122.266 14.4 199.339 76.916 77.003 62.461 138.715 95.433 193.97 109.995 55.249 14.56 104.072 10.722 155.317-.491 25.301-5.536 51.196-12.871 78.745-20.675 84.041-23.808 183.474-51.976 328.4-46.711 48.11 1.748 84.01 6.619 110.53 13.974 26.51 7.353 43.67 17.196 54.26 28.905 21.21 23.438 15.99 54.207 7.31 86.887a1109.51 1109.51 0 01-3.77 13.743v.01c-3.33 11.979-6.71 24.124-9.08 36.213-3.27 16.737-4.59 33.323-1.14 49.126 6.88 31.563 32.8 60.155 100.64 80.524 217.15 65.204 453.38 15.035 544.34-18.199l.23.621zm-516.09-21.153c217.34 65.26 453.72 15.052 544.75-18.21l-.23-.621c-90.96 33.234-327.19 83.403-544.34 18.199-67.83-20.369-93.76-48.96-100.64-80.523-3.45-15.804-2.13-32.39 1.15-49.127 2.36-12.088 5.74-24.234 9.07-36.213v-.009l.01-.009c1.28-4.607 2.55-9.189 3.76-13.734 8.68-32.681 13.9-63.45-7.31-86.888-10.59-11.709-27.75-21.551-54.26-28.905-26.52-7.354-62.41-12.226-110.52-13.974-144.93-5.265-244.367 22.903-328.409 46.711-27.548 7.804-53.443 15.14-78.745 20.676-51.245 11.212-100.068 15.05-155.317.49-55.255-14.562-116.966-47.534-193.97-109.994-77.072-62.517-141.596-81.783-199.338-76.917-57.725 4.864-108.612 33.844-158.415 67.687-12.068 8.201-24.071 16.686-36.093 25.184-37.614 26.591-75.411 53.31-115.939 71.841-53.457 24.443-111.63 34.621-180.318 11.401l-.204.625c68.882 23.286 127.231 13.071 180.803-11.425 40.588-18.559 78.455-45.328 116.081-71.926l.005-.004h.001c12.01-8.491 23.997-16.964 36.04-25.148 49.791-33.835 100.559-62.728 158.103-67.577 57.527-4.848 121.885 14.33 198.862 76.769 77.047 62.496 138.843 95.528 194.222 110.123 55.385 14.596 104.321 10.742 155.626-.484 25.35-5.547 51.274-12.89 78.842-20.7 84.029-23.804 183.323-51.933 328.143-46.672 48.08 1.747 83.92 6.615 110.37 13.95 26.45 7.335 43.47 17.13 53.95 28.709 20.93 23.138 15.85 53.548 7.15 86.27-1.2 4.535-2.48 9.114-3.76 13.721v.008c-3.33 11.986-6.72 24.167-9.09 36.279-3.28 16.777-4.62 33.464-1.15 49.394 6.96 31.904 33.16 60.621 101.11 81.023zm573.41-57.578c-91.03 33.262-327.41 83.47-544.75 18.21-67.95-20.402-94.15-49.119-101.11-81.023-3.47-15.929-2.13-32.617 1.15-49.394 2.37-12.113 5.76-24.295 9.09-36.281v-.006c1.28-4.607 2.56-9.186 3.76-13.721 8.7-32.722 13.78-63.132-7.15-86.27-10.48-11.579-27.5-21.374-53.95-28.709-26.45-7.335-62.29-12.203-110.37-13.95-144.82-5.261-244.115 22.868-328.144 46.672-27.568 7.81-53.492 15.153-78.841 20.7-51.306 11.226-100.242 15.08-155.627.484-55.378-14.595-117.175-47.627-194.221-110.122-76.986-62.447-141.298-86.459-198.75-88.842-57.458-2.383-108.102 16.866-157.763 41.04-13.65 6.645-27.225 13.663-40.847 20.705l-.003.001c-85.465 44.18-172.752 89.301-291.547 49.142l.204-.625c118.51 40.063 205.533-4.916 291.003-49.091l.001-.001c13.63-7.045 27.221-14.069 40.893-20.725 49.688-24.188 100.452-43.495 158.078-41.106 57.632 2.39 122.078 26.48 199.143 88.991 77.003 62.46 138.715 95.432 193.97 109.994 55.249 14.56 104.071 10.722 155.316-.49 25.302-5.536 51.197-12.872 78.745-20.676 84.042-23.808 183.47-51.976 328.41-46.711 48.1 1.748 84 6.62 110.52 13.974 26.51 7.354 43.67 17.196 54.26 28.905 21.21 23.438 15.99 54.207 7.31 86.888a1114.34 1114.34 0 01-3.77 13.743v.018c-3.33 11.976-6.71 24.119-9.07 36.204-3.28 16.737-4.6 33.323-1.15 49.127 6.88 31.563 32.8 60.154 100.64 80.523 217.15 65.205 453.38 15.035 544.34-18.199l.23.621zm28.66-39.36c-91.03 33.263-327.41 83.471-544.75 18.211-67.95-20.402-94.15-49.119-101.11-81.023-3.47-15.93-2.13-32.617 1.15-49.395 2.37-12.113 5.76-24.294 9.09-36.28v-.006c1.28-4.608 2.56-9.187 3.76-13.721 8.7-32.722 13.78-63.132-7.15-86.271-10.48-11.579-27.5-21.373-53.95-28.709-26.45-7.334-62.29-12.203-110.37-13.95-147.7-5.365-248.126 26.15-333.309 52.881-25.734 8.076-50.076 15.715-73.911 21.768-51.365 13.047-100.364 18.724-155.798 5.493-55.429-13.228-117.259-45.352-194.307-107.849C371.391 52.975 307.11 23.345 249.709 12.557c-57.4-10.789-107.953-2.743-157.51 10.213-16.448 4.3-32.787 9.142-49.23 14.015-82.63 24.487-167.882 49.751-282.719 10.93l.204-.625c114.622 38.748 199.66 13.551 282.28-10.929h.003c16.454-4.876 32.811-9.723 49.288-14.03 49.598-12.967 100.26-21.038 157.798-10.223 57.538 10.814 121.919 40.507 198.974 103.009 77.002 62.46 138.742 94.521 194.04 107.718 55.292 13.196 104.174 7.541 155.483-5.491 23.792-6.043 48.108-13.674 73.824-21.744 85.195-26.736 185.756-58.295 333.586-52.925 48.1 1.748 84 6.62 110.52 13.974 26.51 7.354 43.67 17.197 54.26 28.906 21.21 23.438 15.99 54.207 7.31 86.887-1.21 4.545-2.48 9.127-3.76 13.733l-.01.011v.015c-3.33 11.977-6.71 24.12-9.07 36.206-3.28 16.738-4.6 33.323-1.15 49.127 6.88 31.563 32.81 60.155 100.64 80.523 217.15 65.205 453.38 15.036 544.34-18.198l.23.62z" fill="url(#paint0_linear_751_1712)"/><path d="M1991.1 48.386c15.08 79.445-3.86-34.256 0 0-29.8-7.985-146.02-53.573-142.17-19.317 3.86 34.256 42.2 126.44 72 134.425 14.83-47.825 74.02-80.851 70.17-115.108zM-31.956 799.153c81.625-23.995-35.964 14.11 0 0 0-37.84-15.64-177.143 20.324-191.253C24.332 593.789 113 595.607 113 633.446 56.928 681.908 4.008 785.042-31.956 799.153z" fill="#F3F5F9"/><defs><linearGradient id="paint0_linear_751_1712" x1="-58.358" y1="149.974" x2="1989.05" y2="149.974" gradientUnits="userSpaceOnUse"><stop offset=".31" stop-color="#252525"/><stop offset=".594" stop-color="#141414" stop-opacity=".9"/><stop offset=".852" stop-opacity=".8"/></linearGradient></defs></svg>