<svg width="532" height="529" fill="none" xmlns="http://www.w3.org/2000/svg"><path d="M114.853 407.984c3.576-1.192 9.918-7.021 9.918-7.033 0-.012-5.102-2.968-5.448-3.111-4.017-1.693-12.779-2.599-15.961 1.109a5.796 5.796 0 001.359 8.463c2.813 2.003 7.033 1.574 10.132.572zm66.051-56.193c.084 0-2.622-5.28-2.837-5.602-2.384-3.576-9.226-9.215-13.923-7.88a5.806 5.806 0 00-3.531 3.12 5.788 5.788 0 00-.045 4.712c1.275 3.195 5.03 5.174 8.177 6.044 3.696 1.025 12.147-.382 12.159-.394z" fill="#9C9C9C"/><path d="M133.556 424.565c3.076-2.014 7.319-8.749 7.653-9.286a101.866 101.866 0 0011.992 6.509c2.384 1.121 4.863 2.181 7.343 3.207a86.019 86.019 0 00-2.384-.584c-4.327-.573-13.017.87-15.103 5.28a5.796 5.796 0 00-.488 2.365 5.794 5.794 0 001.959 4.296 5.79 5.79 0 002.105 1.183c3.242 1.192 7.152-.37 9.929-2.158 2.778-1.788 6.497-7.498 7.463-9.012l2.861 1.193c4.589 1.823 9.166 3.576 13.613 5.531 1.561.667 3.075 1.394 4.601 2.098-1.073-.263-1.967-.477-2.11-.489-4.327-.572-13.005.87-15.103 5.281a5.765 5.765 0 001.472 6.652 5.763 5.763 0 002.104 1.179c3.254 1.192 7.212-.369 9.93-2.157s6.127-6.938 7.295-8.726c1.526.775 3.064 1.55 4.518 2.384.977.584 1.967 1.073 2.92 1.717l2.837 1.823a186.41 186.41 0 015.269 3.72c1.192.858 2.289 1.692 3.409 2.527-1.549-.68-4.613-1.967-4.887-2.039-4.184-1.192-12.993-1.108-15.723 2.933a5.772 5.772 0 002.313 8.284c3.027 1.634 7.152.728 10.144-.631 3.254-1.49 8.344-7.248 8.916-7.975a246.042 246.042 0 015.293 4.089 285.541 285.541 0 0111.92 9.965l2.385-2.169a303.558 303.558 0 00-12.6-10.085 390.737 390.737 0 00-5.961-4.411 63.267 63.267 0 002.909-6.782c3.66.369 10.55-1.526 11.444-1.777a254.918 254.918 0 012.157 6.33 287.791 287.791 0 014.387 14.674l2.67-2.384a310.816 310.816 0 00-4.315-13.243 231.342 231.342 0 00-2.575-6.974c.823-.465 7.45-4.327 9.536-7.236 1.896-2.646 3.577-6.544 2.551-9.846a5.788 5.788 0 00-5.315-4.24 5.775 5.775 0 00-2.373.39c-4.494 1.919-6.282 10.538-5.889 14.877 0 .262.596 3.015.978 4.768-.382-.99-.74-1.943-1.192-2.945-.787-2.002-1.634-3.969-2.528-6.091-.476-1.013-.941-2.026-1.43-3.052-.489-1.025-1.061-2.062-1.597-3.111-1.276-2.384-2.694-4.768-4.184-7.152 1.752-.691 7.915-3.242 10.203-5.579 2.289-2.336 4.53-5.96 4.006-9.334a5.763 5.763 0 00-2.395-4.05 5.774 5.774 0 00-4.615-.92c-4.768 1.192-7.807 9.464-8.07 13.815 0 .263.143 3.41.263 5.138-.906-1.406-1.8-2.813-2.754-4.208-2.766-4.017-5.698-7.998-8.595-11.98-.894-1.192-1.764-2.443-2.634-3.671.62-.239 8.01-3.111 10.573-5.722 2.277-2.384 4.53-5.96 4.018-9.346a5.784 5.784 0 00-7.022-4.971c-4.768 1.193-7.807 9.465-8.07 13.816 0 .334.215 4.852.334 5.96-1.931-2.705-3.826-5.411-5.591-8.153a99.868 99.868 0 01-6.461-11.503c.287-.108 8.011-3.076 10.634-5.758 2.276-2.384 4.529-5.96 4.017-9.334a5.763 5.763 0 00-2.395-4.05 5.759 5.759 0 00-4.615-.92c-4.768 1.192-7.807 9.464-8.07 13.815 0 .286.155 3.731.275 5.365l-.263.071a73.604 73.604 0 01-4.315-12.552c-.608-2.384-1.061-4.661-1.454-6.89 1.49-.405 8.344-2.325 10.943-4.482 2.598-2.158 5.149-5.4 5.018-8.845a5.81 5.81 0 00-1.948-4.287 5.792 5.792 0 00-4.489-1.423c-4.828.679-8.797 8.547-9.536 12.85 0 .227-.191 2.647-.274 4.411-.155-1.013-.346-2.051-.477-3.028-.513-3.66-.763-7.033-.966-10.025a146.934 146.934 0 01-.178-4.697c1.251-1.192 6.282-5.96 7.593-8.976 1.311-3.016 2.086-7.152.381-10.156a5.775 5.775 0 00-3.701-2.917 5.781 5.781 0 00-4.643.807c-3.981 2.837-3.874 11.646-2.551 15.807.119.357 2.539 5.769 2.611 5.709l.071-.071c0 1.383 0 2.873.095 4.506.132 3.004.299 6.401.74 10.084.43 3.969 1.09 7.91 1.978 11.802a74.588 74.588 0 004.077 12.766l.072.144c-.93-1.085-3.636-4.03-3.874-4.232-3.291-2.861-11.337-6.449-15.497-3.922a5.777 5.777 0 00-2.582 3.937 5.753 5.753 0 001.211 4.55c2.074 2.754 6.211 3.672 9.477 3.684 3.671 0 10.919-3.278 11.503-3.576a102.291 102.291 0 006.413 12.051 178.552 178.552 0 004.351 6.711c-.834-.906-1.585-1.716-1.704-1.824-3.29-2.849-11.337-6.448-15.497-3.921a5.765 5.765 0 00-2.462 6.341 5.785 5.785 0 001.091 2.146c2.062 2.766 6.211 3.671 9.477 3.683 3.266.012 9.536-2.67 11.181-3.397.584.846 1.192 1.705 1.753 2.551 2.813 4.041 5.638 8.082 8.344 12.111.942 1.431 1.812 2.861 2.682 4.292-.739-.811-1.371-1.479-1.478-1.574-3.29-2.861-11.336-6.449-15.497-3.922a5.777 5.777 0 00-2.575 3.94 5.77 5.77 0 001.216 4.548c2.063 2.753 6.211 3.671 9.465 3.683 3.254.012 8.94-2.384 10.895-3.266.859 1.49 1.717 2.98 2.468 4.47.501 1.025 1.049 1.979 1.478 3.04.429 1.061.918 2.074 1.359 3.087.799 2.003 1.621 4.053 2.384 6.02.513 1.359.978 2.67 1.442 3.981-.905-1.43-2.765-4.184-2.944-4.398a22.38 22.38 0 00-9.536-6.151 6.52 6.52 0 00-.906-.906 5.782 5.782 0 00-8.535 1.025c-2.694 4.077.572 12.254 3.302 15.663.155.203 2.145 2.182 3.421 3.41l-2.694-1.753c-1.752-1.192-3.576-2.384-5.46-3.683l-2.872-1.764c-.954-.608-2.027-1.133-3.052-1.705a96.622 96.622 0 00-7.403-3.576c1.073-1.538 4.769-7.057 5.424-10.275.656-3.219.501-7.439-1.8-10.002a5.79 5.79 0 00-4.236-2.052 5.779 5.779 0 00-4.358 1.778c-3.279 3.576-1.288 12.195.882 15.973.143.239 2.002 2.766 3.063 4.137-1.526-.668-3.051-1.347-4.613-1.979a444.342 444.342 0 00-13.78-5.257c-1.419-.524-2.825-1.073-4.232-1.609.394-.537 4.971-7.009 5.662-10.609.62-3.195.513-7.439-1.8-10.001a5.78 5.78 0 00-8.594-.275c-3.278 3.576-1.288 12.195.894 15.974.155.286 2.849 3.922 3.576 4.768-3.099-1.192-6.175-2.384-9.167-3.707a99.549 99.549 0 01-11.73-6.032c.179-.25 4.995-6.985 5.698-10.669.608-3.195.501-7.438-1.8-10.001a5.777 5.777 0 00-8.594-.274c-3.278 3.576-1.288 12.194.882 15.973.143.25 2.193 3.028 3.207 4.327l-.191.203a74.297 74.297 0 01-10.514-8.094c-1.824-1.633-3.469-3.29-5.03-4.947 1.025-1.192 5.65-6.521 6.663-9.775 1.013-3.254 1.311-7.343-.691-10.132a5.786 5.786 0 00-6.398-2.323 5.782 5.782 0 00-2.125 1.131c-3.648 3.242-2.611 11.992-.871 15.985.096.215 1.312 2.313 2.218 3.826-.692-.751-1.419-1.513-2.075-2.252a158.777 158.777 0 01-6.329-7.844 175.25 175.25 0 01-2.754-3.803c.417-1.669 1.991-8.404 1.395-11.682-.596-3.278-2.217-7.152-5.293-8.678a5.772 5.772 0 00-8.106 2.837c-1.752 4.554 3.195 11.837 6.58 14.579.298.238 5.305 3.409 5.329 3.326a.973.973 0 000-.108c.775 1.192 1.621 2.385 2.563 3.72 1.764 2.384 3.79 5.173 6.186 7.998 2.552 3.075 5.278 6 8.166 8.762a75.926 75.926 0 0010.43 8.344l.143.083c-1.371-.393-5.257-1.358-5.567-1.394-4.327-.572-13.005.87-15.103 5.281a5.774 5.774 0 00.034 4.721 5.778 5.778 0 003.542 3.122c3.255 1.168 7.212-.346 9.93-2.146zm223.019-302.397c2.551 4.268 11.742 10.526 11.754 10.526.012 0 2.289-7.307 2.384-7.796.977-5.567-.405-16.915-5.96-19.871a7.5 7.5 0 00-6.105-.237 7.504 7.504 0 00-4.254 4.385c-1.729 4.148.012 9.369 2.181 12.993zm90.131 67.398c0 .108 5.96-4.839 6.282-5.197 3.898-4.113 8.999-14.305 5.96-19.895a7.495 7.495 0 00-4.963-3.566 7.51 7.51 0 00-5.968 1.313c-3.684 2.539-5.102 7.855-5.305 12.075-.226 4.959 3.994 15.258 3.994 15.27z" fill="#9C9C9C"/><path d="M340.972 150.622c3.445 3.302 13.196 6.735 13.97 6.997a132.856 132.856 0 00-4.768 17.059c-.727 3.361-1.359 6.782-1.943 10.215v-3.254c-.524-5.626-4.851-16.212-11.038-17.583a7.499 7.499 0 00-8.905 6.736c-.524 4.446 2.551 9.023 5.603 11.92 3.052 2.897 11.348 6.067 13.541 6.854-.214 1.311-.441 2.635-.643 3.946-.99 6.33-1.943 12.647-3.076 18.822-.393 2.17-.87 4.303-1.335 6.437v-2.813c-.524-5.638-4.851-16.212-11.038-17.595a7.51 7.51 0 00-5.952 1.389 7.51 7.51 0 00-2.941 5.358c-.524 4.435 2.539 9.012 5.591 11.921 3.052 2.908 10.55 5.745 13.112 6.699-.536 2.17-1.072 4.339-1.692 6.413-.465 1.407-.799 2.79-1.335 4.184l-1.502 4.113c-1.037 2.575-2.098 5.245-3.183 7.748-.739 1.729-1.478 3.374-2.217 5.031.417-2.158 1.192-6.402 1.192-6.759.334-5.651-2.384-16.76-8.249-19.073a7.507 7.507 0 00-6.099.464 7.495 7.495 0 00-3.724 4.853c-1.192 4.303 1.192 9.297 3.72 12.647 2.837 3.695 11.574 8.416 12.671 9-1.192 2.73-2.456 5.388-3.648 7.868a392.859 392.859 0 01-9.178 17.976l3.445 2.455c2.503-4.768 5.698-11.217 9.131-18.846a343.682 343.682 0 003.862-8.857 79.154 79.154 0 009.417 1.729c.596 4.768 4.971 12.921 5.543 13.97a294.657 294.657 0 01-7.391 4.554 376.591 376.591 0 01-17.296 9.787l3.755 2.682a370.093 370.093 0 0015.496-9.263 324.27 324.27 0 008.094-5.268c.823.906 7.617 8.177 11.921 9.989 3.898 1.633 9.31 2.646 13.184.393a7.496 7.496 0 003.751-4.823 7.492 7.492 0 00-1.093-6.012c-3.719-5.138-15.139-4.912-20.527-3.159-.31.107-3.636 1.609-5.71 2.598 1.132-.763 2.241-1.502 3.397-2.3 2.301-1.574 4.554-3.207 6.974-4.947l3.457-2.682c1.192-.882 2.3-1.943 3.469-2.921a139.88 139.88 0 007.784-7.343c1.382 2.003 6.389 9.072 10.001 11.289 3.612 2.217 8.809 4.029 12.969 2.384a7.49 7.49 0 004.442-4.2 7.51 7.51 0 00-.162-6.111c-2.897-5.639-14.233-7.152-19.812-6.235-.346.06-4.279 1.192-6.425 1.812 1.514-1.537 3.04-3.075 4.518-4.696 4.291-4.649 8.487-9.537 12.683-14.305 1.287-1.478 2.599-2.932 3.886-4.387.489.716 6.246 9.239 10.299 11.73 3.576 2.205 8.81 4.029 12.982 2.384a7.505 7.505 0 005.001-7.275 7.502 7.502 0 00-.734-3.036c-2.896-5.638-14.233-7.152-19.812-6.234-.417.059-6.079 1.669-7.498 2.145 2.861-3.218 5.734-6.401 8.702-9.429 3.98-4.1 8.22-7.939 12.696-11.491.226.334 6.198 9.262 10.347 11.813 3.576 2.205 8.809 4.017 12.981 2.384a7.505 7.505 0 005.001-7.275 7.502 7.502 0 00-.734-3.036c-2.896-5.638-14.233-7.152-19.811-6.222-.37 0-4.673 1.275-6.712 1.895l-.166-.322a96.974 96.974 0 0114.65-9.071c2.813-1.455 5.579-2.682 8.344-3.827.942 1.776 5.34 9.846 8.821 12.552 3.481 2.706 8.344 4.971 12.636 3.803a7.5 7.5 0 005.376-9.775c-2.265-5.96-13.351-8.678-19.001-8.344-.31 0-3.421.536-5.674.93a157.945 157.945 0 013.695-1.478c4.482-1.705 8.678-2.992 12.421-4.101 2.122-.62 4.065-1.192 5.877-1.597 1.836 1.263 9.286 6.258 13.553 7.033 4.268.775 9.668.584 12.958-2.444a7.508 7.508 0 002.62-5.52 7.497 7.497 0 00-2.358-5.638c-4.768-4.207-15.842-1.537-20.718 1.324-.429.25-6.568 4.887-6.472 4.959l.107.071c-1.752.405-3.636.87-5.686 1.407-3.755 1.037-8.011 2.241-12.54 3.85a134.697 134.697 0 00-14.376 5.96 98.701 98.701 0 00-14.984 8.821l-.155.131c1.096-1.49 4.053-5.757 4.243-6.115 2.671-4.994 4.9-16.2.501-20.765a7.52 7.52 0 00-8.74-1.277 7.527 7.527 0 00-2.406 1.992c-2.884 3.421-2.849 8.929-1.919 13.053 1.049 4.649 7.284 12.886 7.784 13.542a132.808 132.808 0 00-13.398 11.586c-2.468 2.384-4.864 4.911-7.248 7.45.918-1.323 1.717-2.515 1.812-2.694 2.67-4.982 4.899-16.199.501-20.753a7.488 7.488 0 00-11.134.715c-2.897 3.409-2.861 8.917-1.931 13.041.93 4.125 6.127 11.325 7.522 13.184l-2.718 2.945c-4.315 4.768-8.595 9.476-12.946 13.994-1.526 1.597-3.099 3.111-4.661 4.637.811-1.192 1.49-2.169 1.574-2.384 2.67-4.983 4.899-16.2.5-20.753a7.502 7.502 0 00-5.729-2.132 7.517 7.517 0 00-5.416 2.835c-2.885 3.421-2.849 8.928-1.919 13.053.929 4.124 5.614 10.621 7.271 12.85-1.645 1.502-3.29 3.016-4.959 4.411-1.192.917-2.205 1.883-3.421 2.753l-3.516 2.599c-2.289 1.585-4.649 3.218-6.926 4.708a422.218 422.218 0 01-4.637 2.98 362.507 362.507 0 004.768-4.994 29.182 29.182 0 005.054-13.804c.337-.441.632-.912.882-1.407a7.503 7.503 0 00.459-6.096 7.51 7.51 0 00-4.226-4.417c-5.96-2.23-15.341 4.255-18.858 8.69-.214.262-2.145 3.349-3.337 5.316.524-1.264 1.049-2.479 1.573-3.791 1.049-2.574 2.027-5.173 3.076-7.974.464-1.371.941-2.754 1.406-4.149.465-1.394.847-2.884 1.288-4.339.941-3.409 1.728-6.89 2.443-10.43 2.253.918 10.323 4.053 14.567 3.91 4.244-.143 9.536-1.502 12.147-5.162a7.502 7.502 0 001.377-5.953 7.493 7.493 0 00-3.511-5.002c-5.519-3.111-15.806 1.884-19.955 5.722-.262.251-2.932 3.338-4.362 5.066.405-2.121.834-4.243 1.192-6.413 1.001-6.258 1.823-12.612 2.682-18.953.25-1.943.536-3.874.81-5.806.799.334 10.311 4.268 15.068 4.101 4.219-.143 9.536-1.502 12.135-5.161a7.5 7.5 0 00-2.122-10.955c-5.531-3.1-15.819 1.883-19.967 5.733-.31.286-4.148 4.769-5.066 5.961.608-4.256 1.192-8.5 2.05-12.66a133.466 133.466 0 014.28-16.605c.369.155 10.275 4.315 15.151 4.148 4.219-.155 9.536-1.502 12.135-5.161a7.52 7.52 0 00.163-8.835 7.516 7.516 0 00-2.285-2.132c-5.531-3.099-15.807 1.883-19.967 5.734-.274.25-3.195 3.647-4.554 5.292l-.31-.178a96.155 96.155 0 017.153-15.64c1.549-2.766 3.171-5.329 4.768-7.784 1.764.965 9.882 5.269 14.304 5.614 4.22.31 9.668-.453 12.636-3.802a7.486 7.486 0 002.022-5.766 7.499 7.499 0 00-2.94-5.356c-5.149-3.695-15.914.131-20.467 3.505-.239.178-2.551 2.312-4.208 3.898.751-1.097 1.514-2.241 2.265-3.278 2.789-3.887 5.59-7.284 8.082-10.276a222.648 222.648 0 014.029-4.565c2.229 0 11.205.095 15.187-1.61 3.981-1.704 8.344-4.851 9.464-9.19a7.485 7.485 0 00-.867-6.06 7.497 7.497 0 00-5.093-3.393c-6.27-.906-14.066 7.462-16.557 12.54-.215.441-2.778 7.701-2.671 7.701h.144c-1.193 1.311-2.563 2.729-3.97 4.315-2.563 2.932-5.448 6.282-8.344 10.12a134.145 134.145 0 00-8.738 12.862 98.052 98.052 0 00-7.617 15.628l-.072.203c.108-1.86.203-7.045.167-7.451-.524-5.638-4.851-16.211-11.038-17.582a7.496 7.496 0 00-8.893 6.735c-.465 4.446 2.599 9.024 5.651 11.944z" fill="#9C9C9C"/><path d="M413.066 360.457v-3.993c0-20.563 26.035-21.457 26.035-36.095 0-6.354-5.174-10.502-12.875-10.502-8.427 0-13.756 4.589-13.756 11.098v1.633c0 1.621-.882 2.384-2.515 2.384l-15.818-.596c-1.478 0-2.516-.739-2.516-1.764v-1.633c0-17.881 14.198-30.171 35.058-30.171 20.408 0 33.568 11.539 33.568 28.836 0 24.556-26.475 24.711-26.475 38.145v2.658a2.269 2.269 0 01-.648 1.868 2.264 2.264 0 01-1.867.647h-15.675a2.26 2.26 0 01-2.406-1.507 2.255 2.255 0 01-.11-1.008zm-1.335 23.841c0-6.508 5.77-11.837 12.719-11.837 6.664 0 12.576 5.329 12.576 11.837 0 6.509-5.96 11.837-12.719 11.837-6.759 0-12.576-5.352-12.576-11.861v.024z" fill="#263238"/><path d="M100.513 191.068v-3.469c0-17.88 22.649-18.631 22.649-31.35 0-5.532-4.494-9.12-11.17-9.12-7.331 0-11.92 3.982-11.92 9.632v1.419c0 1.406-.763 2.05-2.182 2.05l-13.744-.513c-1.287 0-2.181-.643-2.181-1.537v-1.419c0-15.496 12.325-26.225 30.444-26.225 17.726 0 29.17 10.025 29.17 25.033 0 21.326-23.007 21.457-23.007 33.151v2.312a1.964 1.964 0 01-2.181 2.182h-13.697a1.967 1.967 0 01-2.181-2.146zm-1.192 20.682c0-5.65 5.006-10.275 11.038-10.275 5.782 0 10.931 4.625 10.931 10.275s-5.149 10.275-11.05 10.275a10.619 10.619 0 01-10.883-10.275h-.036zM388.224 54.281V52.53c0-9.024 11.42-9.417 11.42-15.842 0-2.79-2.277-4.613-5.65-4.613-3.696 0-6.032 2.014-6.032 4.875v.715c0 .715-.394 1.037-1.109 1.037l-6.937-.262c-.656 0-1.109-.322-1.109-.775v-.715c0-7.855 6.234-13.243 15.389-13.243 8.952 0 14.734 5.066 14.734 12.659 0 10.728-11.623 10.836-11.623 16.689v1.192a.992.992 0 01-.286.818.994.994 0 01-.822.278h-6.878a.977.977 0 01-1.097-1.06zm-.584 10.455a5.562 5.562 0 013.162-5.409 5.563 5.563 0 016.19.958 5.564 5.564 0 01-.665 8.67 5.568 5.568 0 01-3.132.966 5.367 5.367 0 01-5.078-3.143 5.36 5.36 0 01-.477-2.042z" fill="#FF8562"/><path d="M53.463 295.36v-2.205c0-11.372 14.4-11.861 14.4-19.967 0-3.516-2.861-5.805-7.152-5.805-4.661 0-7.606 2.539-7.606 6.139v.894c0 .906-.488 1.311-1.394 1.311l-8.75-.322c-.822 0-1.395-.417-1.395-.989v-.894c0-9.894 7.856-16.689 19.395-16.689 11.288 0 18.56 6.378 18.56 15.95 0 13.577-14.638 13.661-14.638 21.111v1.466a1.253 1.253 0 01-1.395 1.395h-8.654a1.25 1.25 0 01-1.371-1.395v0zm-.74 13.172a7.006 7.006 0 014-6.802 7.005 7.005 0 019.837 4.819 7.008 7.008 0 01-6.875 8.527 6.77 6.77 0 01-6.985-6.544h.024z" stroke="#263238" stroke-miterlimit="10"/><path d="M163.131 89.59v-1.514c0-7.82 9.906-8.166 9.906-13.732 0-2.385-1.967-3.994-4.9-3.994-3.206 0-5.233 1.74-5.233 4.22v.62c0 .62-.334.894-.953.894l-5.961-.227c-.56 0-.953-.274-.953-.667v-.62c0-6.807 5.4-11.48 13.327-11.48s12.647 4.387 12.647 10.967c0 9.346-10.072 9.406-10.072 14.52v1.013a.857.857 0 01-.572.912.856.856 0 01-.382.041h-5.96a.864.864 0 01-.668-.27.856.856 0 01-.226-.683zm-.501 9.06a4.772 4.772 0 012.754-4.588 4.77 4.77 0 016.662 3.294 4.761 4.761 0 01-1.974 4.974 4.765 4.765 0 01-2.674.825 4.65 4.65 0 01-4.804-4.482l.036-.024z" fill="#263238"/><path d="M339.553 416.388v-1.514c0-7.82 9.906-8.153 9.906-13.732 0-2.384-1.967-3.994-4.899-3.994-3.207 0-5.234 1.741-5.234 4.22v.62c0 .62-.333.906-.953.906l-5.96-.226c-.561 0-.954-.286-.954-.68v-.62c0-6.806 5.4-11.479 13.327-11.479s12.779 4.387 12.779 10.979c0 9.333-10.073 9.393-10.073 14.507v1.013a.864.864 0 01-.245.711.87.87 0 01-.709.255h-5.96a.878.878 0 01-.981-.562.88.88 0 01-.044-.404v0zm-.501 9.06a4.773 4.773 0 012.755-4.588 4.764 4.764 0 015.281.86 4.768 4.768 0 01-3.268 8.233 4.647 4.647 0 01-4.756-4.505h-.012z" stroke="#263238" stroke-miterlimit="10"/><path d="M292.884 443.518c-.083-.25-.166-.5-.262-.751-.095-.25-.167-.512-.262-.762-.095-.251-.167-.501-.262-.751-.096-.251-.167-.513-.263-.763-.095-.251-.166-.501-.262-.751-.095-.251-.167-.513-.262-.763l-.262-.751c-.084-.262-.179-.513-.263-.763l-.262-.751c-.083-.262-.179-.513-.262-.763l-.262-.751c-.084-.262-.179-.513-.263-.763l-.25-.799c-.083-.262-.179-.512-.262-.762l-.274-.751a13.936 13.936 0 00-.263-.763c-.095-.251-.166-.501-.262-.751-.095-.251-.167-.513-.262-.763-.095-.251-.167-.501-.262-.751-3.886-11.825-15.902-20.503-29.122-20.503-12.814 0-23.96 7.462-28.609 17.976-.119.238-.226.488-.334.727l-.322.739c-.119.238-.226.477-.333.727-.108.25-.227.489-.334.727l-.322.727c-.119.251-.226.489-.334.739-.107.251-.226.477-.333.727-.108.251-.227.477-.334.728l-.322.727c-.119.238-.227.489-.334.727-.107.238-.226.489-.334.727l-.322.739c-.119.239-.226.477-.333.727-.108.251-.227.489-.334.727l-.322.728c-.119.25-.226.488-.334.739-.107.25-.226.476-.333.727l-.322.727c-.12.238-.227.489-.334.727-.107.238-.227.489-.334.739a32.43 32.43 0 00-3.075 13.923c0 19.192 16.569 34.879 37.06 34.879 20.05 0 37.49-15.687 37.49-34.879a31.503 31.503 0 00-1.895-10.728 6.587 6.587 0 00-.263-.847zm-28.358-264.025c-61.474 0-103.326 36.179-103.326 88.939v4.768a4.573 4.573 0 002.265 3.886c.257.247.536.471.834.667.258.252.542.475.846.668.259.251.542.475.847.667.256.254.54.478.846.668.254.251.534.475.834.668.258.255.542.482.847.679.261.248.544.471.846.668.259.25.543.474.847.667.254.25.534.474.834.668.28.27.588.509.918.715a6.8 6.8 0 00.775.608c.261.247.544.471.846.667.257.248.536.471.834.668.262.248.545.471.847.667.259.251.542.474.846.668.255.25.534.474.835.668.259.25.542.474.846.667.255.25.534.474.834.668.262.247.545.471.847.667.254.25.534.474.834.668a7.023 7.023 0 005.007 1.74l38.336 1.431c3.945 0 6.091-1.789 6.091-5.734v-3.934c0-15.771 12.898-26.869 33.377-26.869 18.632 0 31.172 10.026 31.172 25.439a27.524 27.524 0 01-.5 5.233c-19.24 25.223-69.318 36.345-69.318 85.302v11.778c0 4.768 2.611 7.402 7.415 7.402h46.156c4.768 0 7.414-2.61 7.414-7.402v-7.856c0-39.671 78.043-40.112 78.043-112.481 0-50.996-38.813-84.993-98.975-84.993z" fill="#263238"/><path d="M224.414 384.846v-11.777c0-60.603 76.731-63.178 76.731-106.378 0-18.751-15.258-30.993-37.93-30.993-24.855 0-40.53 13.518-40.53 32.698v4.768c0 4.768-2.622 6.985-7.414 6.985l-46.657-1.752c-4.351 0-7.402-2.181-7.402-5.233v-4.768c0-52.76 41.852-88.938 103.326-88.938 60.162 0 98.939 33.997 98.939 85.016 0 72.369-78.043 72.81-78.043 112.481v7.856c0 4.768-2.622 7.402-7.414 7.402h-46.192c-4.804.036-7.414-2.575-7.414-7.367zm-3.922 70.247c0-19.18 16.998-34.879 37.489-34.879 19.622 0 37.061 15.699 37.061 34.879s-17.475 34.82-37.49 34.82c-20.515 0-37.06-15.687-37.06-34.82z" fill="#FF8562" stroke="#FF8562" stroke-miterlimit="10"/><path d="M255.645 529c35.953 0 65.098-6.516 65.098-14.555 0-8.038-29.145-14.555-65.098-14.555-35.952 0-65.097 6.517-65.097 14.555 0 8.039 29.145 14.555 65.097 14.555z" fill="#263238"/><path d="M205.889 184.321l-2.491 5.436s-14.472 1.561-14.472 2.646.155 8.559.942 8.869a2.562 2.562 0 001.86 0l21.313-5.448 2.027-9.643-9.179-1.86z" fill="#fff" stroke="#263238" stroke-linecap="round" stroke-linejoin="round"/><path d="M201.836 194.036a51.744 51.744 0 01-8.523 5.674c-3.445 1.55-3.576 3.898-2.479 3.898 1.096 0 10.824-4.076 10.824-4.076s8.833-2.313 10.108-3.016c1.276-.704 1.419-4.614 1.419-4.614" fill="#fff"/><path d="M201.836 194.036a51.744 51.744 0 01-8.523 5.674c-3.445 1.55-3.576 3.898-2.479 3.898 1.096 0 10.824-4.076 10.824-4.076s8.833-2.313 10.108-3.016c1.276-.704 1.419-4.614 1.419-4.614" stroke="#263238" stroke-linecap="round" stroke-linejoin="round"/><path d="M218.62 79.874l-8.893 68.161-6.186 36.906 13.732 3.242 10.24-43.652 4.851-27.477-13.744-37.18z" fill="#7D7D7D" stroke="#263238" stroke-linecap="round" stroke-linejoin="round"/><path d="M290.381 30.524l-5.424-.858-11.11-4.208-.405 13.196 17.225 1.585-.286-9.715z" fill="#fff" stroke="#263238" stroke-linecap="round" stroke-linejoin="round"/><path d="M226.976 272.234a167.208 167.208 0 00-11.312 14.782c-4.59 7.009-2.968 14.543 2.694 16.438 5.662 1.895 12.922-3.243 14.817-7.284 1.895-4.041 1.347-6.186 4.303-10.227s5.388-8.082 4.315-13.47c-1.072-5.388-11.908-4.006-14.817-.239z" fill="#7D7D7D" stroke="#263238" stroke-linecap="round" stroke-linejoin="round"/><path d="M232.627 297.184a37.002 37.002 0 00-1.347-2.587c-4.327-7.617-11.921-7.009-16.689-5.591-3.135 6.402-1.347 12.767 3.791 14.484 5.138 1.716 11.765-2.48 14.245-6.306z" fill="#fff" stroke="#263238" stroke-linecap="round" stroke-linejoin="round"/><path d="M231.28 294.597c-1.61 2.384-3.767 8.892-12.123 6.198a11.515 11.515 0 01-5.961-3.754 7.854 7.854 0 005.21 6.449c5.65 1.883 12.921-3.243 14.817-7.284 1.895-4.041 1.347-6.187 4.303-10.228 2.956-4.041 5.388-8.082 4.315-13.47 0 6.461-2.384 7.534-5.388 11.039-3.004 3.504-3.552 8.618-5.173 11.05z" fill="#fff" stroke="#263238" stroke-linecap="round" stroke-linejoin="round"/><path d="M306.474 272.234a167.208 167.208 0 0111.312 14.782c4.59 7.009 2.968 14.543-2.694 16.438-5.662 1.895-12.922-3.243-14.817-7.284-1.895-4.041-1.347-6.186-4.303-10.227s-5.388-8.082-4.315-13.47c1.073-5.388 11.86-4.006 14.817-.239z" fill="#7D7D7D" stroke="#263238" stroke-linecap="round" stroke-linejoin="round"/><path d="M300.835 297.184c.37-.811.811-1.669 1.335-2.587 4.328-7.617 11.921-7.009 16.689-5.591 3.135 6.402 1.347 12.767-3.791 14.484-5.137 1.716-11.765-2.48-14.233-6.306z" fill="#fff" stroke="#263238" stroke-linecap="round" stroke-linejoin="round"/><path d="M302.17 294.597c1.61 2.384 3.767 8.892 12.123 6.198a11.515 11.515 0 005.961-3.754 7.854 7.854 0 01-5.21 6.449c-5.65 1.883-12.921-3.243-14.817-7.284-1.895-4.041-1.347-6.187-4.303-10.228-2.956-4.041-5.388-8.082-4.315-13.47 0 6.461 2.384 7.534 5.388 11.039 3.004 3.504 3.552 8.618 5.173 11.05z" fill="#fff" stroke="#263238" stroke-linecap="round" stroke-linejoin="round"/><path d="M319.11 179.291c0-4.852-8.345-10.24-8.345-10.24-12.576-12.791-35.272-11.098-43.652-9.954-8.345-1.192-31.065-2.837-43.641 9.954 0 0-8.344 5.388-8.344 10.24 0 4.851 10.513 92.407 10.513 92.407s-.274 4.577 7.272 5.114c7.546.536 10.728-3.767 10.728-3.767l2.968-74.086s12.124-8.63 14.305-8.892c.787-.108 1.812-.274 2.956-.417v.143a15.825 15.825 0 016.473 0v-.143c1.192.143 2.158.309 2.956.417 2.158.262 14.305 8.892 14.305 8.892l2.968 74.086s3.23 4.303 10.728 3.767c7.498-.537 7.272-5.114 7.272-5.114s10.538-87.556 10.538-92.407z" fill="#263238" stroke="#263238" stroke-linecap="round" stroke-linejoin="round"/><path d="M287.591 198.96s-1.621-17.786 6.199-24.521m-47.145 24.52s.811-14.817-.811-20.205c-1.621-5.388-4.315-7.545-4.315-7.545m15.092-7.546s8.618 9.966 10.239 18.322m8.619-17.75s-4.852 5.388-5.388 9.429" stroke="#707070" stroke-linecap="round" stroke-linejoin="round"/><path d="M263.345 59.407s-7.807-1.085-10.501 1.61c-2.694 2.693-11.861 12.623-11.861 12.623l4.851 85.672s11.051 4.315 20.48 4.315 20.205-3.504 22.648-5.388c2.444-1.883.275-93.754.275-93.754s-20.015-5.889-25.892-5.078z" fill="#FF8562" stroke="#263238" stroke-linecap="round" stroke-linejoin="round"/><path d="M277.626 61.29a98.247 98.247 0 0112.386-1.084c5.388 0 10.728.274 10.728.274l13.47-12.934-27.107-6.198 2.158-12.386s19.931-1.347 29.896.537c9.966 1.883 25.593 6.735 26.404 6.735.81 0 1.883 2.968 1.073 5.114-.811 2.145-26.154 30.182-33.723 37.454a185.794 185.794 0 00-14.007 15.353l-3.457 60.079s8.893 4.852 10.514 6.461c1.621 1.609 3.505 8.082 3.505 8.082s-16.439-6.735-20.754-7.271c-4.315-.537-6.997-.811-7.808-2.385-.81-1.573-7.545-73.549-7.545-73.549l.274-22.899s-.048-1.383 3.993-1.383z" fill="#7D7D7D" stroke="#263238" stroke-linecap="round" stroke-linejoin="round"/><path d="M293.79 98.196l-14.554 1.884 1.347 5.388 7.283 1.883 6.997-3.23-1.073-5.925zm8.344-32.328l-3.23 28.287 8.356-23.972m6.998-22.637s6.735 1.347 16.974-2.694m-9.965 4.578a60.88 60.88 0 0013.196-1.073" stroke="#263238" stroke-linecap="round" stroke-linejoin="round"/><path d="M254.191 59.133l1.347 19.669a12.959 12.959 0 0010.502 5.114c6.735-.263 7.545-5.114 7.545-5.114V62.638l-19.394-3.505z" fill="#fff" stroke="#263238" stroke-linecap="round" stroke-linejoin="round"/><path d="M273.847 69.373l-.536 16.188 5.662-8.893s6.199 7.808 7.808 7.546c1.609-.263-1.073-3.505-1.609-6.461-.537-2.957-5.126-13.482-5.662-16.438-.537-2.957-5.663-3.505-5.961-2.158a13.795 13.795 0 000 3.505l.298 6.71zm-18.584 14.542s1.073 75.433-1.621 76.291c-2.694.858-13.47 1.085-20.265 4.315-6.794 3.231-9.965 4.578-9.965 4.578s3.23-7.808 7.009-11.313a37.22 37.22 0 018.345-5.662l-6.998-36.095s-12.933-34.224-13.208-36.107c-.274-1.883 24.521-15.89 29.635-18.322 5.113-2.431 6.472-.262 6.472-.262l.596 22.577z" fill="#7D7D7D" stroke="#263238" stroke-linecap="round" stroke-linejoin="round"/><path d="M248.529 57.786s-6.461 20.48-7.01 23.173c-.548 2.694 0 2.694 1.896.799 1.895-1.895 6.735-6.461 6.735-6.461l5.114 8.618-.275-15.89V58.86s-.262-3.767-6.46-1.073z" fill="#7D7D7D" stroke="#263238" stroke-linecap="round" stroke-linejoin="round"/><path d="M235.869 101.975h15.89l-.262 6.461-7.01 2.42-8.892-2.42.274-6.461z" stroke="#263238" stroke-linecap="round" stroke-linejoin="round"/><path d="M279.51 31.12s3.767 16.426 4.577 19.073c.811 2.646-4.303 13.208-5.96 15.627a7.848 7.848 0 01-5.96 3.767c-1.884 0-12.123-3.493-14.555-5.114a91.027 91.027 0 01-4.84-3.504 6.47 6.47 0 01-7.009-1.073c-3.23-2.968-7.546-6.473-6.473-8.893a6.335 6.335 0 016.199-3.767c2.968 0 1.895-.274 1.895-.274s-5.388-7.808-5.388-14.006c0-6.199 11.575-10.729 18.31-10.729a35.974 35.974 0 0113.47 3.23l5.734 5.663z" fill="#fff" stroke="#263238" stroke-linecap="round" stroke-linejoin="round"/><path d="M270.081 37.307l4.851 9.166-4.851 3.23-2.158-2.693m11.05-1.347s.262 2.158-2.968 5.662" stroke="#263238" stroke-linecap="round" stroke-linejoin="round"/><path d="M264.967 40.68c0 1.264-.549 2.289-1.192 2.289-.644 0-1.192-1.025-1.192-2.289 0-1.264.548-2.289 1.192-2.289.643 0 1.192 1.026 1.192 2.289zm8.475-2.026c.672 0 1.216-1.025 1.216-2.29 0-1.263-.544-2.288-1.216-2.288-.671 0-1.216 1.025-1.216 2.289 0 1.264.545 2.288 1.216 2.288z" fill="#263238"/><path d="M250.412 17.102S233.461 23.3 232.901 31.12c-.561 7.82 15.091 18.584 15.901 19.93.811 1.348 3.231-1.62 3.231-1.62a6.252 6.252 0 01-1.085-5.114c.811-2.694 4.315-5.96 4.315-7.272 0-1.31-4.041 1.073-4.041-2.968 0-4.04 9.966-6.46 15.89-6.198 5.925.262 11.05 10.24 15.366 5.388 4.315-4.852-1.896-6.187-1.896-6.187s8.345-1.085 8.345-5.388-4.316-7.283-6.199-7.283-6.997 3.242-6.997-.263c0-3.504 5.114-5.126.262-10.728-4.852-5.603-11.038 0-11.038 2.157 0 2.158-1.622 6.187-2.694 6.187-1.073 0-4.316-4.84-8.082-2.146a9.993 9.993 0 00-3.767 7.487z" fill="#263238" stroke="#263238" stroke-linecap="round" stroke-linejoin="round"/><path d="M257.421 37.855l8.618-3.242m1.348-3.767a3.709 3.709 0 01.381-2.48" stroke="#263238" stroke-linecap="round" stroke-linejoin="round"/><path d="M267.768 28.343c.608-1.192 1.979-2.73 5.007-3.982" stroke="#fff" stroke-linecap="round" stroke-linejoin="round"/></svg>