<svg width="42" height="42" fill="none" xmlns="http://www.w3.org/2000/svg"><path d="M11.1 36.097l.687.34c2.861 1.704 6.065 2.498 9.27 2.498 10.07 0 18.31-8.173 18.31-18.162 0-4.767-1.945-9.422-5.378-12.827C30.555 4.54 25.978 2.61 21.057 2.61c-10.071 0-18.311 8.173-18.196 18.276 0 3.405 1.03 6.697 2.746 9.535l.458.68L4.234 37.8l6.866-1.703z" fill="#40DA55"/><path d="M35.935 6.13C32.044 2.157 26.665 0 21.172 0 9.499 0 .115 9.422.229 20.886c0 3.633 1.03 7.152 2.747 10.33L0 42l11.1-2.838c3.09 1.703 6.524 2.498 9.957 2.498C32.616 41.66 42 32.237 42 20.773c0-5.562-2.174-10.784-6.065-14.643zM21.172 38.14c-3.09 0-6.18-.794-8.812-2.383l-.687-.34-6.638 1.702 1.717-6.47-.458-.681c-5.035-8.06-2.632-18.73 5.608-23.725 8.24-4.994 18.883-2.61 23.918 5.562 5.035 8.173 2.632 18.73-5.607 23.725-2.633 1.703-5.837 2.61-9.041 2.61zm10.07-12.6l-1.258-.567s-1.831-.794-2.976-1.362c-.114 0-.229-.114-.343-.114-.343 0-.572.114-.801.228 0 0-.115.113-1.717 1.93a.63.63 0 01-.572.34h-.115c-.114 0-.343-.114-.457-.227l-.573-.227c-1.258-.568-2.403-1.249-3.318-2.157-.23-.227-.573-.454-.801-.681-.802-.795-1.603-1.703-2.175-2.724l-.114-.227c-.115-.114-.115-.227-.23-.454 0-.227 0-.454.115-.568 0 0 .458-.568.801-.908.23-.227.344-.568.573-.795.229-.34.343-.794.229-1.135-.115-.567-1.488-3.632-1.831-4.313-.23-.341-.458-.454-.802-.568H13.62c-.23 0-.458.114-.687.114l-.115.113c-.229.114-.457.34-.686.454-.23.227-.344.454-.572.681-.802 1.022-1.26 2.27-1.26 3.52 0 .907.23 1.815.573 2.61l.114.34a18.913 18.913 0 004.235 5.79l.458.454c.343.34.686.567.915.908 2.403 2.043 5.15 3.519 8.24 4.313.343.114.8.114 1.144.227h1.145c.572 0 1.258-.227 1.716-.454.344-.227.572-.227.801-.454l.23-.227c.228-.227.457-.34.686-.567.229-.227.458-.454.572-.681.229-.454.343-1.022.458-1.59v-.794s-.115-.114-.344-.227z" fill="#fff"/></svg>