<svg width="41" height="41" fill="none" xmlns="http://www.w3.org/2000/svg"><path d="M20.5 0C9.178 0 0 9.178 0 20.5S9.178 41 20.5 41 41 31.822 41 20.5 31.822 0 20.5 0z" fill="#40B3E0"/><path d="M30.475 11.792l-3.662 18.461s-.511 1.28-1.92.666l-8.45-6.478-3.072-1.485L8.2 21.215s-.794-.282-.87-.896c-.077-.615.896-.948.896-.948l20.56-8.065s1.69-.743 1.69.486z" fill="#fff"/><path d="M15.794 30.046s-.246-.023-.554-.996c-.307-.973-1.869-6.094-1.869-6.094L25.79 15.07s.717-.435.692 0c0 0 .128.077-.257.435-.384.359-9.755 8.783-9.755 8.783" fill="#D2E5F1"/><path d="M19.683 26.924l-3.341 3.048s-.262.198-.548.074l.64-5.66" fill="#B5CFE4"/></svg>