<svg width="51" height="36" fill="none" xmlns="http://www.w3.org/2000/svg"><path d="M49.793 5.57a6.382 6.382 0 00-1.653-2.847 6.403 6.403 0 00-2.854-1.648C41.334 0 25.432 0 25.432 0S9.53.033 5.578 1.108a6.404 6.404 0 00-2.853 1.648 6.382 6.382 0 00-1.653 2.847c-1.195 7.005-1.659 17.677.033 24.4a6.382 6.382 0 001.652 2.848 6.405 6.405 0 002.854 1.648c3.951 1.075 19.854 1.075 19.854 1.075s15.902 0 19.854-1.075a6.405 6.405 0 002.854-1.648 6.383 6.383 0 001.652-2.847c1.26-7.014 1.649-17.68-.033-24.433z" fill="red"/><path d="M20.37 25.41l13.192-7.623-13.192-7.623V25.41z" fill="#fff"/></svg>