<svg width="592" height="494" fill="none" xmlns="http://www.w3.org/2000/svg"><path d="M434.051 87.837H49.142c-11.045 0-20 8.954-20 20v236.035c0 11.046 8.955 20 20 20h384.909c11.045 0 20-8.954 20-20V107.837c0-11.046-8.955-20-20-20z" fill="#EBEBEB"/><path opacity=".4" d="M454.409 83.594H28.937v280.791h425.472V83.595z" fill="#fff"/><path d="M425.966 183.131H184.358v152.983h241.608V183.131z" fill="#fff" stroke="#263238" stroke-miterlimit="10"/><path d="M260.05 165.344l-4.652-13.398h-75.739v195.302h251.006V165.344H260.05zm165.932 170.77H184.358V183.131h241.608l.016 152.983z" fill="#FF8562" stroke="#263238" stroke-miterlimit="10"/><path d="M380.048 170.415H260.02v7.35h120.028v-7.35z" fill="#fff" stroke="#263238" stroke-miterlimit="10"/><path d="M190.173 169.236l-3.458 3.334 3.582 3.846m-3.582-3.846h7.692m15.384-3.334l3.473 3.334-3.597 3.846m3.597-3.846h-7.692m24.223-.449a3.779 3.779 0 00-3.52-2.761 3.482 3.482 0 00-3.419 2.083 3.486 3.486 0 000 2.766 3.482 3.482 0 003.419 2.083 3.397 3.397 0 002.187-.791" stroke="#263238" stroke-linecap="round" stroke-linejoin="round"/><path d="M227.469 172.509h2.683v-3.195m17.989 2.062l-3.195-2.589-3.04 2.589v5.63h6.235v-5.63z" stroke="#263238" stroke-linecap="round" stroke-linejoin="round"/><path d="M246.171 172.896h-2.435v3.908h2.435v-3.908z" fill="#263238"/><path d="M241.906 171.376l-1.83 1.675m8.065-1.675l1.721 1.52m-2.869-14.019l4.87 5.025m.077-4.947l-5.025 4.87m166.32 7.939h9.63m-9.63 2.172h9.63m-9.63 2.155h9.63m-9.63 2.171h9.63m-60.154 22.92h12.127m-27.821 0h10.638m-36.737 0h22.161m-22.161 7.413h53.92m-7.925 7.397h7.924m-45.204 0h32.225m-40.94 0h4.234m-4.234 7.397h53.92" stroke="#263238" stroke-linecap="round" stroke-linejoin="round"/><path d="M339.713 285.14h-11.987v36.831h11.987V285.14z" fill="#263238" stroke="#263238" stroke-linecap="round" stroke-linejoin="round"/><path d="M356.849 241.456h-11.987v80.531h11.987v-80.531z" fill="#FF8562" stroke="#263238" stroke-miterlimit="10"/><path d="M373.985 265.446h-11.987v56.541h11.987v-56.541z" fill="#263238" stroke="#263238" stroke-linecap="round" stroke-linejoin="round"/><path d="M391.105 241.456h-11.987v80.531h11.987v-80.531z" fill="#FF8562" stroke="#263238" stroke-miterlimit="10"/><path d="M408.241 206.33h-11.987v115.656h11.987V206.33z" fill="#263238" stroke="#263238" stroke-linecap="round" stroke-linejoin="round"/><path d="M289.794 136.593H48.186v152.982h241.608V136.593z" fill="#fff" stroke="#263238" stroke-miterlimit="10"/><path d="M123.862 118.821l-4.652-13.414H43.487V300.71h250.99V118.821H123.862zm165.932 170.755H48.263V136.593H289.87l-.077 152.983z" fill="#FF8562" stroke="#263238" stroke-miterlimit="10"/><path d="M243.861 123.876H123.832v7.351h120.029v-7.351z" fill="#fff" stroke="#263238" stroke-miterlimit="10"/><path d="M54 122.698l-3.473 3.349 3.598 3.846m-3.598-3.845h7.707m15.384-3.35l3.458 3.349-3.582 3.846m3.598-3.845h-7.707m24.238-.45a3.766 3.766 0 00-3.49-2.76 3.457 3.457 0 00-2.445 5.903 3.457 3.457 0 002.446 1.013c.8 0 1.577-.274 2.202-.775" stroke="#263238" stroke-linecap="round" stroke-linejoin="round"/><path d="M91.281 125.985h2.699v-3.21m17.988 2.063l-3.195-2.574-3.039 2.574v5.629h6.234v-5.629z" stroke="#263238" stroke-linecap="round" stroke-linejoin="round"/><path d="M109.983 126.358h-2.434v3.908h2.434v-3.908z" fill="#263238"/><path d="M105.734 124.838l-1.83 1.675m8.065-1.675l1.721 1.535m-2.869-14.018l4.854 5.009m.077-4.932l-5.009 4.854m166.32 7.94h9.63m-9.63 2.17h9.63m-9.63 2.172h9.63m-9.63 2.171h9.63" stroke="#263238" stroke-linecap="round" stroke-linejoin="round"/><path d="M60.607 274.812v-52.835l16.81 35.59 14.283-6.234 16.159 12.763 27.526-17.896 16.81 23.479 11.77-5.862 10.08 5.862 12.608-1.474 16.795 4.048 17.647-1.473 11.228 4.032H60.607z" fill="#263238"/><path d="M237.549 183.131h18.314m-42.025 0h16.081m-55.501 0h33.496m-33.496 7.398h81.446m-11.972 7.412h11.971m-68.279 0h48.694m-61.86 0h6.389m-6.389 7.397h81.446m-.001 11.91h-18.314m-23.711 0h16.081m-55.501 0h33.496m-33.496 7.397h81.446m-.001 7.413h-11.971m-56.308 0h48.694m-61.86 0h6.389m-6.389 7.397h81.446" stroke="#263238" stroke-linecap="round" stroke-linejoin="round"/><path d="M81.496 195.32l-9.63 21.711a23.68 23.68 0 01-12.003-31.264 23.385 23.385 0 0121.71-14.034l-.077 23.587z" fill="#FF8562"/><path opacity=".47" d="M81.496 195.32l-9.63 21.711a23.683 23.683 0 01-12.003-31.264 23.387 23.387 0 0121.71-14.034l-.077 23.587z" fill="#fff"/><path d="M81.496 195.32l11.119 20.92a23.027 23.027 0 01-20.75.713l9.63-21.633z" fill="#263238"/><path d="M81.496 195.32l18.408-14.949a23.669 23.669 0 012.381 26.258 23.678 23.678 0 01-5.948 7.099 22.944 22.944 0 01-3.784 2.512l-11.057-20.92z" fill="#FF8562"/><path d="M81.496 195.32v-23.665a22.611 22.611 0 0118.408 8.715l-18.408 14.95z" fill="#263238"/><path d="M81.496 208.254c7.117 0 12.887-5.77 12.887-12.887 0-7.117-5.77-12.887-12.887-12.887-7.117 0-12.887 5.77-12.887 12.887 0 7.117 5.77 12.887 12.887 12.887z" fill="#fff"/><path d="M145.666 195.32l-9.63 21.711a23.658 23.658 0 01-12.003-31.264 23.376 23.376 0 018.705-10.271 23.375 23.375 0 0112.928-3.763v23.587z" fill="#FF8562"/><path opacity=".47" d="M145.666 195.32l-9.63 21.71a23.665 23.665 0 01-12.003-31.263 23.366 23.366 0 0121.633-14.034v23.587z" fill="#fff"/><path d="M145.666 195.32l11.15 20.92a23.029 23.029 0 01-20.749.713l9.599-21.633z" fill="#263238"/><path d="M145.667 195.32l18.392-14.888a23.696 23.696 0 01-7.243 35.807l-11.149-20.919z" fill="#FF8562"/><path d="M145.667 195.32v-23.665a22.58 22.58 0 0118.392 8.715l-18.392 14.95z" fill="#263238"/><path d="M145.666 208.254c7.118 0 12.887-5.77 12.887-12.887 0-7.117-5.769-12.887-12.887-12.887-7.117 0-12.886 5.77-12.886 12.887 0 7.117 5.769 12.887 12.886 12.887z" fill="#fff"/><path d="M59.77 153.279H211.9m-152.13 7.413h180.4" stroke="#263238" stroke-linecap="round" stroke-linejoin="round"/><path d="M400.131 305.983s-7.521 8.715-6.73 10.297c.791 1.582 7.133 5.536 7.521 3.102a98.576 98.576 0 001.551-11.492c.046-2.729.434-3.458-2.342-1.907z" fill="#fff" stroke="#263238" stroke-linecap="round" stroke-linejoin="round"/><path d="M404.101 287.373s-5.149 11.088-5.552 13.476c-.403 2.388 1.985 5.536 1.985 6.731 0 1.194-3.102 4.745-3.102 10.297 0 5.551-.403 18.221 4.358 21.385 4.761 3.163 12.67-.388 12.67-.388l7.521 14.655 30.1-17.431-4.358-6.73s6.343-17.059 1.551-30.101c-4.792-13.041-21.71-15.057-28.518-15.507-6.808-.45-14.267-1.179-16.655 3.613z" fill="#fff"/><path d="M447.662 329.322s6.342-17.059 1.55-30.101c-4.792-13.042-21.71-15.058-28.518-15.507-1.101 0-2.233-.14-3.365-.186l-8.778 6.947s-7.226 10.344-4.125 14.469c3.102 4.125 5.164 8.281 4.125 14.995-1.039 6.715-7.893 18.33-1.023 18.61 1.411 0 3.644.248 6.296.511l.574-.232.155.31c10.142 1.023 25.541 3.024 25.541 3.024l1.551-.078 10.405-6.032-4.388-6.73z" fill="#FF8562"/><path opacity=".5" d="M447.662 329.322s6.342-17.059 1.55-30.101c-4.792-13.042-21.71-15.058-28.518-15.507-1.101 0-2.233-.14-3.365-.186l-8.778 6.947s-7.226 10.344-4.125 14.469c3.102 4.125 5.164 8.281 4.125 14.995-1.039 6.715-7.893 18.33-1.023 18.61 1.411 0 3.644.248 6.296.511l.574-.232.155.31c10.142 1.023 25.541 3.024 25.541 3.024l1.551-.078 10.405-6.032-4.388-6.73z" fill="#fff"/><path d="M404.101 287.373s-5.149 11.088-5.552 13.476c-.403 2.388 1.985 5.536 1.985 6.731 0 1.194-3.102 4.745-3.102 10.297 0 5.551-.403 18.221 4.358 21.385 4.761 3.163 12.67-.388 12.67-.388l7.521 14.655 30.1-17.431-4.358-6.73s6.343-17.059 1.551-30.101c-4.792-13.041-21.71-15.057-28.518-15.507-6.808-.45-14.267-1.179-16.655 3.613z" stroke="#263238" stroke-linecap="round" stroke-linejoin="round"/><path d="M445.258 275.061s-14.655-4.358-27.324-3.97c-12.67.387-25.355 3.97-24.952 10.7.403 6.73 12.267 9.103 12.267 9.103s6.745.403 4.76 2.372c-1.985 1.97-7.133 5.955-3.101 10.701 4.032 4.745 7.909 8.715 6.73 10.297-1.178 1.582.388 5.148 1.97 3.97 1.581-1.179-.791-5.955 3.566-7.537 4.358-1.582 8.716 5.149 7.134 9.506-1.582 4.358-4.358 3.97-2.776 7.134 1.582 3.163 11.491 8.312 18.221 8.312 6.731 0 8.716-8.716 15.849-22.579 7.134-13.864 2.342-34.055-12.344-38.009z" fill="#263238" stroke="#263238" stroke-linecap="round" stroke-linejoin="round"/><path d="M407.667 357.049l3.955 7.521 43.576-28.518-4.357-5.149s-36.443 20.191-43.174 26.146z" fill="#fff" stroke="#263238" stroke-linecap="round" stroke-linejoin="round"/><path d="M415.98 358.228s-8.716 11.879-11.879 17.818c-3.164 5.94-16.64 40.801-22.579 53.083a117.805 117.805 0 00-8.219 22.052h83.074s9.506-47.407 9.506-68.001c0-20.594-4.745-36.04-6.343-39.994-1.597-3.955-7.521-7.134-7.521-7.134l-36.039 22.176z" fill="#fff"/><path d="M415.98 358.228s-8.716 11.879-11.879 17.818c-3.164 5.94-16.64 40.801-22.579 53.083a117.805 117.805 0 00-8.219 22.052h83.074s9.506-47.407 9.506-68.001c0-20.594-4.745-36.04-6.343-39.994-1.597-3.955-7.521-7.134-7.521-7.134l-36.039 22.176z" fill="#BDBDBD" stroke="#263238" stroke-linecap="round" stroke-linejoin="round"/><path d="M393.199 402.781s18.609-29.139 25.618-36.676c7.01-7.536 41.778-25.37 41.778-25.37l-5.49-5.955s-35.776 17.756-41.312 23.261c-5.536 5.506-21.587 38.196-20.594 44.74z" fill="#BDBDBD" stroke="#263238" stroke-linecap="round" stroke-linejoin="round"/><path d="M415.98 358.228s-8.716 11.879-11.879 17.818c-3.164 5.94-16.64 40.801-22.579 53.083a117.805 117.805 0 00-8.219 22.052h83.074s9.506-47.407 9.506-68.001c0-20.594-4.745-36.04-6.343-39.994-1.597-3.955-7.521-7.134-7.521-7.134l-36.039 22.176z" stroke="#263238" stroke-linecap="round" stroke-linejoin="round"/><path d="M438.947 358.227s-21.711 14.267-24.952 19.803c-3.241 5.537-.388 14.267-.388 15.508 0 1.241-3.101 5.149-3.101 6.343v3.954l-17.059 45.949h38.769s16.64-40.397 19.803-48.321c3.164-7.925 4.761-22.176 3.18-30.101m-38.025 20.936s9.506-11.104 23.757-12.686" stroke="#263238" stroke-linecap="round" stroke-linejoin="round"/><path d="M509.46 311.115s-27.356-5.474-35.017 1.086c-7.66 6.56-3.287 46.523-5.474 56.913-2.186 10.39-7.66 21.338-5.474 32.271 2.187 10.933 7.118 18.609 9.305 24.084 2.186 5.474-.559 25.711-.559 25.711h79.896s14.22-37.745 14.22-66.202c0-28.456-8.762-53.067-21.881-62.371-13.12-9.305-35.016-11.492-35.016-11.492z" fill="#FF8562"/><path opacity=".26" d="M480.166 328.205c-7.754 12.933 1.039 83.741 3.101 90.471 2.063 6.731-12.918.512-8.266 4.125 4.653 3.614 13.43 9.832 13.43 9.832a161.71 161.71 0 00-15.259-5.691c.272 1.619.412 3.258.418 4.9a146.86 146.86 0 0016.345 11.088l-16.981 1.427c-.356 3.892-.759 6.792-.759 6.792h79.895s14.22-37.745 14.22-66.202a120.767 120.767 0 00-4.916-35.016l-47.67-20.16s-25.805-14.484-33.558-1.566z" fill="#000"/><path d="M509.46 311.115s-27.356-5.474-35.017 1.086c-7.66 6.56-3.287 46.523-5.474 56.913-2.186 10.39-7.66 21.338-5.474 32.271 2.187 10.933 7.118 18.609 9.305 24.084 2.186 5.474-.559 25.711-.559 25.711h79.896s14.22-37.745 14.22-66.202c0-28.456-8.762-53.067-21.881-62.371-13.12-9.305-35.016-11.492-35.016-11.492z" stroke="#263238" stroke-linecap="round" stroke-linejoin="round"/><path d="M508.839 212.627s-12.034-9.848-23.525-2.73c-11.491 7.118-31.186 39.932-28.999 56.355 2.186 16.423 21.897 31.729 8.762 40.49-13.135 8.762-8.204 24.611-1.644 29l3.83.542s0-15.864 10.949-20.253c10.948-4.388 26.797-.542 30.627 4.389 3.83 4.931-3.272 30.085 6.017 36.66 9.289 6.575 22.44 7.661 19.71 14.22-2.729 6.56-12.049 16.966-6.032 26.27 6.017 9.305 20.795 18.61 25.727 15.306 4.931-3.303-2.187-7.102.543-9.304 2.729-2.202 25.168-9.848 21.338-19.152-3.83-9.305-12.034-14.236-8.203-18.066 3.83-3.831 18.05-13.12 16.407-26.255-1.644-13.135-32.83-22.982-33.916-37.218-1.085-14.236 18.61-15.864 12.034-48.074-6.575-32.209-26.75-46.522-36.567-46.522a35.312 35.312 0 00-17.058 4.342z" fill="#263238" stroke="#263238" stroke-linecap="round" stroke-linejoin="round"/><path d="M519.477 229.794c8.25 11.444 18.609 28.301 18.966 41.048.512 21.23-18.128 30.039-15.027 46.601 3.102 16.562 39.312 19.415 41.948 34.116 2.637 14.702-13.957 9.305-9.847 17.602 4.11 8.296 20.16 15.507 13.476 24.812M509.444 217s1.737 1.985 4.358 5.304m-12.562 78.623c1.892 1.985 3.024 3.83 3.024 5.645m-34.69-68.823s-8.281 22.78 4.14 38.319c6.622 8.281 14.857 14.344 21.106 19.307m49.33 36.769c2.404.868 5.025 1.55 7.754 2.388" stroke="#fff" stroke-linecap="round" stroke-linejoin="round"/><path d="M547.236 233.097s17.601 22.269 11.398 41.42c-6.203 19.152-26.921 29.465-26.921 41.871a14.667 14.667 0 003.52 10.39" stroke="#fff" stroke-linecap="round" stroke-linejoin="round"/><path d="M338.038 432.943s-3.287 4.048-3.287 6.575c0 2.528-1.256 7.568.263 7.832 1.52.263 2.513-5.319 4.032-7.335 1.52-2.016 5.304-2.528 5.056-5.304-.248-2.776-3.784-5.303-6.064-1.768z" fill="#fff" stroke="#263238" stroke-linecap="round" stroke-linejoin="round"/><path d="M374.435 436.479s-14.159-11.879-17.694-13.135c-3.536-1.256-10.623 6.823-14.919 14.655-4.295 7.831-2.016 9.599.264 9.847 2.28.248 12.127-4.032 12.127-4.032a30.63 30.63 0 0011.879 5.8c6.823 1.551 16.67-2.528 16.934-6.56.264-4.032-8.591-6.575-8.591-6.575z" fill="#fff" stroke="#263238" stroke-linecap="round" stroke-linejoin="round"/><path d="M506.172 355.39s.543 82.655-1.644 89.231c-2.186 6.575-9.847 6.559-22.424 7.102-12.576.543-89.184-1.628-89.184-1.628a103.337 103.337 0 01-13.135 1.085c-6.017 0-16.422-1.085-20.253-3.83-3.83-2.745-7.102-3.288-8.746-2.729-1.644.558-6.017 6.016-9.847 6.016-3.831 0-8.219-1.643-5.475-2.186 2.745-.543 17.509-16.423 20.796-16.423 3.288 0 26.797 6.017 31.186 5.475 4.389-.543 82.624-15.865 82.624-15.865l-2.729-85.292s-2.745-14.778 10.948-20.252" fill="#FF8562"/><path opacity=".26" d="M484.368 324.297a10.233 10.233 0 00-4.202 3.908c-7.754 12.933 1.039 83.741 3.101 90.471 2.063 6.73-12.917.512-8.265 4.125 4.652 3.613 13.429 9.832 13.429 9.832s-25.323-10.856-18.609-4.141c6.715 6.715 20.16 14.469 20.16 14.469l-88.393 7.366c20.439.558 70.497 1.83 80.469 1.396 12.577-.543 20.237-.543 22.424-7.103 2.186-6.56 1.644-90.828 1.644-90.828l-21.758-29.495z" fill="#000"/><path d="M506.172 355.39s.543 82.655-1.644 89.231c-2.186 6.575-9.847 6.559-22.424 7.102-12.576.543-89.184-1.628-89.184-1.628a103.337 103.337 0 01-13.135 1.085c-6.017 0-16.422-1.085-20.253-3.83-3.83-2.745-7.102-3.288-8.746-2.729-1.644.558-6.017 6.017-9.847 6.017-3.831 0-8.219-1.644-5.475-2.187 2.745-.543 17.509-16.423 20.796-16.423 3.288 0 26.797 6.017 31.186 5.475 4.389-.543 82.624-15.865 82.624-15.865l-2.729-85.292s-2.745-14.778 10.948-20.252" stroke="#263238" stroke-linecap="round" stroke-linejoin="round"/><path d="M415.7 450.699a29.471 29.471 0 011.07-18.702c-14.949 2.884-27.634 5.288-29.324 5.505-4.389.543-27.914-5.474-31.186-5.474-3.272 0-18.005 15.864-20.796 16.423-2.791.558 1.644 2.186 5.474 2.186 3.831 0 8.204-5.474 9.848-6.017 1.643-.543 4.915 0 8.746 2.73 3.83 2.729 14.236 3.83 20.253 3.83 4.397-.082 8.784-.445 13.135-1.086l22.78.605z" fill="#fff" stroke="#263238" stroke-linecap="round" stroke-linejoin="round"/><path d="M343.854 427.128a16.574 16.574 0 00-5.815 5.815c-1.551 3.288 0 13.383 2.527 13.383 2.528 0 4.296-2.776 4.296-6.311 0-3.536-1.008-12.887-1.008-12.887z" fill="#fff" stroke="#263238" stroke-linecap="round" stroke-linejoin="round"/><path d="M347.39 425.112s-4.048.248-5.567 3.287c-1.52 3.04-1.257 15.911 1.271 16.423 2.528.511 3.536-3.8 3.536-6.575 0-2.776.76-13.135.76-13.135z" fill="#fff" stroke="#263238" stroke-linecap="round" stroke-linejoin="round"/><path d="M356.741 423.344s-6.063-1.023-8.591.76c-2.528 1.783-3.102 17.43-1.272 18.687 1.83 1.256 4.808-2.016 4.808-3.784 0-1.768 3.535-11.367 3.535-11.367" fill="#fff"/><path d="M356.741 423.344s-6.063-1.023-8.591.76c-2.528 1.783-3.102 17.43-1.272 18.687 1.83 1.256 4.808-2.016 4.808-3.784 0-1.768 3.535-11.367 3.535-11.367" stroke="#263238" stroke-linecap="round" stroke-linejoin="round"/><path d="M204.89 371.626s-7.257 11.011-4.202 16.361c3.055 5.35 14.143 16.422 37.047 14.887 22.905-1.535 9.165-40.087 11.833-63.767 2.667-23.68-7.242-27.107-15.275-20.997-8.033 6.11-17.943 35.512-21.711 40.475a88.388 88.388 0 00-7.692 13.041z" fill="#FF8562"/><path opacity=".42" d="M204.89 371.626s-7.257 11.011-4.202 16.361c3.055 5.35 14.143 16.422 37.047 14.887 22.905-1.535 9.165-40.087 11.833-63.767 2.667-23.68-7.242-27.108-15.275-20.998-8.033 6.11-17.943 35.513-21.711 40.475a88.45 88.45 0 00-7.692 13.042z" fill="#000" stroke="#263238" stroke-linecap="round" stroke-linejoin="round"/><path d="M204.89 371.626s-7.257 11.011-4.202 16.361c3.055 5.35 14.143 16.422 37.047 14.887 22.905-1.535 9.165-40.087 11.833-63.767 2.667-23.68-7.242-27.107-15.275-20.997-8.033 6.11-17.943 35.512-21.711 40.475a88.388 88.388 0 00-7.692 13.041v0z" stroke="#263238" stroke-linecap="round" stroke-linejoin="round"/><path d="M232.804 378.062s0 33.977.387 44.677c.388 10.7 1.908 36.66 1.908 36.66h71.785l-3.815-77.538-1.148-3.815-69.117.016z" fill="#263238" stroke="#263238" stroke-linecap="round" stroke-linejoin="round"/><path d="M274.535 387.057l28.813 1.163-.31-6.343-1.148-3.815h-27.805l.45 8.995zm-34.133-8.995h-7.598v7.335l7.614.295-.016-7.63zm2.435 0l.434 7.754 26.084 1.039-.263-8.793h-26.255z" fill="#fff" stroke="#263238" stroke-linecap="round" stroke-linejoin="round"/><path d="M233.16 319.242s-.387 43.917 0 50.803c.388 6.885-3.101 9.165 2.668 10.312 5.769 1.148 52.322 2.28 56.897 1.551 4.575-.729 4.652-3.102 5.738-5.35 1.086-2.249 16.407-100.428 12.98-103.11-3.427-2.683-25.2-10.685-27.123-10.685-1.923 0-30.162 1.551-35.512 2.295-5.35.744-11.46-.775-11.833 2.28-.372 3.055-3.815 51.904-3.815 51.904z" fill="#fff"/><path d="M256.561 277.31s-8.947-.435-10.653.418c-.962.481-6.824 14.872-11.74 27.278l-1.008 14.236s-.387 43.918 0 50.803c.249 4.513-1.132 7.04-.511 8.576 1.938-6.731 5.024-18.346 8.575-34.861 5.971-27.697 15.337-66.45 15.337-66.45z" fill="#BDBDBD"/><path d="M233.16 319.242s-.387 43.917 0 50.803c.388 6.885-3.101 9.165 2.668 10.312 5.769 1.148 52.322 2.28 56.897 1.551 4.575-.729 4.652-3.102 5.738-5.35 1.086-2.249 16.407-100.428 12.98-103.11-3.427-2.683-25.2-10.685-27.123-10.685-1.923 0-30.162 1.551-35.512 2.295-5.35.744-11.46-.775-11.833 2.28-.372 3.055-3.815 51.904-3.815 51.904z" stroke="#263238" stroke-linecap="round" stroke-linejoin="round"/><path d="M153.715 295.128s-13.74-6.87-18.702-8.018c-4.963-1.147-21.013-4.962-22.161-3.442-1.147 1.519.388 3.101 1.923 3.101 1.536 0 11.445 4.203 11.445 4.203s-1.132 9.165-1.132 11.46c0 2.295 12.22 6.87 14.887 7.257 2.668.388 8.049-1.659 8.049-1.659l3.784-1.023 1.907-11.879z" fill="#fff" stroke="#263238" stroke-linecap="round" stroke-linejoin="round"/><path d="M125.088 292.522s-1.551 10.313-.388 11.445c1.163 1.132 9.165 6.497 10.313 3.83 1.147-2.667.76-12.995.76-14.127 0-1.133-10.685-1.148-10.685-1.148z" fill="#fff" stroke="#263238" stroke-linecap="round" stroke-linejoin="round"/><path d="M149.14 295.577s-12.98-4.962-16.035-4.962c-3.055 0-8.017 4.187-10.7 4.962-2.683.776.76 3.102 2.683 2.668 1.923-.435 7.242-1.908 7.242-1.908a16.344 16.344 0 004.978 5.722c3.101 1.908 9.537.776 9.537.776" fill="#fff"/><path d="M149.14 295.577s-12.98-4.962-16.035-4.962c-3.055 0-8.017 4.187-10.7 4.962-2.683.776.76 3.102 2.683 2.668 1.923-.435 7.242-1.908 7.242-1.908a16.344 16.344 0 004.978 5.722c3.101 1.908 9.537.776 9.537.776" stroke="#263238" stroke-linecap="round" stroke-linejoin="round"/><path d="M265.525 262.469s-22.905-1.97-27.557-.946c-4.652 1.023-15.508 27.402-17.058 31.015-1.551 3.613-18.609 20.16-18.609 20.16l-49.098-19.121-5.179 14.468s39.808 25.852 46.523 28.953c6.715 3.102 16.035 2.59 19.136 2.59a11.596 11.596 0 006.203-2.59l-14.996 34.629s24.301-28.938 31.527-42.894c7.227-13.957 23.789-54.804 25.34-55.828 1.55-1.023 3.768-10.436 3.768-10.436z" fill="#FF8562"/><path opacity=".26" d="M212.504 322.468c-1.241 0-2.9-.822-4.559-.822-1.66 0 2.078 6.203 1.24 8.312-.837 2.109-60.231-23.261-60.231-23.261l-.109 1.876c5.614 3.644 39.545 25.588 45.701 28.425 6.73 3.102 16.035 2.59 19.137 2.59a10.658 10.658 0 005.598-2.14c4.528-11.553 7.754-30.751 7.754-30.751s-13.275 15.771-14.531 15.771z" fill="#000"/><path d="M265.525 262.469s-22.905-1.97-27.557-.946c-4.652 1.023-15.508 27.402-17.058 31.015-1.551 3.613-18.609 20.16-18.609 20.16l-49.098-19.121-5.179 14.468s39.808 25.852 46.523 28.953c6.715 3.102 16.035 2.59 19.136 2.59a11.596 11.596 0 006.203-2.59l-14.996 34.629s24.301-28.938 31.527-42.894c7.227-13.957 23.789-54.804 25.34-55.828 1.55-1.023 3.768-10.436 3.768-10.436z" stroke="#263238" stroke-linecap="round" stroke-linejoin="round"/><path d="M265.525 262.468l-6.358 6.033.325 12.065 6.699-6.374-.666-11.724z" fill="#fff" stroke="#263238" stroke-linecap="round" stroke-linejoin="round"/><path d="M253.46 203.633s-6.855 10.545-6.42 12.747c.434 2.202 1.55 4.451 1.55 6.203 0 1.752-7.754 7.924-6.854 9.305.899 1.38 5.288 3.52 5.288 3.52s-.186 17.198 3.768 19.4c3.955 2.202 11.476-1.334 11.476-1.334l3.954 22.052 22.486-15.88v-15.864s13.228-14.98 14.112-26.89c.884-11.91-15.507-25.123-31.744-27.325-16.236-2.202-25.122 8.809-22.486 12.406 2.637 3.598 4.87 1.66 4.87 1.66z" fill="#fff"/><path d="M280.335 265.57l8.389-5.924v-15.864s13.228-14.98 14.112-26.89c.574-7.754-6.203-16.113-15.507-21.587l-23.386 9.692s-10.979 9.646-9.537 10.949c1.442 1.302 5.66 6.699 4.652 9.18 0 0-3.923 1.551-3.52 4.234s9.537 20.16 9.537 20.16l-2.807 3.954 18.067 12.096z" fill="#FF8562"/><path opacity=".5" d="M280.335 265.57l8.389-5.924v-15.864s13.228-14.98 14.112-26.89c.574-7.754-6.203-16.113-15.507-21.587l-23.386 9.692s-10.979 9.646-9.537 10.949c1.442 1.302 5.66 6.699 4.652 9.18 0 0-3.923 1.551-3.52 4.234s9.537 20.16 9.537 20.16l-2.807 3.954 18.067 12.096z" fill="#fff"/><path d="M253.46 203.633s-6.855 10.545-6.42 12.747c.434 2.202 1.55 4.451 1.55 6.203 0 1.752-7.754 7.924-6.854 9.305.899 1.38 5.288 3.52 5.288 3.52s-.186 17.198 3.768 19.4c3.955 2.202 11.476-1.334 11.476-1.334l3.954 22.052 22.486-15.88v-15.864s13.228-14.98 14.112-26.89c.884-11.91-15.507-25.123-31.744-27.325-16.236-2.202-25.122 8.809-22.486 12.406 2.637 3.598 4.87 1.66 4.87 1.66z" stroke="#263238" stroke-linecap="round" stroke-linejoin="round"/><path d="M288.523 263.104s-4.963 17.571-11.073 39.731-4.962 90.875-4.962 94.705c0 3.83 8.777 17.554 18.717 21.385a80.507 80.507 0 0020.16 4.575s-6.87-45.438-6.87-58.418c0-12.979 6.11-33.232 6.11-33.232s9.165 22.92 12.98 25.975c3.815 3.055 19.09 6.482 18.718-7.645-.372-14.128-13.368-64.543-16.81-69.505-3.443-4.963-19.866-9.925-19.866-9.925l-17.104-7.646z" fill="#FF8562"/><path opacity=".26" d="M304.573 365.083a714.35 714.35 0 01-15.632 3.861s10.638 21.292 14.903 21.292h3.008c-1.256-10.328-2.279-20.16-2.279-25.153zm8.219-63.07c4.652 5.102 14.468 2.559 14.468 4.265 0 1.706-7.66 5.536-4.652 11.491s20.455 31.527 15.337 36.21c-1.473 1.349-6.203 3.102-12.127 5.056 5.552 2.45 16.919 3.365 16.593-8.855-.387-14.128-13.367-64.543-16.81-69.505-.031 0-17.508 16.221-12.809 21.338zm-12.407 5.971a8.77 8.77 0 00-2.621 9.211c1.753 5.691 8.328 11.398 6.576 14.469-1.753 3.07-14.919.884-14.469 5.272.45 4.389 14.035 18.858 14.035 18.858l5.691-25.883-9.212-21.927z" fill="#000"/><path d="M288.523 263.104s-4.963 17.571-11.073 39.731-4.962 90.875-4.962 94.705c0 3.83 8.777 17.554 18.717 21.385a80.507 80.507 0 0020.16 4.575s-6.87-45.438-6.87-58.418c0-12.979 6.11-33.232 6.11-33.232s9.165 22.92 12.98 25.975c3.815 3.055 19.09 6.482 18.718-7.645-.372-14.128-13.368-64.543-16.81-69.505-3.443-4.963-19.866-9.925-19.866-9.925l-17.104-7.646z" stroke="#263238" stroke-linecap="round" stroke-linejoin="round"/><path d="M288.662 255.428l-19.788 14.065 1.349 12.406 21.789-19.772-3.35-6.699z" fill="#fff" stroke="#263238" stroke-linecap="round" stroke-linejoin="round"/><path d="M295.02 358.585s-14.515-6.498-15.662-6.498c-1.148 0-12.592 6.11-14.888 6.11-2.295 0-3.442 1.551-1.907 2.683a8.28 8.28 0 004.203 1.147s-5.351 3.102-4.978 4.575c.372 1.473 3.442 2.667 3.442 2.667a14.047 14.047 0 006.498 5.35c3.815 1.148 17.182-3.427 17.182-3.427l10.313-.775-4.203-11.832z" fill="#fff"/><path d="M279.326 358.709c-4.652 1.039-14.096 10.56-14.096 10.56a14.052 14.052 0 006.497 5.351c3.815 1.147 17.183-3.428 17.183-3.428l10.312-.775-4.202-11.832s-11.042-.915-15.694.124z" fill="#FF8562"/><path opacity=".5" d="M279.326 358.709c-4.652 1.039-14.096 10.56-14.096 10.56a14.052 14.052 0 006.497 5.351c3.815 1.147 17.183-3.428 17.183-3.428l10.312-.775-4.202-11.832s-11.042-.915-15.694.124z" fill="#fff"/><path d="M295.02 358.585s-14.515-6.498-15.662-6.498c-1.148 0-12.592 6.11-14.888 6.11-2.295 0-3.442 1.551-1.907 2.683a8.28 8.28 0 004.203 1.147s-5.351 3.102-4.978 4.575c.372 1.473 3.442 2.667 3.442 2.667a14.047 14.047 0 006.498 5.35c3.815 1.148 17.182-3.427 17.182-3.427l10.313-.775-4.203-11.832z" stroke="#263238" stroke-linecap="round" stroke-linejoin="round"/><path d="M329.773 342.162l-35.9 14.515 2.667 15.275s48.073-6.87 50.415-10.312c2.342-3.443-6.498-22.921-6.498-22.921" fill="#FF8562"/><path opacity=".26" d="M295.718 367.254l.822 4.652s48.073-6.87 50.415-10.313c2.342-3.442-6.498-22.92-6.498-22.92l-5.133 1.659c2.962 6.203 4.652 11.662 2.59 13.601-3.846 3.566-29.666 10.235-42.196 13.321z" fill="#000"/><path d="M329.773 342.162l-35.9 14.515 2.667 15.275s48.073-6.87 50.415-10.312c2.342-3.443-6.498-22.921-6.498-22.921" stroke="#263238" stroke-linecap="round" stroke-linejoin="round"/><path d="M219.885 336.998s7.165-27.681 9.445-42.956l-9.445 42.956z" fill="#fff"/><path d="M219.885 336.998s7.165-27.681 9.445-42.956" stroke="#263238" stroke-linecap="round" stroke-linejoin="round"/><path d="M251.49 416.49l10.297 8.592 1.722 34.365" stroke="#fff" stroke-linecap="round" stroke-linejoin="round"/><path d="M310.683 331.85l-10.142-18.61s-2.931-3.907 2.931-13.677" stroke="#263238" stroke-linecap="round" stroke-linejoin="round"/><path d="M271.092 189.567c-16.314-2.202-25.123 8.809-22.486 12.406a5.034 5.034 0 002.822 2.125l2.032-.372s14.98.45 14.112 5.288c-.869 4.838-9.708 5.303-6.203 9.304a17.53 17.53 0 003.101 2.699h-.512a7.215 7.215 0 012.109 3.008c.605 1.815-2.713 16.888-3.318 18.098-.605 1.209-3.924-.311-8.142-3.319a16.952 16.952 0 00-7.536-3.319l-.295 2.714s4.218 1.21 4.823 3.613c.605 2.404-3.319 2.714-3.319 4.839 0 2.124-.295 5.908 2.559 8.234 2.853 2.327 11.476-1.333 11.476-1.333s6.466-4.497 7.381-9.305c.729-3.939 1.272-10.855 1.939-14.298a27.441 27.441 0 002.574-3.706s7.056-1.768 4.854 5.288-6.622 7.056-6.622 7.056a42.319 42.319 0 0016.283 5.366v-.109s13.228-14.98 14.112-26.89c.884-11.91-15.43-25.185-31.744-27.387z" fill="#263238" stroke="#263238" stroke-linecap="round" stroke-linejoin="round"/><path d="M312.73 412.706h-26.115v38.583h26.115v-38.583z" fill="#fff" stroke="#263238" stroke-linecap="round" stroke-linejoin="round"/><path d="M311.566 446.047h-2.775a2.157 2.157 0 010-4.311h2.729a4.078 4.078 0 004.078-4.078v-9.305a4.096 4.096 0 00-4.078-4.094h-3.505a2.167 2.167 0 01-1.641-.56 2.17 2.17 0 01-.697-1.588 2.157 2.157 0 012.338-2.148h3.505a8.384 8.384 0 015.932 2.458 8.403 8.403 0 012.458 5.932v9.305a8.403 8.403 0 01-8.344 8.389zm-137.257 4.73h-70.963a1.377 1.377 0 01-1.271-.822L82.38 405.231a1.378 1.378 0 011.272-1.938h70.963a1.359 1.359 0 011.256.837l19.648 44.802a1.37 1.37 0 01-.135 1.23 1.37 1.37 0 01-1.075.615z" fill="#fff" stroke="#263238" stroke-linecap="round" stroke-linejoin="round"/><path d="M167.672 447.288h-60.573a1.182 1.182 0 01-1.07-.698l-16.764-38.257a1.178 1.178 0 011.07-1.659h60.558a1.206 1.206 0 011.085.713l16.764 38.226a1.188 1.188 0 01-.076 1.131 1.184 1.184 0 01-.994.544z" fill="#263238" stroke="#263238" stroke-linecap="round" stroke-linejoin="round"/><path d="M102.354 451.304h106.615v-3.489H102.354v3.489z" fill="#fff" stroke="#263238" stroke-linecap="round" stroke-linejoin="round"/><path d="M102.354 451.304h51.687v-3.489h-51.687v3.489z" fill="#fff" stroke="#263238" stroke-linecap="round" stroke-linejoin="round"/><path d="M5.415 364.508a23.19 23.19 0 006.808.76s-1.039-3.102-1.132-3.35c-1.054-2.217-4.42-5.893-7.149-5.52a3.253 3.253 0 00-2.605 4.094 6.783 6.783 0 004.078 4.016z" fill="#263238"/><path d="M7.075 378.512a22.734 22.734 0 006.715-1.055c.7 2.471 1.57 4.891 2.605 7.242.59 1.38 1.24 2.745 1.892 4.094-.388-.574-.744-1.085-.806-1.147-1.551-1.861-5.8-4.513-8.344-3.428a3.26 3.26 0 00-1.442 4.653 6.785 6.785 0 004.994 2.807c2.21.011 4.407-.324 6.513-.993.263.512.512 1.039.775 1.551 1.256 2.497 2.512 4.962 3.66 7.444.419.868.79 1.736 1.163 2.605l-.698-1.008c-1.55-1.861-5.815-4.497-8.358-3.427a3.265 3.265 0 00-1.76 2.004 3.275 3.275 0 00.317 2.648 6.81 6.81 0 004.994 2.729c2.15.006 4.288-.313 6.342-.946.357.9.714 1.799 1.024 2.683.202.62.419 1.194.59 1.83l.511 1.83c.28 1.163.574 2.388.822 3.536.186.806.326 1.55.496 2.341-.403-.868-1.21-2.558-1.302-2.682-1.303-2.094-5.056-5.335-7.754-4.653a3.231 3.231 0 00-2.368 3.008 3.24 3.24 0 00.243 1.334 6.74 6.74 0 004.513 3.536 22.24 22.24 0 006.746 0c.248 1.287.496 2.528.698 3.706a176.857 176.857 0 011.442 9.925c0 .419.093.807.124 1.163h-8.25l1.008 19.602h18.16l1.007-19.602h-7.754c0-.108.109-.232.171-.356a154.476 154.476 0 004.11-9.305c.511-1.225 1.023-2.543 1.55-3.892 2.205.51 4.474.682 6.73.511a6.747 6.747 0 004.761-3.117 3.252 3.252 0 00-.646-3.789 3.248 3.248 0 00-1.152-.723c-2.606-.869-6.591 2.093-8.049 4.078-.093.109-.884 1.551-1.365 2.357.202-.558.42-1.101.62-1.674.42-1.133.807-2.28 1.21-3.505l.559-1.83c.186-.605.31-1.272.48-1.908a67.21 67.21 0 00.9-4.559 21.677 21.677 0 006.389 1.473 6.881 6.881 0 005.195-2.434 3.26 3.26 0 00-1.101-4.73c-2.45-1.256-6.839 1.07-8.576 2.807-.108.108-1.225 1.551-1.814 2.264.14-.93.294-1.861.419-2.807.325-2.729.589-5.505.852-8.265.093-.853.187-1.691.264-2.544a22.6 22.6 0 006.606 1.551 6.811 6.811 0 005.195-2.435 3.242 3.242 0 00-1.1-4.652c-2.435-1.272-6.824 1.055-8.576 2.791-.125.14-1.722 2.125-2.11 2.652.202-1.861.42-3.706.698-5.521a56.495 56.495 0 011.551-7.273 23.15 23.15 0 006.637 1.551 6.88 6.88 0 005.195-2.434 3.276 3.276 0 00-.075-3.84 3.264 3.264 0 00-1.026-.89c-2.45-1.256-6.838 1.07-8.575 2.807-.14.139-1.861 2.279-2.14 2.698.043-.143.08-.288.108-.434a42.264 42.264 0 012.947-6.901 42.872 42.872 0 011.97-3.458 21.949 21.949 0 006.28 2.217 6.813 6.813 0 005.428-1.845 3.273 3.273 0 00-.559-4.823c-2.295-1.551-6.916.31-8.84 1.845-.108.078-1.07 1.039-1.767 1.753.31-.481.62-.993.93-1.458 1.148-1.737 2.311-3.241 3.35-4.575l1.675-2.062a21.502 21.502 0 006.575-.931 6.799 6.799 0 003.97-4.14 3.258 3.258 0 00-2.73-4.001c-2.744-.295-5.985 3.458-6.993 5.691-.078.202-1.086 3.396-1.04 3.396a90.95 90.95 0 00-1.659 1.923c-1.07 1.318-2.264 2.823-3.458 4.528a58.852 58.852 0 00-3.582 5.723 42.428 42.428 0 00-3.102 6.901V373.1c-.31-2.435-2.357-6.963-5.055-7.46a3.275 3.275 0 00-3.768 3.102 6.836 6.836 0 002.62 5.086 22.643 22.643 0 006.203 2.823 59.382 59.382 0 00-1.814 7.49c-.264 1.473-.48 2.962-.682 4.451v-1.396c-.326-2.45-2.358-6.963-5.071-7.475a3.264 3.264 0 00-3.42 1.779 3.25 3.25 0 00-.333 1.323 6.78 6.78 0 002.605 5.102 21.792 21.792 0 005.986 2.76c0 .574-.14 1.148-.202 1.722-.34 2.76-.65 5.52-1.054 8.219-.14.945-.31 1.876-.465 2.806v-1.209c-.31-2.45-2.357-6.963-5.056-7.475a3.271 3.271 0 00-3.768 3.102 6.854 6.854 0 002.62 5.102 20.833 20.833 0 005.816 2.698c-.202.946-.403 1.907-.636 2.822-.186.605-.31 1.225-.511 1.83-.202.605-.404 1.21-.59 1.815-.419 1.132-.837 2.31-1.271 3.411-.295.76-.59 1.551-.884 2.218.155-.946.403-2.807.418-2.962a12.7 12.7 0 00-1.706-6.203 2.745 2.745 0 000-.713 3.257 3.257 0 00-3.985-2.761c-2.652.698-4.342 5.381-4.466 7.832 0 .139 0 1.721.155 2.713a45.472 45.472 0 00-.403-1.736c-.28-1.164-.59-2.342-.915-3.598-.186-.59-.372-1.194-.559-1.815-.17-.604-.418-1.24-.635-1.861a67.83 67.83 0 00-1.768-4.295 21.187 21.187 0 006.203-2.311 6.804 6.804 0 002.993-4.885 3.252 3.252 0 00-1.016-2.452 3.253 3.253 0 00-2.504-.882c-2.73.295-5.102 4.652-5.599 7.072 0 .139-.201 1.907-.263 2.884-.404-.853-.791-1.706-1.21-2.574-1.225-2.45-2.543-4.916-3.846-7.366l-1.178-2.264a22.106 22.106 0 006.373-2.358 6.79 6.79 0 002.978-4.884 3.24 3.24 0 00-3.722-3.459c-2.745.295-5.118 4.653-5.614 7.072 0 .17-.263 2.714-.294 3.365a115.203 115.203 0 01-2.482-4.993 56.988 56.988 0 01-2.683-6.932 22.88 22.88 0 006.405-2.373 6.816 6.816 0 002.993-4.885 3.252 3.252 0 00-2.157-3.088 3.258 3.258 0 00-1.317-.184c-2.744.295-5.117 4.652-5.613 7.071 0 .187-.28 2.916-.295 3.428l-.14-.419a42.898 42.898 0 01-1.395-7.335c-.155-1.365-.217-2.683-.264-3.955a22.071 22.071 0 006.467-1.628 6.826 6.826 0 003.504-4.528 3.255 3.255 0 00-3.101-3.706c-2.745 0-5.583 4.063-6.343 6.404 0 .124-.325 1.473-.511 2.45v-1.736c0-2.078.14-3.986.279-5.676 0-.962.17-1.83.263-2.637a21.61 21.61 0 004.963-4.404 6.831 6.831 0 001.023-5.629 3.252 3.252 0 00-3.163-2.166 3.24 3.24 0 00-1.318.321c-2.45 1.271-3.102 6.203-2.683 8.606 0 .217.946 3.428.992 3.397-.108.775-.217 1.55-.31 2.527-.17 1.691-.341 3.598-.388 5.692a55.8 55.8 0 00.156 6.745 42.366 42.366 0 001.256 7.46v.077c-.434-.682-1.706-2.543-1.83-2.667-1.551-1.861-5.8-4.513-8.343-3.443a3.26 3.26 0 00-1.443 4.652 6.799 6.799 0 004.963 2.761zm27.309 36.024a23.45 23.45 0 005.49 3.536c-.497 1.209-.993 2.388-1.551 3.473-1.644 3.815-3.102 6.917-4.265 9.088-.217.434-.419.806-.605 1.163h-.186a5.91 5.91 0 00-.186-1.396 160.324 160.324 0 00-1.675-9.987c-.248-1.302-.558-2.683-.868-4.109a36.175 36.175 0 003.846-1.768z" fill="#263238"/><path d="M54.295 365.578s.869-3.21.9-3.427c.341-2.435-.434-7.335-2.916-8.529a3.248 3.248 0 00-2.662-.001 3.256 3.256 0 00-1.773 1.986 6.825 6.825 0 001.179 5.614 23.026 23.026 0 005.272 4.357z" fill="#263238"/><path d="M11.557 451.304h578.961" stroke="#263238" stroke-width="2" stroke-linecap="round" stroke-linejoin="round"/></svg>