<svg width="19" height="19" fill="none" xmlns="http://www.w3.org/2000/svg"><path d="M15.042 7.125a2.375 2.375 0 00-2.233 1.583H2.375a.792.792 0 100 1.584h10.434a2.375 2.375 0 102.233-3.167zm0 3.167a.792.792 0 110-1.584.792.792 0 010 1.584zM2.375 5.542h.934a2.375 2.375 0 004.465 0h8.85a.792.792 0 000-1.584h-8.85a2.375 2.375 0 00-4.465 0h-.934a.792.792 0 100 1.584zm3.167-1.584a.792.792 0 110 1.584.792.792 0 010-1.584zm11.083 9.5H10.94a2.376 2.376 0 00-4.465 0h-4.1a.792.792 0 000 1.584h4.1a2.375 2.375 0 004.466 0h5.684a.792.792 0 100-1.584zm-7.917 1.584a.792.792 0 110-1.583.792.792 0 010 1.583z" fill="#fff"/></svg>