<svg width="480" height="463" fill="none" xmlns="http://www.w3.org/2000/svg"><path d="M326.519 93.45h91.553v83.142h-91.553V93.45z" fill="#FF8562"/><path opacity=".37" d="M326.519 93.45h91.553v83.142h-91.553V93.451z" fill="#000"/><path d="M352.829 93.45h65.243v83.142h-65.243V93.45z" fill="#FF8562"/><path d="M378.83 93.45h14.019v23.208H378.83V93.45zm-19.828 29.988h16.247v8.294h-16.247v-8.294zm7.437 29.541l16.743-4.144 2.469 9.976-16.744 4.143-2.468-9.975z" fill="#fff"/><path d="M258.292 93.45h91.553v83.142h-91.553V93.45z" fill="#FF8562"/><path opacity=".37" d="M258.292 93.45h91.552v83.142h-91.552V93.451z" fill="#000"/><path d="M284.602 93.45h65.243v83.142h-65.243V93.45z" fill="#FF8562"/><path d="M310.603 93.45h14.019v23.208h-14.019V93.45zm-19.828 29.988h16.246v8.294h-16.246v-8.294zm7.441 29.545l16.743-4.143 2.469 9.976-16.744 4.143-2.468-9.976z" fill="#fff"/><path d="M190.064 93.45h91.553v83.142h-91.553V93.45z" fill="#FF8562"/><path opacity=".37" d="M190.064 93.45h91.553v83.142h-91.553V93.451z" fill="#000"/><path d="M216.375 93.45h65.242v83.142h-65.242V93.45z" fill="#FF8562"/><path d="M242.376 93.45h14.018v23.208h-14.018V93.45zm-19.829 29.988h16.247v8.294h-16.247v-8.294zm7.446 29.551l16.743-4.144 2.469 9.976-16.744 4.144-2.468-9.976z" fill="#fff"/><path d="M121.837 93.45h91.553v83.142h-91.553V93.45z" fill="#FF8562"/><path opacity=".37" d="M121.837 93.45h91.553v83.142h-91.553V93.451z" fill="#000"/><path d="M148.147 93.45h65.243v83.142h-65.243V93.45z" fill="#FF8562"/><path d="M174.148 93.45h14.019v23.208h-14.019V93.45zm-19.828 29.988h16.246v8.294H154.32v-8.294zm7.439 29.555l16.744-4.143 2.468 9.975-16.743 4.144-2.469-9.976z" fill="#fff"/><path d="M326.519 207.518h91.553v83.141h-91.553v-83.141z" fill="#FF8562"/><path opacity=".37" d="M326.519 207.518h91.553v83.141h-91.553v-83.141z" fill="#000"/><path d="M352.829 207.518h65.243v83.141h-65.243v-83.141z" fill="#FF8562"/><path d="M378.83 207.518h14.019v23.208H378.83v-23.208zm-19.828 29.988h16.247v8.294h-16.247v-8.294zm7.452 29.537l16.744-4.144 2.468 9.976-16.743 4.144-2.469-9.976z" fill="#fff"/><path d="M258.292 207.518h91.553v83.141h-91.553v-83.141z" fill="#FF8562"/><path opacity=".37" d="M258.292 207.518h91.552v83.141h-91.552v-83.141z" fill="#000"/><path d="M284.602 207.518h65.243v83.141h-65.243v-83.141z" fill="#FF8562"/><path d="M310.603 207.518h14.019v23.208h-14.019v-23.208zm-19.828 29.988h16.246v8.294h-16.246v-8.294zm7.445 29.542l16.744-4.144 2.469 9.976-16.744 4.144-2.469-9.976z" fill="#fff"/><path d="M190.064 207.518h91.553v83.141h-91.553v-83.141z" fill="#FF8562"/><path opacity=".37" d="M190.064 207.518h91.553v83.141h-91.553v-83.141z" fill="#000"/><path d="M216.375 207.518h65.242v83.141h-65.242v-83.141z" fill="#FF8562"/><path d="M242.376 207.518h14.018v23.208h-14.018v-23.208zm-19.829 29.988h16.247v8.294h-16.247v-8.294zm7.45 29.547l16.744-4.144 2.469 9.976-16.744 4.143-2.469-9.975z" fill="#fff"/><path d="M121.837 207.518h91.553v83.141h-91.553v-83.141z" fill="#FF8562"/><path opacity=".37" d="M121.837 207.518h91.553v83.141h-91.553v-83.141z" fill="#000"/><path d="M148.147 207.518h65.243v83.141h-65.243v-83.141z" fill="#FF8562"/><path d="M174.148 207.518h14.019v23.208h-14.019v-23.208zm-19.828 29.988h16.246v8.294H154.32v-8.294zm7.454 29.552l16.744-4.144 2.469 9.976-16.744 4.143-2.469-9.975z" fill="#fff"/><path d="M326.519 321.586h91.553v83.141h-91.553v-83.141z" fill="#FF8562"/><path opacity=".37" d="M326.519 321.586h91.553v83.141h-91.553v-83.141z" fill="#000"/><path d="M352.829 321.586h65.243v83.141h-65.243v-83.141z" fill="#FF8562"/><path d="M378.83 321.586h14.019v23.208H378.83v-23.208zm-19.828 29.988h16.247v8.294h-16.247v-8.294zm7.457 29.533l16.743-4.143 2.469 9.975-16.744 4.144-2.468-9.976z" fill="#fff"/><path d="M258.292 321.586h91.553v83.141h-91.553v-83.141z" fill="#FF8562"/><path opacity=".37" d="M258.292 321.586h91.552v83.141h-91.552v-83.141z" fill="#000"/><path d="M284.602 321.586h65.243v83.141h-65.243v-83.141z" fill="#FF8562"/><path d="M310.603 321.586h14.019v23.208h-14.019v-23.208zm-19.828 29.988h16.246v8.294h-16.246v-8.294zm7.45 29.538l16.744-4.144 2.468 9.976-16.743 4.144-2.469-9.976z" fill="#fff"/><path d="M190.064 321.586h91.553v83.141h-91.553v-83.141z" fill="#FF8562"/><path opacity=".37" d="M190.064 321.586h91.553v83.141h-91.553v-83.141z" fill="#000"/><path d="M216.375 321.586h65.242v83.141h-65.242v-83.141z" fill="#FF8562"/><path d="M242.376 321.586h14.018v23.208h-14.018v-23.208zm-19.829 29.988h16.247v8.294h-16.247v-8.294zm7.455 29.543l16.744-4.144 2.468 9.976-16.743 4.144-2.469-9.976z" fill="#fff"/><path d="M121.837 321.586h91.553v83.141h-91.553v-83.141z" fill="#FF8562"/><path opacity=".37" d="M121.837 321.586h91.553v83.141h-91.553v-83.141z" fill="#000"/><path d="M148.147 321.586h65.243v83.141h-65.243v-83.141z" fill="#FF8562"/><path d="M174.148 321.586h14.019v23.208h-14.019v-23.208zm-19.828 29.988h16.246v8.294H154.32v-8.294zm7.459 29.548l16.744-4.144 2.469 9.976-16.744 4.144-2.469-9.976z" fill="#fff"/><path d="M113.362 62.897h319.816v14.925H113.362V62.897zm0 110.87h319.816v14.925H113.362v-14.925zm0 110.858h319.816v14.925H113.362v-14.925zm0 110.87h319.816v14.925H113.362v-14.925z" fill="#A3A3A3"/><path d="M52.597 0h13.858v453.073H52.597V0zm295.297 0h13.858v453.073h-13.858V0z" fill="#7A7A7A"/><path d="M55.795 62.897h65.029v14.925H55.795V62.897zm0 110.87h65.029v14.925H55.795v-14.925zm0 110.858h65.029v14.925H55.795v-14.925zm0 110.87h65.029v14.925H55.795v-14.925z" fill="#757575"/><path d="M420.385 0h13.859v453.073h-13.859V0zM266.874 0h13.858v453.073h-13.858V0zM113.362 0h13.859v453.073h-13.859V0z" fill="#A3A3A3"/><path d="M141.367 157.467h108.759v98.759H141.367v-98.759z" fill="#FF8562"/><path opacity=".37" d="M141.367 157.467h108.759v98.759H141.367v-98.759z" fill="#000"/><path d="M141.367 157.467h108.759v98.759H141.367v-98.759z" stroke="#263238" stroke-linecap="round" stroke-linejoin="round"/><path d="M172.613 157.467h77.513v98.759h-77.513v-98.759z" fill="#FF8562" stroke="#263238" stroke-linecap="round" stroke-linejoin="round"/><path d="M203.518 157.467h16.652v27.568h-16.652v-27.568z" fill="#fff" stroke="#263238" stroke-linecap="round" stroke-linejoin="round"/><path d="M179.948 193.084h19.306v9.85h-19.306v-9.85zm8.861 35.099l19.89-4.923 2.935 11.86-19.89 4.922-2.935-11.859z" fill="#fff"/><path d="M206.78 354.303h108.759v98.759H206.78v-98.759z" fill="#FF8562"/><path opacity=".37" d="M206.78 354.303h108.759v98.759H206.78v-98.759z" fill="#000"/><path d="M206.78 354.303h108.759v98.759H206.78v-98.759z" stroke="#263238" stroke-linecap="round" stroke-linejoin="round"/><path d="M238.026 354.303h77.513v98.759h-77.513v-98.759z" fill="#FF8562" stroke="#263238" stroke-linecap="round" stroke-linejoin="round"/><path d="M268.931 354.303h16.652v27.568h-16.652v-27.568z" fill="#fff" stroke="#263238" stroke-linecap="round" stroke-linejoin="round"/><path d="M288.696 435.238h19.306v9.85h-19.306v-9.85zm-40.546-45.422l19.889-4.922 2.935 11.86-19.89 4.922-2.934-11.86z" fill="#fff"/><path d="M126.805 354.303h108.759v98.759H126.805v-98.759z" fill="#FF8562"/><path opacity=".37" d="M126.805 354.303h108.759v98.759H126.805v-98.759z" fill="#000"/><path d="M126.805 354.303h108.759v98.759H126.805v-98.759z" stroke="#263238" stroke-linecap="round" stroke-linejoin="round"/><path d="M158.051 354.303h77.513v98.759h-77.513v-98.759z" fill="#FF8562" stroke="#263238" stroke-linecap="round" stroke-linejoin="round"/><path d="M188.956 354.303h16.652v27.568h-16.652v-27.568z" fill="#fff" stroke="#263238" stroke-linecap="round" stroke-linejoin="round"/><path d="M165.385 389.931h19.307v9.85h-19.307v-9.85zm42.984-6.81l19.889-4.922 2.935 11.859-19.889 4.922-2.935-11.859z" fill="#fff"/><path d="M45.785 354.303h108.759v98.759H45.785v-98.759z" fill="#FF8562"/><path opacity=".37" d="M45.785 354.303h108.759v98.759H45.785v-98.759z" fill="#000"/><path d="M45.785 354.303h108.759v98.759H45.785v-98.759z" stroke="#263238" stroke-linecap="round" stroke-linejoin="round"/><path d="M77.031 354.303h77.513v98.759H77.031v-98.759z" fill="#FF8562" stroke="#263238" stroke-linecap="round" stroke-linejoin="round"/><path d="M107.936 354.303h16.652v27.568h-16.652v-27.568z" fill="#fff" stroke="#263238" stroke-linecap="round" stroke-linejoin="round"/><path d="M84.365 389.931h19.307v9.85H84.365v-9.85zm42.99-6.802l19.889-4.923 2.935 11.86-19.889 4.922-2.935-11.859z" fill="#fff"/><path d="M169.277 255.81h108.758v98.759H169.277V255.81z" fill="#FF8562"/><path opacity=".37" d="M169.276 255.81h108.759v98.759H169.276V255.81z" fill="#000"/><path d="M169.277 255.81h108.758v98.759H169.277V255.81z" stroke="#263238" stroke-linecap="round" stroke-linejoin="round"/><path d="M200.523 255.81h77.512v98.759h-77.512V255.81z" fill="#FF8562" stroke="#263238" stroke-linecap="round" stroke-linejoin="round"/><path d="M231.438 255.81h16.652v27.568h-16.652V255.81z" fill="#fff" stroke="#263238" stroke-linecap="round" stroke-linejoin="round"/><path d="M207.857 291.438h19.306v9.85h-19.306v-9.85zm42.992-6.807l19.89-4.922 2.935 11.859-19.89 4.922-2.935-11.859z" fill="#fff"/><path d="M82.926 255.81h108.759v98.759H82.926V255.81z" fill="#FF8562"/><path opacity=".37" d="M82.926 255.81h108.759v98.759H82.926V255.81z" fill="#000"/><path d="M82.926 255.81h108.759v98.759H82.926V255.81z" stroke="#263238" stroke-linecap="round" stroke-linejoin="round"/><path d="M114.172 255.81h77.513v98.759h-77.513V255.81z" fill="#FF8562" stroke="#263238" stroke-linecap="round" stroke-linejoin="round"/><path d="M145.088 255.81h16.652v27.568h-16.652V255.81z" fill="#fff" stroke="#263238" stroke-linecap="round" stroke-linejoin="round"/><path d="M121.507 291.438h19.306v9.85h-19.306v-9.85zm38.2 16.548l19.889-4.922 2.935 11.859-19.889 4.922-2.935-11.859z" fill="#fff"/><path d="M467.931 453.062H1" stroke="#263238" stroke-linecap="round" stroke-linejoin="round"/><path d="M384.992 421.23s4.478 9.093 7.676 14.232c3.198 5.138 9.136 11.897 8.528 17.846-.607 5.948-6.801 6.588-13.176 3.198s-12.11-10.192-13.859-15.298c-1.748-5.107-7.228-9.349-7.228-15.085 0-5.735.427-6.396 2.548-7.014 2.122-.619 13.39-1.493 15.511 2.121z" fill="#fff" stroke="#263238" stroke-linecap="round" stroke-linejoin="round"/><path d="M366.933 426.112v-2.206a40.408 40.408 0 002.132 5.181c2.346 4.68 5.747 7.462 7.015 13.176 1.269 5.714 9.349 12.324 16.364 14.019 7.015 1.695 8.528-4.03 8.528-4.03h.256c.026.355.026.711 0 1.066-.639 5.949-6.801 6.588-13.176 3.198s-12.11-10.191-13.859-15.298c-1.748-5.106-7.26-9.37-7.26-15.106z" fill="#263238" stroke="#263238" stroke-linecap="round" stroke-linejoin="round"/><path d="M384.139 425.047s-2.558 3.613-11.055 2.558m11.269.426a12.247 12.247 0 01-8.923 2.548m9.776 0a8.782 8.782 0 01-7.463 2.762m8.315.852s-1.492 2.975-7.227 2.335" stroke="#263238" stroke-linecap="round" stroke-linejoin="round"/><path d="M330.602 429.257a36.047 36.047 0 01-12.792 12.111c-8.284 4.466-18.912 7.462-19.754 9.594a3.568 3.568 0 001.268 4.467c1.066.629 16.791 1.066 25.074-.426 4.675-1 9.453-1.429 14.232-1.28 3.827 0 12.11 1.066 13.176-3.614 1.066-4.68-1.695-21.672-1.695-21.672s-12.494 3.624-19.509.82z" fill="#fff" stroke="#263238" stroke-miterlimit="10"/><path d="M299.367 455.44a3.49 3.49 0 01-1.535-3.39 69.922 69.922 0 0010.031 1.684c8.529.853 21.247-1.908 31.236-2.335 7.334-.309 11.343-2.004 12.952-2.867a11.033 11.033 0 01-.202 1.588c-1.066 4.68-9.35 3.614-13.177 3.614a59.253 59.253 0 00-14.231 1.279c-8.284 1.482-24.008 1.056-25.074.427z" fill="#263238" stroke="#263238" stroke-miterlimit="10"/><path d="M327.415 434.193a13.484 13.484 0 013.827 4.883m-6.375-1.706s2.761 2.345 2.761 3.827m-5.522-1.695a17.64 17.64 0 011.695 3.827m-5.949-1.919s1.706 1.493 1.706 2.975" stroke="#263238" stroke-miterlimit="10"/><path d="M390.61 203.606s6.759 32.163 6.226 49.752c-.533 17.59-24.519 61.298-24.519 61.298s12.793 31.449 13.326 45.308c.533 13.858-.555 58.473-.555 58.473s-5.33 3.091-10.159 3.091c-4.83 0-10.597-2.43-10.597-2.43l-12.27-47.973-.533 58.1a22.898 22.898 0 01-11.727 3.198 20.675 20.675 0 01-11.726-3.731s-8.529-61.298-9.595-71.425c-1.066-10.128-7.995-40.51-8.528-42.643-.533-2.132-10.661-35.712-10.661-62.897 0-27.184 7.814-43.527 7.814-43.527s27.366-6.044 47.621-6.577a217.253 217.253 0 0135.883 1.983z" fill="#263238" stroke="#263238" stroke-linecap="round" stroke-linejoin="round"/><path d="M348.331 363.162s-13.859-39.444-13.859-49.038c0-9.595 9.062-69.294 9.062-69.294m-3.732 18.123s-7.995-9.061-10.66-14.392" stroke="#878787" stroke-miterlimit="10"/><path d="M308.173 121.882s-11.013 6.397-17.057 15.991c-6.045 9.595-19.189 50.105-18.475 60.403.714 10.298 3.902 13.155 13.144 11.374 9.243-1.78 9.947-12.078 12.079-20.606 2.132-8.529 13.507-62.546 13.507-62.546l.351-4.978-3.549.362z" fill="#fff" stroke="#263238" stroke-linecap="round" stroke-linejoin="round"/><path d="M272.641 198.276c-.362-5.245 2.868-18.337 6.929-31.182l22.483 3.112c-1.886 8.742-3.507 16.087-4.189 18.806-2.132 8.528-2.836 18.826-12.078 20.606-9.243 1.781-12.441-1.034-13.145-11.342z" fill="#CFCFCF" stroke="#263238" stroke-linecap="round" stroke-linejoin="round"/><path d="M381.73 118.684s8.529 1.77 10.661 16.695c2.132 14.924-2.847 39.444-2.847 39.444l1.066 28.783s-35.531 9.243-50.104 9.243-33.4-4.616-33.4-4.616 7.815-71.788 9.243-77.822c1.429-6.034 7.814-12.089 13.145-15.991 5.33-3.902 18.837-3.561 26.651-1.428 7.814 2.132 18.837 6.396 18.837 6.396l6.748-.704z" fill="#fff" stroke="#263238" stroke-linecap="round" stroke-linejoin="round"/><path d="M356.145 108.727s-7.462 30.212-8.177 50.819c-.714 20.607 3.198 84.57 3.198 84.57s16.705.714 28.784-1.418c12.078-2.132 20.617-3.198 20.617-3.198l-10.66-66.447s-14.573 1.066-17.771-9.243c-3.198-10.308 1.066-30.915 4.978-37.312 3.913-6.396 4.616-7.814 4.616-7.814l-25.585-9.957zm-32.333 28.08s-7.825 29.849-7.111 59.699c.714 29.849 1.066 45.84 1.066 45.84s-17.057-1.066-26.651-4.978c0 0 5.33-69.646 10.308-90.263 4.979-20.617 6.749-25.223 6.749-25.223l19.903-8.176-4.264 23.101z" fill="#FF8562" stroke="#263238" stroke-linecap="round" stroke-linejoin="round"/><path d="M348.491 102.928s7.462 1.386 9.424 5.266c1.961 3.881-7.761 35.756-7.761 35.756l-14.136-11.642-17.462 9.979s3.326-24.115 10.532-32.43c7.207-8.315 19.403-6.929 19.403-6.929z" fill="#fff" stroke="#263238" stroke-linecap="round" stroke-linejoin="round"/><path d="M351.539 82.704s.278 27.984-2.771 35.18c-3.049 7.196-11.087 17.739-14.136 16.076-3.049-1.663-3.881-21.897-4.435-23.282-.554-1.386-2.772-12.793-2.772-12.793s19.957-5.5 24.114-15.18z" fill="#CFCFCF" stroke="#263238" stroke-linecap="round" stroke-linejoin="round"/><path d="M351.539 82.704s.107 11.237-.586 21.321a19.838 19.838 0 01-12.537 6.866 25.2 25.2 0 01-8.198-.107.184.184 0 000-.074c-.554-1.386-2.771-12.793-2.771-12.793s19.935-5.533 24.092-15.213z" fill="#263238" stroke="#263238" stroke-linecap="round" stroke-linejoin="round"/><path d="M320.357 178.991l2.133 1.3 12.334-20.159a1.248 1.248 0 00-1.353-1.857 1.24 1.24 0 00-.769.557l-12.345 20.159z" fill="#fff" stroke="#263238" stroke-linecap="round" stroke-linejoin="round"/><path d="M381.73 118.684s8.177.703 13.145 10.298c4.967 9.594 12.792 54.731 14.221 67.876 1.428 13.144-6.397 12.078-7.463 12.078-1.066 0-57.567-18.827-57.567-18.827l-19.188-2.132s2.132 1.77.351 1.77c-1.78 0-5.33-3.55-6.748-5.682-1.418-2.132 4.264-13.859 6.397-15.277 2.132-1.418 21.321 12.793 21.321 12.793l37.311 2.484-9.594-32.696" fill="#fff"/><path d="M381.73 118.684s8.177.703 13.145 10.298c4.967 9.594 12.792 54.731 14.221 67.876 1.428 13.144-6.397 12.078-7.463 12.078-1.066 0-57.567-18.827-57.567-18.827l-19.188-2.132s2.132 1.77.351 1.77c-1.78 0-5.33-3.55-6.748-5.682-1.418-2.132 4.264-13.859 6.397-15.277 2.132-1.418 21.321 12.793 21.321 12.793l37.311 2.484-9.594-32.696" stroke="#263238" stroke-linecap="round" stroke-linejoin="round"/><path d="M324.878 168.789c2.132-1.429 21.321 12.792 21.321 12.792l37.311 2.484-2.366-8.059 23.869-5.384c1.972 10.949 3.518 21.065 4.083 26.236 1.418 13.144-6.397 12.078-7.463 12.078-1.066 0-57.567-18.826-57.567-18.826l-19.188-2.132s2.132 1.769.351 1.769c-1.78 0-5.33-3.55-6.748-5.682-1.418-2.132 4.264-13.859 6.397-15.276z" fill="#CFCFCF" stroke="#263238" stroke-linecap="round" stroke-linejoin="round"/><path d="M324.877 168.789c2.133-1.429 21.322 12.792 21.322 12.792l5.436.363a20.484 20.484 0 01-2.462 9.861l-5.107-1.695-19.189-2.132s2.133 1.769.352 1.769c-1.78 0-5.33-3.55-6.748-5.682-1.418-2.132 4.264-13.859 6.396-15.276z" fill="#666" stroke="#263238" stroke-linecap="round" stroke-linejoin="round"/><path d="M306.04 152.084l36.246 50.818-47.62-1.78-34.466-46.906 45.84-2.132z" fill="#263238" stroke="#263238" stroke-linecap="round" stroke-linejoin="round"/><path d="M290.039 150.591l2.782 4.626-20.841.47-2.782-4.638 20.841-.458z" fill="#263238" stroke="#263238" stroke-linecap="round" stroke-linejoin="round"/><path d="M275.956 180.92c1.637.598 3.342.992 5.075 1.173 2.132.096 4.094 1.172 4.094 2.249 0 1.077-3.806 1.269-6.535 1.269s-4.872-.587-5.331-2.346c-.458-1.759.16-3.315 2.697-2.345z" fill="#666" stroke="#263238" stroke-linecap="round" stroke-linejoin="round"/><path d="M273.504 176.155a26.99 26.99 0 006.397 1.492c2.718.118 5.191 1.482 5.191 2.836 0 1.354-4.818 1.61-8.283 1.61-3.464 0-6.183-.736-6.801-2.964-.619-2.228.277-4.211 3.496-2.974z" fill="#666" stroke="#263238" stroke-linecap="round" stroke-linejoin="round"/><path d="M271.532 172.082a26.943 26.943 0 006.397 1.493c2.729.117 5.202 1.482 5.202 2.836 0 1.353-4.829 1.609-8.294 1.609-3.465 0-6.183-.735-6.801-2.963-.619-2.228.277-4.211 3.496-2.975z" fill="#666" stroke="#263238" stroke-linecap="round" stroke-linejoin="round"/><path d="M270.2 167.477a27.172 27.172 0 006.396 1.482c2.718.118 5.192 1.482 5.192 2.847 0 1.364-4.819 1.609-8.284 1.609-3.464 0-6.183-.746-6.801-2.974-.618-2.228.277-4.2 3.497-2.964zm115.986 240.8s.224 11.045-.213 12.793c-.437 1.748-8.177 3.966-13.027 3.966-4.851 0-7.953-1.066-8.838-2.42-.885-1.354-2.42-10.384-2.42-10.384s17.217 3.561 24.498-3.955z" fill="#666" stroke="#263238" stroke-linecap="round" stroke-linejoin="round"/><path d="M361.752 73.835a20.79 20.79 0 0120.501 3.88c9.701 8.316 1.066 23.283-9.147 24.946-10.213 1.664-16.897-3.048-18.56-10.532-1.663-7.484 1.087-18.57 7.206-18.294z" fill="#263238" stroke="#263238" stroke-linecap="round" stroke-linejoin="round"/><path d="M312.714 71.34s1.386 13.86 4.157 23.56c2.772 9.701 9.979 13.305 20.255 11.919 10.277-1.386 16.077-9.701 19.403-19.402 3.326-9.701 3.603-23.006 3.603-23.006l-47.418 6.93z" fill="#CFCFCF" stroke="#263238" stroke-linecap="round" stroke-linejoin="round"/><path d="M358.682 71.064s-3.326 3.048-10.788-2.218c-7.463-5.266-3.881-7.76-3.881-7.76l17.739 1.065-3.07 8.913z" fill="#263238" stroke="#263238" stroke-linecap="round" stroke-linejoin="round"/><path d="M323.758 74.666s1.386 4.158.555 5.544c-.832 1.386-3.049 3.326-.555 5.544a4.024 4.024 0 003.469 1.088 4.02 4.02 0 002.928-2.155m9.061 2.367s-4.264 5.533-12.345 2.985" stroke="#263238" stroke-linecap="round" stroke-linejoin="round"/><path d="M333.182 76.33c0 1.535.618 2.772 1.386 2.772.767 0 1.386-1.237 1.386-2.772 0-1.535-.619-2.772-1.386-2.772-.768 0-1.386 1.237-1.386 2.772zm-15.244 2.196c0 1.535.618 2.772 1.385 2.772.768 0 1.386-1.237 1.386-2.772 0-1.535-.618-2.772-1.386-2.772-.767 0-1.385 1.258-1.385 2.772z" fill="#263238"/><path d="M339.003 70.232s-3.881-4.435-8.87 0m-8.891 2.218a4.614 4.614 0 00-5.82.276" stroke="#263238" stroke-linecap="round" stroke-linejoin="round"/><path d="M362.818 65.52l-51.554 5.544s.554-26.055.832-30.479c.277-4.424 20.788-10.533 28.783-9.978 7.995.554 18.016 5.266 19.679 7.462 1.663 2.196 2.26 27.451 2.26 27.451z" fill="#FF8562" stroke="#263238" stroke-linecap="round" stroke-linejoin="round"/><path d="M340.666 68.291l-45.723 6.098s12.185-10.532 21.886-11.364c9.701-.831 23.837 5.267 23.837 5.267z" fill="#FF8562" stroke="#263238" stroke-linecap="round" stroke-linejoin="round"/><path d="M356.742 73.004s1.066-8.593 5.82-8.593c4.755 0 2.495 6.93 1.941 11.364-.555 4.435-5.821 5.544-7.761 3.88" fill="#CFCFCF"/><path d="M356.742 73.004s1.066-8.593 5.82-8.593c4.755 0 2.495 6.93 1.941 11.364-.555 4.435-5.821 5.544-7.761 3.88" stroke="#263238" stroke-linecap="round" stroke-linejoin="round"/><path d="M351.966 419.759l-.661 10.383s-2.932 2.196-11.503 2.313c-8.571.118-11.726-3.731-11.726-3.731l-1.717-11.193s15.895 7.526 25.607 2.228z" fill="#666" stroke="#263238" stroke-linecap="round" stroke-linejoin="round"/></svg>