<svg width="358" height="362" fill="none" xmlns="http://www.w3.org/2000/svg"><path d="M85.72 77.28a3.667 3.667 0 01-.505 2.043 3.534 3.534 0 01-1.535 1.4c-.637.3-1.347.396-2.037.277a3.47 3.47 0 01-1.838-.942 3.619 3.619 0 01-1.007-1.839 3.681 3.681 0 01.172-2.1 3.58 3.58 0 011.29-1.641 3.441 3.441 0 011.965-.616c.449-.012.895.067 1.313.233.419.165.802.414 1.126.731a3.5 3.5 0 01.767 1.119c.181.42.28.874.29 1.334z" fill="#263238" stroke="#263238" stroke-miterlimit="10"/><path d="M30.16 8.72l-5.278 73.004s-7.038 5.68-8.602 12.948c-1.564 7.268-.313 39.799.305 46.426.618 6.627.923 28.079 1.236 41.717.312 13.638.922 33.79 3.386 37.264 2.463 3.474 8.601 7.269 17.203 7.902 8.602.634 18.416-1.38 28.88-2.647 10.462-1.268 24.694-7.461 25.023-14.441.328-6.979 4.316-58.756 4.621-63.802.305-5.046 2.769-10.109 2.463-17.377-.304-7.268 0-32.852-1.227-38.508-1.228-5.656-10.479-9.82-10.479-9.82l.618-2.526-12.011-2.84-1.119 2.848s-18.595-1.605-26.587-.634L46.379 9.056a8.43 8.43 0 00-2.41-5.655 8.017 8.017 0 00-5.543-2.4 8.008 8.008 0 00-5.632 2.17 8.42 8.42 0 00-2.634 5.548z" fill="#263238" stroke="#263238" stroke-miterlimit="10"/><path d="M55.38 86.97s-14.858.883-18.768 3.755-4.95 6.619-5.38 11.697c-.43 5.078-1.29 33.341-1.072 37.096.22 3.754 1.502 9.274 1.502 15.892a96.256 96.256 0 00.649 11.488l17.65 6.619s11.4-7.285 18.079-6.843c6.678.441 13.34 3.53 13.34 3.53l13.56-7.943s-.219-18.772.43-21.195c.65-2.423 1.29-4.196 1.29-7.068s.86-32.675.86-36.213c0-3.538-3.229-7.06-7.53-8.608-4.3-1.549-22.341-3.53-34.61-2.207z" fill="#FF8562" stroke="#263238" stroke-miterlimit="10"/><path d="M58.07 86.738a14.757 14.757 0 019.29-2.495c5.137.553 7.037 2.768 7.037 2.768s-13.645-.506-16.328-.273z" fill="#7A7A7A"/><path d="M40.64 98.996s-.189 23.097.562 26.94c.75 3.842 7.32 11.36 13.294 13.084 0 0 2.056.803 3.37 0 1.314-.802 6.569-3.265 11.824-2.88 5.255.385 6.936 1.926 7.874 1.733.939-.192 6.757-3.658 10.315-8.472 3.558-4.813 3.566-11.351 3.753-13.084.188-1.733-.563-16.55-.782-18.283-.218-1.733-2.627-1.926-5.622-2.503-2.995-.578-15.945-1.348-28.151-.578-12.207.77-15.687 2.543-16.438 4.043zm49.147 35.026l-10.878 8.079v6.354s.376 1.54 2.44 1.155c2.065-.385 7.687-2.503 8.438-3.466.75-.962 1.69-9.627 1.501-10.966a1.348 1.348 0 00-.51-.907 1.29 1.29 0 00-.47-.229 1.286 1.286 0 00-.521-.02zm-35.072 10.582s.563 4.011.187 5.006c-.375.995-1.876 1.54-3.19 1.54s-9.196-.963-10.166-1.925c-.97-.963-1.869-10.967-.938-11.93.93-.962 14.107 7.309 14.107 7.309zm5.865 6.691s-.782 9.627-.556 10.429a1.192 1.192 0 00.451.803 1.133 1.133 0 00.879.216c2.429.174 4.867.174 7.296 0 2.541-.337 4.308-1.132 4.426-2.158.117-1.027 0-9.756-.446-10.317-.446-.562-.993-.682-2.346-.803-1.353-.12-8.602.562-9.29.907a.712.712 0 00-.392.374.74.74 0 00-.022.549zm-5.529 5.671s-9.29-1.708-11.057-1.813c-1.767-.104-2.878.45-2.987 2.15-.11 1.701.218 7.493.445 7.83.227.337 7.515 3.209 8.29 2.953.774-.257 5.2-2.495 5.528-2.953.328-.457.336-5.896.446-6.923a1.098 1.098 0 00-.104-.75 1.06 1.06 0 00-.56-.494zm32.398-4.765s-9.142 2.158-9.924 2.72c-.782.562-.664 1.139-.782 2.046-.117.906.227 5.896.227 5.896s4.09 2.495 4.974 2.271c.883-.225 7.296-3.209 7.405-4.541.11-1.332.446-6.466.336-7.26-.11-.795-1.024-1.244-2.236-1.132z" fill="#263238" stroke="#263238" stroke-miterlimit="10"/><path d="M68.838 143.954c.107.457.073.937-.098 1.373a2.25 2.25 0 01-.855 1.061 2.165 2.165 0 01-2.554-.125 2.263 2.263 0 01-.753-1.139 2.315 2.315 0 01.03-1.376c.15-.445.43-.83.802-1.104a2.168 2.168 0 011.277-.422 1.925 1.925 0 011.418.419c.401.323.664.794.733 1.313v0z" stroke="#263238" stroke-miterlimit="10"/><path d="M80.442 124.941l-29.207.714a2.306 2.306 0 01-1.7-.682 2.41 2.41 0 01-.524-.789 2.456 2.456 0 01-.185-.936v-17.569c0-.629.24-1.233.668-1.683a2.322 2.322 0 011.624-.724l29.215-.714c.312-.007.623.049.914.167.291.117.556.294.78.518.224.224.401.492.523.788.121.295.183.613.183.934v17.569c0 .629-.24 1.232-.667 1.682a2.32 2.32 0 01-1.624.725z" fill="#fff" stroke="#263238" stroke-miterlimit="10"/><path d="M49.765 181.307c-.415.02-.82-.13-1.128-.417a1.634 1.634 0 01-.105-2.269 1.55 1.55 0 011.084-.523c.18 0 18.486-1.854 31.28-3.073.414-.039.828.092 1.148.365a1.64 1.64 0 01.205 2.269 1.557 1.557 0 01-1.064.575c-12.809 1.211-31.108 3.048-31.28 3.064l-.14.009zm-6.577 9.201a1.54 1.54 0 01-1.122-.43 1.622 1.622 0 01-.496-1.118 1.63 1.63 0 01.419-1.151 1.55 1.55 0 011.09-.51c.305 0 30.693-2.27 41.445-4.869.397-.081.81-.001 1.15.224.34.225.583.576.676.98.093.405.03.83-.176 1.187-.207.358-.54.619-.93.729-10.948 2.656-40.664 4.814-41.915 4.95l-.14.008zm-1.798 10.02c-.415.02-.82-.129-1.128-.416a1.623 1.623 0 01-.51-1.112 1.63 1.63 0 01.405-1.157 1.55 1.55 0 011.084-.524c13.38-1.34 39.936-4.324 44.683-6.049a1.528 1.528 0 011.169.095c.363.186.641.509.776.902a1.64 1.64 0 01-.053 1.201 1.582 1.582 0 01-.852.827c-6.256 2.286-43.791 6.057-45.418 6.217l-.156.016zm35.705 4.365c-13.56 2.029-33.735 3.915-34.76 4.011h-.148a1.544 1.544 0 01-1.126-.419 1.623 1.623 0 01-.508-1.113 1.63 1.63 0 01.408-1.156c.28-.315.67-.502 1.086-.521.305 0 30.747-2.88 42.086-5.287a1.531 1.531 0 011.227.183c.181.114.338.266.46.445a1.628 1.628 0 01.252 1.245 1.624 1.624 0 01-.25.596 1.586 1.586 0 01-.46.446 1.55 1.55 0 01-.596.222 74.138 74.138 0 01-4.449.802m-32.75 12.539a1.542 1.542 0 01-1.12-.433 1.624 1.624 0 01-.494-1.119 1.63 1.63 0 01.422-1.15 1.548 1.548 0 011.09-.507c.235 0 23.265-1.652 31.194-3.835a1.535 1.535 0 011.25.103c.19.105.358.248.49.423a1.62 1.62 0 01.315 1.245 1.593 1.593 0 01-.678 1.082 1.53 1.53 0 01-.595.244c-8.226 2.262-30.834 3.875-31.795 3.939l-.079.008zM16.28 101.379s0-3.073.594-3.482c.595-.41 4.786.209 4.982 1.436.195 1.227.782 29.041 0 32.09-.782 3.048-3.989 2.655-4.778 1.227" stroke="#7A7A7A" stroke-miterlimit="10"/><path d="M18.876 133.894s.196 5.928.399 10.22c.203 4.292 1.79 16.158 1.392 23.113-.399 6.956 1.189 46.595 1.189 46.595s.398 5.519 1.4 6.955m3.988-4.621c.028 1.622.227 3.236.594 4.814 1.392 3.073 3.386 4.501 4.981 4.91m-6.545-57.161c.07 12.427.266 32.78.782 44.124m69.55-123.738a35.148 35.148 0 00-15.17-5.93c-8.97-1.227-26.315-.609-35.878 1.228-9.564 1.837-17.298 4.268-20.512 9.611-3.214 5.343-2.19 42.945-1.564 48.063.626 5.118 2.792 8.584 2.792 17.377v5.776" stroke="#7A7A7A" stroke-miterlimit="10"/><path d="M32.623 170.292s-.398 46.627-.398 49.29c0 2.663 2.588 5.72 7.773 6.338 5.184.617 21.113-1.019 31.694-2.656M51 123.096l26.025-1.003a2.797 2.797 0 001.899-.846 2.94 2.94 0 00.83-1.946l.547-14.857" stroke="#263238" stroke-miterlimit="10"/><path d="M31.138 30.18l1.47-22.76S35.134.936 38.426 1M19.494 97.496s-.367-7.477 3.277-9.346c3.644-1.87 5.098-7.501 5.098-7.501l3.026-46.771m.251 40.449s10.572-.746 15.64-2.992m-16.368 6.731s10.565-.746 15.64-2.993" stroke="#7A7A7A" stroke-miterlimit="10"/><path opacity=".3" d="M324.454 71.206s-12.207-23.65-34.58-27.124c-22.372-3.473-24.413 14.61-27.127 19.479-2.713 4.87-14.912-8.351-26.439-2.784-11.526 5.568-7.46 18.083-12.207 20.169-4.746 2.085-13.559-3.506-18.33 1.395-4.77 4.902-4.691 13.214-4.691 13.214H357s-3.394-15.3-12.887-21.565c-9.493-6.265-10.878 6.266-19.659-2.784zM152.768 24.845s-6.154-11.922-17.438-13.639c-11.284-1.716-12.309 7.365-13.677 9.82-1.369 2.455-7.523-4.204-13.333-1.396-5.81 2.808-3.761 9.114-6.154 10.172-2.393 1.06-6.843-1.756-9.236.698-2.392 2.455-2.392 6.667-2.392 6.667h78.636s-1.704-7.718-6.49-10.878c-4.786-3.161-5.474 3.12-9.916-1.444z" stroke="#000" stroke-miterlimit="10"/><path d="M354.904 204.363c0 39.847-19.643 55.748-43.877 55.748s-43.87-15.901-43.87-55.748c0-39.848 19.644-98.372 43.87-98.372s43.877 58.532 43.877 98.372z" fill="#FF8562"/><path opacity=".4" d="M354.904 204.363c0 39.847-19.643 55.748-43.877 55.748s-43.87-15.901-43.87-55.748c0-39.848 19.644-98.372 43.87-98.372s43.877 58.532 43.877 98.372z" fill="#fff"/><path d="M305.475 350.155h10.252l-3.754-137.753.391 5.198 23.483-29.097-23.897 23.161-.845-30.975 10.119-12.186-10.236 7.87-.399-14.689-.766 28.134-11.644-7.677 11.558 11.007-4.262 157.007z" fill="#BABABA"/><path d="M308.368 236.694l-20.378-14.088 20.378 19.094v-5.006z" fill="#BABABA"/><path d="M157.288 214.167l-59.564 17.994s-33.422 60.281-35.463 72.403c-2.041 12.122-10.612 45.64-10.612 45.64h257.415s8.602-51.89 9.384-59.006 2.854-10.044 2.854-10.044-23.663-36.414-28.558-41.853-66.469-20.505-66.469-20.505-26.517-6.282-37.942-7.951c-11.425-1.668-31.045 3.322-31.045 3.322z" fill="#fff" stroke="#263238" stroke-miterlimit="10"/><path d="M310.777 339.774l-13.349-29.242-28.441-13.951-20.988 2.11 12.511 51.512h48.546s.72-4.235 1.721-10.429z" fill="#263238" stroke="#263238" stroke-miterlimit="10"/><path d="M169.55 184.868l1.22 19.671 21.622 16.527 11.307 20.024 9.095-19.391 9.79-11.295 2.854-35.58-55.888 10.044z" fill="#fff" stroke="#263238" stroke-miterlimit="10"/><path d="M170.77 204.54l7.319 5.599 21.63-15.314-3.081-11.858-6.334-1.829-20.754 3.731 1.22 19.671z" fill="#263238" stroke="#263238" stroke-miterlimit="10"/><path d="M184.017 230.685l13.223 11.672 7.992 14.192 1.142 93.606h26.759l-18.447-89.354-1.603-7.325 6.6-23.425-19.456 1.083-10.987-11.809-5.223 11.36z" fill="#FF8562" stroke="#263238" stroke-miterlimit="10"/><path d="M205.232 256.549l7.851-3.073m-15.843-11.119l2.987-11.223 18.385-1.284" stroke="#263238" stroke-miterlimit="10"/><path d="M166.289 194.6l-13.059 18.733 28.558 31.809 14.279-27.205-29.778-23.337z" fill="#fff" stroke="#263238" stroke-miterlimit="10"/><path d="M240.288 219.325c-.727.658-1.227 10.092.923 11.039 2.15.946 49.265 9.627 51.533 8.913 2.268-.714 2.901-7.02 1.056-7.967-1.846-.946-51.048-14.191-53.512-11.985z" fill="#263238" stroke="#263238" stroke-miterlimit="10"/><path d="M159.29 121.419s.454 42.014.899 46.161c.446 4.148 12.825 28.159 14.858 29.78 2.033 1.62 7.648 3.923 11.472 3.457 3.824-.465 25.876-11.311 31.944-15.459 6.068-4.148 12.379-19.39 12.379-19.39s8.774-3.923 11.73-9.002c2.956-5.078.899-16.614.672-17.769l-.227-1.156s-1.345-12.234-2.924-15.924c-1.58-3.69-22.498-17.313-38.02-22.158-15.523-4.846-30.146-2.078-35.542 6.001a53.928 53.928 0 00-7.241 15.459z" fill="#fff" stroke="#263238" stroke-miterlimit="10"/><path d="M196.231 140.568s2.675 3.851 9.384 4.669m-29.739-4.115s-5.623 3.843-7.765 4.396" stroke="#263238" stroke-miterlimit="10"/><path d="M243.205 139.213s-2.252-3.699-4.277-2.544c-2.026 1.156-6.069 8.079-7.195 7.389-1.126-.69-5.176-15.924-5.849-19.847-.672-3.923 2.471-3.466 4.497-1.605 2.025 1.861 12.824 14.513 12.824 16.607z" fill="#263238" stroke="#263238" stroke-miterlimit="10"/><path d="M231.28 124.885l11.925 14.328s.673-20.313 0-30.237c-.672-9.924-13.724-25.391-20.926-30.004-7.202-4.613-26.994-8.311-34.188-5.768-7.195 2.543-20.254 7.38-21.599 12.226-1.345 4.846-6.076 20.987-6.076 20.987s15.296-6.924 24.969-3.209c9.673 3.714 36.448 17.77 37.801 18.692 1.353.923 8.094 2.985 8.094 2.985z" fill="#FF8562" stroke="#263238" stroke-miterlimit="10"/><path d="M150.289 115.418s-2.025 3 1.564 5.311a8.568 8.568 0 003.635 1.198 8.513 8.513 0 003.786-.508s5.404-12.459 14.624-14.537c9.219-2.078 14.67.241 14.67.241s-8.547-6.924-16.876-6.466c-8.328.457-19.823 10.838-21.403 14.761z" fill="#263238" stroke="#263238" stroke-miterlimit="10"/><path d="M150.289 115.418s12.152-15.002 26.776-12.459c14.623 2.543 28.347 25.158 36.221 27.236 7.875 2.078 17.986-5.311 17.986-5.311s-24.07-22.39-46.794-25.615c-22.725-3.225-33.508 12.226-34.189 16.149z" fill="#FF8562" stroke="#263238" stroke-miterlimit="10"/><path d="M178.402 140.577l-2.542 12.274a5.992 5.992 0 00.738 4.335 5.727 5.727 0 003.469 2.588c1.147.32 2.332.466 3.519.434m-10.799 9.915a14.253 14.253 0 006.976 3.923 15.932 15.932 0 0011.933-2.744" stroke="#263238" stroke-miterlimit="10"/><path d="M172.146 138.499c0 1.404-.782 2.543-1.799 2.543-1.016 0-1.798-1.139-1.798-2.543 0-1.404.782-2.535 1.798-2.535 1.017 0 1.799 1.139 1.799 2.535zm30.114-1.38c0 1.404-.782 2.535-1.798 2.535-1.017 0-1.799-1.131-1.799-2.535 0-1.404.782-2.543 1.799-2.543 1.016 0 1.798 1.139 1.798 2.543z" fill="#263238"/><path d="M163.341 133.196c.445-.698 4.95-5.544 12.824-2.311m16.649-.922s7.875-6.234 17.321 2.078" stroke="#263238" stroke-width="3" stroke-miterlimit="10" stroke-linecap="round"/><path d="M204.638 156.565a4.983 4.983 0 011.486-1.804 4.827 4.827 0 012.126-.908c2.229-.288 7.234 2.407 7.648 2.712.413.24.897.314 1.36.207a1.91 1.91 0 001.143-.785c.836-1.139 8.484-18.684 8.484-18.684a5.851 5.851 0 013.33.548 6.048 6.048 0 012.512 2.308l-8.071 22.824s1.119 4.011.423 5.985c-.696 1.973-4.591 6.707-4.591 6.707l-15.85-19.11z" fill="#263238" stroke="#263238" stroke-miterlimit="10"/><path d="M222.428 173.934s-18.557-21.533-21.646-22.688c-3.089-1.155-8.171.449-9.274 3.851-1.103 3.401-.446 5.214-.446 5.214s-5.521.45-7.734 2.945c-2.213 2.495-.883 6.345-.883 6.345s-1.173.907-2.682 4.421c-1.51 3.514.477 5.551.477 5.551s-2.87 1.605-3.128 4.533c-.258 2.928.883 4.757 2.213 7.028 1.329 2.27 10.603 26.963 13.035 29.908 2.432 2.944 13.247 14.737 13.247 14.737l7.515 10.646 21.208-22.664-8.399-10.646 4.864-26.947s1.564-13.823 1.322-15.411a80.67 80.67 0 01-.219-11.328c.219-4.99-2.432-7.22-5.302-4.308-2.87 2.912-2.432 13.823-2.432 14.729 0 .907-1.736 4.084-1.736 4.084z" fill="#fff" stroke="#263238" stroke-miterlimit="10"/><path d="M222.428 173.934s5.302 7.019 5.528 9.972m-36.894-23.57s8.172 4.982 12.59 11.328m-21.207-2.038a34.86 34.86 0 0111.268 9.29m-13.473.682s7.733 5.215 9.939 8.825" stroke="#263238" stroke-miterlimit="10"/><path d="M231.929 216.533s-24.171 27.501-23.288 27.726c.884.225 21.302 33.237 21.302 33.237l27.612-38.748-25.626-22.215z" fill="#fff" stroke="#263238" stroke-miterlimit="10"/><path d="M229.943 277.496s5.075 11.56 7.507 13.598c2.432 2.038 42.227 47.373 44.69 49.466 2.464 2.094 31.413 8.368 37.536 5.44 6.123-2.929 11.425-30.975 11.425-38.508 0-7.533-8.571-24.677-9.799-26.362-1.227-1.685-25.297-11.713-30.184-18.837-14.076-20.521-33.563-23.546-33.563-23.546l-27.612 38.749z" fill="#fff" stroke="#263238" stroke-miterlimit="10"/><path d="M314.468 307.548a33.17 33.17 0 011.673 5.816l-1.673-5.816z" fill="#fff"/><path d="M314.468 307.548a33.17 33.17 0 011.673 5.816" stroke="#263238" stroke-miterlimit="10"/><path d="M293.831 273.188s13.255 17.336 19.432 31.44l-19.432-31.44z" fill="#fff"/><path d="M293.831 273.188s13.255 17.336 19.432 31.44" stroke="#263238" stroke-miterlimit="10"/><path d="M248.882 282.398a46.609 46.609 0 003.824 4.011l-3.824-4.011z" fill="#fff"/><path d="M248.882 282.398a46.609 46.609 0 003.824 4.011" stroke="#263238" stroke-miterlimit="10"/><path d="M239.827 264.058s.954 7.549 7.241 16.045l-7.241-16.045z" fill="#fff"/><path d="M239.827 264.058s.954 7.549 7.241 16.045" stroke="#263238" stroke-miterlimit="10"/><path d="M92.68 230.669s8.602 4.099 12.301 3.787c3.699-.313 43.666-16.727 45.207-18.621 1.54-1.893-.618-5.671-3.996-5.992-3.378-.321-53.809 17.681-53.512 20.826z" fill="#263238" stroke="#263238" stroke-miterlimit="10"/><path d="M108.617 269.658c4.895 15.243 11.902 38.685 13.294 51.569 2.15 20.192 1.564 28.391 1.564 28.391m-19.722-94.641s.954 2.751 2.432 7.22" stroke="#263238" stroke-miterlimit="10"/><path d="M74.538 268.222l7.038-2.84 3.691 6.001s-12.91 38.171-15.069 39.43c-2.158 1.26-4.606 2.215-7.038-1.259a8.677 8.677 0 01-1.415-3.488 8.767 8.767 0 01.188-3.773l12.605-34.071z" fill="#263238" stroke="#263238" stroke-miterlimit="10"/><path d="M167.18 308.278l25.126-3.185-3.637-16.141" fill="#fff"/><path d="M167.18 308.278l25.126-3.185-3.637-16.141" stroke="#263238" stroke-miterlimit="10"/><path d="M188.067 280.264l-59.298 9.306 4.841 22.968 28.042-3.554" fill="#fff"/><path d="M188.067 280.264l-59.298 9.306 4.841 22.968 28.042-3.554" stroke="#263238" stroke-miterlimit="10"/><path d="M194.042 334.848c.422 3.209.703 5.616.703 6.25l-.703-6.25z" fill="#fff"/><path d="M194.042 334.848c.422 3.209.703 5.616.703 6.25" stroke="#263238" stroke-miterlimit="10"/><path d="M190.491 310.091s1.564 10.79 2.831 19.679l-2.831-19.679z" fill="#fff"/><path d="M190.491 310.091s1.564 10.79 2.831 19.679m-55.177 8.296l.915 4.893m-4.84-26.073l3.159 17.048" stroke="#263238" stroke-miterlimit="10"/></svg>