<svg width="62" height="56" fill="none" xmlns="http://www.w3.org/2000/svg"><path d="M15.179 7.909H5.828a.997.997 0 00-.997.998v6.54a.997.997 0 00.997.998h9.35a.997.997 0 00.998-.997V8.907a.997.997 0 00-.997-.998zM6.825 9.904h2.676v4.552H6.825V9.904zm7.36 4.552H11.51V9.904h2.676v4.552zm14.087-6.547h-9.351a.995.995 0 00-.998.998v6.54a.995.995 0 00.998.998h9.351a.995.995 0 00.998-.997V8.907a.996.996 0 00-.998-.998zm-8.355 1.995h2.676v4.552h-2.676V9.904zm7.352 4.552h-2.676V9.904h2.676v4.552zm-12.09 9.274H5.828a.997.997 0 00-.997.997v6.541a.998.998 0 00.997.996h9.35a.997.997 0 00.998-.996V24.73a.996.996 0 00-.997-1zm-8.354 1.994h2.676v4.553H6.825v-4.553zm7.36 4.553H11.51v-4.553h2.676v4.553zm14.087-6.547h-9.351a.997.997 0 00-.998.997v6.541a.996.996 0 00.998.996h9.351a.995.995 0 00.998-.996V24.73a.996.996 0 00-.998-1zm-8.355 1.994h2.676v4.553h-2.676v-4.553zm7.352 4.553h-2.676v-4.553h2.676v4.553zm-12.09 9.273H5.828a.995.995 0 00-.997.997v6.541a.995.995 0 00.997.998h9.35a.995.995 0 00.998-.998v-6.541a.995.995 0 00-.997-.998zm-8.354 1.993h2.676v4.552H6.825v-4.552zm7.36 4.552H11.51v-4.552h2.676v4.552zm14.087-6.545h-9.351a.994.994 0 00-.998.997v6.541a.993.993 0 00.998.998h9.351a.993.993 0 00.998-.998v-6.541a.994.994 0 00-.998-.998zm-8.355 1.993h2.676v4.552h-2.676v-4.552zm7.352 4.552h-2.676v-4.552h2.676v4.552z" fill="#404040"/><path d="M60.38 15.976H34.107V.996A.998.998 0 0033.11 0H.998A.994.994 0 000 .996v54.008A.996.996 0 00.998 56H60.38a.994.994 0 00.997-.996V16.972a.998.998 0 00-.997-.996zM1.995 1.994h30.111v52.012H1.996V1.994zm57.386 52.012H34.107V17.97h25.274v36.036z" fill="#404040"/><path d="M37.701 29.835h7.015a.998.998 0 00.997-.998V23.5a.996.996 0 00-.997-.997H37.7a.997.997 0 00-.997.997v5.337a.997.997 0 00.997.998zm.998-5.339h5.019v3.345h-5.02v-3.345zm10.069 5.339h7.014a.998.998 0 00.996-.998V23.5a.997.997 0 00-.996-.997h-7.014a.997.997 0 00-.998.997v5.337a.997.997 0 00.998.998zm.996-5.339h5.02v3.345h-5.02v-3.345zM37.701 39.654h7.015a.998.998 0 00.997-.998V33.32a.996.996 0 00-.997-.997H37.7a.997.997 0 00-.997.997v5.337a.997.997 0 00.997.998zm.998-5.339h5.019v3.349h-5.02v-3.349zm10.069 5.339h7.014a.998.998 0 00.996-.998V33.32a.997.997 0 00-.996-.997h-7.014a.997.997 0 00-.998.997v5.337a.997.997 0 00.998.998zm.996-5.339h5.02v3.349h-5.02v-3.349zM37.701 49.473h7.015a.997.997 0 00.997-.997v-5.337a.996.996 0 00-.997-.998H37.7a.997.997 0 00-.997.998v5.337a.997.997 0 00.997.997zm.998-5.338h5.019v3.34h-5.02v-3.34zm10.069 5.338h7.014a.997.997 0 00.996-.997v-5.337a.997.997 0 00-.996-.998h-7.014a.997.997 0 00-.998.998v5.337a.997.997 0 00.998.997zm.996-5.338h5.02v3.34h-5.02v-3.34z" fill="#404040"/></svg>