<svg width="48" height="56" fill="none" xmlns="http://www.w3.org/2000/svg"><path d="M23.517 19.039h1.307v1.306a2.054 2.054 0 002.053 2.054h2.24a2.054 2.054 0 002.054-2.054V19.04h1.306a2.054 2.054 0 002.054-2.054v-2.24a2.054 2.054 0 00-2.053-2.053H31.17v-1.307a2.055 2.055 0 00-2.054-2.053h-2.24a2.054 2.054 0 00-2.053 2.053v1.307h-1.307a2.054 2.054 0 00-2.053 2.053v2.24a2.054 2.054 0 002.053 2.054zm-.186-4.294c0-.103.083-.186.186-.186h2.24a.933.933 0 00.934-.934v-2.24c0-.103.083-.187.186-.187h2.24a.187.187 0 01.187.187v2.24a.933.933 0 00.934.934h2.24a.187.187 0 01.186.186v2.24a.187.187 0 01-.187.187h-2.24a.933.933 0 00-.933.933v2.24a.187.187 0 01-.187.187h-2.24a.187.187 0 01-.186-.187v-2.24a.934.934 0 00-.934-.933h-2.24a.187.187 0 01-.186-.187v-2.24zm-11.523 9.547a.934.934 0 001.614-.939 24.112 24.112 0 01-2.68-6.935.933.933 0 00-1.822.403 26.007 26.007 0 002.888 7.471zm-1.545-11.227a.933.933 0 11-1.867 0 .933.933 0 011.867 0zm36.553-.929a.94.94 0 00-1.023.835 26.02 26.02 0 01-1.733 7.327.934.934 0 001.732.699 27.9 27.9 0 001.859-7.84.933.933 0 00-.835-1.021zm-2.504 11.687a.933.933 0 11-1.867 0 .933.933 0 011.867 0z" fill="#404040"/><path d="M43.927 6.268a1.843 1.843 0 00-2.288-1.69C36.093 5.914 31.163 2.17 29.304.499a1.951 1.951 0 00-2.606 0c-1.874 1.667-6.837 5.415-12.34 4.082a1.874 1.874 0 00-2.29 1.69c-.58 8.26.362 19.968 15.153 26.237.496.21 1.056.209 1.552 0 14.793-6.27 15.733-17.978 15.154-26.24zM28.044 30.79a.139.139 0 01-.093 0C14.41 25.05 13.343 14.744 13.919 6.395c6.367 1.537 11.923-2.638 14.018-4.508a.085.085 0 01.116 0c2.084 1.867 7.616 6.047 14 4.475.609 8.36-.457 18.679-14.01 24.428z" fill="#404040"/><path d="M.93 56h6.687a.937.937 0 00.467-.125l4.517-2.614.078.135a2.055 2.055 0 002.8.746l3.624-2.092a2.052 2.052 0 00.747-2.8l-.078-.135 2.042-1.18 10.733.346a4.638 4.638 0 003.296-1.362l9.873-9.83a3.289 3.289 0 00-.242-4.848 3.372 3.372 0 00-4.47.317l-4.838 4.837a3.137 3.137 0 00-2.539-1.237h-4.875l-2.688-1.613c-1.24-.746-5.556-3.017-9.06-1.065l-4.7 2.713-.078-.136a2.054 2.054 0 00-2.8-.746L5.803 37.4a2.058 2.058 0 00-.747 2.8l.078.136-4.667 2.697a.933.933 0 00-.467.809v11.224c0 .513.415.93.929.933zm16.994-20.896c2.081-1.159 5.074-.22 7.18 1.043l2.91 1.746a.94.94 0 00.48.133h5.13a1.454 1.454 0 011.404 1.4 1.4 1.4 0 01-1.4 1.4h-5.134a.933.933 0 000 1.867h5.134a3.256 3.256 0 003.255-3.374l5.441-5.44a1.493 1.493 0 011.968-.191 1.408 1.408 0 01.107 2.08l-9.869 9.84a2.77 2.77 0 01-1.947.819l-10.972-.354a.91.91 0 00-.497.124l-2.275 1.31-5.6-9.7 4.685-2.703zm-11.183 3.91l3.622-2.092a.206.206 0 01.249.067l7.623 13.205a.207.207 0 01-.068.248l-3.622 2.093a.187.187 0 01-.248-.068L6.673 39.265a.204.204 0 01.067-.252zm-4.878 5.364l4.205-2.426 5.6 9.7-4.298 2.482H1.863v-9.755z" fill="#404040"/></svg>