<svg width="61" height="56" fill="none" xmlns="http://www.w3.org/2000/svg"><path d="M14.424 10.994h13.595a.457.457 0 00.457-.457V5.739a.457.457 0 00-.457-.458H14.425a.457.457 0 00-.458.458v4.798a.45.45 0 00.457.457zm.457-4.798h12.67v3.873H14.88V6.196zm-.457 8.604h32.715a.457.457 0 100-.916H14.424a.457.457 0 00-.458.458c-.01.243.204.457.458.457zm-.001 4.923H47.14a.457.457 0 100-.915H14.423a.457.457 0 100 .915zm26.391 4.467a.457.457 0 00-.458-.457H14.423a.457.457 0 100 .915h25.933a.445.445 0 00.458-.458zm-.457 4.01H21.215a.457.457 0 100 .914h19.142a.457.457 0 100-.915zm0 4.455H21.215a.457.457 0 100 .915h19.142a.457.457 0 100-.915zm0 4.458H21.215a.457.457 0 100 .915h19.142a.457.457 0 100-.915zm-8.252 4.466H14.423a.457.457 0 100 .915h17.682a.457.457 0 100-.915zm15.035 9.226h-3.347c1.051-1.042 2.637-2.92 2.56-4.564a.448.448 0 00-.487-.438.46.46 0 00-.437.487c.058 1.158-1.139 2.675-2.141 3.707.078-.934.01-2.102-.672-2.764-.526-.506-1.294-.612-2.277-.32-1.245.379-2.112 1.021-2.579 1.916-.39.74-.408 1.47-.35 1.976h-2.092a.457.457 0 100 .914H47.14a.457.457 0 100-.914zm-8.553-1.547c.35-.662 1.032-1.149 2.024-1.45.643-.195 1.1-.156 1.373.097.574.555.418 2.082.262 2.9h-3.902a2.492 2.492 0 01.243-1.547zm12.601-25.632l-5.635 1.985a.471.471 0 00-.31.438v5.672c0 2.861 1.43 4.516 5.886 6.812a.53.53 0 00.215.05c.077 0 .145-.02.214-.05 4.456-2.286 5.887-3.94 5.887-6.812V26.05a.471.471 0 00-.312-.438L51.5 23.626a.427.427 0 00-.311 0zm5.333 2.744v5.342c0 2.423-1.217 3.815-5.178 5.878-3.96-2.063-5.177-3.455-5.177-5.878V26.37l5.178-1.82 5.177 1.82z" fill="#000"/><path d="M49.3 30.758a.452.452 0 00-.651 0 .452.452 0 000 .652l1.42 1.42a.464.464 0 00.331.137.5.5 0 00.331-.136l4.087-4.088a.452.452 0 000-.651.452.452 0 00-.651 0l-3.756 3.756-1.11-1.09zM19.738 43.846a3.95 3.95 0 00-3.941 3.942 3.95 3.95 0 003.94 3.94 3.95 3.95 0 003.942-3.94 3.944 3.944 0 00-3.941-3.942zm0 6.958a3.02 3.02 0 01-3.017-3.017 3.02 3.02 0 013.017-3.017 3.02 3.02 0 013.017 3.017 3.02 3.02 0 01-3.017 3.017z" fill="#000"/><path d="M52.227 41.525C57.917 38.73 61 36.234 61 31.3v-8.016a.48.48 0 00-.316-.445l-8.457-2.983V8.313c0-.06-.01-.12-.04-.179a.392.392 0 00-.099-.148v-.01L44.263.139h-.01a.547.547 0 00-.148-.1C44.046.02 43.986 0 43.927 0h-32.97c-.948 0-1.719.773-1.719 1.724v25.384h-4.85a2.25 2.25 0 00-2.135-1.555A2.255 2.255 0 000 27.81v8.303a2.255 2.255 0 002.253 2.26c.998 0 1.828-.655 2.124-1.556H7.53V53.73c0 .505.168.961.444 1.338H.464a.464.464 0 00-.464.465c0 .258.207.466.464.466h60.052a.464.464 0 00.464-.466.464.464 0 00-.464-.465h-8.497c.119-.238.198-.506.198-.783v-12.76h.01zm7.825-10.226c0 4.489-2.797 6.708-8.3 9.413-5.503-2.705-8.3-4.924-8.3-9.413V23.61l8.3-2.922 8.3 2.922v7.69zM44.402 1.605l6.224 6.232h-5.434a.783.783 0 01-.781-.782v-5.45h-.01zM2.252 37.432A1.322 1.322 0 01.94 36.114v-8.302c0-.724.593-1.318 1.314-1.318a1.32 1.32 0 011.314 1.318v8.302a1.309 1.309 0 01-1.314 1.318zm2.263-9.383h10.601v7.828h-10.6v-7.828zM8.477 53.74V36.847h2.678V53.74a1.339 1.339 0 01-2.677 0zm3.162 1.338a2.26 2.26 0 00.445-1.338V36.819h3.152a2.25 2.25 0 002.134 1.555 2.255 2.255 0 002.252-2.259v-8.302a2.255 2.255 0 00-2.252-2.26 2.25 2.25 0 00-2.134 1.556h-5.059V1.724c0-.436.356-.783.78-.783h32.506v6.113c0 .951.77 1.724 1.719 1.724h6.096v11.077l-8.457 2.982a.48.48 0 00-.316.446V31.3c0 4.934 3.082 7.43 8.773 10.224v12.772a.783.783 0 01-.78.783h-38.86zm5.731-28.585c.721 0 1.314.594 1.314 1.318v8.303c0 .723-.593 1.317-1.314 1.317a1.322 1.322 0 01-1.314-1.317V27.81a1.309 1.309 0 011.314-1.318z" fill="#000"/></svg>