<svg width="53" height="55" fill="none" xmlns="http://www.w3.org/2000/svg"><path d="M50.96 25.48c0-6.802-2.65-13.2-7.465-18.016C38.68 2.648 32.282 0 25.48 0c-6.802 0-13.2 2.649-18.016 7.464C2.648 12.28 0 18.678 0 25.48c0 6.802 2.649 13.199 7.464 18.015 4.816 4.816 11.214 7.464 18.016 7.464 3.805 0 7.565-.853 10.977-2.48l-.224 5.354v.033c0 .438.258.853.65 1.033.405.18.854.112 1.202-.18l4.905-4.231 4.905 4.231c.213.18.471.281.73.281.157 0 .314-.034.46-.101.392-.18.65-.584.65-1.033v-.033l-.46-11.056a9.746 9.746 0 003.469-7.464 9.718 9.718 0 00-2.077-6.016c.191-1.257.292-2.537.292-3.817zM25.48 49.388c-13.178 0-23.908-10.73-23.908-23.908S12.302 1.572 25.48 1.572s23.908 10.73 23.908 23.908c0 .785-.045 1.582-.112 2.368a9.748 9.748 0 00-6.286-2.29 9.751 9.751 0 00-7.745 3.828V12.909a.78.78 0 00-.785-.786h-1.965V9.957a.78.78 0 00-.785-.786H19.25a.78.78 0 00-.785.786v2.166H16.5a.78.78 0 00-.786.786v28.095a.78.78 0 00.786.785h19.182c.315.36.651.685 1.01.988l-.168 3.906a23.87 23.87 0 01-11.044 2.705zm-2.279-9.17v-5.186h4.21v5.185H23.2zm4.995-6.758h-5.78a.78.78 0 00-.786.786v5.971h-4.344V13.694h16.388v18.7a9.692 9.692 0 00-.449 2.93 9.65 9.65 0 001.325 4.894h-5.556v-5.972a.805.805 0 00-.797-.785zm2.728-21.337H20.048v-1.38h10.876v1.38zm17.218 40.733l-4.389-3.782a1.128 1.128 0 00-.763-.304c-.292 0-.55.113-.752.303l-4.389 3.783.382-9.013A9.685 9.685 0 0043 45.089a9.684 9.684 0 004.77-1.246l.371 9.013zm-5.152-9.339a8.196 8.196 0 01-8.194-8.194 8.196 8.196 0 018.194-8.193 8.196 8.196 0 018.194 8.194 8.196 8.196 0 01-8.194 8.193z" fill="#404040"/><path d="M47.075 31.497l-5.388 5.387-2.772-2.806a.782.782 0 00-1.111 0c-.303.314-.315.808 0 1.111l3.333 3.368a.799.799 0 001.123.01l5.938-5.937a.793.793 0 000-1.111c-.326-.325-.82-.325-1.123-.022zM26.5 16.254h-2.03a.78.78 0 00-.786.786.78.78 0 00.785.785h2.032a.78.78 0 00.786-.785.788.788 0 00-.786-.786zm0 4.399h-2.03a.78.78 0 00-.786.786.78.78 0 00.785.786h2.032a.78.78 0 00.786-.786.788.788 0 00-.786-.786zm3.57-2.828h2.032a.78.78 0 00.785-.786.78.78 0 00-.785-.785H30.07a.78.78 0 00-.786.785c0 .438.36.786.786.786zm0 4.399h2.032a.78.78 0 00.785-.785.78.78 0 00-.785-.786H30.07a.78.78 0 00-.786.786c0 .438.36.785.786.785zm-9.18-5.97h-2.032a.78.78 0 00-.786.786.78.78 0 00.786.785h2.032a.78.78 0 00.785-.785.788.788 0 00-.785-.786zm0 4.399h-2.032a.78.78 0 00-.786.786.78.78 0 00.786.786h2.032a.78.78 0 00.785-.786.788.788 0 00-.785-.786zm5.61 4.49h-2.03a.78.78 0 00-.786.786.78.78 0 00.785.786h2.032a.78.78 0 00.786-.786.788.788 0 00-.786-.786zm3.57 1.571h2.032a.78.78 0 00.785-.785.78.78 0 00-.785-.786H30.07a.78.78 0 00-.786.785c0 .438.36.786.786.786zm-9.18-1.571h-2.032a.78.78 0 00-.786.786.78.78 0 00.786.786h2.032a.78.78 0 00.785-.786.788.788 0 00-.785-.786zm5.61 4.49h-2.03a.78.78 0 00-.786.786.78.78 0 00.785.785h2.032a.78.78 0 00.786-.785.788.788 0 00-.786-.786zm3.57 1.571h2.032a.78.78 0 00.785-.786.78.78 0 00-.785-.785H30.07a.78.78 0 00-.786.785c0 .438.36.786.786.786zm-9.18-1.571h-2.032a.78.78 0 00-.786.786.78.78 0 00.786.785h2.032a.78.78 0 00.785-.785.788.788 0 00-.785-.786z" fill="#404040"/></svg>