<svg width="55" height="55" fill="none" xmlns="http://www.w3.org/2000/svg"><path d="M47.687 41.336c-.508 0-.846.344-.846.86 0 1.374-1.099 2.491-2.452 2.491-1.352 0-2.452-1.117-2.452-2.492 0-.515-.338-.86-.845-.86-.084 0-3.467-.343-5.411 3.008a5.917 5.917 0 00-5.158-3.007h-.254c-.507 0-.845.344-.845.86 0 1.374-1.1 2.491-2.452 2.491-1.353 0-2.452-1.117-2.452-2.492 0-.515-.338-.86-.846-.86h-.253a5.917 5.917 0 00-5.158 3.008c-1.945-3.351-5.327-3.007-5.412-3.007-.507 0-.845.344-.845.86 0 1.374-1.1 2.491-2.452 2.491-1.352 0-2.452-1.117-2.452-2.492 0-.515-.338-.86-.845-.86-.085 0-6.257.087-6.257 6.102v6.704c0 .515.339.859.846.859h52.421c.508 0 .846-.344.846-.86v-6.616c-.17-6.102-6.342-6.102-6.426-6.188zM1.522 47.523a4.426 4.426 0 013.89-4.383c.338 1.891 2.029 3.266 3.973 3.266 1.945 0 3.636-1.374 4.059-3.265 2.198.258 3.89 2.062 3.89 4.383v5.757h-2.622v-3.007c0-.516-.338-.86-.845-.86-.508 0-.846.344-.846.86v3.007H5.834v-3.007c0-.516-.338-.86-.845-.86-.507 0-.846.344-.846.86v3.007h-2.62v-5.758zm17.503 0a4.426 4.426 0 013.889-4.383c.423 1.891 2.03 3.266 4.058 3.266 1.945 0 3.636-1.375 4.059-3.265 2.198.257 3.89 2.062 3.89 4.382v5.758h-2.622v-3.007c0-.516-.338-.86-.846-.86-.507 0-.845.344-.845.86v3.007h-7.187v-3.007c0-.516-.338-.86-.845-.86-.508 0-.846.344-.846.86v3.007h-2.62v-5.758h-.084zm33.229 5.758h-2.622v-3.007c0-.516-.338-.86-.845-.86-.507 0-.846.344-.846.86v3.007h-7.186v-3.007c0-.516-.339-.86-.846-.86-.507 0-.845.344-.845.86v3.007h-2.622v-5.757a4.426 4.426 0 013.89-4.383c.422 1.89 2.029 3.265 4.058 3.265 1.945 0 3.636-1.374 4.059-3.265 2.198.258 3.89 2.062 3.89 4.383v5.757h-.085z" fill="#404040"/><path d="M39.485 37.125c0 2.75 2.199 4.984 4.904 4.984 2.706 0 4.904-2.235 4.904-4.984 0-2.75-2.198-4.985-4.904-4.985s-4.904 2.235-4.904 4.985zm8.117 0c0 1.804-1.438 3.265-3.213 3.265-1.775 0-3.213-1.46-3.213-3.265 0-1.805 1.438-3.266 3.213-3.266 1.775 0 3.213 1.46 3.213 3.266zm-25.619 0c0 2.75 2.198 4.984 4.904 4.984 2.705 0 4.904-2.235 4.904-4.984 0-2.75-2.199-4.985-4.904-4.985-2.706 0-4.904 2.235-4.904 4.985zm4.904-3.266c1.775 0 3.213 1.461 3.213 3.266 0 1.804-1.438 3.265-3.213 3.265-1.776 0-3.213-1.46-3.213-3.265 0-1.805 1.437-3.266 3.213-3.266zm-17.503 8.25c2.706 0 4.904-2.235 4.904-4.985 0-2.75-2.198-4.984-4.904-4.984-2.705 0-4.904 2.234-4.904 4.984s2.2 4.986 4.904 4.986zm0-8.25c1.776 0 3.213 1.46 3.213 3.265 0 1.805-1.437 3.266-3.213 3.266-1.775 0-3.213-1.461-3.213-3.266S7.61 33.86 9.384 33.86z" fill="#404040"/><path d="M27.141 32.14c.508 0 .846-.343.846-.859v-7.133l.254.258a.808.808 0 001.183 0 .84.84 0 000-1.203l-1.69-1.719a.808.808 0 00-1.184 0l-1.691 1.72a.84.84 0 000 1.202.808.808 0 001.183 0l.254-.258v7.133c0 .43.338.86.845.86zm12.175-17.875c.254.43.761.515 1.184.172.423-.258.507-.774.169-1.203l-.253-.344c1.775.688 3.044 2.32 3.044 4.21v13.58c0 .515.338.86.845.86.507 0 .845-.345.845-.86V17.1c0-2.664-1.775-4.984-4.312-5.844l.254-.171c.423-.258.507-.774.254-1.203-.254-.43-.761-.516-1.184-.258l-2.198 1.374c-.17.086-.339.344-.423.602a.676.676 0 00.169.687l1.606 1.977zM9.384 31.797c.508 0 .846-.344.846-.86V17.275c0-1.891 1.268-3.524 3.128-4.211l-.253.43c-.254.43-.17.945.253 1.203.423.258.93.171 1.184-.258l1.438-2.063c.169-.171.169-.43.169-.687-.085-.258-.17-.43-.423-.516l-2.199-1.289c-.422-.258-.93-.086-1.183.344-.254.43-.085.945.338 1.203l.254.172c-2.452.945-4.228 3.18-4.228 5.843v13.492c-.169.43.254.86.677.86zm8.456-19.594l1.86.258c.084.258.169.515.338.773l-1.184 1.547c-.253.344-.253.86.085 1.117l2.029 2.063c.338.344.761.344 1.1.086l1.521-1.203c.254.085.507.258.761.343l.254 1.891c.084.43.423.774.845.774h2.79c.423 0 .762-.344.846-.774l.338-1.89c.254-.086.507-.172.76-.344l1.523 1.203c.338.258.845.258 1.1-.086l2.028-2.062c.338-.344.338-.774.085-1.118l-1.184-1.547c.084-.258.254-.515.338-.773l1.86-.258c.423-.086.761-.43.761-.86V8.509c0-.43-.338-.774-.76-.86l-1.86-.258c-.085-.258-.17-.515-.339-.773l1.184-1.547c.254-.344.254-.86-.085-1.117L32.805 1.89c-.338-.344-.76-.344-1.1-.086l-1.521 1.203c-.254-.086-.507-.258-.761-.344l-.254-1.89C29.085.343 28.746 0 28.324 0h-2.79c-.423 0-.761.344-.846.773l-.338 1.891c-.254.086-.507.172-.76.344l-1.523-1.203c-.338-.258-.845-.258-1.099.086l-2.03 2.062c-.337.344-.337.774-.084 1.117l1.184 1.547c-.084.258-.254.516-.338.774l-1.86.258c-.423.086-.761.43-.761.86v2.835c.084.43.338.859.76.859zm1.014-2.922l1.691-.258c.339-.086.592-.258.677-.601.169-.516.338-.945.592-1.461.169-.258.169-.688-.085-.946l-1.015-1.374.93-.946 1.353 1.032c.254.172.676.258.93.086.422-.258.93-.43 1.437-.602.339-.085.592-.343.592-.687l.254-1.719h1.352l.254 1.719c.085.344.254.601.592.687.508.086 1.015.343 1.438.601.254.172.676.172.93-.085l1.352-1.032.93.945-1.014 1.375c-.169.258-.253.688-.084.946.254.43.422.945.591 1.46.085.345.339.602.677.602l1.691.258v1.375l-1.691.258c-.338.086-.592.258-.677.601-.084.516-.338.946-.591 1.375-.17.258-.17.688.084.946l1.015 1.374-.93.946-1.352-1.032c-.254-.172-.677-.258-.93-.086-.423.258-.93.43-1.438.602-.338.085-.592.343-.592.687l-.253 1.719H26.21l-.254-1.719c-.084-.344-.254-.601-.591-.687a10.27 10.27 0 01-1.438-.602c-.254-.171-.677-.171-.93.086l-1.353 1.032-.93-.946 1.015-1.374c.17-.258.254-.688.085-.946-.254-.43-.423-.945-.592-1.46-.084-.345-.338-.602-.676-.602l-1.691-.258-.002-1.289z" fill="#404040"/><path d="M26.887 14.179c2.283 0 4.228-1.89 4.228-4.297 0-2.406-1.86-4.297-4.228-4.297-2.283 0-4.228 1.89-4.228 4.297 0 2.406 1.945 4.297 4.228 4.297zm0-6.79c1.352 0 2.536 1.118 2.536 2.579s-1.099 2.578-2.536 2.578c-1.353 0-2.537-1.117-2.537-2.578 0-1.46 1.184-2.578 2.537-2.578z" fill="#404040"/></svg>