<svg width="55" height="55" fill="none" xmlns="http://www.w3.org/2000/svg"><path d="M21.821 13.505h6.976c.537 0 .894-.356.894-.889V4.708c0-.533-.358-.888-.894-.888H21.82c-.537 0-.895.355-.895.888v7.908c0 .444.358.889.895.889zm.894-7.908h5.187v6.13h-5.187v-6.13zm-.894 12.795H42.66c.537 0 .894-.355.894-.889 0-.532-.357-.888-.894-.888H21.821c-.536 0-.894.356-.894.889 0 .532.357.888.894.888zm0 5.153H42.66c.537 0 .894-.355.894-.889 0-.532-.357-.888-.894-.888H21.821c-.536 0-.894.355-.894.889 0 .533.357.888.894.888zM31.836 6.93h10.822c.536 0 .894-.356.894-.889s-.358-.888-.894-.888H31.836c-.536 0-.894.355-.894.888s.358.889.894.889zm0 5.241h10.822c.536 0 .894-.355.894-.888s-.358-.888-.894-.888H31.836c-.536 0-.894.355-.894.888s.358.889.894.889z" fill="#404040"/><path d="M52.317 39.45l2.146-12.084a.689.689 0 00-.178-.71c-.18-.178-.447-.356-.716-.356h-3.488v-8.352c0-.533-.358-.889-.894-.889h-1.52V.89c0-.534-.358-.889-.895-.889h-29.87c-.536 0-.894.355-.894.888v13.773l-5.187-4.976a.815.815 0 00-.626-.266h-9.3c-.537 0-.895.355-.895.888V51.89c0 .445.358.978.894.978h38.813C41.317 54.2 43.374 55 45.7 55c5.097 0 9.3-4.176 9.3-9.24-.09-2.4-1.073-4.71-2.683-6.31zm-1.61-1.333c-1.43-.977-3.22-1.51-5.097-1.51-5.098 0-9.301 4.175-9.301 9.24 0 1.955.626 3.82 1.699 5.242H1.967l5.545-22.835c19.675-.088 24.951-.088 44.984-.177l-1.789 10.04zm-2.415-19.192v7.464h-.625v-7.464h.625zM17.797 1.776h28.082V26.39c-13.147.088-22.09.088-28.082.088v-24.7zm-7.96 9.508l6.171 5.953v9.33H6.886c-.447 0-.894.444-.894.888L1.788 44.603V11.284h8.05zM45.61 53.312c-4.114 0-7.512-3.377-7.512-7.464 0-4.087 3.398-7.464 7.512-7.464 4.114 0 7.513 3.377 7.513 7.464 0 4.087-3.31 7.464-7.513 7.464z" fill="#404040"/><path d="M48.65 42.47l-4.56 4.532-1.432-1.421a.868.868 0 00-1.252 0 .855.855 0 000 1.243l2.057 2.044a.97.97 0 00.626.267.967.967 0 00.626-.267l5.187-5.153a.855.855 0 000-1.244.868.868 0 00-1.252 0z" fill="#404040"/></svg>