<svg width="38" height="55" fill="none" xmlns="http://www.w3.org/2000/svg"><path d="M37.036 10.106L27.215.285A.981.981 0 0026.518 0H.982A.982.982 0 000 .982v53.036A.982.982 0 00.982 55H36.34a.983.983 0 00.982-.982V10.804a.981.981 0 00-.285-.698zM27.5 3.35l6.472 6.472H27.5V3.35zM1.964 53.035V1.964h23.572v8.84a.983.983 0 00.982.981h8.84v41.25H1.963z" fill="#404040"/><path d="M30.446 29.464H6.875a.982.982 0 000 1.965h23.571a.982.982 0 100-1.965zm0-5.892H6.875a.982.982 0 000 1.964h23.571a.982.982 0 000-1.965zm0-5.894H6.875a.982.982 0 000 1.965h23.571a.982.982 0 000-1.965zM6.875 13.75h13.75a.982.982 0 100-1.964H6.875a.982.982 0 000 1.964zm21.608 27.5h-3.929a.984.984 0 00-.874.54l-.619 1.228-.481-2.947a.983.983 0 00-1.758-.432l-2.652 3.575h-1.473a.982.982 0 000 1.965h1.964c.31 0 .6-.146.786-.393l1.571-2.092.59 3.624a.982.982 0 001.846.285l1.71-3.389h3.319a.982.982 0 100-1.964zm1.963-5.893H6.875a.982.982 0 000 1.964h23.571a.982.982 0 000-1.964zM12.768 41.25H6.875a.982.982 0 000 1.964h5.893a.982.982 0 000-1.964z" fill="#404040"/></svg>