<svg width="36" height="18" fill="none" xmlns="http://www.w3.org/2000/svg"><path d="M35.18 1.22c.247-.703 0-1.22-1.19-1.22h-3.936c-1.003 0-1.464.444-1.711.939 0 0-2.005 4.112-4.839 6.778-.915.77-1.336 1.018-1.838 1.018-.247 0-.628-.247-.628-.95V1.22c0-.844-.28-1.22-1.11-1.22H13.74c-.628 0-1.002.393-1.002.759 0 .799 1.417.984 1.564 3.234v4.883c0 1.069-.227 1.265-.729 1.265-1.336 0-4.584-4.128-6.509-8.853C6.676.37 6.295 0 5.286 0H1.35C.227 0 0 .444 0 .939c0 .877 1.337 5.237 6.222 10.997C9.477 15.868 14.062 18 18.232 18c2.506 0 2.813-.473 2.813-1.289 0-3.757-.227-4.111 1.03-4.111.58 0 1.583.247 3.922 2.143C28.67 16.993 29.111 18 30.608 18h3.937c1.122 0 1.69-.473 1.363-1.407-.748-1.963-5.808-6.002-6.035-6.272-.581-.63-.414-.91 0-1.473.007-.006 4.812-5.698 5.306-7.628z" fill="#223455"/></svg>