<svg width="19" height="19" fill="none" xmlns="http://www.w3.org/2000/svg"><path d="M.004 18.182l1.284-4.472A8.6 8.6 0 010 9.182c0-4.971 4.253-9 9.5-9s9.5 4.029 9.5 9c0 4.97-4.253 9-9.5 9a9.862 9.862 0 01-4.778-1.22l-4.718 1.22zM6.07 4.959a.953.953 0 00-.352.09 1.222 1.222 0 00-.28.205c-.113.102-.178.19-.247.275-.351.433-.54.965-.537 1.51.002.442.124.87.314 1.272.388.812 1.027 1.672 1.872 2.468.203.192.402.384.616.563a9.146 9.146 0 003.648 1.842l.54.078c.176.01.352-.003.528-.011a1.99 1.99 0 00.792-.208c.124-.061.245-.127.364-.198 0 0 .04-.026.118-.081.129-.09.207-.154.314-.26.079-.077.147-.168.2-.271.073-.147.147-.427.178-.66.023-.178.016-.276.013-.336-.004-.096-.088-.196-.18-.238l-.553-.235s-.827-.341-1.331-.56a.498.498 0 00-.168-.036.481.481 0 00-.36.114v-.002c-.004 0-.068.052-.755.84a.332.332 0 01-.156.11.35.35 0 01-.193.007 1.378 1.378 0 01-.182-.06c-.117-.046-.158-.064-.24-.097l-.004-.002a5.759 5.759 0 01-1.491-.9c-.12-.1-.231-.207-.345-.311-.374-.34-.7-.723-.97-1.142L7.17 8.64a.814.814 0 01-.097-.185c-.036-.132.058-.238.058-.238s.23-.24.338-.37c.09-.107.173-.219.25-.335.112-.17.147-.346.088-.482a72.859 72.859 0 00-.824-1.837c-.056-.12-.223-.207-.374-.224a4.444 4.444 0 00-.154-.015 3.391 3.391 0 00-.383.004z" fill="#223455"/></svg>