<svg width="562" height="262" fill="none" xmlns="http://www.w3.org/2000/svg"><path opacity=".2" d="M80.819 70.754l72.986 11.82L273.062 66.13l88.913 23.613 89.689-20.01 83.151 159.045-134.009 31.623-128.597-13.254-150.298 14.171-94.74-37.785L80.82 70.754z" fill="#000"/><path d="M60.176 5.623l80.504 13.034L272.248.52l98.072 26.042 98.938-22.076L561 179.948l-147.831 34.878-141.864-14.622-165.8 15.63L1 174.161 60.176 5.623z" fill="#fff" stroke="#263238" stroke-linecap="round" stroke-linejoin="round"/><path d="M75.484 16.951l62.884 11.33 133.157-16.987 100.849 23.794 87.26-19.829 74.807 158.282-126.22 31.39-135.998-13.047-165.581 11.484-79.096-35.071L75.484 16.952z" fill="#FF8562" stroke="#263238" stroke-linecap="round" stroke-linejoin="round"/><path opacity=".64" d="M433.657 86.953l-48.752 12.763h-14.83s19.08 18.369 55.805 21.896c36.725 3.526 45.212-3.527 45.212-3.527l-37.435-31.132zm-211.93-64.279l-32.501 7.066-4.237 11.303 20.487-4.237-4.947 25.422 24.027-2.816 4.237-28.974-7.066-7.764zm-20.488 43.792l-2.118 12.724 14.132-2.83V65.769l-12.014.698zm-8.474-.001l-2.829 14.132-27.554 3.54.71-9.895 29.673-7.777zm162.803 62.884c-13.461 0-24.376 6.95-24.376 15.501 0 8.552 10.915 15.502 24.376 15.502 13.46 0 24.376-6.963 24.376-15.502 0-8.538-10.89-15.501-24.376-15.501zm0 22.593c-6.123 0-11.084-3.152-11.084-7.053s4.961-7.066 11.084-7.066c6.123 0 11.109 3.23 11.109 7.105 0 3.875-4.96 7.014-11.109 7.014zm-193.186 33.213l19.08-46.634-42.384 2.132-6.368 16.237h19.777l-14.83 33.91 24.725-5.645zm81.951-101.728l28.251-6.356 36.739 11.303-28.265 4.935-7.763-6.356-28.962 5.658v-9.184zm1.408-26.844l.711 18.37 12.711-2.83-2.119-16.25-11.303.71zM69.84 66.465L58.535 98.966l45.923 12.014 7.066-25.435-19.777-18.37-21.909-.71z" fill="#fff"/><path d="M524.791 153.105l-18.278-18.085c3.152-.4 6.2-.839 9.12-1.292l-2.287-4.857c-3.656.543-7.492 1.06-11.497 1.525l-54.487-53.932c14.481-2.157 28.238-4.018 38.753-5.103l-2.338-4.934c-11.367 1.214-25.835 3.216-40.742 5.464l.155-.943-1.744-.271-19.209-19.015 43.132-24.376-2.208-4.677-44.696 25.268-19.118-18.912-5.969 1.292 39.439 39.012-125.432-19.623c-.608-1.382-1.215-2.764-1.77-4.185a167.863 167.863 0 01-8.319-28.096l-5.555-1.292a174.334 174.334 0 009.043 31.132l.62 1.511-29.388-4.611-30.331 2.648-1.085-31.52-5.168.66 2.829 86.226c-1.756 0-3.513 0-5.167-.078-47.731-1.382-99.286-15.307-106.92-19.467-5.168-2.855-16.794-16.302-22.981-23.937 12.646-.659 24.879-2.364 32.113-6.123 9.921-5.167 33.393-18.795 53.558-30.68l-13.021 1.667c-17.22 10.089-34.724 20.19-42.9 24.427-14.636 7.596-53.829 6.02-68.878 5.09l-1.615 5.09c5.606.374 15.398.89 26.249.89 2.584 0 5.36 0 8.087-.102 1.937 2.454 18.924 23.846 26.92 28.212 7.996 4.366 59.9 18.666 109.246 20.087 1.817.052 3.665.078 5.542.078l.387 11.794-39.489 1.149-.595-.206-.077.219-78.437 2.287-72.417-18.343-1.563 4.934 44.605 11.277-41.337 57.653 4.831 2.131 41.931-58.414 23.433 5.929 77.158-2.248-22.464 63.414-26.391 11.626 15.217-1.047 108.923-47.95 77.727-41.635a127.991 127.991 0 0028.419 14.21 228.58 228.58 0 0027.812 7.815l-11.393 22.8-46.957 44.515 6.821.646 44.024-41.725.323-.31 12.427-24.854c13.082 2.481 26.328 4 39.632 4.548l-10.464 59.421 5.49-1.356 10.257-57.923c2.7.064 5.374.116 8.022.116a332.59 332.59 0 0035.614-1.951l31.3 31.003-6.472-13.693zM180.945 186.02l21.469-60.714 36.635-1.046 1.176 35.692-59.28 26.068zM429.432 74.048c-29.969 4.728-58.582 9.844-64.809 11.084l-5.167 1.046c-5.529 1.15-14.145 2.945-24.608 4.909a127.997 127.997 0 01-24.97-35.808l119.554 18.77zM241.891 51.92l29.905-2.584 31.959 5.013a137.597 137.597 0 0025.202 37.875c-17.568 3.19-39.27 6.626-60.416 8.499l-.22-.322-.594.4c-8.267.71-16.432 1.188-24.234 1.292l-1.602-50.173zm1.809 55.288c5.012-.077 10.179-.31 15.411-.646l-15.088 10.18-.323-9.534zm26.378 39.555l-24.725 10.876-1.136-34.787 25.318-17.091c22.632-2.041 45.794-5.813 63.905-9.171a121.236 121.236 0 0011.794 9.908l-75.156 40.265zm110.034-27.67a120.412 120.412 0 01-40.562-23.666 1215.084 1215.084 0 0021.004-4.224l5.077-1.046c9.223-1.848 43.146-7.751 75.35-12.724l54.254 53.647c-32.617 3.139-74.471 2.377-115.123-11.987z" fill="#fff" stroke="#263238" stroke-linecap="round" stroke-linejoin="round"/><path d="M114.354 158.892l-8.281 48.442m31.172-182.451L116.034 149.05M271.176 5.713l.711 50.16m103.82 9.352l28.988 122.048M367.957 32.556l6.368 26.843M272.584 196.457l-.698-29.672" stroke="#263238" stroke-linecap="round" stroke-linejoin="round"/><path d="M355.777 75.147a27.312 27.312 0 00-10.391 2.041 27.139 27.139 0 00-8.811 5.835 26.91 26.91 0 00-5.888 8.738 26.749 26.749 0 00-2.068 10.309c0 14.896 27.158 42.601 27.158 42.601s27.128-27.705 27.128-42.601c0-7.14-2.858-13.988-7.946-19.037a27.233 27.233 0 00-19.182-7.886zm0 37.675a9.212 9.212 0 01-5.088-1.53 9.115 9.115 0 01-3.378-4.074 9.035 9.035 0 01-.532-5.25 9.081 9.081 0 012.494-4.66 9.186 9.186 0 014.679-2.504 9.234 9.234 0 015.293.494 9.15 9.15 0 014.127 3.326 9.052 9.052 0 011.574 5.04 9.064 9.064 0 01-2.686 6.435 9.206 9.206 0 01-6.483 2.665v.058z" fill="#263238" stroke="#263238" stroke-linecap="round" stroke-linejoin="round"/></svg>