<svg width="1920" height="842" fill="none" xmlns="http://www.w3.org/2000/svg"><path opacity=".2" fill-rule="evenodd" clip-rule="evenodd" d="M2052.27 820.465c-101.36 24.068-359.88 47.721-583.18-50.213-69.8-30.616-94.02-64.812-97.32-99.957-1.64-17.55 1.93-35.299 7.6-52.899 4.09-12.707 9.28-25.358 14.38-37.806v-.002l.01-.013c1.96-4.781 3.9-9.532 5.77-14.246 13.5-34.032 22.85-66.061 3.51-93.61-9.68-13.785-26.57-26.488-53.82-37.756-27.25-11.266-64.84-21.087-115.89-29.122-153.73-24.2-263.241-6.703-355.909 8.103h-.001c-30.402 4.857-58.991 9.425-86.733 12.135-56.151 5.487-108.822 3.359-165.986-19.412-57.158-22.768-118.779-66.162-192.856-143.158-74.016-76.931-140.166-105.778-202.136-107.939-61.987-2.162-119.853 22.373-177.313 52.34-13.9 7.248-27.776 14.816-41.681 22.399l-.001.001c-43.553 23.751-87.382 47.653-133.054 62.388-60.279 19.449-123.806 22.947-194.237-10.885l.279-.596c70.244 33.743 133.591 30.261 193.749 10.851 45.609-14.715 89.362-38.575 132.902-62.319l.003-.002c13.914-7.588 27.806-15.163 41.73-22.425 57.472-29.973 115.468-54.581 177.638-52.413 62.187 2.169 128.492 31.124 202.592 108.144 74.039 76.956 135.583 120.28 192.621 143 57.033 22.718 109.589 24.848 165.678 19.368 27.694-2.706 56.252-7.269 86.634-12.123 92.682-14.809 202.331-32.328 356.181-8.11 51.07 8.039 88.71 17.87 116.03 29.164 27.32 11.294 44.34 24.062 54.12 37.991 19.57 27.877 10.04 60.245-3.43 94.238a1287.22 1287.22 0 01-5.8 14.288c-5.1 12.441-10.27 25.055-14.35 37.738-5.66 17.56-9.2 35.212-7.57 52.634 3.26 34.799 27.22 68.837 96.92 99.405 223.12 97.856 481.48 74.224 582.76 50.175l.16.644zm-547.53-88.823c223.3 97.934 481.81 74.281 583.17 50.213l-.16-.644c-101.28 24.049-359.63 47.681-582.76-50.175-69.7-30.568-93.66-64.606-96.92-99.405-1.63-17.423 1.92-35.074 7.57-52.634 4.08-12.683 9.25-25.298 14.35-37.738 1.97-4.791 3.92-9.555 5.8-14.288 13.48-33.993 23-66.361 3.43-94.238-9.78-13.929-26.8-26.697-54.11-37.991-27.32-11.294-64.97-21.125-116.04-29.164-153.84-24.218-263.5-6.699-356.178 8.11-30.382 4.854-58.94 9.417-86.634 12.123-56.089 5.48-108.645 3.35-165.677-19.368-57.038-22.721-118.582-66.044-192.621-143-74.101-77.02-140.405-105.975-202.593-108.144-62.17-2.168-120.165 22.44-177.637 52.413-13.924 7.261-27.817 14.837-41.73 22.425l-.004.002c-43.54 23.744-87.293 47.604-132.901 62.319-60.158 19.41-123.505 22.892-193.75-10.851l-.279.596c70.432 33.832 133.958 30.334 194.238 10.885 45.671-14.735 89.5-38.637 133.053-62.388l.001-.001.001-.001c13.905-7.582 27.781-15.15 41.68-22.399 57.46-29.966 115.326-54.501 177.314-52.339 61.97 2.161 128.119 31.008 202.135 107.939 74.077 76.996 135.698 120.39 192.856 143.158 57.164 22.77 109.835 24.899 165.986 19.412 27.743-2.71 56.331-7.278 86.733-12.135h.001c92.666-14.806 202.186-32.303 355.916-8.103 51.04 8.035 88.63 17.856 115.88 29.122 27.25 11.268 44.14 23.971 53.82 37.756 19.35 27.549 9.99 59.578-3.5 93.61-1.86 4.681-3.79 9.399-5.74 14.147l-.04.098-.01.014v.003c-5.1 12.448-10.29 25.098-14.38 37.805-5.66 17.6-9.24 35.349-7.59 52.899 3.29 35.145 27.51 69.341 97.32 99.957zm618.81 11.597c-101.36 24.068-359.87 47.721-583.17-50.213-69.81-30.616-94.03-64.812-97.32-99.957-1.65-17.55 1.93-35.299 7.59-52.899 4.09-12.709 9.28-25.361 14.39-37.81v-.013c1.96-4.78 3.91-9.531 5.78-14.243 13.49-34.033 22.85-66.062 3.5-93.611-9.67-13.785-26.57-26.488-53.82-37.755-27.25-11.267-64.84-21.088-115.88-29.123-153.73-24.2-263.25-6.703-355.915 8.103h-.001c-30.402 4.857-58.99 9.425-86.732 12.135-56.152 5.487-108.823 3.359-165.986-19.412-57.158-22.768-118.779-66.162-192.857-143.157-74.022-76.94-139.498-110.973-200.453-120.892-60.962-9.92-117.45 4.27-173.523 23.877-15.414 5.39-30.796 11.19-46.23 17.009-96.832 36.508-195.718 73.791-317.186 15.444l.279-.596c121.194 58.216 219.8 21.046 316.635-15.458 15.443-5.821 30.841-11.626 46.278-17.024 56.1-19.616 112.716-33.852 173.845-23.905 61.134 9.949 126.734 44.076 200.827 121.088 74.039 76.956 135.583 120.28 192.621 143 57.032 22.718 109.588 24.848 165.678 19.368 27.693-2.706 56.252-7.269 86.633-12.123 92.687-14.809 202.337-32.328 356.177-8.11 51.07 8.039 88.72 17.87 116.04 29.164 27.31 11.294 44.33 24.062 54.11 37.991 19.57 27.878 10.05 60.245-3.43 94.238-1.88 4.733-3.83 9.497-5.79 14.288l-.01.006c-5.1 12.439-10.27 25.051-14.35 37.732-5.65 17.561-9.2 35.212-7.57 52.634 3.27 34.8 27.23 68.837 96.93 99.406 223.12 97.855 481.48 74.223 582.75 50.174l.16.644zm35.64-38.606c-101.35 24.067-359.87 47.72-583.17-50.213-69.81-30.616-94.03-64.813-97.32-99.958-1.65-17.55 1.93-35.299 7.6-52.898 4.09-12.709 9.27-25.361 14.38-37.811v-.012c1.96-4.781 3.91-9.532 5.78-14.244 13.49-34.033 22.85-66.062 3.51-93.611-9.68-13.785-26.57-26.488-53.83-37.755-27.25-11.267-64.84-21.087-115.88-29.122-156.79-24.683-267.95-3.693-362.223 14.11h-.002c-28.48 5.378-55.42 10.465-81.613 13.914-56.45 7.435-109.423 7.256-166.816-14.053-57.387-21.308-119.161-63.73-193.239-140.727-74.031-76.947-138.746-117.01-198.56-135.952-59.814-18.942-114.758-16.774-169.271-9.205-18.094 2.512-36.141 5.62-54.303 8.749C22.969 41.563-71.187 57.78-188.608 1.375l.278-.596C-71.113 57.085 22.82 40.911 114.072 25.198c18.174-3.13 36.241-6.24 54.365-8.757 54.557-7.576 109.613-9.755 169.561 9.23 59.947 18.984 124.755 59.121 198.84 136.126 74.038 76.954 135.73 119.302 192.99 140.563 57.254 21.258 110.109 21.444 166.5 14.018 26.151-3.444 53.064-8.527 81.526-13.901 94.286-17.806 205.586-38.824 362.506-14.122 51.06 8.039 88.71 17.87 116.03 29.165 27.32 11.294 44.33 24.062 54.11 37.99 19.58 27.878 10.05 60.245-3.43 94.238-1.87 4.733-3.83 9.498-5.79 14.288l-.01.007c-5.09 12.438-10.27 25.051-14.35 37.731-5.65 17.561-9.2 35.212-7.56 52.634 3.26 34.8 27.22 68.838 96.92 99.406 223.12 97.855 481.48 74.223 582.75 50.175l.16.644z" fill="url(#paint0_linear_378_4805)"/><defs><linearGradient id="paint0_linear_378_4805" x1="-8.414" y1="134.488" x2="2174.57" y2="396.939" gradientUnits="userSpaceOnUse"><stop offset=".31" stop-color="#252525"/><stop offset=".594" stop-color="#141414" stop-opacity=".9"/><stop offset=".852" stop-opacity=".8"/></linearGradient></defs></svg>