<svg width="35" height="27" fill="none" xmlns="http://www.w3.org/2000/svg"><path d="M32.813.817H2.186c-.58 0-1.136.229-1.546.635-.41.406-.64.957-.64 1.532v21.667c0 .574.23 1.125.64 1.532a2.2 2.2 0 001.548.634h30.625c.58 0 1.136-.228 1.546-.634A2.16 2.16 0 0035 24.651V2.984c0-.575-.23-1.126-.64-1.532a2.198 2.198 0 00-1.547-.635zm-1.685 23.834H4.003l7.656-7.844-1.575-1.505-7.896 8.092V4.631l13.595 13.4a2.198 2.198 0 003.084 0L32.812 4.296v18.958l-8.05-7.973-1.542 1.527 7.908 7.844zM3.62 2.984h27.42l-13.715 13.51L3.62 2.983z" fill="#333"/></svg>